<?xml version="1.0" encoding="UTF-8"?>
<svg id="Layer_2" data-name="Layer 2" xmlns="http://www.w3.org/2000/svg" viewBox="0 0 372.2 549.1"><defs>
    <style>
      .cls-1 {
        fill: none;
      }

      .cls-2 {
        fill: #c1ada7;
      }

      .cls-3 {
        fill: #742e74;
      }

      .cls-4 {
        fill: #372526;
      }

      .cls-5 {
        fill: #c45f41;
      }

      .cls-6 {
        fill: #ae3c2d;
      }

      .cls-7 {
        fill: #2d0903;
      }

      .cls-8 {
        fill: #fbac6c;
      }

      .cls-9 {
        fill: #038353;
      }

      .cls-10 {
        fill: #232323;
      }

      .cls-11 {
        fill: #0a9c74;
      }

      .cls-12 {
        fill: #b84d34;
      }

      .cls-13 {
        fill: #491c48;
      }

      .cls-14 {
        fill: #3a310b;
      }

      .cls-15 {
        fill: #fed6b1;
      }

      .cls-16 {
        fill: #8e3226;
      }

      .cls-17 {
        fill: #f7b750;
      }

      .cls-18 {
        fill: #cf99ce;
      }

      .cls-19 {
        fill: #db7141;
      }

      .cls-20 {
        fill: #4edf49;
      }

      .cls-21 {
        fill: #f38849;
      }

      .cls-22 {
        fill: #5e131c;
      }

      .cls-23 {
        fill: #edd8de;
      }

      .cls-24 {
        fill: #b14f3d;
      }

      .cls-25 {
        fill: #281a26;
      }

      .cls-26 {
        fill: #18bb48;
      }

      .cls-27 {
        fill: #8e0d40;
      }

      .cls-28 {
        fill: #ffbf92;
      }

      .cls-29 {
        fill: #f0935d;
      }

      .cls-30 {
        fill: #ab1a60;
      }

      .cls-31 {
        fill: #a7629d;
      }

      .cls-32 {
        fill: #bdeded;
      }

      .cls-33 {
        fill: #c12e4b;
      }

      .cls-34 {
        fill: #fce593;
      }

      .cls-35 {
        fill: #ddcfe4;
      }

      .cls-36 {
        fill: #f8ae89;
      }

      .cls-37 {
        fill: #747ad6;
      }

      .cls-38 {
        fill: #3b1932;
      }

      .cls-39 {
        fill: #1c0f10;
      }

      .cls-40 {
        fill: #a04394;
      }

      .cls-41 {
        fill: #6d1916;
      }

      .cls-42 {
        fill: #f9f0e7;
      }

      .cls-43 {
        fill: #dcbdd8;
      }

      .cls-44 {
        fill: #075a36;
      }

      .cls-45 {
        fill: #3546c3;
      }

      .cls-46 {
        fill: #a66bb7;
      }

      .cls-47 {
        fill: #fbfbfc;
      }

      .cls-48 {
        fill: #a6403b;
      }

      .cls-49 {
        fill: #fea17a;
      }

      .cls-50 {
        fill: #cc5637;
      }

      .cls-51 {
        fill: #f7d613;
      }

      .cls-52 {
        fill: #c386c3;
      }

      .cls-53 {
        fill: #992d24;
      }

      .cls-54 {
        fill: #fcf8e9;
      }

      .cls-55 {
        opacity: .2;
      }

      .cls-55, .cls-56 {
        fill: #7aebe9;
      }

      .cls-57 {
        fill: #e2633f;
      }

      .cls-58 {
        fill: #ac4a30;
      }

      .cls-59 {
        fill: #c9892d;
      }

      .cls-60 {
        fill: #e6794d;
      }

      .cls-61 {
        fill: #882c80;
      }

      .cls-62 {
        fill: #676081;
      }

      .cls-63 {
        fill: #903893;
      }

      .cls-64 {
        fill: #c392c2;
      }

      .cls-65 {
        fill: #58ccb3;
      }

      .cls-66 {
        fill: #19ab86;
      }

      .cls-67 {
        fill: #661b6a;
      }

      .cls-68 {
        fill: #90eaeb;
      }

      .cls-69 {
        fill: #d7643c;
      }

      .cls-70 {
        fill: #eb6351;
      }

      .cls-71 {
        fill: #f77850;
      }

      .cls-72 {
        fill: #fcfcfc;
      }

      .cls-73 {
        fill: #432229;
      }

      .cls-74 {
        fill: #95409b;
      }

      .cls-75 {
        fill: #931313;
      }

      .cls-76 {
        fill: #cb6781;
      }

      .cls-77 {
        fill: #e42219;
      }

      .cls-78 {
        fill: #29999b;
      }

      .cls-79 {
        fill: #d8f6fb;
      }

      .cls-80 {
        fill: #353535;
      }

      .cls-81 {
        fill: #fe9c5d;
      }

      .cls-82 {
        fill: #2d0e14;
      }

      .cls-83 {
        fill: #320532;
      }

      .cls-84 {
        fill: #1d121b;
      }

      .cls-85 {
        fill: #227adf;
      }
    </style>
  </defs>
  <g id="ART">
    <g>
      <g>
        <path class="cls-7" d="M211.95,520.19q-.77,1.54-1.54,3.08"/>
        <g>
          <path class="cls-74" d="M303.17,309.76c-1.24-1.6-3.67-2.36-3.85-2.5-10.06-8.29-24.13-16.86-2.96-2.82-.56,1.8-2.98,7.25-3.97,7.63-.2.73.49,1.05.38,1.73-4.1,12.4-6.36,33.84-9.24,44.46-.11.41-.47,1.6-1.15,1.35-.59-3.38-1.17-6.59-1.54-10.01-1.45-13.51-1.72-32.49-1.15-46.19.83-.67-1.75-4.35-2.33-4.97-7.25-2.56-9.1-5.05-16.53-6.96-4.01-1.03-7.41-5.9-3.66-4.62,8.34,2.84,17.06,3.18,25.19,6.58,9.11,3.81,21.44,13.9,22.54,14.59,5.46,3.41,3.46,38.41,3.46,38.41,0,0-4.32-29.62-5.19-36.68Z"/>
          <path class="cls-74" d="M318.36,369.44c-8-17-13.45-47.56-15.19-61.68-1.24-1.6-2.4-1.94-2.37-2.24,0-.06-1.01.06-1,0,.28-1.6-.74.59-.48-1.26-10.06-8.29-26.53,4.88-27.52,5.26-.2.73,21.08.6,20.98,1.28-4.1,12.4-19.6,50.59-18.98,57.72.07.76,2,15-2,20,.01.13,31.47-1.27,31.56-2.08-.34-.66-.72-1.44-1.12-2.31,1.81-7.14,4.67-3.64,6.94-11.07.06.14.12.26.18.38,1.01-3.61,10.61-.59,9-4Z"/>
        </g>
      </g>
      <g>
        <path class="cls-74" d="M130.04,344.25c-.59,2.72-4.49,27.02-5.24,28.27-1.27,2.14-4.76,22.98-5,23-4-5.75-12-28.25-16-34,0-.25,7.74-.52,7.74-.77,4.35-8.98,15.16-50.35,18.75-54.5,1.27-1,2.97-1.6,4.25-2.5-1.27,12.79-1.78,28.06-4.5,40.5Z"/>
        <path class="cls-74" d="M132.04,408.75c-1.85-2.33-5.92-5.5-7.5-7.5-1.71-2.16-3.71-4.15-5.5-6.25-.41-.58-.44-2.15-.5-2.25,3.14-6.27,2.61-13.35-.5-19.5-.06-1.73.33-.39,1.5-.5.24-.02.23,1.39,1.5-.75.75-1.25,8.55-30.5,9-27.75-2.24-13.73,10.76-9.73,14.76,2.27,1.36,4.09-1.13,20.1-1,26,.25,11.55-11.39,34.89-11.76,36.23Z"/>
      </g>
      <path class="cls-67" d="M131.8,409.52l11-26s-1.34-11-1-14c.36-3.18,2-19,6-26,2.56-4.48-9.33,4.79-12-5,3,11,5.02,20.37,0,39-2.48,9.2-11,24-11,24l7,8Z"/>
      <g>
        <g>
          <path class="cls-17" d="M234.94,530.68c-17.25,1.58-91.19-26.61-87.03-9.82.25,1.01,4.19,17.73,8,21,7,6,43,8,67,7,14.33,0,54.02-11.14,55.03-16.18.97-4.82,1-6,2-12-14.1,5.2-30.06,8.63-45,10Z"/>
          <path class="cls-59" d="M208.24,549.1l-1.33-10.67s2.67,10.67,4,10.67h-2.67Z"/>
        </g>
        <path class="cls-60" d="M204.36,287.6c.71,3.53,2.55,6.76,4.23,9.87.53,2.76-4.38.74-7.75,1.41-6.76,1.35-7.99,7.91-3.52-3.52,1.12-2.87,2.56-5.54,3.52-8.46,3.02,1.74,2.48.94,3.52.7Z"/>
        <g>
          <path class="cls-74" d="M273.04,381.75s2.01-1.33,2-1c.79.22,24.08-24.13,27-32,.78-2.09,5-16,3.64-22.19-2.22-8.65-5.33-16.92-11.1-23.73-11.06-13.05-23.06-9.92-32-12.75-2.06,4.39-4.56,8.65-7.5,12.5-1.79,6.55-15.09,23.07-21.75,23.5-9.38.61-14.95-13.49-21.25-17.5.77,7.01-1.52,13.2-8,16.75.27,1.15,3.33-2.49,4,2.75,4.99-2.53-2.85,6.03-6.25,6.5-7.5,1.03-10.54-8.74-11.25-14.75-.29-2.47-.34-9.47,1-8.75-.4-5.91,2.16-10.9,5-16-.53.21.22-1.48-3,1.75-3.25,3.26-20.49,27.48-22.25,27.75-.29.04-5.13-2.48-5.25-2.75-1.4-3.12-.03-30.67-2.75-32.25-.73-.42-3.62.87-3.25-1-7.49.57-11.19.92-18.25,5-10.18,5.89-16.63,22.63-18.25,28.25-.77,2.69-22.41,36.23-19.77,39.69,1.89,2.47,8.95,11.59,17,4,4.83-4.55,10.84-26.07,14-28,2.81-1.72,7.18,7.33,8.24,8.23,1.88,1.61,3.84-.93,4.94-2.87-3.33,7.68-9.15,19.78-7.94,29.87,1.37,11.43,6.94,17.95,11,21,2.73,2.05,9,4,9,4,0,0,5.05,5.22-1,15-2.44,3.95-9.95,14.22-18.96,37.33-4.86,19.13-8.8,38.44-11.5,58-.3,2.14-.09,4.45-1,6.5,14.74,9.85,38.13,13.18,55.5,15,17.19,1.8,34.75,2.58,52,1,14.94-1.36,30.9-4.79,45-10,4.67-1.72,10.18-4.03,14.5-6.5-2.17-15.61-5.7-30.88-10-46-3.23-11.34-6.45-22.5-12-33-7.44-5.87-5.13-31.09-3.95-43.02l4.42-10.3Z"/>
          <path class="cls-67" d="M269.04,385.75c.04.06.06.13.09.21-.01-.17-.04-.24-.09-.21Z"/>
          <path class="cls-67" d="M269.13,385.97c.02.22,0,.59-.03,1.11.11-.46.12-.84.03-1.11Z"/>
        </g>
        <path class="cls-67" d="M272.44,433.18c-4.87-6.97-4.71-26.63-3.53-39.53,2.34-3.03,4.3-6.79,5.03-10.22.97-3.58.43-15.82-2.75-24.75-1.58.23,4.64,12.67-.78,23.88-2.11,2.97-4.93,6.89-9.43,9.94-2.21,1.34-4.8,2.56-7.86,3.61-5.94,1.64-13.75,1.73-24.21-1.26.64.18,35.3,40.12,43,56s16.24,62.78,15,67c.46-.1,6.78-3.39,10-5,2-1-2.74-48.58-24.47-79.67Z"/>
        <path class="cls-67" d="M165.95,399.18c5,0,10-3,10-3-6,3-16.04,1.67-16.04,1.67,0,0,1.12,1.84,1,5-.12,3.34-1.54,8.12-3.96,12.33-4,6.95-7.14,12.93-9.58,17.88-2.76,4.78-4.86,10.17-6.12,13.6-.92,2.33-1.31,3.52-1.31,3.52-4.86,19.13-9.34,45.12-12.04,64.67,6.62,4.02,7,4,7,4,0,0-3.25-21.94,2.02-42.41,7.46-28.98,19.64-41.24,22.98-46.59,15-24,6.04-30.67,6.04-30.67Z"/>
        <path class="cls-67" d="M135.04,337.75s7,3,13-1-3,13-3,13c0,0-6.24-2.23-10-12Z"/>
        <path class="cls-35" d="M201,354.47c-3.13,1.02-3.92-4.65-1-5,2.63-.31,3.1,4.32,1,5"/>
        <path class="cls-35" d="M201,374.47c-3.13,1.02-3.92-4.65-1-5,2.63-.31,3.1,4.32,1,5"/>
        <g>
          <path class="cls-67" d="M201.07,288.09c-.68,2.07-1.7,3.96-2.5,6-1.83-.3-1.9.96-2,1-.53.21.22-1.48-3,1.75-3.25,3.26-20.49,27.48-22.25,27.75-.29.04-5.13-2.48-5.25-2.75-1.4-3.12-.03-30.67-2.75-32.25-.73-.42-3.62.87-3.25-1,2.03-.15,3.94.87,6,.5-.58,8.83-.24,18.16,6.75,24.5.41,0,3.62-3.92,4.25-4.5,6.77-6.24,12.8-13.26,19.5-19.5.93-.87,2.32-1.39,3-2.5.19.17,1.22.84,1.5,1Z"/>
          <path class="cls-67" d="M191.57,311.08c.06.91-.04,1.84,0,2.75.18.49,1.14.92,1.5,1.25-4.75,6.42,6.79,10.22,2.75,9.5-.51-.09-1.95-1.38-2.5-2,2.35,8.5,7.18,9.34,14.75,5.5,4.99-2.53-2.85,6.03-6.25,6.5-7.5,1.03-10.54-8.74-11.25-14.75-.29-2.47-.34-9.47,1-8.75Z"/>
          <g>
            <path class="cls-52" d="M244.08,272.1c2.5,7.39,10.09,15.33,18.49,17.99-2.06,4.39-4.56,8.65-7.5,12.5-3.73,4.89-16.44,18.28-22.75,17.5-5.61-.69-23.98-26.03-26.75-32.5,10.69-3.61,21.25-9.81,28.51-18.49-.28-2.07-1.61-5.95-2-8,5.71.57,8.95,9.11,12,11Z"/>
            <path class="cls-67" d="M205.57,287.59c2.77,6.47,21.14,31.81,26.75,32.5,6.31.78,19.02-12.61,22.75-17.5-1.79,6.55-15.09,23.07-21.75,23.5-9.38.61-16.73-11.55-21.25-17.5-1.99-2.61-2.26-3.47-2.99-5.61-.43-1.28-.48-1.79-1-3-1.09-2.53-1.4-4.18-1.51-4.39-1.19-2.2-2.49-4.5-3-7,.11-.03-.48-.16,2-1Z"/>
            <g>
              <path class="cls-46" d="M189.57,271.59c-1.42-.22-1.75,4.51-2.5,7-2.73,9.06-10.13,26.79-10.5,28.25-.16.62-.16,2.32.5,2.25-.63.58-3.84,4.5-4.25,4.5-6.99-6.34-7.33-15.67-6.75-24.5,6.55-3.95,11.23-9.94,15.5-16,2.87-4.07,4.54-9.14,8.5-12.5-.31,3.11-.95,8.1-.5,11Z"/>
              <path class="cls-52" d="M196.57,289.59c-6.7,6.24-12.73,13.26-19.5,19.5-.66.07-.66-1.63-.5-2.25.37-1.46,7.77-19.18,10.5-28.25q4.75,5.5,9.5,11Z"/>
              <path class="cls-18" d="M189.57,271.59c.63,4.03,3.64,6.92,6,10,.61.79,3.74,5.28,4,5.5-.68,1.11-2.07,1.63-3,2.5q-4.75-5.5-9.5-11c.75-2.49,1.08-7.22,2.5-7Z"/>
            </g>
          </g>
        </g>
        <g>
          <path class="cls-43" d="M212.08,308.97c.77,7.01-1.66,12.91-8.14,16.46.27,1.15,3.33-2.49,4,2.75-7.57,3.84-12.4,3-14.75-5.5.55.62,1.99,1.91,2.5,2,4.04.72-7.5-3.08-2.75-9.5,1.1.99,9.96,4.57,10.75,4,.98-.71-.66-3.37-.25-4.75.3-1.02,3.05-1.61,4-3,1.53-2.24.81-6.54,3-8.25.72,2.14,1.37,3.34,1.64,5.79Z"/>
          <path class="cls-43" d="M198.44,294.18c-3.17,8.11-2.29,3.46,2.5,2.5-5.47,4.24-3.9,6.84-3.25,13,5.58-11.84,6.28,4.99,7.25-7.25l4-2.75c.52,1.21,1.07,2.22,1.5,3.5-2.19,1.71-1.47,6.01-3,8.25-.95,1.39-3.7,1.98-4,3-.41,1.37,1.23,4.04.25,4.75-.79.57-9.65-3.01-10.75-4-.36-.33-1.32-.76-1.5-1.25-.04-.91.06-1.84,0-2.75-.4-5.91,2.16-10.9,5-16,.1-.04.17-1.3,2-1Z"/>
          <path class="cls-64" d="M208.94,299.68l-4,2.75c-.97,12.24-1.67-4.59-7.25,7.25-.65-6.16-2.22-8.75,3.25-13,2.39-.48,5.88.95,5.5-1,.11.21,1.41,1.47,2.5,4Z"/>
        </g>
        <path class="cls-67" d="M169.8,433.52s23,26,16.96,56.29c-3.25,16.31-24.96,26.71-35.59,27.9-17.38,1.95-21.37-4.19-21.37-4.19l19-81,21,1Z"/>
        <path class="cls-67" d="M273.56,426.79l-45.46-43.2-35.3,18.93s-4,12-27,24c-2.62,1.37-13,4-13,4l26,34s23-28,39-50c0,0,23.47,30.52,57.74,42.76l-1.98-30.49Z"/>
      </g>
      <path class="cls-19" d="M110.68,375.39s.81-22.79-5.2-26.51c-6.01-3.72-6.54,6.26-6.54,6.26,0,0,6.5,17.17,3.29,21l8.45-.75Z"/>
      <path class="cls-67" d="M278.8,383.52s-2.4-15.49-2.81-19.18c-1.01-9.14,9.26-16.49,9.58-25.66.02-.5.11-4.09-.19-4.09-.16,1.24-.38,2.48-.56,3.72-.91,6.22-14.79,14.82-13.83,21.04,2,13,3.71,12.5,1.81,25.18,1.99.13,6-1,6-1Z"/>
      <g>
        <path class="cls-12" d="M138.86,489.16c2.77,11.92-2.84,5.34-9,8-54.53-5.59-112.79-64.32-126-116.25-4.02-15.81-8.37-46.04,6.5-57.25-32,65.22,59.6,165.86,128.5,165.5Z"/>
        <path class="cls-6" d="M140.36,497.66c-3.52.04-7-.14-10.5-.5,6.16-2.66,11.77,3.92,9-8,12.7-.07,24.56-2.22,32-13.5-2.99,17.4-14.7,21.83-30.5,22Z"/>
        <g>
          <g>
            <path class="cls-8" d="M110.36,382.16c1.96.96,4.47,2.41,6,4,3.98,4.14,10.57,19.7,14.5,26,.06.1.09,1.67.5,2.25,1.79,2.1,3.79,4.09,5.5,6.25,1.25,5.88,4.94,18.44-1.06,22.86-12.1,8.92-52.44-28.55-42-23,4.44,2.36,17.25-5.87,16.06-11.86.89-.14,5.28-1.79,5.5-2.75-.86-3.19-2.39-6.16-3.5-9.25-2.14-5.95-4.2-10.36-7.5-15.75-.39-.64.52-.71.5-.75,1.76.71,3.81,1.18,5.5,2Z"/>
            <path class="cls-42" d="M84.86,382.66c-.11,3.1,4.26,10.28,5.5,13.5.81,5.13-6.38,5.93-10.5,6-.92-2.44-3.74-9.51-4-10.5,1.69-3.86,5.14-7.22,9-9Z"/>
          </g>
          <g>
            <path class="cls-19" d="M111.86,396.66c1.11,3.09,2.64,6.06,3.5,9.25-.22.96-4.61,2.61-5.5,2.75-4.11.66-10.58-.37-14.25-2.5-6.71-3.89-3.46-5.36-5.25-10-1.24-3.22-5.61-10.4-5.5-13.5.12-3.46,3.69-5.04,5-8,.91-.24,2.3-1.17,3.25-1,11.26,7.17,9.48,23.59,18.75,23Z"/>
            <path class="cls-71" d="M89.86,374.66c-1.31,2.96-4.88,4.54-5,8-3.86,1.78-7.31,5.14-9,9-3.05-11.68,3.22-10.36,6.5-12.5,1.3-.85,1.87-1.93,2-2,2.29-1.21,2.72-1.78,5.5-2.5Z"/>
          </g>
        </g>
        <path class="cls-38" d="M83.86,368.66c11.08,7.46,3.51,2.03-4,3v-.5c-1.29-3.52-3.25-6.71-5-10,3.97,3.6,2.01,2.79,9,7.5Z"/>
        <path class="cls-8" d="M130.8,390.52c2.31,5.15,8.49,30.45,5,35-.8-1.4-21.58-40.58-19-38-3-3,7.89-6.4,6.34-8.1,4.66,5.1,6.84,9.25,7.66,11.1Z"/>
        <g>
          <path class="cls-57" d="M45.86,366.66c.73,1.69,1.03,1.74,2,3,.08.1-.48.13,1.5,2,.69,9.07-2.41,10.44-9,15-1.25.09-3.39.2-4.5.5-4.99-1.46-7.52-1.75-12.5-4,1.54-.36.93-.95,1-2.5,3.54,2.91,13.44,2.91,9.5-2.5,2.7-1.65,3.06-2.05-.25-4.5-5.24-3.87-16.88-3.64-19.25-13.5,8.49-8.44,25.58-2.56,31.5,6.5Z"/>
          <path class="cls-77" d="M33.86,378.16c-.37-.51-5.94-3.73-6.75-4-9.94-3.27-4.59,4.98-2.75,6.5-.07,1.55.54,2.14-1,2.5-8.9-4.03-18.18-13.88-9-23,2.37,9.86,14.01,9.63,19.25,13.5,3.31,2.45,2.95,2.85.25,4.5Z"/>
          <path class="cls-81" d="M33.86,378.16c3.94,5.41-5.96,5.41-9.5,2.5-1.84-1.52-7.19-9.77,2.75-6.5.81.27,6.38,3.49,6.75,4Z"/>
        </g>
        <g>
          <path class="cls-8" d="M123.86,380.16v.5c-.77.08-.94.96-1,1-2.08,1.57-4.62,2.65-6.5,4.5-1.53-1.59-4.04-3.04-6-4-1.61-1.3-11.9-11.64-12.75-11.5-2.84.47,3.58,3.77,7.25,9.5.02.04-.89.11-.5.75,3.3,5.39,5.36,9.8,7.5,15.75-9.27.59-7.49-15.83-18.75-23-.95-.17-2.34.76-3.25,1-2.78.72-3.21,1.29-5.5,2.5l-5-1.5c-1.21-2.16-4.78-3.32.5-4,7.51-.97,15.08,4.46,4-3,8.1,2.31-9.46-11.75-11.5-11-11.05-9.82-34.04-8.36-26.5,9-5.92-9.06-23.01-14.94-31.5-6.5-9.18,9.12.1,18.97,9,23,4.98,2.25,7.51,2.54,12.5,4-.93.25-1.72,1-2.5,1.5-12.77,8.24,5.17,26.11,21.25,25,19.54-1.34,9.17-23.49-4.75-26.5-2.72-.59-6.72-.69-9.5-.5,6.59-4.56,9.69-5.93,9-15,7.3,6.91,21.37,9.2,31,8,.44-.05.79-.75,2-.5-3.28,2.14-9.55.82-6.5,12.5.26.99,3.08,8.06,4,10.5,4.16,10.96,2.53,13.03,13.94,18.36,11.25,3.63,29.71,26.56,41.81,17.64,6-4.42,2.5-11.62,1.25-17.5,1.58,2,4.65,5.17,6.5,7.5.13.17.85,1.06,1,1.25,4.37,5.48,9.21,10.72,13.5,16.25,3.18,4.1,10.23,11.18,12,15.5.88,2.16,1.35,4.66,1.5,7,.16,2.5-.08,5.04-.5,7.5-7.44,11.28-19.3,13.43-32,13.5-68.9.36-160.5-100.28-128.5-165.5,13.23-9.97,33.37-.77,46.75,5.5,25.5,11.95,48.04,30.15,66.75,51Z"/>
          <g>
            <path class="cls-71" d="M83.86,368.66c-6.99-4.71-5.03-3.9-9-7.5-.08-.14.16-1.3-2-2.5-.74-.71-.46-.96-.5-1,2.04-.75,19.6,13.31,11.5,11Z"/>
            <path class="cls-8" d="M110.36,382.16c-1.69-.82-3.74-1.29-5.5-2-3.67-5.73-10.09-9.03-7.25-9.5.85-.14,11.14,10.2,12.75,11.5Z"/>
            <path class="cls-30" d="M84.36,377.16c-.13.07-.7,1.15-2,2-1.21-.25-1.56.45-2,.5.09-1.32-.36-2.86-1-4l5,1.5Z"/>
            <g>
              <path class="cls-78" d="M129.11,450.16c6.73-.46,16.93,4.73,20.75,10.25,10.42,15.04-7.59,26.83-23.75,15.25-12.88-9.22-9.47-24.65,3-25.5Z"/>
              <path class="cls-68" d="M130.11,466.16c6.76-1.63,13.43,11.87,2.5,8.5-4.18-1.29-6.93-7.43-2.5-8.5Z"/>
            </g>
            <g>
              <path class="cls-21" d="M39.36,355.16c8.39-3.61,7.64-19.48-9.5-25.5,12.24,1.73,22.39,11.76,17,21.25-.83,1.47-5.43,5.6-7.5,4.25Z"/>
              <g>
                <path class="cls-51" d="M29.86,329.66c17.14,6.02,17.89,21.89,9.5,25.5-7.34,3.16-25.05-3.41-27.5-10.25-1.22-3.4-.66-10.23,2.25-12.75,4-3.45,10.91-3.19,15.75-2.5Z"/>
                <path class="cls-34" d="M23.61,343.16c14.34,1.26,13.93,9.25,8,7-.5-.19-7.68-5.55-8-7Z"/>
              </g>
            </g>
            <g>
              <path class="cls-26" d="M62.11,413.66c23.8-3.19,36.48,26.91,8.5,25-22.11-1.51-25.57-22.71-8.5-25Z"/>
              <path class="cls-20" d="M59.11,427.66c3.09-.22,6.89.32,9.5,2,11.27,7.29-11.07,6.92-9.5-2Z"/>
            </g>
            <g>
              <path class="cls-27" d="M111.86,436.66c1.94,2.07-.48,1.01,0,2.75.45,1.66,4.19,3.97,3,10.5-.76,4.14-4.1,5.58-7.5,6.25,4.35-3.17-.78-8.93-5-7-1.61-6.93-12.78.29-6.5,4-2.4,1.48-.07,1.66.5,2-2.62,2.93,2.58,1.93,3,4-4.43-.82-12.44-5.48-15-9.25-9.17-13.54,10.39-27.47,27.5-13.25Z"/>
              <path class="cls-27" d="M99.36,459.16c-.42-2.07-5.62-1.07-3-4,3.25,1.91,7.4,1.71,11,1,3.4-.67,6.74-2.11,7.5-6.25,1.19-6.53-2.55-8.84-3-10.5-.48-1.74,1.94-.68,0-2.75,14.35,11.93,4.71,25.69-12.5,22.5Z"/>
              <path class="cls-30" d="M107.36,456.16c-3.6.71-7.75.91-11-1-.57-.34-2.9-.52-.5-2,2.98,1.76,7.41-.05,6.5-4,4.22-1.93,9.35,3.83,5,7Z"/>
              <path class="cls-76" d="M102.36,449.16c.91,3.95-3.52,5.76-6.5,4-6.28-3.71,4.89-10.93,6.5-4Z"/>
            </g>
          </g>
        </g>
        <g>
          <g>
            <path class="cls-85" d="M72.36,357.66s-.24.29.5,1c.12.11-.61.14,2,2.5,1.75,3.29,3.71,6.48,5,10-5.2,3.04-9.09-8.75-19.75-9.5-12.85-.91-8.98,10.11-12.25,8-.97-1.26-1.27-1.31-2-3-7.54-17.36,15.45-18.82,26.5-9Z"/>
            <path class="cls-62" d="M74.86,361.16c-2.61-2.36-1.88-2.39-2-2.5,2.16,1.2,1.92,2.36,2,2.5Z"/>
          </g>
          <g>
            <path class="cls-45" d="M79.86,371.16v.5c-5.28.68-1.71,1.84-.5,4,.64,1.14,1.09,2.68,1,4-9.63,1.2-23.7-1.09-31-8-1.98-1.87-1.42-1.9-1.5-2,3.27,2.11-.6-8.91,12.25-8,10.66.75,14.55,12.54,19.75,9.5Z"/>
            <path class="cls-37" d="M57.61,369.16c2.89-1.03,11.01,2.15,12.25,5.75-5.84,2.2-17.69-3.82-12.25-5.75Z"/>
          </g>
        </g>
        <g>
          <path class="cls-44" d="M33.36,388.66l-.75,1.5h12.5c2.01,1.1,2.25,2.99,2.75,3.5-2.36,1.27-4.6,2.55-6.5,4.5-1.08,1.11-1.23.64-2,2.5-.92,2.24-1.82,2.1,0,5.5,3.26,6.06,16.81,7.4,22,2.75-.71-.5-.95-1.19-1-1.25,1.91-1.02,1.58-3.61,1.5-5.5-.31-7.41-5.9-12.38-12.75-14l.75-1c13.92,3.01,24.29,25.16,4.75,26.5-16.08,1.11-34.02-16.76-21.25-25Z"/>
          <path class="cls-11" d="M40.36,386.66c2.78-.19,6.78-.09,9.5.5l-.75,1c6.85,1.62,12.44,6.59,12.75,14-7.03-.56-9.74-4.22-14-8.5-.5-.51-.74-2.4-2.75-3.5h-12.5l.75-1.5c.78-.5,1.57-1.25,2.5-1.5,1.11-.3,3.25-.41,4.5-.5Z"/>
          <path class="cls-11" d="M60.36,407.66c.05.06.29.75,1,1.25-5.19,4.65-18.74,3.31-22-2.75,3.33.81,3.99,2.36,7.5,2,6.08-.63,3.68-8.36-6-7.5h-1.5c.77-1.86.92-1.39,2-2.5,3.69-.8,17.56,7.85,19,9.5Z"/>
          <path class="cls-9" d="M61.86,402.16c.08,1.89.41,4.48-1.5,5.5-1.44-1.65-15.31-10.3-19-9.5,1.9-1.95,4.14-3.23,6.5-4.5,4.26,4.28,6.97,7.94,14,8.5Z"/>
          <path class="cls-65" d="M40.86,400.66c-3.06,5.48.61.38,3.25,1,1.31.31,5.41,5.11,2.75,6.5-3.51.36-4.17-1.19-7.5-2-1.82-3.4-.92-3.26,0-5.5h1.5Z"/>
          <path class="cls-66" d="M46.86,408.16c2.66-1.39-1.44-6.19-2.75-6.5-2.64-.62-6.31,4.48-3.25-1,9.68-.86,12.08,6.87,6,7.5Z"/>
        </g>
      </g>
      <g>
        <path class="cls-4" d="M208.36,400.19c-.11-.14-.25-.27-.36-.41-1.21-1.52-2.38-3.02-3.69-4.47-.63-.69-1.53-1.39-2.24-2,7.89-6.2,16.77-11.16,25.05-16.86.52-.08.56.35.8.5-.37-2.11-3.08,1.48-2.93-.31-.72.54-1.66.89-2.4,1.39-6.35,4.27-12.85,8.37-19.03,12.89-.83.61-1.69,1.17-2.43,1.9l7.22,7.38Z"/>
        <g>
          <path class="cls-82" d="M178.18,425.89c.09,0,6.49-.3,17.32-7.87.93-.65.74-2.25.79-2.39.27-.63,1.17-.97.66-1.3-3.18,2.34-15.34,8.77-15.7,7.91.24-.75.92-.92,1.43-1.38-.64-.45,2.24-4,3.15-6.15.01-.35-.19-.02-.59.28-1.88,1.44-3.42,3.37-5.48,4.59,2.94-5.2,5.84-10.4,9.37-15.24,1.98-2.72,1.97-3,4.58-5.48.93-.88,1.72-1.96,2.8-2.71,5.83-4-1.38,4.39-2.6,5.67,1.5-.49,3.2-2.5,3.84-2.9.18-.11.56.21.63.17,1.33-.75,2.99-3.57,3.88,1.53.42,2.39-.41,4.63-.31,4.85.21.48,2.69,1.07,1.53,3.11,3.01-1.74,3.41-5.57,5.13-8.13-.07-.1-.17-.18-.24-.27l-7.22-7.38c-7.8-.4-14.77,15.89-19.39,21.46-6.72,8.1-12.92,9.81-11.98,10.26,1.15-.14,6.84,1.51,8.41,1.38Z"/>
          <path class="cls-39" d="M196.34,417.76c4.71-2.6,9.52-5.64,12.63-10.16.94-1.36,1.4-3.09,1.71-3.67.03-.06-.44.01.39-1.06q10.02-10.87,20.04-21.74l-.17-.33c-6.72,6.86-13.22,14.36-19.72,21.69l-1.18.44c-.37-.84-.9-1.75-1.45-2.46-1.72,2.56-2.12,6.39-5.13,8.13-.64,1.13-5.15,4.73-6.52,5.74.51.33-.39.67-.66,1.3-.06.13-.06,1.51-.79,2.39-5.11,2.51-9.67,5.78-15.07,7.55-.13.04,11.53-5.4,15.92-7.82Z"/>
          <path class="cls-78" d="M196.95,414.33c1.37-1.01,5.88-4.61,6.52-5.74,1.16-2.04-1.33-2.63-1.53-3.11-.1-.22.73-2.46.31-4.85-.89-5.1-2.54-2.28-3.88-1.53-.07.04-.45-.28-.63-.17-.64.4-2.34,2.41-3.84,2.9-.4.41-.94.91-1.07.7-.03.08-.47.4-.1.57q2.35-1.65,4.7-3.29c2.8,4.27-3.31,9.99-6.49,13.3-2.39,2.49-5.65,5.39-8.25,7.74-.52.47-1.19.63-1.43,1.38.35.86,12.52-5.57,15.7-7.91Z"/>
          <path class="cls-68" d="M182.68,420.86c2.6-2.36,5.86-5.25,8.25-7.74,3.18-3.32,9.29-9.03,6.49-13.3q-2.35,1.65-4.7,3.29c-.36-.17.07-.49.1-.57.74-1.76,3.16-3.83,2.63-4l-1.75.34c-2.61,2.48-2.6,2.76-4.58,5.48,4.97-2.36,3.87-1.03-.26,5.05-1.09,1.6-3.94,4.79-3.63,5.6.4-.31.61-.64.59-.28-.91,2.15-3.79,5.7-3.15,6.15Z"/>
          <path class="cls-79" d="M185.24,415c-.31-.82,2.54-4,3.63-5.6,4.13-6.08,5.23-7.4.26-5.05-3.53,4.83-6.43,10.04-9.37,15.24,2.06-1.22,3.6-3.15,5.48-4.59Z"/>
          <path class="cls-68" d="M193.9,401.83c1.23-1.27,8.43-9.67,2.6-5.67-1.08.74-1.87,1.82-2.8,2.71l1.75-.34c.53.17-1.89,2.24-2.63,4,.13.21.67-.29,1.07-.7Z"/>
        </g>
        <path class="cls-2" d="M208,399.78c7.94-6.12,13.95-14.34,21.28-21.14.1-.41-.11-.48-.15-.59-.47.46-1.33-.12-1.6-.04-2.14.62-19.52,14.69-23.22,17.3,1.31,1.45,2.48,2.94,3.69,4.47Z"/>
        <path class="cls-72" d="M204.31,395.32c3.7-2.61,21.07-16.68,23.22-17.3.27-.08,1.13.5,1.6.04-.13-.28-.9-.91-1.21-1.1-.24-.15-.28-.58-.8-.5-8.28,5.7-17.16,10.67-25.05,16.86.72.62,1.62,1.31,2.24,2Z"/>
        <path class="cls-2" d="M240.53,370.19c-.99-1.14-1.99-2.27-2.99-3.4l-1.68,2.2c1.62,1.93,2.51,3.05,4.67,1.2Z"/>
        <path class="cls-72" d="M235.86,368.99l1.68-2.2c-.49-.55-.69-.51-.73-.56-1.9,1.12-2.19,1.28-.95,2.76Z"/>
        <g>
          <path class="cls-73" d="M231.11,381.13c1.61.86,2.75.15,3.91-1.03.13-.57.34-1.18.74-1.62.62-.67,1.29.06,2.01-.32,1.11-.58,1.18-1.52,1.26-1.59.77-.6,1.14-.52,1.19-.57,1.07-.89,2.15-2.54,3.2-3.38-.1-.17-2.48-2.4-3-3-2.15,1.86-2.94,1.3-4.56-.63-1.25-1.48-.96-1.64.95-2.76-.03-.03.12-.34-.46-.8-.02.02-.78.1-.92.18-.49.29-1.06,1.02-1.83,1.76-.1.09-1.51.02-1.41,1.96-2.95.13-.58,3.65-4.04,3.08-2.09.84-1.6,3.01-1.74,3.22-.23.34-.91.62-1.41,1-.15,1.8,2.56-1.79,2.93.31.31.19,1.08.82,1.21,1.1.05.1.26.17.15.59-7.33,6.81-13.35,15.02-21.28,21.14.11.14.25.26.36.41.07.09.17.18.24.27.55.72,1.08,1.63,1.45,2.46l1.18-.44c6.5-7.33,12.99-14.83,19.72-21.69l.17.33Z"/>
          <g>
            <path class="cls-2" d="M229.03,373.56c1.76,1.58,4.83,3.81,2.31,3.99.15.15,1.39,2.03,1.94,2.75,2.95-.06-1.02-6.75-4.25-6.75Z"/>
            <path class="cls-72" d="M234.98,374.83l.28-2.42c-.55-.59-2.43-2.79-3.38-2.33-1.48.72,2.41,4.01,3.09,4.75Z"/>
            <path class="cls-72" d="M231.34,377.55c2.52-.19-.55-2.42-2.31-3.99-3.66,0,1.2,2.87,2.31,3.99Z"/>
            <path class="cls-2" d="M235.26,372.42l-.28,2.42c.68.72,1.99,3.22,2.9,1.79.54-.85-2.07-3.62-2.62-4.21Z"/>
            <path class="cls-72" d="M233.1,369.14c.06.19,1.55.85,1.98,1.15.38.27.88,1.17,1.2,1.36,2.65,1.57-.98-4.11-2.47-3.49-.23.1-.82.65-.7.98Z"/>
            <path class="cls-23" d="M232.93,375.79c.01.16.4.43.5.16.12-.29-.55-.64-.5-.16Z"/>
          </g>
        </g>
        <g>
          <path class="cls-75" d="M237.42,367.62c1,1.12,2.27,1.3,3.24,2.45.51.61,2.83,2.55,2.9,2.75,5.33-4.52,10.91-8.78,16.2-13.39,37.06-32.15,71.4-66.78,106.95-100.33,3.01-3.11,4.03-4.83,5.49-6.56-1.45.1-3.15,1.04-4.89,2.16l.04,2.14c-37.35,32.23-70.86,68.43-108.54,100.29-1.94,1.64-15.55,12.77-16.33,12.65-.38-.34-.61-.84-1.01-1.16-.78-.63-.98-1.75-1.6-2.45-.28-.31-.51-.68-.83-.96-.14-.12-1.12-.77-1.62-.6-.2.17-1.8.84-2,1,.69.36,1.36.58,1.39.61.04.05.13.84.61,1.39Z"/>
          <path class="cls-70" d="M258.81,357.13c-1.94,1.64-15.55,12.77-16.33,12.65-.38-.34-.61-.84-1.01-1.16-.78-.63-.98-1.75-1.6-2.45,11.9-11.99,24.87-22.84,37.57-34.02,6.27-5.52,12.83-10.83,19.06-16.4,3.5-3.14,11.52-10.34,12.34-12.15-4.32,3.6-8.7,7.17-13,10.79-6.3,5.31-12.62,10.63-18.88,16-12.99,11.15-26.54,22.3-37.93,34.81-.14-.12-1.44-.62-1.95-.45.43-.82,2.47-3.08,3.2-3.8,20.49-20.34,58.52-51.65,81.81-70.55,8.4-6.82,34.94-28.09,41.44-32.86,1.1-.8,2.7-2.17,3.77-2.85l.04,2.14c-37.35,32.23-70.86,68.43-108.54,100.29Z"/>
          <g>
            <path class="cls-15" d="M239.88,366.17c11.9-11.99,24.87-22.84,37.57-34.02-.97-.01.44-1.26-.48-1.75-12.99,11.15-26.54,22.3-37.93,34.81.32.27.55.64.83.96Z"/>
            <path class="cls-28" d="M277.45,332.15c6.27-5.52,12.83-10.83,19.06-16.4l-.65-1.35c-6.3,5.31-12.62,10.63-18.88,16,.92.49-.49,1.74.48,1.75Z"/>
            <path class="cls-49" d="M296.51,315.75c3.5-3.14,11.52-10.34,12.34-12.15-4.32,3.6-8.7,7.17-13,10.79l.65,1.35Z"/>
          </g>
        </g>
      </g>
      <g>
        <g>
          <path class="cls-50" d="M231.5,257.15c-9.09,11.59-21.81,20.53-36,24.5-2.36-3.08-5.37-5.97-6-10-.45-2.9.19-7.89.5-11,.07-.73.15-4.25.5-4.86,12.44,2.19,27.65-1.76,38.5-7.64,1.21,2.88,1.66,6.03,2.5,9Z"/>
          <path class="cls-60" d="M233.5,262.65c.39,2.05.72,4.18,1,6.25-7.26,8.67-18.31,15.14-29,18.75-2.48.84-1.89.97-2,1-.74.17-.36.73-2.5-.5-.28-.16-1.31-.83-1.5-1-.26-.22-3.39-4.71-4-5.5,14.19-3.97,26.91-12.91,36-24.5.67,2.38,1.94,5.17,2,5.5Z"/>
        </g>
        <g>
          <path class="cls-29" d="M262.27,159.65s-6.44-19.74-10.08-25.56c-4.81-7.69-19.05-20.76-27.72-23.4s-26.18-2.64-36.4-.73c0,0-32.82,1.73-41.14,39.7-.94,4.3,3.47,25.35-1.5,42.9-.09.32-.14.65-.14.98v7.55c2.59,9.21,3.89,21.19,12.53,31.65,7.61,9.21,31.57,23.86,35.88,24.27,2.26.08,9.06-1.41,19.05-5.59,9.16-3.84,22.2-12.35,27.89-20.52,2.79-4.01,12.29-22.94,10.07-25.68,7.3-3.43,16.67-4.19,16.67-15.97,0-5.05-2.94-19.94-5.1-29.59ZM161.89,207.84c1.03.09,2.08.13,3.16.11-1.03.04-2.09,0-3.16-.11ZM218.69,204.82c.99.49,2.08.94,3.27,1.35-1.16-.38-2.25-.83-3.27-1.35Z"/>
          <path class="cls-69" d="M267.16,189.06c.06-.09,1.34-1.31-1.39-12.61-.8-3.84-2.6-12.74-2.6-12.74,0,0-.45-.64-1.11-1.37-.54-.59-1.23-1.23-1.8-1.71-7.14-5.96-20.51-5.64-24.33-5.66-8.48-.09-16.76,1.17-20.81,6.02s-3.97,13.78-2.53,24.56c.31,1.3,1.12,4,1.08,3.36-.1-1.67,1.06-6.72,2.37-9.57,2.25-4.92,4.62-8.13,10.93-10.58,15.64-6.05,31.83,20.59,32.55,21.79-1.8,6.6-5.1,12.32-11.07,14.7,3.89.67-5.67,21.3-8.64,25.56-5.68,8.17-18.56,15.97-27.72,19.8-9.98,4.18-16.68,6.28-18.99,6.23.17.06.07.12.64.16,15.33,1.15,24.21-2.52,37.43-10,19.85-11.23,20.3-13.57,30.24-32.4,1.1-2.09,1.09-4.53,2.88-6.84.38-.49,9.73-1.54.72-7.92,13.28-19.13,20.35-3.89,12.96,6.48-6.8,9.55-18.62-4.15-10.8,11.88,25.69,5.04,20.19-57.31,0-29.16Z"/>
          <path class="cls-58" d="M267.16,218.23c-2.56-.5-3.24-2.94-5.76-3.6,1.1-2.09,1.09-4.53,2.88-6.84.38-.49,9.73-1.54.72-7.92,13.28-19.13,20.35-3.89,12.96,6.48-6.8,9.55-18.62-4.15-10.8,11.88Z"/>
        </g>
        <path class="cls-36" d="M145.58,199.81c3.5,16.27,5.03,23.58,11.87,32.34,4.4,5.63,24.09,20.16,35.68,24.72-5.49-.09-34.05-16.97-40.23-24.75-6.68-8.4-8.31-18.44-8.47-25.05-.04-1.66.29-4.97.48-6.62.08-.68.39-2.73.39-2.73,0,0,.18,1.59.29,2.09Z"/>
        <path class="cls-60" d="M154.82,162.78c-1.88.06,1.36-4.44,2.23-6.28,1.06-2.92,1.12-6.36,2-9.25,6.04-19.79,23.82-27.78,10.5-24.25-10.51,2.79-20.82,35.08-21.94,44.67,0,.01.18,6.15.18,6.15,2.51-3.22,3.62-4.22,7.97-6.63,8.46-4.67,18.39-1.27,22.4,9.26.04.12,2.35,10.41,2.39,11.24.02.42.04-9.38.19-10.88-.96-13.22-15.39-14.39-25.92-14.04Z"/>
        <g>
          <path class="cls-60" d="M145.31,198.11c-10.31,3.67-5.4,11.06-2.85,18.16-12.38-9.8-7.4-25.37-2.57-25.81.6-.05,2.57-.04,3.82.89,1.15.86,1.63,1.73,1.63,1.73,0,0,0,3.37-.04,5.02Z"/>
          <path class="cls-69" d="M143.18,193.23c.86-.04,2.13,1.32,2.1,4.07-.03,2.31-.95,7.35-.78,11.64,0,0,.48,5.68,1.6,9.55-1.36-.54-2.49-1.3-3.64-2.21-2.55-7.1-9.59-19.37.72-23.04Z"/>
        </g>
        <g>
          <path class="cls-25" d="M338.38,211.72c-.14-.13-.31-.32-.48-.48-.31-18.33-12.21-12.48-19.34-17.19-4.6-3.04-7.83-19.38,14.08-18.38,5.56,7.95-13.96,6.35-11.94,10.5.48.99,15.1,6.07,17.19,8.59,3,3.63,2.98,13.91.48,16.95Z"/>
          <path class="cls-84" d="M91.56,195.48c-.77,1.33-4.97,3.92-3.34,11.94-5.77-2.09-14.97-2.67-13.84-10.74,1.81-13.02,15.73-1.17,17.19-1.19Z"/>
          <path class="cls-84" d="M103.97,177.82q.48,4.42.95,8.83-6.68,4.42-13.37,8.83c.54-.92,2.18-2.06,2.39-2.63,2-5.39-4.36-9.36-3.82-14.8l13.84-.24Z"/>
          <path class="cls-84" d="M345.54,142.97c-4.37-2.21-5.02-1.55-9.55-2.63,2.76-7.37,4.11-10.61,0-17.43-.52-.4-.64-.5,0,0-3.84-6.37-10.77-9.34-17.9-6.21-2.75-.54.94-5.86-9.79-11.7,8.37-15.47-11.31-28.07-21.24-13.61-17.61-19.8-42.25-28.58-66.84-15.28-16.73-18.96-55.86-16.33-73.16.59-1.68,1.64-5.94,3.52-5.14,8.96-1.97.09-9.93-10.8-21.24-1.43,0,0,0,0,0,0-2.89,2.39-5.59,6.4-5.73,10.26-.03.76,1.65,8.46,1.91,8.83-1.18.2-2.31.87-3.34,1.43-7.68,4.19-5.16,3.47-8.83,10.98-18.35-1.5-25.18,16.33-12.17,28.88-2.57.83-5.11,1.11-7.64,2.15-1.99.82-3.19,1.37-4.77,2.86-9.07,8.54-4.83,20.54,5.73,25.06.64,1.79-3.89,4.36,0,13.37-18.05-2.07-24.49,18.34-7.64,26.26-3.6,8.83,2.84,20.44,12.65,16.95,7.94,7.76-1.98,7.84-.24,18.86,1.36,8.6,13.51,14.07,20.77,8.83,10.25,4.27,5.3,4.94,8.83,9.79,4.51,6.19,15.68,5.61,20.77.24,1.38.31.67,13.47,19.1,10.98,4.44-7.84,5.94-2.38,12.89-5.73,5.18-2.5,5.11-9.42,10.26-4.77,2.74-3.89,3.15-8.08,6.93-11.28.07-.7.14-1.4.21-1.99-6.38-2.21-25.4-13.42-31.26-18.43-9.34-7.98-13.33-20.37-13.01-19.3-1.36-.54-2.49-1.3-3.64-2.21-12.38-9.8-7.4-25.37-2.57-25.81.6-.05,2.57-.04,3.82.89,1.13.85,1.61,1.7,1.63,1.73.9-3.64,1.92-8.38,2.1-11.67.91-5.89.92-15.31.93-15.49.51-7.83,10.9-38.47,20.04-42.53,5.38-2.39,10.25,1.5,16.95-8.12,21.88,12.34,30.33-2.24,31.99-2.86,6.58-2.47,8.32,5.19,8.83,5.49,13.69,7.91,27,21.42,30.54,26.98.47.73,2.46,5.84,3.64,9.46,3.7,11.31,6.79,34.73,6.79,34.73,0,0,3.9-5.64,7.37-6.78-.07-.05,3.66-1.35,6.46,1.78,5.22,5.85,4.58,25.77-3.74,31.97-4.96,3.7-10.25,2.94-13.43,0-1.22-1.12-2.42-1.4-2.42-1.4,0,0-.35.73-1,1.91-1.55,2.8-5.42,11.17-9.33,15.71-7.98,9.27-15.7,11.85-22.05,15.97.87,3.22,1.58,5.68,2.38,8.52.64,2.27,1.85,4.93,1.91,5.25,5.45.54,7.16,3.77,10.08,5.58.54.34,3.43.86,4.54.95,6.7,13.18,24.45,10.16,28.64-3.82,9.21,9.72,23.29,11.63,27.21-3.82,7.01.07,11.98.74,16.71-5.25,17.53,1.89,24.17-15.7,11.7-27.45l5.97-7.88c5.9,1.47,11.45.11,14.56-5.25,3.95-6.8,2.04-13.9-4.3-18.38,1.49-16.72-7.49-16.8-8.12-17.66-2.99-4.15,5.51-3.75,10.03-9.07,6.81-8.02,4.79-22.13-4.77-26.97"/>
          <path class="cls-25" d="M97.77,215.06c-.27.1-1.5,1.75-5.01,2.86-.56-.14-4.42-9.94-4.54-10.5-1.63-8.01,2.57-10.6,3.34-11.94q6.68-4.42,13.37-8.83-.48-4.42-.95-8.83c.1-2.73-8.04-6.86-13.37-10.5-2.1-4.42-1.05-9.85,1.91-13.84,8.45-3.78,19.02-1.63,19.1-7.88,0-.5-2.12-5.75-2.39-9.79-.72-10.74,14.06-12.77,15.28-14.08.5-.54,1.74-5.63,1.91-6.92,1.36-2.12,3.22-3.78,4.77-5.73,2.19-2.75,3.56-.4,1.91-8.83,15.43-17.14,14.53-10.69,36.04-7.88,3.21-.75,3.19-14.58,10.03-15.75,9.57-1.64,12.02,10.31,8.12,13.37-3.67,2.88-3.2-2.58-6.68-7.64-3.78,22.62-17.69,15.12-34.85,12.89-8.46,5.82-4.47,10.16-5.49,13.13-.28.81-7.63,7.08-8.12,8.12-3,6.43,5.2,5.22-16.71,16.71-2.36,5.97,9.05,16.27-6.92,23.15-4.57,1.97-16.64,2.16-13.37,6.21,2.66,3.28,15.27,6.03,15.99,17.43,1.43,22.72-26.97,10.24-13.37,35.09Z"/>
          <g>
            <g>
              <path class="cls-25" d="M232.63,78.04c12.02-1.13,20.75,19.49,43.44,11.94,11.03,14.64,20.32,10.14,15.52,27.93,2.48,1.22,11.9,9.52,12.65,9.79,5.27,1.89,20.78-2.81,15.99,16.47,4.52,1.56,20.47,7.85,22.44,11.46,2.26,4.16.7,12.42-4.06,14.08-11.08,3.87-.82-9.16-1.19-10.74-11.93-10.93-28.55-.8-21.96-23.39q-6.33-.6-12.65-1.19c-8.03-10.55-12.63-7.74-15.52-11.22-7.65-9.25,11.94-21.6-18.86-17.43q-1.19-4.06-2.39-8.12c-11.72.38-21.94-6.33-31.03-12.89-4.05-.29-16.38,7.73-13.61-.72.59-1.81,9.15-5.77,11.22-5.97Z"/>
              <path class="cls-83" d="M277.51,95.7c2.95-.22-2.46,2.06-3.34,2.39-11.48,4.18-3.32-1.9,3.34-2.39Z"/>
            </g>
            <path class="cls-1" d="M179.16,76.61c-6.84,1.17-6.82,15.01-10.03,15.75-21.51-2.82-20.61-9.27-36.04,7.88,1.65,8.43.28,6.08-1.91,8.83-1.55,1.95-3.41,3.61-4.77,5.73h0c-.17,1.29-1.41,6.38-1.91,6.92-1.22,1.32-16,3.34-15.28,14.08.27,4.04,2.39,9.28,2.39,9.79-.07,6.25-10.64,4.1-19.1,7.88-2.96,3.99-4.01,9.42-1.91,13.84,5.33,3.64,13.47,7.78,13.37,10.5q-6.92.12-13.84.24c-.54,5.44,5.82,9.41,3.82,14.8-.21.57-1.85,1.7-2.39,2.63-1.46.02-15.38-11.82-17.19,1.19-1.12,8.08,8.08,8.65,13.84,10.74.11.56,3.98,10.36,4.54,10.5,3.52-1.11,4.74-2.77,5.01-2.86-13.6-24.85,14.8-12.37,13.37-35.09-.72-11.4-13.34-14.14-15.99-17.43-3.27-4.05,8.8-4.24,13.37-6.21,15.97-6.89,4.57-17.19,6.92-23.15,21.91-11.49,13.71-10.28,16.71-16.71.48-1.03,7.84-7.31,8.12-8.12,1.03-2.97-2.97-7.31,5.49-13.13,17.16,2.23,31.07,9.73,34.85-12.89,3.48,5.05,3.01,10.51,6.68,7.64,3.9-3.06,1.45-15.01-8.12-13.37Z"/>
            <path class="cls-1" d="M320.72,186.17c-2.02-4.15,17.5-2.56,11.94-10.5-21.91-.99-18.69,15.34-14.08,18.38,7.12,4.71,19.02-1.14,19.34,17.19.17.16.33.34.48.48,2.5-3.03,2.52-13.32-.48-16.95-2.09-2.52-16.71-7.61-17.19-8.59Z"/>
          </g>
        </g>
        <g>
          <path class="cls-54" d="M179.64,184.49c-.5-1.47-1.36-5.17-5.73-9.43-2.82-2.75-5.81-4.38-7.96-4.74-1.44-.2-2.74-.16-3.92.02-2.25-.1-5.68,1.45-7.92,3.23-5.87,4.68-4.57,12.46,1.08,15.84.25.15.53.29.82.43,3.24,1.76,5.75,1.8,9.2,1.91,0,0,6.24.41,14.03-2.74.47-.19,1.41-.71,1.41-.71,0,0-.22-2.03-1.01-3.82Z"/>
          <path d="M148.25,170.36c2.64,2.22,6.39-6.16,17.05-5.19,8.72.79,15.56,12.06,15.24,22.28-1.16-2.08-2.23-5.18-2.57-5.54-.05-.06-.18.02-1.29-.86,1.16-4.03-6.96-10.25-10.73-10.73-6.55-.85-10.77,2.43-13.74,7.73-.14.25-.58,1.17-.86,2.15-1.13,3.97,1.02,7.74,4.65,9.65-.74,0-3.81-1.99-4.23-2.35-4.02-3.43-7.61-12.5-7.56-18.15-.1-1.1.31-4.58.83-3.19.99,2.65,2.45,3.56,3.2,4.2Z"/>
          <path d="M164.97,183.22c1.9-.49,2.53-3.14,2.21-4.87,11.2-1.45,3.91,16.24-2.21,4.87Z"/>
          <path class="cls-14" d="M177.99,182.88c0-.2-.04-.38-.05-.58,0-.14,0-.27,0-.41,0,0-.02-.02-.04-.02-.84-6.6-8.39-11.1-11.98-11.57-.36,1.44-2.68,2.49-3.43,3.86-.15.27-.81,2.12,0,2.15,2.03-.08,2.65.33,3.43.43.07.43,1.27,1.61,1.29,1.72,10.87-1.4,3.79,15.75-2.15,4.72-2.27.58-4.3-1.57-4.72-.64.81,3.73,1.27,6.93,4.72,8.8,1.25.67,3.25.49,7.72-.31,3.74-.67,4.99-4.57,5.14-8.2.02.01.05.04.06.05Z"/>
          <path class="cls-54" d="M229.78,173.47c.9-.18,3.78-.53,5.05-.47,2.94.16,5.9,2.18,5.9,2.18,7.28,5.07,10.16,9.31,3.22,16.31-.69.31-2.85,1.25-3.01,1.29-5.74,1.41-21.22,1.35-27.05-2-.02,0-.03-.02-.05-.03-.3-.17-.26-2.91.05-3.98,3.45-6.78,7.95-12.16,15.89-13.31Z"/>
          <g>
            <path d="M249.96,177.33c2.17,1.76,3.7.7,5.24-1.17.9-.99.81-1.56,1.05-1.23.27.39.27,1.84-.33,3.75-1.37,4.31-5.27,9.83-11.96,12.82,6.94-7.01,4.06-11.25-3.22-16.31,0,0-1.92-1.42-5.58-2.15-1.82-.36-3.59.17-5.37.43-7.94,1.15-12.44,6.53-15.89,13.31,1.51-13.76,12.07-22.65,26.4-17.6,5.73,2.02,8.22,6.99,9.66,8.16Z"/>
            <path class="cls-14" d="M243.09,181.63c-.19-2.4-3.14-7.78-7.94-8.59-1.83-.31-3.59.17-5.37.43-4.27,6.01-2.22,3.07,1.5,4.29.41.13,1.13.82,1.5,1.29.24.3,1.52.19,3.86.86,4.97,5.8-3.02,11.68-6.44,4.72-1.91.28-4.19-1.74-4.29-1.5.28,14.31,18.69,12.68,17.17-1.5Z"/>
            <path d="M236.65,179.91c4.97,5.8-3.02,11.68-6.44,4.72,2.32-.34,3.84-3.51,2.58-5.58,1.66-.19,2.83-.01,3.86.86Z"/>
          </g>
        </g>
        <path class="cls-5" d="M274.12,213.45l1,2c1,2-3,3-3,3-1.16.37-2,1-3,0l1-5c1-2,3.66-.46,4,0Z"/>
        <g>
          <path class="cls-32" d="M275.12,221.45c0-2,0-5-1-6s-1.79-2.03-3-1c-.85.72-1.85,4.6-2,7-.05.8.36,3.41,1.05,3.95,1.97,1.52,3.28,1.28,3.96.21,1.99-3.16.99-2.77.99-4.16Z"/>
          <path class="cls-56" d="M275.67,220.65c-.22-2.79-.45-4.83-1.55-5.2-3-1-1,3-4,5-1.18.78-.56,3.32,0,4,3.39,4.13,5.76-1.04,5.55-3.8Z"/>
        </g>
        <g>
          <path d="M146.86,156.27c-.32-.04-.57-.26-.4-.54,1.23-1.98,4.66-7.32,6.9-8.78s9.41-4.96,14.55-3.99c4.03.76,4.14,4.49,4.17,6.11,0,.03-.02.06-.05.08-2.65,1.53-4.4.39-8.93.03-1.75-.14-3.24-.01-4.87.46-2.57.74-4.87,2.4-7.04,4.87-.66.75-2.7,1.96-4.34,1.76Z"/>
          <path d="M247,149.1c.11.55,2.3,3.22,2.88,5.4l-1.08,1.08c-14.83-10.29-26.1-.3-29.16-7.2,2.55-2.21,3.17-11.87,27.36.72Z"/>
        </g>
        <g>
          <path class="cls-50" d="M205.96,205.8c1.79,8-20.24,11.31-20.88,2.16,5.6,5.57,14.97,2.25,20.88-2.16Z"/>
          <g>
            <path class="cls-33" d="M224.33,212.28c2.64.26,5.03,1.58,6.12,3.96-8.51.6-12.2,25.11-29.16,27.72-25.18,3.88-14.91-25.59-27.72-19.8.7-9.31,39.85-.3,54.01-8.64l-3.24-3.24Z"/>
            <path class="cls-47" d="M219.29,220.92c4.44-.62-4.85,8.34-6.48,9.36-9.07,5.7-30.73,7.42-30.24-4.32,15.16,3.57,34.64-4.75,36.73-5.04Z"/>
          </g>
          <path class="cls-36" d="M189.76,202.2c2.21,1.67,5.3,2.24,5.4,2.52,1.58,4.52-6.69,4.93-5.4-2.52Z"/>
        </g>
        <g>
          <path class="cls-55" d="M186.27,175.49c0,15.74-15.3,27-28,27s-19-10.26-19-26,9.3-22,22-22,25,5.26,25,21Z"/>
          <path class="cls-55" d="M265.27,176.67c0,22.81-17.9,29.81-32.77,29.81s-22.23-11.33-22.23-28.71c0-20.29,10.88-24.29,25.74-24.29,19.26,0,29.26,5.81,29.26,23.19Z"/>
          <g>
            <path d="M270.27,185.49c4.16-9.68-4.33-20.72-5.73-23.8-2.17-4.77-6.05-8.24-9.27-9.2-2-.6-6-1-13-1-6,0-29-3-34.5,13.71-7.21-3.06-12.58-2.59-20-1-1.5-2.71-5.52-11.66-20.5-12.71-1.93-.13-9.16-.71-16,1-8,2-7.86,2.86-10,5s-4.6,9.78-5,18c-.35,7.04,2,17,3,19,.63,1.26,3,6,5.75,7.46,8.64,4.97,15.01,4.96,21.25,4.54,15-1,26.35-18.47,26-32.79,21.23-1.93,7.52,3.43,18.25,22.75,2.56,4.62,9.75,11.04,16.75,13.04,4.9,1.4,14.82,1.78,23-2,13-6,17.7-16.64,20-22ZM184.02,178.19c-.26,7.54-3.33,13.47-8.14,17.34-6.18,4.97-15.23,6.52-24.86,3.66-5.75-1.71-7.78-6.29-8.75-8.71-4-10,0-24,1-27,1.92-5.77,10.39-7.67,16-8,8.61-.51,17.34.25,21.75,8.71,2.09,4,3.16,9.45,3,14ZM217.02,196.44c-3.52-4.73-5.36-13.94-5.5-19.75-.37-15.93,5.18-19.09,20-20.5,5.57-.53,11.46-.87,17,0,.81.13,2.43.35,3,.5,2.12.56,4.25,1.34,5.79,2.84.47.46,4.36,5.98,5.96,16.95.49,3.39,0,8-1.72,12.65-.01.02-.02.03-.04.05-8.92,20.35-36.11,18.5-44.5,7.25Z"/>
            <path class="cls-80" d="M283.99,170.71c-.51-.71-12.85-7.97-15.03-8.89-2.45-1.04-4.78-2.3-5.2-1.97.57,2.38,7.75,12.97,7.56,18.78-.03.91,1.94,1.11,1.94,1.11l.1-.78c9.11.38,12.15-1.51,15.04.62-.21-1.64-3.59-7.73-4.4-8.87Z"/>
            <g>
              <path class="cls-10" d="M137.58,166.22q-5,2.25-10,4.5c-.53-1.11-2.64-9.66-1.25-10.5,22.79-3.44,17.71-10.26,11.25,6Z"/>
              <path d="M137.58,166.22q-.62,5-1.25,10c-3.24-2.09-6.93-1.68-8.75-5.5q5-2.25,10-4.5Z"/>
            </g>
            <path d="M282.5,186.14c.37-.18,4.84-5.6,5.88-6.56-2.73-2.01-5.98-.95-13.59-.61-9.56-.34-10.25-3.54-10.25-3.54l.63,3.1c-.08.54.19,2.49.46,4.47l4.41,2.9c3.7-3.78,5.28-4.79,9.33-3.29,2.07,1.2,2.74,2.94,3.13,3.54Z"/>
          </g>
        </g>
      </g>
      <g>
        <g>
          <path class="cls-5" d="M253.24,365.05c-.13.57-1.19.84-1.22,1.04-.46,2.92,5.34,4.61-2.44,20.66-2.32,4.79-4.64,7.64-7.85,11.73-.91,1.16-8.76,8.67-8.21,9.62,20.15,12.57,76.12,38.22,87.47,7.13-.42,6.09-.81,12.47-2.51,18.36-1.22,4.22-3.05,8.2-6.68,10.94-13.07,9.85-40.75-3.36-53.18-10.73-3.33-1.97-24.15-16.54-27.16-18.96-11.25-9.05-11.65-11.22-9.31-25.72,1.41-.53,4.2,3.64,7.35,5.48,4.34-4.73,18.11-9.95,19.89-14.76.32-.86,1.72-13.12,1.71-14.18.92-.46,1.17-.5,2.15-.6Z"/>
          <path class="cls-60" d="M318.75,379.16c1.49,13.44,3.25,21.47,2.24,36.07-11.35,31.09-67.32,5.44-87.47-7.13-.55-.96,7.3-8.46,8.21-9.62,3.79,1.86,4.2.8,4.42.85,10.6,2.47,21.21,4.3,31.82,6.62,3.38.74,7.26,1.29,9.82,1.89,7.19,1.68,14.69,3.17,21.09,6.85-4.34-6.27-12.18-8.14-18.76-10.99,7.4-12.02,17-17.18,28.64-24.54Z"/>
          <path class="cls-16" d="M318.75,379.16c-11.64,7.35-21.24,12.52-28.64,24.54-.81,1.32-2.11,2.47-2.32,4.14-2.56-.6-6.44-1.15-9.82-1.89-2.06-4.22-2.75-11.56-3.84-14.48,9.97-1.15,14.07-1.97,23.4-5.18,7.46-2.56,14.3-5.84,21.2-9.67.03.23-.12,1.28.02,2.55Z"/>
          <path class="cls-16" d="M287.79,407.83c.22-1.66,1.51-2.82,2.32-4.14,6.58,2.85,14.43,4.72,18.76,10.99-6.4-3.68-13.9-5.17-21.09-6.85Z"/>
          <g>
            <path class="cls-60" d="M251.09,365.65c.01,1.06-1.39,13.32-1.71,14.18-1.78,4.81-15.55,10.03-19.89,14.76-3.14-1.85-5.94-6.02-7.35-5.48.34-2.13.81-4.26,1.23-6.38,15.51,10.46-1.01.64,2.27-5.17,16.88,9.3,14.35,4.25-.45-1.61.12-.48.16-.99.28-1.47.08-.32.1-.66.19-.98.83-.7.63-1.35.87-1.87,5.8,1.25,11.29,5.02,17.74,5.7-12.69-8.6-18.63-2.18-9.7-11.79,18.67,14.65,13.33,7.28-.42-3.13l.6-4.47c2.06-2.41,2.44-1.56,3.51-2.38,2.49-1.92-2.42-4.68,10.35.46-.12-6.59,2.4,3.81,2.48,9.64Z"/>
            <path class="cls-5" d="M223.37,382.73c.03-.16.06-.33.09-.49.3-1.44,1.22-4.32,1.72-6.29,14.81,5.87,17.33,10.92.45,1.61-3.28,5.8,13.25,15.63-2.27,5.17Z"/>
            <path class="cls-24" d="M226.52,371.63c1.97-4.37,5.85-7.39,6.43-12.26.87-1.35,1.73-1.35,1.8-1.44l-.6,4.47c13.75,10.41,19.09,17.78.42,3.13-8.93,9.61-2.99,3.19,9.7,11.79-6.45-.68-11.94-4.45-17.74-5.7Z"/>
            <path class="cls-24" d="M242.08,360.87c5.87,6.25,5.17,9.47-.39.69l.09-.49.29-.2Z"/>
          </g>
        </g>
        <g>
          <path class="cls-52" d="M318.73,376.61c-6.91,3.83-13.75,7.11-21.2,9.67-4.14-.54-12.2-1.14-15.41-1.94-.95-.24-2.22-.64-2.76-1.55,3-.63,3.76-1.07,4.31-1.21,12.03-3.13,24.28-7.21,33.61-15.94.03.13,1.23.49,1.63,2.1.15,2.54-.33,7.61-.18,8.88Z"/>
          <path class="cls-46" d="M297.53,386.29c-9.32,3.21-13.42,4.02-23.4,5.18-.22-.58-1.54-.32-2.17-1.94,12.5-.05,13.84,1.33,10.16-5.18,3.21.8,11.27,1.4,15.41,1.94Z"/>
          <path class="cls-52" d="M282.12,384.34c3.68,6.5,2.34,5.13-10.16,5.18-.61-1.56-.94-3.33-1.61-4.89,3.05-.42,6.01-1.2,9.01-1.83.54.91,1.81,1.31,2.76,1.55Z"/>
        </g>
      </g>
      <g>
        <path class="cls-19" d="M82.06,377.3c.06.97-3.92,9.28-5.17,9.14-2.57-7.3-5.54-11.72-1.57-19.56,2.72-5.38,9.39-8.17,9.48-8.13.78.27,4.96-1.65,5.23-1.63.15,0,.28.23.44.25-1.37,1.15,6.03,2.02,4,7.15-2.02,5.12-12.94,6.36-14.1,8.68-.86,1.72,1.67,3.82,1.69,4.12Z"/>
        <path class="cls-22" d="M98.14,369.17c-.43-.03-7.84,2.16-8.3,2.49-2.74,1.95-2.29,3.26-2.53,3.45-1.73,1.45-2.49,2.02-5.26,2.19-.02-.3-2.55-2.4-1.69-4.12,1.16-2.32,12.08-3.57,14.1-8.68,2.03-5.13-5.37-6-4-7.15,2.18.25,6.07,2,7.18,4.06,1.69,3.14-1.06,7.26.5,7.75Z"/>
        <path class="cls-48" d="M92.51,413.66c-7.38-5.54-12.49-18.32-15.62-27.22,1.25.14,5.23-8.17,5.17-9.14,2.77-.18,3.53-.75,5.26-2.19,9.68,13.5-8.25,15.08,4.5,23.52-2.46,5.68-2.02,9.67.69,15.04Z"/>
        <g>
          <path class="cls-19" d="M103.99,373.05c-1.56,1.15-1.82,3.35-1.97,3.48-.47.43-4.35,1.56-5.29,2.75l6.86,1.58c2.64,4.87,12.39,14.2,13.37,23.07.11.97.2,1.94.07,2.91-3.54,7.02-13.02,12.96-20.86,9.45-2.25-1-2.88-2.06-3.67-2.65-2.71-5.37-3.15-9.36-.69-15.04-12.75-8.43,5.18-10.02-4.5-23.52.23-.2-.22-1.5,2.53-3.45.46-.33,7.87-2.51,8.3-2.49.12,0,.61.64,2.02,0,.99,1.24,2.59,2.96,3.83,3.89Z"/>
          <path class="cls-41" d="M103.59,380.87l-6.86-1.58c.94-1.19,4.82-2.32,5.29-2.75.79,1.37.81,2.94,1.57,4.33Z"/>
          <path class="cls-53" d="M105.7,387.8q3.14,5.37,6.28,10.73c-13.24,6.15-19.85,9.5-2.61-1.48-2.06-9.73-19.86-2.2-3.67-9.26Z"/>
        </g>
      </g>
      <g>
        <path class="cls-13" d="M269.79,23.68c.35-1.26.51-.16,1.37.23-.06-1.31,3.69-2.17,5.03-4.79-1.61-2.07-12.35-7.87-13.12-7.83-8.46.52,6.13,11.77,6.73,12.39Z"/>
        <path class="cls-40" d="M149.34,61.97c-.29,1.84-.66,3.61-.92,5.48-1.43,10.48-4.08,12.19,3.76,6.97.62-.41.56-4.29,13.13-4.84,20.51-.91,51.49,10.3,70.43,18.82,14.88,6.69,28.56,14.8,41.65,24.57-.12-1.87-.64-2.83,1.83-2.51-1.72-3.1-7.49-8.92-10.15-10.85-13.37-9.72-49.86-24.14-66.42-28.01-18.52-4.33-42.29-2.83-39.09-14.63,2.67-9.83,13.55-7.84,10.22-10.61-4.53.06-7.85.72-12.22,1.48-4.17.72-7.86,3.23-9.25,2.68-3.13-5.61-7.79-10.75-5.87-17.53.77-2.7,4.12-4.3,4.28-4.56.83-1.39.87-1.19.91-1.26.25-.36-2.38-.13,4.63-6.62,7.73-5.9,15.21-11.42,23.81-16.08.28-.15,1.67,1.05,1.71-1.83l.11-.68c-16.07,10.62-51.47,26.52-30.11,49.53.09,1.04-1.64,5.24-2.46,10.5Z"/>
        <path class="cls-63" d="M191.38,0c5.14,5.25,11.78,4.28,18.95,6.69,21.71,7.29,43.22,17.85,40.84,44.15,3.02.99,4.11,4.24,7.3,6.85,2.9-3.21,21.37-9.47,22.44-12.09.74-1.81-1.43-5.74,2-7.76-4.33-4.76-8.65-9.54-13.12-14.16-.6-.62-15.19-11.87-6.73-12.39.77-.05,11.52,5.76,13.12,7.83,3.84-7.55-3.42-15.92-11.41-13.88-6.71,1.71-3.34,11.75-5.49,11.76C242.38,8.72,209.47.42,191.38,0Z"/>
        <path class="cls-63" d="M184.3.23c-.75.55-1.64,1.21-2.4,1.71l-.11.68c14.42,18.72,47.09,40.25,69.38,48.21,2.37-26.3-19.13-36.85-40.84-44.15-7.17-2.41-13.8-1.44-18.95-6.69-2.3-.05-4.76.47-7.08.22Z"/>
        <path class="cls-3" d="M269.79,23.68c4.47,4.63,8.79,9.41,13.12,14.16,8.3,9.12,15.2,16.65,22.25,26.95.1.14,1.32-.4,2.57,1.49,6.02,9.07,8.92,20.72,9.51,31.51,4.4,3.27,15.03,24.53,18.49,7.32.14-3.65-1.6-8.94-2.85-12.44-6.14-17.2-45.13-61.35-61.72-68.76-.86-.39-1.02-1.49-1.37-.23Z"/>
        <path class="cls-13" d="M180.08,4.45c-3.19,8.91-2.7,13.55-.93,22.37,1.39,6.92,5.17,13.47,7.18,20.21,43.51,5.34,81.47,33.92,114.01,61.31,1.25,1.05.59,2.15.68,2.23.25.21.85-.9,2.4.4,3.8,3.2,7.49,8.73,7.99,9.08,3.36,2.39,9.58,4.09,13.58,2.98,7.55-2.11,10.46-10.91,10.74-17.92-3.46,17.21-14.09-4.05-18.49-7.32-.74-.55-11.79-6.21-16.09-9.03-21.58-14.13-22.49-14.58-42.68-31.08-3.2-2.61-4.28-5.86-7.3-6.85-22.29-7.96-54.96-29.49-69.38-48.21-.05,2.87-1.43,1.67-1.71,1.83Z"/>
        <path class="cls-61" d="M302.72,138.31c4.29-6.11,6.78-10.66,8.69-18.26-.49-.35-4.18-5.88-7.99-9.08-1.55-1.3-2.15-.19-2.4-.4-7.77,8.35-11.86,5.25-21.8-.13-2.47-.31-1.94.64-1.83,2.51,8.05,6.01,21.84,16.3,25.33,25.36"/>
        <path class="cls-31" d="M202.64,71.59c16.56,3.87,53.05,18.28,66.42,28.01,3.52-.53,9.72-3.77,6.63-8.04-1.88-2.61-47.88-30.52-55.01-33.14-18.31-6.72-43.62-7.81-25.86.96-9.19,5.07,2.65,5.27,7.81,12.22Z"/>
        <path class="cls-40" d="M186.33,47.03c-4.7-.58-7.84-.75-12.56-.69,3.32,2.77-7.56.78-10.22,10.61-3.2,11.8,20.58,10.31,39.09,14.63-5.17-6.95-17.01-7.15-7.81-12.22-17.77-8.76,7.55-7.68,25.86-.96,7.12,2.61,53.12,30.53,55.01,33.14,3.09,4.28-3.11,7.51-6.63,8.04,2.66,1.93,8.43,7.75,10.15,10.85,9.95,5.38,14.04,8.47,21.8.13-.09-.08.57-1.18-.68-2.23-32.54-27.39-70.5-55.97-114.01-61.31Z"/>
        <path class="cls-3" d="M151.64,27.15c-.04.06-.08-.13-.91,1.26q5.42,9.71,10.83,19.41c4.36-.75,7.69-1.42,12.22-1.48,4.72-.06,7.86.12,12.56.69-2.01-6.74-5.79-13.29-7.18-20.21-9.16,1.15-18.37,2.1-27.51.33Z"/>
        <path class="cls-63" d="M151.64,27.15c9.14,1.78,18.35.82,27.51-.33-1.78-8.82-2.26-13.46.93-22.37-8.6,4.66-16.08,10.18-23.81,16.08-7.01,6.49-4.37,6.26-4.63,6.62Z"/>
        <path class="cls-13" d="M161.56,47.82q-5.42-9.71-10.83-19.41c-.16.27-3.52,1.86-4.28,4.56-1.92,6.77,2.74,11.92,5.87,17.53,1.39.55,5.08-1.96,9.25-2.68Z"/>
        <path class="cls-63" d="M282.91,37.84c-3.43,2.02-1.26,5.95-2,7.76-1.07,2.61-19.54,8.88-22.44,12.09,20.19,16.5,21.1,16.94,42.68,31.08,7.71-6.49,6.55-15.34,4.01-23.97-7.05-10.31-13.94-17.83-22.25-26.95Z"/>
        <path class="cls-3" d="M305.16,64.8c2.54,8.63,3.7,17.48-4.01,23.97,4.3,2.81,15.35,8.48,16.09,9.03-.59-10.8-3.49-22.45-9.51-31.51-1.25-1.88-2.47-1.34-2.57-1.49Z"/>
      </g>
      <path class="cls-2" d="M202.91,402.09c-.99-1.14-1.99-2.27-2.99-3.4l-1.68,2.2c1.62,1.93,2.51,3.05,4.67,1.2Z"/>
      <path class="cls-72" d="M198.24,400.9l1.68-2.2c-.49-.55-.69-.51-.73-.56-1.9,1.12-2.19,1.28-.95,2.76Z"/>
    </g>
  </g>
</svg>