<?xml version="1.0" encoding="UTF-8"?>
<svg id="Layer_2" data-name="Layer 2" xmlns="http://www.w3.org/2000/svg" viewBox="0 0 299.85 589.11"><defs>
    <style>
      .cls-1 {
        fill: none;
      }

      .cls-2 {
        fill: #e4842e;
      }

      .cls-3 {
        fill: #c55b3c;
      }

      .cls-4 {
        fill: #c45f41;
      }

      .cls-5 {
        fill: #503c43;
      }

      .cls-6 {
        fill: #232323;
      }

      .cls-7 {
        fill: #2dadb6;
      }

      .cls-8 {
        fill: #f9fbfd;
      }

      .cls-9 {
        fill: #3a310b;
      }

      .cls-10 {
        fill: #dfd4e4;
      }

      .cls-11 {
        fill: #f7b750;
      }

      .cls-12 {
        fill: #591810;
      }

      .cls-13 {
        fill: #f1e696;
      }

      .cls-14 {
        fill: #d77344;
      }

      .cls-15 {
        fill: #281a26;
      }

      .cls-16 {
        fill: #f6a049;
      }

      .cls-17 {
        fill: #f0935d;
      }

      .cls-18 {
        fill: #f7b759;
      }

      .cls-19 {
        fill: #bdeded;
      }

      .cls-20 {
        fill: #c12e4b;
      }

      .cls-21 {
        fill: #f8ae89;
      }

      .cls-22 {
        fill: #e6f3f4;
      }

      .cls-23 {
        fill: #e68d68;
      }

      .cls-24 {
        fill: #f15c21;
      }

      .cls-25 {
        fill: #333c40;
      }

      .cls-26 {
        fill: #e73126;
      }

      .cls-27 {
        fill: #248b90;
      }

      .cls-28 {
        fill: #fbfbfc;
      }

      .cls-29 {
        fill: #e5a534;
      }

      .cls-30 {
        fill: #d11b18;
      }

      .cls-31 {
        fill: #cc5637;
      }

      .cls-32 {
        fill: #fbdb8e;
      }

      .cls-33 {
        fill: #8e4237;
      }

      .cls-34 {
        fill: #efdd89;
      }

      .cls-35 {
        fill: #fcf8e9;
      }

      .cls-36 {
        opacity: .2;
      }

      .cls-36, .cls-37 {
        fill: #7aebe9;
      }

      .cls-38 {
        fill: #a45740;
      }

      .cls-39 {
        fill: #ac4a30;
      }

      .cls-40 {
        fill: #c9892d;
      }

      .cls-41 {
        fill: #e6794d;
      }

      .cls-42 {
        fill: #7e2629;
      }

      .cls-43 {
        fill: #349655;
      }

      .cls-44 {
        fill: #af3e29;
      }

      .cls-45 {
        fill: #f86f23;
      }

      .cls-46 {
        fill: #fbdeb1;
      }

      .cls-47 {
        fill: #661b6a;
      }

      .cls-48 {
        fill: #90eaeb;
      }

      .cls-49 {
        fill: #d7643c;
      }

      .cls-50 {
        fill: #fcfcfc;
      }

      .cls-51 {
        fill: #593f39;
      }

      .cls-52 {
        fill: #c47258;
      }

      .cls-53 {
        fill: #29999b;
      }

      .cls-54 {
        fill: #d8f6fb;
      }

      .cls-55 {
        fill: #353535;
      }

      .cls-56 {
        fill: #ab7ab7;
      }

      .cls-57 {
        fill: #9f6d64;
      }

      .cls-58 {
        fill: #cae9ed;
      }

      .cls-59 {
        fill: #320532;
      }

      .cls-60 {
        fill: #1d121b;
      }

      .cls-61 {
        fill: #8a2b20;
      }
    </style>
  </defs>
  <g id="FOOD">
    <g>
      <path class="cls-11" d="M180.11,570.69c0,1-11.04,18.13-12.03,18.18-24,1-60-1-67-7-3.81-3.27-7.75-19.99-8-21-4.15-16.78,69.78,11.4,87.03,9.82Z"/>
      <g>
        <path class="cls-11" d="M225.11,560.69c-1,6-1.03,7.18-2,12-1.01,5.03-40.7,16.17-55.03,16.18,0-1,12.03-17.18,12.03-18.18,14.94-1.36,30.9-4.79,45-10Z"/>
        <path class="cls-5" d="M136.11,461.7c8.59,2.41,12.27,1.9,20.5-1.5.44,1.29,1.34,2.35,2,3.5.91,1.59.93,2.38,1,2.5q-4.12,1.5-8.25,3c-7.9-2.04-15.82,2.24-26-6-7.32-5.93-7.97-13.95-9.25-22.5,2.73,2.32,6.32,2.45,6.5,2.75,1.08,1.8-3.79,13.4,13.5,18.25Z"/>
        <g>
          <path class="cls-34" d="M177.61,434.7c.53.28,2.38-.03,2.5,0,1.47.35,2.91,1.19,4.5,1,.27,1.41.49.94.5,1,1.19,10.16-2.94,10.15-11.5,7,1.15-1.83,1.77-8.97,4-9Z"/>
          <g>
            <path class="cls-23" d="M177.61,434.7c-2.23.03-2.85,7.17-4,9-.09.15-2.16,2.19-2.5,2.5-6.1,5.52-27.48,14.95-35.5,12.5-1.98-.6-3.11-2.17-4.5-3.5,18.99,3.66,8.71.64,6.5-6.25-4.34-13.54,3.99-12.61-6.5-14.75-5.58-1.14-11.5-.48-16.5-3.5,1.12-4.9,15.39-4.04,20-4.5,4-.4,7.98-.98,12-1.25-2.04-2.4-4.57-4.24-6.5-6.75,25.12-3.65,35.58,15.5,37.5,16.5Z"/>
            <path class="cls-52" d="M131.11,434.2c10.49,2.14,2.16,1.2,6.5,14.75,2.21,6.89,12.49,9.91-6.5,6.25-3.11-2.97-10.62-13.76-3-13.75-4.44-1.93-9.22-2.43-13-5.75,0-.17,0-.33,0-.5,1.32-2.47,12.76,2.1,16-1Z"/>
            <path class="cls-57" d="M131.11,455.2c1.39,1.33,2.52,2.9,4.5,3.5q.25,1.5.5,3c-17.29-4.85-12.42-16.45-13.5-18.25-.18-.3-3.77-.43-6.5-2.75-.26-1.76-.89-3.01-1-5,3.78,3.32,8.56,3.82,13,5.75-7.62-.01-.11,10.78,3,13.75Z"/>
            <path class="cls-57" d="M131.11,434.2c-3.24,3.1-14.68-1.47-16,1-.07-1.41-.86-2.91-.5-4.5,5,3.02,10.91,2.36,16.5,3.5Z"/>
            <path class="cls-52" d="M171.11,446.2c1.2.78,1.41,2.33,2,3.5-2.03,1.42-7,5.4-8,6-.78.47-8.06,4.32-8.5,4.5-8.23,3.4-11.91,3.91-20.5,1.5q-.25-1.5-.5-3c8.02,2.45,29.4-6.98,35.5-12.5Z"/>
          </g>
        </g>
        <g>
          <path class="cls-50" d="M169.61,461.7q6.25,9.75,12.5,19.5c-.5.11-6.03,3.33-9.5,4-.08-.76-.95-.95-1-1-.81-.83-10.68-15.8-12-18-.07-.12-.09-.91-1-2.5,2.7-1.02,6.17-1.82,9-2,.66-.04,1.34.01,2,0Z"/>
          <path class="cls-56" d="M165.11,455.7c1.5,2.32,4.67,5.01,2.5,6-2.83.18-6.3.98-9,2-.66-1.15-1.56-2.21-2-3.5.44-.18,7.72-4.03,8.5-4.5Z"/>
        </g>
        <g>
          <path class="cls-48" d="M146.11,328.2c-.68,2.07-1.7,3.96-2.5,6-1.83-.3-1.9.96-2,1-.53.21.22-1.48-3,1.75-3.25,3.26-20.49,27.48-22.25,27.75-.29.04-5.13-2.48-5.25-2.75-1.4-3.12-.03-30.67-2.75-32.25-.73-.42-3.62.87-3.25-1,2.03-.15,3.94.87,6,.5-.58,8.83-.24,18.16,6.75,24.5.41,0,3.62-3.92,4.25-4.5,6.77-6.24,12.8-13.26,19.5-19.5.93-.87,2.32-1.39,3-2.5.19.17,1.22.84,1.5,1Z"/>
          <g>
            <path class="cls-54" d="M218.07,421.87s26.08-25.13,29-33c.78-2.09,5-16,3.64-22.19-2.22-8.65-5.33-16.92-11.1-23.73-11.06-13.05-23.06-9.92-32-12.75-2.06,4.39-4.56,8.65-7.5,12.5-1.79,6.55-15.09,23.07-21.75,23.5-9.38.61-22.12-30.32-28.42-34.33.77,7.01-7.84,3.1-5-2-.53.21-3.1,3.85-6.33,7.08-3.25,3.26-20.49,27.48-22.25,27.75-.29.04-5.13-2.48-5.25-2.75-1.4-3.12-.03-30.67-2.75-32.25-.73-.42-3.62.87-3.25-1-7.49.57-11.19.92-18.25,5-10.18,5.89-20.87,23.02-18.25,28.25,3.46,6.92,12.46,17.92,19.46,23.92,1.88,1.61,3.84-.93,4.94-2.87-3.33,7.68-9.15,19.78-7.94,29.87,1.37,11.43,6.94,17.95,11,21,2.73,2.05,9,4,9,4,0,0,4,5,0,14-1.14,2.56-14,37-17,41,.1-.13.98-.25,2.51-.38-8.58,10.98-10.57,26.92-13.51,55.38-.3,2.14-1.55,5.77-2.46,7.82,14.74,9.85,38.13,13.18,55.5,15,17.19,1.8,34.75,2.58,52,1,14.94-1.36,30.9-4.79,45-10,4.67-1.72,10.18-4.03,14.5-6.5-2.17-15.61-25.23-75.2-29.53-90.32-.5.23-1.06.45-1.65.67.8-13.71,1.65-29.67,1.65-29.67l6-14Z"/>
            <path class="cls-10" d="M146.86,381.7c2.63-.31,3.1,4.32,1,5-3.13,1.02-3.92-4.65-1-5Z"/>
          </g>
          <path class="cls-48" d="M148.11,477.19l-12.5-19.5c4.82-.1,9.46.81,14.25,1l31.08-2.83-8,23c-6.58,1.16-18.29-3.11-24.83-1.67Z"/>
          <g>
            <path class="cls-58" d="M189.61,311.2c2.5,7.39,9.61,16.34,18,19-2.06,4.39-4.56,8.65-7.5,12.5-3.73,4.89-16.44,18.28-22.75,17.5-5.61-.69-23.98-26.03-26.75-32.5,10.69-3.61,21.74-10.07,29-18.75-.28-2.07-.61-4.2-1-6.25,5.71.57,7.95,6.6,11,8.5Z"/>
            <path class="cls-48" d="M150.61,327.7c2.77,6.47,21.14,31.81,26.75,32.5,6.31.78,19.02-12.61,22.75-17.5-1.79,6.55-15.09,23.07-21.75,23.5-9.38.61-14.95-13.49-21.25-17.5-.27-2.45-.78-3.36-1.5-5.5-.43-1.28-.98-2.29-1.5-3.5-1.09-2.53-2.39-3.79-2.5-4-1.19-2.2-2.49-4.5-3-7,.11-.03-.48-.16,2-1Z"/>
            <g>
              <path class="cls-58" d="M134.61,311.7c-1.42-.22-1.75,4.51-2.5,7-2.73,9.06-10.13,26.79-10.5,28.25-.16.62-.16,2.32.5,2.25-.63.58-3.84,4.5-4.25,4.5-6.99-6.34-7.33-15.67-6.75-24.5,6.55-3.95,11.23-9.94,15.5-16,2.87-4.07,4.54-9.14,8.5-12.5-.31,3.11-.95,8.1-.5,11Z"/>
              <path class="cls-58" d="M141.61,329.7c-6.7,6.24-12.73,13.26-19.5,19.5-.66.07-.66-1.63-.5-2.25.37-1.46,7.77-19.18,10.5-28.25q4.75,5.5,9.5,11Z"/>
              <path class="cls-54" d="M134.61,311.7c.63,4.03,3.64,6.92,6,10,.61.79,3.74,5.28,4,5.5-.68,1.11-2.07,1.63-3,2.5q-4.75-5.5-9.5-11c.75-2.49,1.08-7.22,2.5-7Z"/>
            </g>
          </g>
        </g>
        <g>
          <path class="cls-33" d="M176.61,297.2c-9.09,11.59-21.81,20.53-36,24.5-2.36-3.08-5.37-5.97-6-10-.45-2.9.19-7.89.5-11,.07-.73.15-.89.5-1.5,12.44,2.19,27.65-5.12,38.5-11,1.21,2.88,1.66,6.03,2.5,9Z"/>
          <path class="cls-23" d="M178.61,302.7c.39,2.05.72,4.18,1,6.25-7.26,8.67-18.31,15.14-29,18.75-2.48.84-1.89.97-2,1-.74.17-.36.73-2.5-.5-.28-.16-1.31-.83-1.5-1-.26-.22-3.39-4.71-4-5.5,14.19-3.97,26.91-12.91,36-24.5.67,2.38,1.94,5.17,2,5.5Z"/>
        </g>
      </g>
      <path class="cls-40" d="M153.41,589.11l-1.33-10.67s2.67,10.67,4,10.67h-2.67Z"/>
      <path class="cls-48" d="M217.61,475.19c-4.87-6.97-4.71-26.63-3.53-39.53,2.34-3.03,4.3-6.79,5.03-10.22.97-3.58.43-15.82-2.75-24.75-1.58.23,4.64,12.67-.78,23.88-2.11,2.97-4.93,6.89-9.43,9.94-2.21,1.34-4.8,2.56-7.86,3.61-5.94,1.64-13.75,1.73-24.21-1.26.64.18,35.3,40.12,43,56,7.48,15.45,16.24,62.78,15,67,.46-.1,6.78-3.39,10-5,2-1-2.74-48.58-24.47-79.67Z"/>
      <path class="cls-48" d="M111.11,439.19c5,0,10-3,10-3-6,3-16.04,1.67-16.04,1.67,0,0,1.12,1.84,1,5-.12,3.34-1.54,8.12-3.96,12.33-4,6.95-7.14,12.93-9.58,17.88-2.76,4.78-4.86,10.17-6.12,13.6-.92,2.33-1.31,3.52-1.31,3.52-4.86,19.13-9.34,45.12-12.04,64.67,6.62,4.02,7,4,7,4,0,0-3.25-21.94,2.02-42.41,7.46-28.98,19.64-41.24,22.98-46.59,15-24,6.04-30.67,6.04-30.67Z"/>
      <path class="cls-47" d="M80.07,377.87s7,3,13-1c6.13-4.09-3,13-3,13,0,0-6.11-5.26-10-12Z"/>
      <path class="cls-61" d="M.5,460.64c-.08.09-.47.48-.5.5,3.35,2.78,10.64,4.47,14.94,4.98.2.02,2.73-.09,3.99,0,2.22.16,4.8.44,6.97.5.28,0,1-.46,5.48-.5,1.66-.01,3.33.06,4.98,0,5.51-.19,10.47-.51,15.94-1,2.46-.22,4.97-.72,7.47-1,3.75-.41,3.23-1.95,8.47-1l-1.99-1.49c-8.46.13-16.98.29-25.41-.5,2.6,5.24-2.66,2.87-11.71,3.99-3.51-4.21-10.07-2.52-12.7-5.48-.8.79-7.29,3.99-7.72,3.99-.44,0-6.25-3.46-8.22-2.99Z"/>
      <g>
        <path class="cls-48" d="M146.45,498.5c12.86,7.39,29.41,14.74,38.85,25.9,4.8.35,9.45,3.05,14.2,3.49,6.2.57,29.26-5.02,32.43-5.02-1,0-16.41.92-17-1-.48,0-4.55-2.04-5-2-10.74,1.94-22.17,1.18-30.6-5.68.08-.47,1.44-.15,1.49-.25.09-.16.91-2.86,1-3.49-3.17-1.85-5.77-1.63-4.98-5.48-10.8-.84-19.98-3.9-30.39-6.48Z"/>
        <path class="cls-48" d="M96.14,473.59c-.31,3.02.7,6.89-1.49,8.97-5.61,5.31-13.99,36.98-15.61,42.31,12.86-4.8,30.36-9.31,44.25-8.43.1,0,20.43,5.07,23.91,5.98,2.4.63,44.5,15.58,46.58,16.94.78-2.58-6.1-12.15-8.47-14.94-9.45-11.16-25.99-18.51-38.85-25.9-2.33-1.34-4.66-2.6-6.97-3.99-4.11-2.47-8.84-4.12-11.71-8.47-12.35,3.72-18.44-4.78-24.66-13.95-6.53.82-6.61,1.46-6.97,1.49Z"/>
      </g>
      <path class="cls-14" d="M6.97,449.68c-2.81,1.44-6.04,10.49-6.48,10.96,1.97-.47,7.78,2.98,8.22,2.99.43,0,6.92-3.2,7.72-3.99,1.47-1.45,2.95-4.41,2.49-6.48-.16-.03-2.25-.85-2.99-1-4.99,6.12-13.74,7.39-3.49-1-1.52-.34-4.59-1.72-5.48-1.49Z"/>
      <path class="cls-3" d="M18.93,453.17c.46,2.06-1.02,5.03-2.49,6.48,2.63,2.96,9.2,1.27,12.7,5.48,9.04-1.11,14.31,1.25,11.71-3.99-1.81-.17-13.14-1.1-13.7-1.49-.61-.43-.06-4.44-.25-5.48-2.57-.24-5.44-.57-7.97-1Z"/>
      <path class="cls-44" d="M15.94,452.17c-1.57-.31-2.56-.79-3.49-1-10.25,8.39-1.5,7.12,3.49,1Z"/>
      <path class="cls-44" d="M66.25,461.64l1.99,1.49c1.47.27,5.67,1.25,3.99,2.49,14.46,5.87,24.05-1.52,33.87-5.48-13.32-.49-26.56,1.29-39.85,1.49Z"/>
      <path class="cls-2" d="M59.78,464.13c-.5,1.88-1.8,3.5-.5,5.48,1.7.04,3.68.42,5.48.5,1.94-2.21,5.22-2.83,7.47-4.48,1.69-1.24-2.51-2.22-3.99-2.49-5.24-.95-4.72.59-8.47,1Z"/>
      <path class="cls-3" d="M52.3,465.13c.1,1.33-3.07,3.47-2.49,4.73.22.48,2.21.69,3.49,1.25,3.06-3.17,2.7-1.58,5.98-1.49-1.3-1.98,0-3.6.5-5.48-2.5.27-5.01.78-7.47,1Z"/>
      <path class="cls-25" d="M31.38,466.12h4.98c-1.65.06-3.32-.01-4.98,0Z"/>
      <g>
        <path class="cls-54" d="M180.33,454.66c3.65,4.35,5.57,9.16,7.47,14.45,1.13,3.13,1.72,5.26,2.49,8.47,1.83,7.58,3.01,12.49,2.99,20.42,8,.82,16.49,1.76,23.91-1.99.41-13-1.21-24.69-5.98-36.86-1.59-2.57-3.67-5.03-5.48-7.47-.03-.04-.96-.45-1-.5-8.03,1.56-16.27,2.71-24.41,3.49Z"/>
        <path class="cls-58" d="M193.28,498c0,2.5-.16,4.49-.5,6.97-.47,3.43-.92,6.49-2.99,9.46-2.74,3.94-2.35,1.94-8.97-.5-.06.1-1.41-.22-1.49.25,8.44,6.85,19.14,9.66,29.89,7.72.68-1.11,1.73-1.93,2.49-2.99,1.06-1.47,2.36-4.26,2.99-5.98,2.21-5.98,2.3-10.74,2.49-16.94-7.43,3.76-15.91,2.81-23.91,1.99Z"/>
      </g>
      <g>
        <path class="cls-58" d="M143.93,327.87s1.57,49.45,2.99,68.08c1.7,22.28,1,57-1,81-1.81,21.75,3,95,3,95l2,1s-3.19-43.99-3.1-70.23c.1-29.77,1.92-48.87,2.1-63.77.18-14.91-2-60.97-2-71,0-6,1.16-25.69,2.01-35.08.5-5.49,0-3.92,0-3.92l-5.99-1.08Z"/>
        <path class="cls-8" d="M146.85,381.78c2.63-.31,3.1,4.32,1,5-3.13,1.02-3.92-4.65-1-5Z"/>
        <path class="cls-8" d="M147.85,402.78c2.63-.31,3.1,4.32,1,5-3.13,1.02-3.92-4.65-1-5Z"/>
        <path class="cls-8" d="M146.85,361.78c2.63-.31,3.1,4.32,1,5-3.13,1.02-3.92-4.65-1-5Z"/>
        <path class="cls-8" d="M146.85,501.78c2.63-.31,3.1,4.32,1,5-3.13,1.02-3.92-4.65-1-5Z"/>
        <path class="cls-8" d="M146.85,521.78c2.63-.31,3.1,4.32,1,5-3.13,1.02-3.92-4.65-1-5Z"/>
        <path class="cls-8" d="M147.85,541.78c2.63-.31,3.1,4.32,1,5-3.13,1.02-3.92-4.65-1-5Z"/>
      </g>
      <g>
        <path class="cls-54" d="M255.05,384.18c-8.84-36.55-7.15-42.98-45.01-53.31-.81.69-1.96,1.12-2.8,1.78-6.25,6.59,1.3,30.71,1.49,34.84,1,21.92-1.38,37.15,3.49,60.77,2.14,10.42,2.61,11.95,11.46,19.18-.2.68-8.67,1.2-13.95,2.74-1.26.37-2.63,1.25-3.99,1.49,1.8,2.44,3.89,4.9,5.48,7.47,5.68,9.16,7.43,18.59,9.96,28.89,14.28-1.97,31.03-8.82,35.37-23.91-6.86-11.53-18.69-14.88-31.38-16.19,15.9-1.11,35.89,8.18,42.34,23.41,1.22,2.87,1.16,8.26,2.49,6.72.82-20.88-9.58-71.74-14.94-93.9Z"/>
        <path class="cls-58" d="M256.54,464.13c13.81,23.23-16.88,29.93-34.12,30.39-.52-2.14-.72-4.33-1.25-6.48-2.53-10.3-4.29-19.73-9.96-28.89,4.76,12.17,6.39,23.86,5.98,36.86-.19,6.19-.28,10.96-2.49,16.94,11.67,2.59,23.5-.15,34.87-2.74-8.35,7.41-19.28,12.07-30.64,11.21-.88-.07-5.4-3.5-7-3.55-2.52-.08-2.23,3.11-3,2-.76,1.06,6.75,3.38,9.5,3.54,30.72,1.73,50.34-14.33,51.56-45.33-1.33,1.53-1.27-3.85-2.49-6.72-6.45-15.23-26.44-24.52-42.34-23.41,12.69,1.31,24.53,4.66,31.38,16.19Z"/>
        <path class="cls-8" d="M221.17,488.04c.53,2.14.73,4.33,1.25,6.48,17.24-.46,47.93-7.16,34.12-30.39-4.33,15.09-21.09,21.94-35.37,23.91Z"/>
        <path class="cls-48" d="M212.21,428.26c-4.86-23.63-2.48-38.86-3.49-60.77-1.47,9.17-1.29,19.46-3.99,28.39v53.05q-.5.37-1,.75c.34.45.66,1.04,1,1.49.03.04.96.45,1,.5,1.36-.24,2.73-1.13,3.99-1.49,5.28-1.54,13.75-2.06,13.95-2.74-8.85-7.23-9.31-8.76-11.46-19.18Z"/>
        <path class="cls-48" d="M214.7,512.95c-.63,1.72-1.93,4.51-2.99,5.98,1.25,1.81,4.96,2.32,7.22,2.49,11.35.87,22.29-3.8,30.64-11.21-11.37,2.59-23.2,5.33-34.87,2.74Z"/>
      </g>
      <path class="cls-42" d="M189.29,481.56c-.38,6.59.49,11.79-4.23,17.93-14.3,1.49-29.94-1.01-42.09-8.97-3.38,2.21-6.14,2.28-3.49,3.99,2.31,1.39,4.64,2.64,6.97,3.99,10.4,2.58,19.59,5.64,30.39,6.48,5.11.4,10.79.18,15.94,0,.34-2.48.49-4.48.5-6.97.02-7.94-1.16-12.85-2.99-20.42-.62.92-.93,2.92-1,3.99Z"/>
      <path class="cls-27" d="M176.84,504.98c-.3,1.45-.08,2.81.47,4.04.35,2.01,1.11,4.32,2.72,5.85,2.66,2.54,8.37,1.56,9.75-.43,2.07-2.98,2.52-6.03,2.99-9.46-5.15.18-10.83.4-15.94,0ZM189.24,514.2c.06.02.12.05.18.07-.06-.02-.11-.05-.18-.07Z"/>
      <path class="cls-12" d="M104.61,471.1c-1.62.16-1.41.99-1.49,1,6.22,9.17,12.31,17.66,24.66,13.95,2.87,4.35,7.59,5.99,11.71,8.47-2.65-1.71.1-1.77,3.49-3.99,1.89-1.23,3.92-2.32,5.48-3.99-7.37,1.63-16.79-1.93-17.68-1.99-5.26-.37-15.24,5.49-21.92-7.47,22.55-.91,21.68,1.34,1.99-6.48-2.22-.3-4.15.3-6.23.5Z"/>
      <path class="cls-44" d="M64.76,470.11c-1.8-.07-3.78-.46-5.48-.5-3.28-.08-2.92-1.67-5.98,1.49.81.35.94.48,1,.5,3.41-.18,6.63,1.18,9.96,1.49,0-.68,2.65-.67,3.49-.5.81.17.34.95.75,1,3.43.43,15.61.02,21.17,0,1.22-.09,2.69-.37,3.99-.5,1.87-.18,2.25.52,2.49.5.37-.04.44-.68,6.97-1.49.09-.01-.13-.84,1.49-1-2.97-1.7-7.32,2.55-6.97-2.99-14.24,3.2-18.78,2.57-32.88,1.99Z"/>
      <path class="cls-14" d="M106.1,460.14c-9.83,3.96-19.42,11.35-33.87,5.48-2.25,1.65-5.53,2.27-7.47,4.48,14.1.58,18.63,1.21,32.88-1.99,15.62-3.51,17.26-7.49,41.84-7.47-.63-.67-2.26-2.15-2.99-2.49-14.06-6.5-18.15-2.94-30.39,1.99Z"/>
      <path class="cls-61" d="M136.49,458.15c.73.34,2.36,1.82,2.99,2.49.21,0,3.19,1,3.99,1,10.94,0,21.96.41,32.88-.5,0-.43,2.64-5.15,2.99-6.48-14.26,1.33-28.63,1.52-42.84,3.49Z"/>
      <path class="cls-27" d="M179.33,454.66c-.35,1.33-2.98,6.04-2.99,6.48-.02,1.24-3.06,7.81-2.41,9.73,2.15-.2,11.7-1.76,13.87-1.76-1.9-5.29-3.82-10.09-7.47-14.45-.05,0,0-.09-1,0Z"/>
      <path class="cls-51" d="M54.3,471.6c10.03,3.59,24.79,2.78,35.37,1.99-5.56.02-17.74.43-21.17,0-.41-.05.07-.83-.75-1,.58,1.04-.82.75-3.49.5-3.34-.32-6.56-1.67-9.96-1.49Z"/>
      <path class="cls-25" d="M89.67,473.59c2.12,0,4.06.27,3.99-.5-1.29.12-2.76.41-3.99.5Z"/>
      <path class="cls-3" d="M181.32,469.61c-5.37.5-10.53,1.06-15.94,1,3.97,14.34,9.58,12.98,23.91,10.96.06-1.06.37-3.06,1-3.99-.77-3.21-1.36-5.34-2.49-8.47-2.16,0-4.32.3-6.48.5Z"/>
      <path class="cls-61" d="M157.41,470.61c-.3,5.26-3.18,14.66-8.97,15.94-1.56,1.66-3.59,2.75-5.48,3.99,12.15,7.95,27.79,10.46,42.09,8.97,4.72-6.14,3.85-11.34,4.23-17.93-14.34,2.02-19.94,3.38-23.91-10.96-2.54-.03-5.5.36-7.97,0Z"/>
      <g>
        <g>
          <path class="cls-31" d="M176.6,297.26c-9.09,11.59-21.81,20.53-36,24.5-2.36-3.08-5.37-5.97-6-10-.45-2.9.19-7.89.5-11,.07-.73.15-4.25.5-4.86,12.44,2.19,27.65-1.76,38.5-7.64,1.21,2.88,1.66,6.03,2.5,9Z"/>
          <path class="cls-41" d="M178.6,302.76c.39,2.05.72,4.18,1,6.25-7.26,8.67-18.31,15.14-29,18.75-2.48.84-1.89.97-2,1-.74.17-.36.73-2.5-.5-.28-.16-1.31-.83-1.5-1-.26-.22-3.39-4.71-4-5.5,14.19-3.97,26.91-12.91,36-24.5.67,2.38,1.94,5.17,2,5.5Z"/>
        </g>
        <g>
          <path class="cls-17" d="M207.36,199.76s-6.44-19.74-10.08-25.56c-4.81-7.69-19.05-20.76-27.72-23.4-8.71-2.65-26.18-2.64-36.4-.73,0,0-32.82,1.73-41.14,39.7-.94,4.3,3.47,25.35-1.5,42.9-.09.32-.14.65-.14.98v7.55c2.59,9.21,3.89,21.19,12.53,31.65,7.61,9.21,31.57,23.86,35.88,24.27,2.26.08,9.06-1.41,19.05-5.59,9.16-3.84,22.2-12.35,27.89-20.52,2.79-4.01,12.29-22.94,10.07-25.68,7.3-3.43,16.67-4.19,16.67-15.97,0-5.05-2.94-19.94-5.1-29.59ZM106.98,247.95c1.03.09,2.08.13,3.16.11-1.03.04-2.09,0-3.16-.11ZM163.78,244.93c.99.49,2.08.94,3.27,1.35-1.16-.38-2.25-.83-3.27-1.35Z"/>
          <path class="cls-49" d="M212.25,229.17c.06-.09,1.34-1.31-1.39-12.61-.8-3.84-2.6-12.74-2.6-12.74,0,0-.45-.64-1.11-1.37-.54-.59-1.23-1.23-1.8-1.71-7.14-5.96-20.51-5.64-24.33-5.66-8.48-.09-16.76,1.17-20.81,6.02-4.18,5.01-3.97,13.78-2.53,24.56.31,1.3,1.12,4,1.08,3.36-.1-1.67,1.06-6.72,2.37-9.57,2.25-4.92,4.62-8.13,10.93-10.58,15.64-6.05,31.83,20.59,32.55,21.79-1.8,6.6-5.1,12.32-11.07,14.7,3.89.67-5.67,21.3-8.64,25.56-5.68,8.17-18.56,15.97-27.72,19.8-9.98,4.18-16.68,6.28-18.99,6.23.17.06.07.12.64.16,15.33,1.15,24.21-2.52,37.43-10,19.85-11.23,20.3-13.57,30.24-32.4,1.1-2.09,1.09-4.53,2.88-6.84.38-.49,9.73-1.54.72-7.92,13.28-19.13,20.35-3.89,12.96,6.48-6.8,9.55-18.62-4.15-10.8,11.88,25.69,5.04,20.19-57.31,0-29.16Z"/>
          <path class="cls-39" d="M212.25,258.34c-2.56-.5-3.24-2.94-5.76-3.6,1.1-2.09,1.09-4.53,2.88-6.84.38-.49,9.73-1.54.72-7.92,13.28-19.13,20.35-3.89,12.96,6.48-6.8,9.55-18.62-4.15-10.8,11.88Z"/>
        </g>
        <path class="cls-21" d="M90.67,239.92c3.5,16.27,5.03,23.58,11.87,32.34,4.4,5.63,24.09,20.16,35.68,24.72-5.49-.09-34.05-16.97-40.23-24.75-6.68-8.4-8.31-18.44-8.47-25.05-.04-1.66.29-4.97.48-6.62.08-.68.39-2.73.39-2.73,0,0,.18,1.59.29,2.09Z"/>
        <path class="cls-60" d="M85.08,144.43c.15-.15.29-.29.45-.44,13.04-12.39,29.8-19.23,47.15-18.71.39-.18.78-.38,1.16-.57-.86-1.22-1.99-2.55-3.48-4.03.17-15.94-14.08-22.39-22.16-9.31-1.87.1-.44-1.42-.51-1.45-2.4-1.03-7.37-1.97-10.02-1.55-.19.03-3.57,1.09-3.74,1.18-10.23,5.61-11.8,18.74-1.07,24.73-4.61,3.16-7.04,6.61-7.78,10.15Z"/>
        <path class="cls-41" d="M99.91,202.89c-1.88.06,1.36-4.44,2.23-6.28,1.06-2.92,1.12-6.36,2-9.25,6.04-19.79,23.82-27.78,10.5-24.25-10.51,2.79-20.82,35.08-21.94,44.67,0,.01.18,6.15.18,6.15,2.51-3.22,3.62-4.22,7.97-6.63,8.46-4.67,18.39-1.27,22.4,9.26.04.12,2.35,10.41,2.39,11.24.02.42.04-9.38.19-10.88-.96-13.22-15.39-14.39-25.92-14.04Z"/>
        <g>
          <path class="cls-41" d="M90.4,238.22c-10.31,3.67-5.4,11.06-2.85,18.16-12.38-9.8-7.4-25.37-2.57-25.81.6-.05,2.57-.04,3.82.89,1.15.86,1.63,1.73,1.63,1.73,0,0,0,3.37-.04,5.02Z"/>
          <path class="cls-49" d="M88.27,233.34c.86-.04,2.13,1.32,2.1,4.07-.03,2.31-.95,7.35-.78,11.64,0,0,.48,5.68,1.6,9.55-1.36-.54-2.49-1.3-3.64-2.21-2.55-7.1-9.59-19.37.72-23.04Z"/>
        </g>
        <g>
          <path class="cls-15" d="M283.47,251.83c-.14-.13-.31-.32-.48-.48-.31-18.33-12.21-12.48-19.34-17.19-4.6-3.04-7.83-19.38,14.08-18.38,5.56,7.95-13.96,6.35-11.94,10.5.48.99,15.1,6.07,17.19,8.59,3,3.63,2.98,13.91.48,16.95Z"/>
          <path class="cls-60" d="M36.65,235.59c-.77,1.33-4.97,3.92-3.34,11.94-5.77-2.09-14.97-2.67-13.84-10.74,1.81-13.02,15.73-1.17,17.19-1.19Z"/>
          <path class="cls-60" d="M49.06,217.93q.48,4.42.95,8.83-6.68,4.42-13.37,8.83c.54-.92,2.18-2.06,2.39-2.63,2-5.39-4.36-9.36-3.82-14.8l13.84-.24Z"/>
          <path class="cls-60" d="M290.63,183.08c-4.37-2.21-5.02-1.55-9.55-2.63,2.76-7.37,4.11-10.61,0-17.43-.52-.4-.64-.5,0,0-3.84-6.37-10.77-9.34-17.9-6.21-2.75-.54.94-5.86-9.79-11.7,8.37-15.47-18.77-32.89-28.7-18.43-17.61-19.8-34.79-23.76-59.38-10.45-16.73-18.96-48.35-16.68-65.64.24-1.68,1.64.06,3.99-12.65,9.31-1.97.09-9.93-10.8-21.24-1.43,0,0,0,0,0,0-2.89,2.39-5.59,6.4-5.73,10.26-.03.76,1.65,8.46,1.91,8.83-1.18.2-2.31.87-3.34,1.43-7.68,4.19-5.16,3.47-8.83,10.98-18.35-1.5-25.18,16.33-12.17,28.88-2.57.83-5.11,1.11-7.64,2.15-1.99.82-3.19,1.37-4.77,2.86-9.07,8.54-4.83,20.54,5.73,25.06.64,1.79-3.89,4.36,0,13.37-18.05-2.07-24.49,18.34-7.64,26.26-3.6,8.83,2.84,20.44,12.65,16.95,7.94,7.76-1.98,7.84-.24,18.86,1.36,8.6,13.51,14.07,20.77,8.83,10.25,4.27,5.3,4.94,8.83,9.79,4.51,6.19,15.68,5.61,20.77.24,1.38.31.67,13.47,19.1,10.98,4.44-7.84,5.94-2.38,12.89-5.73,5.18-2.5,5.11-9.42,10.26-4.77,2.74-3.89,3.15-8.08,6.93-11.28.07-.7.14-1.4.21-1.99-6.38-2.21-25.4-13.42-31.26-18.43-9.34-7.98-13.33-20.37-13.01-19.3-1.36-.54-2.49-1.3-3.64-2.21-12.38-9.8-7.4-25.37-2.57-25.81.6-.05,2.57-.04,3.82.89,1.13.85,1.61,1.7,1.63,1.73.9-3.64,1.92-8.38,2.1-11.67.91-5.89.92-15.31.93-15.49.51-7.83,10.9-38.47,20.04-42.53,5.38-2.39,10.25,1.5,16.95-8.12,21.88,12.34,30.33-2.24,31.99-2.86,6.58-2.47,8.32,5.19,8.83,5.49,13.69,7.91,27,21.42,30.54,26.98.47.73,2.46,5.84,3.64,9.46,3.7,11.31,6.79,34.73,6.79,34.73,0,0,3.9-5.64,7.37-6.78-.07-.05,3.66-1.35,6.46,1.78,5.22,5.85,4.58,25.77-3.74,31.97-4.96,3.7-10.25,2.94-13.43,0-1.22-1.12-2.42-1.4-2.42-1.4,0,0-.35.73-1,1.91-1.55,2.8-5.42,11.17-9.33,15.71-7.98,9.27-15.7,11.85-22.05,15.97.87,3.22,1.58,5.68,2.38,8.52.64,2.27,1.85,4.93,1.91,5.25,5.45.54,7.16,3.77,10.08,5.58.54.34,3.43.86,4.54.95,6.7,13.18,24.45,10.16,28.64-3.82,9.21,9.72,23.29,11.63,27.21-3.82,7.01.07,11.98.74,16.71-5.25,17.53,1.89,24.17-15.7,11.7-27.45l5.97-7.88c5.9,1.47,11.45.11,14.56-5.25,3.95-6.8,2.04-13.9-4.3-18.38,1.49-16.72-7.49-16.8-8.12-17.66-2.99-4.15,5.51-3.75,10.03-9.07,6.81-8.02,4.79-22.13-4.77-26.97"/>
          <path class="cls-15" d="M42.86,255.17c-.27.1-1.5,1.75-5.01,2.86-.56-.14-4.42-9.94-4.54-10.5-1.63-8.01,2.57-10.6,3.34-11.94q6.68-4.42,13.37-8.83-.48-4.42-.95-8.83c.1-2.73-8.04-6.86-13.37-10.5-2.1-4.42-1.05-9.85,1.91-13.84,8.45-3.78,19.02-1.63,19.1-7.88,0-.5-2.12-5.75-2.39-9.79-.72-10.74,14.06-12.77,15.28-14.08.5-.54,1.74-5.63,1.91-6.92,1.36-2.12,3.22-3.78,4.77-5.73,2.19-2.75,3.56-.4,1.91-8.83,15.43-17.14,14.53-10.69,36.04-7.88,3.21-.75,3.19-14.58,10.03-15.75,9.57-1.64,12.02,10.31,8.12,13.37-3.67,2.88-3.2-2.58-6.68-7.64-3.78,22.62-17.69,15.12-34.85,12.89-8.46,5.82-4.47,10.16-5.49,13.13-.28.81-7.63,7.08-8.12,8.12-3,6.43,5.2,5.22-16.71,16.71-2.36,5.97,9.05,16.27-6.92,23.15-4.57,1.97-16.64,2.16-13.37,6.21,2.66,3.28,15.27,6.03,15.99,17.43,1.43,22.72-26.97,10.24-13.37,35.09Z"/>
          <g>
            <g>
              <path class="cls-15" d="M177.73,118.15c12.02-1.13,20.75,19.49,43.44,11.94,11.03,14.64,20.32,10.14,15.52,27.93,2.48,1.22,11.9,9.52,12.65,9.79,5.27,1.89,20.78-2.81,15.99,16.47,4.52,1.56,20.47,7.85,22.44,11.46,2.26,4.16.7,12.42-4.06,14.08-11.08,3.87-.82-9.16-1.19-10.74-11.93-10.93-28.55-.8-21.96-23.39q-6.33-.6-12.65-1.19c-8.03-10.55-12.63-7.74-15.52-11.22-7.65-9.25,11.94-21.6-18.86-17.43l-2.39-8.12c-11.72.38-21.94-6.33-31.03-12.89-4.05-.29-16.38,7.73-13.61-.72.59-1.81,9.15-5.77,11.22-5.97Z"/>
              <path class="cls-59" d="M222.6,135.81c2.95-.22-2.46,2.06-3.34,2.39-11.48,4.18-3.32-1.9,3.34-2.39Z"/>
            </g>
            <path class="cls-1" d="M124.26,116.72c-6.84,1.17-6.82,15.01-10.03,15.75-21.51-2.82-20.61-9.27-36.04,7.88,1.65,8.43.28,6.08-1.91,8.83-1.55,1.95-3.41,3.61-4.77,5.73h0c-.17,1.29-1.41,6.38-1.91,6.92-1.22,1.32-16,3.34-15.28,14.08.27,4.04,2.39,9.28,2.39,9.79-.07,6.25-10.64,4.1-19.1,7.88-2.96,3.99-4.01,9.42-1.91,13.84,5.33,3.64,13.47,7.78,13.37,10.5q-6.92.12-13.84.24c-.54,5.44,5.82,9.41,3.82,14.8-.21.57-1.85,1.7-2.39,2.63-1.46.02-15.38-11.82-17.19,1.19-1.12,8.08,8.08,8.65,13.84,10.74.11.56,3.98,10.36,4.54,10.5,3.52-1.11,4.74-2.77,5.01-2.86-13.6-24.85,14.8-12.37,13.37-35.09-.72-11.4-13.34-14.14-15.99-17.43-3.27-4.05,8.8-4.24,13.37-6.21,15.97-6.89,4.57-17.19,6.92-23.15,21.91-11.49,13.71-10.28,16.71-16.71.48-1.03,7.84-7.31,8.12-8.12,1.03-2.97-2.97-7.31,5.49-13.13,17.16,2.23,31.07,9.73,34.85-12.89,3.48,5.05,3.01,10.51,6.68,7.64,3.9-3.06,1.45-15.01-8.12-13.37Z"/>
            <path class="cls-1" d="M265.81,226.28c-2.02-4.15,17.5-2.56,11.94-10.5-21.91-.99-18.69,15.34-14.08,18.38,7.12,4.71,19.02-1.14,19.34,17.19.17.16.33.34.48.48,2.5-3.03,2.52-13.32-.48-16.95-2.09-2.52-16.71-7.61-17.19-8.59Z"/>
          </g>
        </g>
        <g>
          <path class="cls-35" d="M124.73,224.6c-.5-1.47-1.36-5.17-5.73-9.43-2.82-2.75-5.81-4.38-7.96-4.74-1.44-.2-2.74-.16-3.92.02-2.25-.1-5.68,1.45-7.92,3.23-5.87,4.68-4.57,12.46,1.08,15.84.25.15.53.29.82.43,3.24,1.76,5.75,1.8,9.2,1.91,0,0,6.24.41,14.03-2.74.47-.19,1.41-.71,1.41-.71,0,0-.22-2.03-1.01-3.82Z"/>
          <path d="M93.35,210.47c2.64,2.22,6.39-6.16,17.05-5.19,8.72.79,15.56,12.06,15.24,22.28-1.16-2.08-2.23-5.18-2.57-5.54-.05-.06-.18.02-1.29-.86,1.16-4.03-6.96-10.25-10.73-10.73-6.55-.85-10.77,2.43-13.74,7.73-.14.25-.58,1.17-.86,2.15-1.13,3.97,1.02,7.74,4.65,9.65-.74,0-3.81-1.99-4.23-2.35-4.02-3.43-7.61-12.5-7.56-18.15-.1-1.1.31-4.58.83-3.19.99,2.65,2.45,3.56,3.2,4.2Z"/>
          <path d="M110.06,223.33c1.9-.49,2.53-3.14,2.21-4.87,11.2-1.45,3.91,16.24-2.21,4.87Z"/>
          <path class="cls-9" d="M123.08,222.99c0-.2-.04-.38-.05-.58,0-.14,0-.27,0-.41,0,0-.02-.02-.04-.02-.84-6.6-8.39-11.1-11.98-11.57-.36,1.44-2.68,2.49-3.43,3.86-.15.27-.81,2.12,0,2.15,2.03-.08,2.65.33,3.43.43.07.43,1.27,1.61,1.29,1.72,10.87-1.4,3.79,15.75-2.15,4.72-2.27.58-4.3-1.57-4.72-.64.81,3.73,1.27,6.93,4.72,8.8,1.25.67,3.25.49,7.72-.31,3.74-.67,4.99-4.57,5.14-8.2.02.01.05.04.06.05Z"/>
          <path class="cls-35" d="M174.87,213.58c.9-.18,3.78-.53,5.05-.47,2.94.16,5.9,2.18,5.9,2.18,7.28,5.07,10.16,9.31,3.22,16.31-.69.31-2.85,1.25-3.01,1.29-5.74,1.41-21.22,1.35-27.05-2-.02,0-.03-.02-.05-.03-.3-.17-.26-2.91.05-3.98,3.45-6.78,7.95-12.16,15.89-13.31Z"/>
          <g>
            <path d="M195.05,217.44c2.17,1.76,3.7.7,5.24-1.17.9-.99.81-1.56,1.05-1.23.27.39.27,1.84-.33,3.75-1.37,4.31-5.27,9.83-11.96,12.82,6.94-7.01,4.06-11.25-3.22-16.31,0,0-1.92-1.42-5.58-2.15-1.82-.36-3.59.17-5.37.43-7.94,1.15-12.44,6.53-15.89,13.31,1.51-13.76,12.07-22.65,26.4-17.6,5.73,2.02,8.22,6.99,9.66,8.16Z"/>
            <path class="cls-9" d="M188.18,221.74c-.19-2.4-3.14-7.78-7.94-8.59-1.83-.31-3.59.17-5.37.43-4.27,6.01-2.22,3.07,1.5,4.29.41.13,1.13.82,1.5,1.29.24.3,1.52.19,3.86.86,4.97,5.8-3.02,11.68-6.44,4.72-1.91.28-4.19-1.74-4.29-1.5.28,14.31,18.69,12.68,17.17-1.5Z"/>
            <path d="M181.74,220.02c4.97,5.8-3.02,11.68-6.44,4.72,2.32-.34,3.84-3.51,2.58-5.58,1.66-.19,2.83-.01,3.86.86Z"/>
          </g>
        </g>
        <path class="cls-4" d="M219.21,253.56l1,2c1,2-3,3-3,3-1.16.37-2,1-3,0l1-5c1-2,3.66-.46,4,0Z"/>
        <g>
          <path class="cls-19" d="M220.21,261.56c0-2,0-5-1-6s-1.79-2.03-3-1c-.85.72-1.85,4.6-2,7-.05.8.36,3.41,1.05,3.95,1.97,1.52,3.28,1.28,3.96.21,1.99-3.16.99-2.77.99-4.16Z"/>
          <path class="cls-37" d="M220.76,260.76c-.22-2.79-.45-4.83-1.55-5.2-3-1-1,3-4,5-1.18.78-.56,3.32,0,4,3.39,4.13,5.76-1.04,5.55-3.8Z"/>
        </g>
        <g>
          <path d="M91.95,196.38c-.32-.04-.57-.26-.4-.54,1.23-1.98,4.66-7.32,6.9-8.78s9.41-4.96,14.55-3.99c4.03.76,4.14,4.49,4.17,6.11,0,.03-.02.06-.05.08-2.65,1.53-4.4.39-8.93.03-1.75-.14-3.24-.01-4.87.46-2.57.74-4.87,2.4-7.04,4.87-.66.75-2.7,1.96-4.34,1.76Z"/>
          <path d="M192.09,189.21c.11.55,2.3,3.22,2.88,5.4l-1.08,1.08c-14.83-10.29-26.1-.3-29.16-7.2,2.55-2.21,3.17-11.87,27.36.72Z"/>
        </g>
        <g>
          <path class="cls-31" d="M151.06,245.91c1.79,8-20.24,11.31-20.88,2.16,5.6,5.57,14.97,2.25,20.88-2.16Z"/>
          <g>
            <path class="cls-20" d="M169.42,252.39c2.64.26,5.03,1.58,6.12,3.96-8.51.6-12.2,25.11-29.16,27.72-25.18,3.88-14.91-25.59-27.72-19.8.7-9.31,39.85-.3,54.01-8.64l-3.24-3.24Z"/>
            <path class="cls-28" d="M164.38,261.03c4.44-.62-4.85,8.34-6.48,9.36-9.07,5.7-30.73,7.42-30.24-4.32,15.16,3.57,34.64-4.75,36.73-5.04Z"/>
          </g>
          <path class="cls-21" d="M134.85,242.31c2.21,1.67,5.3,2.24,5.4,2.52,1.58,4.52-6.69,4.93-5.4-2.52Z"/>
        </g>
        <g>
          <path class="cls-36" d="M131.36,215.6c0,15.74-15.3,27-28,27s-19-10.26-19-26,9.3-22,22-22,25,5.26,25,21Z"/>
          <path class="cls-36" d="M210.36,216.78c0,22.81-17.9,29.81-32.77,29.81s-22.23-11.33-22.23-28.71c0-20.29,10.88-24.29,25.74-24.29,19.26,0,29.26,5.81,29.26,23.19Z"/>
          <g>
            <path d="M215.36,225.6c4.16-9.68-4.33-20.72-5.73-23.8-2.17-4.77-6.05-8.24-9.27-9.2-2-.6-6-1-13-1-6,0-29-3-34.5,13.71-7.21-3.06-12.58-2.59-20-1-1.5-2.71-5.52-11.66-20.5-12.71-1.93-.13-9.16-.71-16,1-8,2-7.86,2.86-10,5-2.22,2.22-4.6,9.78-5,18-.35,7.04,2,17,3,19,.63,1.26,3,6,5.75,7.46,8.64,4.97,15.01,4.96,21.25,4.54,15-1,26.35-18.47,26-32.79,21.23-1.93,7.52,3.43,18.25,22.75,2.56,4.62,9.75,11.04,16.75,13.04,4.9,1.4,14.82,1.78,23-2,13-6,17.7-16.64,20-22ZM129.11,218.31c-.26,7.54-3.33,13.47-8.14,17.34-6.18,4.97-15.23,6.52-24.86,3.66-5.75-1.71-7.78-6.29-8.75-8.71-4-10,0-24,1-27,1.92-5.77,10.39-7.67,16-8,8.61-.51,17.34.25,21.75,8.71,2.09,4,3.16,9.45,3,14ZM162.11,236.55c-3.52-4.73-5.36-13.94-5.5-19.75-.37-15.93,5.18-19.09,20-20.5,5.57-.53,11.46-.87,17,0,.81.13,2.43.35,3,.5,2.12.56,4.25,1.34,5.79,2.84.47.46,4.36,5.98,5.96,16.95.49,3.39,0,8-1.72,12.65-.01.02-.02.03-.04.05-8.92,20.35-36.11,18.5-44.5,7.25Z"/>
            <path class="cls-55" d="M229.08,210.82c-.51-.71-12.85-7.97-15.03-8.89-2.45-1.04-4.78-2.3-5.2-1.97.57,2.38,7.75,12.97,7.56,18.78-.03.91,1.94,1.11,1.94,1.11l.1-.78c9.11.38,12.15-1.51,15.04.62-.21-1.64-3.59-7.73-4.4-8.87Z"/>
            <g>
              <path class="cls-6" d="M82.67,206.33l-10,4.5c-.53-1.11-2.64-9.66-1.25-10.5,22.79-3.44,17.71-10.26,11.25,6Z"/>
              <path d="M82.67,206.33q-.62,5-1.25,10c-3.24-2.09-6.93-1.68-8.75-5.5l10-4.5Z"/>
            </g>
            <path d="M227.6,226.25c.37-.18,4.84-5.6,5.88-6.56-2.73-2.01-5.98-.95-13.59-.61-9.56-.34-10.25-3.54-10.25-3.54l.63,3.1c-.08.54.19,2.49.46,4.47l4.41,2.9c3.7-3.78,5.28-4.79,9.33-3.29,2.07,1.2,2.74,2.94,3.13,3.54Z"/>
          </g>
        </g>
      </g>
      <path class="cls-61" d="M97.64,468.11c-.35,5.54,4,1.29,6.97,2.99,2.08-.2,4-.8,6.23-.5,19.68,7.81,20.55,5.56-1.99,6.48,6.68,12.96,16.66,7.1,21.92,7.47.9.06,10.31,3.62,17.68,1.99,5.34-5.69,3.82-10.26,3.99-17.43-.56-.26-9.9-7.09-8.97-7.47-.8,0-3.78-1-3.99-1-24.59-.01-26.22,3.96-41.84,7.47Z"/>
      <path class="cls-38" d="M64.26,473.1c2.67.25,4.07.54,3.49-.5-.84-.18-3.49-.18-3.49.5Z"/>
      <g>
        <path class="cls-32" d="M46.83,392.4c-.87-.03-1.6.8-2.99.5-3.72,4.13-5.04,9.92-7.97,14.45,10.16,2.62,13.37,9.58,14.94,10.96,6.71,5.89,10.67,8.34,19.68,10.46,5.95,1.4,11.4-.07,10.21,2.99,7.66-.31,15.28-.84,22.91-1.49.83-3.61,8.07-3.54,12.45-6.48-.85-.63-2.81-2.98-3.49-3.49-.14-.11-2.54-.73-2.99-1.99-20.78,12.47-66.61,6.35-60.27-24.91-.13-.04-.21-.92-2.49-1Z"/>
        <path class="cls-32" d="M68.74,355.53c-.09.09.18.19-1.49,1.99,2.9,1.49,12.26,7.78,13.45,9.46,1.9,1.31,4.24-5.72,7.47-8.72-.64-.46-1.01-1.15-1.49-1.74-.39-.48-.55-.6-1-1-.42-.37-7.58-4.78-9.46-5.98-.56,1.22-3.66,4.13-4.73,4.98-2.54,2.01-2.63.9-2.74,1Z"/>
        <path class="cls-2" d="M68.74,355.53c.11-.1.2,1.01,2.74-1,1.07-.85,4.17-3.76,4.73-4.98-4.69-2.97-8.78-8.43-7.47,5.98Z"/>
        <g>
          <path class="cls-46" d="M183.32,429.76c-11.46-.17-34.16,2.67-48.32,3.49-29.44,1.7-59.18,3.88-88.67,3.99-26.02.1-28.09-3.32-35.87-3.99-.15-.01-2.62.37-2.99.5q-.25,7.97-.5,15.94c.89-.23,3.96,1.15,5.48,1.49.92.21,1.92.69,3.49,1,.74.15,2.83.97,2.99,1,2.53.43,5.4.75,7.97,1,32.73,3.11,128.88-5.75,169.12-5.98l1.74-4.98c-5.93-9.48.95-13.22-14.45-13.45Z"/>
          <path class="cls-12" d="M26.9,454.17c.18,1.04-.36,5.05.25,5.48.56.4,11.89,1.32,13.7,1.49,8.43.79,16.95.63,25.41.5,13.29-.21,26.53-1.98,39.85-1.49,12.24-4.93,16.33-8.49,30.39-1.99,14.21-1.96,28.58-2.16,42.84-3.49.99-.09.95,0,1,0,8.14-.78,16.37-1.93,24.41-3.49-.34-.45-.65-1.04-1-1.49-2.28-2.98-5.74-6.1-5.98-6.48l-1.74,4.98c-40.24.23-136.38,9.09-169.12,5.98Z"/>
        </g>
        <path class="cls-18" d="M103.61,430.26c-7.64.66-15.25,1.18-22.91,1.49-9.77.4-19.76,1.25-29.39-.5-.91,2.35-3.67,3.89-4.98,5.98,29.49-.11,59.23-2.28,88.67-3.99-4.56-1.5-8.2-2.61-12.45-4.98-6.29.71-12.63,1.45-18.93,1.99Z"/>
        <path class="cls-32" d="M51.31,431.25c9.63,1.75,19.62.9,29.39.5,1.19-3.06-4.26-1.59-10.21-2.99-9-2.12-12.96-4.57-19.68-10.46,1.36,3.79,1.96,9.16.5,12.95Z"/>
        <g>
          <path class="cls-30" d="M35.87,407.34c-1.69,2.62-4.34,4.93-5.48,7.97l3.99.5c-.14-.09.82-1.09-2.49-1.25-.8-1.43,8.56-2.1,12.45,4.48,7.64,12.91-8.77,16.57-18.18,14.2-.05,4.23-10.99.14-14.2-.75q3.49-3.11,6.97-6.23s.17-.68-1-.5c-2.62,2.36-5.25,4.72-7.47,7.47,7.78.67,9.85,4.08,35.87,3.99,1.31-2.09,4.07-3.62,4.98-5.98,1.47-3.79.86-9.16-.5-12.95-1.57-1.38-4.78-8.34-14.94-10.96Z"/>
          <path class="cls-30" d="M34.37,415.81c12.7,7.72,3.67,15.86-8.22,13.95-2.43-.39-5.04-2.34-7.22-3.49q-3.49,3.11-6.97,6.23c3.2.88,14.15,4.98,14.2.75,9.42,2.37,25.82-1.29,18.18-14.2-3.9-6.58-13.26-5.91-12.45-4.48,3.31.16,2.35,1.16,2.49,1.25Z"/>
          <g>
            <path class="cls-45" d="M30.39,415.31c-2.42,2.91-6.26,4.52-8.97,6.97-1.16,1.05-2.31,2.43-3.49,3.49,1.16-.18.95.47,1,.5,2.18,1.15,4.79,3.1,7.22,3.49,11.89,1.91,20.92-6.23,8.22-13.95l-3.99-.5Z"/>
            <path class="cls-26" d="M31.13,418.3c-7.37.18-7.16,11.35,2.99,8.97,6.01-1.41,2.5-9.1-2.99-8.97Z"/>
          </g>
        </g>
        <path class="cls-43" d="M46.83,392.4c2.28.07,2.36.96,2.49,1,3.68,1.08,13.69,6.52,16.44,8.97,1.92,1.65,3.23-3.87,4.98-5.73,7.04-7.49,16.42-5.09,12.95-8.22-6.59-3.05-9.47-4.8-17.19-5.98-1.9-1.72-3.19-3.98-4.73-5.98-.51-.66-2.02-2.2-2.99-3.49-1.46,3.17-1.8,6.64-3.49,9.71-1.38,2.52-6.46,7.03-8.47,9.71Z"/>
        <path class="cls-43" d="M109.59,418.3c.45,1.26,2.84,1.89,2.99,1.99,6.62.65,19.59,3.09,25.41,2.49,1.19-2.95.61-8.87,1.49-11.21,1.07-2.83,7.96-4.62,2.99-5.23-12.06,2.81-11.38.5-13.95-2.49-.96-1.12-1.64-2.34-2.49-3.49-.91-1.23-1.84-2.46-2.99-3.49.12,7.96-6.73,17.39-13.45,21.42Z"/>
        <path class="cls-32" d="M103.61,430.26c6.3-.54,12.64-1.28,18.93-1.99-1.13-.63-5.08-3.44-6.48-4.48-4.38,2.93-11.62,2.87-12.45,6.48Z"/>
        <g>
          <path class="cls-30" d="M43.84,392.9c1.39.3,2.12-.53,2.99-.5,2-2.69,7.09-7.19,8.47-9.71,1.68-3.08,2.03-6.55,3.49-9.71,3.79-8.22,8.4-9.28,15.44-3.49,3.4,2.79,4.43,5.67,4.73,5.48-.06-5.8,2.96-.91,2.74-5.48-.23-.53-.92-2.38-1-2.49-1.19-1.69-10.55-7.97-13.45-9.46-2.42,2.61-19.24,28.95-23.41,35.37Z"/>
          <path class="cls-24" d="M58.78,372.97c.97,1.28,2.48,2.83,2.99,3.49,8.11,5.14,15.85,3.82,12.45-6.97-7.04-5.79-11.66-4.73-15.44,3.49Z"/>
        </g>
        <path class="cls-32" d="M86.68,356.53c.48.59.85,1.28,1.49,1.74-3.24,3-5.57,10.03-7.47,8.72.08.11.77,1.96,1,2.49.73,1.7.76,2.28,1,3.99q5.98-5.73,11.96-11.46c-2.51-1.97-4.99-4.22-7.97-5.48Z"/>
        <path class="cls-32" d="M86.68,381.44c16.71-2.74,35.01,4.45,36.36,13.95,1.71-.02,2.69-4.28,3.49-5.98-4.24-2.85-14.79-12.53-19.93-16.94-2.16-.91-13.66,2.55-13.95,4.23-.18,1.07,2.33,1.73,1.25,3.24-2.72,0-7.45-.05-7.22,1.49Z"/>
        <path class="cls-32" d="M82.69,380.44c-.03.39-1.05,1.22-.25,2.49,1.23-1.04,2.72-1.25,4.23-1.49-.23-1.55,4.51-1.49,7.22-1.49,1.08-1.51-1.43-2.17-1.25-3.24.29-1.69,11.79-5.15,13.95-4.23-2.52-2.16-4.91-4.34-7.47-6.48-6.15,3.91-10.36,11.29-16.44,14.45Z"/>
        <path class="cls-18" d="M82.69,373.47c.38,2.73.22,4.32,0,6.97,6.08-3.16,10.29-10.53,16.44-14.45-1.5-1.25-2.88-2.73-4.48-3.99q-5.98,5.73-11.96,11.46Z"/>
        <path class="cls-13" d="M133.5,393.89l-7.47,6.48c.85,1.15,1.53,2.37,2.49,3.49q5.73-2.24,11.46-4.48c-1.73-1.53-3.46-3.23-4.98-4.98-.75-.57-1.43-.45-1.49-.5Z"/>
        <path class="cls-16" d="M126.53,389.41c-.8,1.7-1.78,5.96-3.49,5.98.07.48,0,1.01,0,1.49,1.15,1.03,2.08,2.25,2.99,3.49l7.47-6.48c-.4-.29-2.36-2.63-5.23-4.48-.27-.18-1.49.17-1.74,0Z"/>
        <g>
          <g>
            <path class="cls-30" d="M148.45,406.35c-5.87,3.52-7.3,16.24-9.71,16.94-.89.15-.7-.5-.75-.5-5.82.6-18.79-1.84-25.41-2.49.67.5,2.64,2.85,3.49,3.49,1.39,1.04,5.35,3.85,6.48,4.48,4.26,2.37,7.9,3.49,12.45,4.98,14.15-.82,36.86-3.66,48.32-3.49-4.51-4.13-10.35-6.32-15.44-9.46-6.21,1.82-6.3,2.04-4.98-2.99-4.94-3.24-9.51-7.07-13.95-10.96-.15.06-.38-.07-.5,0Z"/>
            <path class="cls-29" d="M167.87,420.29c-1.66-1.02-3.35-1.92-4.98-2.99-1.31,5.02-1.23,4.8,4.98,2.99Z"/>
            <path class="cls-26" d="M141.97,422.29c-1.24-1.14-2.05,1.34-2.74,1.49-4.73,1.07-13.39-1.75-15.44-1-2.19,3.41,8.59,4.83,11.46,4.98,4.18.23,21.17-1.02,22.67-4.48-2.58-.2-6.8-2.96-9.22-2.49-.74.14-9.12,9.04-6.72,1.49Z"/>
            <path class="cls-45" d="M141.97,422.29c-2.4,7.54,5.99-1.35,6.72-1.49,2.42-.47,6.64,2.29,9.22,2.49,2.07-4.82-6.96-9.61-10.46-9.71-1.02,2.14-5.12,7.58-5.48,8.72Z"/>
          </g>
          <path class="cls-12" d="M142.47,406.35c4.97.61-1.92,2.4-2.99,5.23-.88,2.34-.3,8.26-1.49,11.21.04,0-.14.65.75.5,2.42-.7,3.84-13.42,9.71-16.94-.7-1.29-1.9-2.08-2.99-2.99,2.35,3.62.68,2.13-2.99,2.99Z"/>
        </g>
        <path class="cls-30" d="M139.98,399.37q-5.73,2.24-11.46,4.48c2.56,2.99,1.89,5.3,13.95,2.49,3.67-.85,5.34.63,2.99-2.99-1.68-1.4-3.92-2.6-5.48-3.99Z"/>
        <g>
          <path class="cls-30" d="M74.22,369.48c3.39,10.79-4.35,12.11-12.45,6.97,1.55,2,2.83,4.26,4.73,5.98,7.72,1.17,10.59,2.92,17.19,5.98,4,1.86,4.72,2.86,4.98,2.99,1.11.56,1.87.5,2.99,1q-2.74-2.12-5.48-4.23c3.22-.84,6.35-2.68,6.72-2.74,6.43-.97,23.35,2.86,21.17,8.47,1.4,1.11,2.47.87,2.99,3.24,1.43,6.54-2.22,8.79-2.49,9.22-.55.86-.95.94-1,1-.21.26-.27,2.23-4.23,4.98-3.22,2.24-15.62,6.57-19.43,6.97-10.16,1.07-35.18-5.93-35.62-17.93-.01-.4-1.51-3.25.25-3.49l13.7,9.96c.1,0-.29.76,1.99.5.02-.33-.04-.68,0-1-1.41-.26-3.86-4.43-4.48-4.98-2.75-2.44-12.76-7.88-16.44-8.97-6.34,31.26,39.5,37.38,60.27,24.91,6.72-4.03,13.57-13.46,13.45-21.42,0-.49.07-1.02,0-1.49-1.36-9.49-19.65-16.69-36.36-13.95-1.51.25-3.01.46-4.23,1.49-.8-1.27.22-2.1.25-2.49.22-2.65.38-4.25,0-6.97-.24-1.71-.27-2.29-1-3.99.22,4.57-2.8-.32-2.74,5.48-.31.19-1.33-2.69-4.73-5.48Z"/>
          <path class="cls-26" d="M113.58,407.34q-4.86-1.49-9.71-2.99c.12,2.66-2.14,7.27-4.48,8.47-11.21,5.73-18.04-6.3-18.93-6.97-12.28-9.3-8.82,12.85,5.48,6.97-5.62,9.12-9.7-3.36-14.94.5-1.85-1.16-.85-3.01-.75-4.98-2.28.26-1.89-.49-1.99-.5-3.4-.16-9.78,3.62-13.95-6.48.43,12,25.46,19,35.62,17.93,3.81-.4,16.2-4.74,19.43-6.97,3.96-2.75,4.02-4.72,4.23-4.98Z"/>
          <path class="cls-26" d="M91.66,392.4c.64.28,2.68.16,2.99,1.25.31,1.09-3.26,5.26-2.24,5.73,7.21-3.47,14.97-1.02,4.48-9.96,5.87.88,12.27.59,17.19,4.48,2.18-5.61-14.74-9.44-21.17-8.47-.37.06-3.5,1.9-6.72,2.74q2.74,2.12,5.48,4.23Z"/>
          <path class="cls-26" d="M114.57,406.35c.28-.43,3.92-2.68,2.49-9.22-.52-2.37-1.59-2.13-2.99-3.24-.36.92-5.47-1.74-8.72,0-1.08.58-1.34,4.02-1.25,4.23,1.24,2.8,14.62.72,10.46,8.22Z"/>
          <path class="cls-12" d="M83.69,388.41c3.47,3.13-5.92.73-12.95,8.22-1.75,1.86-3.06,7.38-4.98,5.73.63.56,3.07,4.72,4.48,4.98.62-4.44,1.7-5.93,4.48-8.97,3.09-3.37,4.15-3.84,8.47-5.48,1.79-.68,3.55-1.34,5.48-1.49-.26-.13-.98-1.13-4.98-2.99Z"/>
          <path class="cls-45" d="M54.3,401.36c4.17,10.09,10.55,6.31,13.95,6.48l-13.7-9.96c-1.76.24-.26,3.09-.25,3.49Z"/>
          <path class="cls-26" d="M74.72,398.37c6.48,3.45,23.01.55,8.47-5.48-4.32,1.64-5.38,2.11-8.47,5.48Z"/>
          <g>
            <path class="cls-45" d="M91.66,392.4c-1.12-.49-1.88-.43-2.99-1-1.93.15-3.69.82-5.48,1.49,14.54,6.03-1.99,8.93-8.47,5.48-2.78,3.04-3.86,4.52-4.48,8.97-.04.32.02.67,0,1-.1,1.97-1.11,3.82.75,4.98,5.25-3.86,9.33,8.62,14.94-.5-14.3,5.88-17.76-16.27-5.48-6.97.89.67,7.72,12.7,18.93,6.97,2.34-1.2,4.6-5.81,4.48-8.47q4.86,1.49,9.71,2.99c.04-.05.44-.14,1-1,4.16-7.5-9.22-5.42-10.46-8.22-.1-.22.16-3.65,1.25-4.23,3.25-1.74,8.36.92,8.72,0-4.92-3.89-11.32-3.61-17.19-4.48,10.49,8.94,2.73,6.49-4.48,9.96-1.01-.47,2.55-4.64,2.24-5.73-.31-1.09-2.34-.96-2.99-1.25Z"/>
            <path class="cls-26" d="M96.89,403.36c-3.71-.26-8.96,3.98-4.48,6.97,6.71,4.49,12.76-6.4,4.48-6.97Z"/>
          </g>
        </g>
      </g>
      <path class="cls-42" d="M148.45,486.55c5.79-1.28,8.67-10.68,8.97-15.94-1.71-.25-3.39-.74-4.98-1.49-.17,7.18,1.36,11.74-3.99,17.43Z"/>
      <g>
        <g>
          <g>
            <path class="cls-7" d="M216.92,117.33c.74-6.31,1.04-12.7,2.22-18.95-2.04-.99-4.63-3.25-6.79-4.24,2.42,14.67-5.28,22.44,4.57,23.2Z"/>
            <path class="cls-54" d="M124.37,106.17c1.71,1.73,3.63,5.9,4.13,8.21,2.5-1.81,6.34-1.58,9.16-.27,9.73,4.53-.58,16.95,10.73,15.24,1.58-7.06,11.2-11.11,17.75-10.52,3.63.32,8.18,4,9.26,3.06-4.04-13.3-6.7-26.96-6.76-40.91-1.33-.12-2.52-.36-3.9-.44-11.8-.7-23.47.13-35.26.48-2.13.91-5.64,21.7-5.09,25.15Z"/>
          </g>
          <g>
            <path class="cls-7" d="M98.33,70.82c6.13,4.62-14.6,1.37-23.3,1.24,6.22,8.6,14.19,8.33,23.62,9.86,3.07.5,8.3.06,11.41.78,5.8,1.34,10.69,5.01.69,4.42-.69-.04-6.68-2-12.02-2.42-3.83-.31-6.74-.68-10.55.31,17.35,15.64,20.31,10.15,23.92,10.41.13,0,.9.74.87,1.09,2.73-.77,5.32-2.37,8.26-2.47.08-1.07,1.21-9.82,1.36-10.32.74-2.39,2.83-.73,2.71-2.3-4.74-2.41-9.71-4.53-14.64-6.51-4.85-1.96-11.06-3.55-12.34-4.08Z"/>
            <path class="cls-54" d="M73.84,31.54c-16.2,6.82-21.34,28.51-15.38,43.79q8-1.9,16-3.8c-6.86-10.78-4.03-18.41-1.42-29.4.37-1.54.55-.84,1.61-1.99-.77-5.81,2.62-10.25-.81-8.59Z"/>
            <path class="cls-54" d="M116.43,6.4c-18.57,1.61-35.02,6.47-42.59,25.14,3.43-1.67.04,2.77.81,8.59-1.06,1.15-1.24.45-1.61,1.99.49,5.26-.36,9.31,1.53,14.4,1.86-4.04.39-8.34,1.3-12.54,1.74-8.03,22.97-28.94,32.55-26.79,1.78-4.1,5.76-7.74,9.13-10.55l-1.12-.24Z"/>
            <path class="cls-7" d="M212.35,94.13c2.17.99,4.75,3.26,6.79,4.24.39.19.77.35,1.13.52,4.51.3,8.95,1.59,13.4,2.38,20.63-7.16,24.6-11.67,24-34.04-5.21-3.79,2.19,4.19-5.13,14.32-8.73,12.08-22.45,2.83-40.19,12.57Z"/>
            <path class="cls-53" d="M101.93,99.05c2.77-.33,8.12-1.73,11.04-2.55.04-.34-.73-1.08-.87-1.09-3.61-.26-6.57,5.23-23.92-10.41-13.95,3.63,1.51,11.74,8.42,12.53,4.99.57,11.17-2.28,5.32,1.51Z"/>
            <path class="cls-53" d="M112.64,66.51c4.77,4.81,9.86,9.18,14.04,14.59,18.42-6.14,9.8-9.99-.25-17.77-9.75-7.55-14.88-9.83-20.44-24.4-.92.49,3.01,13.51-2.55,17.02,1.65,4.98,5.88,7.21,9.2,10.56Z"/>
            <path class="cls-7" d="M189.28,46.48c-9.26,10.78-21.06,19.52-24.55,34.06,1.38.08,2.58.32,3.9.44,2.82.26,4.43.43,7.25.9l8.03-10.24c-.3-.23-1.63-2.63-1.76-3.28-.38-1.91,6.1-16.37,7.76-19.4,1.53-2.78,3.56-2.65,2.1-4.23-.12.1-1.98,1.21-2.73,1.75Z"/>
            <path class="cls-53" d="M192,44.73c1.47,1.58-.57,1.45-2.1,4.23-1.66,3.02-8.15,17.49-7.76,19.4,20.75-12.78,22.44-21.28,17.27-45.51,1.4,8.03-1.04,16.56-7.41,21.89Z"/>
            <path class="cls-53" d="M74.46,71.52s.12-.09.57.54c8.7.13,29.43,3.38,23.3-1.24-7.12-2.94-21.02-6.96-23.75-14.3-1.9-5.09-1.04-9.14-1.53-14.4-2.61,11-5.44,18.63,1.42,29.4Z"/>
            <g>
              <path class="cls-7" d="M149.38,49.87c.7-.06.72.86.6,1.37-.52,2.21-7.27,11.48-5.34,26.27,1.06.75,9.27,1.19,9.75,1.1,1.51-.29,1.25-1.64,1.34-1.71-1.78-10.95-1.71-21.72-.96-32.75-1.85,1.84-3.55,3.94-5.39,5.71Z"/>
              <path class="cls-53" d="M154.76,44.16c-.75,11.03-.82,21.8.96,32.75,5.03-3.65,4.36-10.8,7.31-15.77q-1.71-10.92-3.42-21.84c-.67-.6-4.41,4.42-4.86,4.87Z"/>
            </g>
            <path class="cls-7" d="M187.25,72.09q-1.78,5.61-3.56,11.22c2.82.74,6.65,2.64,9.55,3.61q6.71-7.98,13.42-15.95c-5.58-.26-12.57-.49-18.06-.02-.23.02-.65,1.05-1.36,1.15Z"/>
            <g>
              <path class="cls-22" d="M118.68,7.44c-4.45,2.58-7.25,6.8-9.11,11.38,9.41-11.46,24.17-11.22,37.3-6.65,9.9-7.2,15.73-8.96,27.18-10.8,1.62-.26,3.3-.81,4.97-.98-10.69-1.12-23.2-.04-32.32,6.23-8.61-3.7-19.83-3.94-28.03.83Z"/>
              <g>
                <path class="cls-54" d="M109.57,18.82c-1.96,4.83-2.67,9.06-2.91,14.25-.64-5.53-.49-10.72,1.75-15.89-9.57-2.15-30.8,18.76-32.55,26.79-.91,4.2.56,8.5-1.3,12.54,2.74,7.34,16.63,11.36,23.75,14.3,1.28.53,7.5,2.13,12.34,4.08l1.98-8.39c-3.32-3.35-7.55-5.58-9.2-10.56,5.57-3.51,1.63-16.53,2.55-17.02,5.56,14.57,10.69,16.85,20.44,24.4,9.5.96,16.61-7.33,22.94-13.45,1.84-1.78,3.54-3.87,5.39-5.71.44-.44,4.18-5.46,4.86-4.87q1.71,10.92,3.42,21.84c-.2,2.93,5.38-2.72,8.47-4.69,5.36-3.42,16.41-9.01,17.76-9.97.75-.53,2.6-1.64,2.73-1.75,6.37-5.33,8.81-13.86,7.41-21.89,5.17,24.23,3.47,32.73-17.27,45.51.13.65,1.47,3.05,1.76,3.28,2.43,1.9,2.4.59,3.35.46.71-.1,1.12-1.13,1.36-1.15,5.48-.47,12.47-.24,18.06.02.55.03,4.54,2.89,10.6,1.35,10.09-2.55,10.44-26.64-12.47-27.13,4.36-13.45,2.36-28.72-12.37-33.25-2.47-4.19-5.48-6.99-9.45-9.72-3.16-.16-5.61.23-8.6.25-.37,0-.32-.68-.31-1.1-11.45,1.84-17.28,3.6-27.18,10.8-13.14-4.57-27.89-4.8-37.3,6.65Z"/>
                <path class="cls-54" d="M116.43,6.4l1.12.24c-3.38,2.81-7.36,6.45-9.13,10.55-2.24,5.17-2.4,10.35-1.75,15.89.24-5.19.96-9.42,2.91-14.25,1.86-4.58,4.66-8.8,9.11-11.38-2.24-4.31-2.05-1.06-2.25-1.04Z"/>
                <path class="cls-8" d="M140.63,26.24c-3.52-.36-16.02,4.49-17.3,6.9-4.34,8.14,18.78,8.83,17.3-6.9Z"/>
              </g>
            </g>
            <g>
              <path class="cls-48" d="M265.17,57.85c-5.38-6.85-14.82-11.91-23.6-9.03-1.13-7.27-6.44-14.03-13.8-15.71-2.13-2.11-.42-7.55-4.87-14.58-8.05-12.68-26.28-15.63-39.93-16.33,3.97,2.73,6.98,5.53,9.45,9.72,14.73,4.53,16.73,19.8,12.37,33.25,22.9.49,22.55,24.58,12.47,27.13-6.06,1.53-10.04-1.33-10.6-1.35q-6.71,7.98-13.42,15.95c-2.9-.97-6.73-2.87-9.55-3.61q1.78-5.61,3.56-11.22c-.95.13-.91,1.45-3.35-.46q-4.02,5.12-8.03,10.24c-2.82-.47-4.43-.64-7.25-.9.06,13.95,2.72,27.62,6.76,40.91,11.95-8.19,16.87.91,18.92,1.11,9.71-13.7,17.92-5.18,22.09-4.54-.04-.49.46-.57.52-1.13-9.85-.76-2.15-8.52-4.57-23.2,17.74-9.74,31.45-.5,40.19-12.57,7.33-10.13-.07-18.11,5.13-14.32,9.92,7.22,6.97,25.7-3.77,32.33-9.1,5.62-12.3,3.13-20.23,1.71-4.45-.8-8.89-2.09-13.4-2.38.26.13,1.72,1.87,4.82,3.19,36.1,15.41,58.66-20.56,40.09-44.24ZM243.66,82.1c-8.26,4.97-13.33,2.72-18.25,2.76-7.09.06-7.08-.43-15.31,8.23-3.01-1.4-6.45-2.38-9.55-3.61,6.19-12.82,8.22-10.25,15.2-12.11,5.01-1.34,8.44-.59,14.86-4.88,2.92-1.95,4.09-3.37,5.93-6.29,1.98-3.14,3.97-8.17,4.65-11.8,2.3,2.33,11.41,8.26,11.98,10.48,1.56,6.08-4.49,14.21-9.49,17.22Z"/>
              <path class="cls-48" d="M189.28,46.48c-1.35.96-12.4,6.54-17.76,9.97-3.09,1.97-8.67,7.63-8.47,4.69-2.96,4.97-2.28,12.13-7.31,15.77-.09.06.17,1.41-1.34,1.71-.48.09-8.69-.35-9.75-1.1-1.93-14.79,4.82-24.06,5.34-26.27.12-.51.11-1.43-.6-1.37-6.32,6.12-13.44,14.41-22.94,13.45,10.04,7.78,18.66,11.63.25,17.77-4.18-5.4-9.27-9.77-14.04-14.59q-.99,4.2-1.98,8.39c4.93,1.99,9.89,4.11,14.64,6.51.12,1.57-1.97-.08-2.71,2.3-.15.5-1.28,9.25-1.36,10.32-.23,3.06.69,6.83.29,9.99.16.08,2.72,2.01,2.84,2.14-.54-3.45,2.96-24.24,5.09-25.15,11.79-.36,23.47-1.19,35.26-.48,3.49-14.54,15.3-23.28,24.55-34.06Z"/>
              <path class="cls-48" d="M96.61,97.54c-6.92-.79-22.38-8.9-8.42-12.53,3.81-.99,6.72-.62,10.55-.31q-.04-1.39-.08-2.78c-9.43-1.53-17.4-1.26-23.62-9.86-.45-.63-.55-.51-.57-.54q-8,1.9-16,3.8c6.98,17.9,25.31,25.86,43.48,23.72,5.85-3.79-.34-.94-5.32-1.51Z"/>
            </g>
            <path class="cls-7" d="M230.6,72.48c-6.42,4.29-9.85,3.54-14.86,4.88-6.98,1.86-9-.71-15.2,12.11,3.1,1.23,6.54,2.21,9.55,3.61,8.24-8.66,8.22-8.17,15.31-8.23-1.29-2.32,13.54-2.98,17.58-6.63,4.57-4.13-2.29-10.32-6.47-12.03-1.84,2.91-3.01,4.33-5.93,6.29Z"/>
            <path class="cls-53" d="M233.67,101.28c7.92,1.42,11.13,3.92,20.23-1.71,10.74-6.63,13.69-25.11,3.77-32.33.6,22.37-3.37,26.88-24,34.04Z"/>
            <path class="cls-53" d="M241.18,54.39c-.68,3.64-2.67,8.66-4.65,11.8,4.18,1.71,11.03,7.9,6.47,12.03q.33,1.93.67,3.87c5.01-3.02,11.05-11.14,9.49-17.22-.57-2.22-9.68-8.16-11.98-10.48Z"/>
            <path class="cls-53" d="M225.41,84.86c4.92-.04,9.99,2.21,18.25-2.76q-.33-1.93-.67-3.87c-4.04,3.65-18.87,4.31-17.58,6.63Z"/>
            <path class="cls-27" d="M98.65,81.92q.04,1.39.08,2.78c5.34.43,11.33,2.38,12.02,2.42,10,.58,5.11-3.09-.69-4.42-3.11-.72-8.34-.28-11.41-.78Z"/>
          </g>
        </g>
        <g>
          <path class="cls-60" d="M155.87,145.38c7.49-1.66,14.65-4,21.76-7.15,8.77-3.88,17.41-8.09,26.45-11.34,4.55-1.64,9.18-3,13.95-3.87.57-.1,1.14-.21,1.71-.31-4.63-.46-12.99-1.04-19.19-4.9-2.85.86-3.18,5.48-6.24,5.18-2.05-.2-6.97-9.3-18.92-1.11-1.08.94-5.63-2.74-9.26-3.06-6.54-.58-16.17,3.47-17.75,10.52-.37,1.65.63,10.3-1.2,15.87.76.06,1.35.3,1.82.62,2.29-.07,4.58-.22,6.86-.46Z"/>
          <path class="cls-60" d="M132.49,136.76c-.31,1.88-.7,3.41-1.14,4.69,1.59.86,3.19,1.7,4.82,2.47,2.63.79,5.29,1.44,7.99,1.95,1.62.04,3.24.02,4.85-.03-.48-.32-1.06-.56-1.82-.62,1.83-5.57.83-14.22,1.2-15.87-11.31,1.71-1-10.71-10.73-15.24-2.82-1.31-6.66-1.54-9.16.27.01.07-1.86-.2-.8,1.13,13.91-.93,16.64,12.99,4.79,21.25Z"/>
        </g>
      </g>
    </g>
  </g>
</svg>