<?xml version="1.0" encoding="UTF-8"?>
<svg id="Layer_2" data-name="Layer 2" xmlns="http://www.w3.org/2000/svg" viewBox="0 0 306.35 486.42"><defs>
    <style>
      .cls-1 {
        fill: none;
      }

      .cls-2 {
        fill: #c45f41;
      }

      .cls-3 {
        fill: #185651;
      }

      .cls-4 {
        fill: #232323;
      }

      .cls-5 {
        fill: #3a310b;
      }

      .cls-6 {
        fill: #8e3226;
      }

      .cls-7 {
        fill: #e4e4ea;
      }

      .cls-8 {
        fill: #f7b750;
      }

      .cls-9 {
        fill: #a34737;
      }

      .cls-10 {
        fill: #cf99ce;
      }

      .cls-11 {
        fill: #281a26;
      }

      .cls-12 {
        fill: #f0935d;
      }

      .cls-13 {
        fill: #bdeded;
      }

      .cls-14 {
        fill: #c12e4b;
      }

      .cls-15 {
        fill: #c35f41;
      }

      .cls-16 {
        fill: #ddcfe4;
      }

      .cls-17 {
        fill: #f8ae89;
      }

      .cls-18 {
        fill: #7f2c86;
      }

      .cls-19 {
        fill: #dcbdd8;
      }

      .cls-20 {
        fill: #a66bb7;
      }

      .cls-21 {
        fill: #7971a7;
      }

      .cls-22 {
        fill: #fbfbfc;
      }

      .cls-23 {
        fill: #cc5637;
      }

      .cls-24 {
        fill: #3d3d4b;
      }

      .cls-25 {
        fill: #c386c3;
      }

      .cls-26 {
        fill: #fcf8e9;
      }

      .cls-27 {
        opacity: .2;
      }

      .cls-27, .cls-28 {
        fill: #7aebe9;
      }

      .cls-29 {
        fill: #ac4a30;
      }

      .cls-30 {
        fill: #c9892d;
      }

      .cls-31 {
        fill: #e6794d;
      }

      .cls-32 {
        fill: #efd870;
      }

      .cls-33 {
        fill: #c392c2;
      }

      .cls-34 {
        fill: #3c4c4e;
      }

      .cls-35 {
        fill: #f3f0ed;
      }

      .cls-36 {
        fill: #661b6a;
      }

      .cls-37 {
        fill: #d7643c;
      }

      .cls-38 {
        fill: #bfcbb8;
      }

      .cls-39 {
        fill: #95409b;
      }

      .cls-40 {
        fill: #46ded9;
      }

      .cls-41 {
        fill: #e67a4d;
      }

      .cls-42 {
        fill: #353535;
      }

      .cls-43 {
        fill: #12141c;
      }

      .cls-44 {
        fill: #309c97;
      }

      .cls-45 {
        fill: #bb7ba0;
      }

      .cls-46 {
        fill: #320532;
      }

      .cls-47 {
        opacity: .1;
      }

      .cls-47, .cls-48 {
        fill: #1d121b;
      }
    </style>
  </defs>
  <g id="GAMES">
    <g>
      <g>
        <g>
          <g>
            <path class="cls-41" d="M111.76,225.89c-7.49.57-11.19.92-18.26,5-10.19,5.89-21.07,27.06-18.45,32.29,3.46,6.92,12.66,13.9,19.66,19.9,1.88,1.61,2.47-1.82,4.94-2.88,3.35-2.64,11.05-50.07,11.05-50.07l1.06-4.25Z"/>
            <path class="cls-15" d="M86.72,275.08s7,3,13.01-1c6.13-4.09-3,13.01-3,13.01,0,0-6.11-5.26-10-12Z"/>
          </g>
          <g>
            <path class="cls-39" d="M111.64,225.91c-7.49.57-11.19.92-18.26,5-10.19,5.89-19.39,22.52-18.26,28.26,2.51,12.66,21.47,27.93,21.47,27.93,0,0,1.59-4.59,2.94-6.88,3.35-2.64,11.05-50.07,11.05-50.07l1.06-4.25Z"/>
            <path class="cls-36" d="M94.73,257.78l6.91,17.46c.19.45-1.73,5.09-2.33,6.51l-2.71,5.35s2.03-22.58-1.86-29.32Z"/>
          </g>
          <path d="M54.72,188.76c-.06-.04-.72.02-.9-.45.52-.55.85.43.9.45Z"/>
        </g>
        <path class="cls-39" d="M76.24,251.25c-.11.32-.29.59-.39.9-4.59,14.3-4.01,24.65-3.88,31.86.38,20.24.91,89.07.91,89.07l36.74,1.17-8.71-87.21-24.22-36.8s-.36.71-.46,1.01Z"/>
        <path class="cls-36" d="M89.08,324.21c-4.32-11.41-2.49-49.13-2.49-49.13l31.53,35.26-4.62,28.65s-7.41-3.41-9.63-4.56c-2.36-1.22,4.83,1.84,4.83,1.84l-2.09,40.49s-32.94-21.76-33.84-30.19c-.23-2.18,20.41,3.88,20.41,3.88,0,0,4.3-4.01-4.11-26.24Z"/>
        <path class="cls-38" d="M186.23,468.28v2c-16.83,0-33.67,0-50.5,0l-1.5-3c17.19,1.8,34.75,2.58,52,1Z"/>
        <g>
          <path class="cls-45" d="M240.23,347.78c-.49,3.23-.18,6.74-1.5,7-.24-6.11-2.71-7.86-2.5-8.25.76-1.42,3.78,2.67,3.5-1.25h.5v2.5Z"/>
          <g>
            <path class="cls-36" d="M207.86,379.78c8.35,1.74,16.09,5.31,23.08,10.24-1.98-5.89-4.27-11.66-7.22-17.24-4.15-3.27-9.55-6.45-15.19-9.65-.17,3.98-.35,7.96-.52,11.95-.03.74-.05,1.47-.08,2.21.26.25.51.48.79.75-.27.05-.54.08-.82.12-.02.54-.03,1.09-.05,1.63Z"/>
            <path class="cls-36" d="M277.72,374.28c-4.66,15.46-24.61,18.75-37.75,12.5-5.17-2.46-8.54-7.6-12.75-11q2.25.5,4.5,1c1.22,1.73,3.6-4.38,4.25-4.5.3-.06,4.18,3.18,5,3.5,8.91,3.51,30.42,7.62,36.75-1.5Z"/>
            <path class="cls-36" d="M248.23,333.03q-11-3.12-22-6.25c-.1,3.24.07,6.5,0,9.75q-4.25-.25-8.5-.5c3.36-3.24,6.53-8.41,7.5-13l1,2.75c.18-9.36-.57-18.57-3.75-27.5-2.19.31,10.51,23.9-13.09,35.39,0,.96-.01,1.91-.02,2.87,7.21,1.18,13.36,4.6,21.11,6.72.53.14,2-2,9.25,1.52-1.6-5.28-25.07-8.87,8.5-11.75Z"/>
            <g>
              <path class="cls-39" d="M262.73,291.04c-4.49-16.75-5.27-36.66-17-50.5-9.2-10.86-19.05-10.52-27.25-11.72-3.85,6.23-8.36,12.06-13.53,17.78-1.24,1.37-2.51,2.68-3.81,3.95,2.43,6.82,3.71,14.09,4.03,21.25.13,2.8-.05,5.68-.49,8.58,3.03,17.4,4.72,34.96,4.7,52.62,0,.23,0,.46,0,.69,23.6-11.49,10.91-35.08,13.09-35.39,3.18,8.93,3.93,18.14,3.75,27.5,0,.33.01.67,0,1q11,3.12,22,6.25c-33.57,2.88-10.1,6.47-8.5,11.75.04.13-.01.33,0,.5h.5c1.39,1.2.02,2.38,0,2.5-.49,3.23-.18,6.74-1.5,7,.2,5.05-1.37,9.38-3,14-1,2.82-1.69,5.8-4,8,1.23,1.73,3.6-4.38,4.25-4.5.3-.06,4.18,3.18,5,3.5,8.91,3.51,30.42,7.62,36.75-1.5,2.07-16.83-2.89-28.59-17.5-37.25,4.19.1,14.15,8.65,16,11.5,2.46,3.79,1.67,11.17,3,5.25-1.47-12.72-12.44-47.61-16.5-62.75Z"/>
              <g>
                <path class="cls-18" d="M279.22,353.78c.62,5.36,1.58,16.07-1.5,20.5,2.07-16.83-2.89-28.59-17.5-37.25,4.19.1,14.15,8.65,16,11.5,2.46,3.79,1.67,11.17,3,5.25Z"/>
                <path class="cls-18" d="M235.98,335.28c7.16.98,13.01,1.04,19.75,3.75-5.65-.58-18.52-1.09-19.75-3.75Z"/>
                <path class="cls-36" d="M240.23,347.78v-2.5c1.39,1.2.02,2.38,0,2.5Z"/>
              </g>
            </g>
          </g>
        </g>
        <path class="cls-32" d="M184.2,333.04c.53.28,2.38-.03,2.5,0,1.47.35,2.91,1.19,4.5,1,.27,1.41.49.94.5,1,1.19,10.16-2.94,10.15-11.5,7,1.15-1.83,1.77-8.97,4-9Z"/>
        <g>
          <g>
            <path class="cls-8" d="M186.49,468c-17.25,1.58-91.19-26.61-87.03-9.82.25,1.01,4.19,17.73,8,21,7,6,43,8,67,7,14.33,0,54.02-11.14,55.03-16.18.97-4.82,1-6,2-12-14.1,5.2-30.06,8.63-45,10Z"/>
            <path class="cls-30" d="M159.79,486.42l-1.33-10.67s2.67,10.67,4,10.67h-2.67Z"/>
          </g>
          <path class="cls-31" d="M155.91,224.92c.71,3.53,2.55,6.76,4.23,9.87.53,2.76-4.38.74-7.75,1.41-6.76,1.35-7.99,7.91-3.52-3.52,1.12-2.87,2.56-5.54,3.52-8.46,3.02,1.74,2.48.94,3.52.7Z"/>
          <g>
            <path class="cls-39" d="M224.59,319.08s2.01-1.33,2-1c.79.22,24.08-24.13,27-32,.78-2.09,5-16,3.64-22.19-2.22-8.65-5.33-16.92-11.1-23.73-11.06-13.05-23.06-9.92-32-12.75-2.06,4.39-4.56,8.65-7.5,12.5-1.79,6.55-15.09,23.07-21.75,23.5-9.38.61-14.95-13.49-21.25-17.5.77,7.01-1.52,13.2-8,16.75.27,1.15,3.33-2.49,4,2.75,4.99-2.53-2.85,6.03-6.25,6.5-7.5,1.03-10.54-8.74-11.25-14.75-.29-2.47-.34-9.47,1-8.75-.4-5.91,2.16-10.9,5-16-.53.21.22-1.48-3,1.75-3.25,3.26-20.49,27.48-22.25,27.75-.29.04-5.13-2.48-5.25-2.75-1.4-3.12-.03-30.67-2.75-32.25-.73-.42-3.62.87-3.25-1-7.49.57-11.19.92-18.25,5-10.18,5.89-20.87,23.02-18.25,28.25,3.46,6.92,12.46,17.92,19.46,23.92,1.88,1.61,3.84-.93,4.94-2.87-3.33,7.68-9.15,19.78-7.94,29.87,1.37,11.43,6.94,17.95,11,21,2.73,2.05,9,4,9,4,0,0,5.05,5.22-1,15-2.44,3.95-9.95,14.22-18.96,37.33-4.86,19.13-7.79,38.14-11.15,57.75-.36,2.13-.61,4.94-1.02,7.02,14.74,9.85,37.8,12.91,55.16,14.73,17.19,1.8,34.75,2.58,52,1,14.94-1.36,30.9-4.79,45-10,4.67-1.72,10.18-4.03,14.5-6.5-2.17-15.61-5.7-30.88-10-46-3.23-11.34-6.45-22.5-12-33-7.44-5.87-5.13-31.09-3.95-43.02l4.42-10.3Z"/>
            <path class="cls-36" d="M220.59,323.08c.04.06.06.13.09.21-.01-.17-.04-.24-.09-.21Z"/>
            <path class="cls-36" d="M220.68,323.29c.02.22,0,.59-.03,1.11.11-.46.12-.84.03-1.11Z"/>
          </g>
          <path class="cls-36" d="M223.99,370.5c-4.87-6.97-4.71-26.63-3.53-39.53,2.34-3.03,4.3-6.79,5.03-10.22.97-3.58.43-15.82-2.75-24.75-1.58.23,4.64,12.67-.78,23.88-2.11,2.97-4.93,6.89-9.43,9.94-2.21,1.34-4.8,2.56-7.86,3.61-5.94,1.64-13.75,1.73-24.21-1.26.64.18,35.3,40.12,43,56,7.48,15.45,16.24,62.78,15,67,.46-.1,6.78-3.39,10-5,2-1-2.74-48.58-24.47-79.67Z"/>
          <path class="cls-36" d="M117.5,336.5c5,0,10-3,10-3-6,3-16.04,1.67-16.04,1.67,0,0,1.12,1.84,1,5-.12,3.34-1.54,8.12-3.96,12.33-4,6.95-7.14,12.93-9.58,17.88-2.76,4.78-4.86,10.17-6.12,13.6-.92,2.33-1.31,3.52-1.31,3.52-4.86,19.13-9.34,45.12-12.04,64.67,6.62,4.02,7,4,7,4,0,0-3.25-21.94,2.02-42.41,7.46-28.98,19.64-41.24,22.98-46.59,15-24,6.04-30.67,6.04-30.67Z"/>
          <path class="cls-36" d="M86.59,275.08s7,3,13-1c6.13-4.09-3,13-3,13,0,0-6.11-5.26-10-12Z"/>
          <path class="cls-16" d="M152.55,291.79c-3.13,1.02-3.92-4.65-1-5,2.63-.31,3.1,4.32,1,5"/>
          <path class="cls-16" d="M152.55,311.79c-3.13,1.02-3.92-4.65-1-5,2.63-.31,3.1,4.32,1,5"/>
          <g>
            <path class="cls-36" d="M152.62,225.41c-.68,2.07-1.7,3.96-2.5,6-1.83-.3-1.9.96-2,1-.53.21.22-1.48-3,1.75-3.25,3.26-20.49,27.48-22.25,27.75-.29.04-5.13-2.48-5.25-2.75-1.4-3.12-.03-30.67-2.75-32.25-.73-.42-3.62.87-3.25-1,2.03-.15,3.94.87,6,.5-.58,8.83-.24,18.16,6.75,24.5.41,0,3.62-3.92,4.25-4.5,6.77-6.24,12.8-13.26,19.5-19.5.93-.87,2.32-1.39,3-2.5.19.17,1.22.84,1.5,1Z"/>
            <path class="cls-36" d="M143.12,248.41c.06.91-.04,1.84,0,2.75.18.49,1.14.92,1.5,1.25-4.75,6.42,6.79,10.22,2.75,9.5-.51-.09-1.95-1.38-2.5-2,2.35,8.5,7.18,9.34,14.75,5.5,4.99-2.53-2.85,6.03-6.25,6.5-7.5,1.03-10.54-8.74-11.25-14.75-.29-2.47-.34-9.47,1-8.75Z"/>
            <g>
              <path class="cls-25" d="M195.63,209.42c2.5,7.39,10.09,15.33,18.49,17.99-2.06,4.39-4.56,8.65-7.5,12.5-3.73,4.89-16.44,18.28-22.75,17.5-5.61-.69-23.98-26.03-26.75-32.5,10.69-3.61,21.25-9.81,28.51-18.49-.28-2.07-1.61-5.95-2-8,5.71.57,8.95,9.11,12,11Z"/>
              <path class="cls-36" d="M157.12,224.91c2.77,6.47,21.14,31.81,26.75,32.5,6.31.78,19.02-12.61,22.75-17.5-1.79,6.55-15.09,23.07-21.75,23.5-9.38.61-16.73-11.55-21.25-17.5-1.99-2.61-2.26-3.47-2.99-5.61-.43-1.28-.48-1.79-1-3-1.09-2.53-1.4-4.18-1.51-4.39-1.19-2.2-2.49-4.5-3-7,.11-.03-.48-.16,2-1Z"/>
              <g>
                <path class="cls-20" d="M141.12,208.91c-1.42-.22-1.75,4.51-2.5,7-2.73,9.06-10.13,26.79-10.5,28.25-.16.62-.16,2.32.5,2.25-.63.58-3.84,4.5-4.25,4.5-6.99-6.34-7.33-15.67-6.75-24.5,6.55-3.95,11.23-9.94,15.5-16,2.87-4.07,4.54-9.14,8.5-12.5-.31,3.11-.95,8.1-.5,11Z"/>
                <path class="cls-25" d="M148.12,226.91c-6.7,6.24-12.73,13.26-19.5,19.5-.66.07-.66-1.63-.5-2.25.37-1.46,7.77-19.18,10.5-28.25l9.5,11Z"/>
                <path class="cls-10" d="M141.12,208.91c.63,4.03,3.64,6.92,6,10,.61.79,3.74,5.28,4,5.5-.68,1.11-2.07,1.63-3,2.5l-9.5-11c.75-2.49,1.08-7.22,2.5-7Z"/>
              </g>
            </g>
          </g>
          <g>
            <path class="cls-19" d="M163.63,246.29c.77,7.01-1.66,12.91-8.14,16.46.27,1.15,3.33-2.49,4,2.75-7.57,3.84-12.4,3-14.75-5.5.55.62,1.99,1.91,2.5,2,4.04.72-7.5-3.08-2.75-9.5,1.1.99,9.96,4.57,10.75,4,.98-.71-.66-3.37-.25-4.75.3-1.02,3.05-1.61,4-3,1.53-2.24.81-6.54,3-8.25.72,2.14,1.37,3.34,1.64,5.79Z"/>
            <path class="cls-19" d="M149.99,231.51c-3.17,8.11-2.29,3.46,2.5,2.5-5.47,4.24-3.9,6.84-3.25,13,5.58-11.84,6.28,4.99,7.25-7.25l4-2.75c.52,1.21,1.07,2.22,1.5,3.5-2.19,1.71-1.47,6.01-3,8.25-.95,1.39-3.7,1.98-4,3-.41,1.37,1.23,4.04.25,4.75-.79.57-9.65-3.01-10.75-4-.36-.33-1.32-.76-1.5-1.25-.04-.91.06-1.84,0-2.75-.4-5.91,2.16-10.9,5-16,.1-.04.17-1.3,2-1Z"/>
            <path class="cls-33" d="M160.49,237.01l-4,2.75c-.97,12.24-1.67-4.59-7.25,7.25-.65-6.16-2.22-8.75,3.25-13,2.39-.48,5.88.95,5.5-1,.11.21,1.41,1.47,2.5,4Z"/>
          </g>
          <path class="cls-36" d="M125,332.15l1.02,11.41c.76,8.48,8.17,14.78,16.65,14.17l22.34-1.61c4.07-.29,8.1.82,11.43,3.17,13.36,9.4,48.17,34.71,53.7,46.84,6.87,15.06-15.06-49.93-15.06-49.93,0,0-26.82-48.77-46.59-56.09-23.25-8.62-40.21,24.49-43.5,32.05Z"/>
        </g>
        <path class="cls-9" d="M236.25,369.32c-1,2.82-1.69,5.8-4,8q-2.25-.5-4.5-1c-1.21-.97-2.22-1.99-3.5-3-9.91-7.81-41.73-24.91-52.36-33.35.5-.44,17.14,6.9,17.61,6.85,15.12,8.47,30.78,15.78,46.75,22.5Z"/>
        <path class="cls-31" d="M204.75,336.32c9.91,1.32,16.26,2.91,25.75,5.5.53.14,2.11-2.39,9.75,3.5.04.13-.01.33,0,.5.28,3.92-2.74-.17-3.5,1.25-.21.39,2.26,2.14,2.5,8.25.2,5.05-1.37,9.38-3,14-15.97-6.72-31.63-14.03-46.75-22.5-.47.05-14.83-5.82-16.03-6.59.34-.31-.27-3.08-.18-3.22,8.56,3.15,19.65,7.98,18.46-2.18,4.32.57,8.68.92,13,1.5Z"/>
        <path class="cls-32" d="M184.85,332.75c.53.28,2.38-.03,2.5,0,1.47.35,2.91,1.19,4.5,1,.27,1.41.49.94.5,1,1.19,10.16-2.94,10.15-11.5,7,1.15-1.83,1.77-8.97,4-9Z"/>
        <path class="cls-36" d="M86.46,456.18s72.15-45.61,59.13-64.05c-3.32-4.7-2.28-19.22-25.56-25.85,0,0-45.61-17.85-44.17-6.38,1.16,9.22,7.36,77.53,9.07,93.33.23,2.09,1.52,2.96,1.52,2.96Z"/>
        <g>
          <rect class="cls-40" x="111.09" y="399.73" width="18.72" height="10.23" transform="translate(-176.2 104.17) rotate(-28.04)"/>
          <path class="cls-44" d="M63.36,400.03c-.28-.49-.57-.98-.83-1.48-.79-1.54-.35-2.98,1.15-3.83.89-.51,1.92-.82,2.55-1.73,1.05.16,1.75-.61,2.56-1.02,2.3-1.16,2.3-1.2,2.03-3.76-.6-5.79-1.33-11.56-2.75-17.22-1.8-7.17-4.5-14.01-7.79-20.61-2.85-5.72-6.28-11.1-9.91-16.37-2.87-4.17-5.87-8.24-9.02-12.19-.62-.78-.65-1.22.31-1.71,3.94-2.04,7.85-4.14,11.77-6.21,1.02,2.12,2.13,4.18,3.11,6.33,2.15,4.74,4.34,9.47,6.56,14.19,1.78,3.78,3.52,7.59,5.41,11.31,3.68,7.26,7.54,14.43,11.89,21.33,2.83,4.49,5.72,8.91,9.16,12.95.46.54.77.53,1.29.25,1.53-.84,3.07-1.67,4.63-2.46.89-.45.99-.77.17-1.48-1.59-1.38-3.12-2.84-4.57-4.37-3.39-3.57-6.41-7.45-9.36-11.4-3.32-4.45-6.18-9.18-8.94-13.97-3.64-6.32-6.73-12.92-9.53-19.66-1.09-2.64-2.07-5.32-3.05-8-.88-2.42-1.7-4.86-2.55-7.29,1.07-.58,2.15-1.16,3.22-1.74,1.02,2.22,1.61,4.58,2.37,6.89,1.17,3.56,2.58,7.02,3.98,10.5,2.26,5.58,4.72,11.07,7.8,16.24,2.27,3.81,4.63,7.56,7.32,11.13,4.01,5.31,8.58,10.02,13.52,14.41,1.79,1.59,3.65,3.09,5.58,4.52.67.5,1.14.48,1.76.11.57-.33,1.14-.68,1.75-.92,2.14-.87,4.4.68,4.21,2.87-15.27,8.14-30.54,16.28-45.8,24.42Z"/>
          <path class="cls-44" d="M5.81,276.33c.8-.26,1.54.1,2.16.44,1.04.57,2.16.62,3.26.85,1.36.28,2.1-.36,2.55-1.61.73-2.02.63-4.18,1.21-6.23.37-1.32.82-2.59,1.49-3.77.42-.73.35-1.02-.47-1.32-2.89-1.05-4.39-3.37-4.15-6.3.18-2.23,2.69-4.72,5.26-5.05,3.52-.45,7.44,2.7,6.42,6.96-.34,1.43,0,1.64,1.33,1.7,2.65.11,4.93,1.47,7.31,2.46.09.04.15.11.24.15,2.98,1.42,4.05.97,4.98-2.16.55-1.85.99-3.73,1.51-5.59.14-.49.36-.97.59-1.43.39-.76.78-1.49,1.82-1.55,1.1-.06,1.43.73,1.81,1.49,3.19,6.44,4.94,13.21,5.11,20.44.1,4.14-.41,8.26-.15,12.4.03.52.06,1.03.14,1.54.33,2.19.34,2.19,2.38,1.56,1.01-.31,1.71,0,2.22.93.59,1.09.14,1.93-.62,2.64-.48.44-1.1.73-1.81.71-6.36,3.39-12.73,6.78-19.09,10.19-.48.26-1.1.36-1.29,1.01-.95.34-1.69,1.16-2.87.97-.9-.15-1.58-.53-1.73-1.38-.14-.78.08-1.63.86-2.08.58-.33,1.06-.77,1.57-1.17,1.51-.19,2.62-1.24,3.95-1.81.91-.39.81-.97.2-1.5-1.06-.93-2.11-1.9-3.28-2.66-4.12-2.69-8.44-5.08-12.24-8.25-4.28-3.58-8.03-7.6-10.65-12.58ZM41.74,296.04c1.32-.28,1.76-1.24,1.39-2.75-.25-1-.11-2.06,0-3.09.53-4.7,1.58-9.33,1.65-14.11.08-5.63-1.65-10.78-3.62-15.91-.11-.29-.23-.67-.66-.62-.33.04-.43.33-.52.6-.75,2.23-1.58,4.44-2.21,6.71-.3,1.09-.43,2.2-.09,3.43.59,2.16,1.22,4.36,1.32,6.62.19,4.74.03,9.47-.25,14.2-.09,1.52-.1,3.09.29,4.6.26,1,.69,1.56,1.76.82.23-.16.5-.27.96-.52ZM19.35,259.51c1.13-.62,1.69-2.2,1.12-3.21-.66-1.18-2.31-1.63-3.51-.96-1.26.7-1.67,2.12-.97,3.34.76,1.31,1.94,1.6,3.36.83Z"/>
          <path class="cls-44" d="M68.55,427.37c-.17-.78.59-1.25.66-1.95.72-.07,1.35-.36,1.98-.7,9.28-4.96,18.57-9.9,27.86-14.85,9.33-4.97,18.65-9.95,27.97-14.93,1.01.11,2.06-.05,3.03.42,2.25,1.08,3.21,3.08,3.33,5.35.11,2.14-1.15,3.71-3.05,4.71-1.68.88-3.35,1.78-5.08,2.57,2.38-3.31.79-7.35-1.87-8.74-1.31-.68-2.3,0-3.31.45-1.64.72-3.18,1.65-4.76,2.5-1.39.74-1.4.95-.09,1.79,1.27.81,2.16,1.87,2.52,3.39.59,2.5-.37,4.93-2.6,6.13-10.08,5.39-20.17,10.75-30.25,16.12-.15-.1-.29-.29-.44-.3-4.05-.13-5.97-1.89-6.15-5.82-.05-1.17-.42-1.09-1.25-.64-2.81,1.53-5.65,3-8.48,4.5Z"/>
          <path class="cls-3" d="M127.02,394.93c-9.32,4.98-18.65,9.96-27.97,14.93-9.29,4.95-18.58,9.89-27.86,14.85-.63.34-1.26.63-1.98.7-3.13-1.59-5.09-4.17-6.91-7.16-3.04-5.01-2.09-12.06,2.05-16.09.6-.58.86-1.03-.15-1.41-.35-.13-.66-.36-.84-.72,15.27-8.14,30.54-16.28,45.81-24.42.48.72.22,1.45.05,2.18-.49.23-.88.61-1.36.88-1.41.77-3.02,1.23-4.18,2.44-3.23,1.12-6.06,3.03-9.08,4.56-1.49.78-2.98,1.54-4.47,2.33-4.25,2.26-8.5,4.53-12.76,6.79-1.46.77-2.67,1.75-3.74,3.09-5.64,7.02-2.64,15.81,3.16,20.48.7.56,1.19.5,1.88.13,11.16-5.97,22.32-11.92,33.49-17.88,2.73-1.46,5.46-2.93,8.19-4.39,2.25-1.19,4.63-2.16,6.64-3.79.23.83.17,1.66.03,2.49Z"/>
          <path class="cls-3" d="M60.88,309.88c-1.07.58-2.15,1.16-3.22,1.74-1.41.76-2.81,1.52-4.22,2.27-3.92,2.08-7.83,4.17-11.77,6.21-.96.5-.93.93-.31,1.71,3.15,3.96,6.14,8.02,9.02,12.19,3.63,5.27,7.06,10.65,9.91,16.37,3.29,6.6,5.99,13.44,7.79,20.61,1.42,5.66,2.15,11.43,2.75,17.22.27,2.56.27,2.6-2.03,3.76-.81.41-1.51,1.18-2.56,1.02-.44-3.69-.83-7.39-1.31-11.07-.64-4.91-1.96-9.65-3.41-14.38-1.7-5.56-4.15-10.8-6.74-15.95-1.56-3.09-3.33-6.11-5.23-9.03-1.74-2.68-3.47-5.36-5.29-7.99-2.68-3.86-5.58-7.55-8.44-11.27-.4-.52-.77-1.07-1.15-1.61.12-.55.61-.69,1.01-.9,7.77-4.14,15.54-8.28,23.31-12.42.4-.21.78-.56,1.31-.36.2.62.39,1.25.59,1.87Z"/>
          <path class="cls-44" d="M60.28,308c-.52-.21-.9.14-1.31.36-7.77,4.13-15.54,8.27-23.31,12.42-.4.22-.89.35-1.01.9-.88.45-1.76.91-2.64,1.34-1.67.81-3.82.1-4.74-1.55-.85-1.52-.21-3.7,1.38-4.65.73-.43,1.49-.81,2.24-1.21,1.04-.56,2.03-1.25,3.13-1.64,1.56-.55,1.88-1.76,1.9-3.1.02-1.29-.08-2.62-.37-3.87-.2-.85.06-1.28.69-1.6,2.14-1.08,4.13-2.46,6.45-3.15.5.5.98,1.02,1.51,1.49,2.87,2.55,4.22,2.75,7.06,1.02.26-.16.71-.22.63-.65-.06-.31-.43-.31-.68-.42-1.88-.86-3.68-1.83-4.89-3.6,1.68-.92,3.26-2.05,5.17-2.51,1.11.85,2.18,1.76,3.33,2.54,1.41.95,2.83,1.44,4.54.38,1.86-1.16,4.05-.61,4.83,1.18.94,2.19.58,3.62-1.44,4.96-.78.52-1.64.92-2.46,1.37Z"/>
          <path class="cls-3" d="M5.81,276.33c2.62,4.98,6.37,9,10.65,12.58,3.79,3.17,8.12,5.56,12.24,8.25,1.17.77,2.22,1.73,3.28,2.66.61.53.71,1.11-.2,1.5-1.33.57-2.44,1.62-3.95,1.81-2.36-2.71-5.49-4.37-8.47-6.22-5.99-3.72-11.46-8.03-15.65-13.78-1.3-1.78-2.49-3.65-3.44-5.66-.63-1.35-.22-2.19,1.26-2.4,1.59-.22,3.07.07,4.26,1.25Z"/>
          <path class="cls-34" d="M126.99,392.44c-2,1.63-4.39,2.59-6.64,3.79-.12-1.62-.24-3.26-.82-4.8-1.34-3.53-3.27-6.62-6.63-8.57-2.86-1.66-5.98-2.03-9.22-1.74,1.16-1.21,2.77-1.67,4.18-2.44.49-.27.87-.65,1.36-.88,1.79-.23,3.57-.63,5.39-.36,4.33.66,7.76,2.68,9.89,6.61.98,1.81,1.98,3.6,2.44,5.66.22.95.23,1.82.04,2.74Z"/>
          <path class="cls-3" d="M77.03,422.87c.82-.44,1.19-.53,1.25.64.18,3.92,2.1,5.69,6.15,5.82.15,0,.3.19.44.3-.5.27-8.49,5.15-9.84,5.32-5.63.71-9.4-4.35-5.53-8.13.71-.69,5.92-3.09,7.53-3.94Z"/>
          <path class="cls-3" d="M51.49,297.58c-1.91.46-3.49,1.59-5.17,2.51-1.22.7-2.66,1.04-3.62,2.17-2.33.69-4.32,2.07-6.45,3.15-.64.32-.89.75-.69,1.6.29,1.25.38,2.58.37,3.87-.02,1.34-.33,2.56-1.9,3.1-1.1.38-2.09,1.08-3.13,1.64.05-1.72.36-3.41.06-5.15-.22-1.26-.54-2.46-.94-3.66.19-.64.81-.75,1.29-1.01,6.36-3.4,12.73-6.79,19.09-10.19.37.66.74,1.32,1.11,1.98Z"/>
          <path class="cls-40" d="M53.44,313.89c1.41-.76,2.81-1.52,4.22-2.27.85,2.43,1.67,4.87,2.55,7.29.98,2.68,1.95,5.37,3.05,8,2.79,6.74,5.88,13.34,9.53,19.66,2.76,4.79,5.62,9.52,8.94,13.97,2.95,3.95,5.97,7.82,9.36,11.4,1.45,1.53,2.98,2.98,4.57,4.37.82.71.72,1.03-.17,1.48-1.56.79-3.09,1.62-4.63,2.46-.52.29-.84.29-1.29-.25-3.44-4.05-6.33-8.47-9.16-12.95-4.35-6.9-8.21-14.07-11.89-21.33-1.89-3.72-3.63-7.53-5.41-11.31-2.22-4.71-4.4-9.44-6.56-14.19-.97-2.15-2.09-4.21-3.11-6.33Z"/>
          <path class="cls-40" d="M41.74,296.04c-.46.24-.73.35-.96.52-1.07.75-1.51.18-1.76-.82-.39-1.52-.38-3.08-.29-4.6.28-4.73.44-9.46.25-14.2-.09-2.26-.73-4.46-1.32-6.62-.34-1.23-.21-2.35.09-3.43.63-2.26,1.46-4.47,2.21-6.71.09-.27.19-.56.52-.6.44-.05.55.33.66.62,1.97,5.13,3.71,10.28,3.62,15.91-.07,4.77-1.12,9.4-1.65,14.11-.12,1.03-.25,2.08,0,3.09.38,1.51-.06,2.46-1.39,2.75Z"/>
          <path class="cls-40" d="M19.35,259.51c-1.42.77-2.6.48-3.36-.83-.7-1.21-.29-2.63.97-3.34,1.2-.67,2.85-.22,3.51.96.57,1.01.02,2.59-1.12,3.21Z"/>
          <path class="cls-44" d="M112.16,400.62c-11.16,5.96-22.33,11.91-33.49,17.88-.69.37-1.18.43-1.88-.13-5.8-4.66-8.8-13.46-3.16-20.48,1.07-1.33,2.27-2.31,3.74-3.09,4.26-2.25,8.5-4.53,12.76-6.79,1.48-.79,2.98-1.56,4.47-2.33.14.22.31.31.59.25,7.83-1.69,14.32,3.82,16.18,11.15.3,1.18.1,2.46.8,3.54Z"/>
          <path class="cls-40" d="M112.16,400.62c-.7-1.08-.5-2.36-.8-3.54-1.86-7.33-8.35-12.84-16.18-11.15-.28.06-.45-.03-.59-.25,3.02-1.53,5.85-3.44,9.08-4.56,3.24-.29,6.36.08,9.22,1.74,3.36,1.95,5.29,5.05,6.63,8.57.58,1.54.7,3.17.82,4.8-2.73,1.46-5.46,2.93-8.19,4.39Z"/>
          <path class="cls-40" d="M42.7,302.25c.97-1.13,2.4-1.47,3.62-2.17,1.21,1.77,3.01,2.74,4.89,3.6.25.11.62.12.68.42.08.43-.37.49-.63.65-2.84,1.72-4.19,1.53-7.06-1.02-.53-.47-1.01-.99-1.51-1.49Z"/>
        </g>
        <g>
          <path class="cls-31" d="M66.07,353.38c3.04-.22,16.65-7,16.58-.49-.05,4.91-19.76,9.53-24.04,9.45,12.46,1.84,23.16-5.99,24.54-6.15,4.28-.51,7.61,1.77,5.35,5.42-2.93,4.74-25.35,6.04-27.3,9.45-5.38-.51-6.91-7.66-8.64-11.69-.2-1.79-2.23-4.98-2.7-8.02-.62-4.02.33-7.79.33-7.79l2.48,4.05s3.58,4.18,5.62,6.87c1.09-.22,6.67-1.02,7.76-1.1Z"/>
          <path class="cls-31" d="M90.86,370.32c0,.08,5.04,3.87-10.75,12.72-.71.4-10.55,5.83-14.13-2.08,7.34-4.84,17.05-6.16,24.88-10.64Z"/>
          <path class="cls-6" d="M61.22,371.06c-1.28,2.26.91,6.06,3.24,6.77,2.96.89,22.66-5.9,26.01-9.05.13,1.01.37,1.29.38,1.53-7.83,4.48-17.54,5.8-24.88,10.64-.59.39-1.43.5-2.07.84-7.31-7.11-10.24-12.55-11.33-22.43,1.73,4.03,3.25,11.18,8.64,11.69Z"/>
          <path class="cls-9" d="M68.59,386.17c-2.42-.65-3.21-2.94-4.68-4.37.64-.34,1.48-.45,2.07-.84,3.58,7.91,13.46,2.53,14.13,2.08,5.34-3.58-6.05,4.61-11.52,3.13Z"/>
          <path class="cls-31" d="M91.28,364.83c.36,2.12-.83,3.75-.8,3.95-3.35,3.15-23.06,9.94-26.01,9.05-2.33-.7-4.53-4.51-3.24-6.77,1.13.11,15.07-2.95,17.58-3.67,6.46-1.85,9.34-6.47,12.48-2.56Z"/>
          <path class="cls-6" d="M91.28,364.83c-3.14-3.91-6.02.71-12.48,2.56-2.51.72-16.45,3.78-17.58,3.67,1.94-3.41,24.37-4.71,27.3-9.45,1.19,1.37,2.38.96,2.76,3.22Z"/>
        </g>
        <g>
          <g>
            <path class="cls-23" d="M183.1,194.37c-9.09,11.59-21.81,20.53-36,24.5-2.36-3.08-5.37-5.97-6-10-.45-2.9.19-7.89.5-11,.07-.73.15-4.25.5-4.86,12.44,2.19,27.65-1.76,38.5-7.64,1.21,2.88,1.66,6.03,2.5,9Z"/>
            <path class="cls-31" d="M185.1,199.87c.39,2.05.72,4.18,1,6.25-7.26,8.67-18.31,15.14-29,18.75-2.48.84-1.89.97-2,1-.74.17-.36.73-2.5-.5-.28-.16-1.31-.83-1.5-1-.26-.22-3.39-4.71-4-5.5,14.19-3.97,26.91-12.91,36-24.5.67,2.38,1.94,5.17,2,5.5Z"/>
          </g>
          <g>
            <path class="cls-12" d="M213.87,96.87s-6.44-19.74-10.08-25.56c-4.81-7.69-19.05-20.76-27.72-23.4s-26.18-2.64-36.4-.73c0,0-32.82,1.73-41.14,39.7-.94,4.3,3.47,25.35-1.5,42.9-.09.32-.14.65-.14.98v7.55c2.59,9.21,3.89,21.19,12.53,31.65,7.61,9.21,31.57,23.86,35.88,24.27,2.26.08,9.06-1.41,19.05-5.59,9.16-3.84,22.2-12.35,27.89-20.52,2.79-4.01,12.29-22.94,10.07-25.68,7.3-3.43,16.67-4.19,16.67-15.97,0-5.05-2.94-19.94-5.1-29.59ZM113.48,145.06c1.03.09,2.08.13,3.16.11-1.03.04-2.09,0-3.16-.11ZM170.28,142.04c.99.49,2.08.94,3.27,1.35-1.16-.38-2.25-.83-3.27-1.35Z"/>
            <path class="cls-37" d="M218.75,126.28c.06-.09,1.34-1.31-1.39-12.61-.8-3.84-2.6-12.74-2.6-12.74,0,0-.45-.64-1.11-1.37-.54-.59-1.23-1.23-1.8-1.71-7.14-5.96-20.51-5.64-24.33-5.66-8.48-.09-16.76,1.17-20.81,6.02-4.18,5.01-3.97,13.78-2.53,24.56.31,1.3,1.12,4,1.08,3.36-.1-1.67,1.06-6.72,2.37-9.57,2.25-4.92,4.62-8.13,10.93-10.58,15.64-6.05,31.83,20.59,32.55,21.79-1.8,6.6-5.1,12.32-11.07,14.7,3.89.67-5.67,21.3-8.64,25.56-5.68,8.17-18.56,15.97-27.72,19.8-9.98,4.18-16.68,6.28-18.99,6.23.17.06.07.12.64.16,15.33,1.15,24.21-2.52,37.43-10,19.85-11.23,20.3-13.57,30.24-32.4,1.1-2.09,1.09-4.53,2.88-6.84.38-.49,9.73-1.54.72-7.92,13.28-19.13,20.35-3.89,12.96,6.48-6.8,9.55-18.62-4.15-10.8,11.88,25.69,5.04,20.19-57.31,0-29.16Z"/>
            <path class="cls-29" d="M218.75,155.45c-2.56-.5-3.24-2.94-5.76-3.6,1.1-2.09,1.09-4.53,2.88-6.84.38-.49,9.73-1.54.72-7.92,13.28-19.13,20.35-3.89,12.96,6.48-6.8,9.55-18.62-4.15-10.8,11.88Z"/>
          </g>
          <path class="cls-17" d="M97.17,137.04c3.5,16.27,5.03,23.58,11.87,32.34,4.4,5.63,24.09,20.16,35.68,24.72-5.49-.09-34.05-16.97-40.23-24.75-6.68-8.4-8.31-18.44-8.47-25.05-.04-1.66.29-4.97.48-6.62.08-.68.39-2.73.39-2.73,0,0,.18,1.59.29,2.09Z"/>
          <path class="cls-31" d="M106.42,100c-1.88.06,1.36-4.44,2.23-6.28,1.06-2.92,1.12-6.36,2-9.25,6.04-19.79,23.82-27.78,10.5-24.25-10.51,2.79-20.82,35.08-21.94,44.67,0,.01.18,6.15.18,6.15,2.51-3.22,3.62-4.22,7.97-6.63,8.46-4.67,18.39-1.27,22.4,9.26.04.12,2.35,10.41,2.39,11.24.02.42.04-9.38.19-10.88-.96-13.22-15.39-14.39-25.92-14.04Z"/>
          <g>
            <path class="cls-31" d="M96.91,135.33c-10.31,3.67-5.4,11.06-2.85,18.16-12.38-9.8-7.4-25.37-2.57-25.81.6-.05,2.57-.04,3.82.89,1.15.86,1.63,1.73,1.63,1.73,0,0,0,3.37-.04,5.02Z"/>
            <path class="cls-37" d="M94.78,130.45c.86-.04,2.13,1.32,2.1,4.07-.03,2.31-.95,7.35-.78,11.64,0,0,.48,5.68,1.6,9.55-1.36-.54-2.49-1.3-3.64-2.21-2.55-7.1-9.59-19.37.72-23.04Z"/>
          </g>
          <g>
            <path class="cls-11" d="M289.98,148.94c-.14-.13-.31-.32-.48-.48-.31-18.33-12.21-12.48-19.34-17.19-4.6-3.04-7.83-19.38,14.08-18.38,5.56,7.95-13.96,6.35-11.94,10.5.48.99,15.1,6.07,17.19,8.59,3,3.63,2.98,13.91.48,16.95Z"/>
            <path class="cls-48" d="M43.16,132.71c-.77,1.33-4.97,3.92-3.34,11.94-5.77-2.09-14.97-2.67-13.84-10.74,1.81-13.02,15.73-1.17,17.19-1.19Z"/>
            <path class="cls-48" d="M55.57,115.04q.48,4.42.95,8.83-6.68,4.42-13.37,8.83c.54-.92,2.18-2.06,2.39-2.63,2-5.39-4.36-9.36-3.82-14.8q6.92-.12,13.84-.24Z"/>
            <path class="cls-48" d="M297.14,80.19c-4.37-2.21-5.02-1.55-9.55-2.63,2.76-7.37,4.11-10.61,0-17.43-.52-.4-.64-.5,0,0-3.84-6.37-10.77-9.34-17.9-6.21-2.75-.54.94-5.86-9.79-11.7,8.37-15.47-11.31-28.07-21.24-13.61C221.05,8.83,196.41.05,171.82,13.35c-16.73-18.96-48.35-16.68-65.64.24-1.68,1.64.06,3.99-12.65,9.31-1.97.09-9.93-10.8-21.24-1.43,0,0,0,0,0,0-2.89,2.39-5.59,6.4-5.73,10.26-.03.76,1.65,8.46,1.91,8.83-1.18.2-2.31.87-3.34,1.43-7.68,4.19-5.16,3.47-8.83,10.98-18.35-1.5-25.18,16.33-12.17,28.88-2.57.83-5.11,1.11-7.64,2.15-1.99.82-3.19,1.37-4.77,2.86-9.07,8.54-4.83,20.54,5.73,25.06.64,1.79-3.89,4.36,0,13.37-18.05-2.07-24.49,18.34-7.64,26.26-3.6,8.83,2.84,20.44,12.65,16.95,7.94,7.76-1.98,7.84-.24,18.86,1.36,8.6,13.51,14.07,20.77,8.83,10.25,4.27,5.3,4.94,8.83,9.79,4.51,6.19,15.68,5.61,20.77.24,1.38.31.67,13.47,19.1,10.98,4.44-7.84,5.94-2.38,12.89-5.73,5.18-2.5,5.11-9.42,10.26-4.77,2.74-3.89,3.15-8.08,6.93-11.28.07-.7.14-1.4.21-1.99-6.38-2.21-25.4-13.42-31.26-18.43-9.34-7.98-13.33-20.37-13.01-19.3-1.36-.54-2.49-1.3-3.64-2.21-12.38-9.8-7.4-25.37-2.57-25.81.6-.05,2.57-.04,3.82.89,1.13.85,1.61,1.7,1.63,1.73.9-3.64,1.92-8.38,2.1-11.67.91-5.89.92-15.31.93-15.49.51-7.83,10.9-38.47,20.04-42.53,5.38-2.39,10.25,1.5,16.95-8.12,21.88,12.34,30.33-2.24,31.99-2.86,6.58-2.47,8.32,5.19,8.83,5.49,13.69,7.91,27,21.42,30.54,26.98.47.73,2.46,5.84,3.64,9.46,3.7,11.31,6.79,34.73,6.79,34.73,0,0,3.9-5.64,7.37-6.78-.07-.05,3.66-1.35,6.46,1.78,5.22,5.85,4.58,25.77-3.74,31.97-4.96,3.7-10.25,2.94-13.43,0-1.22-1.12-2.42-1.4-2.42-1.4,0,0-.35.73-1,1.91-1.55,2.8-5.42,11.17-9.33,15.71-7.98,9.27-15.7,11.85-22.05,15.97.87,3.22,1.58,5.68,2.38,8.52.64,2.27,1.85,4.93,1.91,5.25,5.45.54,7.16,3.77,10.08,5.58.54.34,3.43.86,4.54.95,6.7,13.18,24.45,10.16,28.64-3.82,9.21,9.72,23.29,11.63,27.21-3.82,7.01.07,11.98.74,16.71-5.25,17.53,1.89,24.17-15.7,11.7-27.45q2.98-3.94,5.97-7.88c5.9,1.47,11.45.11,14.56-5.25,3.95-6.8,2.04-13.9-4.3-18.38,1.49-16.72-7.49-16.8-8.12-17.66-2.99-4.15,5.51-3.75,10.03-9.07,6.81-8.02,4.79-22.13-4.77-26.97"/>
            <path class="cls-11" d="M49.36,152.28c-.27.1-1.5,1.75-5.01,2.86-.56-.14-4.42-9.94-4.54-10.5-1.63-8.01,2.57-10.6,3.34-11.94q6.68-4.42,13.37-8.83-.48-4.42-.95-8.83c.1-2.73-8.04-6.86-13.37-10.5-2.1-4.42-1.05-9.85,1.91-13.84,8.45-3.78,19.02-1.63,19.1-7.88,0-.5-2.12-5.75-2.39-9.79-.72-10.74,14.06-12.77,15.28-14.08.5-.54,1.74-5.63,1.91-6.92,1.36-2.12,3.22-3.78,4.77-5.73,2.19-2.75,3.56-.4,1.91-8.83,15.43-17.14,14.53-10.69,36.04-7.88,3.21-.75,3.19-14.58,10.03-15.75,9.57-1.64,12.02,10.31,8.12,13.37-3.67,2.88-3.2-2.58-6.68-7.64-3.78,22.62-17.69,15.12-34.85,12.89-8.46,5.82-4.47,10.16-5.49,13.13-.28.81-7.63,7.08-8.12,8.12-3,6.43,5.2,5.22-16.71,16.71-2.36,5.97,9.05,16.27-6.92,23.15-4.57,1.97-16.64,2.16-13.37,6.21,2.66,3.28,15.27,6.03,15.99,17.43,1.43,22.72-26.97,10.24-13.37,35.09Z"/>
            <g>
              <g>
                <path class="cls-11" d="M184.23,15.26c12.02-1.13,20.75,19.49,43.44,11.94,11.03,14.64,20.32,10.14,15.52,27.93,2.48,1.22,11.9,9.52,12.65,9.79,5.27,1.89,20.78-2.81,15.99,16.47,4.52,1.56,20.47,7.85,22.44,11.46,2.26,4.16.7,12.42-4.06,14.08-11.08,3.87-.82-9.16-1.19-10.74-11.93-10.93-28.55-.8-21.96-23.39q-6.33-.6-12.65-1.19c-8.03-10.55-12.63-7.74-15.52-11.22-7.65-9.25,11.94-21.6-18.86-17.43q-1.19-4.06-2.39-8.12c-11.72.38-21.94-6.33-31.03-12.89-4.05-.29-16.38,7.73-13.61-.72.59-1.81,9.15-5.77,11.22-5.97Z"/>
                <path class="cls-46" d="M229.11,32.93c2.95-.22-2.46,2.06-3.34,2.39-11.48,4.18-3.32-1.9,3.34-2.39Z"/>
              </g>
              <path class="cls-1" d="M130.76,13.83c-6.84,1.17-6.82,15.01-10.03,15.75-21.51-2.82-20.61-9.27-36.04,7.88,1.65,8.43.28,6.08-1.91,8.83-1.55,1.95-3.41,3.61-4.77,5.73h0c-.17,1.29-1.41,6.38-1.91,6.92-1.22,1.32-16,3.34-15.28,14.08.27,4.04,2.39,9.28,2.39,9.79-.07,6.25-10.64,4.1-19.1,7.88-2.96,3.99-4.01,9.42-1.91,13.84,5.33,3.64,13.47,7.78,13.37,10.5q-6.92.12-13.84.24c-.54,5.44,5.82,9.41,3.82,14.8-.21.57-1.85,1.7-2.39,2.63-1.46.02-15.38-11.82-17.19,1.19-1.12,8.08,8.08,8.65,13.84,10.74.11.56,3.98,10.36,4.54,10.5,3.52-1.11,4.74-2.77,5.01-2.86-13.6-24.85,14.8-12.37,13.37-35.09-.72-11.4-13.34-14.14-15.99-17.43-3.27-4.05,8.8-4.24,13.37-6.21,15.97-6.89,4.57-17.19,6.92-23.15,21.91-11.49,13.71-10.28,16.71-16.71.48-1.03,7.84-7.31,8.12-8.12,1.03-2.97-2.97-7.31,5.49-13.13,17.16,2.23,31.07,9.73,34.85-12.89,3.48,5.05,3.01,10.51,6.68,7.64,3.9-3.06,1.45-15.01-8.12-13.37Z"/>
              <path class="cls-1" d="M272.31,123.4c-2.02-4.15,17.5-2.56,11.94-10.5-21.91-.99-18.69,15.34-14.08,18.38,7.12,4.71,19.02-1.14,19.34,17.19.17.16.33.34.48.48,2.5-3.03,2.52-13.32-.48-16.95-2.09-2.52-16.71-7.61-17.19-8.59Z"/>
            </g>
          </g>
          <g>
            <path class="cls-26" d="M131.23,121.71c-.5-1.47-1.36-5.17-5.73-9.43-2.82-2.75-5.81-4.38-7.96-4.74-1.44-.2-2.74-.16-3.92.02-2.25-.1-5.68,1.45-7.92,3.23-5.87,4.68-4.57,12.46,1.08,15.84.25.15.53.29.82.43,3.24,1.76,5.75,1.8,9.2,1.91,0,0,6.24.41,14.03-2.74.47-.19,1.41-.71,1.41-.71,0,0-.22-2.03-1.01-3.82Z"/>
            <path d="M99.85,107.58c2.64,2.22,6.39-6.16,17.05-5.19,8.72.79,15.56,12.06,15.24,22.28-1.16-2.08-2.23-5.18-2.57-5.54-.05-.06-.18.02-1.29-.86,1.16-4.03-6.96-10.25-10.73-10.73-6.55-.85-10.77,2.43-13.74,7.73-.14.25-.58,1.17-.86,2.15-1.13,3.97,1.02,7.74,4.65,9.65-.74,0-3.81-1.99-4.23-2.35-4.02-3.43-7.61-12.5-7.56-18.15-.1-1.1.31-4.58.83-3.19.99,2.65,2.45,3.56,3.2,4.2Z"/>
            <path d="M116.57,120.44c1.9-.49,2.53-3.14,2.21-4.87,11.2-1.45,3.91,16.24-2.21,4.87Z"/>
            <path class="cls-5" d="M129.58,120.1c0-.2-.04-.38-.05-.58,0-.14,0-.27,0-.41,0,0-.02-.02-.04-.02-.84-6.6-8.39-11.1-11.98-11.57-.36,1.44-2.68,2.49-3.43,3.86-.15.27-.81,2.12,0,2.15,2.03-.08,2.65.33,3.43.43.07.43,1.27,1.61,1.29,1.72,10.87-1.4,3.79,15.75-2.15,4.72-2.27.58-4.3-1.57-4.72-.64.81,3.73,1.27,6.93,4.72,8.8,1.25.67,3.25.49,7.72-.31,3.74-.67,4.99-4.57,5.14-8.2.02.01.05.04.06.05Z"/>
            <path class="cls-26" d="M181.38,110.69c.9-.18,3.78-.53,5.05-.47,2.94.16,5.9,2.18,5.9,2.18,7.28,5.07,10.16,9.31,3.22,16.31-.69.31-2.85,1.25-3.01,1.29-5.74,1.41-21.22,1.35-27.05-2-.02,0-.03-.02-.05-.03-.3-.17-.26-2.91.05-3.98,3.45-6.78,7.95-12.16,15.89-13.31Z"/>
            <g>
              <path d="M201.55,114.56c2.17,1.76,3.7.7,5.24-1.17.9-.99.81-1.56,1.05-1.23.27.39.27,1.84-.33,3.75-1.37,4.31-5.27,9.83-11.96,12.82,6.94-7.01,4.06-11.25-3.22-16.31,0,0-1.92-1.42-5.58-2.15-1.82-.36-3.59.17-5.37.43-7.94,1.15-12.44,6.53-15.89,13.31,1.51-13.76,12.07-22.65,26.4-17.6,5.73,2.02,8.22,6.99,9.66,8.16Z"/>
              <path class="cls-5" d="M194.68,118.85c-.19-2.4-3.14-7.78-7.94-8.59-1.83-.31-3.59.17-5.37.43-4.27,6.01-2.22,3.07,1.5,4.29.41.13,1.13.82,1.5,1.29.24.3,1.52.19,3.86.86,4.97,5.8-3.02,11.68-6.44,4.72-1.91.28-4.19-1.74-4.29-1.5.28,14.31,18.69,12.68,17.17-1.5Z"/>
              <path d="M188.24,117.13c4.97,5.8-3.02,11.68-6.44,4.72,2.32-.34,3.84-3.51,2.58-5.58,1.66-.19,2.83-.01,3.86.86Z"/>
            </g>
          </g>
          <path class="cls-2" d="M225.71,150.67l1,2c1,2-3,3-3,3-1.16.37-2,1-3,0l1-5c1-2,3.66-.46,4,0Z"/>
          <g>
            <path class="cls-13" d="M226.71,158.67c0-2,0-5-1-6s-1.79-2.03-3-1c-.85.72-1.85,4.6-2,7-.05.8.36,3.41,1.05,3.95,1.97,1.52,3.28,1.28,3.96.21,1.99-3.16.99-2.77.99-4.16Z"/>
            <path class="cls-28" d="M227.26,157.87c-.22-2.79-.45-4.83-1.55-5.2-3-1-1,3-4,5-1.18.78-.56,3.32,0,4,3.39,4.13,5.76-1.04,5.55-3.8Z"/>
          </g>
          <g>
            <path d="M98.45,93.49c-.32-.04-.57-.26-.4-.54,1.23-1.98,4.66-7.32,6.9-8.78,2.26-1.48,9.41-4.96,14.55-3.99,4.03.76,4.14,4.49,4.17,6.11,0,.03-.02.06-.05.08-2.65,1.53-4.4.39-8.93.03-1.75-.14-3.24-.01-4.87.46-2.57.74-4.87,2.4-7.04,4.87-.66.75-2.7,1.96-4.34,1.76Z"/>
            <path d="M198.59,86.32c.11.55,2.3,3.22,2.88,5.4l-1.08,1.08c-14.83-10.29-26.1-.3-29.16-7.2,2.55-2.21,3.17-11.87,27.36.72Z"/>
          </g>
          <g>
            <path class="cls-23" d="M157.56,143.02c1.79,8-20.24,11.31-20.88,2.16,5.6,5.57,14.97,2.25,20.88-2.16Z"/>
            <g>
              <path class="cls-14" d="M175.92,149.5c2.64.26,5.03,1.58,6.12,3.96-8.51.6-12.2,25.11-29.16,27.72-25.18,3.88-14.91-25.59-27.72-19.8.7-9.31,39.85-.3,54.01-8.64l-3.24-3.24Z"/>
              <path class="cls-22" d="M170.88,158.15c4.44-.62-4.85,8.34-6.48,9.36-9.07,5.7-30.73,7.42-30.24-4.32,15.16,3.57,34.64-4.75,36.73-5.04Z"/>
            </g>
            <path class="cls-17" d="M141.36,139.42c2.21,1.67,5.3,2.24,5.4,2.52,1.58,4.52-6.69,4.93-5.4-2.52Z"/>
          </g>
          <g>
            <path class="cls-27" d="M137.87,112.71c0,15.74-15.3,27-28,27s-19-10.26-19-26,9.3-22,22-22,25,5.26,25,21Z"/>
            <path class="cls-27" d="M216.87,113.9c0,22.81-17.9,29.81-32.77,29.81s-22.23-11.33-22.23-28.71c0-20.29,10.88-24.29,25.74-24.29,19.26,0,29.26,5.81,29.26,23.19Z"/>
            <g>
              <path d="M221.87,122.71c4.16-9.68-4.33-20.72-5.73-23.8-2.17-4.77-6.05-8.24-9.27-9.2-2-.6-6-1-13-1-6,0-29-3-34.5,13.71-7.21-3.06-12.58-2.59-20-1-1.5-2.71-5.52-11.66-20.5-12.71-1.93-.13-9.16-.71-16,1-8,2-7.86,2.86-10,5s-4.6,9.78-5,18c-.35,7.04,2,17,3,19,.63,1.26,3,6,5.75,7.46,8.64,4.97,15.01,4.96,21.25,4.54,15-1,26.35-18.47,26-32.79,21.23-1.93,7.52,3.43,18.25,22.75,2.56,4.62,9.75,11.04,16.75,13.04,4.9,1.4,14.82,1.78,23-2,13-6,17.7-16.64,20-22ZM135.62,115.42c-.26,7.54-3.33,13.47-8.14,17.34-6.18,4.97-15.23,6.52-24.86,3.66-5.75-1.71-7.78-6.29-8.75-8.71-4-10,0-24,1-27,1.92-5.77,10.39-7.67,16-8,8.61-.51,17.34.25,21.75,8.71,2.09,4,3.16,9.45,3,14ZM168.62,133.67c-3.52-4.73-5.36-13.94-5.5-19.75-.37-15.93,5.18-19.09,20-20.5,5.57-.53,11.46-.87,17,0,.81.13,2.43.35,3,.5,2.12.56,4.25,1.34,5.79,2.84.47.46,4.36,5.98,5.96,16.95.49,3.39,0,8-1.72,12.65-.01.02-.02.03-.04.05-8.92,20.35-36.11,18.5-44.5,7.25Z"/>
              <path class="cls-42" d="M235.58,107.93c-.51-.71-12.85-7.97-15.03-8.89-2.45-1.04-4.78-2.3-5.2-1.97.57,2.38,7.75,12.97,7.56,18.78-.03.91,1.94,1.11,1.94,1.11l.1-.78c9.11.38,12.15-1.51,15.04.62-.21-1.64-3.59-7.73-4.4-8.87Z"/>
              <g>
                <path class="cls-4" d="M89.18,103.44q-5,2.25-10,4.5c-.53-1.11-2.64-9.66-1.25-10.5,22.79-3.44,17.71-10.26,11.25,6Z"/>
                <path d="M89.18,103.44q-.62,5-1.25,10c-3.24-2.09-6.93-1.68-8.75-5.5q5-2.25,10-4.5Z"/>
              </g>
              <path d="M234.1,123.36c.37-.18,4.84-5.6,5.88-6.56-2.73-2.01-5.98-.95-13.59-.61-9.56-.34-10.25-3.54-10.25-3.54l.63,3.1c-.08.54.19,2.49.46,4.47l4.41,2.9c3.7-3.78,5.28-4.79,9.33-3.29,2.07,1.2,2.74,2.94,3.13,3.54Z"/>
            </g>
          </g>
        </g>
      </g>
      <g>
        <g>
          <g>
            <path class="cls-21" d="M135.25,291.87c8.13,3.33,3.4,2.09,2.68,7.43,1.84-2.78,3.62-5.79,4.84-8.9-.13-.15-1.66-3.26-1.93-3.37-1.38-.55-2.28,2.99-3.39,1.62-.74,1.05-1.92,2.86-2.2,3.21Z"/>
            <path class="cls-43" d="M121.47,322.33c-5.08,3.32,2.69,12.31,6.41,8.38,3.22-3.41-3.02-10.6-6.41-8.38Z"/>
            <path class="cls-35" d="M154.39,306.91c-.21-1.13-.41-1.28-1.28-2.47-2.42-3.71-21.19-35.57-30.6-42.66-1.89-1.43-3.31-.49-4.24.38-4.46,4.97-29.93,20.81-31.49,23.98-.69,1.41.28,3.31.94,4.51.96,1.72,20.13,27.14,23.54,31.68,13.32,17.75,13.17,22.6,22.46,14.91-.23-.27,22.33-18.5,25.11-22.5-1.29-.58-4.28-7.02-4.43-7.82Z"/>
          </g>
          <g>
            <g>
              <g>
                <path class="cls-11" d="M146.96,328.27c-.11-.07-.79-1.89-.88-1.98-3.04,3.04-14.83,13.11-16.73,13.92-5.7,2.44-7.83-4.61-18.1-17.89-3.47-4.49-22.58-29.95-23.54-31.68-.67-1.19-1.63-3.1-.94-4.51,1.56-3.17,27.03-19.01,31.49-23.98,1.11-1.03,4.43-.76,6.58,2.17,7.83,10.66,26.91,38.46,29.47,42.39.87,1.19,1.12-.69,2.25-.48-4.37-6.57-29.69-44.43-32.83-46.46-4.43-2.86-8.05,2.33-11.26,4.49-.98.66-1.92,1.38-2.9,2.04-.46.32-.97.73-1.45,1.02-1.17.7-3.31,2.63-3.95,2.27,0-3.44-2.64-7.96,1.41-9.87,5.12-.05,33.59-9.99,35.67-8.73,4.9,9.36,8.29,19.83,12.11,29.77,3.11,8.08,6.8,16.95,9.44,25.2.42.34.63-.12.98.27l2.73,2.22c-1.19-2.26-4.14-11.49-5.49-14.83-1.79-4.45-3.27-8.91-4.95-13.37-1.31-3.49-2.84-6.83-4.12-10.38-.43-1.19-3.82-8.09-3.24-8.76,4.21.88,23.9.6,25.31,3.93.69,1.63-4.83,30.59-5.5,35.04-.43,2.87-1.01,5.73-1.19,8.63.07.07-.63.33,1.19,1.59,2.18.32,5.77-39.6,7.82-42.99,2.13-9.75-18.01-6.38-28.7-8.56-1.85-3.9-2.37-9.42-7.48-10.43-1.92-.38-32.87,9.32-37.68,10.4-3.05,2.94-.67,9.16-.27,12.83-6.74,5.98-21.73,11.37-17.21,18.97,6.67,7.24,35.54,50.02,39.55,52.31,4.12,2.36,19.01-12.69,22.45-14.58Z"/>
                <path class="cls-24" d="M86.87,283.38c-5.1,7.19,1.47-.74,9.61-6.2l-9.61,6.2Z"/>
              </g>
              <path class="cls-7" d="M153.34,280.77c-3.82-9.94-7.21-20.41-12.11-29.77-1.94-1.54-29.88,7.27-35.67,8.73-4.05,1.91-1.5,6.96-1.49,10.4,3.32-2.49,5.56-3.21,9.73-6.94,1.65-1.48,3.26-2.51,4.4-3.32,1.98-1.41,4.65-1.07,5.51-.1,7.32,8.21,21.64,29.72,32.92,46.92.39-.49,5.61-1.14,6.14-.71-2.64-8.25-6.34-17.12-9.44-25.2Z"/>
            </g>
            <path class="cls-7" d="M151.74,269.91c2.72,6.94,7.41,18.82,7.41,18.82l6.86,18.76s.46,1.03,1.35,1.49c.67-4.44,7.34-42.28,6.65-43.92-1.41-3.34-21.64-3.24-25.85-4.12.24.59,3.15,7.78,3.58,8.97Z"/>
          </g>
          <path class="cls-11" d="M110.87,285.28c-.23-1.08.84-1.97,1.87-1.55,1.67.68,3.97,1.44,6.34,1.97,21.21,4.83,25.9,8.71,22.16,15.89-4.71,9.04-19.84,1.15-.51,9.98.48.22.6.85.18,1.16l-10.58,7.82c-.43.32-1.04,0-1.06-.53-.75-24.32-.56,1.21-12.48-1.32-8.81-1.87-6.3-15.24-5.34-25.28.29-3.09-.14-6.08-.58-8.13Z"/>
          <path class="cls-14" d="M137.35,258.65c7.66-1.89,1.46,7.24-.57,10.03-.09.12-.25.09-.32-.04-1.48-2.88-6.89-3.61-6.15-7.14.78-3.74,4.83-.88,5.14-.95.13-.03.6-1.58,1.9-1.9Z"/>
          <path class="cls-14" d="M162.89,279.92l-2.85-6.85c-.06-.16-.05-.32.04-.46l3.97-6.27c.34-.54,1.45-.45,1.69.14l2.85,6.85c.06.16.05.32-.04.46l-3.97,6.27c-.34.54-1.45.45-1.69-.14Z"/>
        </g>
        <path class="cls-47" d="M121.11,259.59c3.14,2.03,27.97,38.95,32.34,45.52.47.08,3.13-.54,5.83.49-.23-.86-.27-.62-.7-1.17-4.98-6.43-8.56-13.83-12.82-20.72-2.74-4.44-12.31-17.87-12.64-18.29-6-7.73-5.18-12.14-12.02-5.83Z"/>
        <path class="cls-47" d="M149.31,269.71c1.28,3.55,2.81,6.89,4.12,10.38,1.68,4.46,3.16,8.92,4.95,13.37,1.35,3.35,3.39,10.22,4.58,12.48.31.58.77,1.67,1.07,2.06.16.21.46.36.65.56.18-2.91.76-5.76,1.19-8.63-.16-6.22-10.59-26.87-16.57-30.21Z"/>
        <g>
          <path class="cls-31" d="M132.18,322.34c.51-.06,1.13-.19,1.45-.3,2.44-1,4.38-2.58,6.42-3.73.62-.35,13.48-9.31,14.15-9.08.6.21.45.17.4,1.2,3.15-1.14,10.91-3.85,12.26-2.21-.47-.42-1.55-1.84-2.14-2.16-6.08-3.25-16.75.6-23.61.29-4.26,2.76-6.36,7.3-9.04,11.38-1.39,2.12-6.01,4.88.12,4.61Z"/>
          <path class="cls-31" d="M156.99,341.1c2.43.17,5.67-.54,7.79-1.78-1.43.08,1.05-1.62,2.17-2.29.73-.89.98-2.34,1.3-2.92-.63-2.87-6.54,2.64-6.9,1.96.24-3.38,5.24-3.92,8.2-4.88,2.3,2.1,2.36,6.07,4.14,8.17-.16-2.8-1.96-6.36-1.46-8.52-4.31-.47-2.34-2.22-3.32-2.35-.58-.08-2.6,3.18-10.16,5.7,2.62,6.95,3.83,3.97,4.44,4.18,1.96.66-2.65,1.95-3.04,1.96-1.06.02-1.84-2.35-3.15.77Z"/>
          <path class="cls-9" d="M164.78,339.32c1.49-.5,7.76.79,8.86,1.23l.03-.89c-5.72-1.6-1.89-5.55-6.73-2.63-1.11.67-3.6,2.37-2.17,2.29Z"/>
          <path class="cls-2" d="M145.84,314.25s.51-.93.58.32c2.4-2.1,5-3,8.17-4.14.05-1.04.2-1-.4-1.2-.67-.23-12.21,4.33-12.83,4.68-1.24,1.4-8.53,8.58-7.74,8.13,2.67-1.52,5.64-2.78,12.22-7.78Z"/>
          <path class="cls-9" d="M173.68,339.66c0-.1.02-.2.01-.3-1.78-2.1-1.84-6.08-4.14-8.17.21,2.92-.85,2.12-1.3,2.92-.32.58-.57,2.02-1.3,2.92,4.83-2.92,1.01,1.03,6.73,2.63Z"/>
          <path class="cls-6" d="M140.02,319.15c.82-.4,3.85-2.85,5.04-3.17.04-.05,1.61-1.11,2.19-1.79-.85-.56-1.79.04-3.07.89-3.27,2.75-6.41,4.69-10.39,6.84-.3.16-1.35.4-1.62.42.9-.04,1.67-.06,2.55-.48,1.88-.88,5.03-2.59,5.29-2.71Z"/>
          <g>
            <path class="cls-31" d="M138.93,332.1c.09.28.42.42.66.47.69.15,1.61-.08,1.7-.09.09,0,.41.03,1.52-.83,1.9-2,.5-5.21,2.63-6.73,2.19-1.56.66.47,2.21,4.24l2.45,5.73c3.06,3.78,2.76,5.91,6.89,6.2,1.31-3.12,2.08-.75,3.15-.77.39,0,5-1.3,3.04-1.96-.61-.21-1.83,2.77-4.44-4.18,7.56-2.51,9.58-5.78,10.16-5.7.99.14-.99,1.89,3.32,2.35-.5,2.16,1.29,5.71,1.46,8.52,0,.1-.01.2-.01.3,0,0,20.13,9.29,22.85,11.02,2.52-3.52-1.8-9.46-.49-13.58.24-.76-.29-1.21-.25-1.35-1.36-.43-2.56-1.22-3.79-1.93-9.24-5.33-14.23-12.48-20.9-20.39-2.63.51-3.05-3.19-3.97-4.9-.02-.01-.06-.11-.29-.31-1.35-1.65-9.11,1.07-12.26,2.21-3.17,1.15-5.77,2.04-8.17,4.14-.09.08-.2.19-.31.29-.12.11-1.98,2.07-2.17,2.29-.58.67-.88.81-.92.86-4.15,5.18-3.04,7.92-4.1,14.09Z"/>
            <g>
              <path class="cls-31" d="M171.11,313.44c-1.48-1.76-2.06-3.07-3.97-4.9.92,1.71,1.34,5.41,3.97,4.9Z"/>
              <path class="cls-9" d="M148.68,321.61c-.07.15-2.11,2.83-1.92,2.95.71-.62,1.3-1.82,3.48-2.86,5.47-2.6,14.29-5.64,11.16-6.55-1.25,1.74-12.43,5.87-12.72,6.46Z"/>
              <path class="cls-2" d="M147.65,329.17c-1.55-3.77-.02-5.8-2.21-4.24-.28,1.59,1.43,4.79,2.21,4.24Z"/>
              <path class="cls-9" d="M155.51,327.1c2.46-.67,6.74-2.37,7.52-4.03-.79.45-9.29,3.71-9.38,4.69-.01.13-.22,1.79-.08,2.48,0,0,2.36,7.97,3.06,9.02.08.12,1.46,1.23,1.46,1.23,0,0,.28-.21-.23-.76-.47-.5-.79-1.13-.92-1.49-.63-1.77-1.47-3.95-1.87-4.68-.31-.58-.39-2.11-1.15-3.45.13-.83.18-2.64,1.58-3.03Z"/>
            </g>
          </g>
          <path class="cls-9" d="M168.25,334.11c.45-.8,1.51,0,1.3-2.92-2.96.96-7.96,1.5-8.2,4.88.36.68,6.27-4.83,6.9-1.96Z"/>
        </g>
      </g>
    </g>
  </g>
</svg>