<?xml version="1.0" encoding="UTF-8"?>
<svg id="Layer_2" data-name="Layer 2" xmlns="http://www.w3.org/2000/svg" viewBox="0 0 310.23 485.91"><defs>
    <style>
      .cls-1 {
        fill: none;
      }

      .cls-2 {
        fill: #c45f41;
      }

      .cls-3 {
        fill: #232323;
      }

      .cls-4 {
        fill: #5f843f;
      }

      .cls-5 {
        fill: #3a310b;
      }

      .cls-6 {
        fill: #8e3226;
      }

      .cls-7 {
        fill: #f7b750;
      }

      .cls-8 {
        fill: #a34737;
      }

      .cls-9 {
        fill: #cf99ce;
      }

      .cls-10 {
        fill: #281a26;
      }

      .cls-11 {
        fill: #f0935d;
      }

      .cls-12 {
        fill: #bdeded;
      }

      .cls-13 {
        fill: #c12e4b;
      }

      .cls-14 {
        fill: #ddcfe4;
      }

      .cls-15 {
        fill: #f8ae89;
      }

      .cls-16 {
        fill: #7f2c86;
      }

      .cls-17 {
        fill: #dcbdd8;
      }

      .cls-18 {
        fill: #a66bb7;
      }

      .cls-19 {
        fill: #fbfbfc;
      }

      .cls-20 {
        fill: #cc5637;
      }

      .cls-21 {
        fill: #666;
      }

      .cls-22 {
        fill: #c386c3;
      }

      .cls-23 {
        fill: #fcf8e9;
      }

      .cls-24 {
        opacity: .2;
      }

      .cls-24, .cls-25 {
        fill: #7aebe9;
      }

      .cls-26 {
        fill: #a2d2de;
      }

      .cls-27 {
        fill: #ac4a30;
      }

      .cls-28 {
        fill: #c9892d;
      }

      .cls-29 {
        fill: #e6794d;
      }

      .cls-30 {
        fill: #efd870;
      }

      .cls-31 {
        fill: #c392c2;
      }

      .cls-32 {
        fill: #661b6a;
      }

      .cls-33 {
        fill: #90eaeb;
      }

      .cls-34 {
        fill: #d7643c;
      }

      .cls-35 {
        fill: #bfcbb8;
      }

      .cls-36 {
        fill: #95409b;
      }

      .cls-37 {
        fill: #78a850;
      }

      .cls-38 {
        fill: #29999b;
      }

      .cls-39 {
        fill: #353535;
      }

      .cls-40 {
        fill: #333;
      }

      .cls-41 {
        fill: #bb7ba0;
      }

      .cls-42 {
        fill: #320532;
      }

      .cls-43 {
        fill: #1d121b;
      }
    </style>
  </defs>
  <g id="GEOGRAPHY">
    <g>
      <path class="cls-35" d="M190.16,467.77v2c-16.83,0-33.67,0-50.5,0q-.75-1.5-1.5-3c17.19,1.8,34.75,2.58,52,1Z"/>
      <g>
        <g>
          <path class="cls-20" d="M186.97,194.37c-9.09,11.59-21.81,20.53-36,24.5-2.36-3.08-5.37-5.97-6-10-.45-2.9.19-7.89.5-11,.07-.73.15-4.25.5-4.86,12.44,2.19,27.65-1.76,38.5-7.64,1.21,2.88,1.66,6.03,2.5,9Z"/>
          <path class="cls-29" d="M188.97,199.87c.39,2.05.72,4.18,1,6.25-7.26,8.67-18.31,15.14-29,18.75-2.48.84-1.89.97-2,1-.74.17-.36.73-2.5-.5-.28-.16-1.31-.83-1.5-1-.26-.22-3.39-4.71-4-5.5,14.19-3.97,26.91-12.91,36-24.5.67,2.38,1.94,5.17,2,5.5Z"/>
        </g>
        <g>
          <path class="cls-11" d="M217.74,96.87s-6.44-19.74-10.08-25.56c-4.81-7.69-19.05-20.76-27.72-23.4-8.71-2.65-26.18-2.64-36.4-.73,0,0-32.82,1.73-41.14,39.7-.94,4.3,3.47,25.35-1.5,42.9-.09.32-.14.65-.14.98v7.55c2.59,9.21,3.89,21.19,12.53,31.65,7.61,9.21,31.57,23.86,35.88,24.27,2.26.08,9.06-1.41,19.05-5.59,9.16-3.84,22.2-12.35,27.89-20.52,2.79-4.01,12.29-22.94,10.07-25.68,7.3-3.43,16.67-4.19,16.67-15.97,0-5.05-2.94-19.94-5.1-29.59ZM117.35,145.06c1.03.09,2.08.13,3.16.11-1.03.04-2.09,0-3.16-.11ZM174.16,142.04c.99.49,2.08.94,3.27,1.35-1.16-.38-2.25-.83-3.27-1.35Z"/>
          <path class="cls-34" d="M222.63,126.28c.06-.09,1.34-1.31-1.39-12.61-.8-3.84-2.6-12.74-2.6-12.74,0,0-.45-.64-1.11-1.37-.54-.59-1.23-1.23-1.8-1.71-7.14-5.96-20.51-5.64-24.33-5.66-8.48-.09-16.76,1.17-20.81,6.02s-3.97,13.78-2.53,24.56c.31,1.3,1.12,4,1.08,3.36-.1-1.67,1.06-6.72,2.37-9.57,2.25-4.92,4.62-8.13,10.93-10.58,15.64-6.05,31.83,20.59,32.55,21.79-1.8,6.6-5.1,12.32-11.07,14.7,3.89.67-5.67,21.3-8.64,25.56-5.68,8.17-18.56,15.97-27.72,19.8-9.98,4.18-16.68,6.28-18.99,6.23.17.06.07.12.64.16,15.33,1.15,24.21-2.52,37.43-10,19.85-11.23,20.3-13.57,30.24-32.4,1.1-2.09,1.09-4.53,2.88-6.84.38-.49,9.73-1.54.72-7.92,13.28-19.13,20.35-3.89,12.96,6.48-6.8,9.55-18.62-4.15-10.8,11.88,25.69,5.04,20.19-57.31,0-29.16Z"/>
          <path class="cls-27" d="M222.63,155.45c-2.56-.5-3.24-2.94-5.76-3.6,1.1-2.09,1.09-4.53,2.88-6.84.38-.49,9.73-1.54.72-7.92,13.28-19.13,20.35-3.89,12.96,6.48-6.8,9.55-18.62-4.15-10.8,11.88Z"/>
        </g>
        <path class="cls-15" d="M101.05,137.04c3.5,16.27,5.03,23.58,11.87,32.34,4.4,5.63,24.09,20.16,35.68,24.72-5.49-.09-34.05-16.97-40.23-24.75-6.68-8.4-8.31-18.44-8.47-25.05-.04-1.66.29-4.97.48-6.62.08-.68.39-2.73.39-2.73,0,0,.18,1.59.29,2.09Z"/>
        <path class="cls-29" d="M110.29,100c-1.88.06,1.36-4.44,2.23-6.28,1.06-2.92,1.12-6.36,2-9.25,6.04-19.79,23.82-27.78,10.5-24.25-10.51,2.79-20.82,35.08-21.94,44.67,0,.01.18,6.15.18,6.15,2.51-3.22,3.62-4.22,7.97-6.63,8.46-4.67,18.39-1.27,22.4,9.26.04.12,2.35,10.41,2.39,11.24.02.42.04-9.38.19-10.88-.96-13.22-15.39-14.39-25.92-14.04Z"/>
        <g>
          <path class="cls-29" d="M100.78,135.33c-10.31,3.67-5.4,11.06-2.85,18.16-12.38-9.8-7.4-25.37-2.57-25.81.6-.05,2.57-.04,3.82.89,1.15.86,1.63,1.73,1.63,1.73,0,0,0,3.37-.04,5.02Z"/>
          <path class="cls-34" d="M98.65,130.45c.86-.04,2.13,1.32,2.1,4.07-.03,2.31-.95,7.35-.78,11.64,0,0,.48,5.68,1.6,9.55-1.36-.54-2.49-1.3-3.64-2.21-2.55-7.1-9.59-19.37.72-23.04Z"/>
        </g>
        <g>
          <path class="cls-10" d="M293.85,148.94c-.14-.13-.31-.32-.48-.48-.31-18.33-12.21-12.48-19.34-17.19-4.6-3.04-7.83-19.38,14.08-18.38,5.56,7.95-13.96,6.35-11.94,10.5.48.99,15.1,6.07,17.19,8.59,3,3.63,2.98,13.91.48,16.95Z"/>
          <path class="cls-43" d="M47.03,132.71c-.77,1.33-4.97,3.92-3.34,11.94-5.77-2.09-14.97-2.67-13.84-10.74,1.81-13.02,15.73-1.17,17.19-1.19Z"/>
          <path class="cls-43" d="M59.44,115.04l.95,8.83q-6.68,4.42-13.37,8.83c.54-.92,2.18-2.06,2.39-2.63,2-5.39-4.36-9.36-3.82-14.8l13.84-.24Z"/>
          <path class="cls-43" d="M301.01,80.19c-4.37-2.21-5.02-1.55-9.55-2.63,2.76-7.37,4.11-10.61,0-17.43-.52-.4-.64-.5,0,0-3.84-6.37-10.77-9.34-17.9-6.21-2.75-.54.94-5.86-9.79-11.7,8.37-15.47-11.31-28.07-21.24-13.61C224.92,8.83,200.28.05,175.69,13.35c-16.73-18.96-48.35-16.68-65.64.24-1.68,1.64.06,3.99-12.65,9.31-1.97.09-9.93-10.8-21.24-1.43,0,0,0,0,0,0-2.89,2.39-5.59,6.4-5.73,10.26-.03.76,1.65,8.46,1.91,8.83-1.18.2-2.31.87-3.34,1.43-7.68,4.19-5.16,3.47-8.83,10.98-18.35-1.5-25.18,16.33-12.17,28.88-2.57.83-5.11,1.11-7.64,2.15-1.99.82-3.19,1.37-4.77,2.86-9.07,8.54-4.83,20.54,5.73,25.06.64,1.79-3.89,4.36,0,13.37-18.05-2.07-24.49,18.34-7.64,26.26-3.6,8.83,2.84,20.44,12.65,16.95,7.94,7.76-1.98,7.84-.24,18.86,1.36,8.6,13.51,14.07,20.77,8.83,10.25,4.27,5.3,4.94,8.83,9.79,4.51,6.19,15.68,5.61,20.77.24,1.38.31.67,13.47,19.1,10.98,4.44-7.84,5.94-2.38,12.89-5.73,5.18-2.5,5.11-9.42,10.26-4.77,2.74-3.89,3.15-8.08,6.93-11.28.07-.7.14-1.4.21-1.99-6.38-2.21-25.4-13.42-31.26-18.43-9.34-7.98-13.33-20.37-13.01-19.3-1.36-.54-2.49-1.3-3.64-2.21-12.38-9.8-7.4-25.37-2.57-25.81.6-.05,2.57-.04,3.82.89,1.13.85,1.61,1.7,1.63,1.73.9-3.64,1.92-8.38,2.1-11.67.91-5.89.92-15.31.93-15.49.51-7.83,10.9-38.47,20.04-42.53,5.38-2.39,10.25,1.5,16.95-8.12,21.88,12.34,30.33-2.24,31.99-2.86,6.58-2.47,8.32,5.19,8.83,5.49,13.69,7.91,27,21.42,30.54,26.98.47.73,2.46,5.84,3.64,9.46,3.7,11.31,6.79,34.73,6.79,34.73,0,0,3.9-5.64,7.37-6.78-.07-.05,3.66-1.35,6.46,1.78,5.22,5.85,4.58,25.77-3.74,31.97-4.96,3.7-10.25,2.94-13.43,0-1.22-1.12-2.42-1.4-2.42-1.4,0,0-.35.73-1,1.91-1.55,2.8-5.42,11.17-9.33,15.71-7.98,9.27-15.7,11.85-22.05,15.97.87,3.22,1.58,5.68,2.38,8.52.64,2.27,1.85,4.93,1.91,5.25,5.45.54,7.16,3.77,10.08,5.58.54.34,3.43.86,4.54.95,6.7,13.18,24.45,10.16,28.64-3.82,9.21,9.72,23.29,11.63,27.21-3.82,7.01.07,11.98.74,16.71-5.25,17.53,1.89,24.17-15.7,11.7-27.45l5.97-7.88c5.9,1.47,11.45.11,14.56-5.25,3.95-6.8,2.04-13.9-4.3-18.38,1.49-16.72-7.49-16.8-8.12-17.66-2.99-4.15,5.51-3.75,10.03-9.07,6.81-8.02,4.79-22.13-4.77-26.97"/>
          <path class="cls-10" d="M53.23,152.28c-.27.1-1.5,1.75-5.01,2.86-.56-.14-4.42-9.94-4.54-10.5-1.63-8.01,2.57-10.6,3.34-11.94q6.68-4.42,13.37-8.83l-.95-8.83c.1-2.73-8.04-6.86-13.37-10.5-2.1-4.42-1.05-9.85,1.91-13.84,8.45-3.78,19.02-1.63,19.1-7.88,0-.5-2.12-5.75-2.39-9.79-.72-10.74,14.06-12.77,15.28-14.08.5-.54,1.74-5.63,1.91-6.92,1.36-2.12,3.22-3.78,4.77-5.73,2.19-2.75,3.56-.4,1.91-8.83,15.43-17.14,14.53-10.69,36.04-7.88,3.21-.75,3.19-14.58,10.03-15.75,9.57-1.64,12.02,10.31,8.12,13.37-3.67,2.88-3.2-2.58-6.68-7.64-3.78,22.62-17.69,15.12-34.85,12.89-8.46,5.82-4.47,10.16-5.49,13.13-.28.81-7.63,7.08-8.12,8.12-3,6.43,5.2,5.22-16.71,16.71-2.36,5.97,9.05,16.27-6.92,23.15-4.57,1.97-16.64,2.16-13.37,6.21,2.66,3.28,15.27,6.03,15.99,17.43,1.43,22.72-26.97,10.24-13.37,35.09Z"/>
          <g>
            <g>
              <path class="cls-10" d="M188.1,15.26c12.02-1.13,20.75,19.49,43.44,11.94,11.03,14.64,20.32,10.14,15.52,27.93,2.48,1.22,11.9,9.52,12.65,9.79,5.27,1.89,20.78-2.81,15.99,16.47,4.52,1.56,20.47,7.85,22.44,11.46,2.26,4.16.7,12.42-4.06,14.08-11.08,3.87-.82-9.16-1.19-10.74-11.93-10.93-28.55-.8-21.96-23.39q-6.33-.6-12.65-1.19c-8.03-10.55-12.63-7.74-15.52-11.22-7.65-9.25,11.94-21.6-18.86-17.43q-1.19-4.06-2.39-8.12c-11.72.38-21.94-6.33-31.03-12.89-4.05-.29-16.38,7.73-13.61-.72.59-1.81,9.15-5.77,11.22-5.97Z"/>
              <path class="cls-42" d="M232.98,32.93c2.95-.22-2.46,2.06-3.34,2.39-11.48,4.18-3.32-1.9,3.34-2.39Z"/>
            </g>
            <path class="cls-1" d="M134.63,13.83c-6.84,1.17-6.82,15.01-10.03,15.75-21.51-2.82-20.61-9.27-36.04,7.88,1.65,8.43.28,6.08-1.91,8.83-1.55,1.95-3.41,3.61-4.77,5.73h0c-.17,1.29-1.41,6.38-1.91,6.92-1.22,1.32-16,3.34-15.28,14.08.27,4.04,2.39,9.28,2.39,9.79-.07,6.25-10.64,4.1-19.1,7.88-2.96,3.99-4.01,9.42-1.91,13.84,5.33,3.64,13.47,7.78,13.37,10.5q-6.92.12-13.84.24c-.54,5.44,5.82,9.41,3.82,14.8-.21.57-1.85,1.7-2.39,2.63-1.46.02-15.38-11.82-17.19,1.19-1.12,8.08,8.08,8.65,13.84,10.74.11.56,3.98,10.36,4.54,10.5,3.52-1.11,4.74-2.77,5.01-2.86-13.6-24.85,14.8-12.37,13.37-35.09-.72-11.4-13.34-14.14-15.99-17.43-3.27-4.05,8.8-4.24,13.37-6.21,15.97-6.89,4.57-17.19,6.92-23.15,21.91-11.49,13.71-10.28,16.71-16.71.48-1.03,7.84-7.31,8.12-8.12,1.03-2.97-2.97-7.31,5.49-13.13,17.16,2.23,31.07,9.73,34.85-12.89,3.48,5.05,3.01,10.51,6.68,7.64,3.9-3.06,1.45-15.01-8.12-13.37Z"/>
            <path class="cls-1" d="M276.19,123.4c-2.02-4.15,17.5-2.56,11.94-10.5-21.91-.99-18.69,15.34-14.08,18.38,7.12,4.71,19.02-1.14,19.34,17.19.17.16.33.34.48.48,2.5-3.03,2.52-13.32-.48-16.95-2.09-2.52-16.71-7.61-17.19-8.59Z"/>
          </g>
        </g>
        <g>
          <path class="cls-23" d="M135.1,121.71c-.5-1.47-1.36-5.17-5.73-9.43-2.82-2.75-5.81-4.38-7.96-4.74-1.44-.2-2.74-.16-3.92.02-2.25-.1-5.68,1.45-7.92,3.23-5.87,4.68-4.57,12.46,1.08,15.84.25.15.53.29.82.43,3.24,1.76,5.75,1.8,9.2,1.91,0,0,6.24.41,14.03-2.74.47-.19,1.41-.71,1.41-.71,0,0-.22-2.03-1.01-3.82Z"/>
          <path d="M103.72,107.58c2.64,2.22,6.39-6.16,17.05-5.19,8.72.79,15.56,12.06,15.24,22.28-1.16-2.08-2.23-5.18-2.57-5.54-.05-.06-.18.02-1.29-.86,1.16-4.03-6.96-10.25-10.73-10.73-6.55-.85-10.77,2.43-13.74,7.73-.14.25-.58,1.17-.86,2.15-1.13,3.97,1.02,7.74,4.65,9.65-.74,0-3.81-1.99-4.23-2.35-4.02-3.43-7.61-12.5-7.56-18.15-.1-1.1.31-4.58.83-3.19.99,2.65,2.45,3.56,3.2,4.2Z"/>
          <path d="M120.44,120.44c1.9-.49,2.53-3.14,2.21-4.87,11.2-1.45,3.91,16.24-2.21,4.87Z"/>
          <path class="cls-5" d="M133.45,120.1c0-.2-.04-.38-.05-.58,0-.14,0-.27,0-.41,0,0-.02-.02-.04-.02-.84-6.6-8.39-11.1-11.98-11.57-.36,1.44-2.68,2.49-3.43,3.86-.15.27-.81,2.12,0,2.15,2.03-.08,2.65.33,3.43.43.07.43,1.27,1.61,1.29,1.72,10.87-1.4,3.79,15.75-2.15,4.72-2.27.58-4.3-1.57-4.72-.64.81,3.73,1.27,6.93,4.72,8.8,1.25.67,3.25.49,7.72-.31,3.74-.67,4.99-4.57,5.14-8.2.02.01.05.04.06.05Z"/>
          <path class="cls-23" d="M185.25,110.69c.9-.18,3.78-.53,5.05-.47,2.94.16,5.9,2.18,5.9,2.18,7.28,5.07,10.16,9.31,3.22,16.31-.69.31-2.85,1.25-3.01,1.29-5.74,1.41-21.22,1.35-27.05-2-.02,0-.03-.02-.05-.03-.3-.17-.26-2.91.05-3.98,3.45-6.78,7.95-12.16,15.89-13.31Z"/>
          <g>
            <path d="M205.43,114.56c2.17,1.76,3.7.7,5.24-1.17.9-.99.81-1.56,1.05-1.23.27.39.27,1.84-.33,3.75-1.37,4.31-5.27,9.83-11.96,12.82,6.94-7.01,4.06-11.25-3.22-16.31,0,0-1.92-1.42-5.58-2.15-1.82-.36-3.59.17-5.37.43-7.94,1.15-12.44,6.53-15.89,13.31,1.51-13.76,12.07-22.65,26.4-17.6,5.73,2.02,8.22,6.99,9.66,8.16Z"/>
            <path class="cls-5" d="M198.56,118.85c-.19-2.4-3.14-7.78-7.94-8.59-1.83-.31-3.59.17-5.37.43-4.27,6.01-2.22,3.07,1.5,4.29.41.13,1.13.82,1.5,1.29.24.3,1.52.19,3.86.86,4.97,5.8-3.02,11.68-6.44,4.72-1.91.28-4.19-1.74-4.29-1.5.28,14.31,18.69,12.68,17.17-1.5Z"/>
            <path d="M192.12,117.13c4.97,5.8-3.02,11.68-6.44,4.72,2.32-.34,3.84-3.51,2.58-5.58,1.66-.19,2.83-.01,3.86.86Z"/>
          </g>
        </g>
        <path class="cls-2" d="M229.59,150.67l1,2c1,2-3,3-3,3-1.16.37-2,1-3,0l1-5c1-2,3.66-.46,4,0Z"/>
        <g>
          <path class="cls-12" d="M230.59,158.67c0-2,0-5-1-6s-1.79-2.03-3-1c-.85.72-1.85,4.6-2,7-.05.8.36,3.41,1.05,3.95,1.97,1.52,3.28,1.28,3.96.21,1.99-3.16.99-2.77.99-4.16Z"/>
          <path class="cls-25" d="M231.14,157.87c-.22-2.79-.45-4.83-1.55-5.2-3-1-1,3-4,5-1.18.78-.56,3.32,0,4,3.39,4.13,5.76-1.04,5.55-3.8Z"/>
        </g>
        <g>
          <path d="M102.32,93.49c-.32-.04-.57-.26-.4-.54,1.23-1.98,4.66-7.32,6.9-8.78,2.26-1.48,9.41-4.96,14.55-3.99,4.03.76,4.14,4.49,4.17,6.11,0,.03-.02.06-.05.08-2.65,1.53-4.4.39-8.93.03-1.75-.14-3.24-.01-4.87.46-2.57.74-4.87,2.4-7.04,4.87-.66.75-2.7,1.96-4.34,1.76Z"/>
          <path d="M202.46,86.32c.11.55,2.3,3.22,2.88,5.4l-1.08,1.08c-14.83-10.29-26.1-.3-29.16-7.2,2.55-2.21,3.17-11.87,27.36.72Z"/>
        </g>
        <g>
          <path class="cls-20" d="M161.43,143.02c1.79,8-20.24,11.31-20.88,2.16,5.6,5.57,14.97,2.25,20.88-2.16Z"/>
          <g>
            <path class="cls-13" d="M179.79,149.5c2.64.26,5.03,1.58,6.12,3.96-8.51.6-12.2,25.11-29.16,27.72-25.18,3.88-14.91-25.59-27.72-19.8.7-9.31,39.85-.3,54.01-8.64l-3.24-3.24Z"/>
            <path class="cls-19" d="M174.75,158.15c4.44-.62-4.85,8.34-6.48,9.36-9.07,5.7-30.73,7.42-30.24-4.32,15.16,3.57,34.64-4.75,36.73-5.04Z"/>
          </g>
          <path class="cls-15" d="M145.23,139.42c2.21,1.67,5.3,2.24,5.4,2.52,1.58,4.52-6.69,4.93-5.4-2.52Z"/>
        </g>
        <g>
          <path class="cls-24" d="M141.74,112.71c0,15.74-15.3,27-28,27s-19-10.26-19-26,9.3-22,22-22,25,5.26,25,21Z"/>
          <path class="cls-24" d="M220.74,113.9c0,22.81-17.9,29.81-32.77,29.81s-22.23-11.33-22.23-28.71c0-20.29,10.88-24.29,25.74-24.29,19.26,0,29.26,5.81,29.26,23.19Z"/>
          <g>
            <path d="M225.74,122.71c4.16-9.68-4.33-20.72-5.73-23.8-2.17-4.77-6.05-8.24-9.27-9.2-2-.6-6-1-13-1-6,0-29-3-34.5,13.71-7.21-3.06-12.58-2.59-20-1-1.5-2.71-5.52-11.66-20.5-12.71-1.93-.13-9.16-.71-16,1-8,2-7.86,2.86-10,5-2.22,2.22-4.6,9.78-5,18-.35,7.04,2,17,3,19,.63,1.26,3,6,5.75,7.46,8.64,4.97,15.01,4.96,21.25,4.54,15-1,26.35-18.47,26-32.79,21.23-1.93,7.52,3.43,18.25,22.75,2.56,4.62,9.75,11.04,16.75,13.04,4.9,1.4,14.82,1.78,23-2,13-6,17.7-16.64,20-22ZM139.49,115.42c-.26,7.54-3.33,13.47-8.14,17.34-6.18,4.97-15.23,6.52-24.86,3.66-5.75-1.71-7.78-6.29-8.75-8.71-4-10,0-24,1-27,1.92-5.77,10.39-7.67,16-8,8.61-.51,17.34.25,21.75,8.71,2.09,4,3.16,9.45,3,14ZM172.49,133.67c-3.52-4.73-5.36-13.94-5.5-19.75-.37-15.93,5.18-19.09,20-20.5,5.57-.53,11.46-.87,17,0,.81.13,2.43.35,3,.5,2.12.56,4.25,1.34,5.79,2.84.47.46,4.36,5.98,5.96,16.95.49,3.39,0,8-1.72,12.65-.01.02-.02.03-.04.05-8.92,20.35-36.11,18.5-44.5,7.25Z"/>
            <path class="cls-39" d="M239.45,107.93c-.51-.71-12.85-7.97-15.03-8.89-2.45-1.04-4.78-2.3-5.2-1.97.57,2.38,7.75,12.97,7.56,18.78-.03.91,1.94,1.11,1.94,1.11l.1-.78c9.11.38,12.15-1.51,15.04.62-.21-1.64-3.59-7.73-4.4-8.87Z"/>
            <g>
              <path class="cls-3" d="M93.05,103.44q-5,2.25-10,4.5c-.53-1.11-2.64-9.66-1.25-10.5,22.79-3.44,17.71-10.26,11.25,6Z"/>
              <path d="M93.05,103.44q-.62,5-1.25,10c-3.24-2.09-6.93-1.68-8.75-5.5q5-2.25,10-4.5Z"/>
            </g>
            <path d="M237.97,123.36c.37-.18,4.84-5.6,5.88-6.56-2.73-2.01-5.98-.95-13.59-.61-9.56-.34-10.25-3.54-10.25-3.54l.63,3.1c-.08.54.19,2.49.46,4.47l4.41,2.9c3.7-3.78,5.28-4.79,9.33-3.29,2.07,1.2,2.74,2.94,3.13,3.54Z"/>
          </g>
        </g>
      </g>
      <g>
        <path class="cls-41" d="M244.16,347.27c-.49,3.23-.18,6.74-1.5,7-.24-6.11-2.71-7.86-2.5-8.25.76-1.42,3.78,2.67,3.5-1.25h.5v2.5Z"/>
        <g>
          <path class="cls-32" d="M211.79,379.27c8.35,1.74,16.09,5.31,23.08,10.24-1.98-5.89-4.27-11.66-7.22-17.24-4.15-3.27-9.55-6.45-15.19-9.65-.17,3.98-.35,7.96-.52,11.95-.03.74-.05,1.47-.08,2.21.26.25.51.48.79.75-.27.05-.54.08-.82.12-.02.54-.03,1.09-.05,1.63Z"/>
          <path class="cls-32" d="M281.66,373.77c-4.66,15.46-24.61,18.75-37.75,12.5-5.17-2.46-8.54-7.6-12.75-11q2.25.5,4.5,1c1.22,1.73,3.6-4.38,4.25-4.5.3-.06,4.18,3.18,5,3.5,8.91,3.51,30.42,7.62,36.75-1.5Z"/>
          <path class="cls-32" d="M252.16,332.52q-11-3.12-22-6.25c-.1,3.24.07,6.5,0,9.75q-4.25-.25-8.5-.5c3.36-3.24,6.53-8.41,7.5-13l1,2.75c.18-9.36-.57-18.57-3.75-27.5-2.19.31,10.51,23.9-13.09,35.39,0,.96-.01,1.91-.02,2.87,7.21,1.18,13.36,4.6,21.11,6.72.53.14,2-2,9.25,1.52-1.6-5.28-25.07-8.87,8.5-11.75Z"/>
          <g>
            <path class="cls-36" d="M266.66,290.52c-4.49-16.75-5.27-36.66-17-50.5-9.2-10.86-19.05-10.52-27.25-11.72-3.85,6.23-8.36,12.06-13.53,17.78-1.24,1.37-2.51,2.68-3.81,3.95,2.43,6.82,3.71,14.09,4.03,21.25.13,2.8-.05,5.68-.49,8.58,3.03,17.4,4.72,34.96,4.7,52.62,0,.23,0,.46,0,.69,23.6-11.49,10.91-35.08,13.09-35.39,3.18,8.93,3.93,18.14,3.75,27.5,0,.33.01.67,0,1q11,3.12,22,6.25c-33.57,2.88-10.1,6.47-8.5,11.75.04.13-.01.33,0,.5h.5c1.39,1.2.02,2.38,0,2.5-.49,3.23-.18,6.74-1.5,7,.2,5.05-1.37,9.38-3,14-1,2.82-1.69,5.8-4,8,1.23,1.73,3.6-4.38,4.25-4.5.3-.06,4.18,3.18,5,3.5,8.91,3.51,30.42,7.62,36.75-1.5,2.07-16.83-2.89-28.59-17.5-37.25,4.19.1,14.15,8.65,16,11.5,2.46,3.79,1.67,11.17,3,5.25-1.47-12.72-12.44-47.61-16.5-62.75Z"/>
            <g>
              <path class="cls-16" d="M283.16,353.27c.62,5.36,1.58,16.07-1.5,20.5,2.07-16.83-2.89-28.59-17.5-37.25,4.19.1,14.15,8.65,16,11.5,2.46,3.79,1.67,11.17,3,5.25Z"/>
              <path class="cls-16" d="M239.91,334.77c7.16.98,13.01,1.04,19.75,3.75-5.65-.58-18.52-1.09-19.75-3.75Z"/>
              <path class="cls-32" d="M244.16,347.27v-2.5c1.39,1.2.02,2.38,0,2.5Z"/>
            </g>
          </g>
        </g>
      </g>
      <path class="cls-30" d="M188.13,332.53c.53.28,2.38-.03,2.5,0,1.47.35,2.91,1.19,4.5,1,.27,1.41.49.94.5,1,1.19,10.16-2.94,10.15-11.5,7,1.15-1.83,1.77-8.97,4-9Z"/>
      <g>
        <g>
          <path class="cls-7" d="M190.43,467.49c-17.25,1.58-91.19-26.61-87.03-9.82.25,1.01,4.19,17.73,8,21,7,6,43,8,67,7,14.33,0,54.02-11.14,55.03-16.18.97-4.82,1-6,2-12-14.1,5.2-30.06,8.63-45,10Z"/>
          <path class="cls-28" d="M163.72,485.91l-1.33-10.67s2.67,10.67,4,10.67h-2.67Z"/>
        </g>
        <path class="cls-29" d="M159.84,224.41c.71,3.53,2.55,6.76,4.23,9.87.53,2.76-4.38.74-7.75,1.41-6.76,1.35-7.99,7.91-3.52-3.52,1.12-2.87,2.56-5.54,3.52-8.46,3.02,1.74,2.48.94,3.52.7Z"/>
        <g>
          <path class="cls-36" d="M228.52,318.56s2.01-1.33,2-1c.79.22,24.08-24.13,27-32,.78-2.09,5-16,3.64-22.19-2.22-8.65-5.33-16.92-11.1-23.73-11.06-13.05-23.06-9.92-32-12.75-2.06,4.39-4.56,8.65-7.5,12.5-1.79,6.55-15.09,23.07-21.75,23.5-9.38.61-14.95-13.49-21.25-17.5.77,7.01-1.52,13.2-8,16.75.27,1.15,3.33-2.49,4,2.75,4.99-2.53-2.85,6.03-6.25,6.5-7.5,1.03-10.54-8.74-11.25-14.75-.29-2.47-.34-9.47,1-8.75-.4-5.91,2.16-10.9,5-16-.53.21.22-1.48-3,1.75-3.25,3.26-20.49,27.48-22.25,27.75-.29.04-5.13-2.48-5.25-2.75-1.4-3.12-.03-30.67-2.75-32.25-.73-.42-3.62.87-3.25-1-7.49.57-11.19.92-18.25,5-10.18,5.89-20.87,23.02-18.25,28.25,3.46,6.92,12.46,17.92,19.46,23.92,1.88,1.61,3.84-.93,4.94-2.87-3.33,7.68-9.15,19.78-7.94,29.87,1.37,11.43,6.94,17.95,11,21,2.73,2.05,9,4,9,4,0,0,5.05,5.22-1,15-2.44,3.95-9.95,14.22-18.96,37.33-4.86,19.13-8.8,38.44-11.5,58-.3,2.14-.09,4.45-1,6.5,14.74,9.85,38.13,13.18,55.5,15,17.19,1.8,34.75,2.58,52,1,14.94-1.36,30.9-4.79,45-10,4.67-1.72,10.18-4.03,14.5-6.5-2.17-15.61-5.7-30.88-10-46-3.23-11.34-6.45-22.5-12-33-7.44-5.87-5.13-31.09-3.95-43.02l4.42-10.3Z"/>
          <path class="cls-32" d="M224.52,322.56c.04.06.06.13.09.21-.01-.17-.04-.24-.09-.21Z"/>
          <path class="cls-32" d="M224.61,322.78c.02.22,0,.59-.03,1.11.11-.46.12-.84.03-1.11Z"/>
        </g>
        <path class="cls-32" d="M227.92,369.99c-4.87-6.97-4.71-26.63-3.53-39.53,2.34-3.03,4.3-6.79,5.03-10.22.97-3.58.43-15.82-2.75-24.75-1.58.23,4.64,12.67-.78,23.88-2.11,2.97-4.93,6.89-9.43,9.94-2.21,1.34-4.8,2.56-7.86,3.61-5.94,1.64-13.75,1.73-24.21-1.26.64.18,35.3,40.12,43,56,7.48,15.45,16.24,62.78,15,67,.46-.1,6.78-3.39,10-5,2-1-2.74-48.58-24.47-79.67Z"/>
        <path class="cls-32" d="M121.43,335.99c5,0,10-3,10-3-6,3-16.04,1.67-16.04,1.67,0,0,1.12,1.84,1,5-.12,3.34-1.54,8.12-3.96,12.33-4,6.95-7.14,12.93-9.58,17.88-2.76,4.78-4.86,10.17-6.12,13.6-.92,2.33-1.31,3.52-1.31,3.52-4.86,19.13-9.34,45.12-12.04,64.67,6.62,4.02,7,4,7,4,0,0-3.25-21.94,2.02-42.41,7.46-28.98,19.64-41.24,22.98-46.59,15-24,6.04-30.67,6.04-30.67Z"/>
        <path class="cls-32" d="M90.52,274.56s7,3,13-1c6.13-4.09-3,13-3,13,0,0-6.11-5.26-10-12Z"/>
        <path class="cls-14" d="M156.48,291.28c-3.13,1.02-3.92-4.65-1-5,2.63-.31,3.1,4.32,1,5"/>
        <path class="cls-14" d="M156.48,311.28c-3.13,1.02-3.92-4.65-1-5,2.63-.31,3.1,4.32,1,5"/>
        <g>
          <path class="cls-32" d="M156.55,224.89c-.68,2.07-1.7,3.96-2.5,6-1.83-.3-1.9.96-2,1-.53.21.22-1.48-3,1.75-3.25,3.26-20.49,27.48-22.25,27.75-.29.04-5.13-2.48-5.25-2.75-1.4-3.12-.03-30.67-2.75-32.25-.73-.42-3.62.87-3.25-1,2.03-.15,3.94.87,6,.5-.58,8.83-.24,18.16,6.75,24.5.41,0,3.62-3.92,4.25-4.5,6.77-6.24,12.8-13.26,19.5-19.5.93-.87,2.32-1.39,3-2.5.19.17,1.22.84,1.5,1Z"/>
          <path class="cls-32" d="M147.06,247.89c.06.91-.04,1.84,0,2.75.18.49,1.14.92,1.5,1.25-4.75,6.42,6.79,10.22,2.75,9.5-.51-.09-1.95-1.38-2.5-2,2.35,8.5,7.18,9.34,14.75,5.5,4.99-2.53-2.85,6.03-6.25,6.5-7.5,1.03-10.54-8.74-11.25-14.75-.29-2.47-.34-9.47,1-8.75Z"/>
          <g>
            <path class="cls-22" d="M199.57,208.91c2.5,7.39,10.09,15.33,18.49,17.99-2.06,4.39-4.56,8.65-7.5,12.5-3.73,4.89-16.44,18.28-22.75,17.5-5.61-.69-23.98-26.03-26.75-32.5,10.69-3.61,21.25-9.81,28.51-18.49-.28-2.07-1.61-5.95-2-8,5.71.57,8.95,9.11,12,11Z"/>
            <path class="cls-32" d="M161.05,224.39c2.77,6.47,21.14,31.81,26.75,32.5,6.31.78,19.02-12.61,22.75-17.5-1.79,6.55-15.09,23.07-21.75,23.5-9.38.61-16.73-11.55-21.25-17.5-1.99-2.61-2.26-3.47-2.99-5.61-.43-1.28-.48-1.79-1-3-1.09-2.53-1.4-4.18-1.51-4.39-1.19-2.2-2.49-4.5-3-7,.11-.03-.48-.16,2-1Z"/>
            <g>
              <path class="cls-18" d="M145.06,208.39c-1.42-.22-1.75,4.51-2.5,7-2.73,9.06-10.13,26.79-10.5,28.25-.16.62-.16,2.32.5,2.25-.63.58-3.84,4.5-4.25,4.5-6.99-6.34-7.33-15.67-6.75-24.5,6.55-3.95,11.23-9.94,15.5-16,2.87-4.07,4.54-9.14,8.5-12.5-.31,3.11-.95,8.1-.5,11Z"/>
              <path class="cls-22" d="M152.05,226.39c-6.7,6.24-12.73,13.26-19.5,19.5-.66.07-.66-1.63-.5-2.25.37-1.46,7.77-19.18,10.5-28.25l9.5,11Z"/>
              <path class="cls-9" d="M145.06,208.39c.63,4.03,3.64,6.92,6,10,.61.79,3.74,5.28,4,5.5-.68,1.11-2.07,1.63-3,2.5l-9.5-11c.75-2.49,1.08-7.22,2.5-7Z"/>
            </g>
          </g>
        </g>
        <g>
          <path class="cls-17" d="M167.57,245.78c.77,7.01-1.66,12.91-8.14,16.46.27,1.15,3.33-2.49,4,2.75-7.57,3.84-12.4,3-14.75-5.5.55.62,1.99,1.91,2.5,2,4.04.72-7.5-3.08-2.75-9.5,1.1.99,9.96,4.57,10.75,4,.98-.71-.66-3.37-.25-4.75.3-1.02,3.05-1.61,4-3,1.53-2.24.81-6.54,3-8.25.72,2.14,1.37,3.34,1.64,5.79Z"/>
          <path class="cls-17" d="M153.93,230.99c-3.17,8.11-2.29,3.46,2.5,2.5-5.47,4.24-3.9,6.84-3.25,13,5.58-11.84,6.28,4.99,7.25-7.25l4-2.75c.52,1.21,1.07,2.22,1.5,3.5-2.19,1.71-1.47,6.01-3,8.25-.95,1.39-3.7,1.98-4,3-.41,1.37,1.23,4.04.25,4.75-.79.57-9.65-3.01-10.75-4-.36-.33-1.32-.76-1.5-1.25-.04-.91.06-1.84,0-2.75-.4-5.91,2.16-10.9,5-16,.1-.04.17-1.3,2-1Z"/>
          <path class="cls-31" d="M164.43,236.49l-4,2.75c-.97,12.24-1.67-4.59-7.25,7.25-.65-6.16-2.22-8.75,3.25-13,2.39-.48,5.88.95,5.5-1,.11.21,1.41,1.47,2.5,4Z"/>
        </g>
      </g>
      <path class="cls-32" d="M196.74,366.51c-10.44-8.41-35.24-4.02-60.82,15.05-4.01,2.99-3.86-19.02-8.51-18.81-22,1-36,29-36,45,0,18.41-11.5,36.62-6,44,.57.76,5,4,8,5,14.62,4.87,64.27-16.8,86-33,25.58-19.06,35-43,17.33-57.24Z"/>
      <path class="cls-32" d="M149.4,394.74l-28-34,52-45,15,38-19,13v5s4,1,12,1,14,7,14,7l-33,12-13,3Z"/>
      <g>
        <path class="cls-33" d="M18.7,245.71c2.17-3.63,4.97-6.77,7.81-9.86,3.5-3.8,7.32-7.24,11.54-10.22.42.1.72-.18,1.05-.33,1.73-.81,3.52-1.41,5.45-1.48,2.33-.08,3.83.97,4.35,3.05.29,1.13,0,1.91-1.24,2.29-1.36.41-2.68.95-4,1.47-.42.16-.99.34-.85.96.11.51.55.76,1.06.82.37.05.76.08,1.13.05.85-.07,1.8-.35,2.24.68.48,1.11,1.11,2.23.16,3.46-.75.97-1,2.18-.92,3.38.2,2.92.57,4.88,4.2,2.88.12-.07.25-.14.39-.18,2.07-.68,4.07-.86,5.94.61.71.56.97,1,.4,1.87-.62.94-1.12,1.99-1.5,3.06-.92,2.56.19,4.42,2.87,4.89,1.46.26,2.93.02,4.4-.04,2.03-.08,3.32-1.13,3.85-2.98.62-2.15,1-4.3-.86-6.22-1.71-1.77-2.28-4.01-1.94-6.45.11-.76.11-1.5.02-2.26-.3-2.41.77-3.49,3.22-3.2.92.11,1.79-.05,2.68-.19.94-.14,1.26-.76,1.18-1.63-.09-.96-.63-1.46-1.61-1.41-.71.04-1.42.18-2.13.18-.84,0-1.74.27-2.63-.34,1.5-1.21,3.19-1.73,4.83-2.32,1.39-.5,2.34-1.08,1.56-2.73.64-.12,1.06.14,1.5.28,1.99.63,3.95,1.4,6.07,1.41,1.57,0,2.92-.47,3.68-1.95.33-.63.47-1.28-.59-1.44-.63-.1-1.11-.5-1.48-1.03-.54-.78-.76-1.23.59-1.38,3.47-.39,6.44-1.97,8.84-4.47.84-.88,1.62-1.48,2.85-1.31,0,0,0-.02,0-.02.14.03.27.05.41.08,0,0-.02,0-.02,0,.14.03.28.07.42.1l.35.09c.27.25.58.44.97.4h0c1.34,1.24,1.48,2.3.46,3.87-.91,1.4-2.12,2.54-3.34,3.67-1.17,1.09-2.06,2.32-2,4.06.18,5.59-4.8,9.76-10.29,8.6-1.05-.22-1.97-.07-2.84.53-2.46,1.71-3.41,4.3-3.8,7.06-.51,3.57-2.28,6.5-4.37,9.27-.64.85-.74,1.45-.24,2.27.34.56.7,1.06.54,1.83-.31,1.45-.08,2.94.87,4.05,1.95,2.27,3.07,4.71,2.54,7.77-.07.4.09.85.21,1.25.55,1.92,1.36,3.74,2.13,5.57,1,2.41,2.5,4.3,5.01,5.32,1.05.43,1.92,1.23,2.46,2.29.65,1.27,1.65,1.93,3.1,1.8.39-.03.74-.02.97.39,1.01,1.75,2.53,1.71,4.22,1.22,5.47-1.59,10.52-4.01,15.09-7.44,1.24-.93,2.09-2.02,2.41-3.54,1.02-5,3.45-9.3,6.66-13.21,1.93-2.34,4.22-4.18,7.39-3.74,2.66.37,5.17.24,7.67-.67.35-.13.74-.17,1.11-.23,2.83-.41,5.55-.16,8.15,1.21,2.07,1.09,2.63,2.95,3.22,5.01.68,2.39,2.62,4.01,4.4,5.65,1.08,3.01,1.41,6.18,1.77,9.31,1.12,9.75.73,19.47-1.06,29.11-1.5,8.08-3.81,15.92-7.06,23.49-2.74,6.38-6.14,12.39-10.09,18.08-3.75,5.42-8.1,10.34-13.1,14.66-1.46,1.26-2.92,2.51-4.39,3.77-.07.02-.14.04-.21.06-.64-.7-1.97-1.26-.82-2.46,1.78-1.85,1.43-3.37-1.04-4.12-1.75-.53-2.38-1.47-2.2-3.27.36-3.7.13-4.14-3.05-5.84-4.2-2.25-5.07-6.38-2.12-10.06.96-1.19,1.33-2.5.74-3.98-1.39-3.51-3.88-5.94-7.39-7.22-1.87-.68-2.7-1.86-2.75-3.82-.06-1.92-.63-3.72-1.8-5.31-1.72-2.33-3.7-2.48-5.65-.4-1.52,1.63-3.45,2.7-5.41,3.63-1.2.57-2.17,1.25-2.99,2.28-2.66,3.31-5.83,6.07-9.37,8.43-1.38.92-2.58.99-4.1.32-2.91-1.27-5.75-.9-8.29,1.05-1.39,1.07-2.71,2.24-4.31,3.01-1.42.68-2.83,1.31-4.45.39-1.66-.94-3.08-.57-3.95,1.11-1.33,2.6-3.34,4.14-6.2,4.72-1.62.32-2.35,1.73-1.94,3.35.48,1.92,1.51,3.47,3.13,4.6,2.17,1.51,4.05,3.32,5.4,5.58.91,1.52,2.17,2.46,3.71,3.16,4.49,2.04,9.22,3.24,14.05,4.05,2.1.35,4.21.99,6.34.75,3.29-.37,6.54-.31,9.78.22,3.54.59,7.15.99,9.9,3.76,1.04,1.04,2.48,1.55,3.8,2.2,2.03.99,4.29,1.14,6.39,1.84-.42.3-.93.46-1.37.71-.9.51-2.13.32-2.78,1.32-1.08.11-2.17.19-3.24.34-1.25.18-2.55-.25-3.77.28-1.07-.58-2.25-.28-3.36-.34-15.22-.84-29.23-5.39-41.94-13.78-6.99-4.61-13.17-10.16-18.46-16.7-2.36-2.91-4.5-5.97-6.61-9.05-.5-.74-.85-1.58-1.27-2.37.47-1.33,1.19-1.91,2.54-.95.51.36.99.07,1.43-.25.46-.34.52-.8.35-1.27-.17-.49-.42-.96-.69-1.4-1.97-3.12-3.17-6.55-4.17-10.07-1.01-3.58-1.36-7.27-1.85-10.93-.43-3.24-.72-6.48.14-9.74.5-1.88.28-3.84-.64-5.55-1.71-3.16-1.53-6.45-.13-9.44,1.1-2.34,1.02-3.96-.82-5.61-.1-.09-.16-.24-.25-.34-1.45-1.61-2.98-3.09-5.35-3.09.14-2.72,1.14-5.24,1.9-7.81.54-1.83.9-3.76,2.05-5.36.85,2.81,2.57,4.74,5.58,5.6-.49-4.31-.82-8.48-.36-12.65.28-2.56.72-5.11,2.24-7.26.7-.99,1.21-2.02,1.58-3.15ZM19.58,287.55c-.87-1.35-2.01-1.98-3.28-2.42-1.44-.5-1.74-.25-1.46,1.23.28,1.46.31,2.9-.28,4.31-.4.96-.38,2.04.46,2.57.9.57,1.49-.42,2.04-1.04.55-.64.98-1.4,2.06-1.2.48.09.73-.27.83-.76.21-1.02.06-1.96-.37-2.68Z"/>
        <path class="cls-40" d="M86.79,377.22c1.22-.53,2.52-.1,3.77-.28,1.08-.15,2.16-.23,3.24-.34,1,.4,2.05-.31,3.04.14.35,1.24,1.31,1.48,2.42,1.55,3.83.25,7.58-.36,11.27-1.23,16.37-3.89,30.15-12.32,41.68-24.4,16.55-17.35,25.11-38.01,24.38-62.14-.64-21.21-8.34-39.78-22.22-55.72-11.52-13.22-25.64-22.59-42.58-27.46-9.09-2.61-18.35-3.53-27.76-2.25-2.45.33-2.43.41-2.22,2.82.04.47.08.94.13,1.42-1.37.42-2.85.14-4.21.66-1.9.19-3.8.39-5.69.58-.44-4.86-.89-9.73-1.31-14.59-.18-2.08.7-3.14,2.74-3.36,1.32-.14,2.64-.26,3.97-.35,1.94-.14,3.02.79,3.25,2.74.23,1.97.22,1.92,2.12,1.61,9.59-1.55,19.13-1,28.56,1.1,19.84,4.42,36.35,14.57,49.67,29.8,17.52,20.03,25.91,43.52,25.14,70.09-.68,23.71-10.12,43.71-26.85,60.37-4.08,4.06-8.53,7.68-13.25,10.98-.74.52-.83.9-.42,1.71,1.96,3.9,3.9,7.81,5.7,11.79.57,1.25,1.05,1.05,1.99.57,5.04-2.6,10.27-4.68,15.83-5.86,3.2-.68,6.4-.7,9.61-.12.08.12.13.27.23.36,2.8,2.46,3.21,3.98,1.9,7.49-1.48,3.95-4.09,7.14-6.97,10.1-6.21,6.39-13.34,11.57-21.15,15.87-5,2.75-10.13,5.13-15.6,6.72-3.88,1.13-7.83,1.98-11.9,1.1-2.73-.59-4.09-2.43-4.07-5.21,0-.42.14-.86-.18-1.23,2.26-5.94,6.43-10.45,10.97-14.68,1.7-1.58,3.46-3.11,5.35-4.47.75-.54.95-.93.26-1.77-3.02-3.66-5.98-7.37-8.9-11.11-.66-.84-1.21-.88-2.14-.47-6.52,2.9-13.3,5.04-20.25,6.63-2.05.47-4.14.51-6.23.44-1.25-.04-2.25.27-2.82,1.47-.02.04-.04.08-.07.12-1.12,1.52-7.23,2.14-8.65.9-.67-.59-.83-1.35-.91-2.17-.3-3.31-.59-6.61-.89-9.92Z"/>
        <path class="cls-37" d="M72.05,210.57c1.9-.19,3.8-.39,5.69-.58,2.94.82,5.98,1.17,8.97,1.75,2.11.41,4.23.77,6.12,1.88-1.23-.17-2.01.43-2.85,1.31-2.4,2.5-5.37,4.08-8.84,4.47-1.34.15-1.13.6-.59,1.38.37.53.85.93,1.48,1.03,1.06.16.92.81.59,1.44-.76,1.48-2.11,1.96-3.68,1.95-2.13-.01-4.09-.78-6.07-1.41-.44-.14-.86-.4-1.5-.28.78,1.65-.17,2.23-1.56,2.73-1.63.59-3.33,1.1-4.83,2.32.9.61,1.79.34,2.63.34.71,0,1.42-.14,2.13-.18.97-.05,1.51.45,1.61,1.41.08.87-.24,1.49-1.18,1.63-.89.14-1.76.3-2.68.19-2.45-.29-3.52.79-3.22,3.2.1.76.09,1.5-.02,2.26-.35,2.44.23,4.69,1.94,6.45,1.86,1.92,1.48,4.07.86,6.22-.53,1.85-1.82,2.9-3.85,2.98-1.47.06-2.93.3-4.4.04-2.68-.47-3.79-2.33-2.87-4.89.38-1.06.88-2.11,1.5-3.06.57-.87.31-1.31-.4-1.87-1.87-1.47-3.87-1.29-5.94-.61-.13.04-.26.11-.39.18-3.64,2-4.01.04-4.2-2.88-.08-1.19.16-2.4.92-3.38.96-1.24.32-2.35-.16-3.46-.44-1.03-1.4-.74-2.24-.68-.37.03-.76,0-1.13-.05-.51-.06-.95-.31-1.06-.82-.13-.62.43-.8.85-.96,1.32-.52,2.64-1.06,4-1.47,1.24-.37,1.53-1.15,1.24-2.29-.52-2.07-2.03-3.13-4.35-3.05-1.93.07-3.72.67-5.45,1.48-.34.16-.64.44-1.05.33,9.69-7.3,20.54-12.03,32.37-14.59.55-.12,1.14-.13,1.62-.48Z"/>
        <path class="cls-21" d="M121.06,412.23c.31.37.18.81.18,1.23-.03,2.77,1.34,4.61,4.07,5.21,4.07.89,8.02.04,11.9-1.1,5.47-1.6,10.6-3.98,15.6-6.72,7.81-4.3,14.93-9.48,21.15-15.87,2.88-2.96,5.49-6.16,6.97-10.1,1.31-3.51.91-5.03-1.9-7.49-.1-.09-.15-.24-.23-.36,3.7-.04,6.87,1.13,8.76,4.46,1.87,3.28,1.5,6.55-.73,9.61-3.11,4.29-6.9,7.93-10.9,11.35-6.01,5.13-12.49,9.59-19.32,13.53-7.9,4.56-16.04,8.62-25.01,10.67-2.33.53-4.65.92-6.99-.07-3.95-1.67-6.07-5.68-5.12-9.85.35-1.56.67-3.14,1.57-4.52Z"/>
        <path class="cls-37" d="M5.7,276.34c2.38,0,3.91,1.48,5.35,3.09.09.11.15.25.25.34,1.84,1.65,1.92,3.28.82,5.61-1.41,2.99-1.58,6.28.13,9.44.92,1.71,1.14,3.67.64,5.55-.86,3.25-.58,6.5-.14,9.74.49,3.66.84,7.35,1.85,10.93,1,3.52,2.2,6.95,4.17,10.07.28.44.52.91.69,1.4.17.47.1.93-.35,1.27-.44.32-.92.61-1.43.25-1.35-.96-2.08-.38-2.54.95-1.63-2.42-2.85-5.06-4.01-7.71-6.96-15.83-8.89-32.27-5.87-49.29.1-.56.29-1.09.44-1.64Z"/>
        <path class="cls-37" d="M18.7,245.71c-.37,1.13-.88,2.15-1.58,3.15-1.52,2.15-1.96,4.7-2.24,7.26-.46,4.17-.14,8.33.36,12.65-3.01-.86-4.73-2.79-5.58-5.6-.03-.48.1-.93.28-1.37,2.16-5.4,4.9-10.51,8.11-15.36.18-.27.44-.49.66-.73Z"/>
        <path class="cls-37" d="M146.68,268.13c-1.78-1.64-3.71-3.26-4.4-5.65-.59-2.06-1.15-3.91-3.22-5.01-2.6-1.37-5.31-1.62-8.15-1.21-.38.05-.76.1-1.11.23-2.5.91-5,1.04-7.67.67-3.18-.44-5.47,1.4-7.39,3.74-3.21,3.91-5.63,8.21-6.66,13.21-.31,1.53-1.17,2.61-2.41,3.54-4.57,3.43-9.62,5.85-15.09,7.44-1.69.49-3.21.53-4.22-1.22-.24-.41-.58-.43-.97-.39-1.45.12-2.45-.53-3.1-1.8-.54-1.06-1.41-1.86-2.46-2.29-2.51-1.02-4.01-2.91-5.01-5.32-.77-1.84-1.58-3.66-2.13-5.57-.12-.41-.28-.86-.21-1.25.53-3.05-.59-5.5-2.54-7.77-.96-1.11-1.18-2.6-.87-4.05.16-.77-.2-1.27-.54-1.83-.5-.82-.4-1.42.24-2.27,2.08-2.77,3.86-5.69,4.37-9.27.39-2.76,1.34-5.35,3.8-7.06.87-.6,1.79-.75,2.84-.53,5.48,1.16,10.47-3.01,10.29-8.6-.06-1.74.83-2.97,2-4.06,1.22-1.13,2.43-2.27,3.34-3.67,1.02-1.57.88-2.64-.46-3.87,1.3-.39,2.38.4,3.49.78,4.66,1.57,9.15,3.52,13.45,5.95,4.46,2.52,8.69,5.35,12.51,8.77,3.52,3.15,6.74,6.55,9.59,10.35,3.68,4.91,6.69,10.16,9.01,15.82,1.61,3.93,2.8,8,3.88,12.11-.07.04-.14.07-.2.1Z"/>
        <path class="cls-37" d="M97.96,374.57c-2.11-.69-4.36-.84-6.39-1.84-1.32-.65-2.77-1.15-3.8-2.2-2.75-2.77-6.36-3.18-9.9-3.76-3.24-.54-6.5-.6-9.78-.22-2.13.24-4.24-.4-6.34-.75-4.84-.81-9.57-2.01-14.05-4.05-1.54-.7-2.8-1.65-3.71-3.16-1.35-2.26-3.23-4.07-5.4-5.58-1.62-1.13-2.65-2.68-3.13-4.6-.41-1.63.32-3.03,1.94-3.35,2.87-.57,4.87-2.12,6.2-4.72.86-1.68,2.29-2.04,3.95-1.11,1.62.92,3.04.29,4.45-.39,1.59-.77,2.91-1.94,4.31-3.01,2.54-1.96,5.38-2.33,8.29-1.05,1.53.67,2.72.61,4.1-.32,3.54-2.36,6.71-5.12,9.37-8.43.83-1.03,1.79-1.72,2.99-2.28,1.96-.93,3.89-2,5.41-3.63,1.95-2.09,3.93-1.93,5.65.4,1.17,1.59,1.75,3.39,1.8,5.31.06,1.96.88,3.13,2.75,3.82,3.51,1.28,6,3.72,7.39,7.22.59,1.48.22,2.79-.74,3.98-2.95,3.68-2.08,7.82,2.12,10.06,3.19,1.7,3.42,2.15,3.05,5.84-.18,1.8.46,2.74,2.2,3.27,2.48.75,2.82,2.27,1.04,4.12-1.15,1.2.18,1.75.82,2.46-.47.32-.94.64-1.41.96-3.75,2.56-7.71,4.74-11.76,6.78-.4.02-.79.03-1.19.05l-.26.16h.02Z"/>
        <path class="cls-38" d="M98.2,374.41c.4-.02.79-.03,1.19-.05.33.04.65.11.98.12,6.2.07,11.93-1.74,17.44-4.41.43-.21,1.23-.37,1.09-.92-.15-.61-.94-.4-1.48-.48-1.76-.24-3.83.2-4.66-2.11,1.46-1.26,2.93-2.51,4.39-3.77,5-4.32,9.35-9.24,13.1-14.66,3.94-5.7,7.34-11.7,10.09-18.08,3.25-7.56,5.56-15.41,7.06-23.49,1.79-9.64,2.17-19.36,1.06-29.11-.36-3.14-.69-6.3-1.77-9.31.07-.03.14-.07.21-.1.28.24.61.2.94.2,3.16-.05,5.62,1.1,7.42,3.84,2.12,3.24,5.03,5.61,8.75,6.89,1.27.43,2.12.08,2.6-1.18.23-.61.34-1.28.42-1.93.69-5.65-1.01-10.83-3.01-15.98-.45-1.17-1.66-2.19-.99-3.67.73,1.54,1.54,3.05,2.17,4.63,8.48,21.07,8.77,42.28.45,63.4-6.88,17.45-18.6,30.98-34.67,40.73-9.83,5.96-20.43,9.67-31.81,11.26-.77.11-1.62-.02-2.3.52-1-.45-2.05.26-3.04-.14.66-.99,1.88-.8,2.78-1.32.44-.25.94-.41,1.37-.71,0,0-.02,0-.02,0,.22.16.27.04.26-.16Z"/>
        <path class="cls-4" d="M163.01,256.2c-.66,1.48.54,2.51.99,3.67,2,5.15,3.71,10.34,3.01,15.98-.08.65-.19,1.32-.42,1.93-.48,1.26-1.33,1.61-2.6,1.18-3.72-1.28-6.62-3.65-8.75-6.89-1.8-2.74-4.26-3.89-7.42-3.84-.34,0-.66.04-.94-.2-1.08-4.1-2.27-8.17-3.88-12.11-2.32-5.66-5.33-10.91-9.01-15.82-2.85-3.8-6.07-7.2-9.59-10.35-3.82-3.42-8.05-6.25-12.51-8.77-4.29-2.43-8.79-4.38-13.45-5.95-1.11-.37-2.19-1.17-3.49-.78,0,0,0,0,0,0-.21-.4-.45-.73-.97-.4-.12-.03-.23-.06-.35-.09-.14-.03-.28-.07-.42-.1,0,0,.02,0,.02,0-.14-.03-.27-.05-.41-.08,0,0,0,.02,0,.02-1.89-1.11-4-1.47-6.12-1.88-2.99-.58-6.03-.93-8.97-1.75,1.36-.52,2.84-.24,4.21-.66.42.02.84.07,1.26.05,7.15-.38,14.23.11,21.23,1.56,19.54,4.07,35.65,13.84,48.34,29.23,4.06,4.92,7.56,10.22,10.23,16.04Z"/>
        <path class="cls-4" d="M112.76,366.56c.83,2.3,2.89,1.87,4.66,2.11.54.07,1.33-.13,1.48.48.14.55-.66.72-1.09.92-5.51,2.67-11.24,4.48-17.44,4.41-.33,0-.65-.08-.98-.12,4.04-2.04,8.01-4.22,11.76-6.78.47-.32.94-.64,1.41-.96.07-.02.14-.04.21-.06Z"/>
        <path class="cls-37" d="M19.58,287.55c.44.71.59,1.65.37,2.68-.1.49-.35.85-.83.76-1.07-.2-1.5.56-2.06,1.2-.54.63-1.13,1.61-2.04,1.04-.85-.53-.87-1.61-.46-2.57.59-1.4.56-2.84.28-4.31-.29-1.47.02-1.73,1.46-1.23,1.27.44,2.41,1.08,3.28,2.42Z"/>
        <path class="cls-37" d="M93.99,213.86c.51-.34.75,0,.97.4-.39.04-.7-.14-.97-.4Z"/>
        <path class="cls-37" d="M92.82,213.6c.14.03.27.05.41.08-.14-.03-.27-.05-.41-.08Z"/>
        <path class="cls-37" d="M93.22,213.67c.14.03.28.07.42.1-.14-.03-.28-.07-.42-.1Z"/>
        <path class="cls-26" d="M98.2,374.41c0,.21-.04.33-.26.16.09-.05.18-.11.26-.16Z"/>
      </g>
      <path class="cls-30" d="M19.46,326.54c3.99,1.61,4.18,8.07.5,10-1.21-2.15-4.86-6.37-2-6.25-2.26-4.46,1.27-3.56,1.5-3.75Z"/>
      <g>
        <path class="cls-29" d="M15.24,314.57c3.05.14,17.36-4.99,16.53,1.47-.63,4.87-20.75,7.13-24.98,6.55,12.16,3.3,23.71-3.21,25.09-3.21,4.31,0,7.35,2.65,4.68,6.02-3.47,4.36-25.89,3-28.22,6.16-5.28-1.14-5.96-8.42-7.2-12.63.04-4.17-3.73-15.18,2.27-23.18.45-.61,1-1,1-1,0,0-.06,3.41,0,5,.16,4.24,1.29,12.09,3,15,1.11-.09,6.75-.23,7.84-.18Z"/>
        <path class="cls-29" d="M37.85,334.31c0,.08,4.55,4.44-12.17,11.36-.75.31-11.17,4.54-13.79-3.73,7.86-3.94,17.66-4.11,25.96-7.63Z"/>
        <path class="cls-6" d="M8.33,331.55c-1.54,2.09.19,6.13,2.42,7.1,2.83,1.23,23.2-3.18,26.9-5.91,0,1.02.22,1.32.2,1.57-8.31,3.52-18.1,3.69-25.96,7.63-.63.32-1.48.33-2.16.59-6.42-7.92-8.69-13.67-8.6-23.61,1.24,4.2,1.91,11.48,7.2,12.63Z"/>
        <path class="cls-8" d="M13.87,347.42c-2.32-.94-2.84-3.29-4.13-4.89.67-.26,1.52-.28,2.16-.59,2.62,8.27,13.07,4.1,13.79,3.73,5.72-2.92-6.55,3.87-11.81,1.75Z"/>
        <path class="cls-29" d="M38.92,328.91c.11,2.15-1.26,3.63-1.26,3.83-3.7,2.73-24.07,7.15-26.9,5.91-2.23-.97-3.97-5.01-2.42-7.1,1.11.24,15.31-1.15,17.89-1.57,6.63-1.08,10.04-5.32,12.7-1.07Z"/>
        <path class="cls-6" d="M38.92,328.91c-2.66-4.26-6.07,0-12.7,1.07-2.58.42-16.78,1.81-17.89,1.57,2.33-3.16,24.76-1.8,28.22-6.16,1.02,1.5,2.25,1.24,2.36,3.52Z"/>
      </g>
      <path class="cls-8" d="M240.18,368.8c-1,2.82-1.69,5.8-4,8l-4.5-1c-1.21-.97-2.22-1.99-3.5-3-9.91-7.81-26.88-15.06-37.5-23.5.5-.44,2.28-2.95,2.75-3,15.12,8.47,30.78,15.78,46.75,22.5Z"/>
      <path class="cls-29" d="M208.69,335.8c9.91,1.32,16.26,2.91,25.75,5.5.53.14,2.11-2.39,9.75,3.5.04.13-.01.33,0,.5.28,3.92-2.74-.17-3.5,1.25-.21.39,2.26,2.14,2.5,8.25.2,5.05-1.37,9.38-3,14-15.97-6.72-31.63-14.03-46.75-22.5-.47.05-2.25,2.56-2.75,3-2.15,1.86-1.79,4.05-5.5,1.75.28-4.33-1.4-3.55-1.5-3.75-.59-1.17-.8-2.72-2-3.5.34-.31,2.41-2.35,2.5-2.5,8.56,3.15,12.69,3.16,11.5-7,4.32.57,8.68.92,13,1.5Z"/>
      <g>
        <path class="cls-29" d="M188.19,332.3c-2.23.03-2.85,7.17-4,9-.09.15-2.16,2.19-2.5,2.5-6.1,5.52-27.48,14.95-35.5,12.5-1.98-.6-3.11-2.17-4.5-3.5,18.99,3.66,8.71.64,6.5-6.25-4.34-13.54,3.99-12.61-6.5-14.75-5.58-1.14-11.5-.48-16.5-3.5,1.12-4.9,15.39-4.04,20-4.5,4-.4,7.98-.98,12-1.25-2.04-2.4-4.57-4.24-6.5-6.75,25.12-3.65,35.58,15.5,37.5,16.5Z"/>
        <path class="cls-2" d="M141.69,331.8c10.49,2.14,2.16,1.2,6.5,14.75,2.21,6.89,12.49,9.91-6.5,6.25-3.11-2.97-10.62-13.76-3-13.75-4.44-1.93-9.22-2.43-13-5.75,0-.17,0-.33,0-.5,1.32-2.47,12.76,2.1,16-1Z"/>
        <path class="cls-8" d="M141.69,352.8c1.39,1.33,2.52,2.9,4.5,3.5l.5,3c-17.29-4.85-12.42-16.45-13.5-18.25-.18-.3-3.77-.43-6.5-2.75-.26-1.76-.89-3.01-1-5,3.78,3.32,8.56,3.82,13,5.75-7.62-.01-.11,10.78,3,13.75Z"/>
        <path class="cls-8" d="M141.69,331.8c-3.24,3.1-14.68-1.47-16,1-.07-1.41-.86-2.91-.5-4.5,5,3.02,10.91,2.36,16.5,3.5Z"/>
        <path class="cls-2" d="M181.69,343.8c1.2.78,1.41,2.33,2,3.5-2.03,1.42-7,5.4-8,6-.78.47-8.06,4.32-8.5,4.5-8.23,3.4-11.91,3.91-20.5,1.5l-.5-3c8.02,2.45,29.4-6.98,35.5-12.5Z"/>
      </g>
      <path class="cls-30" d="M188.78,332.24c.53.28,2.38-.03,2.5,0,1.47.35,2.91,1.19,4.5,1,.27,1.41.49.94.5,1,1.19,10.16-2.94,10.15-11.5,7,1.15-1.83,1.77-8.97,4-9Z"/>
    </g>
  </g>
</svg>