<?xml version="1.0" encoding="UTF-8"?>
<svg id="Layer_2" data-name="Layer 2" xmlns="http://www.w3.org/2000/svg" viewBox="0 0 296.52 487.53"><defs>
    <style>
      .cls-1 {
        fill: #bfe4e7;
      }

      .cls-2 {
        fill: #c45f41;
      }

      .cls-3 {
        fill: #c98028;
      }

      .cls-4 {
        fill: #232323;
      }

      .cls-5 {
        fill: #facf38;
      }

      .cls-6 {
        fill: #3a310b;
      }

      .cls-7 {
        fill: #8e3226;
      }

      .cls-8 {
        fill: #a34737;
      }

      .cls-9 {
        fill: #dea525;
      }

      .cls-10 {
        fill: #b14f3d;
      }

      .cls-11 {
        fill: #ec9927;
      }

      .cls-12 {
        fill: #f0935d;
      }

      .cls-13 {
        fill: #fef593;
      }

      .cls-14 {
        fill: #c12e4b;
      }

      .cls-15 {
        fill: #c35f41;
      }

      .cls-16 {
        fill: #f8ae89;
      }

      .cls-17 {
        fill: #f8edf9;
      }

      .cls-18 {
        fill: #dcb5d8;
      }

      .cls-19 {
        fill: #fbfbfc;
      }

      .cls-20 {
        fill: #feecbb;
      }

      .cls-21 {
        fill: #65256a;
      }

      .cls-22 {
        fill: #cc5637;
      }

      .cls-23 {
        fill: #b56724;
      }

      .cls-24 {
        fill: #fbbb29;
      }

      .cls-25 {
        fill: #8bd2d9;
      }

      .cls-26 {
        fill: #c386c3;
      }

      .cls-27 {
        fill: #fcf8e9;
      }

      .cls-28 {
        fill: #7aebe9;
        opacity: .2;
      }

      .cls-29 {
        fill: #ac4a30;
      }

      .cls-30 {
        fill: #e5bb8f;
      }

      .cls-31 {
        fill: #e6794d;
      }

      .cls-32 {
        fill: #a15d26;
      }

      .cls-33 {
        fill: #e5d4e8;
      }

      .cls-34 {
        opacity: .8;
      }

      .cls-35 {
        fill: #f6d475;
      }

      .cls-36 {
        fill: #d7643c;
      }

      .cls-37 {
        fill: #ffe286;
      }

      .cls-38 {
        fill: #fece4b;
      }

      .cls-39 {
        fill: #e67a4d;
      }

      .cls-40 {
        fill: #353535;
      }

      .cls-41 {
        fill: #e7a627;
      }

      .cls-42 {
        fill: #070407;
      }

      .cls-43 {
        fill: #320532;
      }

      .cls-44 {
        fill: #1d121b;
      }
    </style>
  </defs>
  <g id="HISTORY">
    <g>
      <g>
        <path class="cls-31" d="M97.71,247.26c-4.92,14.79-3.87,25.34-3.73,32.7.38,20.24,10.58,90.57,10.58,90.57l39.85.66-21.49-88.19s-21.76-46.1-25.21-35.73Z"/>
        <path class="cls-15" d="M117.41,318.74l18.97-2.21v23.47l-20.02,34.48s-14.58-24.33-15.48-32.75c-.23-2.18,14.31,4.67,14.31,4.67,0,0,14.71-7.44,2.22-27.66Z"/>
        <path class="cls-42" d="M278.75,108.72c-.1-.43-11.12,3.83-12.9,2.87-.95-.51-6.58-4.87-6.45-5.59,4.63-2.61,10.75,1.34,14.91-1.72.35-.88-6.04-.83-7.03-1-7.74-1.41-16.84-5.59-23.37-9.89.05-1.04,19.06-.17,20.79-.43,2.2-.33,3.16-1.84,3.58-2.01,1.71-.68,4.57-1.53,6.31-.86l-.57-3.44c-1.45,2.28-5.8,1.65-8.03,2.29-1.94-.83-5.32-.06-7.89-.29-7.54-.66-15.02-1.88-21.94-5.02,9.4-4.3,22.64-1.18,29.25-10.75-1.41.18-3.69,1.43-5.31,1.72-9.3,1.67-18.89,2.39-28.25.72,4.74-1.48,9.82-2.13,14.48-3.87,2.17-.81,16.9-8.19,17.06-9.61.03-.29-1.42-1.95-1.29-2.72-9.43,5.53-20.07,9.59-30.97,11.18-2.42.35-5.46.7-7.89.43,7.37-2.53,14.84-6.27,20.79-11.33,1.66-1.41,3.16-3.52,4.73-4.88-7.1,2.89-13.68,7.14-20.79,10.04-4.77,1.94-9.69,3.43-14.63,4.88l25.52-20.36c-9.58,6.72-19.56,13.31-30.83,16.78,9.73-9.05,20.1-17.99,27.1-29.39-9.32,10.79-21.07,18.97-32.98,26.67,5.67-9.05,14.23-18.45,18.5-28.25.21-.49.77-1.19.14-1.58-6.43,11.77-15.55,21.59-26.96,28.68,7.41-11.32,12.6-23.48,17.64-35.99.58-1.43.94-4.13,1.43-5.31-6.93,13.57-13.19,29.06-24.95,39.14,2.05-8.14,5.78-15.74,8.03-23.8,2.08-7.45,3.09-20.81,5.74-26.96,1.52-3.53,5.98-4.66,9.46-3.58-2.8-2.15-7.93-1.29-9.75,1.72-2.85,4.72-5.6,22.41-8.03,29.39-2.7,7.77-6.75,15.08-9.61,22.8,1.26-7.54,2.54-15.19,3.3-22.8.69-6.96.68-28.49,3.73-33.27.27-.42,1.46-.57,1.15-1-2.04.68-2.63,1.58-4.01,3.15,1.02,5.43-1.29,22.14-2.01,28.53-1.01,8.96-2.18,18.03-4.16,26.81l-5.31-37.42,2.44,35.13c-4.12-9.83-9.92-20.64-11.04-31.4-.34-3.23-.44-12.9.29-15.77.79-3.09,3.26-3.73,6.02-3.87-4.92-7.7-14.79-4.73-14.34,3.44.3,5.41,4.72,19.45,6.6,25.09,2.62,7.87,6.38,15.42,9.18,23.23-.43.42-.7.02-1-.14-5.36-2.96-17.91-22.92-21.08-28.96-.48.46.36,2.24.57,2.72,4.51,10.03,9.51,19.98,15.63,29.11-10.31-5.74-18.58-14.13-26.24-22.94,5.68,8.2,11.5,16.22,17.64,24.09-13.2-8.35-26.08-17.46-35.85-29.82,7.87,12.62,19.36,22.92,30.83,32.26.1.77-.62.31-.86.29-2.02-.2-10.82-4.64-13.05-5.88-5.75-3.19-10.57-7.75-16.78-10.04,3.07,2.82,6.13,5.63,9.32,8.32l14.63,10.9c-11.69-2.98-22.31-8.68-33.12-13.76,1.49,1.2,3.12,3.3,4.73,4.59,5.94,4.74,12.86,7.88,19.79,10.9-11.99-.89-26.92-4.08-36.99-10.9-.02-.01-.28.39-.43.29l-.57,1.72c4.59,4.14,8.18,6.52,14.19,8.89,5.14,2.03,10.63,2.92,15.92,4.44-9.86,1.48-21.82,1.59-31.26-1.86,5.86,9.05,18.13,6.34,26.96,9.89-7.87,4.04-19.23,5.98-28.1,5.59-2.1-.09-5.29-.16-6.88-1.72l-.57,3.15c2.34-.78,3.37-.27,5.31.57.34.15.53-.38.72-.29.05.03-.19.84.43,1.15,5.78,2.87,14.94-.11,21.36,1.58-8.16,5.69-17.81,9.92-27.82,10.61-1.44,3.38,12.12,0,13.19,2.01-3.37,4.18-8.04,7.86-13.62,7.89-1.44,10.58,3.98,2.27,6.88,2.01,4.78-.43,2.21,5.86,1,8.17-.68,1.3-4.01,4.56-4.01,4.88-.01.38,2.07,1.66,2.29,2.58.73,3.04-2.32,4.86-2.29,5.16.02.19,2.27,1.46,2.58,2.87.64,2.88-1.05,6.37-3.15,8.32,4.67,1.19,2.2.98,2.01,2.58-.58,4.75.13,7.78-4.88,10.61,7.16-.44,4.78,6.66,1.15,9.75,7.02-.09,3.08,8.28-1,9.03-.64.12-6.74-.19-6.74.14,2,.55,9.28.78,10.32,2.58,1.85,3.2-2.18,8.54-5.74,8.6,11.96,3.62.65,16.76-7.74,12.19.08.23,2.53,24.72,1.1,39.67-1.09,11.36,3.74,15.49,14.8,12.68.87-.22,2.76-.33,2.99-.53,3.48-3.02,24.42-4.76,29.53-6.46,1.82-.6,29.16-8.01,30.34-8.11l62.33-14.6c-.03.55-.82,2.32-1.15,2.87,1.2.03,9.21,3.37,11.18,4.01,5.13,1.66,9.91,3.62,14.91,5.45,1,.37,2.06,1.03,3.15,1.15.86.09,2.79-.4,3.73-.57-3.26.38-4.16-3.35-3.73-5.88.15-.86,1.47-2.2,1.43-2.87-.01-.26,9.68,5.02,8.32,6.45,3.39.24,1.77,5.01.57,6.88,0,.31-25.01,4.2-24.89,4.25,2.35,1.15,44.73,5.66,44.87,2.97.86-16.25-1.55-131.24-4.08-142Z"/>
        <g>
          <path d="M115.68,100.7c0,.28.52-.08,1.05-.43,6-4,9-6,11-7,4-2,6.64-2.09,7-2.15,3.73-1.21,17.63,3.61,12.75-3.75-4.47-6.74-17.09-1.59-22.51,1.25-1.72.9-9.25,7.65-9.3,12.08Z"/>
          <path d="M216.01,95.63c.57.59.75-2.36.25-4-4.07-10.9-27.42-9-28.76-4.25-1.99,7.08,10.41,1.2,21.51,4,2.75.89,3.75.89,7,4.25Z"/>
        </g>
        <g>
          <g>
            <path class="cls-22" d="M203.53,190.7c-9.09,11.59-21.81,20.53-36,24.5-2.36-3.08-5.37-5.97-6-10-.45-2.9.19-7.89.5-11,.07-.73.15-4.25.5-4.86,12.44,2.19,27.65-1.76,38.5-7.64,1.21,2.88,1.66,6.03,2.5,9Z"/>
            <path class="cls-31" d="M205.53,196.2c.39,2.05.72,4.18,1,6.25-7.26,8.67-18.31,15.14-29,18.75-2.48.84-1.89.97-2,1-.74.17-.36.73-2.5-.5-.28-.16-1.31-.83-1.5-1-.26-.22-3.39-4.71-4-5.5,14.19-3.97,26.91-12.91,36-24.5.67,2.38,1.94,5.17,2,5.5Z"/>
          </g>
          <g>
            <path class="cls-12" d="M234.3,93.2s-6.44-19.74-10.08-25.56c-4.81-7.69-21.5-16.9-30.18-19.54-8.71-2.65-23.73-6.5-33.95-4.59,0,0-26.13-3.04-39.38,39.36-.21.66-2.06,3.16-2.03,4.59.19,7.62,2.96,23.87-1.23,38.64-.09.32-.14.65-.14.98v7.55c2.59,9.21,3.89,21.19,12.53,31.65,7.61,9.21,31.57,23.86,35.88,24.27,2.26.08,9.06-1.41,19.05-5.59,9.16-3.84,22.2-12.35,27.89-20.52,2.79-4.01,12.29-22.94,10.07-25.68,7.3-3.43,16.67-4.19,16.67-15.97,0-5.05-2.94-19.94-5.1-29.59ZM133.91,141.39c1.03.09,2.08.13,3.16.11-1.03.04-2.09,0-3.16-.11ZM190.72,138.37c.99.49,2.08.94,3.27,1.35-1.16-.38-2.25-.83-3.27-1.35Z"/>
            <path class="cls-36" d="M239.19,122.62c.06-.09,1.34-1.31-1.39-12.61-.8-3.84-2.6-12.74-2.6-12.74,0,0-.45-.64-1.11-1.37-.54-.59-1.23-1.23-1.8-1.71-7.14-5.96-20.51-5.64-24.33-5.66-8.48-.09-16.76,1.17-20.81,6.02-4.18,5.01-3.97,13.78-2.53,24.56.31,1.3,1.12,4,1.08,3.36-.1-1.67,1.06-6.72,2.37-9.57,2.25-4.92,4.62-8.13,10.93-10.58,15.64-6.05,31.83,20.59,32.55,21.79-1.8,6.6-5.1,12.32-11.07,14.7,3.89.67-5.67,21.3-8.64,25.56-5.68,8.17-18.56,15.97-27.72,19.8-9.98,4.18-16.68,6.28-18.99,6.23.17.06.07.12.64.16,15.33,1.15,24.21-2.52,37.43-10,19.85-11.23,20.3-13.57,30.24-32.4,1.1-2.09,1.09-4.53,2.88-6.84.38-.49,9.73-1.54.72-7.92,13.28-19.13,20.35-3.89,12.96,6.48-6.8,9.55-18.62-4.15-10.8,11.88,25.69,5.04,20.19-57.31,0-29.16Z"/>
            <path class="cls-29" d="M239.19,151.78c-2.56-.5-3.24-2.94-5.76-3.6,1.1-2.09,1.09-4.53,2.88-6.84.38-.49,9.73-1.54.72-7.92,13.28-19.13,20.35-3.89,12.96,6.48-6.8,9.55-18.62-4.15-10.8,11.88Z"/>
          </g>
          <path class="cls-16" d="M117.61,133.37c3.5,16.27,5.03,23.58,11.87,32.34,4.4,5.63,24.09,20.16,35.68,24.72-5.49-.09-34.05-16.97-40.23-24.75-6.68-8.4-8.31-18.44-8.47-25.05-.04-1.66.29-4.97.48-6.62.08-.68.39-2.73.39-2.73,0,0,.18,1.59.29,2.09Z"/>
          <path class="cls-31" d="M126.85,96.33c-1.88.06,1.36-4.44,2.23-6.28,1.06-2.92,1.12-6.36,2-9.25,6.04-19.79,23.82-27.78,10.5-24.25-10.51,2.79-20.82,35.08-21.94,44.67,0,.01.18,6.15.18,6.15,2.51-3.22,3.62-4.22,7.97-6.63,8.46-4.67,18.39-1.27,22.4,9.26.04.12,2.35,10.41,2.39,11.24.02.42.04-9.38.19-10.88-.96-13.22-15.39-14.39-25.92-14.04Z"/>
          <path class="cls-43" d="M249.54,29.26c2.95-.22-2.46,2.06-3.34,2.39-11.48,4.18-3.32-1.9,3.34-2.39Z"/>
          <g>
            <path class="cls-27" d="M151.67,118.04c-.5-1.47-1.36-5.17-5.73-9.43-2.82-2.75-5.81-4.38-7.96-4.74-1.44-.2-2.74-.16-3.92.02-2.25-.1-5.68,1.45-7.92,3.23-5.87,4.68-4.57,12.46,1.08,15.84.25.15.53.29.82.43,3.24,1.76,5.75,1.8,9.2,1.91,0,0,6.24.41,14.03-2.74.47-.19,1.41-.71,1.41-.71,0,0-.22-2.03-1.01-3.82Z"/>
            <path d="M120.28,103.91c2.64,2.22,6.39-6.16,17.05-5.19,8.72.79,15.56,12.06,15.24,22.28-1.16-2.08-2.23-5.18-2.57-5.54-.05-.06-.18.02-1.29-.86,1.16-4.03-6.96-10.25-10.73-10.73-6.55-.85-10.77,2.43-13.74,7.73-.14.25-.58,1.17-.86,2.15-1.13,3.97,1.02,7.74,4.65,9.65-.74,0-3.81-1.99-4.23-2.35-4.02-3.43-7.61-12.5-7.56-18.15-.1-1.1.31-4.58.83-3.19.99,2.65,2.45,3.56,3.2,4.2Z"/>
            <path d="M137,116.77c1.9-.49,2.53-3.14,2.21-4.87,11.2-1.45,3.91,16.24-2.21,4.87Z"/>
            <path class="cls-6" d="M150.01,116.43c0-.2-.04-.38-.05-.58,0-.14,0-.27,0-.41,0,0-.02-.02-.04-.02-.84-6.6-8.39-11.1-11.98-11.57-.36,1.44-2.68,2.49-3.43,3.86-.15.27-.81,2.12,0,2.15,2.03-.08,2.65.33,3.43.43.07.43,1.27,1.61,1.29,1.72,10.87-1.4,3.79,15.75-2.15,4.72-2.27.58-4.3-1.57-4.72-.64.81,3.73,1.27,6.93,4.72,8.8,1.25.67,3.25.49,7.72-.31,3.74-.67,4.99-4.57,5.14-8.2.02.01.05.04.06.05Z"/>
            <path class="cls-27" d="M201.81,107.02c.9-.18,3.78-.53,5.05-.47,2.94.16,5.9,2.18,5.9,2.18,7.28,5.07,10.16,9.31,3.22,16.31-.69.31-2.85,1.25-3.01,1.29-5.74,1.41-21.22,1.35-27.05-2-.02,0-.03-.02-.05-.03-.3-.17-.26-2.91.05-3.98,3.45-6.78,7.95-12.16,15.89-13.31Z"/>
            <g>
              <path d="M221.99,110.89c2.17,1.76,3.7.7,5.24-1.17.9-.99.81-1.56,1.05-1.23.27.39.27,1.84-.33,3.75-1.37,4.31-5.27,9.83-11.96,12.82,6.94-7.01,4.06-11.25-3.22-16.31,0,0-1.92-1.42-5.58-2.15-1.82-.36-3.59.17-5.37.43-7.94,1.15-12.44,6.53-15.89,13.31,1.51-13.76,12.07-22.65,26.4-17.6,5.73,2.02,8.22,6.99,9.66,8.16Z"/>
              <path class="cls-6" d="M215.12,115.18c-.19-2.4-3.14-7.78-7.94-8.59-1.83-.31-3.59.17-5.37.43-4.27,6.01-2.22,3.07,1.5,4.29.41.13,1.13.82,1.5,1.29.24.3,1.52.19,3.86.86,4.97,5.8-3.02,11.68-6.44,4.72-1.91.28-4.19-1.74-4.29-1.5.28,14.31,18.69,12.68,17.17-1.5Z"/>
              <path d="M208.68,113.46c4.97,5.8-3.02,11.68-6.44,4.72,2.32-.34,3.84-3.51,2.58-5.58,1.66-.19,2.83-.01,3.86.86Z"/>
            </g>
          </g>
          <path class="cls-2" d="M246.15,147l1,2c1,2-3,3-3,3-1.16.37-2,1-3,0l1-5c1-2,3.66-.46,4,0Z"/>
          <g>
            <path d="M118.88,89.82c-.32-.04-.57-.26-.4-.54,1.23-1.98,4.66-7.32,6.9-8.78,2.26-1.48,9.41-4.96,14.55-3.99,4.03.76,4.14,4.49,4.17,6.11,0,.03-.02.06-.05.08-2.65,1.53-4.4.39-8.93.03-1.75-.14-3.24-.01-4.87.46-2.57.74-4.87,2.4-7.04,4.87-.66.75-2.7,1.96-4.34,1.76Z"/>
            <path d="M219.02,82.65c.11.55,2.3,3.22,2.88,5.4l-1.08,1.08c-14.83-10.29-26.1-.3-29.16-7.2,2.55-2.21,3.17-11.87,27.36.72Z"/>
          </g>
          <g>
            <path class="cls-22" d="M177.99,139.35c1.79,8-20.24,11.31-20.88,2.16,5.6,5.57,14.97,2.25,20.88-2.16Z"/>
            <g>
              <path class="cls-14" d="M196.35,145.84c2.64.26,5.03,1.58,6.12,3.96-8.51.6-12.2,25.11-29.16,27.72-25.18,3.88-14.91-25.59-27.72-19.8.7-9.31,39.85-.3,54.01-8.64l-3.24-3.24Z"/>
              <path class="cls-19" d="M191.31,154.48c4.44-.62-4.85,8.34-6.48,9.36-9.07,5.7-30.73,7.42-30.24-4.32,15.16,3.57,34.64-4.75,36.73-5.04Z"/>
            </g>
            <path class="cls-16" d="M161.79,135.75c2.21,1.67,5.3,2.24,5.4,2.52,1.58,4.52-6.69,4.93-5.4-2.52Z"/>
          </g>
          <g>
            <path class="cls-28" d="M158.3,109.04c0,15.74-15.3,27-28,27s-19-10.26-19-26,9.3-22,22-22,25,5.26,25,21Z"/>
            <path class="cls-28" d="M237.3,110.23c0,22.81-17.9,29.81-32.77,29.81s-22.23-11.33-22.23-28.71c0-20.29,10.88-24.29,25.74-24.29,19.26,0,29.26,5.81,29.26,23.19Z"/>
            <g>
              <path d="M242.3,119.04c4.16-9.68-4.33-20.72-5.73-23.8-2.17-4.77-6.05-8.24-9.27-9.2-2-.6-6-1-13-1-6,0-29-3-34.5,13.71-7.21-3.06-12.58-2.59-20-1-1.5-2.71-5.52-11.66-20.5-12.71-1.93-.13-9.16-.71-16,1-8,2-7.86,2.86-10,5s-4.6,9.78-5,18c-.35,7.04,2,17,3,19,.63,1.26,3,6,5.75,7.46,8.64,4.97,15.01,4.96,21.25,4.54,15-1,26.35-18.47,26-32.79,21.23-1.93,7.52,3.43,18.25,22.75,2.56,4.62,9.75,11.04,16.75,13.04,4.9,1.4,14.82,1.78,23-2,13-6,17.7-16.64,20-22ZM156.05,111.75c-.26,7.54-3.33,13.47-8.14,17.34-6.18,4.97-15.23,6.52-24.86,3.66-5.75-1.71-7.78-6.29-8.75-8.71-4-10,0-24,1-27,1.92-5.77,10.39-7.67,16-8,8.61-.51,17.34.25,21.75,8.71,2.09,4,3.16,9.45,3,14ZM189.05,130c-3.52-4.73-5.36-13.94-5.5-19.75-.37-15.93,5.18-19.09,20-20.5,5.57-.53,11.46-.87,17,0,.81.13,2.43.35,3,.5,2.12.56,4.25,1.34,5.79,2.84.47.46,4.36,5.98,5.96,16.95.49,3.39,0,8-1.72,12.65-.01.02-.02.03-.04.05-8.92,20.35-36.11,18.5-44.5,7.25Z"/>
              <path class="cls-40" d="M256.01,104.27c-.51-.71-12.85-7.97-15.03-8.89-2.45-1.04-4.78-2.3-5.2-1.97.57,2.38,7.75,12.97,7.56,18.78-.03.91,1.94,1.11,1.94,1.11l.1-.78c9.11.38,12.15-1.51,15.04.62-.21-1.64-3.59-7.73-4.4-8.87Z"/>
              <g>
                <path class="cls-4" d="M109.61,99.77l-10,4.5c-.53-1.11-2.64-9.66-1.25-10.5,22.79-3.44,17.71-10.26,11.25,6Z"/>
                <path d="M109.61,99.77q-.62,5-1.25,10c-3.24-2.09-6.93-1.68-8.75-5.5l10-4.5Z"/>
              </g>
              <path d="M254.53,119.69c.37-.18,4.84-5.6,5.88-6.56-2.73-2.01-5.98-.95-13.59-.61-9.56-.34-10.25-3.54-10.25-3.54l.63,3.1c-.08.54.19,2.49.46,4.47l4.41,2.9c3.7-3.78,5.28-4.79,9.33-3.29,2.07,1.2,2.74,2.94,3.13,3.54Z"/>
            </g>
          </g>
        </g>
        <g>
          <g>
            <path class="cls-17" d="M245.68,315.12s2.01-1.33,2-1c.79.22,24.09-24.14,27.01-32.01.78-2.09,5-16.01,3.64-22.2-2.22-8.65-5.34-16.93-11.11-23.74-11.07-13.05-23.07-9.93-32.01-12.75-2.06,4.39-4.56,8.65-7.5,12.5-1.79,6.55-89.07-11.43-91.78-13-.73-.42-2.19-.63-3.25-1-7.49.57-11.19.92-18.26,5-10.19,5.89-5.79,46.19,1.21,52.19,1.88,1.61,3.84-.93,4.94-2.88-3.33,7.69-9.15,19.79-7.94,29.89,1.37,11.43,6.94,17.96,11,21.01,2.73,2.05,9,4,9,4,0,0,5.05,5.22-1,15.01-2.44,3.95-9.96,14.22-18.97,37.34-4.86,19.14-1.92,27.55,8.88,74.87.48,2.11,115.34,17.52,127.89,9.24,11.24-7.41,17.48-17.46,20.13-21.32-2.17-15.62-8.04-29.66-12.34-44.79-3.23-11.35-6.46-22.51-12-33.01-7.45-5.87-5.14-31.11-3.95-43.04l4.42-10.31Z"/>
            <path class="cls-21" d="M241.68,319.12c.04.06.06.13.09.21-.01-.17-.04-.24-.09-.21Z"/>
            <path class="cls-21" d="M241.77,319.33c.02.22,0,.59-.03,1.11.11-.46.12-.84.03-1.11Z"/>
          </g>
          <path class="cls-33" d="M138.55,332.55c5,0,10-3,10-3-6,3-16.04,1.67-16.04,1.67,0,0,1.12,1.84,1,5-.12,3.34-1.54,8.12-3.96,12.33-4,6.96-7.14,12.93-9.58,17.88-2.76,4.79-4.86,10.17-6.12,13.6-.92,2.33-1.31,3.52-1.31,3.52-4.86,19.14,2.02,44.16,2.02,44.16,0,0-8.29-22.91,5.78-43.42,6.05-8.82,18.21-51.76,18.21-51.76Z"/>
          <path class="cls-21" d="M107.63,271.1s7,3,13.01-1c6.13-4.09-3,13.01-3,13.01,0,0-6.11-5.26-10-12Z"/>
          <path class="cls-33" d="M245.09,366.56c-4.87-6.98-4.71-26.64-3.53-39.55,2.35-3.03,4.3-6.79,5.03-10.22.97-3.58.43-15.82-2.75-24.76-1.58.23,4.64,12.67-.78,23.88-2.11,2.97-4.94,6.9-9.43,9.95-2.21,1.34-4.8,2.56-7.86,3.62-5.94,1.64-13.75,1.73-24.22-1.26.64.18,35.32,40.13,43.02,56.02,7.49,15.45,21.41,65.99,19.03,70.3.46-.1,4.18-5.62,5.98-8.27,1.26-1.85-2.74-48.59-24.48-79.7Z"/>
        </g>
        <g>
          <path class="cls-39" d="M132.67,221.91c-7.49.57-11.19.92-18.26,5-10.19,5.89-21.07,27.06-18.45,32.29,3.46,6.92,12.66,13.9,19.66,19.9,1.88,1.61,2.47-1.82,4.94-2.88,3.35-2.64,11.05-50.07,11.05-50.07l1.06-4.25Z"/>
          <path class="cls-15" d="M107.63,271.1s7,3,13.01-1c6.13-4.09-3,13.01-3,13.01,0,0-6.11-5.26-10-12Z"/>
        </g>
        <path class="cls-39" d="M278.49,259.79c-2.22-8.65-5.34-16.93-11.11-23.74-11.07-13.05-23.42-10.07-32.36-12.9-2.06,4.39-5.17,12.73-15.03,22.5,2.57,2.76,15.03-22.5,15.03-22.5l6.08,1.22s-13.69,34.81-5.93,48.21c4.39,7.58,7.04,14.75,7.42,16.51.4.93.73,1.9.99,2.91,1.01,2.25,4.19,13.89,3.39,22.57,1.01-.38,1.91-1.29,3.14-2.5,6.07-5.88,22.34-23.59,24.75-30.08.78-2.09,5-16.01,3.64-22.2Z"/>
        <g>
          <path class="cls-39" d="M132.55,221.93c-7.49.57-11.19.92-18.26,5-10.19,5.89-19.39,22.52-18.26,28.26,2.51,12.66,21.47,27.93,21.47,27.93,0,0,1.59-4.59,2.94-6.88,3.35-2.64,11.05-50.07,11.05-50.07l1.06-4.25Z"/>
          <path class="cls-15" d="M115.64,253.8l6.91,17.46c.19.45-1.73,5.09-2.33,6.51l-2.71,5.35s2.03-22.58-1.86-29.32Z"/>
        </g>
        <g>
          <g class="cls-34">
            <g>
              <path class="cls-18" d="M160.99,266.41c-8.97-4.26-20.25-15.07-21.86-20.01-3.16-9.72-2.99-12.28.43-23.36.07-.23.29-.41.45-.59-3.68-1.14-6.91-3.12-12.03-.12-.03,24.37-1.07,12.07-2.01.25-5.93-1.02-6.93.4-10.53,3.86-6.09-2.3-4.46,2.85-4.71,2.96,1.33,10.79,4.9,27.22,10.02,38.06,3.78,8,16.47,31.86,34.77,31.86,2.6-7.07.84-27.12,5.47-32.89Z"/>
              <path class="cls-26" d="M127.98,222.32c-.74,20.7.39,26.47,13.16,42.86-16.45-17.15-14.48-27.37-15.17-42.61.08-.02.5-.41,2.01-.25Z"/>
              <path class="cls-26" d="M161.86,263.39c-18.58-8.5-25.87-27.51-23.19-40.98-8.23,22.68,9.46,39.73,20.96,45.03.07-.08,1.23-3.3,2.23-4.05Z"/>
            </g>
            <g>
              <path class="cls-18" d="M259.29,229.37c-.16-4.2-7.72-5.43-11.72-3.91-12.7,12.98-12.44,13.4,0,0-2.35-4.55-5.13-4.56-12.69-2.42-.03.83-.35,1.84-.5,2.7-2.55,14.48-20.1,30.45-34.65,37.12-11.5,5.28-26.94,3.49-39.67,3.56-2.89,7.76-4.04,25.1-4.6,32.87,18.98,2.54,47.13-7.26,69.68-23.38,9.06-6.48,18.41-18.71,28.68-29.26,4.71-4.84,13.05-13.21,10.79-15.29-.46-.53-.52-1.86-5.34-1.99Z"/>
              <path class="cls-26" d="M248.48,225.18c-11.06,14.4-20.43,28.77-42.66,43.98,20.9-14.26,30.57-29.68,41.33-44.46.99.32,1.26.43,1.33.48Z"/>
              <path class="cls-26" d="M226.22,238.15c-15.2,19.62-39.46,25.34-65.23,24.83-.15,1.31-1.61,2.91-1.79,4.26,15.99,5.88,29.03.92,40.54-4.36,14.55-6.67,33.23-22.89,35.47-39.46-2.08,4.6-5.87,10.71-8.99,14.74Z"/>
            </g>
            <path class="cls-26" d="M125.92,261.5c3.29,11.67,12.15,21.89,23.96,25.24,22.07,5.98,46.82-6.69,65.99-16.85-14.96,9.76-31.45,18.49-49.57,20.2-19.78,2.02-36.28-8.81-40.38-28.59h0Z"/>
          </g>
          <g>
            <path class="cls-38" d="M204.67,194.28c.39,2.05,1.72,5.93,2,8-2.88,3.44-18.55,18.18-28.8,17.3-7.43-.63-14.03-12.45-14.44-15.04-.45-2.9-1.1-7.67-.79-10.78-3.96,3.36-5.63,8.43-8.5,12.5-4.27,6.06-8.95,12.05-15.51,16.01-.31,4.65.04,9.35.69,13.84.57,3.93,9.06,24.78,29.86,27.37,20.39,2.54,38.37-9.54,48.14-16.89,2.99-2.25,8.48-8.38,10.34-10.81,2.94-3.85,5.44-8.12,7.5-12.5-19.46-16.47-24.79-28.43-30.5-29Z"/>
            <path class="cls-13" d="M144.98,230.82c16.06,48.37,66.14,21.66,82.14-14.91,1.07-2.44-1.43-2.64-1.85-1.69-12.74,29.03-62.73,57.85-78.06,15.15-.65-1.99-2.48-9.89-1.87-12.34-4.09-2.52-1.59,8.78-.36,13.79Z"/>
            <path class="cls-13" d="M138.73,221.93c-.18,5.71.26,11.67,2.29,16.99,3.99,10.44,12.48,19.86,23.37,23.15,16.66,4.86,34.65-3.36,48.13-12.91,4.6-3.46,8.81-7.43,12.52-11.83,3.93-4.25,7.46-8.89,10.13-14.06-4.03,11.16-12,20.48-21.45,27.49-14.02,9.93-32.56,18.29-49.91,13.22-11.56-3.52-20.45-13.35-24.7-24.42-1.58-5.79-1.37-11.81-.38-17.63h0Z"/>
            <path class="cls-13" d="M147.25,215.45c7.22,51.88,59.45,26.22,75.87-3.94,1.36-2.34-1.45-3.17-1.95-2.24-15.37,25.96-65.02,50.19-72.44,4.24,0,0-1.53-.33-1.49,1.95Z"/>
            <path class="cls-9" d="M169.19,225.16c-.77,2.98-1.92,7.45-.42,9.43,1.5,1.98,2.6,3.89,5.28,2.95,1.89-.66,5.26-5.96,6.47-9.46.4-1.17.64-5.26-.46-6.4-3.14-3.23-5.7-3.5-7.39-2.23-4.98,3.73-2.94,3.65-3.47,5.71Z"/>
            <g>
              <path class="cls-1" d="M168.92,224.06c-.77,2.98-1.92,7.45-.59,9.39,1.33,1.93,2.3,3.81,4.77,2.82,1.75-.7,4.95-6.04,6.13-9.55.39-1.17.7-5.25-.29-6.35-2.81-3.15-5.15-3.36-6.72-2.06-4.64,3.82-2.77,3.69-3.31,5.76Z"/>
              <path class="cls-25" d="M167.67,225.01c-.7,4.25-1.08,7.41.67,8.44,4.77,2.82,2.87-4.03,8.8-5.68,2.32-.65,2.23-4.71,1.54-5.96-4.25-7.66-10.31-1.01-11,3.2Z"/>
            </g>
            <path class="cls-13" d="M150.56,217.33c1.16-.21,2.03-1.03,2.8-1.86.97-1.05,1.88-2.14,2.76-3.27,1.74-2.23,3.33-4.57,4.92-6.91.36-.53-.5-1.03-.86-.5-1.48,2.18-2.96,4.37-4.57,6.46-.8,1.04-1.63,2.05-2.51,3.03-.78.87-1.6,1.88-2.8,2.09-.63.11-.36,1.08.27.96h0Z"/>
            <path class="cls-13" d="M152.66,221.33c2.16-1.65,4.14-3.52,5.88-5.61.84-1.01,1.63-2.06,2.36-3.15s1.28-2.37,2.46-2.96c.57-.29.07-1.15-.5-.86-1.08.54-1.7,1.58-2.32,2.56-.75,1.18-1.56,2.31-2.44,3.39-1.75,2.14-3.74,4.08-5.94,5.76-.5.39,0,1.25.5.86h0Z"/>
            <path class="cls-13" d="M155.64,226.66c3.7-3.94,6.44-8.86,10.94-11.99.52-.37.03-1.23-.5-.86-4.59,3.19-7.37,8.14-11.14,12.15-.44.47.27,1.18.71.71h0Z"/>
            <path class="cls-13" d="M160.44,231.98c1.51-5.41,4.78-10.24,9.08-13.82.49-.41-.22-1.12-.71-.71-4.43,3.69-7.78,8.7-9.34,14.27-.17.62.79.89.96.27h0Z"/>
            <path class="cls-13" d="M164.71,233.47c.38-1.19.93-2.31,1.62-3.36.15-.23.04-.55-.18-.68-.24-.14-.53-.05-.68.18-.74,1.11-1.31,2.33-1.72,3.6-.08.26.1.55.35.62.27.07.53-.09.62-.35h0Z"/>
            <path class="cls-13" d="M180.15,231.36c.3,1.7.41,3.43.37,5.16-.02.64.98.64,1,0,.05-1.82-.09-3.63-.4-5.43-.05-.27-.37-.42-.62-.35-.28.08-.4.35-.35.62h0Z"/>
            <path class="cls-13" d="M183.99,221.82c.63,4.19,1.25,8.38,1.88,12.57.09.63,1.06.36.96-.27-.63-4.19-1.25-8.38-1.88-12.57-.09-.63-1.06-.36-.96.27h0Z"/>
            <path class="cls-13" d="M187.69,220.71c2.18,3.28,4.25,6.63,6.21,10.05.32.56,1.18.06.86-.5-1.96-3.42-4.03-6.77-6.21-10.05-.35-.53-1.22-.03-.86.5h0Z"/>
            <path class="cls-13" d="M193.22,217.62c3.35,2.17,5.72,5.46,8.51,8.25.46.46,1.16-.25.71-.71-2.86-2.85-5.28-6.19-8.71-8.41-.54-.35-1.04.52-.5.86h0Z"/>
            <path class="cls-13" d="M199.23,214.13c1.42,1.03,2.57,2.39,3.73,3.68,1.28,1.43,2.57,2.87,3.85,4.3.43.48,1.14-.23.71-.71-1.32-1.47-2.64-2.95-3.96-4.42-1.19-1.33-2.37-2.67-3.83-3.72-.52-.38-1.02.49-.5.86h0Z"/>
            <path class="cls-13" d="M204.24,209.97c3,1.63,5.76,3.64,8.23,6,.47.44,1.17-.26.71-.71-2.53-2.41-5.36-4.49-8.43-6.15-.57-.31-1.07.56-.5.86h0Z"/>
            <path class="cls-13" d="M207.95,203.85c3.19,1.07,5.51,3.76,8.72,4.81.61.2.88-.76.27-.96-3.2-1.04-5.53-3.74-8.72-4.81-.61-.21-.87.76-.27.96h0Z"/>
            <path class="cls-13" d="M170.38,257.63c.07.83-.23,1.65-.44,2.45s-.43,1.66-.64,2.49c-.16.62.8.89.96.27.22-.86.44-1.72.67-2.59s.52-1.73.45-2.62c-.02-.27-.21-.5-.5-.5-.25,0-.52.23-.5.5h0Z"/>
            <path class="cls-13" d="M174.69,257.84v4.31c0,.64,1,.64,1,0v-4.31c0-.64-1-.64-1,0h0Z"/>
            <path class="cls-13" d="M178.63,257.62l.51,3.38c.04.27.38.41.62.35.29-.08.39-.35.35-.62l-.51-3.38c-.04-.27-.38-.41-.62-.35-.29.08-.39.35-.35.62h0Z"/>
            <path class="cls-13" d="M182.54,256.99c-.12,1.18-.02,2.37.27,3.52.07.26.36.42.62.35s.41-.35.35-.62c-.27-1.07-.34-2.16-.23-3.26.03-.27-.25-.5-.5-.5-.29,0-.47.23-.5.5h0Z"/>
            <path class="cls-13" d="M185.9,256.35c-.02.42.1.83.25,1.22s.31.8.46,1.2c.31.81.61,1.61.92,2.42.1.25.34.43.62.35.24-.07.45-.36.35-.62-.3-.78-.59-1.56-.89-2.33-.14-.37-.29-.75-.43-1.12s-.29-.73-.28-1.12c.03-.64-.97-.64-1,0h0Z"/>
            <path class="cls-13" d="M188.95,255.36c.38,1.33.8,2.65,1.25,3.96.09.26.34.42.62.35.25-.07.44-.36.35-.62-.45-1.31-.87-2.63-1.25-3.96-.18-.62-1.14-.35-.96.27h0Z"/>
            <path class="cls-13" d="M194.53,257.7c-.11-1.31-.33-2.61-.69-3.88-.17-.62-1.14-.36-.96.27.33,1.18.55,2.39.65,3.62.02.27.21.5.5.5.25,0,.52-.23.5-.5h0Z"/>
            <path class="cls-13" d="M197.86,255.72c-.43-1.1-.97-2.16-1.62-3.15-.14-.22-.45-.33-.68-.18-.22.14-.33.45-.18.68.61.91,1.14,1.94,1.52,2.91.09.24.34.44.62.35.24-.08.45-.35.35-.62h0Z"/>
            <path class="cls-13" d="M198.35,251.69c.84,1.05,1.52,2.22,2.05,3.45.11.25.47.3.68.18.26-.15.29-.44.18-.68-.57-1.32-1.32-2.54-2.21-3.66-.17-.21-.53-.18-.71,0-.21.21-.17.5,0,.71h0Z"/>
            <path class="cls-13" d="M201.02,249.72c.84,1.07,1.63,2.19,2.37,3.33.15.23.44.32.68.18.23-.13.33-.46.18-.68-.78-1.22-1.63-2.39-2.52-3.53-.17-.21-.53-.17-.71,0-.21.21-.17.49,0,.71h0Z"/>
            <path class="cls-13" d="M203.86,247.73c1.04,1.06,1.91,2.27,2.58,3.59.12.24.46.31.68.18.24-.14.3-.44.18-.68-.71-1.39-1.64-2.68-2.73-3.79-.45-.46-1.16.25-.71.71h0Z"/>
            <path class="cls-13" d="M206.45,245.69c1.25,1.3,2.51,2.61,3.47,4.14.34.54,1.21.04.86-.5-1-1.61-2.32-2.99-3.63-4.35-.45-.46-1.15.24-.71.71h0Z"/>
            <path class="cls-13" d="M208.62,243.54c1.42.94,2.38,2.39,3.3,3.78.15.22.44.32.68.18.22-.13.33-.46.18-.68-1.02-1.54-2.09-3.1-3.66-4.14-.23-.15-.55-.04-.68.18-.14.24-.05.53.18.68h0Z"/>
            <path class="cls-13" d="M211.35,241.26c.72.19,1.37.48,1.99.9.29.2.55.41.8.65s.53.5.62.82c.17.62,1.14.36.96-.27-.13-.46-.43-.82-.76-1.16-.31-.31-.65-.59-1.01-.85-.7-.49-1.5-.86-2.33-1.07-.26-.07-.54.09-.62.35s.09.55.35.62h0Z"/>
            <path class="cls-13" d="M214.46,238.59c1.31.85,2.35,2.07,3.01,3.51.11.25.47.31.68.18.25-.15.29-.44.18-.68-.73-1.58-1.92-2.92-3.37-3.86-.23-.15-.55-.05-.68.18-.14.24-.05.54.18.68h0Z"/>
            <path class="cls-13" d="M217.34,236.07c.34.09.62.32.9.53.33.25.65.52.95.8.61.55,1.17,1.15,1.69,1.79.17.21.53.18.71,0,.21-.21.17-.5,0-.71-.55-.67-1.14-1.3-1.79-1.88-.33-.3-.68-.58-1.03-.85s-.72-.53-1.16-.65c-.62-.17-.89.8-.27.96h0Z"/>
            <path class="cls-13" d="M219.09,233.06c.48-.04.91.12,1.33.35.44.24.86.51,1.26.81.79.58,1.51,1.27,2.14,2.02.17.21.53.18.71,0,.2-.2.17-.5,0-.71-.71-.84-1.52-1.59-2.42-2.23s-1.91-1.34-3.02-1.24c-.27.02-.5.21-.5.5,0,.25.23.52.5.5h0Z"/>
            <path class="cls-13" d="M221.85,228.96c.93.47,1.8,1.06,2.56,1.77s1.46,1.61,2.34,2.27c.22.16.56.04.68-.18.15-.25.04-.52-.18-.68-.85-.63-1.48-1.51-2.26-2.23s-1.68-1.33-2.64-1.81c-.24-.12-.54-.06-.68.18-.13.22-.06.56.18.68h0Z"/>
            <path class="cls-13" d="M224.18,225.32c2.55.36,4.13,2.71,6.09,4.13.22.16.56.04.68-.18.15-.25.04-.53-.18-.68-2.05-1.48-3.65-3.85-6.33-4.23-.27-.04-.54.07-.62.35-.06.23.08.58.35.62h0Z"/>
            <path class="cls-13" d="M226.72,221.05c.55.07,1.07.35,1.54.62.53.3,1.04.65,1.52,1.02.98.74,1.9,1.57,2.83,2.36.49.42,1.2-.29.71-.71-1.03-.88-2.04-1.78-3.12-2.59-1.03-.77-2.19-1.54-3.48-1.71-.27-.04-.5.26-.5.5,0,.3.23.46.5.5h0Z"/>
            <path class="cls-13" d="M166.14,261.75c.7-1.36,1.4-2.71,2.1-4.07.12-.24.06-.54-.18-.68-.22-.13-.56-.06-.68.18-.7,1.36-1.4,2.71-2.1,4.07-.12.24-.06.54.18.68.22.13.56.06.68-.18h0Z"/>
            <path class="cls-13" d="M162.3,259.89c.77-1.16,1.6-2.28,2.49-3.36.17-.21.2-.5,0-.71-.18-.18-.53-.21-.71,0-.95,1.14-1.83,2.32-2.65,3.56-.15.23-.04.55.18.68.24.14.53.05.68-.18h0Z"/>
            <path class="cls-13" d="M158.42,258.08c.97-1.1,2.02-2.12,3.15-3.06.2-.17.19-.54,0-.71-.21-.2-.49-.18-.71,0-1.12.94-2.17,1.97-3.15,3.06-.17.2-.21.52,0,.71.19.17.52.21.71,0h0Z"/>
            <path class="cls-13" d="M155.51,256.08c.88-1.08,1.87-1.94,3.05-2.63.23-.13.33-.46.18-.68s-.44-.32-.68-.18c-1.24.72-2.35,1.67-3.26,2.79-.16.2-.21.51,0,.71.18.17.53.22.71,0h0Z"/>
            <path class="cls-13" d="M152.71,254.14c1.01-1.04,2.13-1.92,3.39-2.64.56-.32.05-1.19-.5-.86-1.32.76-2.53,1.7-3.59,2.8-.19.19-.19.51,0,.71s.52.19.71,0h0Z"/>
            <path class="cls-13" d="M150.08,251.39c.73-1.23,1.76-2.21,3.05-2.88.24-.12.31-.46.18-.68-.14-.24-.44-.3-.68-.18-1.41.73-2.6,1.87-3.41,3.23-.13.23-.06.56.18.68s.54.06.68-.18h0Z"/>
            <path class="cls-13" d="M147.36,248.5c.77-.25,1.46-.68,2.15-1.11.65-.41,1.3-.81,2.04-1.01.62-.16.36-1.13-.27-.96-1.55.4-2.69,1.62-4.19,2.11-.26.08-.42.35-.35.62.07.25.36.43.62.35h0Z"/>
            <path class="cls-13" d="M145.53,246.08c1.27-.81,2.62-1.47,4.05-1.97.26-.09.42-.34.35-.62-.07-.25-.36-.44-.62-.35-1.5.52-2.95,1.21-4.29,2.07-.23.15-.32.44-.18.68.13.23.46.33.68.18h0Z"/>
            <path class="cls-13" d="M144.38,243.45c1.03-.59,2.09-1.14,3.16-1.66.24-.11.32-.47.18-.68-.16-.24-.43-.3-.68-.18-1.07.52-2.12,1.07-3.16,1.66-.23.13-.32.46-.18.68s.44.32.68.18h0Z"/>
            <path class="cls-13" d="M143.19,240.42c1.24-.66,2.51-1.25,3.81-1.76.25-.1.43-.34.35-.62-.07-.24-.36-.45-.62-.35-1.39.54-2.74,1.16-4.05,1.86-.57.3-.06,1.17.5.86h0Z"/>
            <path class="cls-13" d="M142.06,237.8c1.01-.71,2.11-1.28,3.26-1.67.26-.09.42-.34.35-.62-.07-.25-.36-.44-.62-.35-1.24.42-2.42,1.01-3.5,1.77-.22.16-.32.44-.18.68.13.22.46.34.68.18h0Z"/>
            <path class="cls-13" d="M140.99,234.82c1.13-.51,2.33-.86,3.56-1.07.27-.05.42-.37.35-.62-.08-.28-.35-.4-.62-.35-1.31.23-2.58.62-3.8,1.17-.25.11-.31.47-.18.68.15.25.44.29.68.18h0Z"/>
            <path class="cls-13" d="M139.97,231.73c1.31-.16,2.63-.21,3.95-.14.27.01.5-.24.5-.5,0-.28-.23-.49-.5-.5-1.32-.07-2.64-.02-3.95.14-.27.03-.5.21-.5.5,0,.24.23.53.5.5h0Z"/>
            <path class="cls-13" d="M140.03,228.81c1-.53,2.12-.82,3.25-.85.27,0,.5-.23.5-.5s-.23-.51-.5-.5c-1.31.03-2.6.37-3.76.98-.24.13-.31.46-.18.68.14.24.44.31.68.18h0Z"/>
            <path class="cls-13" d="M139.97,225.85c.23-.15.47-.29.72-.4.08-.03-.06.02.02,0,.03-.01.06-.02.09-.04.06-.02.13-.05.19-.07.13-.04.27-.08.41-.11.07-.01.13-.03.2-.04.03,0,.07-.01.1-.02.05,0,.06,0,0,0,.15-.02.29-.04.44-.06.29-.06.57-.18.79-.39.19-.18.2-.53,0-.71s-.5-.19-.71,0c-.04.04-.04.04,0,0-.02.02-.05.03-.07.04-.05.03-.05.03,0,0-.03.01-.05.02-.08.03-.11.04-.22.05-.34.07-.06,0-.06,0,0,0-.03,0-.06,0-.09.01-.09.01-.18.02-.27.04-.13.02-.26.05-.39.08-.54.14-1.06.37-1.53.68-.22.15-.33.45-.18.68.14.22.45.33.68.18h0Z"/>
            <path class="cls-13" d="M139.54,223.68c1.04-.3,1.98-.82,2.81-1.51.2-.17.19-.54,0-.71-.21-.2-.49-.18-.71,0-.05.04-.09.08-.14.11-.02.02-.05.04-.07.05.04-.03.03-.02,0,0-.09.07-.19.14-.29.2-.2.14-.41.26-.62.38-.1.06-.21.11-.32.16-.05.03-.11.05-.16.07,0,0-.09.04-.04.02s-.03.01-.04.02c-.23.09-.45.17-.69.24-.25.07-.43.36-.35.62s.35.43.62.35h0Z"/>
          </g>
        </g>
        <g>
          <path class="cls-44" d="M93.07,103.99c9.83-.68,19.32-4.77,27.38-10.31-.31-.15-.59-.33-.84-.57-6.32-1.05-14.68,1.38-20.08-1.31-.62-.31-.38-1.12-.43-1.15-.19-.1-.38.43-.72.29-1.94-.85-2.97-1.35-5.31-.57-3.21,1.06-1.8,4.04-2.29,6.17-1.14,4.94-4.02,11.73-3.15,16.92.19,1.14,2.08,4.62,2.01,4.88-.12.43-2.62.15-3.44,3.73-.69,3.03.33,5.14.29,7.46-.01.72-1.23,2.93-.86,5.45.12.8,1.62,3.35,1.43,3.73-.32.65-2.58.06-3.15,4.59-.52,4.11.49,6.36,1.43,10.04.64,2.5-1.02,3.39,2.58,5.16-6.61-1.49-2.42,5.58-2.87,6.6-.07.15-1.75.41-2.01,2.29-.31,2.31,1.72,4.43,1.72,4.88,0,.22-1.07,1.38-1.15,1.72-.47,2.19-1.5,6.53-1.15,8.6.16.95,1.43,2.16,1.43,2.29,0,.19-1.54,2.04-1.72,3.44-.37,2.88,1.12,4.4,1.15,5.16,0,.14-1.1,2.14-1.15,2.58-.46,4.34-.05,3.67,1.15,7.31,8.4,4.57,19.71-8.57,7.74-12.19,3.56-.07,7.59-5.41,5.74-8.6-1.04-1.8-8.32-2.03-10.32-2.58,0-.34,6.1-.03,6.74-.14,4.08-.75,8.02-9.12,1-9.03,3.64-3.09,6.01-10.19-1.15-9.75,5-2.83,4.3-5.86,4.88-10.61.19-1.6,2.66-1.39-2.01-2.58,2.1-1.95,3.79-5.43,3.15-8.32-.31-1.41-2.56-2.68-2.58-2.87-.03-.3,3.02-2.12,2.29-5.16-.22-.93-2.3-2.2-2.29-2.58,0-.32,3.34-3.58,4.01-4.88,1.21-2.31,3.77-8.61-1-8.17-2.9.26-8.32,8.57-6.88-2.01,5.58-.03,10.25-3.71,13.62-7.89-1.07-2.01-14.63,1.38-13.19-2.01Z"/>
          <path class="cls-44" d="M139.25,47.54c2.34-.7,8.51-1.4,9.16-1.59-1.52-2.14-3.37-4.76-4.87-6.92-2.23-3.22-11.76-15.41-11.76-18.5,0-.18.43.12.57-.72-8.3-1.72-13.38,5.28-8.64,11.66-5.02-5.03-12.04-3.73-11.14,4.97,1.06.03,5.11,6.6,6.31,7.89,1.91,2.04,4.52,3.69,6.6,5.59,1.86.69,3.59,1.59,5.27,2.59,1.44-2.06,3.88-3.38,6.33-4.41-4.26-4.55-8.47-9.56-11.74-14.81,4.05,5.13,8.99,10.06,13.92,14.24Z"/>
          <path class="cls-44" d="M172.37,43.33c.36.36.62.8.8,1.28,1.56-.29,3.2-.17,4.82.08l-1.48-21.29,3.06,21.57c.82.16,1.63.33,2.4.47.84.15,1.68.27,2.52.4.56-3.94,1.04-7.89,1.48-11.82.72-6.39,3.03-23.1,2.01-28.53-1.8-9.57-15.04-5.48-12.62,3.58-3.94-6.74-7.16-5.88-7.7-6-10.46-2.27-9.79,10.49-2.76,28.1,2.03,5.07,5.33,6.84,7.46,12.16Z"/>
          <path class="cls-44" d="M269.58,60.83c-1.03-.62-6.44-.66-6.45-2.44,0-.16,1.51-1.42,1.72-2.58.62-3.33-1.25-7.15-4.88-7.6-3.78-.47-8.48,3.99-11.18,6.31-1.58,1.35-3.07,3.46-4.73,4.88-5.35,4.55-11.93,8.01-18.55,10.51l.17.91c1.85-.04,3.81-.27,5.48-.52,10.8-1.58,21.34-5.58,30.7-11.03.11-.07.25,0,.28.12.16.84,1.31,2.19,1.28,2.45-.16,1.42-14.89,8.8-17.06,9.61-4.67,1.74-9.74,2.39-14.48,3.87,9.36,1.67,18.95.95,28.25-.72,1.62-.29,3.89-1.54,5.31-1.72.69-.09.47-.16,1.15,0,.56-1.06,2.75-1.48,3.44-2.01.05-.04.18.11.57-.29,1.57-1.59,1.07-8.51-1-9.75Z"/>
          <path class="cls-44" d="M149.5,45.84c.1-.02,9.12-1.33,10.09-1.51-1.78-3.56-3.82-7.85-5.44-11.46-.22-.48-1.05-2.26-.57-2.72-1.96-3.75-4.31-8.57-5.45-12.62-1.5-.64-2.22-2.66-3.58-3.44-4.86-2.78-11.25.25-12.19,5.74-.14.84-.57.54-.57.72,0,3.09,9.53,15.28,11.76,18.5,1.82,2.1,4.04,4.78,5.96,6.8Z"/>
          <path class="cls-44" d="M196.48,47.33c.67.1,1.33.23,1.99.37,5.68-8.47,9.94-18.15,14.47-27.02.52-1.25.8-1.25,1.15-2.01.86-4.44,3.26-11.3-2.87-13.19-3.48-1.08-7.95.06-9.46,3.58-2.64,6.15-3.66,19.51-5.74,26.96-1.02,3.66-2.35,7.22-3.68,10.79,1.38.16,2.77.33,4.15.52Z"/>
          <path class="cls-44" d="M153.58,30.14c1.36,2.6,5.15,8.85,8.67,14.14,2.41-.43,5.4,1.13,6.57-1.93-.83-2.09-1.63-4.2-2.34-6.33-1.88-5.64-6.3-19.68-6.6-25.09-2.5-4.32-7.96-6.81-11.47-2.15-2.52,3.34-1.23,5.38-.29,8.75,1.13,4.05,3.48,8.87,5.45,12.62Z"/>
          <path class="cls-44" d="M189.39,46.47c1.47-3.25,2.89-6.52,4.05-9.88,2.43-6.98,5.18-24.68,8.03-29.39-1-.52-.98-2.1-1.72-3.01-2.03-2.49-4.8-2.85-7.74-1.86.31.43-.88.59-1.15,1-3.04,4.78-3.04,26.31-3.73,33.27-.31,3.15-.73,6.3-1.18,9.46,1.14.15,2.29.29,3.44.42Z"/>
          <path class="cls-44" d="M129.11,57.56c-.1-.5-.09-1.05.07-1.65.18-.7.42-1.34.72-1.95-1.48-1.33-2.95-2.68-4.42-4.03-2.07-1.9-4.69-3.55-6.6-5.59-1.2-1.29-5.25-7.85-6.31-7.89-1.57.81-3.22.84-4.73,2.01-2.93,2.25-4.31,7.63-1.29,10.32,1.86,1.66,6.92,4.32,9.75,6.6,4.5,2.11,9.38,4.55,13.91,6.64.25-.26.75-1.35,1.02-1.58-.91-1.13-2.03-1.69-2.11-2.87Z"/>
          <path class="cls-44" d="M266.57,72.87c.63.15,2.27,1.53,2.72,1.72.28.12,1.04-.12,1.29,0,.48.23,1.15.26,1.72.57,2.79,1.53,3.04,9.4,1.72,11.47-1.45,2.28-5.8,1.65-8.03,2.29-1.94-.83-5.32-.06-7.89-.29-7.54-.66-15.02-1.88-21.94-5.02,9.4-4.3,22.64-1.18,29.25-10.75.69-.09.47-.16,1.15,0Z"/>
          <path class="cls-44" d="M121.36,81.29c-7.14-1.03-15.5-1.38-19.69-7.85-.57-.21-1.15-.31-1.72-.57-.16.45-2.23,2.21-2.44,2.29-.16.06-1.78-.49-3.15.57-2.05,1.58-2.51,9.71-.72,11.47,1.59,1.56,4.79,1.5,6.88,1.72,6.42.67,12.91-.61,19.04-2.2.88-2.49,1.18-3.63,1.79-5.44Z"/>
          <path class="cls-44" d="M128.42,64.9c-2.33-1.35-5.26-3.23-7.39-4.93-1.61-1.29-3.24-3.39-4.73-4.59-2.83-2.27-7.89-4.94-9.75-6.6-6.4.13-8.25,7.84-3.15,11.47.15.1,11.04,6.53,22.95,8.68.92-1.49,1.29-2.73,2.08-4.03Z"/>
          <path class="cls-44" d="M123.2,76.23c.46-1.11.78-2.01,1.24-3.07-2.31-.59-5.21-1.42-7.43-2.29-6.01-2.37-9.61-4.75-14.19-8.89-1.51-1.36-3.7-2.2-5.59-.86-1.41,1-2.31,7.44-1.58,9.03.36.77,3.41,2.3,4.3,2.72.57.27,1.15.36,1.72.57,6.26,2.29,12.65,3.61,21.53,2.78Z"/>
          <path class="cls-44" d="M283.77,166.36c-1.36-1.42-2.08,1.17-3.58,1.43l2.44-2.29c.82-.58.85.27,1.15.86Z"/>
          <g>
            <path class="cls-44" d="M251.08,36.02c2.21-5.76-3.07-11.6-8.89-8.32,2.94-7.45-7.86-14.31-13.19-8.32-1.08,1.22-1.73,3.55-3.01,4.73,2.06-3.58,3.48-9.15-.57-12.04-5.8-4.14-9.31,2.21-11.33,6.6-.35.76-.63.76-1.15,2.01-.49,1.18-.86,3.87-1.43,5.31-3.1,7.7-6.26,15.26-9.95,22.57,2.08.68,4.11,1.53,6.13,2.42,5.16-5.2,9.57-11.14,13.14-17.68.63.39.07,1.09-.14,1.58-2.45,5.63-6.33,11.13-10.25,16.5,2.34.19,4.7.59,6.92,1.32,6.44-4.83,12.52-10.12,17.81-16.24-4,6.53-9.12,12.24-14.58,17.64.91.5,1.78,1.09,2.58,1.77.07,0,.14.01.21.02,1.33.06,2.27.68,2.86,1.54,4.34-2.6,8.53-5.46,12.65-8.35l-12.08,9.64c.22.88.15,1.83-.21,2.63.61,1.13.64,2.58.07,3.73.44-.17.89-.33,1.33-.51,7.11-2.9,13.69-7.15,20.79-10.04,2.7-2.32,7.4-6.78,11.18-6.31l-1.43-.43c5.57-4.64-1.14-13.53-7.46-11.76Z"/>
            <path class="cls-44" d="M225.13,25.56c.6-.05-.37,1.73-.43,1.86-.9,1.88-2.21,3.8-3.3,5.59l3.73-7.46Z"/>
          </g>
          <g>
            <path class="cls-44" d="M262.84,243.5c-1.89,2.96-6.7,4.46-9.46,2.29-1.81-1.42-2.15-4.43-.86-6.31.86.09,2.79-.4,3.73-.57,1.74-.32,4.69-.9,6.02-2.29,3.39.24,1.77,5.01.57,6.88Z"/>
            <g>
              <path class="cls-44" d="M262.26,137.97c-.87,1.3-.67,1.15-2.01,2.01.2-.1,1.25-1.83,2.01-2.01Z"/>
              <path class="cls-44" d="M255.81,148.87c.8.07,1.67-.17,2.44.14,0,.12-2.34.42-2.44-.14Z"/>
            </g>
          </g>
          <g>
            <path class="cls-44" d="M101.49,127c-.06-.04-.72.02-.9-.45.52-.55.85.43.9.45Z"/>
            <path class="cls-44" d="M101.34,167.77c.48,0,1.85.08,1.95.75-.07.26-2.01-.26-1.95-.75Z"/>
          </g>
          <path class="cls-44" d="M94.17,212c.35,2.96.85,6.17,1.8,8.99-2.58,3.72-5.34,3.67-9.29,2.1-.05-.02-.38-1-.9-.45.18.47.84.41.9.45,3.32,2.65,7.14-.29,7.79,4.05.47,3.13-1.7,4.17-1.8,4.8-.13.86,2.54,2.65,1.2,5.7-1.08,2.45-5.2,1.75-7.19,2.1,3.26.81,8.84-.42,7.79,4.8-.75,3.74-6.4,3.06-8.99,2.1,2.95,2.8,9.47-.57,8.99,5.1-.62,7.38-11.96,4.19-12.59-3-.34-3.82,1.91-2.14,2.1-3.3.06-.38-2.48-4.59-2.1-7.19.07-.46,1.19-1.4,1.2-1.5.21-1.79-3.4-6.88,1.5-6.89-1.76-1.31-3.03-6.19-2.4-8.09.2-.6,1.75-1.07,1.8-1.2.07-.2-1.38-2.78-1.5-3.9-.57-5.51,3.1-11.51,8.84-7.64,1.64,1.11,1.28,3.68,2.85,3Z"/>
          <path class="cls-44" d="M94.46,196.55c.93-4.63-3.36-4.18-6.62-4.59-2.16-.06-4.18-.55-6-1.38-.16,2.62,2.18,6.51,2.12,6.87-.19,1.16-2.43-.53-2.1,3.3.63,7.19,11.97,10.38,12.59,3,.48-5.67-6.04-2.29-8.99-5.1,2.59.96,8.25,1.64,8.99-2.1Z"/>
          <path class="cls-44" d="M274.59,90.08c2.79,1.07,1.87,4.66,2.29,6.74,1.04,5.12,3.82,11.71,2.87,16.92-.2,1.09-2.07,4.35-2.01,4.59.13.52,2.63.12,3.44,3.15.2.77.94,11.81.86,12.62-.13,1.37-1.78,4.08-1.72,4.3.12.43,2.49.37,3.15,3.73.79,3.99-.29,6.94-1.15,10.61-.56,2.38.87,4.15-2.58,5.45,5.22-.21,3.23,3.85,2.87,7.31l-2.44,2.29c1.5-.27,2.23-2.86,3.58-1.43,1.75,3.54-1.01,4.68-.86,6.17.01.1,1.07,1.33,1.15,1.72.14.7-.13,1.72,0,2.44-1.36.36-.66,1.14-1.43,2.01-2.95,1.85-9.74,2-12.04-1-2.53-3.31-2.3-6.81,2.58-6.88-3.93-2.88-6.44-10.19.86-9.75-4.96-2.64-4.42-6.03-5.16-10.61-.1-.64-1.5-1.2-.43-1.86l2.72-.72c-2.25-1.94-4.35-5.95-3.15-8.89.22-.55,2.08-1.63,2.01-2.29-.03-.32-2.9-2.28-2.58-4.59.14-1.03,2.34-2.72,2.29-3.15-.03-.23-2.14-1.73-2.58-2.29-1.4-1.8-6.59-9.82-2.44-10.75,3.42-.77,6.06,4.41,8.89,3.15.43-.19.9-4.3.72-4.73s-6.68-1.77-8.46-2.72c-.95-.51-6.58-4.87-6.45-5.59,4.63-2.61,10.75,1.34,14.91-1.72.35-.88-6.04-.83-7.03-1-7.74-1.41-16.84-5.59-23.37-9.89.05-1.04,19.06-.17,20.79-.43,2.2-.33,3.16-1.84,3.58-2.01,1.71-.68,4.57-1.53,6.31-.86Z"/>
          <path class="cls-44" d="M284.92,202.49c-8.04,6.61-21.48-7.43-8.6-11.33-2.77-.18-6.05-3.3-6.31-6.02-.57-6.04,9.64-3.11,12.62-6.45.78-.87.07-1.65,1.43-2.01.24,1.4,1.39,3.21,1.15,5.31-.12,1.03-1.43,2.71-1.43,2.87,0,.21,1.57,2.36,1.72,3.73.33,2.97-1.04,3.63-1.15,4.59-.26,2.27,2.82,4.71.57,9.32Z"/>
          <path class="cls-44" d="M282.29,219.42c-.79.22-1.89,2.38-2.1,2.51-2.47,1.46-6.65,2.13-8.39-.9-1.71-2.97-.12-6.16,0-9.67,0-.29-.6-.14-.6-.18.09-2.51.88-5.44.9-7.88,1.88-.15,3,1.72,4.95,1.43.38-.06,1.97-1.52,2.7-1.43.46.05,3.16,2.8,3.45,3.4,1.76,3.76,1.05,9.21-.9,12.71Z"/>
          <path class="cls-44" d="M280.2,221.93c1.4-1.07,1.19-.88,2.1-2.51,4.18-1.18,1.59,9.31-.6,10.92,5.36-.87,1.54,5.59,1.8,7.88.02.15,1.14,1.26,1.2,1.79.18,1.61-.97,6.83-1.8,8.23-2.25,3.79-10.05,4.7-10.79-.72-.89-6.45,5.1-4.47,8.39-5.73-3.41-.16-8.91.38-8.09-5.73.09-.7,1.51-2.99,1.5-3.22-.04-.63-2.37-2.33-1.8-6.09.64-4.22,4.87-2.36,8.09-4.83Z"/>
        </g>
        <g>
          <g>
            <path class="cls-24" d="M179.74,57.05c2.24-5.43,1.79-8.98.74-12.33,11.98,1.78,37.28,6.09,44.18,10.52,2.49,1.6,4.41,7.55,3.34,9.86-.71,1.53-2.01,2.55-3.68,2.15-.55-.13-40.48-10.18-44.58-10.2Z"/>
            <path class="cls-35" d="M200.13,51.99c7.98,1.33,14.78,2.33,24.69,7.81-6.61-1.15-12.84-4.02-19.26-5.97-1.52-.46-5.69-.88-5.43-1.84Z"/>
            <path class="cls-35" d="M187.4,54.91c14.86.62,20.29,3.84,29,7.23.19.07,1.28-.3,3.62,1.5-8.24-2.72-16.53-5.42-25.06-7.15-2.23-.45-6.21-.5-7.56-1.58Z"/>
          </g>
          <g>
            <path class="cls-24" d="M165.55,44.2c-2.5,3.76-3.8,7.55-2.48,12.02-8.36-.22-16.6.87-24.78,2.41-2.92.55-6.42,2.3-8.06,1.9-2.87-.7-1.48-8.15,3.39-11.39.42-.28,16.67-5.25,31.92-4.95Z"/>
            <path class="cls-35" d="M158.19,53.07c.13.13.11.32-.05.4-.5.25-9.11.88-10.72,1.14-4.27.71-10.04,2.5-12.73,2.93-5.72.92,3.5-2.55,9.22-3.56,4.72-.84,9.53-.93,14.28-.92Z"/>
            <path class="cls-35" d="M159.94,47.84c.38.03.61.02.34.34-8.58.46-16.95,2.15-25.19,4.16,10.32-4.6,13.32-5.34,24.84-4.5Z"/>
          </g>
        </g>
        <path d="M75.63,184.78c-.06-.04-.72.02-.9-.45.52-.55.85.43.9.45Z"/>
        <g>
          <path d="M282.29,219.42c-.91,1.62-.7,1.43-2.1,2.51.21-.12,1.31-2.28,2.1-2.51Z"/>
          <path d="M275.55,233.03c.83.09,1.75-.21,2.55.18,0,.15-2.45.53-2.55-.18Z"/>
        </g>
        <g>
          <path class="cls-44" d="M108.98,115.91c.35,2.96.85,6.17,1.8,8.99-2.58,3.72-5.34,3.67-9.29,2.1-.05-.02-.38-1-.9-.45.18.47.84.41.9.45,3.32,2.65,7.14-.29,7.79,4.05.47,3.13-1.7,4.17-1.8,4.8-.13.86,2.54,2.65,1.2,5.7-1.08,2.45-5.2,1.75-7.19,2.1,3.26.81,8.84-.42,7.79,4.8-.75,3.74-6.4,3.06-8.99,2.1,2.95,2.8,9.47-.57,8.99,5.1-.62,7.38-11.96,4.19-12.59-3-.34-3.82,1.91-2.14,2.1-3.3.06-.38-2.48-4.59-2.1-7.19.07-.46,1.19-1.4,1.2-1.5.21-1.79-3.4-6.88,1.5-6.89-1.76-1.31-3.03-6.19-2.4-8.09.2-.6,1.75-1.07,1.8-1.2.07-.2-1.38-2.78-1.5-3.9-.57-5.51,3.1-11.51,8.84-7.64,1.64,1.11,1.28,3.68,2.85,3Z"/>
          <path class="cls-44" d="M98.79,190.85c.04.07.96.94,1.2,1.2,3.35,3.57,8.36.59,8.99,4.05s-1.7,7.4-5.7,6l1.05.75c6.46-2.44,5.7,8.27,2.1,9.59l-1.65.15c3.76-.42,5.1,2.33,4.5,5.7-.16.91-1.5,2.33-1.5,2.7,0,.21,1.4,1.9,1.5,2.4.38,1.81-.02,5.29-1.8,6.44-2.96-.56-5.41,1.3-8.39-2.4-1.12-1.38-2.66-6.46-2.1-7.94.19-.49,1.72-.77,1.8-1.2.04-.21-1.35-3.05-1.5-3.9-1.05-6.18,1.47-3.64,2.1-4.8.22-.4-3.77-5.42-2.1-8.69.33-.65,1.76-1.07,1.8-1.2.17-.49-5.03-8.24-.3-8.84Z"/>
          <path class="cls-44" d="M99.99,192.05c-.24-.26-1.16-1.12-1.2-1.2-.65-1.17-2.19-5.97-1.8-7.04.32-.89,1.47-.32,1.5-1.5.04-1.43-5.47-10.97,2.4-6.59-1.88-1.44-3.39-2.62-3.9-5.1-1.08-5.27,1.45-3.38,1.8-4.2.15-.35-2.75-4.2-2.1-7.19.79-3.61,3.49.17,5.25.75,2.86.95,9.62-.02,7.04,6.15-.74,1.78-3.72,2.32-5.4,2.4,3.98.33,6.98.03,5.4,5.1-1.19,3.78-4.81,2.61-7.79,2.4,1.89,1.59,6.76.18,7.79,2.4,1.68,3.6-1.87,6.24-1.8,6.59s2.79.96,2.1,5.1c-.74,4.44-6.46,4.23-9.29,1.95Z"/>
          <path class="cls-44" d="M96.92,221.58c-.08-1.65,2.03-2.46,3.17-1.27,0,0,.01.01.02.02,3.35,3.57,8.36.59,8.99,4.05.66,3.62-1.7,7.4-5.7,6l1.05.75c6.28-2.37,5.73,7.68,2.39,9.46-.19.1-.41.14-.62.16l-1.32.12c3.76-.42,5.1,2.33,4.5,5.7-.16.91-1.5,2.33-1.5,2.7,0,.21,1.4,1.9,1.5,2.4.31,1.49.09,4.11-.98,5.63-.35.5-.95.76-1.56.72-2.64-.19-4.92,1.08-7.66-2.3-1.12-1.38-2.66-6.46-2.1-7.94.19-.49,1.72-.77,1.8-1.2.04-.21-1.35-3.05-1.5-3.9-1.05-6.18,1.47-3.64,2.1-4.8.22-.4-3.77-5.42-2.1-8.69.33-.65,1.76-1.07,1.8-1.2.11-.33-2.17-3.88-2.29-6.39Z"/>
          <path class="cls-44" d="M252.18,148.06c1.64,1.11,1.28,3.68,2.85,3,.35,2.96.85,6.17,1.8,8.99-2.58,3.72-5.34,3.67-9.29,2.1-.05-.02-.38-1-.9-.45.18.47.84.41.9.45,3.32,2.65,7.14-.29,7.79,4.05.47,3.13-1.7,4.17-1.8,4.8-.13.86,2.54,2.65,1.2,5.7-1.08,2.45-5.2,1.75-7.19,2.1,3.26.81,8.84-.42,7.79,4.8-.75,3.74-6.4,3.06-8.99,2.1,2.95,2.8,9.47-.57,8.99,5.1-.62,7.38-11.96,4.19-12.59-3-.34-3.82,1.91-2.14,2.1-3.3.06-.38-2.48-4.59-2.1-7.19.07-.46,1.19-1.4,1.2-1.5.21-1.79-3.4-6.88,1.5-6.89-1.76-1.31-3.03-6.19-2.4-8.09.2-.6,1.75-1.07,1.8-1.2.07-.2-1.38-2.78-1.5-3.9"/>
          <path class="cls-44" d="M249.83,244.96c-.26-.24-1.23-1.05-1.27-1.12-.72-1.13-2.55-5.82-2.23-6.92.26-.91,1.44-.41,1.4-1.59-.05-1.43-6.14-10.61,1.98-6.73-1.96-1.32-3.54-2.4-4.21-4.84-1.41-5.2,1.23-3.47,1.54-4.3.13-.36-3.01-4.02-2.54-7.05.57-3.66,3.5-.05,5.28.42,2.91.77,9.6-.62,7.41,5.7-.63,1.82-3.57,2.55-5.24,2.73,4,.09,6.97-.4,5.7,4.75-.95,3.85-4.64,2.9-7.63,2.88,1.99,1.47,6.76-.24,7.93,1.91,1.9,3.49-1.48,6.34-1.39,6.69s2.84.79,2.41,4.96c-.46,4.48-6.19,4.63-9.15,2.52Z"/>
          <path class="cls-44" d="M247.04,214.04c-.24-.26-1.16-1.12-1.2-1.2-.65-1.17-2.19-5.97-1.8-7.04.32-.89,1.47-.32,1.5-1.5.04-1.43-5.47-10.97,2.4-6.59-17.28-7.81,9.68-7.16,8.09-2.1-1.19,3.78-4.81,2.61-7.79,2.4,1.89,1.59,6.76.18,7.79,2.4,1.68,3.6-1.87,6.24-1.8,6.59s2.79.96,2.1,5.1c-.74,4.44-6.46,4.23-9.29,1.95Z"/>
          <g>
            <path class="cls-44" d="M266.38,169.1c2.69-.31,1.98,4.29,1.64,5.82-.21.93-1.65,2.76-1.62,2.93.12.74,2.05.31,2.32.78.38.64-.8,5.66-1.21,6.36-1.62,2.74-8.76,5.19-10.3.94-1.71-4.73.26-4.48,3.81-5.87-2.92.28-5.13-2.38-4.49-5.29.63-2.87,7.27-1.68,9.84-5.65Z"/>
            <path class="cls-44" d="M266.38,169.1c-.51.06-2.8,2.18-4.07,2.44-2.23.45-4.8.26-5.67-2.24-2.22-6.31,2.56-4.76,6.54-5.83,1.13-.3,3.18-2.58,4.54-1.59,1.33.97-.57,6.05-1.32,7.22Z"/>
            <path class="cls-44" d="M263.05,139.67c1.31-.91,1.12-.75,1.94-2.08,3.96-1.09,1.78,7.4-.27,8.76,5.1-.87,1.63,4.43,1.94,6.24.02.12,1.12.97,1.2,1.39.22,1.29-.73,5.5-1.49,6.65-2.04,3.11-9.47,4.1-10.34-.21-1.03-5.14,4.75-3.75,7.86-4.87-3.27-.01-8.51.6-7.9-4.31.07-.57,1.36-2.44,1.34-2.63-.06-.5-2.27-.03-1.83-3.06.49-3.4,4.53-3.81,7.55-5.89Z"/>
            <path class="cls-44" d="M266.61,203.51c-1,.32-1.72,1.36-2.79,1.6-7.9,1.74-10.27-8.39-1.94-8.18-4.26,1.17-7.44-6.19-3.72-7.82,2.64-1.16,6.87-.32,9.47-3.63,3.49,1.17-.61,8.41-.44,8.86.26.69,1.46.13,1.83.84.71,1.36-1.33,7.04-2.41,8.33Z"/>
            <path class="cls-44" d="M268.76,238.08c-1.34,1.5-4.4,2.22-6.21,2.62-3.39.52-4.47-3.35-4.11-6,.12-.9,1.45-2.35,1.39-3.05-.02-.27-1.18-1.4-1.26-1.76-2.02-8.97,5.28-4.3,9.27-9.32-2.89,2.13-8.55,4-9.63-.86-1.47-6.61,2.27-4.34,6.38-6.22-2.76.15-5.02,1.25-6.36-1.88-3.51-8.15,5.2-4.03,8.71-8.25,6.08-1.92.68,7.12.87,7.62.08.21,1.93.64,2.14,1.12,1.05,2.48-2.09,7.84-1.81,8.16.19.22,1.73.22,1.96.38,1.15.8-.86,8.21-1.92,9.52,4.57-3.01,1.95,6.38.58,7.93Z"/>
            <path class="cls-44" d="M269.61,245.25c-1.87,3.16-6.84,4.9-9.8,2.74-1.94-1.42-2.41-4.55-1.13-6.56.9.07,2.9-.52,3.87-.74,1.81-.39,4.87-1.11,6.21-2.62,3.55.13,2.03,5.17.85,7.17Z"/>
          </g>
          <g>
            <path class="cls-44" d="M118.77,162.36s-.78,1.89-5.25,1.07c3.26.81,8.84-.42,7.79,4.8-.75,3.74-6.4,3.06-8.99,2.1,2.95,2.8,9.47-.57,8.99,5.1-.62,7.38-11.96,4.19-12.59-3-.34-3.82,1.91-2.14,2.1-3.3.06-.38-2.48-4.59-2.1-7.19.07-.46,1.19-1.4,1.2-1.5.21-1.79-3.4-6.88,1.5-6.89-1.76-1.31-.58-7.36.06-9.26.12-.35.97,4.57,3.02,9.86,1.41,3.64,4.27,8.22,4.27,8.22Z"/>
            <path class="cls-44" d="M116.37,222.63l-1.05-.75c4,1.41,6.36-2.38,5.7-6-.63-3.46-5.64-.48-8.99-4.05-.24-.26-1.16-1.12-1.2-1.2-4.73.6.46,8.35.3,8.84-.04.12-1.47.55-1.8,1.2-1.01,1.98.44,5.24,1.38,7.08.38-1.43.89-2.12,2.51-1.92,1.41.18.57.1,2.22.57,1.52-1.38,2.71-2.78,4.27-3.55-.77-.54-1.87-.8-3.34-.24Z"/>
            <path class="cls-44" d="M111.27,128.11c-.06-.04-.72.02-.9-.45.52-.55.85.43.9.45Z"/>
            <g>
              <path class="cls-44" d="M112.02,211.84c-.24-.26-1.16-1.12-1.2-1.2-.65-1.17-2.19-5.97-1.8-7.04.32-.89,1.47-.32,1.5-1.5.04-1.43-5.47-10.97,2.4-6.59-1.88-1.44-3.39-2.62-3.9-5.1-1.08-5.27,1.45-3.38,1.8-4.2.15-.35-2.75-4.2-2.1-7.19.79-3.61,3.49.17,5.25.75,2.86.95,9.62-.02,7.04,6.15-.74,1.78-3.72,2.32-5.4,2.4,3.98.33,6.98.03,5.4,5.1-1.19,3.78-4.81,2.61-7.79,2.4,1.89,1.59,6.76.18,7.79,2.4,1.68,3.6-1.87,6.24-1.8,6.59s2.79.96,2.1,5.1c-.74,4.44-6.46,4.23-9.29,1.95Z"/>
              <path class="cls-44" d="M111.12,168.87c.48,0,1.85.08,1.95.75-.07.26-2.01-.26-1.95-.75Z"/>
            </g>
          </g>
        </g>
        <path class="cls-11" d="M185.63,43.13c-.88-10.55-11.05-23.2-11.41-22.82-1.75,1.82-12.2,11.49-14.66,23.43-.85,4.14,1.15,13.59,4.64,16.44h0c2.35,3.53,12.37,2.36,11.32,2.31,3.82.19,9.84-12.94,10.12-19.36Z"/>
        <path class="cls-17" d="M208.73,459.54c-17.26,1.58-91.38-17.06-87.22-.27.25,1.01,4.19,17.74,8,21.01,7,6,43.02,8,67.03,7,33.72.2,56.95-19.85,66.01-31.52,2.55-3.28-.14-5.72-1.81-5.22-15.11,4.53-38.54,7.77-52,9Z"/>
        <path class="cls-3" d="M171.11,59.09c3.42.42,4.87-1.41,4.87-1.41,0,0,5.71-6.51,6.19-14.34.33-5.42-8.34-16.34-8.61-16.1,0,0-10.9,5.04-11.27,18.34-.15,5.29-.25,12.39,8.82,13.51Z"/>
        <g>
          <path class="cls-25" d="M169.67,57.09c3.34.85,4.87-1.41,4.87-1.41,0,0,5.69-6.52,6.19-14.34.22-3.49-7.68-15.77-7.95-15.53,0,0-11.56,4.47-11.93,17.77-.15,5.29.62,11.43,8.82,13.51Z"/>
          <path class="cls-1" d="M164.21,38.58c-.23,2.36,3.67-1.49,5.93-1.48,1.36,0,5.01,1.62,3.6,13.55-.2,1.71,7.71-9.52,1.73-15.61-1.91-1.94-3.99-3.86-3.99-3.86,0,0-6.87,3.25-7.27,7.41Z"/>
        </g>
        <g>
          <g>
            <path class="cls-2" d="M228.63,299.57c-.13.57-1.19.84-1.22,1.04-.46,2.92,5.34,4.61-2.44,20.66-2.32,4.79-4.64,7.64-7.85,11.73-.91,1.16-8.76,8.67-8.21,9.62,20.15,12.57,76.12,38.22,87.47,7.13-.42,6.09-.81,12.47-2.51,18.36-1.22,4.22-3.05,8.2-6.68,10.94-13.07,9.85-40.75-3.36-53.18-10.73-3.33-1.97-24.15-16.54-27.16-18.96-11.25-9.05-11.65-11.22-9.31-25.72,1.41-.53,4.2,3.64,7.35,5.48,4.34-4.73,18.11-9.95,19.89-14.76.32-.86,1.72-13.12,1.71-14.18.92-.46,1.17-.5,2.15-.6Z"/>
            <path class="cls-7" d="M265.5,338.22c-.81,1.32-2.11,2.47-2.32,4.14-2.56-.6-6.44-1.15-9.82-1.89-2.06-4.22-2.75-11.56-3.84-14.48,9.97-1.15,14.07-1.97,23.4-5.18,7.46-2.56-.02,5.39-7.42,17.41Z"/>
            <path class="cls-7" d="M263.17,342.36c.22-1.66,1.51-2.82,2.32-4.14,6.58,2.85,14.43,4.72,18.76,10.99-6.4-3.68-13.9-5.17-21.09-6.85Z"/>
            <g>
              <path class="cls-31" d="M226.47,300.18c.01,1.06-1.39,13.32-1.71,14.18-1.78,4.81-15.55,10.03-19.89,14.76-3.14-1.85-5.94-6.02-7.35-5.48.34-2.13.81-4.26,1.23-6.38,15.51,10.46-1.01.64,2.27-5.17,16.88,9.3,14.35,4.25-.45-1.61.12-.48.16-.99.28-1.47.08-.32.1-.66.19-.98.83-.7.63-1.35.87-1.87,5.8,1.25,11.29,5.02,17.74,5.7-12.69-8.6-18.63-2.18-9.7-11.79,18.67,14.65,13.33,7.28-.42-3.13q.3-2.23.6-4.47c2.06-2.41,2.44-1.56,3.51-2.38,2.49-1.92-2.42-4.68,10.35.46-.12-6.59,2.4,3.81,2.48,9.64Z"/>
              <path class="cls-2" d="M198.76,317.25c.03-.16.06-.33.09-.49.3-1.44,1.22-4.32,1.72-6.29,14.81,5.87,17.33,10.92.45,1.61-3.28,5.8,13.25,15.63-2.27,5.17Z"/>
              <path class="cls-10" d="M201.91,306.15c1.97-4.37,5.85-7.39,6.43-12.26.87-1.35,1.73-1.35,1.8-1.44q-.3,2.23-.6,4.47c13.75,10.41,19.09,17.78.42,3.13-8.93,9.61-2.99,3.19,9.7,11.79-6.45-.68-11.94-4.45-17.74-5.7Z"/>
              <path class="cls-10" d="M217.47,295.39c5.87,6.25,5.17,9.47-.39.69l.09-.49.29-.2Z"/>
            </g>
          </g>
          <path class="cls-31" d="M291.26,314.01c-7.49-35.69-8.29-42.92-13.21-55.77-.46-1.21-23.12,10.38-22.25,21.08-3.81,10.77-11.55,11.36-11.27,14.61.04.42,3.11,9.19,2.44,20.64-.5,8.55,3.81,18.11,4.81,21.09.01.13,9.02,1.61,13.73,2.57-.01-.03.04-.1.13-.2-.04.07-.09.13-.13.2,6.58,2.85,14.43,4.72,18.76,10.99-6.4-3.68-13.9-5.17-21.09-6.85-2.56-.6-6.44-1.15-9.82-1.89-10.61-2.32-21.22-4.15-31.82-6.62-.22-.05-.63,1.01-4.42-.85-.91,1.16-8.76,8.67-8.21,9.62,20.15,12.57,76.12,38.22,87.47,7.13,1.01-14.6-3.62-22.3-5.12-35.75Z"/>
        </g>
        <g>
          <rect class="cls-11" x="269.86" y="226.78" width="17.79" height="6.41" rx="2.48" ry="2.48" transform="translate(17.85 -20.06) rotate(4.26)"/>
          <path class="cls-24" d="M272.6,227.33h12.44c1.01,0,1.83.82,1.83,1.83h0c0,.96-.78,1.74-1.74,1.74h-12.63c-.96,0-1.74-.78-1.74-1.74h0c0-1.01.82-1.83,1.83-1.83Z" transform="translate(17.78 -20.07) rotate(4.26)"/>
          <rect class="cls-5" x="272.74" y="225.28" width="12.61" height="1.5" rx=".37" ry=".37" transform="translate(17.55 -20.09) rotate(4.26)"/>
          <rect class="cls-5" x="272.16" y="233.18" width="12.61" height="1.5" rx=".37" ry=".37" transform="translate(18.14 -20.03) rotate(4.26)"/>
        </g>
        <g>
          <rect class="cls-11" x="242.33" y="221.49" width="17.79" height="6.41" rx="2.48" ry="2.48" transform="translate(11.09 -11.81) rotate(2.75)"/>
          <path class="cls-24" d="M245.05,222.04h12.44c1.01,0,1.83.82,1.83,1.83h0c0,.96-.78,1.74-1.74,1.74h-12.63c-.96,0-1.74-.78-1.74-1.74h0c0-1.01.82-1.83,1.83-1.83Z" transform="translate(11.05 -11.82) rotate(2.75)"/>
          <rect class="cls-5" x="245.11" y="219.99" width="12.61" height="1.5" rx=".37" ry=".37" transform="translate(10.9 -11.83) rotate(2.75)"/>
          <rect class="cls-5" x="244.73" y="227.9" width="12.61" height="1.5" rx=".37" ry=".37" transform="translate(11.28 -11.8) rotate(2.75)"/>
        </g>
        <g>
          <rect class="cls-11" x="255.09" y="205.69" width="17.79" height="6.41" rx="2.48" ry="2.48" transform="translate(-22.19 31.61) rotate(-6.58)"/>
          <path class="cls-24" d="M257.67,206.25h12.44c1.01,0,1.83.82,1.83,1.83h0c0,.96-.78,1.74-1.74,1.74h-12.63c-.96,0-1.74-.78-1.74-1.74h0c0-1.01.82-1.83,1.83-1.83Z" transform="translate(-22.09 31.6) rotate(-6.58)"/>
          <rect class="cls-5" x="257.23" y="204.21" width="12.61" height="1.5" rx=".37" ry=".37" transform="translate(-21.74 31.54) rotate(-6.58)"/>
          <rect class="cls-5" x="258.13" y="212.07" width="12.61" height="1.5" rx=".37" ry=".37" transform="translate(-22.64 31.69) rotate(-6.58)"/>
        </g>
        <g>
          <rect class="cls-11" x="94.62" y="236.78" width="17.79" height="6.41" rx="2.48" ry="2.48" transform="translate(11.65 -4.7) rotate(2.75)"/>
          <path class="cls-24" d="M97.34,237.33h12.44c1.01,0,1.83.82,1.83,1.83h0c0,.96-.78,1.74-1.74,1.74h-12.63c-.96,0-1.74-.78-1.74-1.74h0c0-1.01.82-1.83,1.83-1.83Z" transform="translate(11.61 -4.7) rotate(2.75)"/>
          <rect class="cls-5" x="97.4" y="235.28" width="12.61" height="1.5" rx=".37" ry=".37" transform="translate(11.46 -4.71) rotate(2.75)"/>
          <rect class="cls-5" x="97.02" y="243.19" width="12.61" height="1.5" rx=".37" ry=".37" transform="translate(11.84 -4.68) rotate(2.75)"/>
        </g>
        <g>
          <rect class="cls-11" x="79.32" y="223" width="17.79" height="6.41" rx="2.48" ry="2.48" transform="translate(14.83 -5.24) rotate(3.71)"/>
          <path class="cls-24" d="M82.05,223.55h12.44c1.01,0,1.83.82,1.83,1.83h0c0,.96-.78,1.74-1.74,1.74h-12.63c-.96,0-1.74-.78-1.74-1.74h0c0-1.01.82-1.83,1.83-1.83Z" transform="translate(14.77 -5.24) rotate(3.71)"/>
          <rect class="cls-5" x="82.17" y="221.5" width="12.61" height="1.5" rx=".37" ry=".37" transform="translate(14.57 -5.26) rotate(3.71)"/>
          <rect class="cls-5" x="81.65" y="229.4" width="12.61" height="1.5" rx=".37" ry=".37" transform="translate(15.08 -5.21) rotate(3.71)"/>
        </g>
        <g>
          <g>
            <path class="cls-41" d="M95.64,333.14c22.53,40.91,52.36,86.25,74.05,126.52.74,1.38,1.63,2.71,2.39,4.09-.04.44-2.13,1.4-2.64,1.75l-76.53-130.75c.85-.56,1.95-1,2.72-1.59Z"/>
            <path class="cls-41" d="M85.84,315.71l5.26,8.3c-.17.05-2.36,1.41-3.03,1.77-4.14-10.75-10.8-4.07-4.83-8.95,2.49-1.59,2.49-1.03,2.6-1.11Z"/>
            <path class="cls-41" d="M97.35,330.52c.27,1.16-.91,2.02-1.71,2.63-.78.59-1.87,1.03-2.72,1.59-1.6,1.06-6.98,4.3-8.17,4.78-.88.35-2,.79-2.83.03l15.44-9.03Z"/>
            <path class="cls-41" d="M87.13,313.74c-.18.87-.65,1.47-1.28,1.97-.11.09-.11-.48-2.6,1.11-1.91,1.22-8.1,4.98-9.38,5.49-.37.15-.69.45-1.06.62-1.26-.16-1.29-.6-1.47-.77,5.01-2.45,10.94-7.41,15.79-8.43Z"/>
            <path class="cls-37" d="M96.93,355.14c.37-.21,4.48,5.98,4.92,6.67,8.12,12.56,45.42,76.41,52.79,90.2.42.78,4.34,8.22,3.94,8.46-1.53-1.39-3.81-4.96-5.1-6.97-8.49-13.28-46.01-77.3-53.14-90.8-.38-.71-3.82-7.32-3.41-7.56Z"/>
            <path class="cls-37" d="M76.25,313.2c-1.19.74-2.45,1.39-3.63,2.13-.58-2.17-1.02-1.72-1.06-1.82-.84-1.68-1.36-3.46-2.53-5.02.28-7.44,4.97.46,7.23,4.71Z"/>
            <path class="cls-20" d="M69.02,308.49c1.17,1.56,1.69,3.34,2.53,5.02.69,4.52-6.5-6.59-4.23-6.87.61-.08,1.38,1.44,1.69,1.85Z"/>
            <path class="cls-37" d="M77.57,321.37c3.1-3.34,7.63,5.28,6.42,6.81-3.34,4.21-8.04-5.07-6.42-6.81Z"/>
          </g>
          <g>
            <path class="cls-41" d="M71.4,277.84c.9.81,4.63,5.61,5.08,5.56l26.21-12.5c4.56,9.06,1.44,6-5.84,9.11-6.47,2.76-12.76,6.02-19.22,8.81l-1.64,7.26,7.35,12.56c-.12.04-1.5.9-2.12,1.24-3.78-6.96-12.08-5.86-18.71-4.9l-.35-.61c4.21-.06,11.48-3.44,12.93-7.77-2.26.62-4.17,3.04-4.68,1.72,1.03-.87,2.66-2.77,3.2-3.9,2.74-5.75-.05-9.33-3.25-13.54-1.16-1.53-2.26-3.51-4.31-4.59,10.93-31.2,7.32-61.49-30.58-66.83,6.78-.56,14.06.67,20.14,3.86,25.01,13.11,20.97,40.92,12.97,63.12,1.03,1.13,2.72,1.28,2.84,1.38Z"/>
            <path class="cls-41" d="M55.08,302.03c-7.92,5.85-16.18,11.33-23.32,18.12-1.41.26-4.11-4.07-4.9-5.26l23.2-17.64c.66-.07,2.7,3.14,5.03,4.78Z"/>
            <path class="cls-23" d="M69.69,280.47l-3.4-.25c3.94,2.81,6.24,6.59,5.95,11.55-.18,3.06-2.87,7.52-5.81,8.48-5.05,1.64,1-1.85,2.69-4.42,3.47-5.24.89-10.66-3.52-13.99-.03-.02.29-.57-.05-.78-6.64-4.17.05,2.85.97,5.12,1.74,4.33-1.26,11.17-5.67,12.87-.85-.84-.2-1.11-1.39-2.03-8.1-6.27-1.05-10.6-2.78-12.39-1.59-1.64-3.84,2.88-4.05,4.2l-.78.05c1.23-9.41,12.17-12.46,17.84-8.41Z"/>
            <path class="cls-32" d="M69.69,280.47c.17.12.2.73.66.43,3.2,4.21,5.99,7.79,3.25,13.54-.54,1.13-2.17,3.04-3.2,3.9-7.7,6.5-19.95,1.28-18.54-9.46l.78-.05c-1.23,7.69,8.14,12.82,6.83,8.19,1.19.92.54,1.19,1.39,2.03,4.41-1.7,7.42-8.54,5.67-12.87-.92-2.28-7.61-9.29-.97-5.12.34.22.02.76.05.78,4.41,3.33,6.98,8.75,3.52,13.99-1.7,2.57-7.75,6.07-2.69,4.42,2.93-.95,5.63-5.42,5.81-8.48.29-4.96-2.01-8.74-5.95-11.55l3.4.25Z"/>
            <g>
              <g>
                <path class="cls-38" d="M85.66,310.54c-.2-.34.5-1.14-.37-2.02-.69-.28-1.29-.07-1.96.13-.12.04-1.5.9-2.12,1.24-3.78-6.96-12.08-5.86-18.71-4.9l6.91,11.8c-.23.2-.82,1.19-.77,1.47.46,1.2,1.19,1.34,1.28,1.49.43.76,1.14,2.16,1.42,2.42,5.01-2.45,10.94-7.41,15.79-8.43.41-2.03-.63-1.78-1.47-3.2ZM71.55,313.51c.69,4.52-6.5-6.59-4.23-6.87.61-.08,1.38,1.44,1.69,1.85.28-7.44,4.97.46,7.23,4.71-1.19.74-2.45,1.39-3.63,2.13-.58-2.17-1.02-1.72-1.06-1.82Z"/>
                <path class="cls-38" d="M95.76,327.79c-.5-1.02-.44-1.14-1.24-2.12-1.22-1.49-.92-2.43-3.41-1.66-.17.05-2.36,1.41-3.03,1.77-4.14-10.75-10.8-4.07-4.83-8.95-1.91,1.22-8.1,4.98-9.38,5.49l5.31,9.08c-.48.41-1.02.67-1.25,1.34.1,1.75,1.06,1.77,1.15,1.97.5,1.02.53,1.19,1.24,2.12.61.79,1.15,2.32,1.59,2.72l15.44-9.03c-.48-.93-1.14-1.79-1.59-2.72Z"/>
                <path class="cls-38" d="M92.91,334.74c-1.6,1.06-6.98,4.3-8.17,4.78l73.87,126.21,3.11,4.27c2.48-1.62,5.27-2.85,7.72-4.52l-76.53-130.75Z"/>
                <path class="cls-38" d="M76.48,283.4l26.21-12.5c-.97-1.93-6.22-11.51-8.27-11.01-6.91,6.87-15.23,12.12-23.02,17.94.9.81,4.63,5.61,5.08,5.56Z"/>
                <path class="cls-38" d="M75.07,296.62c-2.26.62-4.17,3.04-4.68,1.72-7.7,6.5-19.95,1.28-18.54-9.46,1.23-9.41,12.17-12.46,17.84-8.41.17.12.2.73.66.43-1.16-1.53-2.26-3.51-4.31-4.59,10.93-31.2,7.32-61.49-30.58-66.83-35.58,2.92-49.54,48.79-17.56,68.59,13.28,8.22,29.93,9.04,30.86,10.38.09.12.03,2.45-.51,2.94-.67.6-14.14,6.57-16.32,7.52-9.43,4.12-15.16.94-5.08,15.97l23.2-17.64c.66-.07,2.7,3.14,5.03,4.78,1.46,1.02,5.36,2.39,7.07,2.36,4.21-.06,11.48-3.44,12.93-7.77ZM17.27,263.81c-10.1-11.56-8.29-32.66,9.32-41.01,7.48-3.55,16.56-3.65,23.84.47,20.36,11.5,12.83,34.76,7.96,52.84-1.6,1.05-3.42,1.9-4.99,2.92-9.92-1.99-29.55-7.68-36.13-15.22Z"/>
              </g>
              <g>
                <path class="cls-41" d="M26.59,222.8c-17.61,8.35-19.42,29.45-9.32,41.01,6.59,7.54,26.22,13.23,36.13,15.22-.09.06-.17,1.43-1.13,1.88l-1.56.1c-13.62-3.64-34.18-7.81-40.66-21.92-3.67-7.99-2.49-20.28,3-27.15,2.55-3.19,10.15-9.56,13.54-9.15Z"/>
                <path class="cls-20" d="M12.91,222.68c7.88-5.85-2.35,4.71-5.31,12.45-8.14,21.31,5.88,34.35,6.7,36.1,1.38,2.92-5.71-2.79-8.75-8.7-5.92-11.52-3.46-31.84,7.35-39.86Z"/>
                <path class="cls-20" d="M66.62,238.79c4.05,5.2-2.53,36.44-4.31,37.06-.75-.04-.69-.38-.77-.97-.24-1.81,6.36-26.35,5.09-36.09Z"/>
                <path class="cls-20" d="M26.43,306.19c1.14-1.17,19.66-10.46,20.25-8.8-2.16,2.39-19.32,12.03-20.51,10.78-.57-.6-.15-1.56.26-1.98Z"/>
              </g>
            </g>
            <path class="cls-30" d="M59.46,297.02c1.31,4.63-8.06-.5-6.83-8.19.21-1.31,2.46-5.84,4.05-4.2,1.73,1.79-5.32,6.12,2.78,12.39Z"/>
          </g>
        </g>
        <g>
          <path class="cls-31" d="M97.45,351.68c3.02-.45,16.07-8.25,16.5-1.75.33,4.9-18.98,11.01-23.25,11.25,12.56.89,22.64-7.73,24-8,4.23-.84,7.72,1.18,5.75,5-2.56,4.95-24.82,7.95-26.5,11.5-5.4-.1-7.47-7.12-9.5-11-.77-4.1-3.34-18.47-.5-19,3.39,4.19,6.67,8.46,10.25,12.5,1.07-.3,2.17-.34,3.25-.5Z"/>
          <path class="cls-31" d="M123.45,366.68c.2,1.73,10.85.81-6.5,13.75,2.29-1.71-14.43,4.01-14.5,3.75,5.57,1.06,16.63-4.72,11.25-4-.8.11-10.08,6.61-14.25-1,6.95-5.38,16.53-7.44,24-12.5Z"/>
          <path class="cls-7" d="M93.95,369.68c-1.11,2.35,1.37,5.98,3.75,6.5,3.02.66,22.15-7.6,25.25-11,.2,1,.47,1.26.5,1.5-7.47,5.06-17.05,7.12-24,12.5-.56.43-1.39.61-2,1-7.83-6.53-11.16-11.74-13-21.5,2.03,3.88,4.1,10.9,9.5,11Z"/>
          <path class="cls-8" d="M102.45,384.18c-2.46-.47-3.42-2.68-5-4,.61-.39,1.44-.57,2-1,4.17,7.61,13.45,1.11,14.25,1,5.38-.72-5.68,5.06-11.25,4Z"/>
          <path class="cls-31" d="M123.45,361.18c.52,2.08-.54,3.8-.5,4-3.1,3.4-22.23,11.66-25.25,11-2.38-.52-4.86-4.15-3.75-6.5,1.13.02,14.8-4.09,17.25-5,6.3-2.34,8.82-7.16,12.25-3.5Z"/>
          <path class="cls-7" d="M123.45,361.18c-3.43-3.66-5.95,1.16-12.25,3.5-2.45.91-16.12,5.02-17.25,5,1.68-3.55,23.94-6.55,26.5-11.5,1.29,1.28,2.44.78,3,3Z"/>
        </g>
      </g>
      <g>
        <path class="cls-1" d="M247.2,154.99c0-2,0-5-1-6-1-1-1.79-2.03-3-1-.85.72-1.85,4.6-2,7-.05.8.36,3.42,1.05,3.95,1.98,1.53,3.28,1.28,3.96.21,1.99-3.16.99-2.77.99-4.16Z"/>
        <path class="cls-25" d="M247.75,154.19c-.22-2.79-.45-4.84-1.55-5.2-3-1-1,3-4,5-1.18.78-.56,3.32,0,4,3.4,4.13,5.77-1.04,5.55-3.8Z"/>
      </g>
    </g>
  </g>
</svg>