<?xml version="1.0" encoding="UTF-8"?>
<svg id="Layer_2" data-name="Layer 2" xmlns="http://www.w3.org/2000/svg" xmlns:xlink="http://www.w3.org/1999/xlink" viewBox="0 0 300.85 486.36"><defs>
    <style>
      .cls-1 {
        fill: none;
      }

      .cls-2 {
        fill: #c45f41;
      }

      .cls-3 {
        fill: #232323;
      }

      .cls-4 {
        fill: #f9e4c0;
      }

      .cls-5 {
        fill: #3a310b;
      }

      .cls-6 {
        fill: #8e3226;
      }

      .cls-7 {
        fill: url(#linear-gradient-2);
      }

      .cls-8 {
        fill: #f7b750;
      }

      .cls-9 {
        fill: #cf99ce;
      }

      .cls-10 {
        fill: #997249;
      }

      .cls-11 {
        fill: #281a26;
      }

      .cls-12 {
        fill: #39373a;
      }

      .cls-13 {
        fill: url(#linear-gradient);
      }

      .cls-14 {
        fill: #f0935d;
      }

      .cls-15 {
        fill: #bdeded;
      }

      .cls-16 {
        fill: #c12e4b;
      }

      .cls-17 {
        fill: #ddcfe4;
      }

      .cls-18 {
        fill: #f8ae89;
      }

      .cls-19 {
        fill: #6c89a7;
      }

      .cls-20 {
        fill: #755e52;
      }

      .cls-21 {
        fill: #12191e;
      }

      .cls-22 {
        fill: #dcbdd8;
      }

      .cls-23 {
        fill: #fbf4d7;
      }

      .cls-24 {
        fill: #a66bb7;
      }

      .cls-25 {
        fill: #fbfbfc;
      }

      .cls-26 {
        fill: #cc5637;
      }

      .cls-27 {
        fill: #dafae9;
      }

      .cls-28 {
        fill: #f1b492;
      }

      .cls-29 {
        fill: #c386c3;
      }

      .cls-30 {
        fill: #fcf8e9;
      }

      .cls-31 {
        opacity: .2;
      }

      .cls-31, .cls-32 {
        fill: #7aebe9;
      }

      .cls-33 {
        fill: #ac4a30;
      }

      .cls-34 {
        fill: #c9892d;
      }

      .cls-35 {
        fill: #e6794d;
      }

      .cls-36 {
        fill: #41c4a7;
      }

      .cls-37 {
        fill: #3b4f5d;
      }

      .cls-38 {
        fill: #c392c2;
      }

      .cls-39 {
        fill: #661b6a;
      }

      .cls-40 {
        fill: #d7643c;
      }

      .cls-41 {
        fill: #fff2dc;
      }

      .cls-42 {
        fill: #95409b;
      }

      .cls-43 {
        fill: #46ded9;
      }

      .cls-44 {
        fill: #1d222d;
      }

      .cls-45 {
        fill: #353535;
      }

      .cls-46 {
        fill: #fad5b3;
      }

      .cls-47 {
        fill: #309c97;
      }

      .cls-48 {
        fill: #1a252d;
      }

      .cls-49 {
        fill: #320532;
      }

      .cls-50 {
        fill: #1d121b;
      }
    </style>
    <linearGradient id="linear-gradient" x1="90.79" y1="270.11" x2="230.89" y2="408.4" gradientUnits="userSpaceOnUse">
      <stop offset="0" stop-color="#1a252d"/>
      <stop offset="1" stop-color="#060103"/>
    </linearGradient>
    <linearGradient id="linear-gradient-2" x1="20.13" y1="317.43" x2="248.11" y2="317.43" gradientUnits="userSpaceOnUse">
      <stop offset="0" stop-color="#4e6673"/>
      <stop offset=".24" stop-color="#354550"/>
      <stop offset=".92" stop-color="#292a34"/>
    </linearGradient>
  </defs>
  <g id="HUMAN_BODY" data-name="HUMAN BODY">
    <g>
      <g>
        <g>
          <path class="cls-26" d="M163.1,194.37c-9.09,11.59-21.81,20.53-36,24.5-2.36-3.08-5.37-5.97-6-10-.45-2.9.19-7.89.5-11,.07-.73.15-4.25.5-4.86,12.44,2.19,27.65-1.76,38.5-7.64,1.21,2.88,1.66,6.03,2.5,9Z"/>
          <path class="cls-35" d="M165.1,199.87c.39,2.05.72,4.18,1,6.25-7.26,8.67-18.31,15.14-29,18.75-2.48.84-1.89.97-2,1-.74.17-.36.73-2.5-.5-.28-.16-1.31-.83-1.5-1-.26-.22-3.39-4.71-4-5.5,14.19-3.97,26.91-12.91,36-24.5.67,2.38,1.94,5.17,2,5.5Z"/>
        </g>
        <g>
          <path class="cls-14" d="M193.87,96.87s-6.44-19.74-10.08-25.56c-4.81-7.69-19.05-20.76-27.72-23.4s-26.18-2.64-36.4-.73c0,0-32.82,1.73-41.14,39.7-.94,4.3,3.47,25.35-1.5,42.9-.09.32-.14.65-.14.98v7.55c2.59,9.21,3.89,21.19,12.53,31.65,7.61,9.21,31.57,23.86,35.88,24.27,2.26.08,9.06-1.41,19.05-5.59,9.16-3.84,22.2-12.35,27.89-20.52,2.79-4.01,12.29-22.94,10.07-25.68,7.3-3.43,16.67-4.19,16.67-15.97,0-5.05-2.94-19.94-5.1-29.59ZM93.49,145.06c1.03.09,2.08.13,3.16.11-1.03.04-2.09,0-3.16-.11ZM150.29,142.04c.99.49,2.08.94,3.27,1.35-1.16-.38-2.25-.83-3.27-1.35Z"/>
          <path class="cls-40" d="M198.76,126.28c.06-.09,1.34-1.31-1.39-12.61-.8-3.84-2.6-12.74-2.6-12.74,0,0-.45-.64-1.11-1.37-.54-.59-1.23-1.23-1.8-1.71-7.14-5.96-20.51-5.64-24.33-5.66-8.48-.09-16.76,1.17-20.81,6.02-4.18,5.01-3.97,13.78-2.53,24.56.31,1.3,1.12,4,1.08,3.36-.1-1.67,1.06-6.72,2.37-9.57,2.25-4.92,4.62-8.13,10.93-10.58,15.64-6.05,31.83,20.59,32.55,21.79-1.8,6.6-5.1,12.32-11.07,14.7,3.89.67-5.67,21.3-8.64,25.56-5.68,8.17-18.56,15.97-27.72,19.8-9.98,4.18-16.68,6.28-18.99,6.23.17.06.07.12.64.16,15.33,1.15,24.21-2.52,37.43-10,19.85-11.23,20.3-13.57,30.24-32.4,1.1-2.09,1.09-4.53,2.88-6.84.38-.49,9.73-1.54.72-7.92,13.28-19.13,20.35-3.89,12.96,6.48-6.8,9.55-18.62-4.15-10.8,11.88,25.69,5.04,20.19-57.31,0-29.16Z"/>
          <path class="cls-33" d="M198.76,155.45c-2.56-.5-3.24-2.94-5.76-3.6,1.1-2.09,1.09-4.53,2.88-6.84.38-.49,9.73-1.54.72-7.92,13.28-19.13,20.35-3.89,12.96,6.48-6.8,9.55-18.62-4.15-10.8,11.88Z"/>
        </g>
        <path class="cls-18" d="M77.18,137.04c3.5,16.27,5.03,23.58,11.87,32.34,4.4,5.63,24.09,20.16,35.68,24.72-5.49-.09-34.05-16.97-40.23-24.75-6.68-8.4-8.31-18.44-8.47-25.05-.04-1.66.29-4.97.48-6.62.08-.68.39-2.73.39-2.73,0,0,.18,1.59.29,2.09Z"/>
        <path class="cls-35" d="M86.42,100c-1.88.06,1.36-4.44,2.23-6.28,1.06-2.92,1.12-6.36,2-9.25,6.04-19.79,23.82-27.78,10.5-24.25-10.51,2.79-20.82,35.08-21.94,44.67,0,.01.18,6.15.18,6.15,2.51-3.22,3.62-4.22,7.97-6.63,8.46-4.67,18.39-1.27,22.4,9.26.04.12,2.35,10.41,2.39,11.24.02.42.04-9.38.19-10.88-.96-13.22-15.39-14.39-25.92-14.04Z"/>
        <g>
          <path class="cls-35" d="M76.91,135.33c-10.31,3.67-5.4,11.06-2.85,18.16-12.38-9.8-7.4-25.37-2.57-25.81.6-.05,2.57-.04,3.82.89,1.15.86,1.63,1.73,1.63,1.73,0,0,0,3.37-.04,5.02Z"/>
          <path class="cls-40" d="M74.78,130.45c.86-.04,2.13,1.32,2.1,4.07-.03,2.31-.95,7.35-.78,11.64,0,0,.48,5.68,1.6,9.55-1.36-.54-2.49-1.3-3.64-2.21-2.55-7.1-9.59-19.37.72-23.04Z"/>
        </g>
        <g>
          <path class="cls-11" d="M269.98,148.94c-.14-.13-.31-.32-.48-.48-.31-18.33-12.21-12.48-19.34-17.19-4.6-3.04-7.83-19.38,14.08-18.38,5.56,7.95-13.96,6.35-11.94,10.5.48.99,15.1,6.07,17.19,8.59,3,3.63,2.98,13.91.48,16.95Z"/>
          <path class="cls-50" d="M23.16,132.71c-.77,1.33-4.97,3.92-3.34,11.94-5.77-2.09-14.97-2.67-13.84-10.74,1.81-13.02,15.73-1.17,17.19-1.19Z"/>
          <path class="cls-50" d="M35.57,115.04l.95,8.83q-6.68,4.42-13.37,8.83c.54-.92,2.18-2.06,2.39-2.63,2-5.39-4.36-9.36-3.82-14.8l13.84-.24Z"/>
          <path class="cls-50" d="M277.14,80.19c-4.37-2.21-5.02-1.55-9.55-2.63,2.76-7.37,4.11-10.61,0-17.43-.52-.4-.64-.5,0,0-3.84-6.37-10.77-9.34-17.9-6.21-2.75-.54.94-5.86-9.79-11.7,8.37-15.47-11.31-28.07-21.24-13.61C201.05,8.83,176.41.05,151.82,13.35c-16.73-18.96-48.35-16.68-65.64.24-1.68,1.64.06,3.99-12.65,9.31-1.97.09-9.93-10.8-21.24-1.43,0,0,0,0,0,0-2.89,2.39-5.59,6.4-5.73,10.26-.03.76,1.65,8.46,1.91,8.83-1.18.2-2.31.87-3.34,1.43-7.68,4.19-5.16,3.47-8.83,10.98-18.35-1.5-25.18,16.33-12.17,28.88-2.57.83-5.11,1.11-7.64,2.15-1.99.82-3.19,1.37-4.77,2.86-9.07,8.54-4.83,20.54,5.73,25.06.64,1.79-3.89,4.36,0,13.37-18.05-2.07-24.49,18.34-7.64,26.26-3.6,8.83,2.84,20.44,12.65,16.95,7.94,7.76-1.98,7.84-.24,18.86,1.36,8.6,13.51,14.07,20.77,8.83,10.25,4.27,5.3,4.94,8.83,9.79,4.51,6.19,15.68,5.61,20.77.24,1.38.31.67,13.47,19.1,10.98,4.44-7.84,5.94-2.38,12.89-5.73,5.18-2.5,5.11-9.42,10.26-4.77,2.74-3.89,3.15-8.08,6.93-11.28.07-.7.14-1.4.21-1.99-6.38-2.21-25.4-13.42-31.26-18.43-9.34-7.98-13.33-20.37-13.01-19.3-1.36-.54-2.49-1.3-3.64-2.21-12.38-9.8-7.4-25.37-2.57-25.81.6-.05,2.57-.04,3.82.89,1.13.85,1.61,1.7,1.63,1.73.9-3.64,1.92-8.38,2.1-11.67.91-5.89.92-15.31.93-15.49.51-7.83,10.9-38.47,20.04-42.53,5.38-2.39,10.25,1.5,16.95-8.12,21.88,12.34,30.33-2.24,31.99-2.86,6.58-2.47,8.32,5.19,8.83,5.49,13.69,7.91,27,21.42,30.54,26.98.47.73,2.46,5.84,3.64,9.46,3.7,11.31,6.79,34.73,6.79,34.73,0,0,3.9-5.64,7.37-6.78-.07-.05,3.66-1.35,6.46,1.78,5.22,5.85,4.58,25.77-3.74,31.97-4.96,3.7-10.25,2.94-13.43,0-1.22-1.12-2.42-1.4-2.42-1.4,0,0-.35.73-1,1.91-1.55,2.8-5.42,11.17-9.33,15.71-7.98,9.27-15.7,11.85-22.05,15.97.87,3.22,1.58,5.68,2.38,8.52.64,2.27,1.85,4.93,1.91,5.25,5.45.54,7.16,3.77,10.08,5.58.54.34,3.43.86,4.54.95,6.7,13.18,24.45,10.16,28.64-3.82,9.21,9.72,23.29,11.63,27.21-3.82,7.01.07,11.98.74,16.71-5.25,17.53,1.89,24.17-15.7,11.7-27.45l5.97-7.88c5.9,1.47,11.45.11,14.56-5.25,3.95-6.8,2.04-13.9-4.3-18.38,1.49-16.72-7.49-16.8-8.12-17.66-2.99-4.15,5.51-3.75,10.03-9.07,6.81-8.02,4.79-22.13-4.77-26.97"/>
          <path class="cls-11" d="M29.37,152.28c-.27.1-1.5,1.75-5.01,2.86-.56-.14-4.42-9.94-4.54-10.5-1.63-8.01,2.57-10.6,3.34-11.94q6.68-4.42,13.37-8.83l-.95-8.83c.1-2.73-8.04-6.86-13.37-10.5-2.1-4.42-1.05-9.85,1.91-13.84,8.45-3.78,19.02-1.63,19.1-7.88,0-.5-2.12-5.75-2.39-9.79-.72-10.74,14.06-12.77,15.28-14.08.5-.54,1.74-5.63,1.91-6.92,1.36-2.12,3.22-3.78,4.77-5.73,2.19-2.75,3.56-.4,1.91-8.83,15.43-17.14,14.53-10.69,36.04-7.88,3.21-.75,3.19-14.58,10.03-15.75,9.57-1.64,12.02,10.31,8.12,13.37-3.67,2.88-3.2-2.58-6.68-7.64-3.78,22.62-17.69,15.12-34.85,12.89-8.46,5.82-4.47,10.16-5.49,13.13-.28.81-7.63,7.08-8.12,8.12-3,6.43,5.2,5.22-16.71,16.71-2.36,5.97,9.05,16.27-6.92,23.15-4.57,1.97-16.64,2.16-13.37,6.21,2.66,3.28,15.27,6.03,15.99,17.43,1.43,22.72-26.97,10.24-13.37,35.09Z"/>
          <g>
            <g>
              <path class="cls-11" d="M164.23,15.26c12.02-1.13,20.75,19.49,43.44,11.94,11.03,14.64,20.32,10.14,15.52,27.93,2.48,1.22,11.9,9.52,12.65,9.79,5.27,1.89,20.78-2.81,15.99,16.47,4.52,1.56,20.47,7.85,22.44,11.46,2.26,4.16.7,12.42-4.06,14.08-11.08,3.87-.82-9.16-1.19-10.74-11.93-10.93-28.55-.8-21.96-23.39l-12.65-1.19c-8.03-10.55-12.63-7.74-15.52-11.22-7.65-9.25,11.94-21.6-18.86-17.43l-2.39-8.12c-11.72.38-21.94-6.33-31.03-12.89-4.05-.29-16.38,7.73-13.61-.72.59-1.81,9.15-5.77,11.22-5.97Z"/>
              <path class="cls-49" d="M209.11,32.93c2.95-.22-2.46,2.06-3.34,2.39-11.48,4.18-3.32-1.9,3.34-2.39Z"/>
            </g>
            <path class="cls-1" d="M110.76,13.83c-6.84,1.17-6.82,15.01-10.03,15.75-21.51-2.82-20.61-9.27-36.04,7.88,1.65,8.43.28,6.08-1.91,8.83-1.55,1.95-3.41,3.61-4.77,5.73h0c-.17,1.29-1.41,6.38-1.91,6.92-1.22,1.32-16,3.34-15.28,14.08.27,4.04,2.39,9.28,2.39,9.79-.07,6.25-10.64,4.1-19.1,7.88-2.96,3.99-4.01,9.42-1.91,13.84,5.33,3.64,13.47,7.78,13.37,10.5q-6.92.12-13.84.24c-.54,5.44,5.82,9.41,3.82,14.8-.21.57-1.85,1.7-2.39,2.63-1.46.02-15.38-11.82-17.19,1.19-1.12,8.08,8.08,8.65,13.84,10.74.11.56,3.98,10.36,4.54,10.5,3.52-1.11,4.74-2.77,5.01-2.86-13.6-24.85,14.8-12.37,13.37-35.09-.72-11.4-13.34-14.14-15.99-17.43-3.27-4.05,8.8-4.24,13.37-6.21,15.97-6.89,4.57-17.19,6.92-23.15,21.91-11.49,13.71-10.28,16.71-16.71.48-1.03,7.84-7.31,8.12-8.12,1.03-2.97-2.97-7.31,5.49-13.13,17.16,2.23,31.07,9.73,34.85-12.89,3.48,5.05,3.01,10.51,6.68,7.64,3.9-3.06,1.45-15.01-8.12-13.37Z"/>
            <path class="cls-1" d="M252.32,123.4c-2.02-4.15,17.5-2.56,11.94-10.5-21.91-.99-18.69,15.34-14.08,18.38,7.12,4.71,19.02-1.14,19.34,17.19.17.16.33.34.48.48,2.5-3.03,2.52-13.32-.48-16.95-2.09-2.52-16.71-7.61-17.19-8.59Z"/>
          </g>
        </g>
        <g>
          <path class="cls-30" d="M111.24,121.71c-.5-1.47-1.36-5.17-5.73-9.43-2.82-2.75-5.81-4.38-7.96-4.74-1.44-.2-2.74-.16-3.92.02-2.25-.1-5.68,1.45-7.92,3.23-5.87,4.68-4.57,12.46,1.08,15.84.25.15.53.29.82.43,3.24,1.76,5.75,1.8,9.2,1.91,0,0,6.24.41,14.03-2.74.47-.19,1.41-.71,1.41-.71,0,0-.22-2.03-1.01-3.82Z"/>
          <path d="M79.85,107.58c2.64,2.22,6.39-6.16,17.05-5.19,8.72.79,15.56,12.06,15.24,22.28-1.16-2.08-2.23-5.18-2.57-5.54-.05-.06-.18.02-1.29-.86,1.16-4.03-6.96-10.25-10.73-10.73-6.55-.85-10.77,2.43-13.74,7.73-.14.25-.58,1.17-.86,2.15-1.13,3.97,1.02,7.74,4.65,9.65-.74,0-3.81-1.99-4.23-2.35-4.02-3.43-7.61-12.5-7.56-18.15-.1-1.1.31-4.58.83-3.19.99,2.65,2.45,3.56,3.2,4.2Z"/>
          <path d="M96.57,120.44c1.9-.49,2.53-3.14,2.21-4.87,11.2-1.45,3.91,16.24-2.21,4.87Z"/>
          <path class="cls-5" d="M109.59,120.1c0-.2-.04-.38-.05-.58,0-.14,0-.27,0-.41,0,0-.02-.02-.04-.02-.84-6.6-8.39-11.1-11.98-11.57-.36,1.44-2.68,2.49-3.43,3.86-.15.27-.81,2.12,0,2.15,2.03-.08,2.65.33,3.43.43.07.43,1.27,1.61,1.29,1.72,10.87-1.4,3.79,15.75-2.15,4.72-2.27.58-4.3-1.57-4.72-.64.81,3.73,1.27,6.93,4.72,8.8,1.25.67,3.25.49,7.72-.31,3.74-.67,4.99-4.57,5.14-8.2.02.01.05.04.06.05Z"/>
          <path class="cls-30" d="M161.38,110.69c.9-.18,3.78-.53,5.05-.47,2.94.16,5.9,2.18,5.9,2.18,7.28,5.07,10.16,9.31,3.22,16.31-.69.31-2.85,1.25-3.01,1.29-5.74,1.41-21.22,1.35-27.05-2-.02,0-.03-.02-.05-.03-.3-.17-.26-2.91.05-3.98,3.45-6.78,7.95-12.16,15.89-13.31Z"/>
          <g>
            <path d="M181.56,114.56c2.17,1.76,3.7.7,5.24-1.17.9-.99.81-1.56,1.05-1.23.27.39.27,1.84-.33,3.75-1.37,4.31-5.27,9.83-11.96,12.82,6.94-7.01,4.06-11.25-3.22-16.31,0,0-1.92-1.42-5.58-2.15-1.82-.36-3.59.17-5.37.43-7.94,1.15-12.44,6.53-15.89,13.31,1.51-13.76,12.07-22.65,26.4-17.6,5.73,2.02,8.22,6.99,9.66,8.16Z"/>
            <path class="cls-5" d="M174.69,118.85c-.19-2.4-3.14-7.78-7.94-8.59-1.83-.31-3.59.17-5.37.43-4.27,6.01-2.22,3.07,1.5,4.29.41.13,1.13.82,1.5,1.29.24.3,1.52.19,3.86.86,4.97,5.8-3.02,11.68-6.44,4.72-1.91.28-4.19-1.74-4.29-1.5.28,14.31,18.69,12.68,17.17-1.5Z"/>
            <path d="M168.25,117.13c4.97,5.8-3.02,11.68-6.44,4.72,2.32-.34,3.84-3.51,2.58-5.58,1.66-.19,2.83-.01,3.86.86Z"/>
          </g>
        </g>
        <path class="cls-2" d="M205.72,150.67l1,2c1,2-3,3-3,3-1.16.37-2,1-3,0l1-5c1-2,3.66-.46,4,0Z"/>
        <g>
          <path class="cls-15" d="M206.72,158.67c0-2,0-5-1-6s-1.79-2.03-3-1c-.85.72-1.85,4.6-2,7-.05.8.36,3.41,1.05,3.95,1.97,1.52,3.28,1.28,3.96.21,1.99-3.16.99-2.77.99-4.16Z"/>
          <path class="cls-32" d="M207.27,157.87c-.22-2.79-.45-4.83-1.55-5.2-3-1-1,3-4,5-1.18.78-.56,3.32,0,4,3.39,4.13,5.76-1.04,5.55-3.8Z"/>
        </g>
        <g>
          <path d="M78.46,93.49c-.32-.04-.57-.26-.4-.54,1.23-1.98,4.66-7.32,6.9-8.78s9.41-4.96,14.55-3.99c4.03.76,4.14,4.49,4.17,6.11,0,.03-.02.06-.05.08-2.65,1.53-4.4.39-8.93.03-1.75-.14-3.24-.01-4.87.46-2.57.74-4.87,2.4-7.04,4.87-.66.75-2.7,1.96-4.34,1.76Z"/>
          <path d="M178.6,86.32c.11.55,2.3,3.22,2.88,5.4l-1.08,1.08c-14.83-10.29-26.1-.3-29.16-7.2,2.55-2.21,3.17-11.87,27.36.72Z"/>
        </g>
        <g>
          <path class="cls-26" d="M137.56,143.02c1.79,8-20.24,11.31-20.88,2.16,5.6,5.57,14.97,2.25,20.88-2.16Z"/>
          <g>
            <path class="cls-16" d="M155.93,149.5c2.64.26,5.03,1.58,6.12,3.96-8.51.6-12.2,25.11-29.16,27.72-25.18,3.88-14.91-25.59-27.72-19.8.7-9.31,39.85-.3,54.01-8.64l-3.24-3.24Z"/>
            <path class="cls-25" d="M150.89,158.15c4.44-.62-4.85,8.34-6.48,9.36-9.07,5.7-30.73,7.42-30.24-4.32,15.16,3.57,34.64-4.75,36.73-5.04Z"/>
          </g>
          <path class="cls-18" d="M121.36,139.42c2.21,1.67,5.3,2.24,5.4,2.52,1.58,4.52-6.69,4.93-5.4-2.52Z"/>
        </g>
        <g>
          <path class="cls-31" d="M117.87,112.71c0,15.74-15.3,27-28,27s-19-10.26-19-26,9.3-22,22-22,25,5.26,25,21Z"/>
          <path class="cls-31" d="M196.87,113.9c0,22.81-17.9,29.81-32.77,29.81s-22.23-11.33-22.23-28.71c0-20.29,10.88-24.29,25.74-24.29,19.26,0,29.26,5.81,29.26,23.19Z"/>
          <g>
            <path d="M201.87,122.71c4.16-9.68-4.33-20.72-5.73-23.8-2.17-4.77-6.05-8.24-9.27-9.2-2-.6-6-1-13-1-6,0-29-3-34.5,13.71-7.21-3.06-12.58-2.59-20-1-1.5-2.71-5.52-11.66-20.5-12.71-1.93-.13-9.16-.71-16,1-8,2-7.86,2.86-10,5-2.22,2.22-4.6,9.78-5,18-.35,7.04,2,17,3,19,.63,1.26,3,6,5.75,7.46,8.64,4.97,15.01,4.96,21.25,4.54,15-1,26.35-18.47,26-32.79,21.23-1.93,7.52,3.43,18.25,22.75,2.56,4.62,9.75,11.04,16.75,13.04,4.9,1.4,14.82,1.78,23-2,13-6,17.7-16.64,20-22ZM115.62,115.42c-.26,7.54-3.33,13.47-8.14,17.34-6.18,4.97-15.23,6.52-24.86,3.66-5.75-1.71-7.78-6.29-8.75-8.71-4-10,0-24,1-27,1.92-5.77,10.39-7.67,16-8,8.61-.51,17.34.25,21.75,8.71,2.09,4,3.16,9.45,3,14ZM148.62,133.67c-3.52-4.73-5.36-13.94-5.5-19.75-.37-15.93,5.18-19.09,20-20.5,5.57-.53,11.46-.87,17,0,.81.13,2.43.35,3,.5,2.12.56,4.25,1.34,5.79,2.84.47.46,4.36,5.98,5.96,16.95.49,3.39,0,8-1.72,12.65-.01.02-.02.03-.04.05-8.92,20.35-36.11,18.5-44.5,7.25Z"/>
            <path class="cls-45" d="M215.59,107.93c-.51-.71-12.85-7.97-15.03-8.89-2.45-1.04-4.78-2.3-5.2-1.97.57,2.38,7.75,12.97,7.56,18.78-.03.91,1.94,1.11,1.94,1.11l.1-.78c9.11.38,12.15-1.51,15.04.62-.21-1.64-3.59-7.73-4.4-8.87Z"/>
            <g>
              <path class="cls-3" d="M69.18,103.44q-5,2.25-10,4.5c-.53-1.11-2.64-9.66-1.25-10.5,22.79-3.44,17.71-10.26,11.25,6Z"/>
              <path d="M69.18,103.44q-.62,5-1.25,10c-3.24-2.09-6.93-1.68-8.75-5.5q5-2.25,10-4.5Z"/>
            </g>
            <path d="M214.1,123.36c.37-.18,4.84-5.6,5.88-6.56-2.73-2.01-5.98-.95-13.59-.61-9.56-.34-10.25-3.54-10.25-3.54l.63,3.1c-.08.54.19,2.49.46,4.47l4.41,2.9c3.7-3.78,5.28-4.79,9.33-3.29,2.07,1.2,2.74,2.94,3.13,3.54Z"/>
          </g>
        </g>
      </g>
      <g>
        <g>
          <path class="cls-8" d="M166.39,467.94c-17.25,1.58-91.19-26.61-87.03-9.82.25,1.01,4.19,17.73,8,21,7,6,43,8,67,7,14.33,0,54.02-11.14,55.03-16.18.97-4.82,1-6,2-12-14.1,5.2-30.06,8.63-45,10Z"/>
          <path class="cls-34" d="M139.69,486.36l-1.33-10.67s2.67,10.67,4,10.67h-2.67Z"/>
        </g>
        <g>
          <path class="cls-42" d="M204.49,319.02s.57-6.57.61-6.82c0,0,0-6,0-6,9,2,12,1,12,1,0,0,14.97-17.35,16.39-21.18.78-2.09,5-16,3.64-22.19-2.22-8.65-5.33-16.92-11.1-23.73-11.06-13.05-38.92-10.9-47.92-16.9-2.06,4.39-28.28,26.66-34.58,22.65.77,7.01-20.56,1.56-20.62.89-.27-3.32-5.87-13.42-6.8-17.54-.91-4.02,2.6-8.02,0-8-5.42.05-18.1,4.21-24.58,4.65-7.49.57-11.19.92-18.25,5-10.18,5.89-20.87,23.02-18.25,28.25,3.46,6.92,12.46,17.92,19.46,23.92,1.88,1.61,3.84-.93,4.94-2.87-3.33,7.68-9.15,19.78-7.94,29.87,1.37,11.43,6.94,17.95,11,21,2.73,2.05,9,4,9,4,0,0,5.05,5.22-1,15-2.44,3.95-9.95,14.22-18.96,37.33-4.86,19.13-8.8,38.44-11.5,58-.3,2.14-.09,4.45-1,6.5,14.74,9.85,38.13,13.18,55.5,15,17.19,1.8,34.75,2.58,52,1,14.94-1.36,30.9-4.79,45-10,4.67-1.72,10.18-4.03,14.5-6.5-2.17-15.61-5.7-30.88-10-46-3.23-11.34-6.45-22.5-12-33-7.44-5.87-5.13-31.09-3.95-43.02l4.42-10.3Z"/>
          <path class="cls-39" d="M200.49,323.02c.04.06.06.13.09.21-.01-.17-.04-.24-.09-.21Z"/>
          <path class="cls-39" d="M200.58,323.23c.02.22,0,.59-.03,1.11.11-.46.12-.84.03-1.11Z"/>
        </g>
        <path class="cls-39" d="M203.89,370.44c-4.87-6.97-4.71-26.63-3.53-39.53,2.34-3.03,4.3-6.79,5.03-10.22.97-3.58.43-15.82-2.75-24.75-1.58.23,4.64,12.67-.78,23.88-2.11,2.97-4.93,6.89-9.43,9.94-2.21,1.34-4.8,2.56-7.86,3.61-5.94,1.64-13.75,1.73-24.21-1.26.64.18,35.3,40.12,43,56,7.48,15.45,16.24,62.78,15,67,.46-.1,6.78-3.39,10-5,2-1-2.74-48.58-24.47-79.67Z"/>
        <path class="cls-39" d="M97.4,336.44c5,0,10-3,10-3-6,3-16.04,1.67-16.04,1.67,0,0,1.12,1.84,1,5-.12,3.34-1.54,8.12-3.96,12.33-4,6.95-7.14,12.93-9.58,17.88-2.76,4.78-4.86,10.17-6.12,13.6-.92,2.33-1.31,3.52-1.31,3.52-4.86,19.13-9.34,45.12-12.04,64.67,6.62,4.02,7,4,7,4,0,0-3.25-21.94,2.02-42.41,7.46-28.98,19.64-41.24,22.98-46.59,15-24,6.04-30.67,6.04-30.67Z"/>
      </g>
      <path class="cls-39" d="M214.1,416.2c-4.39-14.26-6.61-17.74-11-32-4.94,8.36-10.7,11.75-19.47,13.41-4.94.93,12.74-31.83,4.47-36.41-22.61-12.51-78.07-8.61-92-10-3.57-.36,6.11,47,2.57,46.41-4.51,1.69-9.45,1.79-14.16.99-3.72-.63-10.6-3.62-13.18-6.45-2.38,4.66-2.56,10.18-3.91,15.13-.46,1.69-1.17,5.37-1.32,5.92,2.21,6.59,9.09,13.99,15,18,7.74,5.24,16.91,8.86,26.79,11.13,4.66,1.07,66.09-1.39,69.14-2.18,7.32-1.9,14.12-4.26,20.07-6.95,4.87-2.52,19.4-9.35,17-17Z"/>
      <path class="cls-35" d="M165.64,207.21c-.32-2.07-.61-4.2-1-6.25-.06-.33-1.33-3.12-2-5.5-7.64,9.74-17.84,17.58-29.31,22.21-5.3-4.57-12.97-12.22-12.22-14.47-1,3-4,24-5,27-3.88,11.64,10.11,17,17,17,18,0,30.53-9.24,30-12-.4-.73,1.93-2.24.75-3.48.8-.33,1.55-.82,2.25-1.52.92-.93,0-20-.46-22.99Z"/>
      <path class="cls-39" d="M207.04,300.75c-1.01-9.14,9.26-16.49,9.58-25.66.02-.5.11-4.09-.19-4.09-.16,1.24-.38,2.48-.56,3.72-.91,6.22-14.79,14.82-13.83,21.04,2,13,3.96,13.77,2.06,26.45,1.99.13,3.34-17.76,2.94-21.45Z"/>
      <path class="cls-17" d="M132.52,291.73c-3.13,1.02-3.92-4.65-1-5,2.63-.31,3.1,4.32,1,5"/>
      <path class="cls-17" d="M132.52,311.73c-3.13,1.02-3.92-4.65-1-5,2.63-.31,3.1,4.32,1,5"/>
      <g>
        <path class="cls-2" d="M300.78,370.34c.77,11.26-4.8,19.86-15.97,21.56-16.37,2.49-69.36-30.21-49.19-30.32,1.72,0-1.55-3.71.5-2.38,1.85,1.2,10.38,19.8,35.61,23.76,41.05,6.44,18.44-27.49,20.39-29.07,3.76-3.04,8.06,13.67,8.65,16.44Z"/>
        <path class="cls-2" d="M255.78,283.72c1.11,2.49,3.15,6.5,4.42,8.91-3.43,4.24-21.1,10.31-20.57,16.18.33,3.67,14.19,28.27,17.03,33.96,10.6,1.32,24.09,1.3,31.91,9.58-8.68-1.57-18.97-5.42-27.57-6.69-5.39-.79-12.04-.59-13.37-.77l-.1-.49c1.83-9.55-5.85-13.18-8.57-17.22-2.09-3.11-11.26-22.61-11.19-25.04.01-.52,1.82-.1,1.18-1.51.32-.08.64-.12.96-.2,1.36-.36,2.44-.85,3.72-1.28,8.41-2.81,15.98-8.91,22.15-15.45Z"/>
        <path class="cls-6" d="M228.95,300.64c.64,1.41-1.17.99-1.18,1.51-.07,2.43,9.1,21.92,11.19,25.04,2.71,4.04,10.39,7.67,8.57,17.22-3.5-5.62-24.34-33.29-25.28-35.34-1.28-2.8-2.61-7.63-2.61-7.63,0,0,6.48-.11,9.32-.8Z"/>
        <path class="cls-35" d="M292.13,353.9c3.76-3.04,8.06,13.67,8.65,16.44-.62-9.08-4.44-14.43-8.57-22.04-10.17-18.77-22.08-36.71-32.01-55.67-3.43,4.24-21.1,10.31-20.57,16.18.33,3.67,14.19,28.27,17.03,33.96,10.6,1.32,24.09,1.3,31.91,9.58-8.68-1.57-18.97-5.42-27.57-6.69-5.39-.79-12.04-.59-13.37-.77-7.74-1.01-9.23.71-14.85-1.24-.06,2.09-.17,6.68-.12,6.71,3.24,1.69-4.06,6.53-2.86,9.79,8.73,9.48,16.71,18.84,41.94,22.81,41.05,6.44,18.44-27.49,20.39-29.07Z"/>
        <path class="cls-42" d="M256.5,273.4c-2.89-2.82-12.43-27.44-26.58-38.18,0,.54.02,1.07.02,1.62-.45,6.92-1.69,13.56-3.71,19.93,3.9,13.88-1.03,29.87.45,44.23,10.97-1.26,21.21-6.35,26.97-12.75.4-.45,7.58-10.76,9.7-12.32-2.16-1.34-4.89-.61-6.85-2.53Z"/>
      </g>
      <g>
        <g>
          <path class="cls-39" d="M132.59,225.35c-.68,2.07-1.7,3.96-2.5,6-1.83-.3-1.9.96-2,1-.53.21.22-1.48-3,1.75-3.25,3.26-20.49,27.48-22.25,27.75-.29.04-5.13-2.48-5.25-2.75-1.4-3.12-.03-30.67-2.75-32.25-.73-.42-3.62.87-3.25-1,2.03-.15,3.94.87,6,.5-.58,8.83-.24,18.16,6.75,24.5.41,0,3.62-3.92,4.25-4.5,6.77-6.24,12.8-13.26,19.5-19.5.93-.87,2.32-1.39,3-2.5.19.17,1.22.84,1.5,1Z"/>
          <path class="cls-39" d="M123.09,248.35c.06.91-.04,1.84,0,2.75.18.49,1.14.92,1.5,1.25-4.75,6.42,6.79,10.22,2.75,9.5-.51-.09-1.95-1.38-2.5-2,2.35,8.5,7.18,9.34,14.75,5.5,4.99-2.53-2.85,6.03-6.25,6.5-7.5,1.03-10.54-8.74-11.25-14.75-.29-2.47-.34-9.47,1-8.75Z"/>
          <g>
            <path class="cls-29" d="M175.6,209.36c2.5,7.39,10.09,15.33,18.49,17.99-2.06,4.39-4.56,8.65-7.5,12.5-3.73,4.89-16.44,18.28-22.75,17.5-5.61-.69-23.98-26.03-26.75-32.5,10.69-3.61,21.25-9.81,28.51-18.49-.28-2.07-1.61-5.95-2-8,5.71.57,8.95,9.11,12,11Z"/>
            <path class="cls-39" d="M137.09,224.85c2.77,6.47,21.14,31.81,26.75,32.5,6.31.78,19.02-12.61,22.75-17.5-1.79,6.55-15.09,23.07-21.75,23.5-9.38.61-16.73-11.55-21.25-17.5-1.99-2.61-2.26-3.47-2.99-5.61-.43-1.28-.48-1.79-1-3-1.09-2.53-1.4-4.18-1.51-4.39-1.19-2.2-2.49-4.5-3-7,.11-.03-.48-.16,2-1Z"/>
            <g>
              <path class="cls-24" d="M121.09,208.85c-1.42-.22-1.75,4.51-2.5,7-2.73,9.06-10.13,26.79-10.5,28.25-.16.62-.16,2.32.5,2.25-.63.58-3.84,4.5-4.25,4.5-6.99-6.34-7.33-15.67-6.75-24.5,6.55-3.95,11.23-9.94,15.5-16,2.87-4.07,4.54-9.14,8.5-12.5-.31,3.11-.95,8.1-.5,11Z"/>
              <path class="cls-29" d="M128.09,226.85c-6.7,6.24-12.73,13.26-19.5,19.5-.66.07-.66-1.63-.5-2.25.37-1.46,7.77-19.18,10.5-28.25q4.75,5.5,9.5,11Z"/>
              <path class="cls-9" d="M121.09,208.85c.63,4.03,3.64,6.92,6,10,.61.79,3.74,5.28,4,5.5-.68,1.11-2.07,1.63-3,2.5q-4.75-5.5-9.5-11c.75-2.49,1.08-7.22,2.5-7Z"/>
            </g>
          </g>
        </g>
        <g>
          <path class="cls-22" d="M143.6,246.24c.77,7.01-1.66,12.91-8.14,16.46.27,1.15,3.33-2.49,4,2.75-7.57,3.84-12.4,3-14.75-5.5.55.62,1.99,1.91,2.5,2,4.04.72-7.5-3.08-2.75-9.5,1.1.99,9.96,4.57,10.75,4,.98-.71-.66-3.37-.25-4.75.3-1.02,3.05-1.61,4-3,1.53-2.24.81-6.54,3-8.25.72,2.14,1.37,3.34,1.64,5.79Z"/>
          <path class="cls-22" d="M129.96,231.45c-3.17,8.11-2.29,3.46,2.5,2.5-5.47,4.24-3.9,6.84-3.25,13,5.58-11.84,6.28,4.99,7.25-7.25l4-2.75c.52,1.21,1.07,2.22,1.5,3.5-2.19,1.71-1.47,6.01-3,8.25-.95,1.39-3.7,1.98-4,3-.41,1.37,1.23,4.04.25,4.75-.79.57-9.65-3.01-10.75-4-.36-.33-1.32-.76-1.5-1.25-.04-.91.06-1.84,0-2.75-.4-5.91,2.16-10.9,5-16,.1-.04.17-1.3,2-1Z"/>
          <path class="cls-38" d="M140.46,236.95l-4,2.75c-.97,12.24-1.67-4.59-7.25,7.25-.65-6.16-2.22-8.75,3.25-13,2.39-.48,5.88.95,5.5-1,.11.21,1.41,1.47,2.5,4Z"/>
        </g>
      </g>
      <g>
        <g>
          <g>
            <path class="cls-13" d="M247.58,230.91c0-3.52-1.84-6.38-4.93-6.38l-216.86-1.86c-3.09,0-6.67,2.28-6.86,8.24v163.28c0,3.52,3.84,6.38,6.93,6.38h90.55v8.92c0,2.44,1.74,4.42,3.88,4.42h28.91c2.14,0,3.88-1.98,3.88-4.42v-8.92h89.58c3.13.01,5.79-4.06,5.79-7.58l-.86-162.07Z"/>
            <path class="cls-7" d="M242.51,222.47H25.72c-3.09,0-5.6,2.85-5.6,6.38v163.28c0,3.52,2.51,6.38,5.6,6.38h92.02v10.75c0,1.74,1.23,3.14,2.76,3.14h28.48c1.52,0,2.76-1.41,2.76-3.14v-10.75h90.78c3.09,0,5.6-2.85,5.6-6.38v-163.28c0-3.52-2.51-6.38-5.6-6.38Z"/>
            <path class="cls-19" d="M146.06,410.69h-23.16c-1.24,0-2.24-1.12-2.24-2.5v-9.69h1.21l26.68,1.39v7.56c0,1.38,0,3.24-2.48,3.24Z"/>
            <g>
              <path class="cls-37" d="M27.81,378.9v-126.74c-.01-19.3,6.57-16.42,14.66-16.42h179.98c8.1,0,14.66,7.35,14.66,16.42v121.44c0,12.25,1.08,16.42-14.66,16.42H48.08c-8.1,0-20.27,2.27-20.27-11.12Z"/>
              <rect class="cls-19" x="56.84" y="208.53" width="152.55" height="206.65" rx="7.15" ry="7.15" transform="translate(444.97 178.74) rotate(90)"/>
            </g>
            <rect class="cls-48" x="58.84" y="207.16" width="150.57" height="206.65" rx="5.78" ry="5.78" transform="translate(444.6 176.36) rotate(90)"/>
          </g>
          <path class="cls-21" d="M147.05,409.6h-23.07c-1.16,0-1.83-1.34-2.11-2.89-.73-4.1,0-7.37,0-7.37,0-.4.24-.84.53-.84l24.08.12c2.08,0,2.69.32,2.69.72v7.37c0,1.6-.94,2.89-2.11,2.89Z"/>
        </g>
        <g>
          <circle class="cls-37" cx="26.57" cy="229.27" r="2.55"/>
          <circle class="cls-19" cx="26.16" cy="228.53" r="2.55"/>
        </g>
        <g>
          <circle class="cls-37" cx="26.5" cy="393.04" r="2.55"/>
          <circle class="cls-19" cx="26.16" cy="392.26" r="2.55"/>
        </g>
        <g>
          <circle class="cls-37" cx="241.81" cy="229.25" r="2.55"/>
          <circle class="cls-19" cx="241.33" cy="228.55" r="2.55"/>
        </g>
        <g>
          <circle class="cls-37" cx="241.76" cy="393.03" r="2.55"/>
          <circle class="cls-19" cx="241.38" cy="392.27" r="2.55"/>
        </g>
      </g>
      <g>
        <path class="cls-35" d="M210.44,348.82s1.26,6.77,6.53,6.99,2.55-5.19,2.55-5.19l-9.07-1.8Z"/>
        <g>
          <path class="cls-2" d="M229.87,379.17s7.98,2.07,18.01-.85c0,0,7.07-7.94,12.84-19.19,3.48-6.78-4.92-12.99-4.92-12.99,0,0-7.13,22.53-25.93,33.04Z"/>
          <g>
            <path class="cls-6" d="M223.42,347.13c-.68,0-1.42-.39-2.1-.38l.5-5.8c3.36,1.32,26.39,5.01,33.02,6.19-7.63,2.3-18.23.51-26.15-.68-3.22-.11-5,.66-5.27.66Z"/>
            <path class="cls-4" d="M223.42,347.13c4.03,3.89-1.52,5.43-5.31,5.47-3,.03-5.34.1-7.78-1.93,1.43-2.22-4.92-3.49,10.99-3.91.68-.02,1.42.37,2.1.38Z"/>
            <g>
              <path class="cls-35" d="M256.93,344.58c-.47-2.47-6.28-5.58-8.61-6.36-4.58-1.53-11.67-2.46-16.53-2.96-.23-.02-.82.85-1.5.8-1.49,4.61-5.84,2.78-9.85,3.58.07.07.43.94,1.39,1.32,3.36,1.32,26.39,5.01,33.02,6.19-7.63,2.3-18.23.51-26.15-.68-3.22-.11-5,.66-5.27.66,4.03,3.89-1.52,5.43-5.31,5.47,2.51,2.51-2.19,4.21-4.26,5.66-3.6,2.51-1.81,3.45-7.57,2.92,2.96,3.01,3.57,4.02-1.36,4.57,2.14.29.18,2.08-.56,3.11-2.45-.29-5.5.81-7.44-.8-.51,3.68,12.88,7.87,16.3,8.81,2.44.67,5.76,1.03,8.4,1.51,5.3.95,10.44,2.86,16.02,1.27,12.07-3.4,16.42-15.1,18.94-20.16,1.66-3.35.98-11.59.35-14.9Z"/>
              <path class="cls-6" d="M241.12,364.75c.54.11,1.07.02,1.27.49.08,1.74-29.79,1.91-32.24-1.5.26-1.92,16.77.83,19.05,1.01,2.97.24,11.33-.12,11.92,0Z"/>
              <path class="cls-6" d="M245.42,355.89c5.25.97-11.71,1.95-14.91,1.61-11.34-1.23-13.52-3.95-7.93-4.1,2.61-.07,11.58,2.43,16.27,2.92,1.34.14,6.03-.53,6.58-.43Z"/>
            </g>
            <path class="cls-23" d="M230.29,336.06c-1.49,4.61-5.84,2.78-9.85,3.58-7.47-7.01,7.53-3.76,9.85-3.58Z"/>
            <path class="cls-23" d="M206.28,361.18c-6.5-.59-2.56-2.97-.49-3.3,1.06-.17,5.99,1.09,8.06.37-3.6,2.51-1.81,3.45-7.57,2.92Z"/>
            <path class="cls-23" d="M204.92,365.75c2.14.29.18,2.08-.56,3.11-2.45-.29-5.5.81-7.44-.8.64-4.59,4.57-1.93,8-2.31Z"/>
          </g>
        </g>
      </g>
      <g>
        <path class="cls-21" d="M131.67,340.23c.04.05.45-.06.55,0,.25.15.27.16.55.27,2.05.86,4.11,1.19,6.31,1.1-2.92,1.98,4.74.65,5.35-.27l.69.82c-.54-.44-.87.12-1.37.27-7.06,2.13-10.9-.63-11.67-.27-.29.13-1.5,3.89.96,5.22.25.13,1.66.44,2.2.55,1.4.27,2.69.37,4.12.27-2.7,2.8,5.63-.89,5.77.55-1.06-.16-1.82.53-1.92.55-3.62.88-7.67.85-11.12-.55-.84.32-.18,2.99-.41,4.12-.02.09.02.19,0,.27-.13.46-4.11,5.84-5.22,8.1-1.91,3.9-5.2,13.48-6.86,16.06-1.09,1.69-5.72,5.94-7.55,6.31-6.7,1.37-13.91-8.84-16.89-13.87-1.39-2.35-.76-2.35-.82-2.47-.29-.55-1.98-1.41-1.1-1.78,2.27,2.88,7.43,8.39,11.39,6.31,4.64-2.42,16.2-30.29,23.47-37.07,4.56-4.24,3.34-1.7,3.02,5.08.29.4.53.39.55.41Z"/>
        <path class="cls-21" d="M133.31,353.68c-.07,1.24,2.96.71,3.02,1.51-1.66,1.02-2.76-1.23-4.39-.14-1.1.73-.6,2.82-.82,4.26.1.34.44-.27.55-.14.83.99.77.9,2.2,1.37l2.06,1.37-3.29-.82c-1.09.21-.36.7-.41.82-.98,2.27-1.18,3.56.82,5.22.48.39.87.63,1.37.96-.14.24-.79-.02-1.65.41-1.61.81-1.39,3.27-.82,4.94.24.71.52.35.82.55,3.19,2.1.21.2-.55,1.1-.96,1.14-.6,3.47-.27,4.94.03.12-1.01.3,1.37.96-.58.64-.92-.21-1.37.96-.35.89-.42,2.93-.27,3.84.33,2.07.38,1.06,1.92,1.65,2.72,1.04,5.43,1.25,8.24.55-.09,1-1.1.19-.69,1.1,2.94.61,3.04-1.7,3.71,0-1.3-.2-1.31.51-1.37.55-9.68,2.34-13.66-4.61-11.26,4.39,5.37,3.06-.37-.19-1.1,2.06-1.31,4.04,1.6,4.91,1.65,5.22,0,.06-.58.51-.82.96-.12.22-1.17-.95-.82,4.53.8.58.79.11.82.14.06.04.2-.04.27,0,.02,0-.11.12.27.27-.55.91,3.52,1.47-.41,1.1-1.75.77-.51,5.63-1.1,6.04h-10.57c-.28-3.66-.57-7.44-.55-11.39,0-.09.55-1.23.55-1.65,0-.09-.55-.79-.55-1.65,0-.09.55-1.56.55-1.65.01-2.46,0-4.94,0-7.41,0-.1-.55-.45-.55-.55,0-.1.55-.45.55-.55-.01-2.09.05-4.25,0-6.31,0-.07-.55-1.3-.55-1.37-.05-1.43.72-3.53-.27-4.53,1.66-2.58,4.95-12.16,6.86-16.06,1.11-2.26,5.09-7.64,5.22-8.1.51.3,1.09.38,1.65.55Z"/>
        <g>
          <path class="cls-27" d="M203.6,243.03c1.93,1.54,5.12,5.62,5.49,7.96l-.55.41c-.09-1.49-.8-2.97-1.92-3.98-.59-1.62-2.88-3.7-3.16-3.57,1.12,4.23.48,8.83-4.67,9.34-4.16.41-5.04-2.89-7.96-3.84-2.83-.93-6.17-.06-6.18-1.1,2.94-1.41.7-.95,1.51-1.92.09-.11,1.02.32,2.75-.82,2.06-1.36,5.73-3.91.69-1.92,3.8-1.7,6.65-4.58,14-.55Z"/>
          <path class="cls-27" d="M184.66,248.25c-1.4.67-14.53,4.73-16.61,5.22-3.13.74-20.4,3.69-22.51,3.57-.66-.04-1.53-1.72-2.06,0,0-.02-.24.09-.27-.27-.09-.93.31-3.18.82-3.84.03-.03.39.06.82-.27.49.36.15.72.41.82.75.29,14.15-1.11,16.06-1.37,1.9-.26,13.67-2.38,14.28-2.88.02-.02-.32-.21-.27-.41v-.27c4.13.52,10.4-3.21,14.28-4.94,5.05-1.99,1.37.56-.69,1.92-1.73,1.14-2.65.71-2.75.82-.81.97,1.43.51-1.51,1.92Z"/>
          <path class="cls-36" d="M173.67,249.07c-3.93.69-8.05.4-12.36,2.2.57-.81-7.85-6.9-8.37-7.14-2.74-1.24-6.47-.12-6.73-3.57,7.16-2.5,9.94,1.51,16.34,4.39,3.58,1.62,7.39,2.89,11.12,4.12Z"/>
          <path class="cls-43" d="M151.16,237.54c5.68.89,14.11,8.18,22.51,10.43.46.12,1.02.47,1.65.55v.27c-.54.23-1.11.18-1.65.27-3.73-1.23-7.54-2.5-11.12-4.12-6.39-2.89-9.18-6.89-16.34-4.39-.24-3.27,2.44-3.41,4.94-3.02Z"/>
          <path class="cls-36" d="M175.32,248.8c-.05.2.29.4.27.41-.61.5-12.38,2.62-14.28,2.88v-.82c4.3-1.8,8.43-1.51,12.36-2.2.53-.09,1.11-.04,1.65-.27Z"/>
          <path class="cls-27" d="M148.14,289.16c-.04-.14.02-.37,0-.55.33-.51.24-.79.27-.82.28-.27.73-.46.96-.82,13.42,3.15,37.92-5.7,31.99-19.77,2.95.69,1.15,9.28.27,11.39-3.79,9.13-19.84,15.62-30.89,11.39-1.16-.44-1.61-1.69-2.61-.82Z"/>
          <path class="cls-43" d="M148.96,312.22c.09-.86.27-1.78.27-1.92,11.34,9.19,27.39,6.43,36.79-4.12,2.01-.2-2.16,6.02-4.8,8.24-10.09,8.46-22.59,4.86-32.26-2.2Z"/>
          <path class="cls-27" d="M174.5,273.24c-.4.32-.67.53-1.1.82-.88-1.71-3.98,2.9-4.8.55-4.36,2.43-13.75,4.05-18.4,3.29-.51-.08-1.82-1.52-2.61-.82,0-.09-.01-.19,0-.27.32-2.32,4.82-.95,10.85-1.92,4.92-.79,18.9-6.05,19.36-11.81,1.64-1.52,1.55,3.13-.27,6.45-.73,1.33-2.28,2.36-3.02,3.71Z"/>
          <path class="cls-47" d="M194.26,254.57c.81.77,3.37,4.73,1.37,3.84-1.29-1.87-14.82-4.51-10.71,4.67l-.55.27c-1.98-3.48-5.69-5.87-9.61-6.31-1.59-.18-2.26-.28-3.84.27.06-.36-1.05-.35-1.92-.27,3.24-1.16,15.72-4.8,17.71-4.94,3.13-.22,5.27.3,7.55,2.47Z"/>
          <path class="cls-43" d="M189.6,292.18c-1.12-1.47-2.32,2.64-3.84,4.53-4.38,5.43-8.64,7.47-15.1,9.47v-1.65c6.63-2.25,12.42-7.23,14.83-13.87l-2.2,1.51c3.66-4.11,5.42-8.71,2.2-13.73.77.11,3.13,3.97,3.29,4.53.27.91.22,6.22,0,7.96.52.43.65.58.82,1.24Z"/>
          <path class="cls-27" d="M174.77,257.04l-1.37.41c.18.93,1.83-.11,1.1.96-1.02-.16-1.29-.19-2.2.82-1.24-.25-2.43,1.6-3.98,2.47-4.88,2.72-15.86,5.05-21.55,4.12.01-.1-.02-.21,0-.27.68-1.85,3.93-1.23,5.9-1.65,13.23-2.81,15.8-5.73,18.26-6.59,1.59-.55,2.25-.46,3.84-.27Z"/>
          <g>
            <path class="cls-46" d="M172.85,371.53c-1.2-.45-2.48-1.55-3.29-2.47-.77-.88-2.23-3.86-3.57-5.49-1.01-2.46-2.34-4.79-3.57-7.14,3.91,4.35,5.2,12.21,10.98,14.96l-.55.14Z"/>
            <path class="cls-46" d="M153.9,321.83c9.36,12.39,25.34,9.88,34.05-1.92-8.13,21.06-29.79,9.92-29.65,8.1.06-.74.73-.23.82-.55.12-.41-4.65-2.83-5.77-5.49.03-.23.55-.11.55-.14Z"/>
            <path class="cls-28" d="M189.87,300.42c.95-3.03.03-7.84-.27-8.24.54,2,2.37,5.12.27,8.24Z"/>
            <path class="cls-35" d="M179.58,342.97c.57-.05.47.2,0,.55-1.93,1.44-8.56,2.49,0-.55Z"/>
          </g>
          <path class="cls-43" d="M206.62,247.43c2.36,6.46-3.35,11.74-8.92,13.73.05-3.47-.85-4.39-2.61-6.86-4.22-5.95-6.55-4.36-12.63-2.47-5.23,1.11-10.31,3.12-15.51,4.39-3.33.81-7.35.69-7.28,2.2-1.83.42-3.66.72-5.49,1.1-.67-1.54,1.29-.72,1.24-1.65-3.8-.42-8.35,1.01-11.94.27-.04-.35.07-.77,0-1.1.53-1.72,1.4-.04,2.06,0,2.11.12,19.38-2.83,22.51-3.57,2.08-.49,15.21-4.54,16.61-5.22.01,1.04,3.35.17,6.18,1.1,2.92.96,3.8,4.25,7.96,3.84,5.15-.51,5.79-5.11,4.67-9.34.27-.13,2.56,1.95,3.16,3.57Z"/>
          <path class="cls-47" d="M209.09,251l-.55.41c-.09-1.49-.8-2.97-1.92-3.98,2.36,6.46-3.35,11.74-8.92,13.73.05-3.47-.85-4.39-2.61-6.86l-.82.27c.81.77,3.37,4.73,1.37,3.84-1.29-1.87-14.82-4.51-10.71,4.67l-.55.27c2.44,4.28,9.28,30.76,10.71,37.2.06.27.76,0,.82.27.14.56-.33,4.35-.55,4.94-.84,2.24-3.61,4.26-3.57,5.77,0,.19,1.02,2.11,1.1,3.57.16,2.94.12,8.73,0,11.81,0,.06-.55,1.04-.55,1.1-.17,3.26-.19,6.62-.27,9.88l-.82.41c.19.51.53,1.17.82,1.65,1.06-8.68,1.96-20.59.27-28.97,4.77-4.48,4.1-6.65,4.12-12.22.04-10.72-2.23-17.63,2.2-28.01,4.39-10.28,11.65-12.04,10.43-19.77Z"/>
          <path class="cls-36" d="M195.09,254.29l-.82.27c-2.28-2.17-4.42-2.69-7.55-2.47-1.99.14-14.47,3.78-17.71,4.94-2.07.17-4.42,1.36-6.04.55,4.31-1.04,8.78-2.06,13.04-3.29,2.18-.63,4.29-1.8,6.45-2.47,6.08-1.89,8.41-3.48,12.63,2.47Z"/>
          <path class="cls-27" d="M133.59,253.19c-.39-.08-.71-.25-1.1-.27-1.38,1.01-6.04.14-8.24,0-1.98-.12-4.35-.31-6.31-.55-.57-.07-1.08-.2-1.65-.27-4.88-.65-9.96-1.79-14.96-2.75.07-.39,1.34-.23,2.61-.55,2.59-.65,4.96-1.77,7.41-2.75,4.94-1.97,12.82-6.19,13.59-6.31,3.13-.49,4.71.84,6.18.55.31-5.86-7.58-1.86-10.43-.55-.02,0,.11.09-.27.27-3.07,1.43-5.96,3.56-9.06,4.94-12.3,5.49-11.65,3.87-23.06-1.1-2.06-.9-3.83-2.38-6.18-2.75-7.63-1.18-15.17,4.83-14.14,12.9.09.7,1.46,3.68,1.92,4.39,1.14,1.74,8.42,7.99,10.43,16.47,1.88,7.92-.41,19.19.27,27.46.16-1.59.78-3.17,1.1-4.67,2.05-9.57,4.49-19.25,7-28.55-2.01,2.2-3.45,7.05-5.35,4.67-.74-.93-3.16-8.52-3.29-9.88-.35-3.48.3-8.18,3.57-10.16-3.31-.68-2.42,4.63-4.94,4.8.66-3.52,1.83-4.53,4.39-6.73.05-.04-.23-.6.41-1.1,9.19-5.14,14.15-.51,22.93,2.75,2.96.88,24.02,4.28,25.67,3.57,1.06-.46,1.55-2.02,1.78-3.02-.11-.3-.37-.45-.27-.82Z"/>
          <path class="cls-27" d="M105.58,257.31c4.07,2.08,8.25,3.63,12.63,4.94.83.25,1.6.58,2.47.82,5.12,1.44,9.22,1.04,9.06,3.02-14.11.65-23.34-6.96-24.57-7.41-.47-.17-.75.35-1.24.27-.35-.05-.45-.74-1.78-.55-2.52.37-3.24,4.03-2.61,6.04-2.33.39.48,4.84,1.65,6.04l-.55,1.65c-2.44-2.38-4.65-7.96-6.04-2.88-1.4,5.1,4.17,11.64,8.51,13.87,2.46,2.79,11.94,4.17,15.65,4.39,5.86.36,9.02-1.07,9.34,1.1-10.37,4.68-23.39,2.39-31.03-6.18-1.95-2.19-1.7-4.69-3.84-2.88-1.01-1.42-.76-1.92-1.92-.55l-3.29-1.37c.93-3.17,2.48-8.93,3.57-11.53,1.23-2.92,1.88-4.01,4.39-6.04,4.15-3.34,4.73-2.81,9.61-2.75Z"/>
          <path class="cls-27" d="M128.64,303.16h-.82c.15-.77,1.1-1.9.14-1.92-1.13,1.25-8.79,4.44-9.88,4.67-9.29,1.9-21.09-3.94-26.49-11.53-1.31-1.84-3.2-3.77-.55-5.35-.52-.52-.54-1.09-.55-1.78,1.36,2.72,2.49,4.47,4.67,6.59,5.43,5.3,11.82,7.15,19.22,7.69,4.8.35,8.02.22,12.77-.82,5.29-5.89,1.61-11.5,1.78-13.04.03-.27,1.07-1.42,1.1-1.51,5.26-.77,1.8,4.25,1.65,5.08-.36,1.9-.37,3.86-.82,5.77-.44,1.85-1.91,4.24-2.2,6.18Z"/>
          <path class="cls-27" d="M104.76,315.24c5.68,1.44,11.79.83,17.02-1.65,2.11-1,3.38-1.9,5.22-3.29-.04.35.06.78,0,1.1-.82,4.01-15.64,10.29-25.67,6.86-7.17-2.45-3.34-4.77-3.71-5.9-.18-.54-5.69-3.7-8.24-7.82,3.74,4.36,9.72,9.28,15.38,10.71Z"/>
          <path class="cls-43" d="M91.58,294.38c5.41,7.59,17.2,13.43,26.49,11.53,1.1-.22,8.75-3.42,9.88-4.67.97.02.01,1.15-.14,1.92-.23,1.18-.1,2.24-1.1,3.02-.75.59-5.02,1.48-6.31,1.65-3.04.39-6.02.39-9.06,0-7.83-1.01-15.67-5.14-20.59-11.26.83-1.56-.54-2.15.82-2.2Z"/>
          <g>
            <path class="cls-41" d="M97.07,326.77c9.29,5.53,15.14,3.88,23.61-2.2-1.58,2.61-2.06,3.74-5.08,5.49-5.5,3.2-11.76,4.12-17.57,1.1-2.39-1.24-11.25-9.12-9.2-11.53,2.02,3.05,5.14,5.29,8.24,7.14Z"/>
            <path class="cls-46" d="M96.25,352.03c.76,3.18-2.85-.58-3.16-.55-.95.09.43,1.8-1.78.55-.93-1.02-2.11-2.09-2.2-2.75.16-.65.79-.36.82-.96.06-1.18-3.26-1.93-1.37-4.8,1.37,2.66,5.08,7,7.69,8.51Z"/>
            <path class="cls-20" d="M86.09,322.38l-.55.27c.18-1.83.11-.93.55-.27Z"/>
          </g>
          <path class="cls-47" d="M97.35,254.02c-4.57-.81-9.34-2.94-13.73-.27-3.27,1.98-3.92,6.68-3.57,10.16.14,1.36,2.55,8.96,3.29,9.88,1.34.05,2.9-2.77,4.84-5.05-1.94,2.28-3.5,5.1-4.84,5.05,1.91,2.39,3.34-2.46,5.35-4.67-2.51,9.31-4.95,18.98-7,28.55.04.32.52.7.69.55.79-.72,4.87-17.99,5.63-20.59.93-3.17,2.48-8.93,3.57-11.53h0c1.23-2.92,1.88-4.01,4.39-6.04,4.15-3.34,4.73-2.81,9.61-2.75,2.72.04,5.27.21,7.96.55-5.25-1.86-10.73-2.87-16.2-3.84Z"/>
          <path class="cls-36" d="M131.12,240.29c-.22,4.21-4.2,2.42-7.28,3.84-1.92.88-3.34,3.37-3.98,3.84-.78.57-4.38.4-4.12,3.29-2.77-.08-5.89-1.92-8.92-2.2-1.85-.17-3.01.88-2.88-.27,2.59-.65,4.96-1.77,7.41-2.75,4.94-1.97,12.82-6.19,13.59-6.31,3.13-.49,4.71.84,6.18.55Z"/>
          <path class="cls-27" d="M106.41,253.47c-1.86,2.84,11.66,3.49,16.2,4.94.62.2,1.54.56,1.65,1.37-3.38-.63-7.4-1.51-10.71-1.92-5.25-1.86-10.73-2.87-16.2-3.84,1.17-1.23-6.66-3.5-7.28-3.57-2.68-.32-4.64.26-7,1.37.05-.04-.23-.6.41-1.1,9.19-5.14,14.15-.51,22.93,2.75Z"/>
          <path class="cls-43" d="M133.86,254.02c.5,1.36.83,3.11,1.37,3.29-.03,0,.22.13-.55.27-.81.15-.89.54-.96.55-3.54.6-11-1.31-11.12.27-4.53-1.45-18.05-2.1-16.2-4.94,2.96.88,24.02,4.28,25.67,3.57,1.06-.46,1.55-2.02,1.78-3.02Z"/>
          <path class="cls-36" d="M97.35,254.02c-4.57-.81-9.34-2.94-13.73-.27-3.31-.68-2.42,4.63-4.94,4.8.66-3.52,1.83-4.53,4.39-6.73,2.37-1.11,4.32-1.69,7-1.37.61.07,8.45,2.34,7.28,3.57Z"/>
          <path class="cls-36" d="M115.74,251.27c.07.81.34.33.55.82-4.88-.65-9.96-1.79-14.96-2.75.07-.39,1.34-.23,2.61-.55-.13,1.15,1.03.1,2.88.27,3.03.28,6.15,2.12,8.92,2.2Z"/>
          <path class="cls-21" d="M162.42,356.43c1.23,2.35,2.56,4.68,3.57,7.14-1.41-1.73-2.07-3.01-2.2-3.16-1.11-1.27-10.91-10.58-11.81-7.96-1.28,3.73-.05,53.02-.55,62.19-2.07.02-4.52.11-6.59.27.05-.23-.36-.36-.27-.55.65-1.46.89-3.12.27-4.94.8-1.57-3.86,1.3-3.57-1.1.54-.08.6-.21.82-.27,3.74-.98,3.39-.92,3.29-5.08-.75-1.16-1.54-.15-1.65-.14-4.82.49-6.6,1.12-11.81-.55.24-.45.83-.9.82-.96-.04-.3-2.96-1.18-1.65-5.22.73-2.25,6.47,1,1.1-2.06h.27c3.67,1.23,5.63,1.47,9.34.55,3.08-.77,4.57-1.53,3.02-5.49-.67-1.7-.77.61-3.71,0-.41-.91.59-.09.69-1.1,4.48-1.12,3.14-1.35,3.29-5.9-.31-.54-1.86.47-2.2.69-4.09.73-7.07.02-10.98-.82.46-1.17.8-.32,1.37-.96-2.39-.66-1.35-.84-1.37-.96.93.18,1.83.61,2.75.82,2.35.54,4.47.72,6.86.27,4.38-.81,3.57-1.49,3.57-5.63-.56-.84-.76.13-.82.14-4.35.32-6.36,1.83-12.08-.55.76-.9,3.74,1,.55-1.1.15.04,1.27.05,2.47.27,2.88.53,3.21.89,6.59,0,4.11-1.09,3.3-1.53,3.29-5.63-.16-.24-.49-.11-.82-.14-.42-.03-3.3,1.69-8.24,1.1-.81-.1-2.39-.8-3.29-1.1.85-.43,1.5-.17,1.65-.41-.51-.33-.9-.57-1.37-.96.18.02.41-.04.55,0,3.3.98,5.06,1.21,8.51.27,4.08-1.1,2.9-1.12,3.02-5.35-.29-.73-1.42.19-2.75.41-4.52.77-5.63.66-10.16-.55.06-.13-.68-.62.41-.82l3.29.82-2.06-1.37c.44.15.92.18,1.37.27,2.8.59,3.74.72,6.59,0,4.13-1.05,3.26-.88,3.29-5.35-.29-.59-.95-.06-2.2.14-5.02.79-5.12,1.24-10.98-.27v-.27c1.63-1.09,2.73,1.16,4.39.14-.06-.8-3.09-.27-3.02-1.51.63.19,1.27.43,1.92.55,1.09.2,3,.58,3.98.55,1.68-.06,2.21-.8,2.33-.82,3-.69,4.8-.8,3.57-5.22-.14-1.44-8.46,2.25-5.77-.55.84-.05,1.66-.33,2.47-.55,4.19-1.13,3.25-.95,3.29-5.49l-.69-.82c-.62.92-8.27,2.25-5.35.27.94-.04,1.59-.34,2.47-.55.73-.18,3.27-.48,3.57-1.24.19-.47-.13-3.03,0-4.12-.25-.4-1.89.26-3.02.41-2.13.29-3.29.73-6.45.55-2.91-.17-4.41-3.39-3.98,3.57-.02-.03-.26-.01-.55-.41.32-6.78,1.54-9.32-3.02-5.08.42-1.49,2.32-2.37,3.29-3.29-.25,2,1,1.84,1.1,1.92,2.17,1.7,6.46,1.9,9.06,1.37,2.35-.48,4.17-1.22,3.84-3.84,1.13,1.32,3.27,2.97,6.04,6.73,3.79,5.14,7.96,13.03,10.98,18.81Z"/>
          <path class="cls-43" d="M170.65,304.54v1.65c-.45.14-2.16,1.25-4.8,1.65-4.08.61-13,.66-15.79-2.75,0-.4-.42-1.88-.55-3.02,6.16,4.91,13.89,4.93,21.14,2.47Z"/>
          <path class="cls-27" d="M170.65,304.54c-7.25,2.45-14.98,2.44-21.14-2.47-.1-.85-.71-.99.27-1.65,10.92,3.22,25.75.46,33.5-8.24l2.2-1.51c-2.4,6.64-8.19,11.62-14.83,13.87Z"/>
          <path class="cls-43" d="M173.4,274.06c-8.32,5.73-25.33,9.2-25.81,3.02.78-.7,2.1.74,2.61.82,4.65.75,14.04-.86,18.4-3.29.83,2.35,3.93-2.26,4.8-.55Z"/>
          <path class="cls-43" d="M172.3,259.23c-1.06,5.87-23.9,11.44-25.53,7.41-.04-.11-.02-.6,0-.82,5.69.93,16.67-1.39,21.55-4.12,1.56-.87,2.74-2.72,3.98-2.47Z"/>
          <path class="cls-10" d="M146.77,265.82c-.02.22-.04.72,0,.82h-.27c-.02-.36.03-.74,0-1.1h.27c-.02.07.01.18,0,.27Z"/>
          <path class="cls-43" d="M195.91,300.83c-.07-.27-.76,0-.82-.27-1.43-6.45-8.27-32.92-10.71-37.2-1.98-3.48-5.69-5.87-9.61-6.31l-1.37.41c.18.93,1.83-.11,1.1.96,2.09.32,3.32,2.16,3.31,4.25,0,.14,0,.28-.02.42,1.64-1.52,1.55,3.13-.27,6.45-.73,1.33-2.28,2.36-3.02,3.71.53-.42,1-.82,1.42-1.19.98-.88,1.7-1.64,2.24-2.29,1-1.2,1.42-2,1.9-2.38.04-.03.07-.06.11-.08.08-.05.15-.09.24-.12.13-.04.26-.06.42-.06.16,0,.33.03.54.07,2.95.69,1.15,9.28.27,11.39-3.79,9.13-19.84,15.62-30.89,11.39-1.16-.44-1.61-1.69-2.61-.82.08.28.19.55.32.8.13.25.29.48.47.7.09.11.19.21.29.31.3.3.65.56,1.04.8.13.08.26.15.4.22.95.5,2.09.83,3.28,1.05.68.12,1.38.21,2.08.27.35.03.7.05,1.04.07.52.02,1.02.03,1.51.03.33,0,.65,0,.95-.01.15,0,.31,0,.45-.02.59-.02,1.14-.06,1.61-.09.48-.04.96-.09,1.44-.15,4.82-.66,9.73-2.7,13.8-5.65,1.22-.88,2.36-1.85,3.41-2.89.35-.34.68-.7,1.01-1.06.32-.36.64-.73.94-1.1.19-.24.35-.48.5-.73.15-.25.27-.49.39-.73.12-.24.22-.48.32-.7.1-.23.2-.44.3-.64.15-.3.3-.55.49-.76.06-.07.13-.13.2-.18.21-.16.46-.25.77-.26.1,0,.21,0,.33.02h0c.77.11,3.13,3.97,3.29,4.53.27.91.22,6.22,0,7.96.52.43.65.58.82,1.24h0c.06.08.16.38.25.8.69,1.98,1.85,4.71.02,7.44-.1.31-.33.76-.63,1.27-.53.9-1.29,2.01-1.98,2.93-.49.66-.94,1.23-1.23,1.56,2.01-.2-2.16,6.02-4.8,8.24-10.09,8.46-22.59,4.86-32.26-2.2-.02.18.02.37,0,.55-.9-.38.21,1.47-.55,4.26-.82,3.01-5.16,5.73-4.67,6.73-1.16,1.48-.9,1.82-1.65,2.75.04.15.49,1.26.55,1.37.19.37.96,1.13,1.37,1.65.16.2.86.77,1.37,1.37,1.13,1.32,3.27,2.97,6.04,6.73,3.79,5.14,7.96,13.03,10.98,18.81,3.91,4.35,5.2,12.21,10.98,14.96l-.55.14c3.38,1.27,7.29-1.85,9.61-4.26,6.64-6.89,8.46-17.87,9.61-27.04-.05-.02-.1-.02-.15,0,.05-.01.1-.01.15,0,.01-.09-.01-.18,0-.27-.29-.48-.64-1.14-.82-1.65-.04-.11-.08-.22-.13-.33-.14-.35-.31-.72-.42-1.04-.47,5.07-6.69,14.07-11.26,15.92h0c-1.32.54-2.64.78-3.91.81-.25,0-.51,0-.76,0-2.01-.09-3.88-.71-5.45-1.57-3.54-1.93-5.55-5.09-4.15-6.23.11-.09.25-.14.41-.14,1.18-.03,3.63,2.04,7.94,1.96.2,0,.4-.01.6-.02.41-.03.83-.07,1.27-.14.88-.13,1.82-.36,2.83-.7.51-.17,1.04-.41,1.6-.72.83-.45,1.7-1.03,2.58-1.7,3.21-2.45,6.5-6.05,8.18-8.57.04.02.07.05.09.09.02.04.04.08.05.12.02.09.02.19.01.3-.01.22-.06.45,0,.59.1.32.27.69.42,1.04.05.12.09.23.13.33l.82-.41c.09-3.27.1-6.62.27-9.88,0-.06.55-1.04.55-1.1.12-3.08.16-8.87,0-11.81-.08-1.46-1.09-3.38-1.1-3.57-.04-1.5,2.73-3.52,3.57-5.77.22-.6.69-4.38.55-4.94ZM188.93,347.13c.18-.78.3-1.65.68-2.24.11-.17.24-.31.4-.42-.16.11-.29.26-.4.42-.38.59-.5,1.45-.68,2.24-.05.22-.11.44-.18.64.07-.2.13-.42.18-.64ZM181.77,352.58h0c-.05-.01-.3.15-.62.37.32-.22.57-.39.62-.37ZM179.42,353.89c-.11,0-.19-.04-.22-.14.03.1.11.14.22.14ZM187.81,349.84c1.58,0-4.31,10.23-7.96,12.9-6.37,4.65-9.51-1.86-9.75-3.16-1.19-6.61,5.95,4.58,17.71-9.75ZM153.9,321.83c-.22-6.07,1.51-1.08,9.47-.27,10.13,1.03,21.51-4.06,26.36-13.18,2.26,4.6,1.08,7.65-1.78,11.53-8.71,11.8-24.69,14.31-34.05,1.92ZM175.73,342.97c-10.56,2.26-20.09-8.76-18.81-11.67.67-1.53,4.45,1.44,5.35,1.78,13.05,4.97,21.9.34,28.83-10.98,2.02,7.97-8.35,19.37-15.38,20.87Z"/>
          <path class="cls-27" d="M182.46,251.82c-2.16.67-4.27,1.84-6.45,2.47-4.26,1.23-8.73,2.25-13.04,3.29-1.11.27-2.17.57-3.29.82-.07-1.51,3.95-1.39,7.28-2.2,5.2-1.27,10.28-3.28,15.51-4.39Z"/>
          <path class="cls-27" d="M103.66,268.57c2.43,1.88,3.51,2.41,6.31,3.57,6.26,2.58,8.35,2.62,14.83,3.29,1.32.14,4.07-.6,4.39,1.37-6.82,2.99-22.97-1.11-28.01-6.31-1.17-1.2-3.97-5.65-1.65-6.04.58,1.83,2.73,3.05,4.12,4.12Z"/>
          <path class="cls-43" d="M128.1,288.61c.46,3.15-5.07,4.49-7.41,4.67-5.45.41-13.34-1.46-18.12-4.12-5.66-3.15-6.49-5.61-9.34-9.61,2.14-1.81,1.89.69,3.84,2.88,7.64,8.57,20.65,10.86,31.03,6.18Z"/>
          <path class="cls-43" d="M129.19,276.8c.6,3.66-6.1,3.42-8.51,3.29-2.73-.14-10.97-2.17-13.45-3.29-1.4-.63-5.38-3.49-6.59-4.67l.55-1.65c5.04,5.2,21.18,9.3,28.01,6.31Z"/>
          <path class="cls-43" d="M129.74,266.1c-.19,2.3-4.87,1.44-6.31,1.37-3.26-.15-6.49-.65-9.61-1.65-1.23-.4-5.05-2.07-6.04-2.75-1.07-.73-3.18-2.9-3.84-4.12.48.07.77-.45,1.24-.27,1.23.45,10.47,8.06,24.57,7.41Z"/>
          <path class="cls-36" d="M134.69,257.59c-.71.96-2.33,2.97-2.75,3.84-2.53-.6-5.13-1.18-7.69-1.65-.11-.81-1.03-1.18-1.65-1.37.12-1.59,7.58.32,11.12-.27.07-.01.15-.4.96-.55Z"/>
          <g>
            <path class="cls-36" d="M142.1,250.17c-.26.04-.56-.03-.82,0-.1-.54.19-2.51-.14-2.75-.22-.16-5.24-.39-5.49-.27-1.16.54.8,2.61-1.78,2.47-.28-.09-1.48-.16-2.06-.27-.66-.43-.33-1.07-.41-1.65,1.13.19.17-2.37.69-2.75.51-.37,5.86,4.12,11.94.69-2.38-.95.78-1.02,1.92-1.78,1.01.33.38,2.93.55,5.08-.13.29-3.82,1.14-4.39,1.24Z"/>
            <path class="cls-43" d="M141.55,242.76c-.13-5.11-1.96-1.92-6.18-3.57-1.14,1.05.41,2.44-.69,3.02-2.07-.68-3.72-.4-3.02-4.94,2.51,1.44,6.97,2.51,9.75,1.92,3.45-.73-1.42-1.01,0-1.92.3-.19,3.42-.22,3.43-1.37.98-.09,1.22-.51,1.65.14l-.55,4.67c-1.25,1.03-2.82,1.76-4.39,2.06Z"/>
            <path class="cls-27" d="M145.94,243.86c-1.14.76-4.3.83-1.92,1.78-6.08,3.43-11.43-1.06-11.94-.69-.52.37.45,2.94-.69,2.75-.04-.26,0-.56,0-.82-.02-5.06,1.62-2.32,5.49-2.2,5.8.18,8.39-1.29,9.06-.82Z"/>
            <path class="cls-27" d="M136.61,236.72c2.18.23,3.16.71,5.22-.27,2.16-.15,2.87-.53,3.02-.55-.01,1.15-3.14,1.18-3.43,1.37-1.42.91,3.45,1.19,0,1.92-2.78.59-7.24-.48-9.75-1.92.08-.52-.21-.98.41-1.37,1.61-.18,2.98.66,4.53.82Z"/>
            <path class="cls-43" d="M136.61,252.37c5.45.14,6.84-1.03,7.55-.82.34.1.54.99.69,1.1-.43.33-.8.24-.82.27.76-1.4-1.46-.59-1.92.41-.63,1.36.23,3.37-.82,3.16-.19-.44.24-3.54-.14-3.57-.44,2.58-3.67,1.97-5.63,2.2-1.13-3-.63-1.64-1.92-1.92-.39-.08-.71-.25-1.1-.27.08-.06.54-1.28.96-1.37.31-.07,1.32.78,3.16.82Z"/>
            <path class="cls-27" d="M141.55,242.76c-1.75.33-2.97.21-4.67,0-1.05-.13-1.27-.24-2.2-.55,1.1-.58-.45-1.97.69-3.02,4.22,1.65,6.04-1.54,6.18,3.57Z"/>
            <path class="cls-36" d="M135.51,255.11c.2.54.68.99.55,1.65-.36.08-.46.48-.82.55-.54-.18-.87-1.94-1.37-3.29-.11-.3-.37-.45-.27-.82,1.29.28.79-1.08,1.92,1.92Z"/>
            <path class="cls-36" d="M144.02,252.92c-.52.66-.92,2.91-.82,3.84-.41-.07-1.14.1-1.37,0-.21-.09-.35.19-.55-.27,1.05.21.2-1.79.82-3.16.46-1,2.68-1.81,1.92-.41Z"/>
            <path class="cls-27" d="M141.27,250.17c-3.16.36-4.42.45-7.41-.55,2.58.14.62-1.93,1.78-2.47.25-.12,5.27.12,5.49.27.33.23.04,2.21.14,2.75Z"/>
            <path class="cls-36" d="M141.27,256.49c.2.47.34.18.55.27-.4.97,1.23,1.29,1.65,1.37,3.6.74,8.15-.69,11.94-.27.06.93-1.9.11-1.24,1.65-2.95.61-5.98.93-8.92,1.65-.53.55.54,2.28.69,3.02-1.72,1.01-1.22-.16-2.2-1.92-.53-.96-2.58-4.84-3.02-5.22-1.19-1.01-3.24-.61-4.67-.27.13-.66-.34-1.11-.55-1.65,1.96-.23,5.19.38,5.63-2.2.38.03-.05,3.13.14,3.57Z"/>
            <g>
              <path class="cls-44" d="M142.65,327.87c.19.37.96,1.13,1.37,1.65-.32.24-.54.2-.82.27-2.79.72-7.14,1.05-9.61-.55.33-.44.26-.52.27-.55.06-.1.68-.17.82-1.1h.27c1.95,1.4,5.38.64,7.69.27Z"/>
              <path class="cls-47" d="M141.82,325.4c.07.37.17.74.27,1.1.04.15.49,1.26.55,1.37-2.31.37-5.74,1.12-7.69-.27.21-.07.55-1.3.55-1.37,3.15-2.26,3.94.16,6.31-.82Z"/>
              <path class="cls-36" d="M143.2,329.79c.31.03-1.76,1.86-1.92,1.92-1.14.45-4.44.23-5.77,0-.27-.05-2.22-.81-3.29-1.1.39-.42,1.31-1.3,1.37-1.37,2.47,1.6,6.82,1.27,9.61.55Z"/>
              <path class="cls-36" d="M143.2,349.29c1.49.38-.45,1.09-1.1,1.37-9.28-.79-6.58,2.24-.55.27v3.02c-.12.03-.65.77-2.33.82-.98.03-2.9-.35-3.98-.55,1.05-3.19-2.33-4.18-2.61-4.12-1.05.23.28,2.92-.96,2.75.23-1.13-.43-3.8.41-4.12,3.45,1.4,7.5,1.43,11.12.55Z"/>
              <path class="cls-36" d="M141.82,344.62v3.02c-.81.22-1.63.5-2.47.55-1.43.09-2.72,0-4.12-.27l.27-3.02c.82.15,5.6-.02,6.31-.27Z"/>
              <path class="cls-43" d="M143.75,342.42l-1.65.96c1.77.05.7.89-.27,1.24-.72.26-5.5.43-6.31.27-.18-.03-2.55-1.39-3.16-1.65-.33,1.76-.33,2.75.69,4.12-2.46-1.33-1.25-5.08-.96-5.22.77-.35,4.61,2.4,11.67.27Z"/>
              <path class="cls-47" d="M145.12,342.15c-.05,4.54.9,4.36-3.29,5.49v-3.02c.97-.35,2.05-1.18.27-1.24l1.65-.96c.5-.15.83-.72,1.37-.27Z"/>
              <path class="cls-47" d="M145.12,348.74c1.23,4.41-.57,4.53-3.57,5.22v-3.02c.21-.07.35-.18.55-.27.64-.29,2.59-1,1.1-1.37.1-.02.86-.71,1.92-.55Z"/>
              <path class="cls-43" d="M142.1,336.11c-.57,1.09,2.85,1.17-.55,1.65-.26.04-.56-.02-.82,0-.03,0,.08-.56-.14-.55-1.24.06-5.65.37-5.35.82-2.8-.41-3.24-3.03-3.02,2.2-.1-.06-.51.05-.55,0-.42-6.96,1.07-3.74,3.98-3.57,3.16.18,4.32-.26,6.45-.55Z"/>
              <path class="cls-36" d="M135.51,344.9l-.27,3.02c-.53-.1-1.95-.42-2.2-.55-1.02-1.37-1.02-2.36-.69-4.12.61.26,2.98,1.61,3.16,1.65Z"/>
              <path class="cls-36" d="M135.23,354.23c-.66-.12-1.29-.36-1.92-.55-.55-.17-1.14-.25-1.65-.55.02-.08-.02-.19,0-.27,1.24.18-.08-2.52.96-2.75.28-.06,3.66.93,2.61,4.12Z"/>
              <path class="cls-46" d="M142.92,382.78c-.06.04,1,.12-.82.69,1.66-.14-.03,1.42-.27,1.51-.29.11-5.04.3-6.31,0-.17-.04-2.88-1.86-3.16-1.65-.5.39.43,2.67-.69,2.47-.15-.92-.07-2.95.27-3.84,3.91.85,6.89,1.56,10.98.82Z"/>
              <path class="cls-43" d="M144.29,375.65c-.52.86-1.84,1.86-2.75,2.2-.21.08-.64.23-.82.27.23-.86-4.35-.86-4.12,0-2.28-.36-4.27-1.73-4.39-1.51-.44.84-.05,3.87,1.78,2.61-.24,2.01,1.52.14.69,1.65-.91-.21-1.82-.64-2.75-.82-.32-1.47-.69-3.8.27-4.94,5.72,2.38,7.73.87,12.08.55Z"/>
              <path class="cls-36" d="M141.82,384.98c-.07.99.09,2.03,0,3.02-2.8.7-5.52.49-8.24-.55,2.46-.02,1.45-.45,1.92-2.47,1.28.3,6.02.11,6.31,0Z"/>
              <path class="cls-43" d="M142.37,362.47l-.41,1.1c2.2-.83,2.18-.28-.14.55-3.21,1.15-6.66.86-9.47-1.1-.29,2.41-.6,2.8,1.24,4.12-.14-.04-.37.02-.55,0-2.01-1.66-1.8-2.94-.82-5.22,4.53,1.21,5.64,1.32,10.16.55Z"/>
              <path class="cls-36" d="M132.76,368.51c.9.29,2.48,1,3.29,1.1-.11,1.11-2.5-.27-2.47.69,0,.25,2.62.5,1.65,3.98-1.2-.22-2.32-.24-2.47-.27-.05-.01-.13-.66-.82-.55-.57-1.67-.79-4.13.82-4.94Z"/>
              <path class="cls-36" d="M135.51,384.98c-.47,2.02.54,2.45-1.92,2.47-1.54-.59-1.59.42-1.92-1.65,1.11.2.18-2.08.69-2.47.27-.21,2.98,1.61,3.16,1.65Z"/>
              <path class="cls-36" d="M135.23,358.07v2.75c-.45-.09-.93-.13-1.37-.27-1.43-.48-1.36-.38-2.2-1.37.02-.64-.02-1.29,0-1.92,1-1.44,2.19.53,3.57.82Z"/>
              <path class="cls-44" d="M131.94,355.33c-.42.6-.25,1.26-.27,1.92-.02.64.02,1.28,0,1.92-.11-.13-.45.48-.55.14.22-1.43-.27-3.52.82-4.26v.27Z"/>
              <path class="cls-12" d="M132.76,374c-.3-.2-.58.16-.82-.55.7-.11.78.54.82.55Z"/>
              <path class="cls-36" d="M143.2,256.76c.04.37.27.26.27.27.07.33-.04.75,0,1.1-.42-.09-2.05-.4-1.65-1.37.23.1.96-.07,1.37,0Z"/>
              <path class="cls-36" d="M141.82,374.27c-3.38.89-3.71.53-6.59,0,.97-3.48-1.64-3.73-1.65-3.98-.03-.96,2.36.43,2.47-.69,4.93.59,7.82-1.13,8.24-1.1-3.09,2.59-.31.72-.27,1.24-2.78,1.47-2.21,1.33-2.2,4.53Z"/>
              <path class="cls-36" d="M141.82,364.11l.27,3.29c-3.45.93-5.21.7-8.51-.27-1.83-1.32-1.52-1.71-1.24-4.12,2.81,1.96,6.26,2.25,9.47,1.1Z"/>
              <path class="cls-36" d="M136.61,378.12c1.33.21,2.8.3,4.12,0,.19-.04.61-.2.82-.27v3.29c-2.4.44-4.51.26-6.86-.27.83-1.51-.93.36-.69-1.65-1.83,1.26-2.23-1.77-1.78-2.61.12-.22,2.11,1.15,4.39,1.51Z"/>
              <path class="cls-36" d="M141.82,357.8v3.02c-2.85.72-3.79.59-6.59,0v-2.75c1.14.25,5.55.13,6.59-.27Z"/>
              <path class="cls-47" d="M145.39,330.89c-.51-.6-1.21-1.17-1.37-1.37-.32.24-.54.2-.82.27.31.03-1.76,1.86-1.92,1.92-1.14.45-4.44.23-5.77,0-.27-.05-2.22-.81-3.29-1.1-.23.25-.57.59-.82.82-.25,2,1,1.84,1.1,1.92,2.17,1.7,6.46,1.9,9.06,1.37,2.35-.48,4.17-1.22,3.84-3.84Z"/>
              <path class="cls-43" d="M142.92,355.6c-1.41,1.47,1.14,1.32-1.1,2.2-1.04.41-5.44.52-6.59.27-1.38-.3-2.57-2.26-3.57-.82.02-.66-.15-1.32.27-1.92,5.86,1.52,5.96,1.06,10.98.27Z"/>
              <path class="cls-47" d="M145.12,335.7c-.25-.4-1.89.26-3.02.41-.57,1.09,2.85,1.17-.55,1.65-.26.04-.56-.02-.82,0-1.71.83-3.67.54-5.49.27-2.8-.41-3.24-3.03-3.02,2.2.25.15.27.16.55.27,2.05.86,4.11,1.19,6.31,1.1.94-.04,1.59-.34,2.47-.55.73-.18,3.27-.48,3.57-1.24.19-.47-.13-3.03,0-4.12Z"/>
              <path class="cls-47" d="M141.82,388c.09-.99-.07-2.03,0-3.02.24-.09,1.93-1.66.27-1.51,1.82-.57.76-.65.82-.69.33-.21,1.89-1.22,2.2-.69-.16,4.55,1.18,4.78-3.29,5.9Z"/>
              <path class="cls-47" d="M142.1,367.41l-.27-3.29c2.31-.83,2.34-1.38.14-.55l.41-1.1c1.32-.23,2.45-1.14,2.75-.41-.12,4.23,1.06,4.25-3.02,5.35Z"/>
              <path class="cls-47" d="M141.82,360.82v-3.02c2.24-.88-.32-.73,1.1-2.2,1.25-.2,1.91-.73,2.2-.14-.03,4.47.83,4.3-3.29,5.35Z"/>
              <path class="cls-47" d="M141.55,381.14v-3.29c.91-.33,2.23-1.34,2.75-2.2.06,0,.26-.98.82-.14,0,4.14.81,4.82-3.57,5.63Z"/>
              <path class="cls-47" d="M141.82,374.27c-.01-3.2-.58-3.06,2.2-4.53-.04-.52-2.82,1.35.27-1.24.34.02.67-.1.82.14,0,4.1.81,4.54-3.29,5.63Z"/>
              <path class="cls-36" d="M150.06,305.08c0-.4-.42-1.88-.55-3.02-.1-.85-.71-.99.27-1.65-.41-.04-.52-.52-.55-.55-.13-.13-1.58-3.05-1.65-3.29-.77-2.83-1.04-5.46.55-7.96.33-.51.24-.79.27-.82-4.6-6.87-1.59-9.36-1.37-10.98.29-2.23-3.5-5.45-.55-10.16-.02-.36.03-.74,0-1.1-.02-.18-.39-.6-.55-1.37-1.72,1.01-1.22-.16-2.2-1.92l.55,24.3c.5,6.03,4.8,14.26,3.84,20.27-.58,3.63-1.85,12.97-9.27,12.97-3.58,0-5.7,3.46-11.12-6.8-1.36,5.28,6.15,10.28,6.11,13.91,0,.28-1.25,1.89,0,1.78.06-.1.68-.17.82-1.1h.27c.21-.07.55-1.3.55-1.37,0-.36-.78-2.54-.41-2.75,9.46.6,5.82-2.85,6.73,1.92.07.37.17.74.27,1.1.74-.93.49-1.27,1.65-2.75-.49-1,3.85-3.71,4.67-6.73.76-2.79-.36-4.64.55-4.26.02-.18-.02-.37,0-.55.09-.86.27-1.78.27-1.92.05-.77.83-3.62.82-5.22Z"/>
              <path class="cls-50" d="M141.82,325.4c-2.37.99-3.16-1.44-6.31.82,0-.36-.78-2.54-.41-2.75,9.46.6,5.82-2.85,6.73,1.92Z"/>
              <path class="cls-43" d="M142.1,350.66c-.2.09-.34.21-.55.27-6.03,1.97-8.73-1.07.55-.27Z"/>
              <path class="cls-43" d="M140.73,337.76c-1.71.83-3.67.54-5.49.27-.3-.45,4.12-.76,5.35-.82.22-.01.11.55.14.55Z"/>
              <path class="cls-43" d="M140.73,378.12c-1.32.3-2.78.21-4.12,0-.23-.86,4.35-.86,4.12,0Z"/>
              <path class="cls-27" d="M144.29,286.55l-.55-24.3c-.53-.96-2.58-4.84-3.02-5.22-1.19-1.01-3.24-.61-4.67-.27-.36.08-.46.48-.82.55-.03,0,.22.13-.55.27-.71.96-2.33,2.97-2.75,3.84-.11.24-1.64,4.68-1.65,4.94-.03,1.24,3.48,4.72-.55,9.75-.44,2.53,2.92,1.79.27,10.02,5.26-.77,1.8,4.25,1.65,5.08-.36,1.9-.37,3.86-.82,5.77-.44,1.85-1.91,4.24-2.2,6.18-.24,1.59-.11,4.4.27,5.9.2.76.06.85.82,2.47,3.56,5.17,11.63,2.98,13.45,2.7,2.53-.87,4.03-3.35,4.61-6.98.96-6.01-2-14-3.51-20.7Z"/>
            </g>
          </g>
        </g>
      </g>
      <g>
        <path class="cls-43" d="M36.99,354.85c.25-.66-.37-1.06-.89-2.67-.79-2.5-1.93-6.33-2.54-9.64-.53-2.84-1.78-11.24-2.76-18.07-.45-3.14-.03,35.15-.03,35.15,0,0,.8.93,1.17.78.79-.32,1.07-3.4,1.85-3.75,0,0,2.88-.94,3.2-1.8Z"/>
        <path class="cls-43" d="M40.55,338.93s1.26,3.44.78,5.04c-.39,1.31-1.33,5.5-3.25,5.87-1.02.19-1.22-.69-1.57-2.97-.89-5.89-5.74-29.02-5.74-29.02v-16.26s1.51-1.26,2.69-.69c1.11.54,3.86,3.1,4.53,3.72,2.14,1.98-.83,11.62-.83,11.62,0,0,1.21,13.72,1.97,17.59,1.33,6.85,1.42,5.11,1.42,5.11Z"/>
        <path class="cls-27" d="M38.38,342.84l-4.31-31.99s-1.92-.46-3.28-2.4v-6.19c1.84-.7,5.21.79,6.94,4.31.84,1.7.55,8.44-.53,10.45-.51.95,1.51,12.8,3.4,21.7,2.11,9.92-2.22,4.13-2.22,4.13Z"/>
      </g>
      <g>
        <path class="cls-27" d="M237.56,291.74c-.16.12-10.28-13.03-18.14-19.21l.85-5.69c1.9-1.19,2.53-3.05,4.2-6.4-.26-1.37.52-2.9-1.16-5.8-6.01-2.08-4.61,3.37-15.6,8.93-5.21,6.13,6.28,10.86,10.77,15.21h0s0,0,0,0c7.31,7.09,18.92,16.29,18.92,16.29,0,0,.08-1.8.16-3.33Z"/>
        <path class="cls-43" d="M226.71,256.42s-.04,0-.06,0c-.6-.72-1.41-1.12-3.35-1.79,1.68,2.9.9,4.43,1.16,5.8-2.47,4.96-2.66,6.65-8.08,7.76-1.56.32-3.12.21-4.68.54.1.08.13.24.23.31,1.36.98,3.69,1.7,5.04,2.75,7.7,6.03,20.63,20.85,20.63,20.85l-.18-3.87s-3.1-5.06-4.88-8.1c1.31-.41,4.87.54,4.87.54v-5.49s-5.77-9.97-9.06-16.22c-.71-1.36-1.08-2.2-1.51-2.82l-.15-.27Z"/>
        <path class="cls-27" d="M237.43,277.13v11.66s-7.79-11.54-10.22-15.67c-.21-10.19,10.22,4.01,10.22,4.01Z"/>
      </g>
      <g>
        <path class="cls-27" d="M56.84,286.41c-1.69,10.16-2.58,20.46-4.17,30.63-.73,4.65-5.57,17.66-.06,14.53-2.21,10.33-4.31,20.74-8.35,30.59-2.63,1.74,1.47-12.28-1.29-11.62,6.22-17.56,10.77-46.59,11.16-65.31,1.51-1.36.85,1.11,2.72,1.18Z"/>
        <g>
          <path class="cls-43" d="M58.83,362.64c-1.71-13.12,1.19-28.08,3.48-40.91-2.2.23-.78,6.49-2.87,7.9-.01-.47,2.42-12.38.3-9.94l-6.16,37.11-.81-.14c3.31-24.08,5.91-60.93,18.95-80.93-3.65,1.57-8.09,1.14-11.55-1-2.62-1.62-5.6-5.5-1.7-6.96-.03-.09,4.1-2.74,3.8-3.86-1.1-1.95-6.89,2.35-8.37,6.03-1.06,2.64.3,11.44.22,15.28,1.51-1.36.85,1.11,2.72,1.18-1.69,10.16-2.58,20.46-4.17,30.63-.73,4.65-5.57,17.66-.06,14.53-2.21,10.33-4.31,20.74-8.35,30.59-2.63,1.74,1.47-12.28-1.29-11.62-4.92,13.9-11.87,16.62-3.2,23.96,9.23,7.81,19.62,1.67,20.79-.34,2.05-3.52-1.24-7.78-1.73-11.52Z"/>
          <path class="cls-27" d="M45.94,370.34c7.38.3,9.82,5.59,4.03,5.62-7.25.04-12.16-5.95-4.03-5.62Z"/>
        </g>
        <path class="cls-27" d="M76.16,271.96c-1.87-4.04-2.29-3.05-8.69-4.31-2.07-.41-3.65-4.71-5.91-4.39-3.28.85-10.26,8.51-.68,12.73,3.72,1.64,7.19,1.31,10.84-.27-13.05,20-15.65,56.85-18.95,80.93l.81.14,6.16-37.11c2.12-2.44-.31,9.46-.3,9.94,2.08-1.42.66-7.67,2.87-7.9,2.17-12.14,4.34-24.18,8.85-35.75,1.65-4.22,6.93-9.83,5-14.01Z"/>
      </g>
      <path class="cls-43" d="M135.35,312.97c-1.71-.24-3.13.56-4.85-4.07-.54-1.46-1.22-3.94-.92-5.52l-.17-2.53c-.28,1.17-1.65,4.09-2.68,4.83.37.84,1.04,3.78.9,4.75-.02.15-.02.32-.01.48h0c-.99,3.97-16.07,9.61-25.94,5.76-7.06-2.76-3.13-4.91-3.45-6.06-.15-.55-5.52-3.95-7.89-8.17-4.35-7.76-1.81-12.54-.98-12.41.26.04,1.8,3.3,2.69,4.51.9-1.52-.44-2.18.92-2.16-1.23-1.9-3.04-3.9-.32-5.37-.5-.55-.5-1.12-.47-1.81.09-2.51-.76-6.1,1.18-8.19l-3.23-1.51c-.87,2.57-5.69,19.65-6.51,20.33-.18.15-.63-.26-.66-.58-.39,1.48-1.07,3.03-1.3,4.62.16,4.04.87,5.39,3.48,8.53-2.47,14.51-2.28,43.03,6.43,55.1,2.14,2.97,7.06,8.7,11.11,6.8,4.74-2.22,17.49-29.57,25.04-36.02.49-1.47,2.42-2.27,3.43-3.15.26-.22.61-.55.86-.79.41-.4,1.37-1.24,1.43-1.31.35-.42.28-.51.3-.54-1.26.05.06-1.5.08-1.78.18-3.48-1.75-7.29-1.75-7.29.17.22,5.21,1.7,5.93,1.81,11.33,1.61,11.8-18.51,10.93-21.55-1.83.2-1.64,14.94-13.56,13.29ZM98.57,362.98c-3.6-.76-11.41-12.45-10.45-15.84.05.66,1.19,1.78,2.08,2.84,9.39,11.22,15.47,3.13,15.34,7.67-.04,1.31-3.04,6.17-6.96,5.33ZM95.14,350.2c-2.55-1.62-6.06-6.12-7.32-8.83-.52-1.13-2.59-7.43-1.72-8.04,12.49,19.41,20.8,11.55,23.42,11.45,5.27-.21-4.05,12-14.39,5.43ZM105.24,342.11c-10.12.8-20.73-13.43-19.54-21.72l.56-.25c3.32,5.38,6.77,11.06,13.32,12.94,12.93,3.72,20.35-6.04,19.98-1.2-.27,3.51-9.41,9.85-14.32,10.24ZM120.73,323.81c-8.73,5.71-14.64,7.1-23.68,1.18-3.02-1.98-6.03-4.35-7.92-7.49-2.18-3.62-3.15-6.92-.78-10.75,3.2,6.5,8.04,9.53,14.44,12.44,1.7.11,3.2.89,4.77,1.03,12.92,1.16,19.97-6.65,13.17,3.59Z"/>
      <path class="cls-1" d="M30.79,379.99v-19.85s0-119.16,0-119.16c0-3.19,2.59-5.78,5.78-5.78h195.1c3.19,0,5.78,2.59,5.78,5.78v139.01c0,3.19-2.59,5.78-5.78,5.78H36.57c-3.19,0-5.78-2.59-5.78-5.78Z"/>
      <g>
        <path class="cls-35" d="M36.88,292.77c-2.68-1.56-26.94-13.33-28.46-13.74,6.34,7.06,12.37,6.23,9.16,11.09,2.36,1.19,5.2,2.87,7.53,3.79,3.26,1.28,16.33,5.89,18.13,2.64-2.5.13-4.24-2.56-6.35-3.79Z"/>
        <path class="cls-6" d="M34.84,264.03c.54.4,1.36.53,1.88.95l3.08-4.94c-3.44-.94-23.82-11.68-29.76-14.68,4.64,6.38,14.08,11.25,21.04,15.01,2.61,1.83,3.55,3.5,3.76,3.66Z"/>
        <path class="cls-4" d="M34.84,264.03c-5.51.72-2.05,5.25.92,7.54,2.35,1.81,4.15,3.25,7.29,3.08.2-2.62,5.97.13-6.33-9.67-.52-.42-1.34-.54-1.88-.95Z"/>
        <path class="cls-35" d="M8.42,279.03c-3.26-.86-2.57,2.65-4.7-2.37-.06,1.01-.23,1.52-.24,1.65-.01.17,1.58,2.37.7,3.3,3.45,4.59,8.65,6.12,13.4,8.52,3.22-4.87-2.81-4.03-9.16-11.09Z"/>
        <path class="cls-6" d="M35.76,271.57c-3.48.52-.79,4.67-.02,7.07,1.2,1.8,5.85,3.73,6.58,4.49,1.29-2.81.51-5.66.73-8.48-3.14.17-4.94-1.27-7.29-3.08Z"/>
        <g>
          <path class="cls-35" d="M20.53,242.08c-2.3-.76-8.76-1.73-10.6-.03-2.48,2.28-5.24,11.62-5.93,15.29-1.04,5.55-.13,11.35-.28,16.96-.03.98.02,1.95,0,2.36,2.14,5.01,1.45,1.51,4.7,2.37,1.53.4,25.78,12.18,28.46,13.74.04-1.27-.44-3.87,1.42-2.82-3.56-3.38-2.48-3.82,1.66-4.47-4.85-3-2.88-2.69-4.22-6.84-.77-2.4-3.46-6.54.02-7.07-2.97-2.29-6.43-6.82-.92-7.54-.21-.16-1.15-1.83-3.76-3.66-6.96-3.77-16.4-8.63-21.04-15.01,5.94,3,26.32,13.74,29.76,14.68.98.27,1.79-.22,1.88-.23-2.68-3.03-7.21-4.15-5.63-8.73-.56-.36-.51-1.41-.7-1.53-4.14-2.49-10.29-5.96-14.82-7.46Z"/>
          <path class="cls-6" d="M10.33,267.61c-.49-.23-.86-.62-1.29-.36-1.11,1.35,22.36,19.25,26.33,17.97.94-1.69-13.73-9.31-15.64-10.52-2.48-1.58-8.87-6.84-9.4-7.09Z"/>
          <path class="cls-6" d="M12.24,257.96c-4.72-2.35,8.07,8.53,10.81,10.16,9.68,5.76,13.03,4.87,8.71,1.44-2.02-1.61-10.59-4.94-14.58-7.34-1.14-.68-4.44-4.01-4.93-4.25Z"/>
        </g>
        <path class="cls-23" d="M36.05,251.07c-1.59,4.58,2.95,5.7,5.63,8.73,10.09-1.17-3.69-7.49-5.63-8.73Z"/>
        <path class="cls-23" d="M39.96,285.47c5.49,3.39,3.8-.85,2.36-2.35-.74-.77-5.38-2.69-6.58-4.49,1.34,4.16-.63,3.84,4.22,6.84Z"/>
        <path class="cls-23" d="M38.3,289.94c-1.86-1.04-1.38,1.55-1.42,2.82,2.11,1.22,3.85,3.92,6.35,3.79,2.24-4.05-2.45-4.26-4.93-6.61Z"/>
      </g>
    </g>
  </g>
</svg>