<?xml version="1.0" encoding="UTF-8"?>
<svg id="Layer_2" data-name="Layer 2" xmlns="http://www.w3.org/2000/svg" viewBox="0 0 286.36 485.96"><defs>
    <style>
      .cls-1 {
        fill: none;
      }

      .cls-2 {
        fill: #c45f41;
      }

      .cls-3 {
        fill: #fad6ae;
      }

      .cls-4 {
        fill: #232323;
      }

      .cls-5 {
        fill: #f9e4c0;
      }

      .cls-6 {
        fill: #3a310b;
      }

      .cls-7 {
        fill: #8e3226;
      }

      .cls-8 {
        fill: #f7b750;
      }

      .cls-9 {
        fill: #cf99ce;
      }

      .cls-10 {
        fill: #ddd6ca;
      }

      .cls-11 {
        fill: #281a26;
      }

      .cls-12 {
        fill: #f0935d;
      }

      .cls-13 {
        fill: #40c1b7;
      }

      .cls-14 {
        fill: #bdeded;
      }

      .cls-15 {
        fill: #c12e4b;
      }

      .cls-16 {
        fill: #ddcfe4;
      }

      .cls-17 {
        fill: #f8ae89;
      }

      .cls-18 {
        fill: #dcbdd8;
      }

      .cls-19 {
        fill: #f2c18a;
      }

      .cls-20 {
        fill: #fbf4d7;
      }

      .cls-21 {
        fill: #a66bb7;
      }

      .cls-22 {
        fill: #fbfbfc;
      }

      .cls-23 {
        fill: #cc5637;
      }

      .cls-24 {
        fill: #c386c3;
      }

      .cls-25 {
        fill: #fcf8e9;
      }

      .cls-26 {
        opacity: .2;
      }

      .cls-26, .cls-27 {
        fill: #7aebe9;
      }

      .cls-28 {
        fill: #ac4a30;
      }

      .cls-29 {
        fill: #c9892d;
      }

      .cls-30 {
        fill: #e6794d;
      }

      .cls-31 {
        fill: #2a8780;
      }

      .cls-32 {
        fill: #c392c2;
      }

      .cls-33 {
        fill: #661b6a;
      }

      .cls-34 {
        fill: #f4e2d5;
      }

      .cls-35 {
        fill: #d7643c;
      }

      .cls-36 {
        fill: #95409b;
      }

      .cls-37 {
        fill: #353535;
      }

      .cls-38 {
        fill: #f9e5a9;
      }

      .cls-39 {
        fill: #309c97;
      }

      .cls-40 {
        fill: #d5955b;
      }

      .cls-41 {
        fill: #320532;
      }

      .cls-42 {
        fill: #1d121b;
      }
    </style>
  </defs>
  <g id="LIT">
    <g>
      <g>
        <g>
          <path class="cls-23" d="M163.1,194.37c-9.09,11.59-21.81,20.53-36,24.5-2.36-3.08-5.37-5.97-6-10-.45-2.9.19-7.89.5-11,.07-.73.15-4.25.5-4.86,12.44,2.19,27.65-1.76,38.5-7.64,1.21,2.88,1.66,6.03,2.5,9Z"/>
          <path class="cls-30" d="M165.1,199.87c.39,2.05.72,4.18,1,6.25-7.26,8.67-18.31,15.14-29,18.75-2.48.84-1.89.97-2,1-.74.17-.36.73-2.5-.5-.28-.16-1.31-.83-1.5-1-.26-.22-3.39-4.71-4-5.5,14.19-3.97,26.91-12.91,36-24.5.67,2.38,1.94,5.17,2,5.5Z"/>
        </g>
        <g>
          <path class="cls-12" d="M193.87,96.87s-6.44-19.74-10.08-25.56c-4.81-7.69-19.05-20.76-27.72-23.4-8.71-2.65-26.18-2.64-36.4-.73,0,0-32.82,1.73-41.14,39.7-.94,4.3,3.47,25.35-1.5,42.9-.09.32-.14.65-.14.98v7.55c2.59,9.21,3.89,21.19,12.53,31.65,7.61,9.21,31.57,23.86,35.88,24.27,2.26.08,9.06-1.41,19.05-5.59,9.16-3.84,22.2-12.35,27.89-20.52,2.79-4.01,12.29-22.94,10.07-25.68,7.3-3.43,16.67-4.19,16.67-15.97,0-5.05-2.94-19.94-5.1-29.59ZM93.49,145.06c1.03.09,2.08.13,3.16.11-1.03.04-2.09,0-3.16-.11ZM150.29,142.04c.99.49,2.08.94,3.27,1.35-1.16-.38-2.25-.83-3.27-1.35Z"/>
          <path class="cls-35" d="M198.76,126.28c.06-.09,1.34-1.31-1.39-12.61-.8-3.84-2.6-12.74-2.6-12.74,0,0-.45-.64-1.11-1.37-.54-.59-1.23-1.23-1.8-1.71-7.14-5.96-20.51-5.64-24.33-5.66-8.48-.09-16.76,1.17-20.81,6.02-4.18,5.01-3.97,13.78-2.53,24.56.31,1.3,1.12,4,1.08,3.36-.1-1.67,1.06-6.72,2.37-9.57,2.25-4.92,4.62-8.13,10.93-10.58,15.64-6.05,31.83,20.59,32.55,21.79-1.8,6.6-5.1,12.32-11.07,14.7,3.89.67-5.67,21.3-8.64,25.56-5.68,8.17-18.56,15.97-27.72,19.8-9.98,4.18-16.68,6.28-18.99,6.23.17.06.07.12.64.16,15.33,1.15,24.21-2.52,37.43-10,19.85-11.23,20.3-13.57,30.24-32.4,1.1-2.09,1.09-4.53,2.88-6.84.38-.49,9.73-1.54.72-7.92,13.28-19.13,20.35-3.89,12.96,6.48-6.8,9.55-18.62-4.15-10.8,11.88,25.69,5.04,20.19-57.31,0-29.16Z"/>
          <path class="cls-28" d="M198.76,155.45c-2.56-.5-3.24-2.94-5.76-3.6,1.1-2.09,1.09-4.53,2.88-6.84.38-.49,9.73-1.54.72-7.92,13.28-19.13,20.35-3.89,12.96,6.48-6.8,9.55-18.62-4.15-10.8,11.88Z"/>
        </g>
        <path class="cls-17" d="M77.18,137.04c3.5,16.27,5.03,23.58,11.87,32.34,4.4,5.63,24.09,20.16,35.68,24.72-5.49-.09-34.05-16.97-40.23-24.75-6.68-8.4-8.31-18.44-8.47-25.05-.04-1.66.29-4.97.48-6.62.08-.68.39-2.73.39-2.73,0,0,.18,1.59.29,2.09Z"/>
        <path class="cls-30" d="M86.42,100c-1.88.06,1.36-4.44,2.23-6.28,1.06-2.92,1.12-6.36,2-9.25,6.04-19.79,23.82-27.78,10.5-24.25-10.51,2.79-20.82,35.08-21.94,44.67,0,.01.18,6.15.18,6.15,2.51-3.22,3.62-4.22,7.97-6.63,8.46-4.67,18.39-1.27,22.4,9.26.04.12,2.35,10.41,2.39,11.24.02.42.04-9.38.19-10.88-.96-13.22-15.39-14.39-25.92-14.04Z"/>
        <g>
          <path class="cls-30" d="M76.91,135.33c-10.31,3.67-5.4,11.06-2.85,18.16-12.38-9.8-7.4-25.37-2.57-25.81.6-.05,2.57-.04,3.82.89,1.15.86,1.63,1.73,1.63,1.73,0,0,0,3.37-.04,5.02Z"/>
          <path class="cls-35" d="M74.78,130.45c.86-.04,2.13,1.32,2.1,4.07-.03,2.31-.95,7.35-.78,11.64,0,0,.48,5.68,1.6,9.55-1.36-.54-2.49-1.3-3.64-2.21-2.55-7.1-9.59-19.37.72-23.04Z"/>
        </g>
        <g>
          <path class="cls-11" d="M269.98,148.94c-.14-.13-.31-.32-.48-.48-.31-18.33-12.21-12.48-19.34-17.19-4.6-3.04-7.83-19.38,14.08-18.38,5.56,7.95-13.96,6.35-11.94,10.5.48.99,15.1,6.07,17.19,8.59,3,3.63,2.98,13.91.48,16.95Z"/>
          <path class="cls-42" d="M23.16,132.71c-.77,1.33-4.97,3.92-3.34,11.94-5.77-2.09-14.97-2.67-13.84-10.74,1.81-13.02,15.73-1.17,17.19-1.19Z"/>
          <path class="cls-42" d="M35.57,115.04q.48,4.42.95,8.83-6.68,4.42-13.37,8.83c.54-.92,2.18-2.06,2.39-2.63,2-5.39-4.36-9.36-3.82-14.8q6.92-.12,13.84-.24Z"/>
          <path class="cls-42" d="M277.14,80.19c-4.37-2.21-5.02-1.55-9.55-2.63,2.76-7.37,4.11-10.61,0-17.43-.52-.4-.64-.5,0,0-3.84-6.37-10.77-9.34-17.9-6.21-2.75-.54.94-5.86-9.79-11.7,8.37-15.47-11.31-28.07-21.24-13.61C201.05,8.83,176.41.05,151.82,13.35c-16.73-18.96-48.35-16.68-65.64.24-1.68,1.64.06,3.99-12.65,9.31-1.97.09-9.93-10.8-21.24-1.43,0,0,0,0,0,0-2.89,2.39-5.59,6.4-5.73,10.26-.03.76,1.65,8.46,1.91,8.83-1.18.2-2.31.87-3.34,1.43-7.68,4.19-5.16,3.47-8.83,10.98-18.35-1.5-25.18,16.33-12.17,28.88-2.57.83-5.11,1.11-7.64,2.15-1.99.82-3.19,1.37-4.77,2.86-9.07,8.54-4.83,20.54,5.73,25.06.64,1.79-3.89,4.36,0,13.37-18.05-2.07-24.49,18.34-7.64,26.26-3.6,8.83,2.84,20.44,12.65,16.95,7.94,7.76-1.98,7.84-.24,18.86,1.36,8.6,13.51,14.07,20.77,8.83,10.25,4.27,5.3,4.94,8.83,9.79,4.51,6.19,15.68,5.61,20.77.24,1.38.31.67,13.47,19.1,10.98,4.44-7.84,5.94-2.38,12.89-5.73,5.18-2.5,5.11-9.42,10.26-4.77,2.74-3.89,3.15-8.08,6.93-11.28.07-.7.14-1.4.21-1.99-6.38-2.21-25.4-13.42-31.26-18.43-9.34-7.98-13.33-20.37-13.01-19.3-1.36-.54-2.49-1.3-3.64-2.21-12.38-9.8-7.4-25.37-2.57-25.81.6-.05,2.57-.04,3.82.89,1.13.85,1.61,1.7,1.63,1.73.9-3.64,1.92-8.38,2.1-11.67.91-5.89.92-15.31.93-15.49.51-7.83,10.9-38.47,20.04-42.53,5.38-2.39,10.25,1.5,16.95-8.12,21.88,12.34,30.33-2.24,31.99-2.86,6.58-2.47,8.32,5.19,8.83,5.49,13.69,7.91,27,21.42,30.54,26.98.47.73,2.46,5.84,3.64,9.46,3.7,11.31,6.79,34.73,6.79,34.73,0,0,3.9-5.64,7.37-6.78-.07-.05,3.66-1.35,6.46,1.78,5.22,5.85,4.58,25.77-3.74,31.97-4.96,3.7-10.25,2.94-13.43,0-1.22-1.12-2.42-1.4-2.42-1.4,0,0-.35.73-1,1.91-1.55,2.8-5.42,11.17-9.33,15.71-7.98,9.27-15.7,11.85-22.05,15.97.87,3.22,1.58,5.68,2.38,8.52.64,2.27,1.85,4.93,1.91,5.25,5.45.54,7.16,3.77,10.08,5.58.54.34,3.43.86,4.54.95,6.7,13.18,24.45,10.16,28.64-3.82,9.21,9.72,23.29,11.63,27.21-3.82,7.01.07,11.98.74,16.71-5.25,17.53,1.89,24.17-15.7,11.7-27.45q2.98-3.94,5.97-7.88c5.9,1.47,11.45.11,14.56-5.25,3.95-6.8,2.04-13.9-4.3-18.38,1.49-16.72-7.49-16.8-8.12-17.66-2.99-4.15,5.51-3.75,10.03-9.07,6.81-8.02,4.79-22.13-4.77-26.97"/>
          <path class="cls-11" d="M29.37,152.28c-.27.1-1.5,1.75-5.01,2.86-.56-.14-4.42-9.94-4.54-10.5-1.63-8.01,2.57-10.6,3.34-11.94q6.68-4.42,13.37-8.83-.48-4.42-.95-8.83c.1-2.73-8.04-6.86-13.37-10.5-2.1-4.42-1.05-9.85,1.91-13.84,8.45-3.78,19.02-1.63,19.1-7.88,0-.5-2.12-5.75-2.39-9.79-.72-10.74,14.06-12.77,15.28-14.08.5-.54,1.74-5.63,1.91-6.92,1.36-2.12,3.22-3.78,4.77-5.73,2.19-2.75,3.56-.4,1.91-8.83,15.43-17.14,14.53-10.69,36.04-7.88,3.21-.75,3.19-14.58,10.03-15.75,9.57-1.64,12.02,10.31,8.12,13.37-3.67,2.88-3.2-2.58-6.68-7.64-3.78,22.62-17.69,15.12-34.85,12.89-8.46,5.82-4.47,10.16-5.49,13.13-.28.81-7.63,7.08-8.12,8.12-3,6.43,5.2,5.22-16.71,16.71-2.36,5.97,9.05,16.27-6.92,23.15-4.57,1.97-16.64,2.16-13.37,6.21,2.66,3.28,15.27,6.03,15.99,17.43,1.43,22.72-26.97,10.24-13.37,35.09Z"/>
          <g>
            <g>
              <path class="cls-11" d="M164.23,15.26c12.02-1.13,20.75,19.49,43.44,11.94,11.03,14.64,20.32,10.14,15.52,27.93,2.48,1.22,11.9,9.52,12.65,9.79,5.27,1.89,20.78-2.81,15.99,16.47,4.52,1.56,20.47,7.85,22.44,11.46,2.26,4.16.7,12.42-4.06,14.08-11.08,3.87-.82-9.16-1.19-10.74-11.93-10.93-28.55-.8-21.96-23.39q-6.33-.6-12.65-1.19c-8.03-10.55-12.63-7.74-15.52-11.22-7.65-9.25,11.94-21.6-18.86-17.43q-1.19-4.06-2.39-8.12c-11.72.38-21.94-6.33-31.03-12.89-4.05-.29-16.38,7.73-13.61-.72.59-1.81,9.15-5.77,11.22-5.97Z"/>
              <path class="cls-41" d="M209.11,32.93c2.95-.22-2.46,2.06-3.34,2.39-11.48,4.18-3.32-1.9,3.34-2.39Z"/>
            </g>
            <path class="cls-1" d="M110.76,13.83c-6.84,1.17-6.82,15.01-10.03,15.75-21.51-2.82-20.61-9.27-36.04,7.88,1.65,8.43.28,6.08-1.91,8.83-1.55,1.95-3.41,3.61-4.77,5.73h0c-.17,1.29-1.41,6.38-1.91,6.92-1.22,1.32-16,3.34-15.28,14.08.27,4.04,2.39,9.28,2.39,9.79-.07,6.25-10.64,4.1-19.1,7.88-2.96,3.99-4.01,9.42-1.91,13.84,5.33,3.64,13.47,7.78,13.37,10.5q-6.92.12-13.84.24c-.54,5.44,5.82,9.41,3.82,14.8-.21.57-1.85,1.7-2.39,2.63-1.46.02-15.38-11.82-17.19,1.19-1.12,8.08,8.08,8.65,13.84,10.74.11.56,3.98,10.36,4.54,10.5,3.52-1.11,4.74-2.77,5.01-2.86-13.6-24.85,14.8-12.37,13.37-35.09-.72-11.4-13.34-14.14-15.99-17.43-3.27-4.05,8.8-4.24,13.37-6.21,15.97-6.89,4.57-17.19,6.92-23.15,21.91-11.49,13.71-10.28,16.71-16.71.48-1.03,7.84-7.31,8.12-8.12,1.03-2.97-2.97-7.31,5.49-13.13,17.16,2.23,31.07,9.73,34.85-12.89,3.48,5.05,3.01,10.51,6.68,7.64,3.9-3.06,1.45-15.01-8.12-13.37Z"/>
            <path class="cls-1" d="M252.32,123.4c-2.02-4.15,17.5-2.56,11.94-10.5-21.91-.99-18.69,15.34-14.08,18.38,7.12,4.71,19.02-1.14,19.34,17.19.17.16.33.34.48.48,2.5-3.03,2.52-13.32-.48-16.95-2.09-2.52-16.71-7.61-17.19-8.59Z"/>
          </g>
        </g>
        <g>
          <path class="cls-25" d="M111.24,121.71c-.5-1.47-1.36-5.17-5.73-9.43-2.82-2.75-5.81-4.38-7.96-4.74-1.44-.2-2.74-.16-3.92.02-2.25-.1-5.68,1.45-7.92,3.23-5.87,4.68-4.57,12.46,1.08,15.84.25.15.53.29.82.43,3.24,1.76,5.75,1.8,9.2,1.91,0,0,6.24.41,14.03-2.74.47-.19,1.41-.71,1.41-.71,0,0-.22-2.03-1.01-3.82Z"/>
          <path d="M79.85,107.58c2.64,2.22,6.39-6.16,17.05-5.19,8.72.79,15.56,12.06,15.24,22.28-1.16-2.08-2.23-5.18-2.57-5.54-.05-.06-.18.02-1.29-.86,1.16-4.03-6.96-10.25-10.73-10.73-6.55-.85-10.77,2.43-13.74,7.73-.14.25-.58,1.17-.86,2.15-1.13,3.97,1.02,7.74,4.65,9.65-.74,0-3.81-1.99-4.23-2.35-4.02-3.43-7.61-12.5-7.56-18.15-.1-1.1.31-4.58.83-3.19.99,2.65,2.45,3.56,3.2,4.2Z"/>
          <path d="M96.57,120.44c1.9-.49,2.53-3.14,2.21-4.87,11.2-1.45,3.91,16.24-2.21,4.87Z"/>
          <path class="cls-6" d="M109.59,120.1c0-.2-.04-.38-.05-.58,0-.14,0-.27,0-.41,0,0-.02-.02-.04-.02-.84-6.6-8.39-11.1-11.98-11.57-.36,1.44-2.68,2.49-3.43,3.86-.15.27-.81,2.12,0,2.15,2.03-.08,2.65.33,3.43.43.07.43,1.27,1.61,1.29,1.72,10.87-1.4,3.79,15.75-2.15,4.72-2.27.58-4.3-1.57-4.72-.64.81,3.73,1.27,6.93,4.72,8.8,1.25.67,3.25.49,7.72-.31,3.74-.67,4.99-4.57,5.14-8.2.02.01.05.04.06.05Z"/>
          <path class="cls-25" d="M161.38,110.69c.9-.18,3.78-.53,5.05-.47,2.94.16,5.9,2.18,5.9,2.18,7.28,5.07,10.16,9.31,3.22,16.31-.69.31-2.85,1.25-3.01,1.29-5.74,1.41-21.22,1.35-27.05-2-.02,0-.03-.02-.05-.03-.3-.17-.26-2.91.05-3.98,3.45-6.78,7.95-12.16,15.89-13.31Z"/>
          <g>
            <path d="M181.56,114.56c2.17,1.76,3.7.7,5.24-1.17.9-.99.81-1.56,1.05-1.23.27.39.27,1.84-.33,3.75-1.37,4.31-5.27,9.83-11.96,12.82,6.94-7.01,4.06-11.25-3.22-16.31,0,0-1.92-1.42-5.58-2.15-1.82-.36-3.59.17-5.37.43-7.94,1.15-12.44,6.53-15.89,13.31,1.51-13.76,12.07-22.65,26.4-17.6,5.73,2.02,8.22,6.99,9.66,8.16Z"/>
            <path class="cls-6" d="M174.69,118.85c-.19-2.4-3.14-7.78-7.94-8.59-1.83-.31-3.59.17-5.37.43-4.27,6.01-2.22,3.07,1.5,4.29.41.13,1.13.82,1.5,1.29.24.3,1.52.19,3.86.86,4.97,5.8-3.02,11.68-6.44,4.72-1.91.28-4.19-1.74-4.29-1.5.28,14.31,18.69,12.68,17.17-1.5Z"/>
            <path d="M168.25,117.13c4.97,5.8-3.02,11.68-6.44,4.72,2.32-.34,3.84-3.51,2.58-5.58,1.66-.19,2.83-.01,3.86.86Z"/>
          </g>
        </g>
        <path class="cls-2" d="M205.72,150.67l1,2c1,2-3,3-3,3-1.16.37-2,1-3,0l1-5c1-2,3.66-.46,4,0Z"/>
        <g>
          <path class="cls-14" d="M206.72,158.67c0-2,0-5-1-6s-1.79-2.03-3-1c-.85.72-1.85,4.6-2,7-.05.8.36,3.41,1.05,3.95,1.97,1.52,3.28,1.28,3.96.21,1.99-3.16.99-2.77.99-4.16Z"/>
          <path class="cls-27" d="M207.27,157.87c-.22-2.79-.45-4.83-1.55-5.2-3-1-1,3-4,5-1.18.78-.56,3.32,0,4,3.39,4.13,5.76-1.04,5.55-3.8Z"/>
        </g>
        <g>
          <path d="M78.46,93.49c-.32-.04-.57-.26-.4-.54,1.23-1.98,4.66-7.32,6.9-8.78,2.26-1.48,9.41-4.96,14.55-3.99,4.03.76,4.14,4.49,4.17,6.11,0,.03-.02.06-.05.08-2.65,1.53-4.4.39-8.93.03-1.75-.14-3.24-.01-4.87.46-2.57.74-4.87,2.4-7.04,4.87-.66.75-2.7,1.96-4.34,1.76Z"/>
          <path d="M178.6,86.32c.11.55,2.3,3.22,2.88,5.4l-1.08,1.08c-14.83-10.29-26.1-.3-29.16-7.2,2.55-2.21,3.17-11.87,27.36.72Z"/>
        </g>
        <g>
          <path class="cls-23" d="M137.56,143.02c1.79,8-20.24,11.31-20.88,2.16,5.6,5.57,14.97,2.25,20.88-2.16Z"/>
          <g>
            <path class="cls-15" d="M155.93,149.5c2.64.26,5.03,1.58,6.12,3.96-8.51.6-12.2,25.11-29.16,27.72-25.18,3.88-14.91-25.59-27.72-19.8.7-9.31,39.85-.3,54.01-8.64l-3.24-3.24Z"/>
            <path class="cls-22" d="M150.89,158.15c4.44-.62-4.85,8.34-6.48,9.36-9.07,5.7-30.73,7.42-30.24-4.32,15.16,3.57,34.64-4.75,36.73-5.04Z"/>
          </g>
          <path class="cls-17" d="M121.36,139.42c2.21,1.67,5.3,2.24,5.4,2.52,1.58,4.52-6.69,4.93-5.4-2.52Z"/>
        </g>
        <g>
          <path class="cls-26" d="M117.87,112.71c0,15.74-15.3,27-28,27s-19-10.26-19-26,9.3-22,22-22,25,5.26,25,21Z"/>
          <path class="cls-26" d="M196.87,113.9c0,22.81-17.9,29.81-32.77,29.81s-22.23-11.33-22.23-28.71c0-20.29,10.88-24.29,25.74-24.29,19.26,0,29.26,5.81,29.26,23.19Z"/>
          <g>
            <path d="M201.87,122.71c4.16-9.68-4.33-20.72-5.73-23.8-2.17-4.77-6.05-8.24-9.27-9.2-2-.6-6-1-13-1-6,0-29-3-34.5,13.71-7.21-3.06-12.58-2.59-20-1-1.5-2.71-5.52-11.66-20.5-12.71-1.93-.13-9.16-.71-16,1-8,2-7.86,2.86-10,5s-4.6,9.78-5,18c-.35,7.04,2,17,3,19,.63,1.26,3,6,5.75,7.46,8.64,4.97,15.01,4.96,21.25,4.54,15-1,26.35-18.47,26-32.79,21.23-1.93,7.52,3.43,18.25,22.75,2.56,4.62,9.75,11.04,16.75,13.04,4.9,1.4,14.82,1.78,23-2,13-6,17.7-16.64,20-22ZM115.62,115.42c-.26,7.54-3.33,13.47-8.14,17.34-6.18,4.97-15.23,6.52-24.86,3.66-5.75-1.71-7.78-6.29-8.75-8.71-4-10,0-24,1-27,1.92-5.77,10.39-7.67,16-8,8.61-.51,17.34.25,21.75,8.71,2.09,4,3.16,9.45,3,14ZM148.62,133.67c-3.52-4.73-5.36-13.94-5.5-19.75-.37-15.93,5.18-19.09,20-20.5,5.57-.53,11.46-.87,17,0,.81.13,2.43.35,3,.5,2.12.56,4.25,1.34,5.79,2.84.47.46,4.36,5.98,5.96,16.95.49,3.39,0,8-1.72,12.65-.01.02-.02.03-.04.05-8.92,20.35-36.11,18.5-44.5,7.25Z"/>
            <path class="cls-37" d="M215.59,107.93c-.51-.71-12.85-7.97-15.03-8.89-2.45-1.04-4.78-2.3-5.2-1.97.57,2.38,7.75,12.97,7.56,18.78-.03.91,1.94,1.11,1.94,1.11l.1-.78c9.11.38,12.15-1.51,15.04.62-.21-1.64-3.59-7.73-4.4-8.87Z"/>
            <g>
              <path class="cls-4" d="M69.18,103.44q-5,2.25-10,4.5c-.53-1.11-2.64-9.66-1.25-10.5,22.79-3.44,17.71-10.26,11.25,6Z"/>
              <path d="M69.18,103.44q-.62,5-1.25,10c-3.24-2.09-6.93-1.68-8.75-5.5q5-2.25,10-4.5Z"/>
            </g>
            <path d="M214.1,123.36c.37-.18,4.84-5.6,5.88-6.56-2.73-2.01-5.98-.95-13.59-.61-9.56-.34-10.25-3.54-10.25-3.54l.63,3.1c-.08.54.19,2.49.46,4.47l4.41,2.9c3.7-3.78,5.28-4.79,9.33-3.29,2.07,1.2,2.74,2.94,3.13,3.54Z"/>
          </g>
        </g>
      </g>
      <g>
        <g>
          <path class="cls-8" d="M166.82,467.54c-17.25,1.58-91.19-26.61-87.03-9.82.25,1.01,4.19,17.73,8,21,7,6,43,8,67,7,14.33,0,54.02-11.14,55.03-16.18.97-4.82,1-6,2-12-14.1,5.2-30.06,8.63-45,10Z"/>
          <path class="cls-29" d="M140.12,485.96l-1.33-10.67s2.67,10.67,4,10.67h-2.67Z"/>
        </g>
        <path class="cls-30" d="M136.23,224.46c.71,3.53,2.55,6.76,4.23,9.87.53,2.76-4.38.74-7.75,1.41-6.76,1.35-7.99,7.91-3.52-3.52,1.12-2.87,2.56-5.54,3.52-8.46,3.02,1.74,2.48.94,3.52.7Z"/>
        <g>
          <path class="cls-36" d="M204.91,318.62s2.01-1.33,2-1c.79.22,24.08-24.13,27-32,.78-2.09,5-16,3.64-22.19-2.22-8.65-5.33-16.92-11.1-23.73-11.06-13.05-23.06-9.92-32-12.75-2.06,4.39-4.56,8.65-7.5,12.5-1.79,6.55-15.09,23.07-21.75,23.5-9.38.61-14.95-13.49-21.25-17.5.77,7.01-1.52,13.2-8,16.75.27,1.15,3.33-2.49,4,2.75,4.99-2.53-2.85,6.03-6.25,6.5-7.5,1.03-10.54-8.74-11.25-14.75-.29-2.47-.34-9.47,1-8.75-.4-5.91,2.16-10.9,5-16-.53.21.22-1.48-3,1.75-3.25,3.26-20.49,27.48-22.25,27.75-.29.04-5.13-2.48-5.25-2.75-1.4-3.12-.03-30.67-2.75-32.25-.73-.42-3.62.87-3.25-1-7.49.57-11.19.92-18.25,5-10.18,5.89-20.87,23.02-18.25,28.25,3.46,6.92,12.46,17.92,19.46,23.92,1.88,1.61,3.84-.93,4.94-2.87-3.33,7.68-9.15,19.78-7.94,29.87,1.37,11.43,6.94,17.95,11,21,2.73,2.05,9,4,9,4,0,0,5.05,5.22-1,15-2.44,3.95-9.95,14.22-18.96,37.33-4.86,19.13-8.8,38.44-11.5,58-.3,2.14-.09,4.45-1,6.5,14.74,9.85,38.13,13.18,55.5,15,17.19,1.8,34.75,2.58,52,1,14.94-1.36,30.9-4.79,45-10,4.67-1.72,10.18-4.03,14.5-6.5-2.17-15.61-5.7-30.88-10-46-3.23-11.34-6.45-22.5-12-33-7.44-5.87-5.13-31.09-3.95-43.02l4.42-10.3Z"/>
          <path class="cls-33" d="M200.91,322.62c.04.06.06.13.09.21-.01-.17-.04-.24-.09-.21Z"/>
          <path class="cls-33" d="M201,322.83c.02.22,0,.59-.03,1.11.11-.46.12-.84.03-1.11Z"/>
        </g>
        <path class="cls-33" d="M204.32,370.04c-4.87-6.97-4.71-26.63-3.53-39.53,2.34-3.03,4.3-6.79,5.03-10.22.97-3.58.43-15.82-2.75-24.75-1.58.23,4.64,12.67-.78,23.88-2.11,2.97-4.93,6.89-9.43,9.94-2.21,1.34-4.8,2.56-7.86,3.61-5.94,1.64-13.75,1.73-24.21-1.26.64.18,35.3,40.12,43,56,7.48,15.45,16.24,62.78,15,67,.46-.1,6.78-3.39,10-5,2-1-2.74-48.58-24.47-79.67Z"/>
        <path class="cls-33" d="M97.82,336.04c5,0,10-3,10-3-6,3-16.04,1.67-16.04,1.67,0,0,1.12,1.84,1,5-.12,3.34-1.54,8.12-3.96,12.33-4,6.95-7.14,12.93-9.58,17.88-2.76,4.78-4.86,10.17-6.12,13.6-.92,2.33-1.31,3.52-1.31,3.52-4.86,19.13-9.34,45.12-12.04,64.67,6.62,4.02,7,4,7,4,0,0-3.25-21.94,2.02-42.41,7.46-28.98,19.64-41.24,22.98-46.59,15-24,6.04-30.67,6.04-30.67Z"/>
        <path class="cls-33" d="M66.91,274.62s7,3,13-1c6.13-4.09-3,13-3,13,0,0-6.11-5.26-10-12Z"/>
        <path class="cls-16" d="M132.87,291.33c-3.13,1.02-3.92-4.65-1-5,2.63-.31,3.1,4.32,1,5"/>
        <path class="cls-16" d="M132.87,311.33c-3.13,1.02-3.92-4.65-1-5,2.63-.31,3.1,4.32,1,5"/>
        <g>
          <path class="cls-33" d="M132.95,224.95c-.68,2.07-1.7,3.96-2.5,6-1.83-.3-1.9.96-2,1-.53.21.22-1.48-3,1.75-3.25,3.26-20.49,27.48-22.25,27.75-.29.04-5.13-2.48-5.25-2.75-1.4-3.12-.03-30.67-2.75-32.25-.73-.42-3.62.87-3.25-1,2.03-.15,3.94.87,6,.5-.58,8.83-.24,18.16,6.75,24.5.41,0,3.62-3.92,4.25-4.5,6.77-6.24,12.8-13.26,19.5-19.5.93-.87,2.32-1.39,3-2.5.19.17,1.22.84,1.5,1Z"/>
          <path class="cls-33" d="M123.45,247.95c.06.91-.04,1.84,0,2.75.18.49,1.14.92,1.5,1.25-4.75,6.42,6.79,10.22,2.75,9.5-.51-.09-1.95-1.38-2.5-2,2.35,8.5,7.18,9.34,14.75,5.5,4.99-2.53-2.85,6.03-6.25,6.5-7.5,1.03-10.54-8.74-11.25-14.75-.29-2.47-.34-9.47,1-8.75Z"/>
          <g>
            <path class="cls-24" d="M175.96,208.96c2.5,7.39,10.09,15.33,18.49,17.99-2.06,4.39-4.56,8.65-7.5,12.5-3.73,4.89-16.44,18.28-22.75,17.5-5.61-.69-23.98-26.03-26.75-32.5,10.69-3.61,21.25-9.81,28.51-18.49-.28-2.07-1.61-5.95-2-8,5.71.57,8.95,9.11,12,11Z"/>
            <path class="cls-33" d="M137.45,224.45c2.77,6.47,21.14,31.81,26.75,32.5,6.31.78,19.02-12.61,22.75-17.5-1.79,6.55-15.09,23.07-21.75,23.5-9.38.61-16.73-11.55-21.25-17.5-1.99-2.61-2.26-3.47-2.99-5.61-.43-1.28-.48-1.79-1-3-1.09-2.53-1.4-4.18-1.51-4.39-1.19-2.2-2.49-4.5-3-7,.11-.03-.48-.16,2-1Z"/>
            <g>
              <path class="cls-21" d="M121.45,208.45c-1.42-.22-1.75,4.51-2.5,7-2.73,9.06-10.13,26.79-10.5,28.25-.16.62-.16,2.32.5,2.25-.63.58-3.84,4.5-4.25,4.5-6.99-6.34-7.33-15.67-6.75-24.5,6.55-3.95,11.23-9.94,15.5-16,2.87-4.07,4.54-9.14,8.5-12.5-.31,3.11-.95,8.1-.5,11Z"/>
              <path class="cls-24" d="M128.45,226.45c-6.7,6.24-12.73,13.26-19.5,19.5-.66.07-.66-1.63-.5-2.25.37-1.46,7.77-19.18,10.5-28.25q4.75,5.5,9.5,11Z"/>
              <path class="cls-9" d="M121.45,208.45c.63,4.03,3.64,6.92,6,10,.61.79,3.74,5.28,4,5.5-.68,1.11-2.07,1.63-3,2.5q-4.75-5.5-9.5-11c.75-2.49,1.08-7.22,2.5-7Z"/>
            </g>
          </g>
        </g>
        <g>
          <path class="cls-18" d="M143.96,245.83c.77,7.01-1.66,12.91-8.14,16.46.27,1.15,3.33-2.49,4,2.75-7.57,3.84-12.4,3-14.75-5.5.55.62,1.99,1.91,2.5,2,4.04.72-7.5-3.08-2.75-9.5,1.1.99,9.96,4.57,10.75,4,.98-.71-.66-3.37-.25-4.75.3-1.02,3.05-1.61,4-3,1.53-2.24.81-6.54,3-8.25.72,2.14,1.37,3.34,1.64,5.79Z"/>
          <path class="cls-18" d="M130.32,231.04c-3.17,8.11-2.29,3.46,2.5,2.5-5.47,4.24-3.9,6.84-3.25,13,5.58-11.84,6.28,4.99,7.25-7.25l4-2.75c.52,1.21,1.07,2.22,1.5,3.5-2.19,1.71-1.47,6.01-3,8.25-.95,1.39-3.7,1.98-4,3-.41,1.37,1.23,4.04.25,4.75-.79.57-9.65-3.01-10.75-4-.36-.33-1.32-.76-1.5-1.25-.04-.91.06-1.84,0-2.75-.4-5.91,2.16-10.9,5-16,.1-.04.17-1.3,2-1Z"/>
          <path class="cls-32" d="M140.82,236.54l-4,2.75c-.97,12.24-1.67-4.59-7.25,7.25-.65-6.16-2.22-8.75,3.25-13,2.39-.48,5.88.95,5.5-1,.11.21,1.41,1.47,2.5,4Z"/>
        </g>
        <path class="cls-33" d="M71.75,396.13s30.2,12.83,35.2,14.83,17,16,41,5,62.71-23.22,62.71-23.22l-6.35-22.7-125.36-.08-7.2,26.17Z"/>
      </g>
      <path class="cls-34" d="M9.16,257.99s5.21-13.92,12.23-15.82c0,0,71.01,29.21,110.57,59.79h-11s-6-15-111.8-43.97Z"/>
      <path class="cls-34" d="M265.39,264.13s-5.17-11.22-12.19-12.73c0,0-85.24,25.57-118.24,50.57h9l3-1s15-11,48-19c18.57-4.5,36-10,70.43-17.83Z"/>
      <g>
        <g>
          <g>
            <path class="cls-19" d="M211.04,265.76c4.71,3.66,1.75,4.16,3.49,7.47,4.6-1.08,17.65-6.47,29.43-10.27,9.84-3.17,19.49-4.85,16.03-5.4-10.03-1.6-45.23,12.43-46.03,11.4-.62-.8,32-14,39.05-16.59.98-.36-.51-.79-1.3-.82-2.15-.08-35.51,12.36-40.68,14.22Z"/>
            <path class="cls-40" d="M136.96,300.96c4.48-2.31,12.54-6.45,17.02-8.77,14.34-7.44,24.89-10.7,40.43-14.75-2.57-1.68-3.41-1.1-2.52-4.28-9.34,3.66-18.97,6.15-27.94,10.86-8.15,4.28-19.08,12.26-26.98,16.94Z"/>
            <path class="cls-19" d="M191.88,273.16c-.89,3.18-.04,2.6,2.52,4.28,6.61-1.72,13.48-2.66,20.13-4.22-1.75-3.3,1.21-3.81-3.49-7.47-6.49,2.33-12.75,4.89-19.16,7.4Z"/>
          </g>
          <path class="cls-19" d="M44.68,260.88c3.49,1.43,11.62,4.91,10.89,6.61,10.19,2.86,20.25,5.97,30.32,9.22-.07-.03.23-.86-.24-1.06-1.64-.71-7.35-1.99-9.93-2.89.98-2.07,2.45-2.91.93-5.24-6.38-2.81-52.07-21.6-55.02-21.46-1.12.05-3.16,1.98-1.65,2.59q12.35,6.12,24.71,12.24Z"/>
          <path class="cls-19" d="M76.64,267.52c1.53,2.33.06,3.17-.93,5.24,2.59.9,8.29,2.18,9.93,2.89.47.2.17,1.03.24,1.06,16.35,7.03,26.92,9.77,40.48,23.71.27-.06,3.64,2.72,3.6.53-22.57-19.41-25.82-21.33-53.31-33.44Z"/>
          <path class="cls-3" d="M55.57,267.49c.73-1.7-7.41-5.18-10.89-6.61-3.01-1.24-25.55-9.6-26.89-9.13-.28.1-2.69,4.96-1.19,5.24,12.85,4.02,26.03,6.87,38.98,10.5Z"/>
          <g>
            <path class="cls-39" d="M159.2,293.91c-3.74,4.25-6.63,25.96-7.72,33.25-3.62,24.28-4.64,48.95-7.71,73.3,2.7-.35,66.93-21,70.67-22.91.12-.06,1.01-1.44,2.15-1.52.64-2.03-2.87-2.8-5.14-4.88-3.49-3.18-5.38-6.88-1.94-6.37-.16-.13-.13-2.23-2.01-3.74-1.46.23-4.42-1.25-5.21-2.24-1.79-2.26-.79-4.89,1.47-5.76,1.86-.71,5.08,3.11,3.01-4.14-5.99-.62-2.72-10.46,3.23-2.55.2-.23,1.13-.61,1.59-.49-.18-.67.68-1.11.6-2.62-.04-.69-2.42-5.6,2.51-5.2.49.04,2.96,1.66,3.37,2.2q1.31.3,2.62.6c-.38-.83-.4-1.71-.99-2.4.11-.49,1.54-.13,1.59-.22.38-.82-.6-2.03.87-3.14,2.76-2.09,8.07,2.06,4.88,4.87.06.04.74.8,1.03,1.08.13-6.18,6.22.17,13.32,4.56,1.31.81,1.63-.08,1.84.05.3-4.58,3.71-6.89,3.88-7.27.23-.53,1.69-7.45,3.45-10.97q8.61-31.91,17.21-63.83c-13.21,2.77-103.33,25.34-107.7,28.8-1.14.9-.77,1.49-.83,1.56Z"/>
            <path class="cls-31" d="M154.4,295.89c-2.43,1.47-5.14,2.81-6.98,5.09-1.71,23.3-3.03,46.73-6.04,69.91-1.09,8.39.54,13.53-5.07,12.51,1.22.31,2.39.73,3.66.89q-.75,8.54-1.5,17.08c1.6-.19,3.14-.73,4.77-.93.17-.02.35.04.53.01,3.07-24.34,4.09-49.02,7.71-73.3,1.09-7.29,3.98-29.01,7.72-33.25-1.03-.96-2.64.69-4.79,1.98Z"/>
            <path class="cls-34" d="M140.62,299.22c-7.98,4.72-4.48,1.49-5.58,1.96-1.02.43-1.33.96-5.81.38-.48-.2-2.6-1.19-2.87-1.13-.15.03-.57,1.15-2.67,1.51,1.26-.16.98.56,1.04.55,6.52-.15,12.97-.51,19.49-.02q1.6-.75,3.2-1.5c1.84-2.27,4.55-3.62,6.98-5.09l-.43-3.7c-4.48,2.32-8.88,4.72-13.36,7.03Z"/>
            <path class="cls-39" d="M13.25,294.31c4.74-.58,11.78-.06,16.58.43.23.02.63,1,1.29,1.09,2.28.3,17.44.14,8.81,5.5-.08.05-.6.84-1.61,1.01l-.68,5.78c15.31,3.63,8.91,3.59,9.85,6.05,1.01,2.64,2.92,4.88,2.95,7.98,1.94.74,5.27,3.86-1.14,3.13-3.47,2.35-4.26,3.21.4,4.75,3.24,1.07,7.58-.74,7.27,3.88-.24,3.71-14.03,5.11-17.53,5.34.4,2.01,6.28,13.18,7.29,13.36,1.29.23,8.65-11.09,3.79,6.16-.22.77-1.81,4.62-2.25,5.47-3.67,6.67,12.91,10.89,24.36,15.39,1.78.7,9.37,2.64,10.18,3.43l.77.81c.03.2,6.12,3.94,7,4.13,1.43.31,4.6,2.2,6.51,2.8,10.42,3.29,20.79,7.57,31.05,11.35,3.48.32,6.87-.37,10.29-.78q.75-8.54,1.5-17.08c-1.27-.16-2.44-.58-3.66-.89-7.34-1.85-16.38,1.53-17.22-6.25-.93-8.53,2.16-59.16,1.44-75.3-3.03-13.87-99.13-40.67-115.53-44.64,1.76,12.31,5.71,24.73,8.25,37.1Z"/>
            <g>
              <path class="cls-13" d="M147.42,300.98c-2.46-.02-2.46.98-3.2,1.5.34,2.12.28,6.66-2.04,7.32-14.6-1.32-17.23,3.16-17.46-7.31-.06,0-.77-1.53-4.2-.64.71,16.14-2.5,86.58-1.57,95.11.09-.03.17-.05.26-.07,1.28,6.96,9.02,6.05,17.09,5.52,5.69-.38,3.98-4.12,5.07-12.51-.1.03-.2.06-.3.08,2.93-23.41,4.66-66.02,6.34-89Z"/>
              <path class="cls-31" d="M124.73,302.49c-1.59,10.57,2.86,5.98,17.46,7.31,2.31-.66,2.4-5.2,2.04-7.32-.26-1.51-6.69-1.58-10.26-1.51-2.91.06-9,0-9.23,1.53Z"/>
            </g>
          </g>
          <polygon class="cls-39" points="201.96 376.96 234.96 364.96 231.96 346.96 258.96 295.96 244.96 366.96 201.96 381.96 201.96 376.96"/>
        </g>
        <g>
          <g>
            <path class="cls-30" d="M49.64,333.19c-3.09-.26-30.05-.59-31.6-.3,8.75,3.69,13.85.36,13.01,6.14,2.64.07,5.93.38,8.42.22,3.49-.23,17.28-1.63,17.53-5.34-2.2,1.18-4.93-.51-7.36-.72Z"/>
            <path class="cls-7" d="M35.54,308.06c.66.13,1.45-.1,2.11.06l.68-5.78c-3.51.61-26.53-.42-33.18-.6,6.92,3.79,17.53,4.17,25.43,4.62,3.14.54,4.7,1.66,4.96,1.71Z"/>
            <path class="cls-5" d="M35.54,308.06c-4.68,3,.38,5.63,4.05,6.43,2.9.63,5.14,1.17,7.91-.32-.94-2.46,5.45-2.43-9.85-6.05-.65-.15-1.44.08-2.11-.06Z"/>
            <path class="cls-30" d="M18.03,332.89c-3.31.61-1.2,3.49-5.26-.14.38.94.44,1.47.49,1.59.06.16,2.44,1.47,2.04,2.69,5.08,2.68,10.44,1.85,15.75,1.99.83-5.77-4.26-2.45-13.01-6.14Z"/>
            <path class="cls-7" d="M39.59,314.49c-2.93,1.96,1.27,4.56,2.99,6.4,1.85,1.12,6.88.88,7.87,1.26-.03-3.1-1.95-5.34-2.95-7.98-2.77,1.49-5.02.95-7.91.32Z"/>
            <g>
              <path class="cls-30" d="M13.25,294.31c-2.41.29-8.66,2.17-9.6,4.49-1.27,3.12.21,12.75,1.15,16.36,1.42,5.47,4.72,10.33,6.97,15.46.39.9.84,1.75,1,2.13,4.07,3.63,1.95.75,5.26.14,1.55-.29,28.51.03,31.6.3-.51-1.16-2.05-3.31.08-3.16-4.66-1.54-3.87-2.4-.4-4.75-5.67-.65-3.75-1.2-6.73-4.39-1.72-1.84-5.92-4.44-2.99-6.4-3.66-.8-8.72-3.43-4.05-6.43-.26-.05-1.82-1.17-4.96-1.71-7.9-.44-18.51-.82-25.43-4.62,6.65.18,29.66,1.22,33.18.6,1-.17,1.53-.96,1.61-1.01-3.72-1.6-8.3-.68-8.81-5.5-.66-.09-1.06-1.06-1.29-1.09-4.81-.49-11.85-1.01-16.58-.43Z"/>
              <path class="cls-7" d="M14.9,321.75c-.54,0-1.04-.2-1.32.23-.43,1.69,28.43,7.89,31.48,5.04.14-1.93-16.39-2.57-18.63-2.86-2.92-.37-10.94-2.41-11.53-2.41Z"/>
              <path class="cls-7" d="M12.52,312.2c-5.27-.11,10.94,4.28,14.11,4.58,11.22,1.09,13.86-1.14,8.49-2.41-2.51-.59-11.69.04-16.32-.43-1.32-.13-5.73-1.73-6.28-1.74Z"/>
            </g>
            <path class="cls-20" d="M31.12,295.83c.52,4.82,5.1,3.9,8.81,5.5,8.63-5.36-6.53-5.2-8.81-5.5Z"/>
            <path class="cls-20" d="M49.32,325.28c6.41.73,3.07-2.39,1.14-3.13-.99-.38-6.02-.14-7.87-1.26,2.98,3.19,1.07,3.74,6.73,4.39Z"/>
            <path class="cls-20" d="M49.72,330.03c-2.13-.15-.59,2-.08,3.16,2.43.21,5.16,1.9,7.36.72.3-4.62-4.03-2.81-7.27-3.88Z"/>
          </g>
          <path class="cls-10" d="M251.39,354.8c3.31,7.01.21,12.46.18,13.18,0,.18,0,.35-.01.53,3.29-2.6,2.53-8.94,1.38-12.61-.28-.91-1.1-2.84-2.02-3.21-.19,1.46.41,1.66.47,2.12Z"/>
          <g>
            <path class="cls-30" d="M249.66,340c-2.91.9-5.14,2.98-4.9,6.19q3.08,2.98,6.17,5.96c1.96-1.73,3.57-5.38,3.37-7.81-1.32-1.48-1.89-3.08-2.02-3.21-.82-.79-2.49-1.04-2.6-1.12Z"/>
            <path class="cls-30" d="M228.04,341.02c.07.07-.42.16,1.01,1.61,5.98,3.82,15.6,6.47,14.91,14.09-1.28,1.13-7.92-2.52-9.39-3.41-1.92,2.88,6.69,5.25,5.03,9.09-.8,1.86-4.52.19-5.79-.15-2.6,1.32,4.04,5.37,1.93,6.9-1.78,1.29-9.07-.99-11.28-1.88-6.1-2.45-10.71-7.82-16.31-10.96-.02,1.62,1.53,4.86-.65,4.72,1.88,1.51,1.84,3.61,2.01,3.74,10.57,8.56,22.71,14.79,34.65,4.59,6.77-5.78,5.3-10.17,7.23-14.56-.06-.46-.67-.66-.47-2.12.02-.17,0-.35.01-.53q-3.08-2.98-6.17-5.96c-2.06,1.31-1.46-.5-1.57-.57-.21-.13-.53.77-1.84-.05-7.1-4.4-13.19-10.74-13.32-4.56Z"/>
            <path class="cls-30" d="M209.98,346.34c-.21.23-.3,2.14-2.17,2.58.68,9.96,18.93,17.33,27.92,20.22,2.12-1.53-4.53-5.58-1.93-6.9-9.14-2.47-16.02-9.69-22.23-16.39-.46-.13-1.39.26-1.59.49Z"/>
            <path class="cls-30" d="M218.05,340.23c2.17,2.87-.44,1.13-4.83,3.56,6.14,8.55,16.11,16.47,26.38,18.6,1.66-3.83-6.95-6.21-5.03-9.09-2.23-1.34-13.06-10.66-13.9-12.48q-1.31-.3-2.62-.6Z"/>
            <path class="cls-7" d="M209.5,364.77c-5.55-.81-1.77,2.38,1.94,6.37,2.1,2.26,5.78,2.85,5.14,4.88.05.16-.06.37-.01.53,1.03-.03.18-1.65.84-2.09,1.29-.85,13.67,11.1,27.76-4.02-.08-.49-.52-1.02-1.03-1.08-11.94,10.19-21.19-2.63-34.65-4.59Z"/>
            <path class="cls-7" d="M220.67,340.83c.84,1.82,11.67,11.14,13.9,12.48,1.48.89,8.12,4.54,9.39,3.41-5.69-4.08-10.13-9.27-14.91-14.09-1.43-1.44-.94-1.54-1.01-1.61-.29-.28-.96-1.04-1.03-1.08-3.14-1.87-4.35,1.03-5.75-1.73-.04.09-1.48-.27-1.59.22.59.68.61,1.56.99,2.4Z"/>
            <path class="cls-7" d="M206.76,348.89c2.08,7.25-1.15,3.42-3.01,4.14-2.26.87-3.26,3.49-1.47,5.76-.6-6.52,2.16-4.56,5.86-2.48,5.6,3.15,10.21,8.51,16.31,10.96,2.21.89,9.5,3.17,11.28,1.88-8.99-2.9-27.24-10.26-27.92-20.22-.26.06-.73,0-1.05-.03Z"/>
            <path class="cls-7" d="M211.58,345.86c6.2,6.69,13.09,13.92,22.23,16.39,1.27.34,4.99,2.01,5.79.15-10.27-2.13-20.24-10.05-26.38-18.6-.03-.05-.81-.49-1.04-.55.08,1.51-.78,1.95-.6,2.62Z"/>
            <path class="cls-38" d="M202.28,358.78c.79,1,3.75,2.47,5.21,2.24,2.18.14.63-3.11.65-4.72-3.71-2.08-6.47-4.04-5.86,2.48Z"/>
            <path class="cls-5" d="M212.17,343.24c.23.06,1,.51,1.04.55,4.4-2.43,7-.69,4.83-3.56-.41-.54-2.87-2.16-3.37-2.2-4.92-.39-2.54,4.51-2.51,5.2Z"/>
            <path class="cls-38" d="M221.26,338.21c1.4,2.76,2.61-.14,5.75,1.73,3.19-2.81-2.11-6.96-4.88-4.87-1.47,1.11-.5,2.32-.87,3.14Z"/>
            <path class="cls-38" d="M206.76,348.89c.32.03.79.09,1.05.03,1.87-.43,1.97-2.35,2.17-2.58-5.95-7.91-9.22,1.93-3.23,2.55Z"/>
            <path class="cls-5" d="M247.07,338.35c-.17.39-3.58,2.7-3.88,7.27.11.07-.49,1.88,1.57.57-.24-3.21,1.99-5.29,4.9-6.19-.13-.09.37-1.62-2.59-1.65Z"/>
            <path class="cls-30" d="M244.16,369.36c.51.06.95.59,1.03,1.08.03.16,0,.36-.01.53.51-.06,1.21.15,1.58.04,1.57-.47,3.47-2.06,4.82-3.04.03-.72,3.13-6.17-.18-13.18-1.93,4.39-.46,8.79-7.23,14.56Z"/>
            <path class="cls-30" d="M229.05,342.63c4.78,4.81,9.22,10.01,14.91,14.09.69-7.62-8.93-10.26-14.91-14.09Z"/>
          </g>
          <path class="cls-39" d="M23.96,338.96l6.78,25.2c.14.5.5.91.99,1.1l87.23,33.7-35-52-29-7-31-1Z"/>
        </g>
      </g>
    </g>
  </g>
</svg>