<?xml version="1.0" encoding="UTF-8"?>
<svg id="Layer_2" data-name="Layer 2" xmlns="http://www.w3.org/2000/svg" viewBox="0 0 312.98 486.42"><defs>
    <style>
      .cls-1 {
        fill: none;
      }

      .cls-2 {
        fill: #461a24;
      }

      .cls-3 {
        fill: #c45f41;
      }

      .cls-4 {
        fill: #3c8db1;
      }

      .cls-5 {
        fill: #232323;
      }

      .cls-6 {
        fill: #3a310b;
      }

      .cls-7 {
        fill: #f7b750;
      }

      .cls-8 {
        fill: #a34737;
      }

      .cls-9 {
        fill: #cf99ce;
      }

      .cls-10 {
        fill: #f89916;
      }

      .cls-11 {
        fill: #281a26;
      }

      .cls-12 {
        fill: #f0935d;
      }

      .cls-13 {
        fill: #fff23b;
      }

      .cls-14 {
        fill: #bdeded;
      }

      .cls-15 {
        fill: #c12e4b;
      }

      .cls-16 {
        fill: #ddcfe4;
      }

      .cls-17 {
        fill: #f8ae89;
      }

      .cls-18 {
        fill: #a9c1e2;
      }

      .cls-19 {
        fill: #7f2c86;
      }

      .cls-20 {
        fill: #2b0b13;
      }

      .cls-21 {
        fill: #dcbdd8;
      }

      .cls-22 {
        fill: #a66bb7;
      }

      .cls-23 {
        fill: #fbfbfc;
      }

      .cls-24 {
        fill: #cc5637;
      }

      .cls-25 {
        fill: #c386c3;
      }

      .cls-26 {
        fill: #fcf8e9;
      }

      .cls-27 {
        opacity: .2;
      }

      .cls-27, .cls-28 {
        fill: #7aebe9;
      }

      .cls-29 {
        fill: #ac4a30;
      }

      .cls-30 {
        fill: #c9892d;
      }

      .cls-31 {
        fill: #e6794d;
      }

      .cls-32 {
        fill: #efd870;
      }

      .cls-33 {
        fill: #c8867f;
      }

      .cls-34 {
        fill: #fd9ee3;
      }

      .cls-35 {
        fill: #fed60f;
      }

      .cls-36 {
        fill: #c392c2;
      }

      .cls-37 {
        fill: #794b49;
      }

      .cls-38 {
        fill: #661b6a;
      }

      .cls-39 {
        fill: #90eaeb;
      }

      .cls-40 {
        fill: #713239;
      }

      .cls-41 {
        fill: #d7643c;
      }

      .cls-42 {
        fill: #bfcbb8;
      }

      .cls-43 {
        fill: #95409b;
      }

      .cls-44 {
        fill: #29999b;
      }

      .cls-45 {
        fill: #353535;
      }

      .cls-46 {
        fill: #d51e89;
      }

      .cls-47 {
        fill: #320532;
      }

      .cls-48 {
        fill: #fee66a;
      }

      .cls-49 {
        fill: #fa65ce;
      }

      .cls-50 {
        fill: #1d121b;
      }

      .cls-51 {
        fill: #add197;
      }

      .cls-52 {
        fill: #fdfdfd;
      }
    </style>
  </defs>
  <g id="MATH">
    <g>
      <g>
        <g>
          <path class="cls-24" d="M189.73,194.37c-9.09,11.59-21.81,20.53-36,24.5-2.36-3.08-5.37-5.97-6-10-.45-2.9.19-7.89.5-11,.07-.73.15-4.25.5-4.86,12.44,2.19,27.65-1.76,38.5-7.64,1.21,2.88,1.66,6.03,2.5,9Z"/>
          <path class="cls-31" d="M191.73,199.87c.39,2.05.72,4.18,1,6.25-7.26,8.67-18.31,15.14-29,18.75-2.48.84-1.89.97-2,1-.74.17-.36.73-2.5-.5-.28-.16-1.31-.83-1.5-1-.26-.22-3.39-4.71-4-5.5,14.19-3.97,26.91-12.91,36-24.5.67,2.38,1.94,5.17,2,5.5Z"/>
        </g>
        <g>
          <path class="cls-12" d="M220.49,96.87s-6.44-19.74-10.08-25.56c-4.81-7.69-19.05-20.76-27.72-23.4-8.71-2.65-26.18-2.64-36.4-.73,0,0-32.82,1.73-41.14,39.7-.94,4.3,3.47,25.35-1.5,42.9-.09.32-.14.65-.14.98v7.55c2.59,9.21,3.89,21.19,12.53,31.65,7.61,9.21,31.57,23.86,35.88,24.27,2.26.08,9.06-1.41,19.05-5.59,9.16-3.84,22.2-12.35,27.89-20.52,2.79-4.01,12.29-22.94,10.07-25.68,7.3-3.43,16.67-4.19,16.67-15.97,0-5.05-2.94-19.94-5.1-29.59ZM120.11,145.06c1.03.09,2.08.13,3.16.11-1.03.04-2.09,0-3.16-.11ZM176.91,142.04c.99.49,2.08.94,3.27,1.35-1.16-.38-2.25-.83-3.27-1.35Z"/>
          <path class="cls-41" d="M225.38,126.28c.06-.09,1.34-1.31-1.39-12.61-.8-3.84-2.6-12.74-2.6-12.74,0,0-.45-.64-1.11-1.37-.54-.59-1.23-1.23-1.8-1.71-7.14-5.96-20.51-5.64-24.33-5.66-8.48-.09-16.76,1.17-20.81,6.02s-3.97,13.78-2.53,24.56c.31,1.3,1.12,4,1.08,3.36-.1-1.67,1.06-6.72,2.37-9.57,2.25-4.92,4.62-8.13,10.93-10.58,15.64-6.05,31.83,20.59,32.55,21.79-1.8,6.6-5.1,12.32-11.07,14.7,3.89.67-5.67,21.3-8.64,25.56-5.68,8.17-18.56,15.97-27.72,19.8-9.98,4.18-16.68,6.28-18.99,6.23.17.06.07.12.64.16,15.33,1.15,24.21-2.52,37.43-10,19.85-11.23,20.3-13.57,30.24-32.4,1.1-2.09,1.09-4.53,2.88-6.84.38-.49,9.73-1.54.72-7.92,13.28-19.13,20.35-3.89,12.96,6.48-6.8,9.55-18.62-4.15-10.8,11.88,25.69,5.04,20.19-57.31,0-29.16Z"/>
          <path class="cls-29" d="M225.38,155.45c-2.56-.5-3.24-2.94-5.76-3.6,1.1-2.09,1.09-4.53,2.88-6.84.38-.49,9.73-1.54.72-7.92,13.28-19.13,20.35-3.89,12.96,6.48-6.8,9.55-18.62-4.15-10.8,11.88Z"/>
        </g>
        <path class="cls-17" d="M103.8,137.04c3.5,16.27,5.03,23.58,11.87,32.34,4.4,5.63,24.09,20.16,35.68,24.72-5.49-.09-34.05-16.97-40.23-24.75-6.68-8.4-8.31-18.44-8.47-25.05-.04-1.66.29-4.97.48-6.62.08-.68.39-2.73.39-2.73,0,0,.18,1.59.29,2.09Z"/>
        <path class="cls-31" d="M113.04,100c-1.88.06,1.36-4.44,2.23-6.28,1.06-2.92,1.12-6.36,2-9.25,6.04-19.79,23.82-27.78,10.5-24.25-10.51,2.79-20.82,35.08-21.94,44.67,0,.01.18,6.15.18,6.15,2.51-3.22,3.62-4.22,7.97-6.63,8.46-4.67,18.39-1.27,22.4,9.26.04.12,2.35,10.41,2.39,11.24.02.42.04-9.38.19-10.88-.96-13.22-15.39-14.39-25.92-14.04Z"/>
        <g>
          <path class="cls-31" d="M103.53,135.33c-10.31,3.67-5.4,11.06-2.85,18.16-12.38-9.8-7.4-25.37-2.57-25.81.6-.05,2.57-.04,3.82.89,1.15.86,1.63,1.73,1.63,1.73,0,0,0,3.37-.04,5.02Z"/>
          <path class="cls-41" d="M101.4,130.45c.86-.04,2.13,1.32,2.1,4.07-.03,2.31-.95,7.35-.78,11.64,0,0,.48,5.68,1.6,9.55-1.36-.54-2.49-1.3-3.64-2.21-2.55-7.1-9.59-19.37.72-23.04Z"/>
        </g>
        <g>
          <path class="cls-11" d="M296.6,148.94c-.14-.13-.31-.32-.48-.48-.31-18.33-12.21-12.48-19.34-17.19-4.6-3.04-7.83-19.38,14.08-18.38,5.56,7.95-13.96,6.35-11.94,10.5.48.99,15.1,6.07,17.19,8.59,3,3.63,2.98,13.91.48,16.95Z"/>
          <path class="cls-50" d="M49.78,132.71c-.77,1.33-4.97,3.92-3.34,11.94-5.77-2.09-14.97-2.67-13.84-10.74,1.81-13.02,15.73-1.17,17.19-1.19Z"/>
          <path class="cls-50" d="M62.19,115.04l.95,8.83q-6.68,4.42-13.37,8.83c.54-.92,2.18-2.06,2.39-2.63,2-5.39-4.36-9.36-3.82-14.8q6.92-.12,13.84-.24Z"/>
          <path class="cls-50" d="M303.77,80.19c-4.37-2.21-5.02-1.55-9.55-2.63,2.76-7.37,4.11-10.61,0-17.43-.52-.4-.64-.5,0,0-3.84-6.37-10.77-9.34-17.9-6.21-2.75-.54.94-5.86-9.79-11.7,8.37-15.47-11.31-28.07-21.24-13.61C227.68,8.83,203.04.05,178.44,13.35c-16.73-18.96-48.35-16.68-65.64.24-1.68,1.64.06,3.99-12.65,9.31-1.97.09-9.93-10.8-21.24-1.43,0,0,0,0,0,0-2.89,2.39-5.59,6.4-5.73,10.26-.03.76,1.65,8.46,1.91,8.83-1.18.2-2.31.87-3.34,1.43-7.68,4.19-5.16,3.47-8.83,10.98-18.35-1.5-25.18,16.33-12.17,28.88-2.57.83-5.11,1.11-7.64,2.15-1.99.82-3.19,1.37-4.77,2.86-9.07,8.54-4.83,20.54,5.73,25.06.64,1.79-3.89,4.36,0,13.37-18.05-2.07-24.49,18.34-7.64,26.26-3.6,8.83,2.84,20.44,12.65,16.95,7.94,7.76-1.98,7.84-.24,18.86,1.36,8.6,13.51,14.07,20.77,8.83,10.25,4.27,5.3,4.94,8.83,9.79,4.51,6.19,15.68,5.61,20.77.24,1.38.31.67,13.47,19.1,10.98,4.44-7.84,5.94-2.38,12.89-5.73,5.18-2.5,5.11-9.42,10.26-4.77,2.74-3.89,3.15-8.08,6.93-11.28.07-.7.14-1.4.21-1.99-6.38-2.21-25.4-13.42-31.26-18.43-9.34-7.98-13.33-20.37-13.01-19.3-1.36-.54-2.49-1.3-3.64-2.21-12.38-9.8-7.4-25.37-2.57-25.81.6-.05,2.57-.04,3.82.89,1.13.85,1.61,1.7,1.63,1.73.9-3.64,1.92-8.38,2.1-11.67.91-5.89.92-15.31.93-15.49.51-7.83,10.9-38.47,20.04-42.53,5.38-2.39,10.25,1.5,16.95-8.12,21.88,12.34,30.33-2.24,31.99-2.86,6.58-2.47,8.32,5.19,8.83,5.49,13.69,7.91,27,21.42,30.54,26.98.47.73,2.46,5.84,3.64,9.46,3.7,11.31,6.79,34.73,6.79,34.73,0,0,3.9-5.64,7.37-6.78-.07-.05,3.66-1.35,6.46,1.78,5.22,5.85,4.58,25.77-3.74,31.97-4.96,3.7-10.25,2.94-13.43,0-1.22-1.12-2.42-1.4-2.42-1.4,0,0-.35.73-1,1.91-1.55,2.8-5.42,11.17-9.33,15.71-7.98,9.27-15.7,11.85-22.05,15.97.87,3.22,1.58,5.68,2.38,8.52.64,2.27,1.85,4.93,1.91,5.25,5.45.54,7.16,3.77,10.08,5.58.54.34,3.43.86,4.54.95,6.7,13.18,24.45,10.16,28.64-3.82,9.21,9.72,23.29,11.63,27.21-3.82,7.01.07,11.98.74,16.71-5.25,17.53,1.89,24.17-15.7,11.7-27.45q2.98-3.94,5.97-7.88c5.9,1.47,11.45.11,14.56-5.25,3.95-6.8,2.04-13.9-4.3-18.38,1.49-16.72-7.49-16.8-8.12-17.66-2.99-4.15,5.51-3.75,10.03-9.07,6.81-8.02,4.79-22.13-4.77-26.97"/>
          <path class="cls-11" d="M55.99,152.28c-.27.1-1.5,1.75-5.01,2.86-.56-.14-4.42-9.94-4.54-10.5-1.63-8.01,2.57-10.6,3.34-11.94q6.68-4.42,13.37-8.83l-.95-8.83c.1-2.73-8.04-6.86-13.37-10.5-2.1-4.42-1.05-9.85,1.91-13.84,8.45-3.78,19.02-1.63,19.1-7.88,0-.5-2.12-5.75-2.39-9.79-.72-10.74,14.06-12.77,15.28-14.08.5-.54,1.74-5.63,1.91-6.92,1.36-2.12,3.22-3.78,4.77-5.73,2.19-2.75,3.56-.4,1.91-8.83,15.43-17.14,14.53-10.69,36.04-7.88,3.21-.75,3.19-14.58,10.03-15.75,9.57-1.64,12.02,10.31,8.12,13.37-3.67,2.88-3.2-2.58-6.68-7.64-3.78,22.62-17.69,15.12-34.85,12.89-8.46,5.82-4.47,10.16-5.49,13.13-.28.81-7.63,7.08-8.12,8.12-3,6.43,5.2,5.22-16.71,16.71-2.36,5.97,9.05,16.27-6.92,23.15-4.57,1.97-16.64,2.16-13.37,6.21,2.66,3.28,15.27,6.03,15.99,17.43,1.43,22.72-26.97,10.24-13.37,35.09Z"/>
          <g>
            <g>
              <path class="cls-11" d="M190.86,15.26c12.02-1.13,20.75,19.49,43.44,11.94,11.03,14.64,20.32,10.14,15.52,27.93,2.48,1.22,11.9,9.52,12.65,9.79,5.27,1.89,20.78-2.81,15.99,16.47,4.52,1.56,20.47,7.85,22.44,11.46,2.26,4.16.7,12.42-4.06,14.08-11.08,3.87-.82-9.16-1.19-10.74-11.93-10.93-28.55-.8-21.96-23.39q-6.33-.6-12.65-1.19c-8.03-10.55-12.63-7.74-15.52-11.22-7.65-9.25,11.94-21.6-18.86-17.43q-1.19-4.06-2.39-8.12c-11.72.38-21.94-6.33-31.03-12.89-4.05-.29-16.38,7.73-13.61-.72.59-1.81,9.15-5.77,11.22-5.97Z"/>
              <path class="cls-47" d="M235.73,32.93c2.95-.22-2.46,2.06-3.34,2.39-11.48,4.18-3.32-1.9,3.34-2.39Z"/>
            </g>
            <path class="cls-1" d="M137.39,13.83c-6.84,1.17-6.82,15.01-10.03,15.75-21.51-2.82-20.61-9.27-36.04,7.88,1.65,8.43.28,6.08-1.91,8.83-1.55,1.95-3.41,3.61-4.77,5.73h0c-.17,1.29-1.41,6.38-1.91,6.92-1.22,1.32-16,3.34-15.28,14.08.27,4.04,2.39,9.28,2.39,9.79-.07,6.25-10.64,4.1-19.1,7.88-2.96,3.99-4.01,9.42-1.91,13.84,5.33,3.64,13.47,7.78,13.37,10.5q-6.92.12-13.84.24c-.54,5.44,5.82,9.41,3.82,14.8-.21.57-1.85,1.7-2.39,2.63-1.46.02-15.38-11.82-17.19,1.19-1.12,8.08,8.08,8.65,13.84,10.74.11.56,3.98,10.36,4.54,10.5,3.52-1.11,4.74-2.77,5.01-2.86-13.6-24.85,14.8-12.37,13.37-35.09-.72-11.4-13.34-14.14-15.99-17.43-3.27-4.05,8.8-4.24,13.37-6.21,15.97-6.89,4.57-17.19,6.92-23.15,21.91-11.49,13.71-10.28,16.71-16.71.48-1.03,7.84-7.31,8.12-8.12,1.03-2.97-2.97-7.31,5.49-13.13,17.16,2.23,31.07,9.73,34.85-12.89,3.48,5.05,3.01,10.51,6.68,7.64,3.9-3.06,1.45-15.01-8.12-13.37Z"/>
            <path class="cls-1" d="M278.94,123.4c-2.02-4.15,17.5-2.56,11.94-10.5-21.91-.99-18.69,15.34-14.08,18.38,7.12,4.71,19.02-1.14,19.34,17.19.17.16.33.34.48.48,2.5-3.03,2.52-13.32-.48-16.95-2.09-2.52-16.71-7.61-17.19-8.59Z"/>
          </g>
        </g>
        <g>
          <path class="cls-26" d="M137.86,121.71c-.5-1.47-1.36-5.17-5.73-9.43-2.82-2.75-5.81-4.38-7.96-4.74-1.44-.2-2.74-.16-3.92.02-2.25-.1-5.68,1.45-7.92,3.23-5.87,4.68-4.57,12.46,1.08,15.84.25.15.53.29.82.43,3.24,1.76,5.75,1.8,9.2,1.91,0,0,6.24.41,14.03-2.74.47-.19,1.41-.71,1.41-.71,0,0-.22-2.03-1.01-3.82Z"/>
          <path d="M106.48,107.58c2.64,2.22,6.39-6.16,17.05-5.19,8.72.79,15.56,12.06,15.24,22.28-1.16-2.08-2.23-5.18-2.57-5.54-.05-.06-.18.02-1.29-.86,1.16-4.03-6.96-10.25-10.73-10.73-6.55-.85-10.77,2.43-13.74,7.73-.14.25-.58,1.17-.86,2.15-1.13,3.97,1.02,7.74,4.65,9.65-.74,0-3.81-1.99-4.23-2.35-4.02-3.43-7.61-12.5-7.56-18.15-.1-1.1.31-4.58.83-3.19.99,2.65,2.45,3.56,3.2,4.2Z"/>
          <path d="M123.19,120.44c1.9-.49,2.53-3.14,2.21-4.87,11.2-1.45,3.91,16.24-2.21,4.87Z"/>
          <path class="cls-6" d="M136.21,120.1c0-.2-.04-.38-.05-.58,0-.14,0-.27,0-.41,0,0-.02-.02-.04-.02-.84-6.6-8.39-11.1-11.98-11.57-.36,1.44-2.68,2.49-3.43,3.86-.15.27-.81,2.12,0,2.15,2.03-.08,2.65.33,3.43.43.07.43,1.27,1.61,1.29,1.72,10.87-1.4,3.79,15.75-2.15,4.72-2.27.58-4.3-1.57-4.72-.64.81,3.73,1.27,6.93,4.72,8.8,1.25.67,3.25.49,7.72-.31,3.74-.67,4.99-4.57,5.14-8.2.02.01.05.04.06.05Z"/>
          <path class="cls-26" d="M188,110.69c.9-.18,3.78-.53,5.05-.47,2.94.16,5.9,2.18,5.9,2.18,7.28,5.07,10.16,9.31,3.22,16.31-.69.31-2.85,1.25-3.01,1.29-5.74,1.41-21.22,1.35-27.05-2-.02,0-.03-.02-.05-.03-.3-.17-.26-2.91.05-3.98,3.45-6.78,7.95-12.16,15.89-13.31Z"/>
          <g>
            <path d="M208.18,114.56c2.17,1.76,3.7.7,5.24-1.17.9-.99.81-1.56,1.05-1.23.27.39.27,1.84-.33,3.75-1.37,4.31-5.27,9.83-11.96,12.82,6.94-7.01,4.06-11.25-3.22-16.31,0,0-1.92-1.42-5.58-2.15-1.82-.36-3.59.17-5.37.43-7.94,1.15-12.44,6.53-15.89,13.31,1.51-13.76,12.07-22.65,26.4-17.6,5.73,2.02,8.22,6.99,9.66,8.16Z"/>
            <path class="cls-6" d="M201.31,118.85c-.19-2.4-3.14-7.78-7.94-8.59-1.83-.31-3.59.17-5.37.43-4.27,6.01-2.22,3.07,1.5,4.29.41.13,1.13.82,1.5,1.29.24.3,1.52.19,3.86.86,4.97,5.8-3.02,11.68-6.44,4.72-1.91.28-4.19-1.74-4.29-1.5.28,14.31,18.69,12.68,17.17-1.5Z"/>
            <path d="M194.87,117.13c4.97,5.8-3.02,11.68-6.44,4.72,2.32-.34,3.84-3.51,2.58-5.58,1.66-.19,2.83-.01,3.86.86Z"/>
          </g>
        </g>
        <path class="cls-3" d="M232.34,150.67l1,2c1,2-3,3-3,3-1.16.37-2,1-3,0l1-5c1-2,3.66-.46,4,0Z"/>
        <g>
          <path class="cls-14" d="M233.34,158.67c0-2,0-5-1-6s-1.79-2.03-3-1c-.85.72-1.85,4.6-2,7-.05.8.36,3.41,1.05,3.95,1.97,1.52,3.28,1.28,3.96.21,1.99-3.16.99-2.77.99-4.16Z"/>
          <path class="cls-28" d="M233.89,157.87c-.22-2.79-.45-4.83-1.55-5.2-3-1-1,3-4,5-1.18.78-.56,3.32,0,4,3.39,4.13,5.76-1.04,5.55-3.8Z"/>
        </g>
        <g>
          <path d="M105.08,93.49c-.32-.04-.57-.26-.4-.54,1.23-1.98,4.66-7.32,6.9-8.78,2.26-1.48,9.41-4.96,14.55-3.99,4.03.76,4.14,4.49,4.17,6.11,0,.03-.02.06-.05.08-2.65,1.53-4.4.39-8.93.03-1.75-.14-3.24-.01-4.87.46-2.57.74-4.87,2.4-7.04,4.87-.66.75-2.7,1.96-4.34,1.76Z"/>
          <path d="M205.22,86.32c.11.55,2.3,3.22,2.88,5.4l-1.08,1.08c-14.83-10.29-26.1-.3-29.16-7.2,2.55-2.21,3.17-11.87,27.36.72Z"/>
        </g>
        <g>
          <path class="cls-24" d="M164.19,143.02c1.79,8-20.24,11.31-20.88,2.16,5.6,5.57,14.97,2.25,20.88-2.16Z"/>
          <g>
            <path class="cls-15" d="M182.55,149.5c2.64.26,5.03,1.58,6.12,3.96-8.51.6-12.2,25.11-29.16,27.72-25.18,3.88-14.91-25.59-27.72-19.8.7-9.31,39.85-.3,54.01-8.64l-3.24-3.24Z"/>
            <path class="cls-23" d="M177.51,158.15c4.44-.62-4.85,8.34-6.48,9.36-9.07,5.7-30.73,7.42-30.24-4.32,15.16,3.57,34.64-4.75,36.73-5.04Z"/>
          </g>
          <path class="cls-17" d="M147.98,139.42c2.21,1.67,5.3,2.24,5.4,2.52,1.58,4.52-6.69,4.93-5.4-2.52Z"/>
        </g>
        <g>
          <path class="cls-27" d="M144.49,112.71c0,15.74-15.3,27-28,27s-19-10.26-19-26,9.3-22,22-22,25,5.26,25,21Z"/>
          <path class="cls-27" d="M223.49,113.9c0,22.81-17.9,29.81-32.77,29.81s-22.23-11.33-22.23-28.71c0-20.29,10.88-24.29,25.74-24.29,19.26,0,29.26,5.81,29.26,23.19Z"/>
          <g>
            <path d="M228.49,122.71c4.16-9.68-4.33-20.72-5.73-23.8-2.17-4.77-6.05-8.24-9.27-9.2-2-.6-6-1-13-1-6,0-29-3-34.5,13.71-7.21-3.06-12.58-2.59-20-1-1.5-2.71-5.52-11.66-20.5-12.71-1.93-.13-9.16-.71-16,1-8,2-7.86,2.86-10,5-2.22,2.22-4.6,9.78-5,18-.35,7.04,2,17,3,19,.63,1.26,3,6,5.75,7.46,8.64,4.97,15.01,4.96,21.25,4.54,15-1,26.35-18.47,26-32.79,21.23-1.93,7.52,3.43,18.25,22.75,2.56,4.62,9.75,11.04,16.75,13.04,4.9,1.4,14.82,1.78,23-2,13-6,17.7-16.64,20-22ZM142.24,115.42c-.26,7.54-3.33,13.47-8.14,17.34-6.18,4.97-15.23,6.52-24.86,3.66-5.75-1.71-7.78-6.29-8.75-8.71-4-10,0-24,1-27,1.92-5.77,10.39-7.67,16-8,8.61-.51,17.34.25,21.75,8.71,2.09,4,3.16,9.45,3,14ZM175.24,133.67c-3.52-4.73-5.36-13.94-5.5-19.75-.37-15.93,5.18-19.09,20-20.5,5.57-.53,11.46-.87,17,0,.81.13,2.43.35,3,.5,2.12.56,4.25,1.34,5.79,2.84.47.46,4.36,5.98,5.96,16.95.49,3.39,0,8-1.72,12.65-.01.02-.02.03-.04.05-8.92,20.35-36.11,18.5-44.5,7.25Z"/>
            <path class="cls-45" d="M242.21,107.93c-.51-.71-12.85-7.97-15.03-8.89-2.45-1.04-4.78-2.3-5.2-1.97.57,2.38,7.75,12.97,7.56,18.78-.03.91,1.94,1.11,1.94,1.11l.1-.78c9.11.38,12.15-1.51,15.04.62-.21-1.64-3.59-7.73-4.4-8.87Z"/>
            <g>
              <path class="cls-5" d="M95.8,103.44q-5,2.25-10,4.5c-.53-1.11-2.64-9.66-1.25-10.5,22.79-3.44,17.71-10.26,11.25,6Z"/>
              <path d="M95.8,103.44q-.62,5-1.25,10c-3.24-2.09-6.93-1.68-8.75-5.5q5-2.25,10-4.5Z"/>
            </g>
            <path d="M240.73,123.36c.37-.18,4.84-5.6,5.88-6.56-2.73-2.01-5.98-.95-13.59-.61-9.56-.34-10.25-3.54-10.25-3.54l.63,3.1c-.08.54.19,2.49.46,4.47l4.41,2.9c3.7-3.78,5.28-4.79,9.33-3.29,2.07,1.2,2.74,2.94,3.13,3.54Z"/>
          </g>
        </g>
      </g>
      <g>
        <path class="cls-3" d="M56.62,333.78c.12,2.56,1.1,4.31-.05,10.24,11.55,14.65,22.38,21.34,41.6,22.57,3.93.25,8.8-11.34,10.27-15.09-3.66,9.33-36.84-2.77-41.48-6.74-3.83-3.27-6.75-7.48-10.34-10.99Z"/>
        <path class="cls-8" d="M89.05,278.39c1.11.22,2.22.24,3.35.41,6.51.97,13.43,1.41,20.33-.22.48,1.52-.38,3.97-.47,5.4-5.99,1.2-22.46,16.5-24.16,23.38-.42,1.69-2.67,16.93-2.49,17.76.19.81,2.2.87,1.39,1.97-1.41-.92-2.73-1.91-4.08-2.91-.29-.21-3.19-.17-4.37-1.06-.05-.92,3.27-21.2,3.37-41.19.96-1.28,4.74-4.01,7.12-3.54Z"/>
        <path class="cls-31" d="M20.35,322.65c-9.98-12.25,7.08-28.3,26.67-8.92,3.57,3.25,35.61,10.24,35.9,10.45,1.35,1,2.67,1.98,4.08,2.91.81-1.1-1.2-1.16-1.39-1.97-.19-.83,2.2-16.06,2.49-17.76,4.23-24.98,18.17-22.18,24.16-23.38-.97,15.81-1.1,42.79-2.24,55.55-.76,8.56-.39,12.16-5.67,20.15-6.31,7.67-31.12-6.61-36.69-9.11-9.11-4.08-43.52-23.27-47.31-27.92Z"/>
        <path class="cls-3" d="M43.64,310.83c1.84,1.64,2.62,16.68-4.76,24.18l-10.29-5.05-12.86-27.73,23.34,5.76s2.11.65,4.57,2.84Z"/>
      </g>
      <path class="cls-43" d="M112.39,255.92s-.01-.01-.02-.02c-5.57-7.25,2.69-22.37,11.86-29.48-17.52-3.19-28.65,7.21-30.22,8.16-19.02,11.53-10.79,47.66-24.27,51.19.23,1.05,9.39,6.38,9.95,6.61,6.25,2.63,13.87,3.34,20.36,4.9,9.36,2.25,11.6,3.26,11.6,3.26,0,0-1.65-5.09-.4-4.31.53.33-.12-.76-.03-2.49.87-18.03,4.47-32.88,1.18-37.82Z"/>
      <path class="cls-38" d="M116.76,258.3s-.01-.01-.02-.02c-5.57-7.25,3.46-26.14,12.63-33.26-32,73.2-45.87,69.5-45.31,69.73,6.25,2.63,13.87,3.34,20.36,4.9,9.36,2.25,11.6,3.26,11.6,3.26,0,0-1.65-5.09-.4-4.31.53.33-.12-.76-.03-2.49.87-18.03,4.47-32.88,1.18-37.82Z"/>
      <path class="cls-42" d="M192.84,468.28v2c-16.83,0-33.67,0-50.5,0q-.75-1.5-1.5-3c17.19,1.8,34.75,2.58,52,1Z"/>
      <g>
        <path class="cls-38" d="M214.47,379.78c8.35,1.74,16.09,5.31,23.08,10.24-1.98-5.89-4.27-11.66-7.22-17.24-4.15-3.27-9.55-6.45-15.19-9.65-.17,3.98-.35,7.96-.52,11.95-.03.74-.05,1.47-.08,2.21.26.25.51.48.79.75-.27.05-.54.08-.82.12-.02.54-.03,1.09-.05,1.63Z"/>
        <g>
          <path class="cls-43" d="M269.33,291.04c-4.49-16.75-5.27-36.66-17-50.5-9.2-10.86-19.05-10.52-27.25-11.72-3.85,6.23-8.36,12.06-13.53,17.78-1.24,1.37-2.51,2.68-3.81,3.95,2.43,6.82,3.71,14.09,4.03,21.25.13,2.8-.05,5.68-.49,8.58,3.03,17.4,4.72,34.96,4.7,52.62,0,.23,0,.46,0,.69,23.6-11.49,10.91-35.08,13.09-35.39,3.18,8.93,44.31,7.89,40.25-7.25Z"/>
          <g>
            <path class="cls-19" d="M242.59,335.28c7.16.98,13.01,1.04,19.75,3.75-5.65-.58-18.52-1.09-19.75-3.75Z"/>
            <path class="cls-38" d="M246.84,347.78v-2.5c1.39,1.2.02,2.38,0,2.5Z"/>
          </g>
        </g>
      </g>
      <path class="cls-32" d="M190.81,333.04c.53.28,2.38-.03,2.5,0,1.47.35,2.91,1.19,4.5,1,.27,1.41.49.94.5,1,1.19,10.16-2.94,10.15-11.5,7,1.15-1.83,1.77-8.97,4-9Z"/>
      <g>
        <g>
          <path class="cls-7" d="M193.1,468c-17.25,1.58-91.19-26.61-87.03-9.82.25,1.01,4.19,17.73,8,21,7,6,43,8,67,7,14.33,0,54.02-11.14,55.03-16.18.97-4.82,1-6,2-12-14.1,5.2-30.06,8.63-45,10Z"/>
          <path class="cls-30" d="M166.4,486.42l-1.33-10.67s2.67,10.67,4,10.67h-2.67Z"/>
        </g>
        <path class="cls-31" d="M162.52,224.92c.71,3.53,2.55,6.76,4.23,9.87.53,2.76-4.38.74-7.75,1.41-6.76,1.35-7.99,7.91-3.52-3.52,1.12-2.87,2.56-5.54,3.52-8.46,3.02,1.74,2.48.94,3.52.7Z"/>
        <g>
          <path class="cls-43" d="M231.2,319.08s2.01-1.33,2-1c.79.22,24.08-24.13,27-32,.78-2.09,5-16,3.64-22.19-2.22-8.65-5.33-16.92-11.1-23.73-11.06-13.05-23.06-9.92-32-12.75-2.06,4.39-4.56,8.65-7.5,12.5-1.79,6.55-15.09,23.07-21.75,23.5-9.38.61-14.95-13.49-21.25-17.5.77,7.01-1.52,13.2-8,16.75.27,1.15,3.33-2.49,4,2.75,4.99-2.53-2.85,6.03-6.25,6.5-7.5,1.03-10.54-8.74-11.25-14.75-.29-2.47-.34-9.47,1-8.75-.4-5.91,2.16-10.9,5-16-.53.21.22-1.48-3,1.75-3.25,3.26-20.49,27.48-22.25,27.75-.29.04-5.13-2.48-5.25-2.75-1.4-3.12-.03-30.67-2.75-32.25-.73-.42-3.62.87-3.25-1-7.49.57-11.19.92-18.25,5-10.18,5.89-20.87,23.02-18.25,28.25,3.46,6.92,12.46,17.92,19.46,23.92,1.88,1.61,3.84-.93,4.94-2.87-3.33,7.68-9.15,19.78-7.94,29.87,1.37,11.43,6.94,17.95,11,21,2.73,2.05,9,4,9,4,0,0,5.05,5.22-1,15-2.44,3.95-9.95,14.22-18.96,37.33-4.86,19.13-8.8,38.44-11.5,58-.3,2.14-.09,4.45-1,6.5,14.74,9.85,38.13,13.18,55.5,15,17.19,1.8,34.75,2.58,52,1,14.94-1.36,30.9-4.79,45-10,4.67-1.72,10.18-4.03,14.5-6.5-2.17-15.61-5.7-30.88-10-46-3.23-11.34-6.45-22.5-12-33-7.44-5.87-5.13-31.09-3.95-43.02l4.42-10.3Z"/>
          <path class="cls-38" d="M227.2,323.08c.04.06.06.13.09.21-.01-.17-.04-.24-.09-.21Z"/>
          <path class="cls-38" d="M227.29,323.29c.02.22,0,.59-.03,1.11.11-.46.12-.84.03-1.11Z"/>
        </g>
        <path class="cls-38" d="M230.6,370.5c-4.87-6.97-4.71-26.63-3.53-39.53,2.34-3.03,4.3-6.79,5.03-10.22.97-3.58.43-15.82-2.75-24.75-1.58.23,4.64,12.67-.78,23.88-2.11,2.97-4.93,6.89-9.43,9.94-2.21,1.34-4.8,2.56-7.86,3.61-5.94,1.64-13.75,1.73-24.21-1.26.64.18,35.3,40.12,43,56,7.48,15.45,16.24,62.78,15,67,.46-.1,6.78-3.39,10-5,2-1-2.74-48.58-24.47-79.67Z"/>
        <path class="cls-38" d="M93.2,275.08s7,3,13-1c6.13-4.09-3,13-3,13,0,0-6.11-5.26-10-12Z"/>
        <path class="cls-16" d="M159.16,291.79c-3.13,1.02-3.92-4.65-1-5,2.63-.31,3.1,4.32,1,5"/>
        <path class="cls-16" d="M159.16,311.79c-3.13,1.02-3.92-4.65-1-5,2.63-.31,3.1,4.32,1,5"/>
        <g>
          <path class="cls-38" d="M159.23,225.41c-.68,2.07-1.7,3.96-2.5,6-1.83-.3-1.9.96-2,1-.53.21.22-1.48-3,1.75-3.25,3.26-20.49,27.48-22.25,27.75-.29.04-5.13-2.48-5.25-2.75-1.4-3.12-.03-30.67-2.75-32.25-.73-.42-3.62.87-3.25-1,2.03-.15,3.94.87,6,.5-.58,8.83-.24,18.16,6.75,24.5.41,0,3.62-3.92,4.25-4.5,6.77-6.24,12.8-13.26,19.5-19.5.93-.87,2.32-1.39,3-2.5.19.17,1.22.84,1.5,1Z"/>
          <path class="cls-38" d="M149.73,248.41c.06.91-.04,1.84,0,2.75.18.49,1.14.92,1.5,1.25-4.75,6.42,6.79,10.22,2.75,9.5-.51-.09-1.95-1.38-2.5-2,2.35,8.5,7.18,9.34,14.75,5.5,4.99-2.53-2.85,6.03-6.25,6.5-7.5,1.03-10.54-8.74-11.25-14.75-.29-2.47-.34-9.47,1-8.75Z"/>
          <g>
            <path class="cls-25" d="M202.24,209.42c2.5,7.39,10.09,15.33,18.49,17.99-2.06,4.39-4.56,8.65-7.5,12.5-3.73,4.89-16.44,18.28-22.75,17.5-5.61-.69-23.98-26.03-26.75-32.5,10.69-3.61,21.25-9.81,28.51-18.49-.28-2.07-1.61-5.95-2-8,5.71.57,8.95,9.11,12,11Z"/>
            <path class="cls-38" d="M163.73,224.91c2.77,6.47,21.14,31.81,26.75,32.5,6.31.78,19.02-12.61,22.75-17.5-1.79,6.55-15.09,23.07-21.75,23.5-9.38.61-16.73-11.55-21.25-17.5-1.99-2.61-2.26-3.47-2.99-5.61-.43-1.28-.48-1.79-1-3-1.09-2.53-1.4-4.18-1.51-4.39-1.19-2.2-2.49-4.5-3-7,.11-.03-.48-.16,2-1Z"/>
            <g>
              <path class="cls-22" d="M147.73,208.91c-1.42-.22-1.75,4.51-2.5,7-2.73,9.06-10.13,26.79-10.5,28.25-.16.62-.16,2.32.5,2.25-.63.58-3.84,4.5-4.25,4.5-6.99-6.34-7.33-15.67-6.75-24.5,6.55-3.95,11.23-9.94,15.5-16,2.87-4.07,4.54-9.14,8.5-12.5-.31,3.11-.95,8.1-.5,11Z"/>
              <path class="cls-25" d="M154.73,226.91c-6.7,6.24-12.73,13.26-19.5,19.5-.66.07-.66-1.63-.5-2.25.37-1.46,7.77-19.18,10.5-28.25q4.75,5.5,9.5,11Z"/>
              <path class="cls-9" d="M147.73,208.91c.63,4.03,3.64,6.92,6,10,.61.79,3.74,5.28,4,5.5-.68,1.11-2.07,1.63-3,2.5q-4.75-5.5-9.5-11c.75-2.49,1.08-7.22,2.5-7Z"/>
            </g>
          </g>
        </g>
        <g>
          <path class="cls-21" d="M170.24,246.29c.77,7.01-1.66,12.91-8.14,16.46.27,1.15,3.33-2.49,4,2.75-7.57,3.84-12.4,3-14.75-5.5.55.62,1.99,1.91,2.5,2,4.04.72-7.5-3.08-2.75-9.5,1.1.99,9.96,4.57,10.75,4,.98-.71-.66-3.37-.25-4.75.3-1.02,3.05-1.61,4-3,1.53-2.24.81-6.54,3-8.25.72,2.14,1.37,3.34,1.64,5.79Z"/>
          <path class="cls-21" d="M156.6,231.51c-3.17,8.11-2.29,3.46,2.5,2.5-5.47,4.24-3.9,6.84-3.25,13,5.58-11.84,6.28,4.99,7.25-7.25q2-1.37,4-2.75c.52,1.21,1.07,2.22,1.5,3.5-2.19,1.71-1.47,6.01-3,8.25-.95,1.39-3.7,1.98-4,3-.41,1.37,1.23,4.04.25,4.75-.79.57-9.65-3.01-10.75-4-.36-.33-1.32-.76-1.5-1.25-.04-.91.06-1.84,0-2.75-.4-5.91,2.16-10.9,5-16,.1-.04.17-1.3,2-1Z"/>
          <path class="cls-36" d="M167.1,237.01q-2,1.37-4,2.75c-.97,12.24-1.67-4.59-7.25,7.25-.65-6.16-2.22-8.75,3.25-13,2.39-.48,5.88.95,5.5-1,.11.21,1.41,1.47,2.5,4Z"/>
        </g>
      </g>
      <path class="cls-38" d="M203.32,388.15c-1.15-5.76-4.37-17.01-11.93-17.01h-76.16c1.21-1.62,2.19-2.92,2.84-3.96,15-24,6.04-30.67,6.04-30.67,5,0,10-3,10-3-6,3-16.04,1.67-16.04,1.67,0,0,1.12,1.84,1,5-.12,3.34-1.54,8.12-3.96,12.33-4,6.95-7.14,12.93-9.58,17.88-2.76,4.78-4.86,10.17-6.12,13.6-.92,2.33-1.31,3.52-1.31,3.52-4.86,19.13-9.34,45.12-12.04,64.67,6.62,4.02,7,4,7,4,0,0-1.77-11.98-.57-26.5.52-6.3,4.96-11.6,11.09-13.18l97.02-25.04c1.75,0,3.06-1.6,2.71-3.32Z"/>
      <g>
        <rect class="cls-40" x="20.29" y="270.53" width="124.7" height="4.42" transform="translate(-5.75 1.81) rotate(-1.21)"/>
        <rect class="cls-40" x="21.02" y="305.04" width="124.7" height="4.42" transform="translate(-6.48 1.83) rotate(-1.21)"/>
        <rect class="cls-40" x="21.8" y="341.65" width="124.7" height="4.42" transform="translate(-7.25 1.86) rotate(-1.21)"/>
        <path class="cls-1" d="M144.07,327.55c.26,1.11.46,2.08.63,3.02-.16-.94-.37-1.9-.63-3.02.05-.08.14-.1.25-.07-.11-.03-.2-.01-.25.07Z"/>
        <path class="cls-1" d="M137.35,339.68c.04-.48.1-.92.16-1.32-.07.41-.12.85-.16,1.32Z"/>
        <path class="cls-1" d="M137.52,338.36c.21-1.22.53-2.15.93-2.84-.4.69-.72,1.62-.93,2.84Z"/>
        <path class="cls-1" d="M145.12,327.9c-.28-.15-.59-.37-.81-.43.22.06.53.28.81.43Z"/>
        <path class="cls-1" d="M104.65,309.72c-3.08-.03-6.15-.07-9.23-.13-.18,0-.33,0-.47,0,.14,0,.3-.01.47,0,3.08.06,6.15.1,9.23.13Z"/>
        <path class="cls-1" d="M145.45,328.03c-.1-.02-.21-.07-.32-.13.12.06.23.11.32.13Z"/>
        <path class="cls-1" d="M139.32,334.44c.16-.13.32-.24.48-.32-.16.09-.32.19-.48.32Z"/>
        <path class="cls-1" d="M141.93,367.97c-.84.02-1.7.01-2.56,0,.86,0,1.72.01,2.56,0Z"/>
        <path class="cls-20" d="M157.17,367.91c-.72-.12-1.16-.24-1.41-.37-.31.11-.66.2-1.07.27-1.01.18-2.5.29-4.68.38-.87.03-4.35.04-5.44-.32-.02-.04-.04-.07-.07-.11-.03.04-.06.07-.11.07-.8.08-1.62.12-2.46.14s-1.7.01-2.56,0c-1.72-.02-3.45-.05-5.09.07-.07,0-1.1.73-1.23.74-28.34,1.79-61.56.41-90.47,1.91l-14.92-.39c.69-.56,1.74-3.22-.3-4.08-.2-.08-.93-.33-1.72-.24-.02.04-.04.08-.07.11-1,.61-5.91,1.2-8.91.47,0-.01,0-.04,0-.08-.31-.02-.55,0-.98.18-.4.16-2.11,2.66.34,3.87-4.48.09-7.18-.12-10.34,1.66-1.77,1-7.03,11-5.39,13.6l171.71-3.63c-.41-19.51-7.95-13.28-14.85-14.24ZM19.57,368.83c1.6.2,3.93-.25,5.68-.12-.47,3.18-12.66,1.09-5.68.12ZM14.93,371.98l146.88-3.11c2.68.04,5.58-.59,7.34,3.22l-164.44,3.3c1.14-4.65,7.01-2.97,10.22-3.41Z"/>
        <path class="cls-40" d="M161.8,368.88l-146.88,3.11c-3.21.44-9.08-1.24-10.22,3.41l164.44-3.3c-1.77-3.8-4.66-3.18-7.34-3.22Z"/>
        <path class="cls-2" d="M25.25,368.71c-1.74-.13-4.08.32-5.68.12-6.98.97,5.2,3.06,5.68-.12Z"/>
        <path class="cls-37" d="M145.61,249.61c1.85.81,4.34.91,6.02-.48-1.96.47-4.02.46-6.02.48Z"/>
        <path class="cls-2" d="M25.58,366.08s.04-.07.07-.11c1.38-2.25.43-25.97.2-34.68-.06-2.24-1.96-56.81-1.93-72.01l-.62-.7-8.63.54c-.54,13.79-.31,33.41.89,47.16-1.38,2.47,1.21,57.72,1.12,60.19,0,.04,0,.07,0,.08,2.99.74,7.9.15,8.91-.47Z"/>
        <path class="cls-44" d="M142.3,312.42c.14-.4.24-.83.33-1.26.13-.65.21-1.3.35-1.88.27-1.16-.11-2.98.26-4.26l-.02-.71c-4.29,7.45-6.46,1.05-7.26.86-.07-.02-.25.44-.52.37.2,2.41,1.36,11.99,5.86,8.39.48-.39.79-.92,1-1.52Z"/>
        <path class="cls-39" d="M135.97,305.18c.8.19,2.97,6.58,7.26-.86,1.62-10.61-9.02-13.57-7.78,1.23.27.07.45-.38.52-.37ZM139.36,298.01c4.07-.79,2.98,5.73-.61,4.63-1.75-.54-1.7-4.18.61-4.63Z"/>
        <path class="cls-14" d="M138.75,302.64c3.59,1.1,4.68-5.42.61-4.63-2.31.45-2.36,4.09-.61,4.63Z"/>
        <path class="cls-44" d="M137.3,343.13c.72,11.63,6.42,10.12,7.23,6.06.39-1.98-.45-4.29-.49-6.2-4.9,3.67-4.5-.92-6.74.14Z"/>
        <path class="cls-39" d="M141.77,333.95c-.16-.05-.32-.08-.48-.1-.49-.06-1,.01-1.49.27-.16.09-.32.19-.48.32-.31.26-.61.61-.87,1.07-.4.69-.72,1.62-.93,2.84-.07.41-.12.85-.16,1.32-.06.71-.09,1.51-.08,2.38,0,.35,0,.71.02,1.06,2.24-1.07,1.84,3.53,6.74-.14-.04-2.25.91-6.16-.88-8.14-.36-.4-.85-.72-1.39-.89ZM140.94,338.79c-.8.23-1.71-1.97-1.12-2.46.86-.7,2.42,2.09,1.12,2.46Z"/>
        <path class="cls-51" d="M139.82,336.33c-.59.49.32,2.69,1.12,2.46,1.3-.37-.26-3.17-1.12-2.46Z"/>
        <path class="cls-51" d="M52.98,342.07c1.85-.61,0-3.71-2.19-2.79-2.19.91-.11,3.56,2.19,2.79Z"/>
        <path class="cls-10" d="M66.65,342.14l-.7.37c-.47,5.09-6.32,3.72-7.44.69-.07-.19-.51-3.88-.44-4.07-5.04,15.65,10.88,23.38,8.58,3.01Z"/>
        <path class="cls-35" d="M61.58,337.63c1.13-.12,2.03-1.22,3.59,1.7.7,1.32.94,1.46.78,3.18l.7-.37c-.91-8.07-6.97-8.01-8.58-3.01.18-.49,2.69-1.41,3.52-1.49Z"/>
        <path class="cls-35" d="M58.51,343.2c1.12,3.03,6.97,4.4,7.44-.69.16-1.72-.07-1.85-.78-3.18-.87,3.6-4.37.77-3.59-1.7-.83.09-3.34,1.01-3.52,1.49-.07.19.37,3.88.44,4.07Z"/>
        <path class="cls-48" d="M61.58,337.63c-.79,2.47,2.72,5.3,3.59,1.7-1.55-2.92-2.45-1.82-3.59-1.7Z"/>
        <path class="cls-46" d="M35.12,344.94c-1.72,1.49-5.3,1.63-6.4-.57-1.71,0,.37,3.93-1.34,3.93.91,5.62,6.23,10.61,8.13-1.59-.53.06-.36-.8-.39-1.77Z"/>
        <path class="cls-49" d="M35.12,344.94c-.07-2.43.27-2.95-.81-4.95-1.68,3.67-2.65,1.52-3.16,1.49-2.14-.12-4.25-.77-2.42,2.89,1.1,2.2,4.68,2.06,6.4.57Z"/>
        <path class="cls-34" d="M34.3,339.98c-2.25-4.14-5.66-.94-4.96.28.33.57,1.46-1.23,1.8,1.2.51.03,1.48,2.19,3.16-1.49Z"/>
        <path class="cls-40" d="M153.66,258.64c-.03-.65.06-3.89-.33-5.65-.24-1-.92-2.68-1.14-2.82-7.78,1.43-8.53-.93-9.09,1.35h0c-1.6,3.2.63,11.9.75,15.33.4,10.98.24,21.98.82,32.95,0,0,0,0,0,0,.11.46-.25,9.42.01,14.83.38,7.75-.08,15.38.02,15.93.05.31.1.62.15.93.19,1.24.32,2.49.45,4.01.39,4.54-.19,27.15.94,27.88,1.93,1.02,6.82,1.3,8.16-.35-.86-2.59-.14-19.23-.45-27.11,0,0,.01,0,.02,0,0,0,.15-68.01-.31-77.28Z"/>
        <path class="cls-20" d="M24.02,256.43c-6.08,3.01-11.96-1.25-11.36,2.34.54,3.24,18.5,2.74,11.36-2.34Z"/>
        <path class="cls-20" d="M152.95,253.7c-6.08,3.01-11.96-1.25-11.36,2.34.54,3.24,18.5,2.74,11.36-2.34Z"/>
        <path class="cls-4" d="M134.35,270.79c1.25-.84,1.32,4.15,5.89,1.65.89-.48.43-2.41,2.28-1.11M138.61,262.53c.24-.07,2.66,1.7,2.39,4.03-.36,3.13-4.47,2.58-4.95.81-.32-1.17,2.27-4.77,2.56-4.85Z"/>
        <path class="cls-18" d="M141,266.56c.26-2.33-2.15-4.1-2.39-4.03-.29.08-2.88,3.68-2.56,4.85.48,1.76,4.6,2.32,4.95-.81Z"/>
        <path class="cls-20" d="M144.5,367.75s.04.07.07.11c1.09.36,4.57.36,5.44.32,2.18-.09,3.67-.2,4.68-.38.41-.07.76-.17,1.07-.27,1.78-.61,2.06-1.77,1.46-3.55-.51-1.51-2.8-.89-2.82-.94-1.33,1.65-6.23,1.37-8.16.35-.3-.16-.74-.1-1.11.06-.19.08-.37.19-.49.32-.22.22-1.67,1.51-.15,3.98Z"/>
        <path class="cls-35" d="M38.17,338.31c-2.27,3.22-1.08,19.25,4.97,16.75,4.11-1.69,4.55-12.71,2.86-16.03-1.47-2.89-5.96-3.36-7.82-.72ZM41.89,337.69c4.22-.47,3.06,4.32,3.16,6.85-8.09,6.79-8.41-6.28-3.16-6.85Z"/>
        <path class="cls-13" d="M45.05,344.55c-.1-2.54,1.06-7.32-3.16-6.85-5.25.58-4.93,13.64,3.16,6.85Z"/>
        <path class="cls-44" d="M142.29,271.64c-.46,10.05-7.06,12.23-8.17-.54,1.25-.84,1.32,4.15,5.89,1.65.89-.48.43-2.41,2.28-1.11"/>
        <path class="cls-39" d="M142.29,271.64c-1.85-1.3-1.4.63-2.28,1.11-4.58,2.5-4.64-2.49-5.89-1.65-1.11-12.72,8.81-13.42,8.17.54"/>
        <path class="cls-14" d="M138.38,262.85c.24-.07,2.66,1.7,2.39,4.03-.36,3.13-4.47,2.58-4.95.81-.32-1.17,2.27-4.77,2.56-4.85Z"/>
        <g>
          <path class="cls-44" d="M110.11,297.88c8.57-1.74,5.9,18.88.74,18.09-4.6-.71-6.5-16.92-.74-18.09Z"/>
          <path class="cls-39" d="M110.01,301.43c-.28,2.32,2.64,2.61,3.93,1.34,1.35,3.87-1.48,5.88-2.9,5.74-2.85-.28-4.85-9.05-1.04-7.08Z"/>
          <path class="cls-14" d="M113.94,302.76c-1.29,1.28-4.21.98-3.93-1.34.24-1.98,2.59-2.52,3.93,1.34Z"/>
        </g>
        <path class="cls-44" d="M26.24,305.86c.46,4.43,4.35,6.52,6.79,1.99.96-1.78.19-4,1.34-3.76,1.67,13.97-7.39,19.76-8.42,4.44"/>
        <path class="cls-39" d="M25.94,308.53c-3.71-9.85,7.18-14.87,8.42-4.44-1.15-.24-.38,1.97-1.34,3.76-2.44,4.54-6.33,2.45-6.79-1.99"/>
        <path class="cls-14" d="M29.87,301.35c3.22-.54,3.02,5.11-.27,3.91-1.47-.54-1.58-3.6.27-3.91Z"/>
        <g>
          <path class="cls-44" d="M94.49,306.37c-.02,15.11-8.84,12.53-8.89-.88.72-2.31.13-5.03,2.16-6.79-3.58,6.8,1.61,13.69,5.33,8.58.77-1.06.35-3.82,1.4-.92Z"/>
          <g>
            <path class="cls-39" d="M94.49,306.37c-1.05-2.9-.63-.14-1.4.92-3.72,5.1-8.91-1.79-5.33-8.58-2.03,1.76-1.44,4.48-2.16,6.79-.01-3.49.06-8.59,4.97-8.27,4.61.3,3.92,5.87,3.92,9.15Z"/>
            <path class="cls-14" d="M89.93,300.43c1.92-.32,3.26,1.22,2.37,2.97-1.86,3.65-6.39-2.3-2.37-2.97Z"/>
          </g>
        </g>
        <g>
          <path class="cls-44" d="M134.63,304.1c1.12,15.26-7.95,14.33-8.14,1.24.91-2.25,1.74,2.4,3.43,2.77,2.9.63,3.29-3.85,4.71-4Z"/>
          <g>
            <path class="cls-39" d="M134.63,304.1c-1.42.16-1.8,4.63-4.71,4-1.69-.36-2.52-5.02-3.43-2.77-.15-10.53,7.42-10.98,8.14-1.24Z"/>
            <path class="cls-14" d="M129.04,299.96c3.15-1.51,3.99,4.01.79,3.89-1.89-.07-1.76-3.42-.79-3.89Z"/>
          </g>
        </g>
        <g>
          <path class="cls-44" d="M98.95,298.82c.72.78-1.42,2.03-1.7,3.76-.75,4.78,3.22,7.51,5.42,4.5,1.31-1.79-.02-4.4,2.09-1.64.27,6.6-1.65,13.46-6.2,8.83-2.86-2.91-3.82-13.34.38-15.45Z"/>
          <g>
            <path class="cls-39" d="M104.77,305.44c-2.12-2.76-.79-.15-2.09,1.64-2.2,3.01-6.17.28-5.42-4.5.27-1.73,2.41-2.98,1.7-3.76,5.02-2.52,5.67,2.96,5.82,6.62Z"/>
            <path class="cls-14" d="M100.22,300.22c1.69-.47,3.37,2.47,1.84,3.16-.91.41-3.96-2.57-1.84-3.16Z"/>
          </g>
        </g>
        <g>
          <path class="cls-44" d="M125.73,303.58c.43,2.87.21,10.63-2.76,12.13-6.19,3.13-8.09-15.64-3.39-17.67-3.44,7.45.59,12.02,3.58,9.86,1.86-1.35,1.18-4.4,2.57-4.31Z"/>
          <g>
            <path class="cls-39" d="M125.73,303.58c-1.39-.09-.71,2.97-2.57,4.31-2.99,2.16-7.02-2.41-3.58-9.86,3.2-1.39,5.68,2.4,6.15,5.55Z"/>
            <path class="cls-14" d="M120.86,299.78c2.48-1.06,4.93,2.18,2.2,3.5-2.66,1.29-4.32-2.6-2.2-3.5Z"/>
          </g>
        </g>
        <g>
          <path class="cls-10" d="M123.08,274.53c1.32.24.29-1.68.84-2.15.32-.28,4.53,4.71,6.54-1.38.43-1.31.14-2.76-.09-4.08-.31-1.81-.11-3.54-2.91-3.49.17-.16-.84-.88,1.74-1.46,5.23,1.66,3.33,15.09,1.79,17.53-3.41,5.41-7.34-1.25-7.91-4.98Z"/>
          <path class="cls-35" d="M129.2,261.98c-2.59.57-1.58,1.29-1.74,1.46-4.74,4.67,2.01,6.93,2.91,3.49.23,1.32.52,2.77.09,4.08-2,6.09-6.21,1.11-6.54,1.38-.55.47.48,2.39-.84,2.15-.67-4.35-1.1-14.85,6.12-12.55Z"/>
          <path class="cls-48" d="M130.37,266.92c-.9,3.44-7.66,1.18-2.91-3.49,2.81-.06,2.6,1.67,2.91,3.49Z"/>
        </g>
        <g>
          <path class="cls-10" d="M119.98,270.5c-.16,12.99-8.39,13.78-9.55,1.62,1.36.2.27-1.94.81-3.57-.1,1.45,1.27,4.56,2.59,4.91,3.8,1.02,3.87-3.49,6.15-2.97Z"/>
          <g>
            <path class="cls-35" d="M119.98,270.5c-2.27-.52-2.35,3.99-6.15,2.97-1.32-.35-2.69-3.46-2.59-4.91-.54,1.63.55,3.76-.81,3.57-1.44-15.11,7.72-11.65,9.06-8.18.59,1.52.51,4.78.49,6.56Z"/>
            <path class="cls-48" d="M115.02,262.44c4.42-.57,3.62,8.47-.6,5.34-2.09-1.55-1.27-5.1.6-5.34Z"/>
          </g>
        </g>
        <g>
          <path class="cls-10" d="M98.37,272.38c-1.11,14.71-8.99,10.29-9.59-.15,2.43-3.76,1.35,3.18,6.24,1.29,1.75-.68,1.69-3.07,3.35-1.14Z"/>
          <g>
            <path class="cls-35" d="M98.37,272.38c-1.66-1.93-1.6.46-3.35,1.14-4.89,1.89-3.81-5.05-6.24-1.29-.15-2.6.26-9.51,3.51-10.37,6.81-1.79,6.39,6.35,6.08,10.52Z"/>
            <path class="cls-48" d="M94.82,263.93c2.5.11,3.04,2.73,1.15,4.23-8.38,2.32-6.98-4.49-1.15-4.23Z"/>
          </g>
        </g>
        <path class="cls-10" d="M79.51,270.11c.17,1.07.93,3.18,2.03,3.68,3.29,1.51,4.1-2.69,6.52-2.27-.03,2.78-.86,11.71-5.29,10.05-4.1-1.54-5.46-14.52-3.39-17.67"/>
        <path class="cls-35" d="M79.38,263.91c2.36-3.59,8.8-4.19,8.68,7.62-2.42-.42-3.23,3.77-6.52,2.27-1.1-.5-1.86-2.62-2.03-3.68"/>
        <path class="cls-48" d="M83.45,263.46c3.94-.31,3.64,8.26-.97,4.28-1.59-1.37-1.6-4.08.97-4.28Z"/>
        <g>
          <path class="cls-10" d="M108.93,268.25c1.32,13.44-5.78,16.34-8.32,9.58-.71-1.89-1.44-10.38-.97-12.22,2.05-.63.02,7.87,4.25,8.07,2.71.13,3.52-4.13,5.03-5.43Z"/>
          <g>
            <path class="cls-35" d="M108.93,268.25c-1.51,1.3-2.32,5.56-5.03,5.43-4.23-.2-2.21-8.7-4.25-8.07,1.31-5.15,7.18-5,8.84-1.78.7,1.35.31,2.99.45,4.43Z"/>
            <path class="cls-48" d="M104.75,263.37c.88-.11,2.86,1.15,3.06,1.89.28,1.07-.48,3.17-1.53,3.4-3.81.85-5.19-4.82-1.53-5.29Z"/>
          </g>
        </g>
        <g>
          <path class="cls-10" d="M45.76,339.34c1.7,3.32,1.25,14.34-2.86,16.03-6.05,2.49-7.24-13.54-4.97-16.75,1.86-2.64,6.35-2.17,7.82.72Z"/>
          <path class="cls-35" d="M41.65,338.01c4.22-.47,3.06,4.32,3.16,6.85-8.09,6.79-8.41-6.28-3.16-6.85Z"/>
        </g>
        <path class="cls-52" d="M135.53,344.46c-.19,0-.38.02-.57.02.19,0,.38-.02.57-.02h0Z"/>
        <g>
          <path class="cls-10" d="M131.12,334.7c8.63-1.54,7.08,22.33-.32,18.46-4.56-2.38-5.27-17.46.32-18.46Z"/>
          <path class="cls-35" d="M135.29,338.87c2.89,9.74-10.69,5.07-5.36-1.66,2.19.37.22,4.52,5.36,1.66Z"/>
          <path class="cls-48" d="M135.29,338.87c-5.14,2.86-3.17-1.29-5.36-1.66,2.01-2.54,4.49-1.26,5.36,1.66Z"/>
        </g>
        <g>
          <path class="cls-44" d="M55.81,344.46c-.04,13.39-7.12,13.18-7.78,1.23,3.08-.32,3.08,1.13,7.78-1.23Z"/>
          <g>
            <path class="cls-39" d="M55.81,344.46c-4.7,2.36-4.7.91-7.78,1.23-.15-2.74-.34-8.33,3.54-8.95,4.8-.77,4.26,4.5,4.25,7.72Z"/>
            <path class="cls-14" d="M50.56,339.6c2.2-.91,4.04,2.18,2.19,2.79-2.3.76-4.38-1.88-2.19-2.79Z"/>
          </g>
        </g>
        <g>
          <path class="cls-10" d="M125.05,341.57l.7-.37c2.3,20.37-13.63,12.64-8.58-3.01-.07.19.37,3.88.44,4.07,1.12,3.03,6.97,4.4,7.44-.69Z"/>
          <path class="cls-35" d="M125.76,341.2l-.7.37c.16-1.72-.07-1.85-.78-3.18-1.55-2.92-2.45-1.82-3.59-1.7-.83.09-3.34,1.01-3.52,1.49,1.61-4.99,7.67-5.05,8.58,3.01Z"/>
          <path class="cls-35" d="M120.69,336.69c-.79,2.47,2.72,5.3,3.59,1.7.7,1.32.94,1.46.78,3.18-.47,5.09-6.32,3.72-7.44.69-.07-.19-.51-3.88-.44-4.07.18-.49,2.69-1.41,3.52-1.49Z"/>
          <path class="cls-48" d="M124.28,338.39c-.87,3.6-4.37.77-3.59-1.7,1.13-.12,2.03-1.22,3.59,1.7Z"/>
        </g>
        <path class="cls-10" d="M27.14,348.61c1.71,0-.37-3.93,1.34-3.93,1.1,2.2,4.68,2.06,6.4.57.03.97-.14,1.83.39,1.77-1.9,12.2-7.22,7.21-8.13,1.59"/>
        <path class="cls-35" d="M27.14,348.61c-.54-3.36-1.03-11.06,3.48-11.79,6.62-1.07,5.27,6.25,4.65,10.19-.53.06-.36-.8-.39-1.77-.07-2.43.27-2.95-.81-4.95-2.25-4.14-5.66-.94-4.96.28.33.57,1.46-1.23,1.8,1.2-2.14-.12-4.25-.77-2.42,2.89-1.71,0,.37,3.93-1.34,3.93"/>
        <path class="cls-48" d="M34.88,345.25c-1.72,1.49-5.3,1.63-6.4-.57-1.83-3.66.28-3.01,2.42-2.89.51.03,1.48,2.19,3.16-1.49,1.09,2,.74,2.52.81,4.95Z"/>
        <path class="cls-48" d="M34.07,340.3c-1.68,3.67-2.65,1.52-3.16,1.49-.34-2.43-1.47-.64-1.8-1.2-.7-1.22,2.71-4.43,4.96-.28Z"/>
        <path class="cls-44" d="M142.84,343.58c-2.19,1.46-2.84,1.23-3.58.64-.81-.37-1.52-.89-2.21-1.52.97,10.59,6.95,10.82,7.24,6.81.14-1.94-.39-7.77-.39-7.77l-.16-.45c-.22.03-.69,2.26-.91,2.29Z"/>
        <path class="cls-39" d="M143.83,342.58c.38-1.67-.91-7.42-.91-7.42-1.64-1.82-6.01-2.13-5.88,7.22,0,.1,0,.21,0,.31,1.32,1.2,2.07,1.93,2.26,2.09.74.59,3.08-.29,3.87-1.03.37-.35.6-.92.65-1.17Z"/>
        <path class="cls-14" d="M139.58,336.65c.86-.7,2.42,2.09,1.12,2.46-.8.23-1.71-1.97-1.12-2.46Z"/>
        <g>
          <path class="cls-20" d="M15.23,258.18c.43.11,3.05-.33,4.07-.44,1.89-.21,3.17-.32,4.94-1.17,1.05-2.41,1.92-3.72,1.28-6.42-.06.02-.66-.8-1.25-.33-.42.33-.53,4.3-3.44,5.04-7.35,1.86-11.84-4.86-8.58-11.18-1.87,2.17-2.31,5.12-1.96,7.85.81,1.2,3.86,6.35,4.93,6.64Z"/>
          <circle class="cls-20" cx="17.92" cy="248.43" r="9.07"/>
          <ellipse class="cls-40" cx="18.45" cy="246.92" rx="8.51" ry="7.58" transform="translate(-5.22 .45) rotate(-1.21)"/>
          <path class="cls-33" d="M17.33,245.58c4.33,2.85,7.11-3.89,1.34-3.58-2.33.12-3.66,2.05-1.34,3.58Z"/>
        </g>
        <g>
          <path class="cls-20" d="M151.65,255.53c-.42.13-3.06-.2-4.09-.27-1.9-.13-3.18-.18-4.99-.96-1.15-2.36-2.08-3.64-1.55-6.36.06.02.62-.83,1.23-.38.44.32.71,4.28,3.65,4.89,7.43,1.55,11.62-5.36,8.1-11.53,1.96,2.09,2.53,5.01,2.29,7.76-.76,1.24-3.59,6.51-4.65,6.84Z"/>
          <circle class="cls-20" cx="148.55" cy="245.91" r="9.07"/>
          <ellipse class="cls-40" cx="147.95" cy="244.43" rx="8.51" ry="7.58" transform="translate(-5.14 3.18) rotate(-1.21)"/>
          <path class="cls-33" d="M149.02,243.04c-4.2,3.03-7.27-3.58-1.49-3.52,2.33.03,3.74,1.9,1.49,3.52Z"/>
        </g>
      </g>
      <g>
        <path class="cls-31" d="M22.64,305c2.79,1.22,17.99,1.54,14.91,7.28-2.32,4.32-21.93-.75-25.67-2.81,10.17,7.43,23.29,5.47,24.58,5.97,4.03,1.54,5.91,5.1,2.22,7.29-4.8,2.84-25.25-6.45-28.56-4.33-4.53-2.96-2.55-10-2.21-14.37,1.52-3.88,6.89-9.55,6.99-7.97.36,5.84.13,2.94.36,6.3.08,1.11,6.38,2.2,7.38,2.64Z"/>
        <path class="cls-31" d="M36.7,331.52c-.04.08,2.66,5.77-15.43,6.26-.81.02-12.05.25-11.54-8.41,8.75-.87,17.96,2.47,26.97,2.15Z"/>
        <path class="cls-8" d="M10.11,318.4c-2.19,1.4-2.01,5.79-.27,7.5,2.2,2.16,22.81,5.32,27.24,4.09-.36.95-.27,1.31-.37,1.54-9.02.32-18.22-3.02-26.97-2.15-.71.07-1.5-.22-2.23-.21-3.17-9.69-3.23-15.87.4-25.12-.34,4.37-2.32,11.41,2.21,14.37Z"/>
        <path class="cls-8" d="M9.61,335.2c-1.84-1.7-1.47-4.09-2.11-6.04.72,0,1.52.28,2.23.21-.51,8.66,10.74,8.5,11.54,8.41,6.39-.69-7.5,1.27-11.66-2.58Z"/>
        <path class="cls-31" d="M39.62,326.86c-.66,2.04-2.48,2.94-2.55,3.12-4.43,1.23-25.03-1.92-27.24-4.09-1.74-1.71-1.91-6.1.27-7.5.95.62,14.71,4.39,17.27,4.92,6.58,1.36,11.28-1.39,12.24,3.54Z"/>
        <path class="cls-8" d="M39.62,326.86c-.96-4.93-5.66-2.18-12.24-3.54-2.56-.53-16.32-4.3-17.27-4.92,3.31-2.12,23.76,7.16,28.56,4.33.41,1.76,1.65,1.96.95,4.14Z"/>
      </g>
      <g>
        <path class="cls-31" d="M190.86,332.82c-2.23.03-2.85,7.17-4,9-.09.15-2.16,2.19-2.5,2.5-6.1,5.52-27.48,14.95-35.5,12.5-1.98-.6-3.11-2.17-4.5-3.5,18.99,3.66,8.71.64,6.5-6.25-4.34-13.54,3.99-12.61-6.5-14.75-5.58-1.14-11.5-.48-16.5-3.5,1.12-4.9,15.39-4.04,20-4.5,4-.4,7.98-.98,12-1.25-2.04-2.4-4.57-4.24-6.5-6.75,25.12-3.65,35.58,15.5,37.5,16.5Z"/>
        <path class="cls-3" d="M144.37,332.32c10.49,2.14,2.16,1.2,6.5,14.75,2.21,6.89,12.43,10.22-6.5,6.25-3.76-.79-13.23-13.22-3-13.75-4.83.25-9.22-2.43-13-5.75,0-.17,0-.33,0-.5,1.32-2.47,12.76,2.1,16-1Z"/>
        <path class="cls-8" d="M144.37,353.32c1.39,1.33,2.52,2.9,4.5,3.5q.25,1.5.5,3c-11.02-3.09-14.33-13.22-14.33-13.22,0,0,1.22-4.38.83-5.03-.18-.3-3.77-.43-6.5-2.75-.26-1.76-.89-3.01-1-5,3.78,3.32,8.56,3.82,13,5.75-4.33,0-2.92,7.03-2.92,7.03,0,0,4.57,5.44,5.92,6.72Z"/>
        <path class="cls-8" d="M144.37,332.32c-3.24,3.1-14.68-1.47-16,1-.07-1.41-.86-2.91-.5-4.5,5,3.02,10.91,2.36,16.5,3.5Z"/>
      </g>
      <path class="cls-32" d="M190.66,332.75c.53.28,2.38-.03,2.5,0,1.47.35,2.91,1.19,4.5,1,.27,1.41.49.94.5,1,1.19,10.16-2.94,10.15-11.5,7,1.15-1.83,1.77-8.97,4-9Z"/>
      <path class="cls-38" d="M277.63,296.67c-1.26.8-5.83,5.94-17.15,11.62-11.33,5.68-26.51,10.97-27.91,10.14-4.75-2.85.75-17.12,12.08-22.8,11.07-5.55,29.62-.57,32.57.76.33.15.56.18.41.28Z"/>
      <g>
        <path class="cls-3" d="M284,359.23c-2.28,1.03,9.55,42.51-27.1,22.94-6.5-3.47-11.46-6.42-15.41-8.95.52-1.27.91-2.6,1.37-3.9-15.97-6.72-31.63-14.03-46.75-22.5-.41.05-10.72-1.83-11.75-2.5-6.1,5.52-27.48,14.95-35.5,12.5l.5,3c8.59,2.41,12.27,1.9,20.5-1.5.44-.18,7.72-4.03,8.5-4.5.99-.6,5.91-4.53,7.97-5.98,7.09,2.86,25.28,13.94,36.29,20.16,14.94,10.99,31.89,24.77,44.66,26.12,11.23,1.19,18.8-5.71,20.92-16.8.13-2.84.22-20.09-4.2-18.1Z"/>
        <path class="cls-3" d="M266.66,282.12c.44,2.69,1.4,7.09,2.01,9.74-4.39,3.23-23.02,4.62-24.01,10.43-.62,3.63,6.55,30.95,7.85,37.17,9.92,3.97,22.97,7.38,28.43,17.37-7.99-3.72-16.97-10.06-24.97-13.47-5.01-2.13-11.5-3.63-12.74-4.14.01-.25.04-.8.06-1.05.68-8.8-2.35-13.68-3.95-18.28-1.23-3.54-5.15-24.73-4.46-27.06.15-.5,1.78.37,1.53-1.16.32,0,.65.05.98.05,1.41,0,2.57-.2,3.93-.29,8.84-.59,17.72-4.56,25.35-9.32Z"/>
        <path class="cls-8" d="M236.41,291.68c.26,1.53-1.38.66-1.53,1.16-.68,2.33,12.57,37.11,8.38,45.89-1.96-6.32-15.09-38.38-15.48-40.6-.53-3.03-.58-8.04-.58-8.04,0,0,6.29,1.54,9.22,1.59Z"/>
        <path class="cls-31" d="M285.5,353.84c-5.08-20.74-12.04-41.11-16.83-61.98-4.39,3.23-23.02,4.62-24.01,10.43-.62,3.63,6.55,30.95,7.85,37.17,9.92,3.97,22.97,7.38,28.43,17.37-7.99-3.72-16.97-10.06-24.97-13.47-5.01-2.13-11.5-3.63-12.74-4.14-5.24-2.13-14.58-.38-20.4-.97-.82-.17-1.66-.34-2.5-.5-.45-.15-.86-.32-1.21-.55.02.05.04.18.06.34-2.42-.44-4.97-.85-7.82-1.23-4.32-.57-9.91-1.97-14.23-2.54,1.19,10.16-1.71,11.19-10.27,8.04-.09.15-2.16,2.19-2.5,2.5,1.2.78,35.78,14.99,73.51,40.68,21.82,14.86,30.45-10.51,30.32-7.68,1.7-8.94-.64-15.08-2.69-23.49Z"/>
      </g>
      <path class="cls-43" d="M232.32,251.05s21.01-11.76,28.82,5.52c7.81,17.28,12.6,36.81,16.53,40.03,0,0-36.96-14.23-45.35,14.73l-19.54-45.21,19.54-15.06Z"/>
      <path class="cls-38" d="M229.17,296.56c-2.33.34,12.25,27.11-18.25,37.5,4.03.54,7.47,1.12,10.77,1.8,6.12-4.67,9.26-9.96,10.23-14.55.5,1.38,1.7-15.86-2.75-24.75Z"/>
    </g>
  </g>
</svg>