<?xml version="1.0" encoding="UTF-8"?>
<svg id="Layer_2" data-name="Layer 2" xmlns="http://www.w3.org/2000/svg" viewBox="0 0 286.36 486.37"><defs>
    <style>
      .cls-1 {
        fill: none;
      }

      .cls-2 {
        fill: #52d9c5;
      }

      .cls-3 {
        fill: #c45f41;
      }

      .cls-4 {
        fill: #232323;
      }

      .cls-5 {
        fill: #3a310b;
      }

      .cls-6 {
        fill: #8e3226;
      }

      .cls-7 {
        fill: #f7b750;
      }

      .cls-8 {
        fill: #a34737;
      }

      .cls-9 {
        fill: #cf99ce;
      }

      .cls-10 {
        fill: #281a26;
      }

      .cls-11 {
        fill: #f0935d;
      }

      .cls-12 {
        fill: #bdeded;
      }

      .cls-13 {
        fill: #c12e4b;
      }

      .cls-14 {
        fill: #c35f41;
      }

      .cls-15 {
        fill: #ddcfe4;
      }

      .cls-16 {
        fill: #f8ae89;
      }

      .cls-17 {
        fill: #7f2c86;
      }

      .cls-18 {
        fill: #dcbdd8;
      }

      .cls-19 {
        fill: #a66bb7;
      }

      .cls-20 {
        fill: #fbfbfc;
      }

      .cls-21 {
        fill: #cc5637;
      }

      .cls-22 {
        fill: #c386c3;
      }

      .cls-23 {
        fill: #fcf8e9;
      }

      .cls-24 {
        opacity: .2;
      }

      .cls-24, .cls-25 {
        fill: #7aebe9;
      }

      .cls-26 {
        fill: #ac4a30;
      }

      .cls-27 {
        fill: #c9892d;
      }

      .cls-28 {
        fill: #e6794d;
      }

      .cls-29 {
        fill: #efd870;
      }

      .cls-30 {
        fill: #d8fcfc;
      }

      .cls-31 {
        fill: #c392c2;
      }

      .cls-32 {
        fill: #661b6a;
      }

      .cls-33 {
        fill: #d7643c;
      }

      .cls-34 {
        fill: #bfcbb8;
      }

      .cls-35 {
        fill: #95409b;
      }

      .cls-36 {
        fill: #e67a4d;
      }

      .cls-37 {
        fill: #353535;
      }

      .cls-38 {
        fill: #309c97;
      }

      .cls-39 {
        fill: #bb7ba0;
      }

      .cls-40 {
        fill: #320532;
      }

      .cls-41 {
        fill: #1d121b;
      }
    </style>
  </defs>
  <g id="MISC">
    <g>
      <g>
        <g>
          <path class="cls-21" d="M163.1,194.37c-9.09,11.59-21.81,20.53-36,24.5-2.36-3.08-5.37-5.97-6-10-.45-2.9.19-7.89.5-11,.07-.73.15-4.25.5-4.86,12.44,2.19,27.65-1.76,38.5-7.64,1.21,2.88,1.66,6.03,2.5,9Z"/>
          <path class="cls-28" d="M165.1,199.87c.39,2.05.72,4.18,1,6.25-7.26,8.67-18.31,15.14-29,18.75-2.48.84-1.89.97-2,1-.74.17-.36.73-2.5-.5-.28-.16-1.31-.83-1.5-1-.26-.22-3.39-4.71-4-5.5,14.19-3.97,26.91-12.91,36-24.5.67,2.38,1.94,5.17,2,5.5Z"/>
        </g>
        <g>
          <path class="cls-11" d="M193.87,96.87s-6.44-19.74-10.08-25.56c-4.81-7.69-19.05-20.76-27.72-23.4-8.71-2.65-26.18-2.64-36.4-.73,0,0-32.82,1.73-41.14,39.7-.94,4.3,3.47,25.35-1.5,42.9-.09.32-.14.65-.14.98v7.55c2.59,9.21,3.89,21.19,12.53,31.65,7.61,9.21,31.57,23.86,35.88,24.27,2.26.08,9.06-1.41,19.05-5.59,9.16-3.84,22.2-12.35,27.89-20.52,2.79-4.01,12.29-22.94,10.07-25.68,7.3-3.43,16.67-4.19,16.67-15.97,0-5.05-2.94-19.94-5.1-29.59ZM93.49,145.06c1.03.09,2.08.13,3.16.11-1.03.04-2.09,0-3.16-.11ZM150.29,142.04c.99.49,2.08.94,3.27,1.35-1.16-.38-2.25-.83-3.27-1.35Z"/>
          <path class="cls-33" d="M198.76,126.28c.06-.09,1.34-1.31-1.39-12.61-.8-3.84-2.6-12.74-2.6-12.74,0,0-.45-.64-1.11-1.37-.54-.59-1.23-1.23-1.8-1.71-7.14-5.96-20.51-5.64-24.33-5.66-8.48-.09-16.76,1.17-20.81,6.02-4.18,5.01-3.97,13.78-2.53,24.56.31,1.3,1.12,4,1.08,3.36-.1-1.67,1.06-6.72,2.37-9.57,2.25-4.92,4.62-8.13,10.93-10.58,15.64-6.05,31.83,20.59,32.55,21.79-1.8,6.6-5.1,12.32-11.07,14.7,3.89.67-5.67,21.3-8.64,25.56-5.68,8.17-18.56,15.97-27.72,19.8-9.98,4.18-16.68,6.28-18.99,6.23.17.06.07.12.64.16,15.33,1.15,24.21-2.52,37.43-10,19.85-11.23,20.3-13.57,30.24-32.4,1.1-2.09,1.09-4.53,2.88-6.84.38-.49,9.73-1.54.72-7.92,13.28-19.13,20.35-3.89,12.96,6.48-6.8,9.55-18.62-4.15-10.8,11.88,25.69,5.04,20.19-57.31,0-29.16Z"/>
          <path class="cls-26" d="M198.76,155.45c-2.56-.5-3.24-2.94-5.76-3.6,1.1-2.09,1.09-4.53,2.88-6.84.38-.49,9.73-1.54.72-7.92,13.28-19.13,20.35-3.89,12.96,6.48-6.8,9.55-18.62-4.15-10.8,11.88Z"/>
        </g>
        <path class="cls-16" d="M77.18,137.04c3.5,16.27,5.03,23.58,11.87,32.34,4.4,5.63,24.09,20.16,35.68,24.72-5.49-.09-34.05-16.97-40.23-24.75-6.68-8.4-8.31-18.44-8.47-25.05-.04-1.66.29-4.97.48-6.62.08-.68.39-2.73.39-2.73,0,0,.18,1.59.29,2.09Z"/>
        <path class="cls-28" d="M86.42,100c-1.88.06,1.36-4.44,2.23-6.28,1.06-2.92,1.12-6.36,2-9.25,6.04-19.79,23.82-27.78,10.5-24.25-10.51,2.79-20.82,35.08-21.94,44.67,0,.01.18,6.15.18,6.15,2.51-3.22,3.62-4.22,7.97-6.63,8.46-4.67,18.39-1.27,22.4,9.26.04.12,2.35,10.41,2.39,11.24.02.42.04-9.38.19-10.88-.96-13.22-15.39-14.39-25.92-14.04Z"/>
        <g>
          <path class="cls-28" d="M76.91,135.33c-10.31,3.67-5.4,11.06-2.85,18.16-12.38-9.8-7.4-25.37-2.57-25.81.6-.05,2.57-.04,3.82.89,1.15.86,1.63,1.73,1.63,1.73,0,0,0,3.37-.04,5.02Z"/>
          <path class="cls-33" d="M74.78,130.45c.86-.04,2.13,1.32,2.1,4.07-.03,2.31-.95,7.35-.78,11.64,0,0,.48,5.68,1.6,9.55-1.36-.54-2.49-1.3-3.64-2.21-2.55-7.1-9.59-19.37.72-23.04Z"/>
        </g>
        <g>
          <path class="cls-10" d="M269.98,148.94c-.14-.13-.31-.32-.48-.48-.31-18.33-12.21-12.48-19.34-17.19-4.6-3.04-7.83-19.38,14.08-18.38,5.56,7.95-13.96,6.35-11.94,10.5.48.99,15.1,6.07,17.19,8.59,3,3.63,2.98,13.91.48,16.95Z"/>
          <path class="cls-41" d="M23.16,132.71c-.77,1.33-4.97,3.92-3.34,11.94-5.77-2.09-14.97-2.67-13.84-10.74,1.81-13.02,15.73-1.17,17.19-1.19Z"/>
          <path class="cls-41" d="M35.57,115.04q.48,4.42.95,8.83-6.68,4.42-13.37,8.83c.54-.92,2.18-2.06,2.39-2.63,2-5.39-4.36-9.36-3.82-14.8q6.92-.12,13.84-.24Z"/>
          <path class="cls-41" d="M277.14,80.19c-4.37-2.21-5.02-1.55-9.55-2.63,2.76-7.37,4.11-10.61,0-17.43-.52-.4-.64-.5,0,0-3.84-6.37-10.77-9.34-17.9-6.21-2.75-.54.94-5.86-9.79-11.7,8.37-15.47-11.31-28.07-21.24-13.61C201.05,8.83,176.41.05,151.82,13.35c-16.73-18.96-48.35-16.68-65.64.24-1.68,1.64.06,3.99-12.65,9.31-1.97.09-9.93-10.8-21.24-1.43,0,0,0,0,0,0-2.89,2.39-5.59,6.4-5.73,10.26-.03.76,1.65,8.46,1.91,8.83-1.18.2-2.31.87-3.34,1.43-7.68,4.19-5.16,3.47-8.83,10.98-18.35-1.5-25.18,16.33-12.17,28.88-2.57.83-5.11,1.11-7.64,2.15-1.99.82-3.19,1.37-4.77,2.86-9.07,8.54-4.83,20.54,5.73,25.06.64,1.79-3.89,4.36,0,13.37-18.05-2.07-24.49,18.34-7.64,26.26-3.6,8.83,2.84,20.44,12.65,16.95,7.94,7.76-1.98,7.84-.24,18.86,1.36,8.6,13.51,14.07,20.77,8.83,10.25,4.27,5.3,4.94,8.83,9.79,4.51,6.19,15.68,5.61,20.77.24,1.38.31.67,13.47,19.1,10.98,4.44-7.84,5.94-2.38,12.89-5.73,5.18-2.5,5.11-9.42,10.26-4.77,2.74-3.89,3.15-8.08,6.93-11.28.07-.7.14-1.4.21-1.99-6.38-2.21-25.4-13.42-31.26-18.43-9.34-7.98-13.33-20.37-13.01-19.3-1.36-.54-2.49-1.3-3.64-2.21-12.38-9.8-7.4-25.37-2.57-25.81.6-.05,2.57-.04,3.82.89,1.13.85,1.61,1.7,1.63,1.73.9-3.64,1.92-8.38,2.1-11.67.91-5.89.92-15.31.93-15.49.51-7.83,10.9-38.47,20.04-42.53,5.38-2.39,10.25,1.5,16.95-8.12,21.88,12.34,30.33-2.24,31.99-2.86,6.58-2.47,8.32,5.19,8.83,5.49,13.69,7.91,27,21.42,30.54,26.98.47.73,2.46,5.84,3.64,9.46,3.7,11.31,6.79,34.73,6.79,34.73,0,0,3.9-5.64,7.37-6.78-.07-.05,3.66-1.35,6.46,1.78,5.22,5.85,4.58,25.77-3.74,31.97-4.96,3.7-10.25,2.94-13.43,0-1.22-1.12-2.42-1.4-2.42-1.4,0,0-.35.73-1,1.91-1.55,2.8-5.42,11.17-9.33,15.71-7.98,9.27-15.7,11.85-22.05,15.97.87,3.22,1.58,5.68,2.38,8.52.64,2.27,1.85,4.93,1.91,5.25,5.45.54,7.16,3.77,10.08,5.58.54.34,3.43.86,4.54.95,6.7,13.18,24.45,10.16,28.64-3.82,9.21,9.72,23.29,11.63,27.21-3.82,7.01.07,11.98.74,16.71-5.25,17.53,1.89,24.17-15.7,11.7-27.45l5.97-7.88c5.9,1.47,11.45.11,14.56-5.25,3.95-6.8,2.04-13.9-4.3-18.38,1.49-16.72-7.49-16.8-8.12-17.66-2.99-4.15,5.51-3.75,10.03-9.07,6.81-8.02,4.79-22.13-4.77-26.97"/>
          <path class="cls-10" d="M29.37,152.28c-.27.1-1.5,1.75-5.01,2.86-.56-.14-4.42-9.94-4.54-10.5-1.63-8.01,2.57-10.6,3.34-11.94q6.68-4.42,13.37-8.83-.48-4.42-.95-8.83c.1-2.73-8.04-6.86-13.37-10.5-2.1-4.42-1.05-9.85,1.91-13.84,8.45-3.78,19.02-1.63,19.1-7.88,0-.5-2.12-5.75-2.39-9.79-.72-10.74,14.06-12.77,15.28-14.08.5-.54,1.74-5.63,1.91-6.92,1.36-2.12,3.22-3.78,4.77-5.73,2.19-2.75,3.56-.4,1.91-8.83,15.43-17.14,14.53-10.69,36.04-7.88,3.21-.75,3.19-14.58,10.03-15.75,9.57-1.64,12.02,10.31,8.12,13.37-3.67,2.88-3.2-2.58-6.68-7.64-3.78,22.62-17.69,15.12-34.85,12.89-8.46,5.82-4.47,10.16-5.49,13.13-.28.81-7.63,7.08-8.12,8.12-3,6.43,5.2,5.22-16.71,16.71-2.36,5.97,9.05,16.27-6.92,23.15-4.57,1.97-16.64,2.16-13.37,6.21,2.66,3.28,15.27,6.03,15.99,17.43,1.43,22.72-26.97,10.24-13.37,35.09Z"/>
          <g>
            <g>
              <path class="cls-10" d="M164.23,15.26c12.02-1.13,20.75,19.49,43.44,11.94,11.03,14.64,20.32,10.14,15.52,27.93,2.48,1.22,11.9,9.52,12.65,9.79,5.27,1.89,20.78-2.81,15.99,16.47,4.52,1.56,20.47,7.85,22.44,11.46,2.26,4.16.7,12.42-4.06,14.08-11.08,3.87-.82-9.16-1.19-10.74-11.93-10.93-28.55-.8-21.96-23.39q-6.33-.6-12.65-1.19c-8.03-10.55-12.63-7.74-15.52-11.22-7.65-9.25,11.94-21.6-18.86-17.43q-1.19-4.06-2.39-8.12c-11.72.38-21.94-6.33-31.03-12.89-4.05-.29-16.38,7.73-13.61-.72.59-1.81,9.15-5.77,11.22-5.97Z"/>
              <path class="cls-40" d="M209.11,32.93c2.95-.22-2.46,2.06-3.34,2.39-11.48,4.18-3.32-1.9,3.34-2.39Z"/>
            </g>
            <path class="cls-1" d="M110.76,13.83c-6.84,1.17-6.82,15.01-10.03,15.75-21.51-2.82-20.61-9.27-36.04,7.88,1.65,8.43.28,6.08-1.91,8.83-1.55,1.95-3.41,3.61-4.77,5.73h0c-.17,1.29-1.41,6.38-1.91,6.92-1.22,1.32-16,3.34-15.28,14.08.27,4.04,2.39,9.28,2.39,9.79-.07,6.25-10.64,4.1-19.1,7.88-2.96,3.99-4.01,9.42-1.91,13.84,5.33,3.64,13.47,7.78,13.37,10.5q-6.92.12-13.84.24c-.54,5.44,5.82,9.41,3.82,14.8-.21.57-1.85,1.7-2.39,2.63-1.46.02-15.38-11.82-17.19,1.19-1.12,8.08,8.08,8.65,13.84,10.74.11.56,3.98,10.36,4.54,10.5,3.52-1.11,4.74-2.77,5.01-2.86-13.6-24.85,14.8-12.37,13.37-35.09-.72-11.4-13.34-14.14-15.99-17.43-3.27-4.05,8.8-4.24,13.37-6.21,15.97-6.89,4.57-17.19,6.92-23.15,21.91-11.49,13.71-10.28,16.71-16.71.48-1.03,7.84-7.31,8.12-8.12,1.03-2.97-2.97-7.31,5.49-13.13,17.16,2.23,31.07,9.73,34.85-12.89,3.48,5.05,3.01,10.51,6.68,7.64,3.9-3.06,1.45-15.01-8.12-13.37Z"/>
            <path class="cls-1" d="M252.32,123.4c-2.02-4.15,17.5-2.56,11.94-10.5-21.91-.99-18.69,15.34-14.08,18.38,7.12,4.71,19.02-1.14,19.34,17.19.17.16.33.34.48.48,2.5-3.03,2.52-13.32-.48-16.95-2.09-2.52-16.71-7.61-17.19-8.59Z"/>
          </g>
        </g>
        <g>
          <path class="cls-23" d="M111.24,121.71c-.5-1.47-1.36-5.17-5.73-9.43-2.82-2.75-5.81-4.38-7.96-4.74-1.44-.2-2.74-.16-3.92.02-2.25-.1-5.68,1.45-7.92,3.23-5.87,4.68-4.57,12.46,1.08,15.84.25.15.53.29.82.43,3.24,1.76,5.75,1.8,9.2,1.91,0,0,6.24.41,14.03-2.74.47-.19,1.41-.71,1.41-.71,0,0-.22-2.03-1.01-3.82Z"/>
          <path d="M79.85,107.58c2.64,2.22,6.39-6.16,17.05-5.19,8.72.79,15.56,12.06,15.24,22.28-1.16-2.08-2.23-5.18-2.57-5.54-.05-.06-.18.02-1.29-.86,1.16-4.03-6.96-10.25-10.73-10.73-6.55-.85-10.77,2.43-13.74,7.73-.14.25-.58,1.17-.86,2.15-1.13,3.97,1.02,7.74,4.65,9.65-.74,0-3.81-1.99-4.23-2.35-4.02-3.43-7.61-12.5-7.56-18.15-.1-1.1.31-4.58.83-3.19.99,2.65,2.45,3.56,3.2,4.2Z"/>
          <path d="M96.57,120.44c1.9-.49,2.53-3.14,2.21-4.87,11.2-1.45,3.91,16.24-2.21,4.87Z"/>
          <path class="cls-5" d="M109.59,120.1c0-.2-.04-.38-.05-.58,0-.14,0-.27,0-.41,0,0-.02-.02-.04-.02-.84-6.6-8.39-11.1-11.98-11.57-.36,1.44-2.68,2.49-3.43,3.86-.15.27-.81,2.12,0,2.15,2.03-.08,2.65.33,3.43.43.07.43,1.27,1.61,1.29,1.72,10.87-1.4,3.79,15.75-2.15,4.72-2.27.58-4.3-1.57-4.72-.64.81,3.73,1.27,6.93,4.72,8.8,1.25.67,3.25.49,7.72-.31,3.74-.67,4.99-4.57,5.14-8.2.02.01.05.04.06.05Z"/>
          <path class="cls-23" d="M161.38,110.69c.9-.18,3.78-.53,5.05-.47,2.94.16,5.9,2.18,5.9,2.18,7.28,5.07,10.16,9.31,3.22,16.31-.69.31-2.85,1.25-3.01,1.29-5.74,1.41-21.22,1.35-27.05-2-.02,0-.03-.02-.05-.03-.3-.17-.26-2.91.05-3.98,3.45-6.78,7.95-12.16,15.89-13.31Z"/>
          <g>
            <path d="M181.56,114.56c2.17,1.76,3.7.7,5.24-1.17.9-.99.81-1.56,1.05-1.23.27.39.27,1.84-.33,3.75-1.37,4.31-5.27,9.83-11.96,12.82,6.94-7.01,4.06-11.25-3.22-16.31,0,0-1.92-1.42-5.58-2.15-1.82-.36-3.59.17-5.37.43-7.94,1.15-12.44,6.53-15.89,13.31,1.51-13.76,12.07-22.65,26.4-17.6,5.73,2.02,8.22,6.99,9.66,8.16Z"/>
            <path class="cls-5" d="M174.69,118.85c-.19-2.4-3.14-7.78-7.94-8.59-1.83-.31-3.59.17-5.37.43-4.27,6.01-2.22,3.07,1.5,4.29.41.13,1.13.82,1.5,1.29.24.3,1.52.19,3.86.86,4.97,5.8-3.02,11.68-6.44,4.72-1.91.28-4.19-1.74-4.29-1.5.28,14.31,18.69,12.68,17.17-1.5Z"/>
            <path d="M168.25,117.13c4.97,5.8-3.02,11.68-6.44,4.72,2.32-.34,3.84-3.51,2.58-5.58,1.66-.19,2.83-.01,3.86.86Z"/>
          </g>
        </g>
        <path class="cls-3" d="M205.72,150.67l1,2c1,2-3,3-3,3-1.16.37-2,1-3,0l1-5c1-2,3.66-.46,4,0Z"/>
        <g>
          <path class="cls-12" d="M206.72,158.67c0-2,0-5-1-6s-1.79-2.03-3-1c-.85.72-1.85,4.6-2,7-.05.8.36,3.41,1.05,3.95,1.97,1.52,3.28,1.28,3.96.21,1.99-3.16.99-2.77.99-4.16Z"/>
          <path class="cls-25" d="M207.27,157.87c-.22-2.79-.45-4.83-1.55-5.2-3-1-1,3-4,5-1.18.78-.56,3.32,0,4,3.39,4.13,5.76-1.04,5.55-3.8Z"/>
        </g>
        <g>
          <path d="M78.46,93.49c-.32-.04-.57-.26-.4-.54,1.23-1.98,4.66-7.32,6.9-8.78s9.41-4.96,14.55-3.99c4.03.76,4.14,4.49,4.17,6.11,0,.03-.02.06-.05.08-2.65,1.53-4.4.39-8.93.03-1.75-.14-3.24-.01-4.87.46-2.57.74-4.87,2.4-7.04,4.87-.66.75-2.7,1.96-4.34,1.76Z"/>
          <path d="M178.6,86.32c.11.55,2.3,3.22,2.88,5.4l-1.08,1.08c-14.83-10.29-26.1-.3-29.16-7.2,2.55-2.21,3.17-11.87,27.36.72Z"/>
        </g>
        <g>
          <path class="cls-21" d="M137.56,143.02c1.79,8-20.24,11.31-20.88,2.16,5.6,5.57,14.97,2.25,20.88-2.16Z"/>
          <g>
            <path class="cls-13" d="M155.93,149.5c2.64.26,5.03,1.58,6.12,3.96-8.51.6-12.2,25.11-29.16,27.72-25.18,3.88-14.91-25.59-27.72-19.8.7-9.31,39.85-.3,54.01-8.64l-3.24-3.24Z"/>
            <path class="cls-20" d="M150.89,158.15c4.44-.62-4.85,8.34-6.48,9.36-9.07,5.7-30.73,7.42-30.24-4.32,15.16,3.57,34.64-4.75,36.73-5.04Z"/>
          </g>
          <path class="cls-16" d="M121.36,139.42c2.21,1.67,5.3,2.24,5.4,2.52,1.58,4.52-6.69,4.93-5.4-2.52Z"/>
        </g>
        <g>
          <path class="cls-24" d="M117.87,112.71c0,15.74-15.3,27-28,27s-19-10.26-19-26,9.3-22,22-22,25,5.26,25,21Z"/>
          <path class="cls-24" d="M196.87,113.9c0,22.81-17.9,29.81-32.77,29.81s-22.23-11.33-22.23-28.71c0-20.29,10.88-24.29,25.74-24.29,19.26,0,29.26,5.81,29.26,23.19Z"/>
          <g>
            <path d="M201.87,122.71c4.16-9.68-4.33-20.72-5.73-23.8-2.17-4.77-6.05-8.24-9.27-9.2-2-.6-6-1-13-1-6,0-29-3-34.5,13.71-7.21-3.06-12.58-2.59-20-1-1.5-2.71-5.52-11.66-20.5-12.71-1.93-.13-9.16-.71-16,1-8,2-7.86,2.86-10,5-2.22,2.22-4.6,9.78-5,18-.35,7.04,2,17,3,19,.63,1.26,3,6,5.75,7.46,8.64,4.97,15.01,4.96,21.25,4.54,15-1,26.35-18.47,26-32.79,21.23-1.93,7.52,3.43,18.25,22.75,2.56,4.62,9.75,11.04,16.75,13.04,4.9,1.4,14.82,1.78,23-2,13-6,17.7-16.64,20-22ZM115.62,115.42c-.26,7.54-3.33,13.47-8.14,17.34-6.18,4.97-15.23,6.52-24.86,3.66-5.75-1.71-7.78-6.29-8.75-8.71-4-10,0-24,1-27,1.92-5.77,10.39-7.67,16-8,8.61-.51,17.34.25,21.75,8.71,2.09,4,3.16,9.45,3,14ZM148.62,133.67c-3.52-4.73-5.36-13.94-5.5-19.75-.37-15.93,5.18-19.09,20-20.5,5.57-.53,11.46-.87,17,0,.81.13,2.43.35,3,.5,2.12.56,4.25,1.34,5.79,2.84.47.46,4.36,5.98,5.96,16.95.49,3.39,0,8-1.72,12.65-.01.02-.02.03-.04.05-8.92,20.35-36.11,18.5-44.5,7.25Z"/>
            <path class="cls-37" d="M215.59,107.93c-.51-.71-12.85-7.97-15.03-8.89-2.45-1.04-4.78-2.3-5.2-1.97.57,2.38,7.75,12.97,7.56,18.78-.03.91,1.94,1.11,1.94,1.11l.1-.78c9.11.38,12.15-1.51,15.04.62-.21-1.64-3.59-7.73-4.4-8.87Z"/>
            <g>
              <path class="cls-4" d="M69.18,103.44q-5,2.25-10,4.5c-.53-1.11-2.64-9.66-1.25-10.5,22.79-3.44,17.71-10.26,11.25,6Z"/>
              <path d="M69.18,103.44q-.62,5-1.25,10c-3.24-2.09-6.93-1.68-8.75-5.5q5-2.25,10-4.5Z"/>
            </g>
            <path d="M214.1,123.36c.37-.18,4.84-5.6,5.88-6.56-2.73-2.01-5.98-.95-13.59-.61-9.56-.34-10.25-3.54-10.25-3.54l.63,3.1c-.08.54.19,2.49.46,4.47l4.41,2.9c3.7-3.78,5.28-4.79,9.33-3.29,2.07,1.2,2.74,2.94,3.13,3.54Z"/>
          </g>
        </g>
      </g>
      <g>
        <g>
          <path class="cls-36" d="M91.74,225.83c-7.49.57-11.19.92-18.26,5-10.19,5.89-21.07,27.06-18.45,32.29,3.46,6.92,12.66,13.9,19.66,19.9,1.88,1.61,2.47-1.82,4.94-2.88,3.35-2.64,11.05-50.07,11.05-50.07l1.06-4.25Z"/>
          <path class="cls-14" d="M66.69,275.02s7,3,13.01-1c6.13-4.09-3,13.01-3,13.01,0,0-6.11-5.26-10-12Z"/>
        </g>
        <g>
          <path class="cls-35" d="M91.62,225.85c-7.49.57-11.19.92-18.26,5-10.19,5.89-19.39,22.52-18.26,28.26,2.51,12.66,21.47,27.93,21.47,27.93,0,0,1.59-4.59,2.94-6.88,3.35-2.64,11.05-50.07,11.05-50.07l1.06-4.25Z"/>
          <path class="cls-32" d="M74.71,257.72l6.91,17.46c.19.45-1.73,5.09-2.33,6.51l-2.71,5.35s2.03-22.58-1.86-29.32Z"/>
        </g>
        <path d="M34.69,188.7c-.06-.04-.72.02-.9-.45.52-.55.85.43.9.45Z"/>
      </g>
      <path class="cls-35" d="M56.22,251.19c-.11.32-.29.59-.39.9-4.59,14.3-4.01,24.65-3.88,31.86.38,20.24,10.58,90.57,10.58,90.57l39.85.66-21.49-88.19-24.22-36.8s-.36.71-.46,1.01Z"/>
      <path class="cls-32" d="M69.06,324.16c-4.32-11.41-2.49-49.13-2.49-49.13l31.53,35.26-3.75,33.72-20.02,34.48s-14.58-24.33-15.48-32.75c-.23-2.18,14.31,4.67,14.31,4.67,0,0,4.3-4.01-4.11-26.24Z"/>
      <path class="cls-34" d="M166.21,468.23v2c-16.83,0-33.67,0-50.5,0l-1.5-3c17.19,1.8,34.75,2.58,52,1Z"/>
      <g>
        <path class="cls-39" d="M220.2,347.73c-.49,3.23-.18,6.74-1.5,7-.24-6.11-2.71-7.86-2.5-8.25.76-1.42,3.78,2.67,3.5-1.25h.5v2.5Z"/>
        <g>
          <path class="cls-32" d="M187.84,379.73c8.35,1.74,16.09,5.31,23.08,10.24-1.98-5.89-4.27-11.66-7.22-17.24-4.15-3.27-9.55-6.45-15.19-9.65-.17,3.98-.35,7.96-.52,11.95-.03.74-.05,1.47-.08,2.21.26.25.51.48.79.75-.27.05-.54.08-.82.12-.02.54-.03,1.09-.05,1.63Z"/>
          <path class="cls-32" d="M257.7,374.23c-4.66,15.46-24.61,18.75-37.75,12.5-5.17-2.46-8.54-7.6-12.75-11q2.25.5,4.5,1c1.22,1.73,3.6-4.38,4.25-4.5.3-.06,4.18,3.18,5,3.5,8.91,3.51,30.42,7.62,36.75-1.5Z"/>
          <path class="cls-32" d="M228.2,332.98q-11-3.12-22-6.25c-.1,3.24.07,6.5,0,9.75q-4.25-.25-8.5-.5c3.36-3.24,6.53-8.41,7.5-13l1,2.75c.18-9.36-.57-18.57-3.75-27.5-2.19.31,10.51,23.9-13.09,35.39,0,.96-.01,1.91-.02,2.87,7.21,1.18,13.36,4.6,21.11,6.72.53.14,2-2,9.25,1.52-1.6-5.28-25.07-8.87,8.5-11.75Z"/>
          <g>
            <path class="cls-35" d="M242.7,290.98c-4.49-16.75-5.27-36.66-17-50.5-9.2-10.86-19.05-10.52-27.25-11.72-3.85,6.23-8.36,12.06-13.53,17.78-1.24,1.37-2.51,2.68-3.81,3.95,2.43,6.82,3.71,14.09,4.03,21.25.13,2.8-.05,5.68-.49,8.58,3.03,17.4,4.72,34.96,4.7,52.62,0,.23,0,.46,0,.69,23.6-11.49,10.91-35.08,13.09-35.39,3.18,8.93,3.93,18.14,3.75,27.5,0,.33.01.67,0,1q11,3.12,22,6.25c-33.57,2.88-10.1,6.47-8.5,11.75.04.13-.01.33,0,.5h.5c1.39,1.2.02,2.38,0,2.5-.49,3.23-.18,6.74-1.5,7,.2,5.05-1.37,9.38-3,14-1,2.82-1.69,5.8-4,8,1.23,1.73,3.6-4.38,4.25-4.5.3-.06,4.18,3.18,5,3.5,8.91,3.51,30.42,7.62,36.75-1.5,2.07-16.83-2.89-28.59-17.5-37.25,4.19.1,14.15,8.65,16,11.5,2.46,3.79,1.67,11.17,3,5.25-1.47-12.72-12.44-47.61-16.5-62.75Z"/>
            <g>
              <path class="cls-17" d="M259.2,353.73c.62,5.36,1.58,16.07-1.5,20.5,2.07-16.83-2.89-28.59-17.5-37.25,4.19.1,14.15,8.65,16,11.5,2.46,3.79,1.67,11.17,3,5.25Z"/>
              <path class="cls-17" d="M215.95,335.23c7.16.98,13.01,1.04,19.75,3.75-5.65-.58-18.52-1.09-19.75-3.75Z"/>
              <path class="cls-32" d="M220.2,347.73v-2.5c1.39,1.2.02,2.38,0,2.5Z"/>
            </g>
          </g>
        </g>
      </g>
      <path class="cls-29" d="M164.17,332.99c.53.28,2.38-.03,2.5,0,1.47.35,2.91,1.19,4.5,1,.27,1.41.49.94.5,1,1.19,10.16-2.94,10.15-11.5,7,1.15-1.83,1.77-8.97,4-9Z"/>
      <g>
        <g>
          <path class="cls-7" d="M166.47,467.95c-17.25,1.58-91.19-26.61-87.03-9.82.25,1.01,4.19,17.73,8,21,7,6,43,8,67,7,14.33,0,54.02-11.14,55.03-16.18.97-4.82,1-6,2-12-14.1,5.2-30.06,8.63-45,10Z"/>
          <path class="cls-27" d="M139.77,486.37l-1.33-10.67s2.67,10.67,4,10.67h-2.67Z"/>
        </g>
        <path class="cls-28" d="M135.89,224.87c.71,3.53,2.55,6.76,4.23,9.87.53,2.76-4.38.74-7.75,1.41-6.76,1.35-7.99,7.91-3.52-3.52,1.12-2.87,2.56-5.54,3.52-8.46,3.02,1.74,2.48.94,3.52.7Z"/>
        <g>
          <path class="cls-35" d="M204.57,319.02s2.01-1.33,2-1c.79.22,24.08-24.13,27-32,.78-2.09,5-16,3.64-22.19-2.22-8.65-5.33-16.92-11.1-23.73-11.06-13.05-23.06-9.92-32-12.75-2.06,4.39-4.56,8.65-7.5,12.5-1.79,6.55-15.09,23.07-21.75,23.5-9.38.61-14.95-13.49-21.25-17.5.77,7.01-1.52,13.2-8,16.75.27,1.15,3.33-2.49,4,2.75,4.99-2.53-2.85,6.03-6.25,6.5-7.5,1.03-10.54-8.74-11.25-14.75-.29-2.47-.34-9.47,1-8.75-.4-5.91,2.16-10.9,5-16-.53.21.22-1.48-3,1.75-3.25,3.26-20.49,27.48-22.25,27.75-.29.04-5.13-2.48-5.25-2.75-1.4-3.12-.03-30.67-2.75-32.25-.73-.42-3.62.87-3.25-1-7.49.57-11.19.92-18.25,5-10.18,5.89-20.87,23.02-18.25,28.25,3.46,6.92,12.46,17.92,19.46,23.92,1.88,1.61,3.84-.93,4.94-2.87-3.33,7.68-9.15,19.78-7.94,29.87,1.37,11.43,6.94,17.95,11,21,2.73,2.05,9,4,9,4,0,0,5.05,5.22-1,15-2.44,3.95-9.95,14.22-18.96,37.33-4.86,19.13-8.8,38.44-11.5,58-.3,2.14-.09,4.45-1,6.5,14.74,9.85,38.13,13.18,55.5,15,17.19,1.8,34.75,2.58,52,1,14.94-1.36,30.9-4.79,45-10,4.67-1.72,10.18-4.03,14.5-6.5-2.17-15.61-5.7-30.88-10-46-3.23-11.34-6.45-22.5-12-33-7.44-5.87-5.13-31.09-3.95-43.02l4.42-10.3Z"/>
          <path class="cls-32" d="M200.57,323.02c.04.06.06.13.09.21-.01-.17-.04-.24-.09-.21Z"/>
          <path class="cls-32" d="M200.65,323.24c.02.22,0,.59-.03,1.11.11-.46.12-.84.03-1.11Z"/>
        </g>
        <path class="cls-32" d="M203.97,370.45c-4.87-6.97-4.71-26.63-3.53-39.53,2.34-3.03,4.3-6.79,5.03-10.22.97-3.58.43-15.82-2.75-24.75-1.58.23,4.64,12.67-.78,23.88-2.11,2.97-4.93,6.89-9.43,9.94-2.21,1.34-4.8,2.56-7.86,3.61-5.94,1.64-13.75,1.73-24.21-1.26.64.18,35.3,40.12,43,56,7.48,15.45,16.24,62.78,15,67,.46-.1,6.78-3.39,10-5,2-1-2.74-48.58-24.47-79.67Z"/>
        <path class="cls-32" d="M97.47,336.45c5,0,10-3,10-3-6,3-16.04,1.67-16.04,1.67,0,0,1.12,1.84,1,5-.12,3.34-1.54,8.12-3.96,12.33-4,6.95-7.14,12.93-9.58,17.88-2.76,4.78-4.86,10.17-6.12,13.6-.92,2.33-1.31,3.52-1.31,3.52-4.86,19.13-9.34,45.12-12.04,64.67,6.62,4.02,7,4,7,4,0,0-3.25-21.94,2.02-42.41,7.46-28.98,19.64-41.24,22.98-46.59,15-24,6.04-30.67,6.04-30.67Z"/>
        <path class="cls-32" d="M66.57,275.02s7,3,13-1c6.13-4.09-3,13-3,13,0,0-6.11-5.26-10-12Z"/>
        <path class="cls-15" d="M132.53,291.74c-3.13,1.02-3.92-4.65-1-5,2.63-.31,3.1,4.32,1,5"/>
        <path class="cls-15" d="M132.53,311.74c-3.13,1.02-3.92-4.65-1-5,2.63-.31,3.1,4.32,1,5"/>
        <g>
          <path class="cls-32" d="M132.6,225.35c-.68,2.07-1.7,3.96-2.5,6-1.83-.3-1.9.96-2,1-.53.21.22-1.48-3,1.75-3.25,3.26-20.49,27.48-22.25,27.75-.29.04-5.13-2.48-5.25-2.75-1.4-3.12-.03-30.67-2.75-32.25-.73-.42-3.62.87-3.25-1,2.03-.15,3.94.87,6,.5-.58,8.83-.24,18.16,6.75,24.5.41,0,3.62-3.92,4.25-4.5,6.77-6.24,12.8-13.26,19.5-19.5.93-.87,2.32-1.39,3-2.5.19.17,1.22.84,1.5,1Z"/>
          <path class="cls-32" d="M123.1,248.35c.06.91-.04,1.84,0,2.75.18.49,1.14.92,1.5,1.25-4.75,6.42,6.79,10.22,2.75,9.5-.51-.09-1.95-1.38-2.5-2,2.35,8.5,7.18,9.34,14.75,5.5,4.99-2.53-2.85,6.03-6.25,6.5-7.5,1.03-10.54-8.74-11.25-14.75-.29-2.47-.34-9.47,1-8.75Z"/>
          <g>
            <path class="cls-22" d="M175.61,209.37c2.5,7.39,10.09,15.33,18.49,17.99-2.06,4.39-4.56,8.65-7.5,12.5-3.73,4.89-16.44,18.28-22.75,17.5-5.61-.69-23.98-26.03-26.75-32.5,10.69-3.61,21.25-9.81,28.51-18.49-.28-2.07-1.61-5.95-2-8,5.71.57,8.95,9.11,12,11Z"/>
            <path class="cls-32" d="M137.1,224.85c2.77,6.47,21.14,31.81,26.75,32.5,6.31.78,19.02-12.61,22.75-17.5-1.79,6.55-15.09,23.07-21.75,23.5-9.38.61-16.73-11.55-21.25-17.5-1.99-2.61-2.26-3.47-2.99-5.61-.43-1.28-.48-1.79-1-3-1.09-2.53-1.4-4.18-1.51-4.39-1.19-2.2-2.49-4.5-3-7,.11-.03-.48-.16,2-1Z"/>
            <g>
              <path class="cls-19" d="M121.1,208.85c-1.42-.22-1.75,4.51-2.5,7-2.73,9.06-10.13,26.79-10.5,28.25-.16.62-.16,2.32.5,2.25-.63.58-3.84,4.5-4.25,4.5-6.99-6.34-7.33-15.67-6.75-24.5,6.55-3.95,11.23-9.94,15.5-16,2.87-4.07,4.54-9.14,8.5-12.5-.31,3.11-.95,8.1-.5,11Z"/>
              <path class="cls-22" d="M128.1,226.85c-6.7,6.24-12.73,13.26-19.5,19.5-.66.07-.66-1.63-.5-2.25.37-1.46,7.77-19.18,10.5-28.25l9.5,11Z"/>
              <path class="cls-9" d="M121.1,208.85c.63,4.03,3.64,6.92,6,10,.61.79,3.74,5.28,4,5.5-.68,1.11-2.07,1.63-3,2.5l-9.5-11c.75-2.49,1.08-7.22,2.5-7Z"/>
            </g>
          </g>
        </g>
        <g>
          <path class="cls-18" d="M143.61,246.24c.77,7.01-1.66,12.91-8.14,16.46.27,1.15,3.33-2.49,4,2.75-7.57,3.84-12.4,3-14.75-5.5.55.62,1.99,1.91,2.5,2,4.04.72-7.5-3.08-2.75-9.5,1.1.99,9.96,4.57,10.75,4,.98-.71-.66-3.37-.25-4.75.3-1.02,3.05-1.61,4-3,1.53-2.24.81-6.54,3-8.25.72,2.14,1.37,3.34,1.64,5.79Z"/>
          <path class="cls-18" d="M129.97,231.45c-3.17,8.11-2.29,3.46,2.5,2.5-5.47,4.24-3.9,6.84-3.25,13,5.58-11.84,6.28,4.99,7.25-7.25l4-2.75c.52,1.21,1.07,2.22,1.5,3.5-2.19,1.71-1.47,6.01-3,8.25-.95,1.39-3.7,1.98-4,3-.41,1.37,1.23,4.04.25,4.75-.79.57-9.65-3.01-10.75-4-.36-.33-1.32-.76-1.5-1.25-.04-.91.06-1.84,0-2.75-.4-5.91,2.16-10.9,5-16,.1-.04.17-1.3,2-1Z"/>
          <path class="cls-31" d="M140.47,236.95l-4,2.75c-.97,12.24-1.67-4.59-7.25,7.25-.65-6.16-2.22-8.75,3.25-13,2.39-.48,5.88.95,5.5-1,.11.21,1.41,1.47,2.5,4Z"/>
        </g>
      </g>
      <path class="cls-8" d="M216.23,369.26c-1,2.82-1.69,5.8-4,8q-2.25-.5-4.5-1c-1.21-.97-2.22-1.99-3.5-3-9.91-7.81-26.88-15.06-37.5-23.5.5-.44,2.28-2.95,2.75-3,15.12,8.47,30.78,15.78,46.75,22.5Z"/>
      <path class="cls-28" d="M184.73,336.26c9.91,1.32,16.26,2.91,25.75,5.5.53.14,2.11-2.39,9.75,3.5.04.13-.01.33,0,.5.28,3.92-2.74-.17-3.5,1.25-.21.39,2.26,2.14,2.5,8.25.2,5.05-1.37,9.38-3,14-15.97-6.72-31.63-14.03-46.75-22.5-.47.05-2.25,2.56-2.75,3-2.15,1.86-1.79,4.05-5.5,1.75.28-4.33-1.4-3.55-1.5-3.75-.59-1.17-.8-2.72-2-3.5.34-.31,2.41-2.35,2.5-2.5,8.56,3.15,12.69,3.16,11.5-7,4.32.57,8.68.92,13,1.5Z"/>
      <path class="cls-29" d="M164.83,332.7c.53.28,2.38-.03,2.5,0,1.47.35,2.91,1.19,4.5,1,.27,1.41.49.94.5,1,1.19,10.16-2.94,10.15-11.5,7,1.15-1.83,1.77-8.97,4-9Z"/>
      <path class="cls-32" d="M66.11,420.82s70.84,14.48,58.95-33.09c0,0,49.12-4.65,45.5-41.37l-36.71-21.72s-40.33,7.76-42.4,19.13c-2.07,11.38-25.34,77.05-25.34,77.05Z"/>
      <g>
        <path class="cls-38" d="M83.06,328.58l20.15,12.03c3.02.41,7.98-8.17,17.51-11.76,13.18-4.97,46.34-.44,63.59-14.23,10.31-8.24,17.1-23.25,17.14-36.38,4.54,27.8-11.42,44.93-37.74,50.7-21.35,4.69-39.13-1.91-55.25,18.42-4.27-2.46-26.5-13.85-25.41-18.78Z"/>
        <path class="cls-12" d="M195.35,256.02l-10.11-11.76c-5.81-7.2-17.97-14.6-26.39-18.4-16.22-7.3-34.46-10.31-51.38-3.82-5.23,2.01-9.95,5.34-14.88,7.92,31.41-31.72,84.95-9.82,102.76,26.05Z"/>
        <path class="cls-38" d="M145.18,260.67c-16.02-5.6-24.51,5.53-25.93,5.28-11.54-4.68-21.58-14.27-26.68-25.54,1.74,2.06,8.94,9.63,10.74,11.15,16.76,14.18,12.27,1.29,26.58,2.09,6.9.38,10.33,2.83,15.3,7.02Z"/>
        <g>
          <path class="cls-25" d="M158.85,225.87c-.92,1.22-5.62-1.46-8.34-2.2-11.97-3.24-54.24-7.28-48,13.96,36.07-19.16,70.59-2.21,90.94,30.65.45-6.91-4-18.79-8.21-24.02l10.11,11.76c3.25,6.55,6.13,14.78,6.1,22.21-.04,13.13-6.83,28.14-17.14,36.38-17.25,13.79-50.41,9.26-63.59,14.23-9.53,3.59-14.49,12.17-17.51,11.76l-20.15-12.03c14.13-37.59,58.55-19.95,69.05-45.43,3.76-9.12-.02-16.65-6.93-22.48-4.97-4.19-8.4-6.64-15.3-7.02-14.31-.79-9.81,12.1-26.58-2.09-1.8-1.52-9-9.09-10.74-11.15-1.45-1.72-3.09-3.3-4.16-5.32-.06-1.35,3.18-4.12,4.18-5.12,4.93-2.58,9.65-5.92,14.88-7.92,16.92-6.5,35.16-3.49,51.38,3.82Z"/>
          <path class="cls-2" d="M196.45,285.08c-9.3,42.83-55,31.15-78.2,39.74-11.44,4.23-12.88,14.02-24.43,4.47-9.52-7.86,1.58-14.45,9.12-17.47,21.86-8.76,73.93,2.5,93.51-26.73Z"/>
        </g>
        <path class="cls-12" d="M185.24,244.26c4.21,5.23,8.67,17.1,8.21,24.02-20.36-32.86-54.88-49.8-90.94-30.65-6.25-21.25,36.03-17.2,48-13.96,2.72.74,7.41,3.42,8.34,2.2,8.42,3.79,20.59,11.19,26.39,18.4Z"/>
        <g>
          <path class="cls-38" d="M55.33,367.58c4.52,25.78,41.68,30.56,47.01,2.84.78,4.21,4.3,9.85-1.99,18.42-13.8,18.8-48.55,4.51-45.02-21.26Z"/>
          <path class="cls-30" d="M101.21,364.24c-3.69-4.96-6.2-10.98-11.77-14.29-8.24-4.89-22.67-1.76-28.26,5.83-2.44,3.32-3.81,6.32-4.01,10.45l-1.44-.89c6.32-27.98,38.29-24.29,45.48-1.1Z"/>
          <path class="cls-2" d="M57.17,366.23c.2-4.13,1.56-7.13,4.01-10.45-1.82,16.76,31.07,27.09,37.4,12.3-1.6,28.92-42.46,19.95-41.41-1.85Z"/>
          <g>
            <path class="cls-25" d="M101.21,364.24c.87,2.81.72,3.93,1.14,6.18-5.33,27.72-42.49,22.94-47.01-2.84.09-.68.25-1.57.4-2.24l1.44.89c-1.06,21.8,39.81,30.77,41.41,1.85-6.33,14.79-39.22,4.46-37.4-12.3,5.59-7.59,20.02-10.72,28.26-5.83,5.57,3.31,8.08,9.33,11.77,14.29Z"/>
            <path class="cls-12" d="M85.64,356.06c15.88,7.75,2.5,15.13-9.21,9.21-14.75-7.47-2.77-15.05,9.21-9.21Z"/>
          </g>
        </g>
      </g>
      <g>
        <path class="cls-28" d="M65.23,377.17c2.93.83,18.04-.88,15.75,5.21-1.72,4.6-21.83,2.2-25.82.66,11.08,5.99,23.81,2.3,25.16,2.61,4.2.98,6.55,4.26,3.18,6.93-4.37,3.45-25.89-3-28.88-.46-4.88-2.32-3.87-9.56-4.12-13.94.99-4.05-.16-15.63,7.51-22.05.58-.49,1.2-.74,1.2-.74,0,0-.84,3.31-1.14,4.87-.81,4.16-1.51,12.07-.51,15.29,1.1.17,6.62,1.32,7.67,1.62Z"/>
        <path class="cls-28" d="M82.73,401.56c-.03.08,3.41,5.36-14.45,8.28-.8.13-11.91,1.86-12.57-6.79,8.56-2.03,18.13.04,27.02-1.49Z"/>
        <path class="cls-6" d="M54.62,392.12c-1.98,1.68-1.22,6.01.73,7.47,2.47,1.85,23.31,2.21,27.54.4-.23.99-.09,1.34-.16,1.57-8.89,1.53-18.46-.55-27.02,1.49-.69.16-1.52-.02-2.23.09-4.44-9.18-5.33-15.3-2.97-24.95.24,4.37-.77,11.62,4.12,13.94Z"/>
        <path class="cls-8" d="M56.38,408.84c-2.05-1.44-2.01-3.86-2.9-5.71.72-.1,1.54.08,2.23-.09.66,8.65,11.78,6.98,12.57,6.79,6.24-1.54-7.26,2.27-11.9-1Z"/>
        <path class="cls-28" d="M85,396.55c-.38,2.11-2.06,3.24-2.11,3.44-4.23,1.82-25.06,1.45-27.54-.4-1.95-1.46-2.71-5.79-.73-7.47,1.02.49,15.17,2.38,17.78,2.56,6.7.47,10.99-2.89,12.6,1.87Z"/>
        <path class="cls-6" d="M85,396.55c-1.61-4.75-5.9-1.4-12.6-1.87-2.61-.18-16.75-2.07-17.78-2.56,2.99-2.54,24.51,3.91,28.88.46.65,1.69,1.9,1.72,1.5,3.97Z"/>
      </g>
      <g>
        <path class="cls-28" d="M164.23,332.76c-2.23.03-2.85,7.17-4,9-.09.15-2.16,2.19-2.5,2.5-6.1,5.52-27.48,14.95-35.5,12.5-1.98-.6-3.11-2.17-4.5-3.5,18.99,3.66,8.71.64,6.5-6.25-4.34-13.54,3.99-12.61-6.5-14.75-5.58-1.14-11.5-.48-16.5-3.5,1.12-4.9,15.39-4.04,20-4.5,4-.4,7.98-.98,12-1.25-2.04-2.4-4.57-4.24-6.5-6.75,25.12-3.65,35.58,15.5,37.5,16.5Z"/>
        <path class="cls-3" d="M117.73,332.26c10.49,2.14,2.16,1.2,6.5,14.75,2.21,6.89,12.49,9.91-6.5,6.25-3.11-2.97-10.62-13.76-3-13.75-4.44-1.93-9.22-2.43-13-5.75,0-.17,0-.33,0-.5,1.32-2.47,12.76,2.1,16-1Z"/>
        <path class="cls-8" d="M117.73,353.26c1.39,1.33,2.52,2.9,4.5,3.5q.25,1.5.5,3c-17.29-4.85-12.42-16.45-13.5-18.25-.18-.3-3.77-.43-6.5-2.75-.26-1.76-.89-3.01-1-5,3.78,3.32,8.56,3.82,13,5.75-7.62-.01-.11,10.78,3,13.75Z"/>
        <path class="cls-8" d="M117.73,332.26c-3.24,3.1-14.68-1.47-16,1-.07-1.41-.86-2.91-.5-4.5,5,3.02,10.91,2.36,16.5,3.5Z"/>
        <path class="cls-3" d="M157.73,344.26c1.2.78,1.41,2.33,2,3.5-2.03,1.42-7,5.4-8,6-.78.47-8.06,4.32-8.5,4.5-8.23,3.4-11.91,3.91-20.5,1.5q-.25-1.5-.5-3c8.02,2.45,29.4-6.98,35.5-12.5Z"/>
      </g>
    </g>
  </g>
</svg>