<?xml version="1.0" encoding="UTF-8"?>
<svg xmlns="http://www.w3.org/2000/svg" viewBox="0 0 286.36 485.44"><defs>
    <style>
      .cls-1 {
        fill: none;
      }

      .cls-2 {
        fill: #f2e4ce;
      }

      .cls-3 {
        fill: #c45f41;
      }

      .cls-4 {
        fill: #ada09c;
      }

      .cls-5 {
        fill: #d7dadc;
      }

      .cls-6 {
        fill: #3a310b;
      }

      .cls-7 {
        fill: #8e3226;
      }

      .cls-8 {
        fill: #f7b750;
      }

      .cls-9 {
        fill: #a5959e;
      }

      .cls-10 {
        fill: #bbbbbc;
      }

      .cls-11 {
        fill: #281a26;
      }

      .cls-12 {
        fill: #f0935d;
      }

      .cls-13 {
        fill: #d8b78b;
      }

      .cls-14, .cls-15 {
        mix-blend-mode: hue;
      }

      .cls-14, .cls-16 {
        fill: #95409b;
      }

      .cls-17 {
        fill: #bdeded;
      }

      .cls-18 {
        fill: #c12e4b;
      }

      .cls-19 {
        fill: #f8ae89;
      }

      .cls-20 {
        fill: #f8edf9;
      }

      .cls-21 {
        isolation: isolate;
      }

      .cls-22 {
        fill: #fbfbfc;
      }

      .cls-23 {
        fill: #b69db3;
      }

      .cls-24 {
        fill: #cc5637;
      }

      .cls-25 {
        fill: #470d38;
      }

      .cls-26 {
        fill: #c386c3;
      }

      .cls-27 {
        fill: #fcf8e9;
      }

      .cls-28 {
        fill: #ac4a30;
      }

      .cls-29 {
        fill: #c9892d;
      }

      .cls-30 {
        fill: #e6794d;
      }

      .cls-31, .cls-15 {
        fill: #7aebe9;
      }

      .cls-32 {
        fill: #301d37;
      }

      .cls-33 {
        opacity: .1;
      }

      .cls-34 {
        fill: #c392c2;
      }

      .cls-35 {
        fill: #bf5a41;
      }

      .cls-36 {
        fill: #661b6a;
      }

      .cls-37 {
        fill: #d7643c;
      }

      .cls-38 {
        fill: #320532;
      }

      .cls-39 {
        fill: #1d121b;
      }

      .cls-40 {
        fill: #b175a7;
      }
    </style>
  </defs>
  <g class="cls-21">
    <g id="Layer_2" data-name="Layer 2">
      <g id="MOVIES">
        <g>
          <g>
            <g>
              <path class="cls-8" d="M167.08,467.02c-17.25,1.58-91.19-26.61-87.03-9.82.25,1.01,4.19,17.73,8,21,7,6,43,8,67,7,14.33,0,54.02-11.14,55.03-16.18.97-4.82,1-6,2-12-14.1,5.2-30.06,8.63-45,10Z"/>
              <path class="cls-29" d="M140.38,485.44l-1.33-10.67s2.67,10.67,4,10.67h-2.67Z"/>
            </g>
            <g>
              <path class="cls-16" d="M205.17,318.1s.57-6.57.61-6.82c0,0,0-6,0-6,9,2,12,1,12,1,0,0,14.97-17.35,16.39-21.18.78-2.09,5-16,3.64-22.19-2.22-8.65-5.33-16.92-11.1-23.73-11.06-13.05-38.92-10.9-47.92-16.9-2.06,4.39-28.28,26.66-34.58,22.65.77,7.01-20.56,1.56-20.62.89-.27-3.32-5.87-13.42-6.8-17.54-.91-4.02,2.6-8.02,0-8-5.42.05-18.1,4.21-24.58,4.65-7.49.57-11.19.92-18.25,5-10.18,5.89-20.87,23.02-18.25,28.25,3.46,6.92,12.46,17.92,19.46,23.92,1.88,1.61,3.84-.93,4.94-2.87-3.33,7.68-9.15,19.78-7.94,29.87,1.37,11.43,6.94,17.95,11,21,2.73,2.05,9,4,9,4,0,0,5.05,5.22-1,15-2.44,3.95-9.95,14.22-18.96,37.33-4.86,19.13-8.8,38.44-11.5,58-.3,2.14-.09,4.45-1,6.5,14.74,9.85,38.13,13.18,55.5,15,17.19,1.8,34.75,2.58,52,1,14.94-1.36,30.9-4.79,45-10,4.67-1.72,10.18-4.03,14.5-6.5-2.17-15.61-5.7-30.88-10-46-3.23-11.34-6.45-22.5-12-33-7.44-5.87-5.13-31.09-3.95-43.02l4.42-10.3Z"/>
              <path class="cls-36" d="M201.17,322.1c.04.06.06.13.09.21-.01-.17-.04-.24-.09-.21Z"/>
              <path class="cls-36" d="M201.26,322.31c.02.22,0,.59-.03,1.11.11-.46.12-.84.03-1.11Z"/>
            </g>
            <path class="cls-36" d="M204.58,369.52c-4.87-6.97-4.71-26.63-3.53-39.53,2.34-3.03,4.3-6.79,5.03-10.22.97-3.58.43-15.82-2.75-24.75-1.58.23,4.64,12.67-.78,23.88-2.11,2.97-4.93,6.89-9.43,9.94-2.21,1.34-4.8,2.56-7.86,3.61-5.94,1.64-13.75,1.73-24.21-1.26.64.18,35.3,40.12,43,56,7.48,15.45,16.24,62.78,15,67,.46-.1,6.78-3.39,10-5,2-1-2.74-48.58-24.47-79.67Z"/>
            <path class="cls-36" d="M98.08,335.52c5,0,10-3,10-3-6,3-16.04,1.67-16.04,1.67,0,0,1.12,1.84,1,5-.12,3.34-1.54,8.12-3.96,12.33-4,6.95-7.14,12.93-9.58,17.88-2.76,4.78-4.86,10.17-6.12,13.6-.92,2.33-1.31,3.52-1.31,3.52-4.86,19.13-9.34,45.12-12.04,64.67,6.62,4.02,7,4,7,4,0,0-3.25-21.94,2.02-42.41,7.46-28.98,19.64-41.24,22.98-46.59,15-24,6.04-30.67,6.04-30.67Z"/>
          </g>
          <path class="cls-36" d="M212.68,397.69c-2.79-24.95-14.19-59.62-22.96-57.97-4.94.93-89.17,11.14-93.88,10.35-3.72-.63-14.64,31.46-17.22,28.63,5.79,18.35,9.83,40.91,17.56,57.81,1.99,4.35,39.65,17.37,93.67,4.35,12.22-2.95,15.57-24.73,22.83-43.16Z"/>
          <g>
            <path class="cls-30" d="M166.32,206.29c-.32-2.07-.61-4.2-1-6.25-.06-.33-1.33-3.12-2-5.5-7.64,9.74-17.84,17.58-29.31,22.21-5.3-4.57-12.97-12.22-12.22-14.47-1,3-4,24-5,27-3.88,11.64,10.11,17,17,17,18,0,30.53-9.24,30-12-.4-.73,1.93-2.24.75-3.48.8-.33,1.55-.82,2.25-1.52.92-.93,0-20-.46-22.99Z"/>
            <path class="cls-7" d="M163.32,194.54c-9.09,11.59-21.81,20.53-36,24.5-2.36-3.08-5.37-5.97-6-10-.45-2.9.19-7.89.5-11,.07-.73.15-.89.5-1.5,12.44,2.19,27.65-5.12,38.5-11,1.21,2.88,1.66,6.03,2.5,9Z"/>
          </g>
          <g>
            <path class="cls-34" d="M142.48,242.92c-11.72,0-24.24-5.49-24.7-16.65-.1-2.55,1-7,1-7l-9,2-8,2c3.06,19.28,22.01,35,40.7,35s35.24-15.72,38.3-35c0,0-4.57-2.97-6-4-1.81-1.31-8-5-8-5,0,0,.22,6.5,0,9-.98,11.12-12.58,19.65-24.3,19.65Z"/>
            <path class="cls-40" d="M106.66,231.39c3.08.27,6.14-.31,8.96-1.54.72-.31.94-1.43.54-2.05-.48-.75-1.28-.87-2.05-.54-.16.07-.18.08-.05.02-.09.04-.18.07-.27.11-.14.05-.28.1-.41.15-.32.12-.65.22-.98.32-.64.18-1.29.33-1.94.44-.06,0-.55.08-.26.04-.15.02-.29.03-.44.05-.34.03-.69.06-1.03.07-.69.02-1.38,0-2.06-.06-.78-.07-1.53.74-1.5,1.5.04.87.66,1.43,1.5,1.5h0Z"/>
            <path class="cls-40" d="M113.85,241.07c1.85-.26,3.68-1.32,4.83-2.8.26-.33.44-.63.44-1.06,0-.37-.16-.81-.44-1.06s-.66-.46-1.06-.44c-.37.02-.82.13-1.06.44-.33.43-.72.81-1.15,1.14l.3-.23c-.43.33-.9.6-1.4.82l.36-.15c-.52.22-1.06.37-1.62.45-.34.05-.73.4-.9.69-.19.32-.27.8-.15,1.16s.34.71.69.9l.36.15c.27.07.53.07.8,0h0Z"/>
            <path class="cls-40" d="M122.82,248.97c.88-1.64,1.85-3.23,2.9-4.76.44-.65.14-1.69-.54-2.05-.76-.4-1.58-.15-2.05.54-1.05,1.54-2.02,3.12-2.9,4.76-.37.69-.19,1.67.54,2.05s1.65.2,2.05-.54h0Z"/>
            <path class="cls-40" d="M135.56,253.64c-.02-1.21.02-2.43.14-3.63.03-.31.07-.61.11-.92-.04.27.01-.09.03-.17.02-.14.04-.28.07-.42.1-.61.22-1.22.36-1.82.17-.76-.23-1.66-1.05-1.85-.76-.17-1.66.23-1.85,1.05-.57,2.54-.85,5.15-.8,7.76.01.78.68,1.54,1.5,1.5s1.52-.66,1.5-1.5h0Z"/>
            <path class="cls-40" d="M149.93,254.48c.13-2.54.03-5.09-.3-7.62-.06-.41-.13-.75-.44-1.06-.26-.26-.69-.46-1.06-.44-.72.03-1.61.67-1.5,1.5.34,2.53.44,5.07.3,7.62-.04.78.72,1.53,1.5,1.5.85-.04,1.46-.66,1.5-1.5h0Z"/>
            <path class="cls-40" d="M163.08,248.32c-.18-.2-.35-.41-.52-.62-.1-.12-.19-.24-.28-.35-.03-.03-.17-.22-.04-.05s0-.01-.04-.05c-.33-.44-.65-.9-.96-1.36-.61-.93-1.16-1.89-1.65-2.88-.35-.7-1.4-.96-2.05-.54-.72.47-.91,1.3-.54,2.05,1.06,2.14,2.4,4.11,3.96,5.92.51.6,1.6.57,2.12,0,.58-.64.55-1.49,0-2.12h0Z"/>
            <path class="cls-40" d="M169.99,239.66c-.3-.05-.59-.12-.88-.22-.14-.04-.27-.1-.41-.14-.27-.1.31.14.07.03-.07-.03-.14-.07-.22-.1-.27-.13-.54-.28-.79-.45-.12-.08-.24-.16-.36-.25-.24-.17.28.23.05.04-.06-.05-.12-.1-.18-.15-.22-.19-.43-.39-.62-.61-.11-.12-.2-.24-.31-.36.33.38-.02-.03-.09-.14-.16-.24-.31-.49-.44-.75-.04-.07-.07-.14-.1-.21-.05-.11-.1-.34.02.07-.05-.15-.11-.3-.16-.45-.25-.74-1.05-1.31-1.85-1.05-.74.24-1.31,1.05-1.05,1.85.96,2.89,3.49,5.25,6.52,5.79.41.07.79.06,1.16-.15.31-.18.61-.54.69-.9.17-.73-.22-1.7-1.05-1.85h0Z"/>
            <path class="cls-40" d="M175.27,231.01c-.26,0-.57-.08-.82-.05.06,0,.34.05.13.02-.06-.01-.12-.02-.18-.03-.14-.02-.27-.05-.4-.09-.27-.06-.53-.14-.79-.24-.06-.02-.12-.04-.17-.06-.22-.08-.05-.03.06.03-.12-.06-.25-.11-.37-.17-.23-.12-.46-.24-.68-.38-.12-.07-.23-.15-.34-.23-.05-.04-.1-.07-.15-.11-.15-.11.25.21.05.04-.42-.36-.81-.74-1.16-1.18-.22-.28-.72-.44-1.06-.44-.37,0-.81.16-1.06.44s-.46.66-.44,1.06c.02.42.18.73.44,1.06,1.65,2.09,4.32,3.31,6.96,3.34.78,0,1.54-.7,1.5-1.5s-.66-1.49-1.5-1.5h0Z"/>
            <path class="cls-40" d="M177.33,224.35c-.3-.09-.59-.2-.88-.31-.17-.07.31.14.07.03-.07-.03-.13-.06-.2-.09-.15-.07-.29-.14-.44-.22-.26-.14-.52-.29-.76-.45-.12-.08-.25-.17-.37-.25-.07-.05-.14-.11-.21-.16.1.07.24.19.06.04-.47-.38-.91-.81-1.3-1.27-.05-.06-.1-.11-.14-.17-.15-.18-.03-.04.04.06-.09-.12-.18-.24-.26-.36-.19-.27-.36-.54-.52-.83-.38-.69-1.38-.97-2.05-.54s-.95,1.32-.54,2.05c1.44,2.57,3.89,4.51,6.7,5.37.75.23,1.67-.27,1.85-1.05s-.24-1.6-1.05-1.85h0Z"/>
          </g>
          <g>
            <g>
              <g>
                <path class="cls-22" d="M85.53,317.42l5.78,43.34c-.07.06.03,1.43-.96,1.44-.03-4.56-.93-9.42-1.44-13.97-.66-5.75-2.03-11.6-2.89-17.34-.17-1.12-.31-2.25-.48-3.37-.55-3.67-.96-7.4-1.44-11.08h.48l.96.96Z"/>
                <path class="cls-32" d="M83.6,312.12c.08,1.1-.12,2.27,0,3.37-1.34-1.55-2.69-3.12-3.85-4.82,1.41.06,2.59,1.04,3.85,1.44Z"/>
                <path class="cls-26" d="M84.57,312.12v4.33h-.48c-.06-.46-.43-.51-.48-.96-.12-1.1.08-2.27,0-3.37.24.08.69-.07.96,0Z"/>
                <path class="cls-25" d="M194.37,310.68c-1.28,2.08-2.87,3.45-3.85,5.78-1.5,3.53-.94,4.47-1.44,8.19-2.56,11.45-2.95,23.2-5.3,34.67-.29-.06-1.12-.36-1.44-.48l5.78-45.75c.35-.1,5.97-2.24,6.26-2.41Z"/>
                <path class="cls-23" d="M188.59,331.38c-.9,6.9-3.99,21.86-3.37,27.93-.46-.06-1,.1-1.44,0,2.35-11.48,2.74-23.22,5.3-34.67-.3,2.16-.2,4.57-.48,6.74Z"/>
                <path class="cls-9" d="M189.07,324.64c.51-3.71-.05-4.66,1.44-8.19.42,2.89-.87,5.61-1.44,8.19Z"/>
                <path class="cls-18" d="M194.22,310.37c-10.7,64.38-15.68,109.11-15.68,109.11-.38,1.28-1.01,2.17-4.79,2.62-11.96,1.43-61.35,4.81-71.75.48-.85-.35-3.73-1.93-4.09-2.65-1.81-3.54-8.33-43.56-18.3-109.56,0,0,114.72-.63,114.61,0Z"/>
                <g>
                  <path class="cls-2" d="M138.02,269.26c.68,4.57,1.3,1.39,2.65,2.41,1.86,1.4,1.7,3.44,4.09,3.85-.3,3.73,3.39,5.52,6.5,6.26-2.09-1.92-5.86-2.86-6.02-6.26,0-.15-.02-.33,0-.48.76-6.93,6.96-1.18,8.91-.48.76.27,2.25-1.16,4.33,0,2.43,1.36,1.23,4.21,1.44,4.33.68.38,4.33-.57,5.54,1.44.61,1.01.4,2.29-.48,3.13,2.17,1.92,4.17-1.13,5.54-.72.46.14,2.21,3.32,2.41,3.37.92.22,2.87-3.31,6.26-1.44,3.16,1.74.47,4.29.72,5.54.7,3.41,5.71-1.2,8.91.72,2.84,1.7.05,5.06.24,5.54.1.26,3.74,3.14,4.33,3.61,1.21,4.08-5.53,5.92-8.43,6.74-7.83,2.22-18.08,2.39-26.25,2.89,1.26-.01,8.14-5.5,8.19-6.02s-3.31-2.17.48-3.85c-3.42.06-8.26-2.91-6.26-6.74,1.1-2.1,4.19-1.47,5.54-3.13,2.39-2.96-4.53-.21-4.82,0-1,.71-5.82,8.89-4.33,9.15,6.96-2.69,7.72,9.22-.96,8.19-5.76-.68-6.33-6.45-6.74-6.74-.13-.09-1.09,1.57-1.93,1.44-2.74-.4-1.76-8.12-2.89-8.19-.62,2.89-4.34,2.54-4.82,2.89-.32.24-.66,5.69-5.06,4.57,5.15,2.4,5-2.69,6.02-3.13,4.55-1.96,3.22,4.54,3.85,5.3.18.22,2.78.38,2.89.48,1.02.92,1.53,3.22,2.89,3.85,1.92.89,4.84-.29,6.02,1.93-3.96.21-7.82.38-11.8.48-.38,0,.14-.99-.96-.96-.18,0-1.97,1.43-3.37,1.44-12.93.13-31.47-.13-44.06-2.41-.53-3.48-5.12-3.44-4.33-7.46.41-2.1,6.2-3.96,7.95-3.61,3.22.63,3.91,5.37,6.02,6.26l1.2,1.44c.92-1.04-1.04-1.12-1.2-1.44-1.47-2.88-.4-4.31-.48-4.57-.3-.97-6.85-2.39-4.82-6.74.71-1.53,4.03-1.81,1.2-3.13-3.84,1.36-1.35,5.31-4.82,7.71-.92.64-2.62.32-2.89.48-3.85,2.2-4.15,4.61-9.39,1.2.47,4.84,4.75,2.79,5.78,3.85.29.3,1.69,4.89,3.37,5.54-3.79-.82-15.65-2.77-12.04-8.19.56-.84,2.73-1.64,2.89-2.17.04-.14-.95-1.63-.48-2.89.73-1.94,4.86-2.45,5.78-4.33.1-.21-1.46-1.7,1.2-4.09,4.46-4.01,4.96,3.42,9.87-.72.4-.34-.3-2.99,2.65-2.65,2.55.29,2.37,5.01,5.06,1.69-7.17-.46-.75-9.65,3.85-8.43.05.1,1.38,1.04,1.44,1.69.18,1.82-1.3,2.52-.72,4.09,1.07.58.55-4.57,4.57-3.37,4.67,1.39,2.3,6.18,3.61,6.74.48.21,1.71-1.14,2.89-.96,2.07.32,4.44,5.72,5.78.96-2.48.12-7.13-1.7-8.43-3.61-.66-.97,1.56-3.39-3.37-3.61-2.03-3.86,2.34-4.01,3.85-5.78,3.12.06,2.64,4.42,3.61,4.82.23.09,4.6-.84,4.82-.96.33-.19-.6-1.38-.24-2.17.28-.61,1.37-1.71,1.44-1.93.22-.63-1.02-4.11,1.93-4.57.79-.12,3.16,1.23,3.85,1.93Z"/>
                  <g>
                    <path class="cls-13" d="M118.28,278.41c.56.09.45-.48.48-.48,4.93.22,2.71,2.64,3.37,3.61,1.3,1.91,5.94,3.73,8.43,3.61-1.34,4.76-3.71-.65-5.78-.96-1.18-.18-2.41,1.17-2.89.96-1.31-.56,1.06-5.35-3.61-6.74Z"/>
                    <path class="cls-13" d="M158.73,309.71c-.63.04-1.29-.03-1.93,0-1.18-2.21-4.1-1.03-6.02-1.93-1.36-.63-1.87-2.93-2.89-3.85-.11-.1-2.71-.26-2.89-.48-.64-.76.7-7.26-3.85-5.3-1.02.44-.87,5.53-6.02,3.13,4.39,1.12,4.74-4.34,5.06-4.57.47-.35,4.2,0,4.82-2.89,1.13.06.15,7.79,2.89,8.19.83.12,1.8-1.53,1.93-1.44.41.29.99,6.06,6.74,6.74,8.68,1.03,7.92-10.87.96-8.19-1.48-.26,3.33-8.44,4.33-9.15.29-.21,7.2-2.96,4.82,0-1.34,1.67-4.44,1.03-5.54,3.13-1.99,3.83,2.84,6.8,6.26,6.74-3.79,1.68-.44,3.32-.48,3.85s-6.93,6.01-8.19,6.02Z"/>
                    <path class="cls-13" d="M106.24,303.45c-2.11-.89-2.8-5.63-6.02-6.26-1.75-.34-7.53,1.51-7.95,3.61-.79,4.03,3.8,3.98,4.33,7.46-.75-.14-1.65-.32-2.41-.48-1.68-.65-3.08-5.24-3.37-5.54-1.03-1.07-5.31.99-5.78-3.85,5.24,3.4,5.54,1,9.39-1.2.27-.16,1.97.15,2.89-.48,3.46-2.39.97-6.35,4.82-7.71,2.82,1.32-.49,1.6-1.2,3.13-2.04,4.36,4.52,5.77,4.82,6.74.08.27-.99,1.7.48,4.57Z"/>
                    <path class="cls-13" d="M171.49,300.08c1.69,2.48,7.37-.23,7.71,0,.23.16-1.17,4.26,1.2,5.06-6.13,1.65-9.81,2.95-8.91-5.06Z"/>
                    <path class="cls-13" d="M135.37,284.19c.46-.17,3.31,4.63,8.67,3.37.99-.23,2.72-2.48,2.89-2.41s1.34,3.45,1.2,3.61c-.27.34-8.01,1.78-8.43,1.69-1.49-.34-3.69-5.28-7.46-3.13,1.47-.35,2.92-3.05,3.13-3.13Z"/>
                    <path class="cls-13" d="M126.71,289.97c-.15,5.65,5.2,6.86,9.87,7.46-2.61,2.18-7.79-1.38-10.84-2.65-1.14-.48-3.53,1.02-5.54-3.13,2.9-.76,4.35,2.58,6.5-1.69Z"/>
                    <path class="cls-13" d="M158.49,280.34c.63.24-.36,1.71.24,2.65.5.78,5.03,3.71,1.2,4.09-1.47.15-2.35-3.28-3.37-3.85-.23-.13-4.78-.27-4.57-1.2,3.06,1.7,6.16-1.81,6.5-1.69Z"/>
                    <path class="cls-13" d="M112.26,288.04c.07,0,.88.7,1.2.72-1.06.29-.3,7.71-1.2,7.95.42-1.77-2.57-3.4-2.65-3.61-.4-1.15,1.36-4.92,2.65-5.06Z"/>
                    <path class="cls-13" d="M186.42,297.67c3.23,2.59,1.8,5.03-1.44,6.74-.73-.99.43-2.57.72-4.09.08-.42-2-1.18.72-2.65Z"/>
                    <path class="cls-13" d="M126.22,301.53c.3-.08,6,3.08,4.33,3.85-4.07-4.9-5.8,2.39-10.84-1.69.89-1.32,2.28.61,4.09.24,1.44-.29,2.24-2.36,2.41-2.41Z"/>
                    <path class="cls-13" d="M112.74,305.86c1.3.28,4.73.1,4.57,1.69-.21,2.17-4.87.78-4.57-1.69Z"/>
                    <path class="cls-13" d="M144.76,275.52h.48c.16,3.4,3.93,4.34,6.02,6.26-3.11-.74-6.8-2.53-6.5-6.26Z"/>
                    <path class="cls-13" d="M117.56,286.6c1.17,2.15,2.87,0,4.09.72l-4.57,1.69.48-2.41Z"/>
                    <path class="cls-13" d="M139.71,304.9c.51,2.52,1.29,3.86-1.69,2.17l1.69-2.17Z"/>
                    <path class="cls-13" d="M150.78,290.93c.1-.01,1.62.98,1.69,1.2,1.07,3.71-4.34-.82-1.69-1.2Z"/>
                    <path class="cls-13" d="M174.38,290.45c.1-.04,1.72,1.11,1.69,1.2-.42,1.09-2.85-.76-1.69-1.2Z"/>
                    <path class="cls-4" d="M106.24,303.45c.17.33,2.13.4,1.2,1.44l-1.2-1.44Z"/>
                  </g>
                </g>
                <path class="cls-20" d="M190.5,311.94l-15.75,110.37c-1.98.22-1.83.22-2.78.33,1.14-11.91,14.23-98.04,15.77-109.89,5.14-.91,2.77-.8,2.77-.8Z"/>
                <path class="cls-20" d="M133.69,315.97c-2.72-.02-5.47.06-8.19,0,.08,1.43,4.09,109.16,4.09,109.16,1.37-.04,4.23,0,5.65-.1-.38-34.1-1.55-109.06-1.55-109.06Z"/>
                <path class="cls-20" d="M105.03,315.07c3.91.37,7.47.57,11.44.62.61,14.99,6.83,94.19,8.19,109.44l-6.92-.19-12.71-109.87Z"/>
                <path class="cls-20" d="M88.48,313.09c2.63-.67,5.74.5,7.61,1-.15,3.5,16.98,108.42,17.28,110.67-5.79-.42-6.44-.78-6.44-.78,0,0-17.34-106.89-18.44-110.89Z"/>
                <path class="cls-20" d="M149.1,315.97c-2.88.07-5.79-.03-8.67,0,0,0-.98,107.08-.48,108.94,3.03,0,6.25-.23,6.25-.23,0,0,2.83-107.6,2.9-108.71Z"/>
                <path class="cls-20" d="M83.58,311.81c-.31,2.92,18.46,109.75,17.52,110.47-.15.11-2.49-1.39-2.59-1.54-1.3-1.92-16.22-105.88-17.28-109.43.68-.2,1.67.67,2.35.5Z"/>
                <path class="cls-20" d="M168.68,315.82s-8.44.25-9.93.25c-.27,5.78-7.16,98.78-7.59,108.33.94.03,5.76-.32,5.76-.32l11.75-108.26Z"/>
              </g>
              <path class="cls-20" d="M182.17,314.25c-2.34.15-4.46.51-6.12.81.13,3.5-13.9,106.16-14.15,108.4,4.98-.42,5.9-1.4,5.9-1.4,0,0,13.42-103.82,14.37-107.82Z"/>
              <path class="cls-33" d="M96.34,313.7c.71.21,1.56.44,2.27.61,11.9,2.88,53.13,2.09,56.87,1.83.6-.04,1.22.05,1.82,0,7.71-.63,17.4-.85,24.8-3.66,2.74-1.04,9.11-3.37,7.96-8.54.28.3,2.94,1.19,3.64,2.13,1.56,2.1,1.98,6.64-2.73,11.28-.26.25-10.41,8.69-56.26,8-2.38-.04-49.29.02-54.3-10.74-2.1-4.51-.02-10.96,4.55-11.28-3.41,6.86,7.79,9.33,11.37,10.37Z"/>
              <path class="cls-5" d="M94.2,307.79c.75.16,1.65.35,2.41.48,12.6,2.27,56.24,1.65,60.2,1.44.64-.03,1.29.04,1.93,0,8.16-.5,18.42-.67,26.25-2.89,2.9-.82,9.64-2.66,8.43-6.74.3.23,3.11.94,3.85,1.69,1.65,1.66,2.1,5.25-2.89,8.91-.27.2-11.01,6.86-59.55,6.32-2.52-.03-52.17.02-57.47-8.48-2.23-3.56-.02-8.66,4.82-8.91-3.61,5.42,8.25,7.37,12.04,8.19Z"/>
              <path class="cls-5" d="M106.51,422.64c18.7,1.64,32.45,2.33,60.23-.04,1.92-.16,12.27-1.9,11.84-3.7.58.53.4.88.25,1.31-.35,1.04-8.34,5.3-42.32,5.41-8.78.03-31.93-.91-36.71-3.17-1.93-.91-2.75-2-2-2.73.98,1.95,6.21,2.69,8.7,2.91Z"/>
            </g>
            <path class="cls-16" d="M77.44,261s-.01-.02-.02-.03c-5.64-8.95,6.8-29.72,18.12-36.92-21.61,1.03-35.05,9.47-36.96,10.4-23.13,11.22-17.55,53.7-33.45,56.31.15,1.23,10.12,8.35,10.74,8.68,6.91,3.7,15.61,5.34,22.9,7.83,10.53,3.6,13,5,13,5,0,0-1.35-6.03,0-5,.57.44-.06-.89.23-2.87,2.95-20.66,8.68-37.37,5.43-43.4Z"/>
            <g>
              <path class="cls-3" d="M73.58,360.71c-.36,2.9-1.66,4.96-.81,11.55-14.9,17.51-28.27,25.59-51.09,29.02-2.91-3.11-3.96-4.81-5.31-8.94,4.46,9.65,38.22-13.47,44.05-18.34,4.8-4.01,8.61-9.01,13.15-13.27Z"/>
              <path class="cls-3" d="M74.47,379.57c-11.2,16.49-26.73,25.2-46.42,26.56-2.57-1.99-3.45-1.72-6.37-4.85,22.82-3.43,36.18-11.51,51.09-29.02,1.9,5.06,1.57,6.96,1.71,7.31Z"/>
              <path class="cls-7" d="M62.05,304.03c-1.34.05-2.6-.1-3.94-.11-7.71-.02-14.99-1.48-22.23-4.47-.48,1.89-1.66,5.28-2.06,6.89,6.37,2.36,19.67,22.27,19.2,30.25-.12,1.96-2.88,19.39-3.38,20.28-.5.88-2.8.6-2.26,1.97,1.92-.79,3.76-1.67,5.63-2.55.4-.19,2.87-.65,4.52-1.45q.78-.83,1.55-1.65,6.85-22.37,13.7-44.74c-.64-1.6-1.51-7.96-.81-11.05.63-2.78-7.07,6.52-9.93,6.63Z"/>
              <path class="cls-7" d="M117.65,364.8c.03.07.94.83,1.09,1.14-.33,1.64-17.96,7.01-1.96,9.92.55,6.25-3.44,12.18-8.83,14.84-4.32,2.13-9.23,2.71-13.99,2.39,5.63-.85,8.87-5.96,12.23-10.19,3.05-1.6-6.27-1.17-12.25-2.27-8.18-1.51-26.63-7.2-6.76-3.81,30.09-2.78,10.62-.61-8.54-14.36,12.6,5.34,26.11,8.67,39,2.35Z"/>
              <path class="cls-30" d="M109.77,357.11c-1.18.34,3.13,4.28-9.08,2.4-5.86-.9-13.81-1.85-14.65-6.61-1.44-8.16-1.27-11.19-2.45-18.76-.23-1.51-5.67,3.9-6.59,9.28-5.72,2.6-12.88,9.18-17.92,9.76q-.78.83-1.55,1.65c-1.64.8-4.12,1.26-4.52,1.45-1.87.89-3.72,1.76-5.63,2.55-.54-1.37,1.76-1.09,2.26-1.97.5-.89,3.11-18.33,3.38-20.28,3.93-28.65-12.83-27.89-19.2-30.25-4.41,17.84-13.68,48.04-16.84,62.5-2.12,9.7-3.8,13.67-.61,23.49,4.46,9.65,38.22-13.47,44.05-18.34,4.8-4.01,8.61-9.01,13.15-13.27-.36,2.9-1.66,4.96-.81,11.55,1.9,5.06,1.57,6.96,1.71,7.31.03.08,1.08,1.3,1.12,1.38-.22-3.18,3.43,2.88,7.59,4.73,8.66,3.86,15.18.58,23.03-2.79,3.05-1.6-6.27-1.17-12.25-2.27-8.18-1.51-26.63-7.2-6.76-3.81,30.09-2.78,10.62-.61-8.54-14.36,12.6,5.34,26.11,8.67,39,2.35-1.03-2.58-4.74-8.6-7.88-7.69Z"/>
              <path class="cls-35" d="M106.21,382.89c-3.36,4.23-6.6,9.34-12.23,10.19-3.76-.26-10.91-2.56-13.76-5.11-1.59-1.43-3.63-4.97-4.62-7.02-.22-3.18,3.43,2.88,7.59,4.73,8.66,3.86,15.18.58,23.03-2.79Z"/>
            </g>
            <g>
              <path class="cls-3" d="M199.27,365.5c.36,2.9,1.66,4.96.81,11.55,14.9,17.51,28.27,25.59,51.09,29.02,2.91-3.11,3.96-4.81,5.31-8.94-4.46,9.65-38.22-13.47-44.05-18.34-4.8-4.01-8.61-9.01-13.15-13.27Z"/>
              <path class="cls-3" d="M198.37,384.35c11.2,16.49,26.73,25.2,46.42,26.56,2.57-1.99,3.45-1.72,6.37-4.85-22.82-3.43-36.18-11.51-51.09-29.02-1.9,5.06-1.57,6.96-1.71,7.31Z"/>
              <path class="cls-7" d="M155.19,369.59c-.03.07-.94.83-1.09,1.14.33,1.64,17.96,7.01,1.96,9.92-.55,6.25,3.44,12.18,8.83,14.84,4.32,2.13,9.23,2.71,13.99,2.39-5.63-.85-8.87-5.96-12.23-10.19-3.05-1.6,6.27-1.17,12.25-2.27,8.18-1.51,26.63-7.2,6.76-3.81-30.09-2.78-10.62-.61,8.54-14.36-12.6,5.34-26.11,8.67-39,2.35Z"/>
              <path class="cls-30" d="M163.07,361.9c1.18.34-3.13,4.28,9.08,2.4,5.86-.9,13.81-1.85,14.65-6.61,1.44-8.16,1.27-11.19,2.45-18.76.23-1.51,5.67,3.9,6.59,9.28,5.72,2.6,12.88,9.18,17.92,9.76q.78.83,1.55,1.65c1.64.8,4.12,1.26,4.52,1.45,1.87.89,18.3,9.28,20.22,10.07.54-1.37-16.35-8.61-16.84-9.49-.5-.89-2.92-18.37-3.38-20.28-12.93-53.84,20.96-45.65,27.33-48.01,4.41,17.84,5.55,65.8,8.72,80.26,2.12,9.7,3.8,13.67.61,23.49-4.46,9.65-38.22-13.47-44.05-18.34-4.8-4.01-8.61-9.01-13.15-13.27.36,2.9,1.66,4.96.81,11.55-1.9,5.06-1.57,6.96-1.71,7.31-.03.08-1.08,1.3-1.12,1.38.22-3.18-3.43,2.88-7.59,4.73-8.66,3.86-15.18.58-23.03-2.79-3.05-1.6,6.27-1.17,12.25-2.27,8.18-1.51,26.63-7.2,6.76-3.81-30.09-2.78-10.62-.61,8.54-14.36-12.6,5.34-26.11,8.67-39,2.35,1.03-2.58,4.74-8.6,7.88-7.69Z"/>
              <path class="cls-35" d="M166.64,387.68c3.36,4.23,6.6,9.34,12.23,10.19,3.76-.26,10.91-2.56,13.76-5.11,1.59-1.43,3.63-4.97,4.62-7.02.22-3.18-3.43,2.88-7.59,4.73-8.66,3.86-15.18.58-23.03-2.79Z"/>
              <path class="cls-7" d="M247.15,293.36c.48,1.89,1.06,5.85,1.46,7.47-6.37,2.36-35.15,14.57-28.78,40.54.47,1.91,2.88,19.39,3.38,20.28.5.88,18.29,8.67,17.76,10.03-1.92-.79-19.26-9.73-21.13-10.62-.4-.19-2.87-.65-4.52-1.45q-.78-.83-1.55-1.65c-.12-21.26-4.67-30.36-5.95-53.13,5.28,2.91,32.1-8.48,39.34-11.47Z"/>
            </g>
          </g>
          <path class="cls-36" d="M79.91,280.53c1.65-3.63,1.88-8.05,1.86-8.05,0-.07.01-.14.01-.2-4,4-10,5-10,5,1.8,3.12,3,3,1.39,4.85-5.25,7.42-9.44,13.78-14.39,23.15,2,0,6.89,2.24,8,3,2.36,1.61,5.16,3.51,6,3-.75-10.67,1.65-18.4,6-28,.39-.86.77-1.79,1.12-2.75Z"/>
          <path class="cls-16" d="M247.59,285.32c-2.26-3.35-6.59-29.39-18.25-42.78-.1.53-.2,1.06-.31,1.59-1.84,6.68-4.41,12.93-7.69,18.76.99,14.39-12.42,28.87-13.89,43.23,11,1,27.39-1.73,34.34-6.83.49-.36,9.62-8.99,12-10.09-1.84-1.75-4.66-1.6-6.19-3.87Z"/>
          <path class="cls-36" d="M207.72,299.83c-1.01-9.14,9.26-16.49,9.58-25.66.02-.5.11-4.09-.19-4.09-.16,1.24-.38,2.48-.56,3.72-.91,6.22-14.79,14.82-13.83,21.04,2,13,3.96,13.77,2.06,26.45,1.99.13,3.34-17.76,2.94-21.45Z"/>
          <g>
            <g>
              <path class="cls-24" d="M163.1,194.37c-9.09,11.59-21.81,20.53-36,24.5-2.36-3.08-5.37-5.97-6-10-.45-2.9.19-7.89.5-11,.07-.73.15-4.25.5-4.86,12.44,2.19,27.65-1.76,38.5-7.64,1.21,2.88,1.66,6.03,2.5,9Z"/>
              <path class="cls-30" d="M165.1,199.87c.39,2.05.72,4.18,1,6.25-7.26,8.67-18.31,15.14-29,18.75-2.48.84-1.89.97-2,1-.74.17-.36.73-2.5-.5-.28-.16-1.31-.83-1.5-1-.26-.22-3.39-4.71-4-5.5,14.19-3.97,26.91-12.91,36-24.5.67,2.38,1.94,5.17,2,5.5Z"/>
            </g>
            <g>
              <path class="cls-12" d="M193.87,96.87s-6.44-19.74-10.08-25.56c-4.81-7.69-19.05-20.76-27.72-23.4-8.71-2.65-26.18-2.64-36.4-.73,0,0-32.82,1.73-41.14,39.7-.94,4.3,3.47,25.35-1.5,42.9-.09.32-.14.65-.14.98v7.55c2.59,9.21,3.89,21.19,12.53,31.65,7.61,9.21,31.57,23.86,35.88,24.27,2.26.08,9.06-1.41,19.05-5.59,9.16-3.84,22.2-12.35,27.89-20.52,2.79-4.01,12.29-22.94,10.07-25.68,7.3-3.43,16.67-4.19,16.67-15.97,0-5.05-2.94-19.94-5.1-29.59ZM93.49,145.06c1.03.09,2.08.13,3.16.11-1.03.04-2.09,0-3.16-.11ZM150.29,142.04c.99.49,2.08.94,3.27,1.35-1.16-.38-2.25-.83-3.27-1.35Z"/>
              <path class="cls-37" d="M198.76,126.28c.06-.09,1.34-1.31-1.39-12.61-.8-3.84-2.6-12.74-2.6-12.74,0,0-.45-.64-1.11-1.37-.54-.59-1.23-1.23-1.8-1.71-7.14-5.96-20.51-5.64-24.33-5.66-8.48-.09-16.76,1.17-20.81,6.02-4.18,5.01-3.97,13.78-2.53,24.56.31,1.3,1.12,4,1.08,3.36-.1-1.67,1.06-6.72,2.37-9.57,2.25-4.92,4.62-8.13,10.93-10.58,15.64-6.05,31.83,20.59,32.55,21.79-1.8,6.6-5.1,12.32-11.07,14.7,3.89.67-5.67,21.3-8.64,25.56-5.68,8.17-18.56,15.97-27.72,19.8-9.98,4.18-16.68,6.28-18.99,6.23.17.06.07.12.64.16,15.33,1.15,24.21-2.52,37.43-10,19.85-11.23,20.3-13.57,30.24-32.4,1.1-2.09,1.09-4.53,2.88-6.84.38-.49,9.73-1.54.72-7.92,13.28-19.13,20.35-3.89,12.96,6.48-6.8,9.55-18.62-4.15-10.8,11.88,25.69,5.04,20.19-57.31,0-29.16Z"/>
              <path class="cls-28" d="M198.76,155.45c-2.56-.5-3.24-2.94-5.76-3.6,1.1-2.09,1.09-4.53,2.88-6.84.38-.49,9.73-1.54.72-7.92,13.28-19.13,20.35-3.89,12.96,6.48-6.8,9.55-18.62-4.15-10.8,11.88Z"/>
            </g>
            <path class="cls-19" d="M77.18,137.04c3.5,16.27,5.03,23.58,11.87,32.34,4.4,5.63,24.09,20.16,35.68,24.72-5.49-.09-34.05-16.97-40.23-24.75-6.68-8.4-8.31-18.44-8.47-25.05-.04-1.66.29-4.97.48-6.62.08-.68.39-2.73.39-2.73,0,0,.18,1.59.29,2.09Z"/>
            <path class="cls-30" d="M86.42,100c-1.88.06,1.36-4.44,2.23-6.28,1.06-2.92,1.12-6.36,2-9.25,6.04-19.79,23.82-27.78,10.5-24.25-10.51,2.79-20.82,35.08-21.94,44.67,0,.01.18,6.15.18,6.15,2.51-3.22,3.62-4.22,7.97-6.63,8.46-4.67,18.39-1.27,22.4,9.26.04.12,2.35,10.41,2.39,11.24.02.42.04-9.38.19-10.88-.96-13.22-15.39-14.39-25.92-14.04Z"/>
            <g>
              <path class="cls-30" d="M76.91,135.33c-10.31,3.67-5.4,11.06-2.85,18.16-12.38-9.8-7.4-25.37-2.57-25.81.6-.05,2.57-.04,3.82.89,1.15.86,1.63,1.73,1.63,1.73,0,0,0,3.37-.04,5.02Z"/>
              <path class="cls-37" d="M74.78,130.45c.86-.04,2.13,1.32,2.1,4.07-.03,2.31-.95,7.35-.78,11.64,0,0,.48,5.68,1.6,9.55-1.36-.54-2.49-1.3-3.64-2.21-2.55-7.1-9.59-19.37.72-23.04Z"/>
            </g>
            <g>
              <path class="cls-11" d="M269.98,148.94c-.14-.13-.31-.32-.48-.48-.31-18.33-12.21-12.48-19.34-17.19-4.6-3.04-7.83-19.38,14.08-18.38,5.56,7.95-13.96,6.35-11.94,10.5.48.99,15.1,6.07,17.19,8.59,3,3.63,2.98,13.91.48,16.95Z"/>
              <path class="cls-39" d="M23.16,132.71c-.77,1.33-4.97,3.92-3.34,11.94-5.77-2.09-14.97-2.67-13.84-10.74,1.81-13.02,15.73-1.17,17.19-1.19Z"/>
              <path class="cls-39" d="M35.57,115.04l.95,8.83q-6.68,4.42-13.37,8.83c.54-.92,2.18-2.06,2.39-2.63,2-5.39-4.36-9.36-3.82-14.8q6.92-.12,13.84-.24Z"/>
              <path class="cls-39" d="M277.14,80.19c-4.37-2.21-5.02-1.55-9.55-2.63,2.76-7.37,4.11-10.61,0-17.43-.52-.4-.64-.5,0,0-3.84-6.37-10.77-9.34-17.9-6.21-2.75-.54.94-5.86-9.79-11.7,8.37-15.47-11.31-28.07-21.24-13.61C201.05,8.83,176.41.05,151.82,13.35c-16.73-18.96-48.35-16.68-65.64.24-1.68,1.64.06,3.99-12.65,9.31-1.97.09-9.93-10.8-21.24-1.43,0,0,0,0,0,0-2.89,2.39-5.59,6.4-5.73,10.26-.03.76,1.65,8.46,1.91,8.83-1.18.2-2.31.87-3.34,1.43-7.68,4.19-5.16,3.47-8.83,10.98-18.35-1.5-25.18,16.33-12.17,28.88-2.57.83-5.11,1.11-7.64,2.15-1.99.82-3.19,1.37-4.77,2.86-9.07,8.54-4.83,20.54,5.73,25.06.64,1.79-3.89,4.36,0,13.37-18.05-2.07-24.49,18.34-7.64,26.26-3.6,8.83,2.84,20.44,12.65,16.95,7.94,7.76-1.98,7.84-.24,18.86,1.36,8.6,13.51,14.07,20.77,8.83,10.25,4.27,5.3,4.94,8.83,9.79,4.51,6.19,15.68,5.61,20.77.24,1.38.31.67,13.47,19.1,10.98,4.44-7.84,5.94-2.38,12.89-5.73,5.18-2.5,5.11-9.42,10.26-4.77,2.74-3.89,3.15-8.08,6.93-11.28.07-.7.14-1.4.21-1.99-6.38-2.21-25.4-13.42-31.26-18.43-9.34-7.98-13.33-20.37-13.01-19.3-1.36-.54-2.49-1.3-3.64-2.21-12.38-9.8-7.4-25.37-2.57-25.81.6-.05,2.57-.04,3.82.89,1.13.85,1.61,1.7,1.63,1.73.9-3.64,1.92-8.38,2.1-11.67.91-5.89.92-15.31.93-15.49.51-7.83,10.9-38.47,20.04-42.53,5.38-2.39,10.25,1.5,16.95-8.12,21.88,12.34,30.33-2.24,31.99-2.86,6.58-2.47,8.32,5.19,8.83,5.49,13.69,7.91,27,21.42,30.54,26.98.47.73,2.46,5.84,3.64,9.46,3.7,11.31,6.79,34.73,6.79,34.73,0,0,3.9-5.64,7.37-6.78-.07-.05,3.66-1.35,6.46,1.78,5.22,5.85,4.58,25.77-3.74,31.97-4.96,3.7-10.25,2.94-13.43,0-1.22-1.12-2.42-1.4-2.42-1.4,0,0-.35.73-1,1.91-1.55,2.8-5.42,11.17-9.33,15.71-7.98,9.27-15.7,11.85-22.05,15.97.87,3.22,1.58,5.68,2.38,8.52.64,2.27,1.85,4.93,1.91,5.25,5.45.54,7.16,3.77,10.08,5.58.54.34,3.43.86,4.54.95,6.7,13.18,24.45,10.16,28.64-3.82,9.21,9.72,23.29,11.63,27.21-3.82,7.01.07,11.98.74,16.71-5.25,17.53,1.89,24.17-15.7,11.7-27.45l5.97-7.88c5.9,1.47,11.45.11,14.56-5.25,3.95-6.8,2.04-13.9-4.3-18.38,1.49-16.72-7.49-16.8-8.12-17.66-2.99-4.15,5.51-3.75,10.03-9.07,6.81-8.02,4.79-22.13-4.77-26.97"/>
              <path class="cls-11" d="M29.37,152.28c-.27.1-1.5,1.75-5.01,2.86-.56-.14-4.42-9.94-4.54-10.5-1.63-8.01,2.57-10.6,3.34-11.94q6.68-4.42,13.37-8.83l-.95-8.83c.1-2.73-8.04-6.86-13.37-10.5-2.1-4.42-1.05-9.85,1.91-13.84,8.45-3.78,19.02-1.63,19.1-7.88,0-.5-2.12-5.75-2.39-9.79-.72-10.74,14.06-12.77,15.28-14.08.5-.54,1.74-5.63,1.91-6.92,1.36-2.12,3.22-3.78,4.77-5.73,2.19-2.75,3.56-.4,1.91-8.83,15.43-17.14,14.53-10.69,36.04-7.88,3.21-.75,3.19-14.58,10.03-15.75,9.57-1.64,12.02,10.31,8.12,13.37-3.67,2.88-3.2-2.58-6.68-7.64-3.78,22.62-17.69,15.12-34.85,12.89-8.46,5.82-4.47,10.16-5.49,13.13-.28.81-7.63,7.08-8.12,8.12-3,6.43,5.2,5.22-16.71,16.71-2.36,5.97,9.05,16.27-6.92,23.15-4.57,1.97-16.64,2.16-13.37,6.21,2.66,3.28,15.27,6.03,15.99,17.43,1.43,22.72-26.97,10.24-13.37,35.09Z"/>
              <g>
                <g>
                  <path class="cls-11" d="M164.23,15.26c12.02-1.13,20.75,19.49,43.44,11.94,11.03,14.64,20.32,10.14,15.52,27.93,2.48,1.22,11.9,9.52,12.65,9.79,5.27,1.89,20.78-2.81,15.99,16.47,4.52,1.56,20.47,7.85,22.44,11.46,2.26,4.16.7,12.42-4.06,14.08-11.08,3.87-.82-9.16-1.19-10.74-11.93-10.93-28.55-.8-21.96-23.39q-6.33-.6-12.65-1.19c-8.03-10.55-12.63-7.74-15.52-11.22-7.65-9.25,11.94-21.6-18.86-17.43l-2.39-8.12c-11.72.38-21.94-6.33-31.03-12.89-4.05-.29-16.38,7.73-13.61-.72.59-1.81,9.15-5.77,11.22-5.97Z"/>
                  <path class="cls-38" d="M209.11,32.93c2.95-.22-2.46,2.06-3.34,2.39-11.48,4.18-3.32-1.9,3.34-2.39Z"/>
                </g>
                <path class="cls-1" d="M110.76,13.83c-6.84,1.17-6.82,15.01-10.03,15.75-21.51-2.82-20.61-9.27-36.04,7.88,1.65,8.43.28,6.08-1.91,8.83-1.55,1.95-3.41,3.61-4.77,5.73h0c-.17,1.29-1.41,6.38-1.91,6.92-1.22,1.32-16,3.34-15.28,14.08.27,4.04,2.39,9.28,2.39,9.79-.07,6.25-10.64,4.1-19.1,7.88-2.96,3.99-4.01,9.42-1.91,13.84,5.33,3.64,13.47,7.78,13.37,10.5q-6.92.12-13.84.24c-.54,5.44,5.82,9.41,3.82,14.8-.21.57-1.85,1.7-2.39,2.63-1.46.02-15.38-11.82-17.19,1.19-1.12,8.08,8.08,8.65,13.84,10.74.11.56,3.98,10.36,4.54,10.5,3.52-1.11,4.74-2.77,5.01-2.86-13.6-24.85,14.8-12.37,13.37-35.09-.72-11.4-13.34-14.14-15.99-17.43-3.27-4.05,8.8-4.24,13.37-6.21,15.97-6.89,4.57-17.19,6.92-23.15,21.91-11.49,13.71-10.28,16.71-16.71.48-1.03,7.84-7.31,8.12-8.12,1.03-2.97-2.97-7.31,5.49-13.13,17.16,2.23,31.07,9.73,34.85-12.89,3.48,5.05,3.01,10.51,6.68,7.64,3.9-3.06,1.45-15.01-8.12-13.37Z"/>
                <path class="cls-1" d="M252.32,123.4c-2.02-4.15,17.5-2.56,11.94-10.5-21.91-.99-18.69,15.34-14.08,18.38,7.12,4.71,19.02-1.14,19.34,17.19.17.16.33.34.48.48,2.5-3.03,2.52-13.32-.48-16.95-2.09-2.52-16.71-7.61-17.19-8.59Z"/>
              </g>
            </g>
            <g>
              <path class="cls-27" d="M111.24,121.71c-.5-1.47-1.36-5.17-5.73-9.43-2.82-2.75-5.81-4.38-7.96-4.74-1.44-.2-2.74-.16-3.92.02-2.25-.1-5.68,1.45-7.92,3.23-5.87,4.68-4.57,12.46,1.08,15.84.25.15.53.29.82.43,3.24,1.76,5.75,1.8,9.2,1.91,0,0,6.24.41,14.03-2.74.47-.19,1.41-.71,1.41-.71,0,0-.22-2.03-1.01-3.82Z"/>
              <path d="M79.85,107.58c2.64,2.22,6.39-6.16,17.05-5.19,8.72.79,15.56,12.06,15.24,22.28-1.16-2.08-2.23-5.18-2.57-5.54-.05-.06-.18.02-1.29-.86,1.16-4.03-6.96-10.25-10.73-10.73-6.55-.85-10.77,2.43-13.74,7.73-.14.25-.58,1.17-.86,2.15-1.13,3.97,1.02,7.74,4.65,9.65-.74,0-3.81-1.99-4.23-2.35-4.02-3.43-7.61-12.5-7.56-18.15-.1-1.1.31-4.58.83-3.19.99,2.65,2.45,3.56,3.2,4.2Z"/>
              <path d="M96.57,120.44c1.9-.49,2.53-3.14,2.21-4.87,11.2-1.45,3.91,16.24-2.21,4.87Z"/>
              <path class="cls-6" d="M109.59,120.1c0-.2-.04-.38-.05-.58,0-.14,0-.27,0-.41,0,0-.02-.02-.04-.02-.84-6.6-8.39-11.1-11.98-11.57-.36,1.44-2.68,2.49-3.43,3.86-.15.27-.81,2.12,0,2.15,2.03-.08,2.65.33,3.43.43.07.43,1.27,1.61,1.29,1.72,10.87-1.4,3.79,15.75-2.15,4.72-2.27.58-4.3-1.57-4.72-.64.81,3.73,1.27,6.93,4.72,8.8,1.25.67,3.25.49,7.72-.31,3.74-.67,4.99-4.57,5.14-8.2.02.01.05.04.06.05Z"/>
              <path class="cls-27" d="M161.38,110.69c.9-.18,3.78-.53,5.05-.47,2.94.16,5.9,2.18,5.9,2.18,7.28,5.07,10.16,9.31,3.22,16.31-.69.31-2.85,1.25-3.01,1.29-5.74,1.41-21.22,1.35-27.05-2-.02,0-.03-.02-.05-.03-.3-.17-.26-2.91.05-3.98,3.45-6.78,7.95-12.16,15.89-13.31Z"/>
              <g>
                <path d="M181.56,114.56c2.17,1.76,3.7.7,5.24-1.17.9-.99.81-1.56,1.05-1.23.27.39.27,1.84-.33,3.75-1.37,4.31-5.27,9.83-11.96,12.82,6.94-7.01,4.06-11.25-3.22-16.31,0,0-1.92-1.42-5.58-2.15-1.82-.36-3.59.17-5.37.43-7.94,1.15-12.44,6.53-15.89,13.31,1.51-13.76,12.07-22.65,26.4-17.6,5.73,2.02,8.22,6.99,9.66,8.16Z"/>
                <path class="cls-6" d="M174.69,118.85c-.19-2.4-3.14-7.78-7.94-8.59-1.83-.31-3.59.17-5.37.43-4.27,6.01-2.22,3.07,1.5,4.29.41.13,1.13.82,1.5,1.29.24.3,1.52.19,3.86.86,4.97,5.8-3.02,11.68-6.44,4.72-1.91.28-4.19-1.74-4.29-1.5.28,14.31,18.69,12.68,17.17-1.5Z"/>
                <path d="M168.25,117.13c4.97,5.8-3.02,11.68-6.44,4.72,2.32-.34,3.84-3.51,2.58-5.58,1.66-.19,2.83-.01,3.86.86Z"/>
              </g>
            </g>
            <path class="cls-3" d="M205.72,150.67l1,2c1,2-3,3-3,3-1.16.37-2,1-3,0l1-5c1-2,3.66-.46,4,0Z"/>
            <g>
              <path class="cls-17" d="M206.72,158.67c0-2,0-5-1-6s-1.79-2.03-3-1c-.85.72-1.85,4.6-2,7-.05.8.36,3.41,1.05,3.95,1.97,1.52,3.28,1.28,3.96.21,1.99-3.16.99-2.77.99-4.16Z"/>
              <path class="cls-31" d="M207.27,157.87c-.22-2.79-.45-4.83-1.55-5.2-3-1-1,3-4,5-1.18.78-.56,3.32,0,4,3.39,4.13,5.76-1.04,5.55-3.8Z"/>
            </g>
            <g>
              <path d="M78.46,93.49c-.32-.04-.57-.26-.4-.54,1.23-1.98,4.66-7.32,6.9-8.78,2.26-1.48,9.41-4.96,14.55-3.99,4.03.76,4.14,4.49,4.17,6.11,0,.03-.02.06-.05.08-2.65,1.53-4.4.39-8.93.03-1.75-.14-3.24-.01-4.87.46-2.57.74-4.87,2.4-7.04,4.87-.66.75-2.7,1.96-4.34,1.76Z"/>
              <path d="M178.6,86.32c.11.55,2.3,3.22,2.88,5.4l-1.08,1.08c-14.83-10.29-26.1-.3-29.16-7.2,2.55-2.21,3.17-11.87,27.36.72Z"/>
            </g>
            <g>
              <path class="cls-24" d="M137.56,143.02c1.79,8-20.24,11.31-20.88,2.16,5.6,5.57,14.97,2.25,20.88-2.16Z"/>
              <g>
                <path class="cls-18" d="M155.93,149.5c2.64.26,5.03,1.58,6.12,3.96-8.51.6-12.2,25.11-29.16,27.72-25.18,3.88-14.91-25.59-27.72-19.8.7-9.31,39.85-.3,54.01-8.64l-3.24-3.24Z"/>
                <path class="cls-22" d="M150.89,158.15c4.44-.62-4.85,8.34-6.48,9.36-9.07,5.7-30.73,7.42-30.24-4.32,15.16,3.57,34.64-4.75,36.73-5.04Z"/>
              </g>
              <path class="cls-19" d="M121.36,139.42c2.21,1.67,5.3,2.24,5.4,2.52,1.58,4.52-6.69,4.93-5.4-2.52Z"/>
            </g>
          </g>
          <g>
            <path class="cls-14" d="M119.36,115.77c0,6.82-3.07,21.22-7.49,23.91-5.12,3.13-28.4.63-31.34-.86-4.16-2.11-5.22-13.47-5.22-22.11,0-7.24,1.38-14.92,4.93-18.24,3.68-3.44,9.62-2.38,15.68-2.38,5.73,0,12.2-1.89,16.51.95,4.64,3.05,6.91,11.09,6.91,18.73Z"/>
            <path class="cls-15" d="M193.38,116.88c0,9.35-1.34,19.05-6.12,23.43-6.14,5.62-16.74,4.51-24.58,4.51-13.93,0-20.83-10.61-20.83-26.9,0-19.01,10.19-22.76,24.12-22.76,18.04,0,27.41,5.44,27.41,21.73Z"/>
            <g>
              <path class="cls-20" d="M198.76,126.28c5.39-8.98-3.88-19.43-4.99-22.4-2.81-7.5-3.97-9.7-6.33-11.16-1.67-1.02-8.14-.84-14.7-.84-4.27,0-64.82.45-70.89.02-1.81-.13-7.7.06-14.3.4-7.46.39-9.3,1.15-10.35,6.6-.56,2.89-5.51,9.2-4.68,16.87.73,6.74,1.87,19.9,1.87,19.9,0,0,1.72,4.64,4.29,6.01,12.74,2.86,28.61,2.95,34.34,1.72,3.31-.71,8.28-7.81,9.63-22.25.23-2.46,1.52-4.73,2.33-7.06,8.04-.73,11.14-.08,12.47,2.05,1.96,3.13,2.6,13.33,4.63,19.27,1.6,4.69,4.33,9.27,7.55,10.39,4.51,1.57,19.6,2.62,28,1.82,5.44-.52,11.57.25,14.28-3.08,3.6-4.41,5.24-15.58,6.85-18.25ZM117.25,118.31c-.24,7.06-1.02,14.46-5.52,18.08-1.09.87-3.74,1.99-6.01,2.29-6.39.84-16.06,2.08-23.18-.72-4.01-1.57-3.83-4.14-4.58-6.44-3.89-11.89.85-28.45,1-28.9,1.8-5.4,9.85-5.28,15.1-5.59,5.96-.35,14.12-1.36,18.53,2.01,1.56,1.19,4.81,15,4.66,19.27ZM143.02,116.9c-.35-14.93,4.85-17.89,18.74-19.21,5.22-.5,10.74-.81,15.93,0,.76.12,2.28.33,2.81.47,1.99.52,3.98,1.25,5.43,2.66.44.43,2.67,7.11,4.17,17.39.46,3.17.53,19.28-4.34,22.54-3.68,2.46-24.41,2.99-33.32.56-4.62-1.26-9.28-18.97-9.41-24.41Z"/>
              <path class="cls-5" d="M197.72,99.09c-.45-.78-6.65-3.07-7.1-2.71,2.63,4.98,4.46,12.33,7.72,28.47.17.83,3.54-5.52,3.36-14.35-.49-1.5-1.58-7.22-3.98-11.41Z"/>
              <g>
                <path class="cls-20" d="M73.74,107.09q-4.68,2.11-9.37,4.22c-.49-1.04-2.48-9.06-1.17-9.84,7.87-1.19,12.19-2.81,14.21-3.61.72-.29.03.67-.89,3.1-.61,1.61-1.67,3.36-2.77,6.13Z"/>
                <path class="cls-5" d="M73.74,107.09l-1.17,9.37c-3.03-1.96-6.5-1.57-8.2-5.15q4.68-2.11,9.37-4.22Z"/>
              </g>
            </g>
            <g>
              <path class="cls-5" d="M211.33,107.96c-2.95-1.66-1.58,4.54-10.31,5.15-.09-7.1-1.3-9.8-6.56-14.76l.7-.7c2.11.67,14.44,5.96,14.99,6.56.88.97.79,2.25,1.17,3.75Z"/>
              <path class="cls-10" d="M211.33,107.96c.44,1.73-.17,12.17.59,12.75-5.92-4.52-13.16,5.58-13.16,5.58,0,0-3.3-13.18-3.33-15.35,8.72-.61,12.95-4.64,15.89-2.98Z"/>
            </g>
          </g>
        </g>
      </g>
    </g>
  </g>
</svg>