<?xml version="1.0" encoding="UTF-8"?>
<svg id="Layer_2" data-name="Layer 2" xmlns="http://www.w3.org/2000/svg" xmlns:xlink="http://www.w3.org/1999/xlink" viewBox="0 0 336.11 567.83"><defs>
    <style>
      .cls-1 {
        fill: none;
      }

      .cls-2 {
        fill: #fef246;
      }

      .cls-3 {
        fill: #c45f41;
      }

      .cls-4 {
        fill: #232323;
      }

      .cls-5 {
        fill: #e2e3e5;
      }

      .cls-6 {
        fill: #facf38;
      }

      .cls-7 {
        fill: url(#linear-gradient-2);
      }

      .cls-8 {
        fill: #f7b750;
      }

      .cls-9 {
        fill: #503740;
      }

      .cls-10 {
        fill: #dea525;
      }

      .cls-11 {
        fill: #cf99ce;
      }

      .cls-12 {
        fill: #634d66;
      }

      .cls-13 {
        fill: #635b57;
      }

      .cls-14 {
        fill: #23110a;
      }

      .cls-15 {
        fill: #281a26;
      }

      .cls-16 {
        fill: url(#linear-gradient);
      }

      .cls-17 {
        fill: #ef7d3c;
      }

      .cls-18 {
        fill: #f0935d;
      }

      .cls-19 {
        fill: #fef593;
      }

      .cls-20 {
        fill: #bdeded;
      }

      .cls-21 {
        fill: #c12e4b;
      }

      .cls-22 {
        fill: #f8ae89;
      }

      .cls-23 {
        fill: #dcbdd8;
      }

      .cls-24 {
        fill: #a66bb7;
      }

      .cls-25 {
        fill: #f5dec8;
      }

      .cls-26 {
        fill: #fbfbfc;
      }

      .cls-27 {
        fill: #fff;
      }

      .cls-28 {
        fill: #cc5637;
      }

      .cls-29 {
        fill: #8e4237;
      }

      .cls-30 {
        fill: #c386c3;
      }

      .cls-31 {
        fill: #091111;
        opacity: .95;
      }

      .cls-32 {
        fill: #fcf8e9;
      }

      .cls-33 {
        fill: #ac4a30;
      }

      .cls-34 {
        fill: #c9892d;
      }

      .cls-35 {
        fill: #e6794d;
      }

      .cls-36 {
        fill: #7aebe9;
      }

      .cls-37 {
        fill: #faf8ed;
      }

      .cls-38 {
        fill: #c392c2;
      }

      .cls-39 {
        fill: #661b6a;
      }

      .cls-40 {
        fill: #d7643c;
      }

      .cls-41 {
        fill: #95409b;
      }

      .cls-42 {
        fill: #3d2709;
      }

      .cls-43 {
        fill: #353535;
      }

      .cls-44 {
        fill: #3a3b3e;
      }

      .cls-45 {
        fill: #deb225;
      }

      .cls-46 {
        fill: #320532;
      }

      .cls-47 {
        fill: #1d121b;
      }
    </style>
    <linearGradient id="linear-gradient" x1="102.94" y1="174.54" x2="106.6" y2="153.83" gradientUnits="userSpaceOnUse">
      <stop offset="0" stop-color="#3a310b"/>
      <stop offset="1" stop-color="#2a1d0f"/>
    </linearGradient>
    <linearGradient id="linear-gradient-2" x1="169.92" y1="175.69" x2="169.92" y2="155.54" xlink:href="#linear-gradient"/>
  </defs>
  <g id="MUSIC">
    <g>
      <g>
        <g>
          <path class="cls-8" d="M170.24,513.31c-17.25,1.58-91.19-26.61-87.03-9.82.25,1.01,4.19,17.73,8,21,7,6,43,8,67,7,14.33,0,54.02-11.14,55.03-16.18.97-4.82,1-6,2-12-14.1,5.2-30.06,8.63-45,10Z"/>
          <path class="cls-34" d="M143.54,531.73l-1.33-10.67s2.67,10.67,4,10.67h-2.67Z"/>
        </g>
        <g>
          <g>
            <path class="cls-9" d="M160.59,10c.59.72-.95,1.28-.99,1.35.05-.06-.15-.62.99-1.35Z"/>
            <g>
              <path class="cls-34" d="M145.57,23.25c.81.1,4.84.48,5.66.59.33.04.79-.28,1.07-.24,29.79,4.1,58.93,15.16,84,31.52.23-8.86-1.45-24.6-3.93-32.99-.96,2.18-.77-.41-1.56-.47-.5-.04-5.07,4.48-7.92,6.16-20.93,12.27-28.94-14.09-43.65-24.59-1.9-1.36-3.56-1.27-3.2-2.37-3-.47-5.74-1.2-8.84-.66,0,0-15.28,15.7-21.62,23.06Z"/>
              <path class="cls-41" d="M215.58,52.18c5.11,2.78,12.52,7.15,20.24,12.48-.21-3.19.38-6.36.46-9.54-25.07-16.36-54.22-27.41-84-31.52-.27-.04-.73-.04-1.06-.08-.81-.11-1.66-.09-2.47-.19-2.58-.32-5.18-.65-7.75-.93-1.08,1.11-2.19,2.19-3.28,3.29,1.08.14,2.02.27,2.79.37,24.27,3.2,52.66,13.94,75.07,26.12Z"/>
              <path class="cls-8" d="M235.83,64.65c-7.73-5.33-15.14-9.7-20.24-12.48-22.41-12.19-50.8-22.92-75.07-26.12-.77-.1-1.71-.23-2.79-.37-16.38-2.12-66.01-7.66-68.29,14.02,14.89-19.01,57.09-10.55,76.94-6.27,22.73,4.9,44.88,13.93,66.44,23.94.08.02.17-.02.26,0,.95.23,15.59,8.27,17.71,9.54,13.07,7.79,29.85,19.51,38.77,33.93-3.53-12.72-19.18-26.16-33.72-36.19Z"/>
              <path class="cls-8" d="M230.8,21.65c-.5-.04-5.07,4.48-7.92,6.16-20.93,12.27-28.94-14.09-43.65-24.59-1.9-1.36-3.56-1.27-3.2-2.37,18.61,2.91,35.29,12.77,53.68,16.45l1.85,1.38c.75,1.73.74,3.21.81,3.44-.96,2.18-.77-.41-1.56-.47Z"/>
            </g>
            <g>
              <path class="cls-8" d="M140.97,22.39c2.57.29,5.17.62,7.75.93,6.34-7.36,10.79-17.53,19.1-22.56l-.67-.58c-5.87,1.01-21.38,17.26-26.18,22.21Z"/>
              <path class="cls-47" d="M159.57,11.35c.04-.07,1.58-.63.99-1.35-1.14.73-.94,1.28-.99,1.35Z"/>
            </g>
          </g>
          <path class="cls-42" d="M69.43,39.71c14.89-19.01,57.09-10.55,76.94-6.27,22.04,4.75,43.54,13.39,64.48,23.04,1.33.53,2.22.9,2.22.9.95.23,15.59,8.27,17.71,9.54,13.07,7.79,29.85,19.51,38.77,33.93.24.86.95,2.01,1.06,3.07,1.02,9.58-5.11,14.49-12.17,17.26-1.52.6-3.09,1.1-4.64,1.52-4.63.93-159.62-50.55-161.27-51.88-4.86-3.52-3.15-1.15-8.05-5.63-8.81-8.05-15.93-17.14-15.05-25.48Z"/>
        </g>
        <path class="cls-41" d="M208.33,364.38s2.01-1.33,2-1c.79.22,24.08-24.13,27-32,.78-2.09,5-16,3.64-22.19-2.22-8.65-5.33-16.92-11.1-23.73-11.06-13.05-23.06-9.92-32-12.75-2.06,4.39-4.56,8.65-7.5,12.5-1.79,6.55-15.09,23.07-21.75,23.5-9.38.61-14.95-13.49-21.25-17.5.77,7.01-1.52,13.2-8,16.75.27,1.15,3.33-2.49,4,2.75,4.99-2.53-2.85,6.03-6.25,6.5-7.5,1.03-10.54-8.74-11.25-14.75-.29-2.47-.34-9.47,1-8.75-.4-5.91,2.16-10.9,5-16-.53.21.22-1.48-3,1.75-3.25,3.26-20.49,27.48-22.25,27.75-.29.04-5.13-2.48-5.25-2.75-1.4-3.12-.03-30.67-2.75-32.25-.73-.42-3.62.87-3.25-1-7.49.57-11.19.92-18.25,5-10.18,5.89-20.87,23.02-18.25,28.25,3.46,6.92,12.46,17.92,19.46,23.92,1.53,1.31,3.12-.13,4.25-1.77-4.32,7.15-8.4,19.18-7.25,28.77,1.37,11.43,6.94,17.95,11,21,2.73,2.05,9,4,9,4,0,0,5.05,5.22-1,15-2.44,3.95-9.95,14.22-18.96,37.33-4.86,19.13-8.8,38.44-11.5,58-.3,2.14-.09,4.45-1,6.5,14.74,9.85,38.13,13.18,55.5,15,17.19,1.8,34.75,2.58,52,1,14.94-1.36,30.9-4.79,45-10,4.67-1.72,10.18-4.03,14.5-6.5-2.17-15.61-5.7-30.88-10-46-3.23-11.34-6.45-22.5-12-33-7.44-5.87-5.13-31.09-3.95-43.02l4.42-10.3Z"/>
        <path class="cls-18" d="M179.43,155.63l5,23s2.54,3.61,4,3c4.09-1.7,7-9,7-17,0-6-4-14-4-14l-12,5Z"/>
        <path class="cls-35" d="M161.48,145.33c2.95-.27.79.68-3.05,2.3-6.05,2.55-10,7-6.95,20.45.12.52-.37.37-.75.75q-4.62-1.5-9.25-3c-.37-15.93,5.95-19.2,20-20.5Z"/>
        <g>
          <path d="M78.38,150.05c0,.28.52-.08,1.04-.43,6-4,9-6,11-7,4-2,6.64-2.09,7-2.14,3.73-1.21,17.62,3.61,12.75-3.75-4.46-6.74-17.09-1.59-22.5,1.25-1.72.9-9.25,7.64-9.3,12.07Z"/>
          <path d="M178.68,144.98c.57.59.75-2.36.25-4-4.07-10.9-27.41-8.99-28.75-4.25-1.99,7.07,10.41,1.2,21.5,4,2.75.89,3.75.89,7,4.25Z"/>
        </g>
        <path class="cls-3" d="M184.91,161.58c.05.3-.38.64-.53.38-3.95-7.33-17.16-9.14-22.26-6.7-3.07,1.47,7.49-8.19,17.31-3.63,4.89,2.27,5.17,7.94,5.48,9.95Z"/>
        <path class="cls-14" d="M191.21,165.38c-4.38,1.26-7.2.83-8.78-.75-.41-.41-.76-.75-1.09-1.06-6.91-9.94-25.91-4.94-24.86,6.26,3.27-2.45,5.48-8.74,15.25-7,5.27.94-3.64-.08-5.75,3.75-4.02,7.3,4.26,12.85,9.5,7.25-3.01-1.72-.06-1.54.5-3.5-.16.03-.34-.03-.5,0-6.57,1.4-4.99-5.86,1.5-4.5,3.03.64,6.98,4.52,7,6.5.45,1.3-.65,2.39-.55,2.3,1-1,2-3,1.04-3.71,2.34-.06,6.74-5.53,6.74-5.53Z"/>
        <g>
          <g>
            <path class="cls-28" d="M166.88,239.75c-9.09,11.59-21.81,20.53-36,24.5-2.36-3.08-5.37-5.97-6-10-.45-2.9.19-7.89.5-11,.07-.73.15-4.25.5-4.86,12.44,2.19,27.65-1.76,38.5-7.64,1.21,2.88,1.66,6.03,2.5,9Z"/>
            <path class="cls-35" d="M168.88,245.25c.39,2.05.72,4.18,1,6.25-7.26,8.67-18.31,15.14-29,18.75-2.48.84-1.89.97-2,1-.74.17-.36.73-2.5-.5-.28-.16-1.31-.83-1.5-1-.26-.22-3.39-4.71-4-5.5,14.19-3.97,26.91-12.91,36-24.5.67,2.38,1.94,5.17,2,5.5Z"/>
          </g>
          <g>
            <path class="cls-18" d="M197.64,142.24s-6.44-19.74-10.08-25.56c-4.81-7.69-19.05-20.76-27.72-23.4-8.71-2.65-26.18-2.64-36.4-.73,0,0-32.82,1.73-41.14,39.7-.94,4.3,3.47,25.35-1.5,42.9-.09.32-.14.65-.14.98v7.55c2.59,9.21,3.89,21.19,12.53,31.65,7.61,9.21,31.57,23.86,35.88,24.27,2.26.08,9.06-1.41,19.05-5.59,9.16-3.84,22.2-12.35,27.89-20.52,2.79-4.01,12.29-22.94,10.07-25.68,7.3-3.43,16.67-4.19,16.67-15.97,0-5.05-2.94-19.94-5.1-29.59ZM97.26,190.44c1.03.09,2.08.13,3.16.11-1.03.04-2.09,0-3.16-.11ZM154.06,187.42c.99.49,2.08.94,3.27,1.35-1.16-.38-2.25-.83-3.27-1.35Z"/>
            <path class="cls-40" d="M202.53,171.66c.06-.09,1.34-1.31-1.39-12.61-.8-3.84-2.6-12.74-2.6-12.74,0,0-.45-.64-1.11-1.37-.54-.59-1.23-1.23-1.8-1.71-7.14-5.96-20.51-5.64-24.33-5.66-8.48-.09-16.76,1.17-20.81,6.02-4.18,5.01-3.97,13.78-2.53,24.56.31,1.3,1.12,4,1.08,3.36-.1-1.67,1.06-6.72,2.37-9.57,2.25-4.92,4.62-8.13,10.93-10.58,15.64-6.05,31.83,20.59,32.55,21.79-1.8,6.6-5.1,12.32-11.07,14.7,3.89.67-5.67,21.3-8.64,25.56-5.68,8.17-18.56,15.97-27.72,19.8-9.98,4.18-16.68,6.28-18.99,6.23.17.06.07.12.64.16,15.33,1.15,24.21-2.52,37.43-10,19.85-11.23,20.3-13.57,30.24-32.4,1.1-2.09,1.09-4.53,2.88-6.84.38-.49,9.73-1.54.72-7.92,13.28-19.13,20.35-3.89,12.96,6.48-6.8,9.55-18.62-4.15-10.8,11.88,25.69,5.04,20.19-57.31,0-29.16Z"/>
            <path class="cls-33" d="M202.53,200.83c-2.56-.5-3.24-2.94-5.76-3.6,1.1-2.09,1.09-4.53,2.88-6.84.38-.49,9.73-1.54.72-7.92,13.28-19.13,20.35-3.89,12.96,6.48-6.8,9.55-18.62-4.15-10.8,11.88Z"/>
          </g>
          <path class="cls-22" d="M80.95,182.41c3.5,16.27,5.03,23.58,11.87,32.34,4.4,5.63,24.09,20.16,35.68,24.72-5.49-.09-34.05-16.97-40.23-24.75-6.68-8.4-8.31-18.44-8.47-25.05-.04-1.66.29-4.97.48-6.62.08-.68.39-2.73.39-2.73,0,0,.18,1.59.29,2.09Z"/>
          <path class="cls-35" d="M90.2,145.38c-1.88.06,1.36-4.44,2.23-6.28,1.06-2.92,1.12-6.36,2-9.25,6.04-19.79,23.82-27.78,10.5-24.25-10.51,2.79-20.82,35.08-21.94,44.67,0,.01.18,6.15.18,6.15,2.51-3.22,3.62-4.22,7.97-6.63,8.46-4.67,18.39-1.27,22.4,9.26.04.12,2.35,10.41,2.39,11.24.02.42.04-9.38.19-10.88-.96-13.22-15.39-14.39-25.92-14.04Z"/>
          <g>
            <path class="cls-35" d="M80.69,180.71c-10.31,3.67-5.4,11.06-2.85,18.16-12.38-9.8-7.4-25.37-2.57-25.81.6-.05,2.57-.04,3.82.89,1.15.86,1.63,1.73,1.63,1.73,0,0,0,3.37-.04,5.02Z"/>
            <path class="cls-40" d="M78.56,175.83c.86-.04,2.13,1.32,2.1,4.07-.03,2.31-.95,7.35-.78,11.64,0,0,.48,5.68,1.6,9.55-1.36-.54-2.49-1.3-3.64-2.21-2.55-7.1-9.59-19.37.72-23.04Z"/>
          </g>
          <g>
            <path class="cls-15" d="M273.76,194.31c-.14-.13-.31-.32-.48-.48-.31-18.33-12.21-12.48-19.34-17.19-4.6-3.04-7.83-19.38,14.08-18.38,5.56,7.95-13.96,6.35-11.94,10.5.48.99,15.1,6.07,17.19,8.59,3,3.63,2.98,13.91.48,16.95Z"/>
            <path class="cls-47" d="M26.93,178.08c-.77,1.33-4.97,3.92-3.34,11.94-5.77-2.09-14.97-2.67-13.84-10.74,1.81-13.02,15.73-1.17,17.19-1.19Z"/>
            <path class="cls-47" d="M39.35,160.42q.48,4.42.95,8.83-6.68,4.42-13.37,8.83c.54-.92,2.18-2.06,2.39-2.63,2-5.39-4.36-9.36-3.82-14.8l13.84-.24Z"/>
            <path class="cls-47" d="M280.92,125.57c-4.37-2.21-5.02-1.55-9.55-2.63,2.76-7.37,4.11-10.61,0-17.43-.52-.4-.64-.5,0,0-3.84-6.37-10.77-9.34-17.9-6.21-2.75-.54.94-5.86-9.79-11.7,8.37-15.47-11.31-28.07-21.24-13.61-17.61-19.8-42.25-28.58-66.84-15.28-2.32-2.62-9.54,6.28-19.84,5.55-16.05-1.13-37.73-10.35-45.81-5.31-4.72,2.95-22.58-1.49-33.9,7.88,0,0,0,0,0,0-2.89,2.39-5.59,6.4-5.73,10.26-.03.76,1.65,8.46,1.91,8.83-1.18.2-2.31.87-3.34,1.43-7.68,4.19-5.16,3.47-8.83,10.98-18.35-1.5-25.18,16.33-12.17,28.88-2.57.83-5.11,1.11-7.64,2.15-1.99.82-3.19,1.37-4.77,2.86-9.07,8.54-4.83,20.54,5.73,25.06.64,1.79-3.89,4.36,0,13.37-18.05-2.07-24.49,18.34-7.64,26.26-3.6,8.83,2.84,20.44,12.65,16.95,7.94,7.76-1.98,7.84-.24,18.86,1.36,8.6,13.51,14.07,20.77,8.83,10.25,4.27,5.3,4.94,8.83,9.79,4.51,6.19,15.68,5.61,20.77.24,1.38.31.67,13.47,19.1,10.98,4.44-7.84,5.94-2.38,12.89-5.73,5.18-2.5,5.11-9.42,10.26-4.77,2.74-3.89,3.15-8.08,6.93-11.28.07-.7.14-1.4.21-1.99-6.38-2.21-25.4-13.42-31.26-18.43-9.34-7.98-13.33-20.37-13.01-19.3-1.36-.54-2.49-1.3-3.64-2.21-12.38-9.8-7.4-25.37-2.57-25.81.6-.05,2.57-.04,3.82.89,1.13.85,1.61,1.7,1.63,1.73.9-3.64,1.92-8.38,2.1-11.67.91-5.89.92-15.31.93-15.49.51-7.83,10.9-38.47,20.04-42.53,5.38-2.39,10.25,1.5,16.95-8.12,21.88,12.34,30.33-2.24,31.99-2.86,6.58-2.47,8.32,5.19,8.83,5.49,13.69,7.91,27,21.42,30.54,26.98.47.73,2.46,5.84,3.64,9.46,3.7,11.31,6.79,34.73,6.79,34.73,0,0,3.9-5.64,7.37-6.78-.07-.05,3.66-1.35,6.46,1.78,5.22,5.85,4.58,25.77-3.74,31.97-4.96,3.7-10.25,2.94-13.43,0-1.22-1.12-2.42-1.4-2.42-1.4,0,0-.35.73-1,1.91-1.55,2.8-5.42,11.17-9.33,15.71-7.98,9.27-15.7,11.85-22.05,15.97.87,3.22,1.58,5.68,2.38,8.52.64,2.27,1.85,4.93,1.91,5.25,5.45.54,7.16,3.77,10.08,5.58.54.34,3.43.86,4.54.95,6.7,13.18,24.45,10.16,28.64-3.82,9.21,9.72,23.29,11.63,27.21-3.82,7.01.07,11.98.74,16.71-5.25,17.53,1.89,24.17-15.7,11.7-27.45l5.97-7.88c5.9,1.47,11.45.11,14.56-5.25,3.95-6.8,2.04-13.9-4.3-18.38,1.49-16.72-7.49-16.8-8.12-17.66-2.99-4.15,5.51-3.75,10.03-9.07,6.81-8.02,4.79-22.13-4.77-26.97"/>
            <path class="cls-15" d="M33.14,197.66c-.27.1-1.5,1.75-5.01,2.86-.56-.14-4.42-9.94-4.54-10.5-1.63-8.01,2.57-10.6,3.34-11.94q6.68-4.42,13.37-8.83-.48-4.42-.95-8.83c.1-2.73-8.04-6.86-13.37-10.5-2.1-4.42-1.05-9.85,1.91-13.84,8.45-3.78,19.02-1.63,19.1-7.88,0-.5-2.12-5.75-2.39-9.79-.72-10.74,14.06-12.77,15.28-14.08.5-.54,1.74-5.63,1.91-6.92,1.36-2.12,3.22-3.78,4.77-5.73,2.19-2.75,3.56-.4,1.91-8.83,15.43-17.14,14.53-10.69,36.04-7.88,3.21-.75,3.19-14.58,10.03-15.75,9.57-1.64,12.02,10.31,8.12,13.37-3.67,2.88-3.2-2.58-6.68-7.64-3.78,22.62-17.69,15.12-34.85,12.89-8.46,5.82-4.47,10.16-5.49,13.13-.28.81-7.63,7.08-8.12,8.12-3,6.43,5.2,5.22-16.71,16.71-2.36,5.97,9.05,16.27-6.92,23.15-4.57,1.97-16.64,2.16-13.37,6.21,2.66,3.28,15.27,6.03,15.99,17.43,1.43,22.72-26.97,10.24-13.37,35.09Z"/>
            <g>
              <g>
                <path class="cls-15" d="M168.01,60.64c12.02-1.13,20.75,19.49,43.44,11.94,11.03,14.64,20.32,10.14,15.52,27.93,2.48,1.22,11.9,9.52,12.65,9.79,5.27,1.89,20.78-2.81,15.99,16.47,4.52,1.56,20.47,7.85,22.44,11.46,2.26,4.16.7,12.42-4.06,14.08-11.08,3.87-.82-9.16-1.19-10.74-11.93-10.93-28.55-.8-21.96-23.39q-6.33-.6-12.65-1.19c-8.03-10.55-12.63-7.74-15.52-11.22-7.65-9.25,11.94-21.6-18.86-17.43q-1.19-4.06-2.39-8.12c-11.72.38-21.94-6.33-31.03-12.89-4.05-.29-16.38,7.73-13.61-.72.59-1.81,9.15-5.77,11.22-5.97Z"/>
                <path class="cls-46" d="M212.89,78.3c2.95-.22-2.46,2.06-3.34,2.39-11.48,4.18-3.32-1.9,3.34-2.39Z"/>
              </g>
              <path class="cls-1" d="M114.54,59.21c-6.84,1.17-6.82,15.01-10.03,15.75-21.51-2.82-20.61-9.27-36.04,7.88,1.65,8.43.28,6.08-1.91,8.83-1.55,1.95-3.41,3.61-4.77,5.73h0c-.17,1.29-1.41,6.38-1.91,6.92-1.22,1.32-16,3.34-15.28,14.08.27,4.04,2.39,9.28,2.39,9.79-.07,6.25-10.64,4.1-19.1,7.88-2.96,3.99-4.01,9.42-1.91,13.84,5.33,3.64,13.47,7.78,13.37,10.5q-6.92.12-13.84.24c-.54,5.44,5.82,9.41,3.82,14.8-.21.57-1.85,1.7-2.39,2.63-1.46.02-15.38-11.82-17.19,1.19-1.12,8.08,8.08,8.65,13.84,10.74.11.56,3.98,10.36,4.54,10.5,3.52-1.11,4.74-2.77,5.01-2.86-13.6-24.85,14.8-12.37,13.37-35.09-.72-11.4-13.34-14.14-15.99-17.43-3.27-4.05,8.8-4.24,13.37-6.21,15.97-6.89,4.57-17.19,6.92-23.15,21.91-11.49,13.71-10.28,16.71-16.71.48-1.03,7.84-7.31,8.12-8.12,1.03-2.97-2.97-7.31,5.49-13.13,17.16,2.23,31.07,9.73,34.85-12.89,3.48,5.05,3.01,10.51,6.68,7.64,3.9-3.06,1.45-15.01-8.12-13.37Z"/>
              <path class="cls-1" d="M256.09,168.77c-2.02-4.15,17.5-2.56,11.94-10.5-21.91-.99-18.69,15.34-14.08,18.38,7.12,4.71,19.02-1.14,19.34,17.19.17.16.33.34.48.48,2.5-3.03,2.52-13.32-.48-16.95-2.09-2.52-16.71-7.61-17.19-8.59Z"/>
            </g>
          </g>
          <g>
            <path class="cls-32" d="M115.01,167.09c-.5-1.47-1.36-5.17-5.73-9.43-2.82-2.75-5.81-4.38-7.96-4.74-1.44-.2-2.74-.16-3.92.02-2.25-.1-5.68,1.45-7.92,3.23-5.87,4.68-4.57,12.46,1.08,15.84.25.15.53.29.82.43,3.24,1.76,5.75,1.8,9.2,1.91,0,0,6.24.41,14.03-2.74.47-.19,1.41-.71,1.41-.71,0,0-.22-2.03-1.01-3.82Z"/>
            <path d="M83.63,152.96c2.64,2.22,6.39-6.16,17.05-5.19,8.72.79,15.56,12.06,15.24,22.28-1.16-2.08-2.23-5.18-2.57-5.54-.05-.06-.18.02-1.29-.86,1.16-4.03-6.96-10.25-10.73-10.73-6.55-.85-10.77,2.43-13.74,7.73-.14.25-.58,1.17-.86,2.15-1.13,3.97,1.02,7.74,4.65,9.65-.74,0-3.81-1.99-4.23-2.35-4.02-3.43-7.61-12.5-7.56-18.15-.1-1.1.31-4.58.83-3.19.99,2.65,2.45,3.56,3.2,4.2Z"/>
            <path d="M100.34,165.82c1.9-.49,2.53-3.14,2.21-4.87,11.2-1.45,3.91,16.24-2.21,4.87Z"/>
            <path class="cls-16" d="M113.36,165.48c0-.2-.04-.38-.05-.58,0-.14,0-.27,0-.41,0,0-.02-.02-.04-.02-.84-6.6-8.39-11.1-11.98-11.57-.36,1.44-2.68,2.49-3.43,3.86-.15.27-.81,2.12,0,2.15,2.03-.08,2.65.33,3.43.43.07.43,1.27,1.61,1.29,1.72,10.87-1.4,3.79,15.75-2.15,4.72-2.27.58-4.3-1.57-4.72-.64.81,3.73,1.27,6.93,4.72,8.8,1.25.67,3.25.49,7.72-.31,3.74-.67,4.99-4.57,5.14-8.2.02.01.05.04.06.05Z"/>
            <path class="cls-32" d="M165.15,156.07c.9-.18,3.78-.53,5.05-.47,2.94.16,5.9,2.18,5.9,2.18,7.28,5.07,10.16,9.31,3.22,16.31-.69.31-2.85,1.25-3.01,1.29-5.74,1.41-21.22,1.35-27.05-2-.02,0-.03-.02-.05-.03-.3-.17-.26-2.91.05-3.98,3.45-6.78,7.95-12.16,15.89-13.31Z"/>
            <g>
              <path d="M185.33,159.93c2.17,1.76,3.7.7,5.24-1.17.9-.99.81-1.56,1.05-1.23.27.39.27,1.84-.33,3.75-1.37,4.31-5.27,9.83-11.96,12.82,6.94-7.01,4.06-11.25-3.22-16.31,0,0-1.92-1.42-5.58-2.15-1.82-.36-3.59.17-5.37.43-7.94,1.15-12.44,6.53-15.89,13.31,1.51-13.76,12.07-22.65,26.4-17.6,5.73,2.02,8.22,6.99,9.66,8.16Z"/>
              <path class="cls-7" d="M178.46,164.23c-.19-2.4-3.14-7.78-7.94-8.59-1.83-.31-3.59.17-5.37.43-4.27,6.01-2.22,3.07,1.5,4.29.41.13,1.13.82,1.5,1.29.24.3,1.52.19,3.86.86,4.97,5.8-3.02,11.68-6.44,4.72-1.91.28-4.19-1.74-4.29-1.5.28,14.31,18.69,12.68,17.17-1.5Z"/>
              <path d="M172.02,162.51c4.97,5.8-3.02,11.68-6.44,4.72,2.32-.34,3.84-3.51,2.58-5.58,1.66-.19,2.83-.01,3.86.86Z"/>
            </g>
          </g>
          <path class="cls-3" d="M209.49,196.05l1,2c1,2-3,3-3,3-1.16.37-2,1-3,0l1-5c1-2,3.66-.46,4,0Z"/>
          <g>
            <path class="cls-20" d="M210.49,204.05c0-2,0-5-1-6s-1.79-2.03-3-1c-.85.72-1.85,4.6-2,7-.05.8.36,3.41,1.05,3.95,1.97,1.52,3.28,1.28,3.96.21,1.99-3.16.99-2.77.99-4.16Z"/>
            <path class="cls-36" d="M211.04,203.25c-.22-2.79-.45-4.83-1.55-5.2-3-1-1,3-4,5-1.18.78-.56,3.32,0,4,3.39,4.13,5.76-1.04,5.55-3.8Z"/>
          </g>
          <g>
            <path d="M82.23,138.87c-.32-.04-.57-.26-.4-.54,1.23-1.98,4.66-7.32,6.9-8.78,2.26-1.48,9.41-4.96,14.55-3.99,4.03.76,4.14,4.49,4.17,6.11,0,.03-.02.06-.05.08-2.65,1.53-4.4.39-8.93.03-1.75-.14-3.24-.01-4.87.46-2.57.74-4.87,2.4-7.04,4.87-.66.75-2.7,1.96-4.34,1.76Z"/>
            <path d="M182.37,131.7c.11.55,2.3,3.22,2.88,5.4l-1.08,1.08c-14.83-10.29-26.1-.3-29.16-7.2,2.55-2.21,3.17-11.87,27.36.72Z"/>
          </g>
          <g>
            <path class="cls-28" d="M141.34,188.4c1.79,8-20.24,11.31-20.88,2.16,5.6,5.57,14.97,2.25,20.88-2.16Z"/>
            <g>
              <path class="cls-21" d="M159.7,194.88c2.64.26,5.03,1.58,6.12,3.96-8.51.6-12.2,25.11-29.16,27.72-25.18,3.88-14.91-25.59-27.72-19.8.7-9.31,39.85-.3,54.01-8.64l-3.24-3.24Z"/>
              <path class="cls-26" d="M154.66,203.52c4.44-.62-4.85,8.34-6.48,9.36-9.07,5.7-30.73,7.42-30.24-4.32,15.16,3.57,34.64-4.75,36.73-5.04Z"/>
            </g>
            <path class="cls-22" d="M125.13,184.8c2.21,1.67,5.3,2.24,5.4,2.52,1.58,4.52-6.69,4.93-5.4-2.52Z"/>
          </g>
          <g>
            <path class="cls-31" d="M121.65,158.09c0,15.74-15.3,27-28,27s-19-10.26-19-26,9.3-22,22-22,25,5.26,25,21Z"/>
            <path class="cls-31" d="M200.65,159.27c0,22.81-17.9,29.81-32.77,29.81s-22.23-11.33-22.23-28.71c0-20.29,10.88-24.29,25.74-24.29,19.26,0,29.26,5.81,29.26,23.19Z"/>
            <g>
              <path d="M205.65,168.09c4.16-9.68-4.33-20.72-5.73-23.8-2.17-4.77-6.05-8.24-9.27-9.2-2-.6-6-1-13-1-6,0-29-3-34.5,13.71-7.21-3.06-12.58-2.59-20-1-1.5-2.71-5.52-11.66-20.5-12.71-1.93-.13-9.16-.71-16,1-8,2-7.86,2.86-10,5-2.22,2.22-4.6,9.78-5,18-.35,7.04,2,17,3,19,.63,1.26,3,6,5.75,7.46,8.64,4.97,15.01,4.96,21.25,4.54,15-1,26.35-18.47,26-32.79,21.23-1.93,7.52,3.43,18.25,22.75,2.56,4.62,9.75,11.04,16.75,13.04,4.9,1.4,14.82,1.78,23-2,13-6,17.7-16.64,20-22ZM119.4,160.79c-.26,7.54-3.33,13.47-8.14,17.34-6.18,4.97-15.23,6.52-24.86,3.66-5.75-1.71-7.78-6.29-8.75-8.71-4-10,0-24,1-27,1.92-5.77,10.39-7.67,16-8,8.61-.51,17.34.25,21.75,8.71,2.09,4,3.16,9.45,3,14ZM152.39,179.04c-3.52-4.73-5.36-13.94-5.5-19.75-.37-15.93,5.18-19.09,20-20.5,5.57-.53,11.46-.87,17,0,.81.13,2.43.35,3,.5,2.12.56,4.25,1.34,5.79,2.84.47.46,4.36,5.98,5.96,16.95.49,3.39,0,8-1.72,12.65-.01.02-.02.03-.04.05-8.92,20.35-36.11,18.5-44.5,7.25Z"/>
              <path class="cls-43" d="M219.36,153.31c-.51-.71-12.85-7.97-15.03-8.89-2.45-1.04-4.78-2.3-5.2-1.97.57,2.38,7.75,12.97,7.56,18.78-.03.91,1.94,1.11,1.94,1.11l.1-.78c9.11.38,12.15-1.51,15.04.62-.21-1.64-3.59-7.73-4.4-8.87Z"/>
              <g>
                <path class="cls-4" d="M72.96,148.82l-10,4.5c-.53-1.11-2.64-9.66-1.25-10.5,22.79-3.44,17.71-10.26,11.25,6Z"/>
                <path d="M72.96,148.82q-.62,5-1.25,10c-3.24-2.09-6.93-1.68-8.75-5.5l10-4.5Z"/>
              </g>
              <path d="M217.88,168.74c.37-.18,4.84-5.6,5.88-6.56-2.73-2.01-5.98-.95-13.59-.61-9.56-.34-10.25-3.54-10.25-3.54l.63,3.1c-.08.54.19,2.49.46,4.47l4.41,2.9c3.7-3.78,5.28-4.79,9.33-3.29,2.07,1.2,2.74,2.94,3.13,3.54Z"/>
            </g>
          </g>
        </g>
        <g>
          <path class="cls-35" d="M139.65,270.23c.71,3.53,2.55,6.76,4.23,9.87.53,2.76-4.38.74-7.75,1.41-6.76,1.35-7.99,7.91-3.52-3.52,1.12-2.87,2.56-5.54,3.52-8.46,3.02,1.74,2.48.94,3.52.7Z"/>
          <g>
            <path class="cls-39" d="M204.33,368.38c.04.06.06.13.09.21-.01-.17-.04-.24-.09-.21Z"/>
            <path class="cls-39" d="M204.42,368.6c.02.22,0,.59-.03,1.11.11-.46.12-.84.03-1.11Z"/>
          </g>
          <g>
            <path class="cls-39" d="M136.37,270.72c-.68,2.07-1.7,3.96-2.5,6-1.83-.3-1.9.96-2,1-.53.21.22-1.48-3,1.75-3.25,3.26-20.49,27.48-22.25,27.75-.29.04-5.13-2.48-5.25-2.75-1.4-3.12-.03-30.67-2.75-32.25-.73-.42-3.62.87-3.25-1,2.03-.15,3.94.87,6,.5-.58,8.83-.24,18.16,6.75,24.5.41,0,3.62-3.92,4.25-4.5,6.77-6.24,12.8-13.26,19.5-19.5.93-.87,2.32-1.39,3-2.5.19.17,1.22.84,1.5,1Z"/>
            <path class="cls-39" d="M126.87,293.71c.06.91-.04,1.84,0,2.75.18.49,1.14.92,1.5,1.25-4.75,6.42,6.79,10.22,2.75,9.5-.51-.09-1.95-1.38-2.5-2,2.35,8.5,7.18,9.34,14.75,5.5,4.99-2.53-2.85,6.03-6.25,6.5-7.5,1.03-10.54-8.74-11.25-14.75-.29-2.47-.34-9.47,1-8.75Z"/>
            <g>
              <path class="cls-30" d="M179.38,254.73c2.5,7.39,10.09,15.33,18.49,17.99-2.06,4.39-4.56,8.65-7.5,12.5-3.73,4.89-16.44,18.28-22.75,17.5-5.61-.69-23.98-26.03-26.75-32.5,10.69-3.61,21.25-9.81,28.51-18.49-.28-2.07-1.61-5.95-2-8,5.71.57,8.95,9.11,12,11Z"/>
              <path class="cls-39" d="M140.87,270.22c2.77,6.47,21.14,31.81,26.75,32.5,6.31.78,19.02-12.61,22.75-17.5-1.79,6.55-15.09,23.07-21.75,23.5-9.38.61-16.73-11.55-21.25-17.5-1.99-2.61-2.26-3.47-2.99-5.61-.43-1.28-.48-1.79-1-3-1.09-2.53-1.4-4.18-1.51-4.39-1.19-2.2-2.49-4.5-3-7,.11-.03-.48-.16,2-1Z"/>
              <g>
                <path class="cls-24" d="M124.87,254.22c-1.42-.22-1.75,4.51-2.5,7-2.73,9.06-10.13,26.79-10.5,28.25-.16.62-.16,2.32.5,2.25-.63.58-3.84,4.5-4.25,4.5-6.99-6.34-7.33-15.67-6.75-24.5,6.55-3.95,11.23-9.94,15.5-16,2.87-4.07,4.54-9.14,8.5-12.5-.31,3.11-.95,8.1-.5,11Z"/>
                <path class="cls-30" d="M131.87,272.22c-6.7,6.24-12.73,13.26-19.5,19.5-.66.07-.66-1.63-.5-2.25.37-1.46,7.77-19.18,10.5-28.25l9.5,11Z"/>
                <path class="cls-11" d="M124.87,254.22c.63,4.03,3.64,6.92,6,10,.61.79,3.74,5.28,4,5.5-.68,1.11-2.07,1.63-3,2.5l-9.5-11c.75-2.49,1.08-7.22,2.5-7Z"/>
              </g>
            </g>
          </g>
          <g>
            <path class="cls-23" d="M147.38,291.6c.77,7.01-1.66,12.91-8.14,16.46.27,1.15,3.33-2.49,4,2.75-7.57,3.84-12.4,3-14.75-5.5.55.62,1.99,1.91,2.5,2,4.04.72-7.5-3.08-2.75-9.5,1.1.99,9.96,4.57,10.75,4,.98-.71-.66-3.37-.25-4.75.3-1.02,3.05-1.61,4-3,1.53-2.24.81-6.54,3-8.25.72,2.14,1.37,3.34,1.64,5.79Z"/>
            <path class="cls-23" d="M133.74,276.81c-3.17,8.11-2.29,3.46,2.5,2.5-5.47,4.24-3.9,6.84-3.25,13,5.58-11.84,6.28,4.99,7.25-7.25q2-1.37,4-2.75c.52,1.21,1.07,2.22,1.5,3.5-2.19,1.71-1.47,6.01-3,8.25-.95,1.39-3.7,1.98-4,3-.41,1.37,1.23,4.04.25,4.75-.79.57-9.65-3.01-10.75-4-.36-.33-1.32-.76-1.5-1.25-.04-.91.06-1.84,0-2.75-.4-5.91,2.16-10.9,5-16,.1-.04.17-1.3,2-1Z"/>
            <path class="cls-38" d="M144.24,282.31q-2,1.37-4,2.75c-.97,12.24-1.67-4.59-7.25,7.25-.65-6.16-2.22-8.75,3.25-13,2.39-.48,5.88.95,5.5-1,.11.21,1.41,1.47,2.5,4Z"/>
          </g>
        </g>
        <path class="cls-39" d="M102.01,382.18c5,0,10-3,10-3-6,3-16.04,1.67-16.04,1.67,0,0,1.12,1.84,1,5-.12,3.34-.07,5.53-2.76,9.57-8,12-16,29-20,41-6.24,18.73-10.3,41.44-13,61,6.62,4.02,9.76,4.43,9.76,4.43,0,0,48.97,20.03,54.24-.43,7.46-28.98,67.65-104.65,71-110,1.25-2-31.54-16.46-33-16-51.3,16.21-61.2,6.76-61.2,6.76Z"/>
        <g>
          <path class="cls-27" d="M78.13,162.18c5.95-3.98,12.06-7.66,18.37-11.05,1.7-.91.19-3.51-1.51-2.59-6.31,3.39-12.42,7.07-18.37,11.05-1.6,1.07-.1,3.67,1.51,2.59h0Z"/>
          <path class="cls-27" d="M86.05,162.01c2.22-.74,4.45-1.46,6.57-2.44,1.82-.84,3.53-1.92,5.25-2.94s.15-3.58-1.51-2.59-3.37,2.06-5.15,2.9c-.18.08-.35.16-.53.24-.06.03-.41.17-.04.02-.09.04-.17.07-.26.11-.44.18-.89.35-1.34.52-1.25.46-2.51.88-3.77,1.3-.77.26-1.27,1.03-1.05,1.85.21.75,1.07,1.31,1.85,1.05h0Z"/>
        </g>
        <g>
          <path class="cls-27" d="M150.31,162.18c5.95-3.98,12.06-7.66,18.37-11.05,1.7-.91.19-3.51-1.51-2.59-6.31,3.39-12.42,7.07-18.37,11.05-1.6,1.07-.1,3.67,1.51,2.59h0Z"/>
          <path class="cls-27" d="M158.23,162.01c2.11-.71,4.22-1.44,6.25-2.36,1.93-.88,3.75-1.95,5.57-3.03,1.66-.98.15-3.58-1.51-2.59-1.78,1.05-3.57,2.1-5.45,2.97-.19.09-.38.17-.57.25-.03.01-.37.16-.2.09s-.22.09-.21.09c-.44.18-.88.35-1.32.51-1.11.41-2.23.79-3.36,1.17-.77.26-1.27,1.03-1.05,1.85.21.75,1.07,1.31,1.85,1.05h0Z"/>
        </g>
        <g>
          <g>
            <path class="cls-47" d="M69.47,64.38c.22-.03.44-.12.67-.11,19.9,1.28,38.3,1.58,53.29,12.85.46.08.92.14,1.38.22,0-1.61-.17-3.49-.56-5.73,10.08-13.97,1.51-28.55-13.77-22.02-1.71-1.08.5-1.52.45-1.59-1.48-2.41-5.28-6.34-7.89-7.61-.19-.09-3.83-1.26-4.04-1.29-12.53-1.42-22.09,9.2-16.35,21.17-6.04-.08-10.34,1.45-13.19,4.11Z"/>
            <path class="cls-47" d="M141.96,72.57c9.03,1.45,17.92,8,27.19,7.64,11.43-.44,22.93-7.31,34.37-6.94,5.76.19,11.5.71,17.16,1.84.68.14,1.35.27,2.03.4-4.93-2.55-6.35-16.58-19.11-13.86-3.54-.3-5.94,4.67-9.19,3-2.19-1.12-3.64-13.37-20.48-9.55-1.61.57-5.03-5.51-8.91-7.46-7-3.52-19.44-3.27-24.3,3.86-1.13,1.66-3.83,11.69-8.31,17.06.81.41,1.36.92,1.75,1.49,2.57.93,5.17,1.77,7.81,2.51Z"/>
            <path class="cls-47" d="M124.25,71.61c.39,2.24.56,4.12.56,5.73,2.12.35,4.26.65,6.4.88,3.27-.15,6.52-.47,9.76-.96,1.84-.59,3.65-1.25,5.45-1.95-.66-.18-1.41-.21-2.29.02-.13-6.99-4.67-16.33-4.91-18.33-12.05,6.38-5.35-11.66-18.08-12.92-3.69-.36-8.11.89-10.2,3.91.04.07-2.17.51-.45,1.59,15.29-6.53,23.85,8.06,13.77,22.02Z"/>
          </g>
          <path class="cls-15" d="M163.96,71.8c4.77,1.8.46,6.45,5.77,8.05,19.4-.86,22.51-7.44,33.87,3.56-1.08-2.33,1.32-6.6-1.08-8.29-10.77-7.58-16.48-1.03-21.39-2.53-4.74-1.7-12.4-13.55-26.89.27,3.5,1.04,6.41-2.3,9.73-1.05Z"/>
        </g>
        <path class="cls-41" d="M257.66,400.46c.39-4.41.2-9.63.21-14.11.05-21.3-2.19-40.74-6.83-61.51-3.24-14.5-13.72-35.78-25.96-44.02-1.23-.06.68,5.06-.05,5.75-.65.58-.8,1.19-1.44,1.86,3.43,2.04-.79,5.42-2.81,6.9-5.05,3.71-9.53,2.96-15.33,2.12.11,3.99-.18,8.54-1.19,12.39-.85,3.25-4.1,23.39-3.45,23.97.64,18.47,3.62,28.28,8.97,39.27,1.5,13.94,1.23,18.47,15.85,20.9,1.41.23,10.5,5.61,10.37,6.39,9,23.22,0,6.49.95,7.43,8.97,11.08,10.09,21.29,4.02,32.79,14.48-10.63,15.13-22.64,16.68-40.12Z"/>
        <path class="cls-39" d="M230.27,436.18c-3.72,5.84-13.63,6.42-19.69,4.94-3.38-.82-6.02-2.01-9-3.84-.32-.19-.9-1-.9-1,0,0,8.46,3.38,16.76,2.75,4.43-.33,8.72-1.35,12.83-2.86Z"/>
        <path class="cls-39" d="M211.06,359.86c.07,4.46.46,13.82,1.21,17.78,2.74,14.43,5.05,9.13,20.02,10.31,1.42.11,11.35,1,11.72,1.46.36.45,14.39,10.05,9.53,29.04.42-1.65-14.95-24.38-15.69-23.71-.93-.21-5.91-1.69-6.17-1.39,2.16,1.64,5.14,5.29,3.89,5.8-4.5-2.55-8.42-4.09-13.69-3.5-1.42.16-13.61,3.85-13.84,6.06-.06,0,.03.57-1.17.08-.89-.22-4.45-1.17-4.68-1.2,1.15-1.35,3.05-2.51,4.08-3.95,2.91-4.06,1.44-17.56,1.8-23.54.42-6.86,1.32-15.48,2.97-22.09-.16,2.89,0,5.94.04,8.84Z"/>
        <path class="cls-39" d="M216.76,385.55c.42-6.86-6.58-20.3-6.58-20.3,0,0,.54-12.57,1.06-16.24,1.29-9.11,13.06-13.68,15.64-22.49.14-.48,1.12-3.94.83-4.01-.47,1.16-.98,2.31-1.46,3.47-2.43,5.8-18,10.69-18.62,16.95-1.29,13.09.97,11.93-4.01,23.75,1.89.62,9.74,17.67,9.67,18.95-.16,2.79-.06,5.52-.59,8.3,1.08,7.27,1.07,7.17,2.26,15.17,2.91-4.06,1.44-17.56,1.8-23.54Z"/>
        <path class="cls-41" d="M220.53,403.74c-3.35-1.45-8.72-2.65-12.34-2.78.23-2.21,12.42-5.9,13.84-6.06-.92,2.99.13,6.11,1.17,8.94l-2.66-.11Z"/>
        <g>
          <g>
            <path class="cls-41" d="M91.32,273.44c-4.24.65-7.25,1.13-10.3,2.28.26-.23.4-.36.38-.35-13.81,3.06-32.84,30.05-34.13,32.82.02.07.04.12.07.18-.03-.05-.06-.11-.07-.18-1.65,3.52-3.44,7.16-4.77,10.81-2.99,8.22-5.39,16.86-7.39,25.37-3.99,16.94-5.23,30.51-10.46,48.73-.88,3.07-2.82,5.52-3,9.55l.74-.06c-.09-6.33,7.93-13.62,17.44-15.88,4.29-1.01,16.44,2.37,25.57,2.3.61,0,4.97-2.38,5.54-2.8,4.99-3.69,3.67-18.75,3.96-25.11.33-7.28.89-21,.55-31.92,1.11.93,15.66-53.85,15.88-55.75ZM47.06,313.2c-.18.58-.38,1.21-.59,1.88.21-.67.41-1.3.59-1.88ZM47.54,311.62c.35-1.17.56-1.95.57-2.19.02-.32-.16-.5-.36-.66.2.16.38.34.36.66-.01.24-.23,1.03-.57,2.19Z"/>
            <path class="cls-39" d="M32.8,369.86c-3.73,17.8-5.86,24.81-1.6,8.33"/>
            <path class="cls-39" d="M52.87,384.52s-16.17-14.81-17.73-17.66c-.91-1.67-.99,3.86-2.5,3.92"/>
            <path class="cls-39" d="M75.54,351.63c-.09-7.73,2.46-14.33,2.91-15.7.75-2.3,9.37-18.56,3.77-14.66-2.01,1.4-4.16,1.98-6.11,2.15-.92-2.04-1.77-4-2.17-5.7-1.15-4.92-3.36-9.9-4.1-14.61-1.15-1.26-1.37-2.71-2.42-2.43.58,1.17,2.24,6.14,2.85,7.99,1.06,3.25,1.94,5.68,2.56,9.13.29,1.58.5,3.49.66,5.62-2.49-.2-4.25-.92-4.25-.92,1.37,2.26,2.99,4.34,4.53,6.11.39,11.03-.18,25.17-.52,32.6-.29,6.36,1.03,21.42-3.96,25.11-.57.42-4.26,2.16-4.87,2.24.52,2.17-2.54.56-3.6,1.77,2.33.2,4.92-.91,7.66.16.4.16,6.27,5.1,5.83,5.52,2.03-.28,3.46-1,3.65-1.02-.33-2.06,5.77-20.36,5.77-20.36,0,0-2.67-2.98-4.12-5.79-4.44-8.6-4.04-14.45-4.07-17.24Z"/>
            <path class="cls-39" d="M38.48,386.83c4.29-1.01,7.26-.79,11.53-.5,4.37.29,13.49,2.38,14.72,2.24"/>
          </g>
          <path class="cls-39" d="M31.19,378.19c-.06.23-1.2,3.65-1.52,4.59-.59,1.75-1.5,4.58-2.14,6.13-1.11,2.66-5.77,7.16-5.69,13.49l-.74.06c.18-4.04,2.12-6.48,3-9.55,5.24-18.22,6.47-31.79,10.46-48.73,2-8.51,4.4-17.15,7.39-25.37,1.33-3.65,4.14-9.51,5.98-11.66-.35.41-12.84,49.7-14.72,58.58-.77,3.62-.39,3.93-.43,4.14"/>
          <g>
            <path class="cls-39" d="M32.65,370.78c.04-.2-.07-.48-.17-4.17-.21-8.09,2.38-8.2,2.93-13.85-.55,5.66,10.67,21.38,15.17,27.93.63.92,2.3,3.84,2.3,3.84"/>
            <path class="cls-39" d="M26.38,385.88c.2-.98.91-4.5.94-4.74q4.14-.17,8.28-.34-4.61,2.54-9.22,5.08Z"/>
            <path class="cls-39" d="M64.72,388.56c.52,2.17-1.47,1.79-2.53,3-1.32-.12-3.64-1.26-4.43-1.35-3.69-.4-8.97-1.38-12.84-2.01-1.26-.2-1.77-.47-2.28-.57-1.24-.24-3.02-.15-4.16-.8"/>
          </g>
        </g>
        <path class="cls-39" d="M207.17,413.98c-4.87-6.97-4.71-26.63-3.53-39.53,2.34-3.03,4.3-6.79,5.03-10.22.97-3.58.43-15.82-2.75-24.75-1.58.23,4.64,12.67-.78,23.88-2.11,2.97-4.93,6.89-9.43,9.94-2.21,1.34-4.8,2.56-7.86,3.61-5.94,1.64-13.75,1.73-24.21-1.26.64.18,35.3,40.12,43,56,7.48,15.45,16.24,62.78,15,67,.46-.1,6.78-3.39,10-5,2-1-2.74-48.58-24.47-79.67Z"/>
        <g>
          <path class="cls-2" d="M147.07,424.87c-.04.09-.69-.52-1.41,1.47-.11.32.72.43.71.47,2.07,1.14,2.55-1.63.7-1.94Z"/>
          <path class="cls-2" d="M174.67,348.42c-1.72-.57-2.24,1.45-.7,1.94.04-.06.54.45,1.37-.16.73-1.56-.68-1.68-.67-1.78Z"/>
        </g>
        <path class="cls-41" d="M234.79,398.18c1.09.62,6.45,5.33,7.37,4.96,1.1-.44.8-4.23,1.82-3.37,9.9,10.27,7.2,24.67,2.14,36.64-4.91,4.31-10.92,8.99-17.65,9.69-2.98.31-12.68-.74-19.07-3.26-5.2-2.06-7.98-5.14-9.66-6.6,4.6,3.98,24.22,6.2,29.6-.28,5.47-6.59,3.44-16.99-.77-24-2.57-4.28-4.17-6.37-8.97-8.44l2.66.11c-1.04-2.83-2.08-5.95-1.17-8.94,5.27-.58,9.19.96,13.69,3.5Z"/>
      </g>
      <g>
        <g>
          <g>
            <path class="cls-6" d="M296.58,304.14c-11.71-3.2-25.52-33.61-34.63-43.19-9.69-10.19-19.84-14.5-33.92-12.1-17.09,2.91-30.07,16.2-40,41.36,0,0-40.93,83.98-41.72,83.39,0,0-11.43,26.04-11.69,25.96l-11.01,24.46c-2.75,4.96-4.9,11.74-7.62,16.93.21-.07-32.16,62.72-37.51,75.54-7.43,16.73-24.57,10.48-23.88.79.31-4.45,31.96-73.91,34.19-80.98,6.42-20.42,6.02-42.31,4.53-63.34-14.88,8.56-48.15,18.03-65.45,20.76-4.65.74-9.83,1.8-14.5,2.07,10.02,15.98,12.6,35.81,9.5,54.27-4.72,28.13-22.64,50.05-11.44,79.69,10.61,28.09,44.55,46.37,73.23,34.32,7.07-2.97,14.7-9.59,18.76-15.54,3.44-5.59,11.68-18.82,14.69-23.83,18.97-38.92,98.87-219.65,98.87-219.65,8.52-17.54,19.9-35.48,34.37-27.6,10.84,5.9,23.39,29.35,40.27,36.68.36-.46,5.46-3.47,4.95-9.99Z"/>
            <path class="cls-13" d="M161.85,442.12c-1.03-.72-2.81-.52-3.58.42-2.12,2.59-22.91,52.51-27.43,60.95-.25,2.55,2.94,3.95,4.51,2.03,2.12-2.59,22.91-52.51,27.43-60.95-.09-.77-.27-1.99-.93-2.46Z"/>
            <g>
              <path class="cls-44" d="M316.41,310.35c-2.7,5.89-6.48,11.05-10.42,16.12,2.79,1.17,28.56,7.35,29.71,6.36.54-.46.48-1.3.2-1.95-.57-1.3-17.66-19.2-19.49-20.54Z"/>
              <path class="cls-44" d="M296.58,304.14c.51,6.52-4.59,9.52-4.95,9.99-.38.49-.89.13-.32,1.21,3.6,1.77,5.9,5.35,8.99,7.67,3.77-1.35,9.89-11.04,11.01-15.41-3.05-1.12-10.93-3.64-14.03-4.51-.37-.1-.64,1.06-.7,1.04Z"/>
              <path class="cls-5" d="M311.31,307.6c-1.12,4.36-7.24,14.05-11.01,15.41,2,1.5,3.33,2.47,5.68,3.46,3.94-5.07,7.73-10.23,10.42-16.12-1.08-.79-.31-1-.6-1.18-1.39-.85-3.03-1.04-4.5-1.57Z"/>
            </g>
            <path class="cls-5" d="M136.89,362c.39-1.5,1.24-3.73,1.29-5.49.09-3.23-2.73-5.61-5.6-.48-.4.71-5.69,12.4-2.16,14.81,3.19,2.18,6.41-8.6,6.47-8.85Z"/>
            <path class="cls-5" d="M174.01,400.54c-1.9-.72-1.54.02-2.01.45-.09.08-1.36,1.97-1.39,2.09-.33,1.17-.13,2.27.87,3.1,4.04,2.05,6.54-4.12,2.54-5.64Z"/>
            <path class="cls-27" d="M167.31,399.34l-2.26-1.02c-.09.16-2.87-.01-.47,2.05.31.27,1.21.47,1.88.85,1.3.73,2.82,1.17,4.14,1.86.03-.12,1.3-2,1.39-2.09l-4.68-1.66Z"/>
            <path class="cls-19" d="M249.74,255.91c-11.56-5.06-27.66-1.58-37.33,6.04-13.84,10.89-11.01,19.41-5.61,16.48,3.28-1.78,26.67-39.87,59.06-3.05,4.49,5.1,8.39,13.94,10.36,11.67,1.84-2.13-11.24-19.39-13.53-21.7-3.43-3.46-8.49-7.49-12.94-9.45Z"/>
          </g>
          <g>
            <path class="cls-10" d="M40.89,414.12c4.75-1.87,9.17-4.84,13.38-7.24,15.66-8.95,41.18-31.01,47.86-45.86,7.57-16.8,2.12-31.57-26.78-24.46-24.24,5.96-59.78,36.38-69.96,54.17-16.36,28.59,7.1,34.58,35.5,23.4Z"/>
            <g>
              <path class="cls-6" d="M86.68,339.27c-15.8-.98-49.96,22.8-57.91,30.31-6.12,5.77-29.1,28.84-19.17,39.71,16.85,18.46,61.33-18.27,67.7-24.29,6.26-5.91,23.75-25.36,22.28-34.25-1.09-6.58-4.55-10.96-12.9-11.48Z"/>
              <path class="cls-10" d="M86.07,347.55c-15.3-5.28-47.81,21.69-54.69,28.83-35.36,36.65-3.26,41.08,33.21,11.31,3.02-2.46,37.38-34.66,21.48-40.14Z"/>
            </g>
          </g>
          <path class="cls-2" d="M81.32,507.69c-4.07-1.36-4.93,7.35-2.08,9.18,2.15,1.38,31.52,14.54,33.94,15.54,2.94,1.21,9.64-6.16,6.07-7.46-3.3-2.39-35.65-16.5-37.93-17.26Z"/>
        </g>
        <path class="cls-2" d="M220.31,301.71c3.62,1.24,4.93-7.32,2.45-9.05-1.87-1.31-27.81-13.54-29.95-14.47-2.61-1.12-9.14,6.26-5.97,7.45,2.85,2.27,31.45,15.37,33.47,16.06Z"/>
        <path class="cls-10" d="M72.96,474.33l.51-1.13c-18.06,8.02-29.21-20.88-8.59-25.13-22.13-.1-24.22,36.38,8.09,26.26Z"/>
        <path class="cls-10" d="M99.26,492.23c0,.33.1.6.04.92,4.92,9.54,19.48,10.26,22.29-1.28-5.75,9.39-15.29,7.17-22.33.36Z"/>
        <path class="cls-19" d="M203.4,326.5c3.34-8.79,1.79-8.38,1.15-7.15-9.76,18.84-31.84,69.6-38.38,85.93-1.8,4.5.51,4.27.97,3.3,6.99-14.76-9.32,17.27,36.26-82.08Z"/>
        <path class="cls-10" d="M156.3,396.64c2.21,3.09,1.92,8.28-.1,11.27-3.78,5.6-19.08-1.09-19.08-1.09,9,16,26,3,22-8-.05-.14-1-2-2.83-2.18Z"/>
        <path class="cls-10" d="M131.49,453.79c-.15.11-.7,1-.97,1.15-6.59,3.56-10.69-1.04-14.36-1.26,0,.05.57.11.04.92,5.18,5.04,14.58,4.99,17.27-2.18-.49.62-1.43.97-1.98,1.37Z"/>
        <path class="cls-10" d="M50.5,527.42c-10.7,19.22-34.7-5.24-12.58-14.26-7.48.02-12.29,6.22-10.62,13.54,2.59,11.37,20.18,12.2,23.21.72Z"/>
        <path class="cls-10" d="M59.7,503.96c.12-.38.37-.75.51-1.13l-.21-.55c-9.3,5.12-22.22-3.46-19.41-14.17,1.43-5.44,6.28-8,11.35-10.05-23.57-.18-15.77,34.54,7.76,25.89Z"/>
        <path class="cls-10" d="M149.42,366.58l-13.83-5.19c-2.16-.45-2.55,2.76-1.58,3.07l9.29,3.88-58.99,131.57c-6.52-1.1-.39,3.44,4.17,4.78,1.31.38,5.66,1.63.51-2.94-.06-.05,60.69-134.71,60.44-135.17Z"/>
        <path class="cls-45" d="M145.05,419.63c3.59,4.06,3.28,8.36-.06,12.19-3.17,3.64-8.29,4.6-12.81,2.83-3.4-1.33-4.84-4.36-5.66-3,5.67,9.59,22.19,6.16,23.15-5.19.13-1.59-2.1-7.26-4.62-6.83Z"/>
        <path class="cls-19" d="M162.49,416.95c-1.06-2.16-6.72,9.43-6.71,9.44-3.81,8.2-30.76,67.6-29.4,69.21.34.4,4.49-9.88,5.42-11.57,1.05-1.93,24.05-52.52,26.67-57.47h0c1.57-3.04,4.23-9.19,4.03-9.61Z"/>
        <path class="cls-10" d="M70.53,534.17c-17.55.56-8.68,28.45,6.53,19.68"/>
        <path class="cls-5" d="M37.92,513.15c-22.11,9.02,1.89,33.48,12.58,14.26,2.27-8.63-4.29-14.29-12.58-14.26Z"/>
        <path class="cls-5" d="M70.53,534.17c-14.39,5.4-7.9,23.14,6.53,19.68,11.34-6.54,6.32-20.09-6.53-19.68Z"/>
        <ellipse class="cls-5" cx="175.16" cy="329.24" rx="8.44" ry="10.84" transform="translate(-196.53 359.8) rotate(-66.69)"/>
        <ellipse class="cls-5" cx="165.53" cy="352.72" rx="8.66" ry="10.43" transform="translate(-222.29 315.2) rotate(-59.33)"/>
        <ellipse class="cls-5" cx="158.07" cy="375.79" rx="8.39" ry="10.49" transform="translate(-248.12 340.93) rotate(-62.28)"/>
        <ellipse class="cls-5" cx="146.44" cy="401.43" rx="10.33" ry="11.67" transform="translate(-280.6 416.62) rotate(-72)"/>
        <ellipse class="cls-5" cx="135.79" cy="424.81" rx="10.33" ry="11.67" transform="translate(-310.19 422.65) rotate(-72)"/>
        <ellipse class="cls-5" cx="123.85" cy="447.58" rx="8.96" ry="10.66" transform="translate(-340.09 427.02) rotate(-72)"/>
        <ellipse class="cls-5" cx="109.56" cy="487.9" rx="10.85" ry="12.56" transform="translate(-372.54 355.12) rotate(-61.95)"/>
        <path class="cls-5" d="M64.88,448.06c-20.61,4.26-9.47,33.15,8.59,25.13,10.34-4.59,8.11-19.64.34-23.37-2.86-1.38-5.81-1.75-8.94-1.76Z"/>
        <path class="cls-5" d="M46.06,480.44c-16.55,13.01,6.32,33.89,18.91,18.66,7.21-8.72-1.5-21.2-10.13-21.07-3.18.05-5.98,1.03-8.78,2.41Z"/>
      </g>
      <g>
        <path class="cls-29" d="M147.25,431.59c-.79-.1-1.43.21-2.25-.19.26-.82.36-1.71.65-2.52,9.44,1.96,13.2-1.37,16.07-1.26"/>
        <g>
          <path class="cls-17" d="M152.1,417.86c-2.38-.18-8.91-1.44-10.19-1.46"/>
          <path class="cls-3" d="M158.94,421.92c-1.85-4.67-1.26-3.05-4.85-3.55-1.48-.21-3.01-.23-4.51-.39-1.81-.19-5.98-.06-7.22-.31.02-.21-.84-.96-.9-1,.44.15.43-.27.45-.27,1.28.01,7.81,1.28,10.19,1.46,4.99.37,10.49.12,15.52.13,12.97.04,2.05.5-2.99,1.92-1.89.53-3.78,1.41-5.69,2Z"/>
          <path class="cls-37" d="M148.7,426.34c-.78.78-.62,1.77-1.46,2.45-.68.56-2.63-.03-2.79-1.1-.36-2.32,3.95-1.34,4.25-1.36Z"/>
          <g>
            <path class="cls-37" d="M143.26,402.16l-1.29,5.04c-.12-.02-.24-.07-.36-.09-3.03-.51-3.5-.98-3.49-4.35,1.7-.61,2.82-.45,4.42-.79.24.03.53.19.72.18Z"/>
            <path class="cls-37" d="M151.78,394.36c-.21.03-2.31,1.79-3.88.16.32-1.4.03-1.81.02-3.07,1.27-.69,2.36-.66,3.7-.97q.08,1.94.16,3.88Z"/>
            <path class="cls-18" d="M147.92,391.45c.02,1.26.3,1.67-.02,3.07-.11.48-.25.96-.37,1.44-.87-1.55-1.44-3.12-.29-4.87.27-.41.46.48.67.36Z"/>
            <path class="cls-35" d="M228.64,412.11c5.28,19.88-22.58,20.63-34.91,15.64-.96-.39-6.81-3.37-7.29-3.78-.26-.23-1.24-.7-2.87-3.81-.32.52-2.35,2.23-2.99,2.69-.5.36-2.01.85-3.08,1.52,3.18,1.95,6.41,3.83,9.71,5.56.75.39,8.24,4.4,10.89,5.47.59.24.93.45,1.71.82,5.55,2.63,13,3.45,16.71,3.42,4.44-.04,10.1-.14,12.88-3.53,6.58-8.01,3.44-16.99-.77-24Z"/>
          </g>
          <path class="cls-37" d="M142.85,411.27q-.47,2.57-.93,5.14s-.02.42-.45.27c-1.62-.92-3.42-3.16-1.73-5.24.64-.79,2.41-.1,3.11-.16Z"/>
          <path class="cls-12" d="M229.41,436.11c-3.72,5.84-13.63,6.42-19.69,4.94-3.38-.82-6.02-2.01-9-3.84-.32-.19-.9-1-.9-1,0,0,8.46,3.38,16.76,2.75,4.43-.33,8.72-1.35,12.83-2.86Z"/>
          <path class="cls-3" d="M167.55,398.78c-2.66-1.47-6.53-.84-9.38-.86-1.07,0-4.8.26-5.05.24-1.98-.15-3.94.04-5.41-1.38-.03-.03-.13-.73-.18-.81.12-.48.26-.96.37-1.44,1.57,1.63,3.67-.12,3.88-.16,1.93-.32,4.37-.68,6.32-.69.33,0,6.26.47,6.58.53,6.84,1.27,11.6,2.64,2.86,4.57Z"/>
          <path class="cls-3" d="M172.66,405.08c-.5-.07-6.68,1.24-8.22,1.35-3.84.28-20.28,1.08-22.47.78-.12-.02-.24-.07-.36-.09-3.03-.51-3.5-.98-3.49-4.35-.1.04-.28-.13-.36-.09-2.78,3.16-.93,4.82,2.31,5.97,4.95,1.75,11.47.57,12.08,2.32.2-.01,2.04-.34,3.97-.52,1.91-.18,3.86-.23,5.77-.06,4.5-.63,15.93-4.54,10.77-5.31Z"/>
          <path class="cls-18" d="M228.64,412.11c-2.57-4.28-4.17-6.37-8.97-8.44-3.35-1.45-8.72-2.65-12.34-2.78-.06,0-6.77-.61-6.94-.63-3.15-.35-3.82-.28-4.15-.29-1.69-.06-5.07-.5-6.22-.44-.14,0-2.06.34-2.8.44h0c-.08.01-.31-.02-.61-.02-1.57-.08-3.65-.46-4.97-2.18-.84-.95-.94-1.23-2.15-2.09-.74-.52-5.2-2.67-6.48-3.19-5.33-2.19-11.06-4.15-16.95-2.8-1.36.42-3.19.5-4.42.79q.08,1.94.16,3.88c1.93-.32,4.37-.68,6.32-.69.33,0,6.26.47,6.58.53,6.84,1.27,11.6,2.64,2.86,4.57-2.88.64-8.17,1.39-11.01,1.02-.06.01.01.59-.36.67-4.32-.29-8.67,1.53-12.91,1.69q-.65,2.52-1.29,5.04c2.18.31,18.63-.5,22.47-.78,1.54-.11,7.72-1.43,8.22-1.35,5.17.77-6.26,4.68-10.77,5.31-1.91-.18-3.87-.12-5.77.06-1.93.18-3.77.5-3.97.52-2.83.21-5.73.31-8.57.49-.2.01-.53-.2-.72-.18l-.93,5.14,10.19,1.46c4.99.37,10.49.12,15.52.13-4.46-.1-7.61-2.52-11.89-3.04-.36-.04-.73-.07-1.12-.08-.2,0-.39,0-.6,0,.2,0,.4,0,.6,0,.39,0,.77.03,1.12.08,4.28.53,7.43,2.95,11.89,3.04,12.97.04,2.05.5-2.99,1.92-1.89.53-3.78,1.41-5.69,2-.33.1-2.89,1.54-6.42,2.58-1.34.39-4.09,1.62-5.42,1.68-.78.78-1.1,1.68-1.46,2.7,9.44,1.96,16.51-1.42,16.57-1.52-.07.1,13.08-1.61,15.3-3,1.07-.66,2.57-1.16,3.08-1.52.65-.46,2.67-2.17,2.99-2.69,1.65,3.31,2.61,3.57,2.87,3.81.47.42,6.32,3.39,7.29,3.78,12.33,5,40.19,4.24,34.91-15.64ZM143.22,412.09c-.3.6-.48,1.11-.56,1.54.07-.42.25-.93.56-1.54ZM142.63,414.02c0,.25.04.46.13.64-.08-.18-.13-.39-.13-.64ZM143.4,415.29c.49.25,1.2.34,2.03.34-.84,0-1.54-.09-2.03-.34Z"/>
        </g>
      </g>
      <g>
        <g>
          <path class="cls-3" d="M153.9,379.21c-.78.66-1.76,1.5-2.39,2.32-.91-.15-1.9-.16-2.82-.28-3.94-.52-18.64-2.44-19.41.29-3.27.89-7.19-2.19-9.2,1.74-.03-.03-.79-.11-.82-.13-.39-.26-1.45-1.02-1.51-1.08-1.91-1.96-1.11-2.26-.9-2.84,6.74,3.98,7.75-3.25,8.82-3.57.73-.22,5.16,2.24,7.84,2.59,1.73.23,6.21-.32,8.94-.1,3.73.3,7.44,2.38,11.45,1.06Z"/>
          <path class="cls-25" d="M151.51,381.53c2.34.39,9.37,1.36,4.52,4.42-.1.06-.25.06-.35.11l-.11-.35.9-.87-7.77-3.59c.92.12,1.91.13,2.82.28Z"/>
          <path class="cls-25" d="M139.16,389.24c1.85,1.01,2.82.98,4.67,2.52-.04.09.47.44-.62,1.76-2.56-4.18-5.65-3.74-4.05-4.28Z"/>
          <path class="cls-3" d="M146.62,385.81c-.52-.04-1.99.41-2.42.37-3.94-.29-10.02-1.62-13.85-1.86-.43-.03-3.9-.78-7.83.53.24.27,1.21,1.44,1.27,1.55,3.26.1,6.51.98,9.75,1.21.55.04,1.1.24,1.64.26,1.67.07,4.06-.08,5.66-.62l4.59-.28c1.17-.18,3.26.44,7.3-.36q.39-.32.77-.64c-2.31,1.2-4.5.01-6.88-.16Z"/>
          <path class="cls-3" d="M131.1,370.04c5.65.75,11.52,1.79,17.16,1.2-1.13.78-2.29.96-3.32,1.83-4.69-.54-9.5-.67-14.23-.57-.21,0-1.34.38-4.13.52-.22.01-.49.21-.71.22-2.22.12-2.49.6-5.41.15.61-3.85,7.18-1.98,10.64-3.37Z"/>
          <path class="cls-37" d="M143.4,365.76c3.05.12,9.44-.37,6.41,4.22-.73-1.29-2.85-.69-5.86-1.27-1.02-1.12-2.95-2.26-.54-2.95Z"/>
          <path class="cls-35" d="M124.89,368.89c2.04.23,4.22.89,6.22,1.15-3.46,1.39-10.03-.49-10.64,3.37-1.26-.19-1.33.24-2.58-.75.44-.7-.94-2.04-.28-4.59,3.26-.74,5.45,1.05,7.28.82Z"/>
          <path class="cls-18" d="M155.57,385.71q.45-.43.9-.87-3.88-1.79-7.77-3.59c-3.15-.42-13.19-1.73-17.48-.84-5.21-.32-13.41,1.72-13.48,1.65q-.33.36,0,0c-1.91-1.96,13.08-4.17,15.76-3.82,1.73.23,6.21-.32,8.94-.1,3.73.3,7.44,2.38,11.45,1.06.53-.45,1.87-1.7,2.15-1.85-.42-.79.56-1.19.15-2h0c-.54-1.05-9.61-2.1-11.26-2.29-4.69-.54-9.5-.67-14.23-.57-.21,0-1.34.38-4.13.52-.22.01-.49.21-.71.22-2.22.12-2.49.6-5.41.15-1.26-.19-1.33.24-2.58-.75h0c.44-.7-.94-2.04-.28-4.59,3.26-.74,5.45,1.05,7.28.82,2.04.23,4.22.89,6.22,1.15,5.65.75,11.52,1.79,17.16,1.2.25-.17.67.06,1.55-1.27-.73-1.29-2.85-.69-5.86-1.27-1.02-1.12-2.95-2.26-.54-2.95-3.99-3.32-9.83-2.52-14.66-3.17-1.23-.16-8.43-2.41-11.03-1.58h0c-.56.18-2.39,1.31-2.97,1.72-4.7,3.36-7.17,9.75-9.87,14.44-2,3.48-.43,3.7-5.24,4.39-1.83.71-4.12,2.2-6,2.77.32,5.79.64,6.97.57,16.9,8.83-3,20.16-6.88,26.12-10.99h0c3.1,1.83,17.53,1.71,21.58,4.1.68-.21.2.55,1.31-.8-2.56-4.18-3.64-4.27-8.03-5.65-.54-.02-1.1-.22-1.64-.26-3.24-.23-6.49-1.11-9.75-1.21-.06-.11-1.03-1.28-1.27-1.55h0c3.93-1.31,7.4-.55,7.83-.53,3.83.24,9.91,1.57,13.85,1.86.42.03,7.04,1.88,11.36-.47ZM151.16,377.61c-.18-.15-.39-.3-.64-.44.25.15.46.3.64.44ZM137.59,373.61c-1.32.02-2.84.02-4.74-.11,1.9.13,3.42.12,4.74.11ZM115.74,362.81c-.24.27-.43.56-.59.86.16-.3.35-.59.59-.86.03-.04.07-.07.11-.11-.04.03-.08.07-.11.11ZM122.42,384.85s.05,0,.07,0c-.02,0-.04,0-.07,0ZM121.17,383.14c-.07,0-.13.01-.19.03.06-.02.12-.03.19-.03ZM120.47,383.39c-.06.01-.12.01-.18,0,.06.02.12.02.18,0Z"/>
        </g>
        <path class="cls-35" d="M120.32,390.23c-5.96,4.11-17.29,8-26.12,10.99-.07,5-1.54,19.38-3.58,26.83,1.27-1.27,16.7-26.01,17.83-26.66,3.67-.82,6.51-2.04,9.12-3.73,2.27-1.48,4.36-3.32,6.67-5.55.81-.21,8.17,1.78,9.79,1.97,1.06.13,2.63.48,3.29.52,1.31.08,3.33.11,4.59-.28-4.05-2.38-18.48-2.27-21.58-4.1Z"/>
      </g>
    </g>
  </g>
</svg>