<?xml version="1.0" encoding="UTF-8"?>
<svg id="Layer_2" data-name="Layer 2" xmlns="http://www.w3.org/2000/svg" viewBox="0 0 392.82 552.55"><defs>
    <style>
      .cls-1 {
        fill: none;
      }

      .cls-2 {
        fill: #e67a6c;
      }

      .cls-3 {
        fill: #c45f41;
      }

      .cls-4 {
        fill: #503c43;
      }

      .cls-5 {
        fill: #a51f4b;
      }

      .cls-6 {
        fill: #6b1221;
      }

      .cls-7 {
        fill: #f3d5b5;
      }

      .cls-8 {
        fill: #ba3f2f;
      }

      .cls-9 {
        fill: #232323;
      }

      .cls-10 {
        fill: #0d7c86;
      }

      .cls-11 {
        fill: #3a310b;
      }

      .cls-12 {
        fill: #f7b750;
      }

      .cls-13 {
        fill: #a34737;
      }

      .cls-14 {
        fill: #12ac99;
      }

      .cls-15 {
        fill: #b14f3d;
      }

      .cls-16 {
        fill: #281a26;
      }

      .cls-17 {
        fill: #feb083;
      }

      .cls-18 {
        fill: #551610;
      }

      .cls-19 {
        fill: #f0935d;
      }

      .cls-20 {
        fill: #2c1525;
      }

      .cls-21 {
        fill: #bdeded;
      }

      .cls-22 {
        fill: #c12e4b;
      }

      .cls-23 {
        fill: #f8ae89;
      }

      .cls-24 {
        fill: #f58d67;
      }

      .cls-25 {
        fill: #e68d68;
      }

      .cls-26 {
        fill: #dc625f;
      }

      .cls-27 {
        fill: #290e11;
      }

      .cls-28 {
        fill: #fbfbfc;
      }

      .cls-29 {
        fill: #cc5637;
      }

      .cls-30 {
        fill: #ac8577;
      }

      .cls-31 {
        fill: #fcf4e1;
      }

      .cls-32 {
        fill: #74556c;
      }

      .cls-33 {
        fill: #efdd89;
      }

      .cls-34 {
        fill: #fcf8e9;
      }

      .cls-35 {
        opacity: .2;
      }

      .cls-35, .cls-36 {
        fill: #7aebe9;
      }

      .cls-37 {
        fill: #ac4a30;
      }

      .cls-38 {
        fill: #e6794d;
      }

      .cls-39 {
        fill: #e6704d;
      }

      .cls-40 {
        fill: #3f130b;
      }

      .cls-41 {
        fill: #6d5c6e;
      }

      .cls-42 {
        fill: #de563f;
      }

      .cls-43 {
        fill: #deba9d;
      }

      .cls-44 {
        fill: #962e18;
      }

      .cls-45 {
        fill: #d7643c;
      }

      .cls-46 {
        fill: #205446;
      }

      .cls-47 {
        fill: #fcfcfc;
      }

      .cls-48 {
        fill: #3d2744;
      }

      .cls-49 {
        fill: #c47258;
      }

      .cls-50 {
        fill: #532a56;
      }

      .cls-51 {
        fill: #a0898a;
      }

      .cls-52 {
        fill: #353535;
      }

      .cls-53 {
        fill: #ab7ab7;
      }

      .cls-54 {
        fill: #120f12;
      }

      .cls-55 {
        fill: #9f6d64;
      }

      .cls-56 {
        fill: #c95860;
      }

      .cls-57 {
        fill: #320532;
      }

      .cls-58 {
        fill: #1d121b;
      }
    </style>
  </defs>
  <g id="NATUER">
    <g>
      <g>
        <g>
          <path class="cls-29" d="M233.74,261.03c-9.09,11.59-21.81,20.53-36,24.5-2.36-3.08-5.37-5.97-6-10-.45-2.9.19-7.89.5-11,.07-.73.15-4.25.5-4.86,12.44,2.19,27.65-1.76,38.5-7.64,1.21,2.88,1.66,6.03,2.5,9Z"/>
          <path class="cls-38" d="M235.74,266.53c.39,2.05.72,4.18,1,6.25-7.26,8.67-18.31,15.14-29,18.75-2.48.84-1.89.97-2,1-.74.17-.36.73-2.5-.5-.28-.16-1.31-.83-1.5-1-.26-.22-3.39-4.71-4-5.5,14.19-3.97,26.91-12.91,36-24.5.67,2.38,1.94,5.17,2,5.5Z"/>
        </g>
        <g>
          <path class="cls-19" d="M264.51,163.53s-6.44-19.74-10.08-25.56c-4.81-7.69-19.05-20.76-27.72-23.4-8.71-2.65-26.18-2.64-36.4-.73,0,0-32.82,1.73-41.14,39.7-.94,4.3,3.47,25.35-1.5,42.9-.09.32-.14.65-.14.98v7.55c2.59,9.21,3.89,21.19,12.53,31.65,7.61,9.21,31.57,23.86,35.88,24.27,2.26.08,9.06-1.41,19.05-5.59,9.16-3.84,22.2-12.35,27.89-20.52,2.79-4.01,12.29-22.94,10.07-25.68,7.3-3.43,16.67-4.19,16.67-15.97,0-5.05-2.94-19.94-5.1-29.59ZM164.12,211.72c1.03.09,2.08.13,3.16.11-1.03.04-2.09,0-3.16-.11ZM220.93,208.7c.99.49,2.08.94,3.27,1.35-1.16-.38-2.25-.83-3.27-1.35Z"/>
          <path class="cls-45" d="M269.4,192.95c.06-.09,1.34-1.31-1.39-12.61-.8-3.84-2.6-12.74-2.6-12.74,0,0-.45-.64-1.11-1.37-.54-.59-1.23-1.23-1.8-1.71-7.14-5.96-20.51-5.64-24.33-5.66-8.48-.09-16.76,1.17-20.81,6.02-4.18,5.01-3.97,13.78-2.53,24.56.31,1.3,1.12,4,1.08,3.36-.1-1.67,1.06-6.72,2.37-9.57,2.25-4.92,4.62-8.13,10.93-10.58,15.64-6.05,31.83,20.59,32.55,21.79-1.8,6.6-5.1,12.32-11.07,14.7,3.89.67-5.67,21.3-8.64,25.56-5.68,8.17-18.56,15.97-27.72,19.8-9.98,4.18-16.68,6.28-18.99,6.23.17.06.07.12.64.16,15.33,1.15,24.21-2.52,37.43-10,19.85-11.23,20.3-13.57,30.24-32.4,1.1-2.09,1.09-4.53,2.88-6.84.38-.49,9.73-1.54.72-7.92,13.28-19.13,20.35-3.89,12.96,6.48-6.8,9.55-18.62-4.15-10.8,11.88,25.69,5.04,20.19-57.31,0-29.16Z"/>
          <path class="cls-37" d="M269.4,222.11c-2.56-.5-3.24-2.94-5.76-3.6,1.1-2.09,1.09-4.53,2.88-6.84.38-.49,9.73-1.54.72-7.92,13.28-19.13,20.35-3.89,12.96,6.48-6.8,9.55-18.62-4.15-10.8,11.88Z"/>
        </g>
        <path class="cls-23" d="M147.82,203.7c3.5,16.27,5.03,23.58,11.87,32.34,4.4,5.63,24.09,20.16,35.68,24.72-5.49-.09-34.05-16.97-40.23-24.75-6.68-8.4-8.31-18.44-8.47-25.05-.04-1.66.29-4.97.48-6.62.08-.68.39-2.73.39-2.73,0,0,.18,1.59.29,2.09Z"/>
        <path class="cls-38" d="M157.06,166.66c-1.88.06,1.36-4.44,2.23-6.28,1.06-2.92,1.12-6.36,2-9.25,6.04-19.79,23.82-27.78,10.5-24.25-10.51,2.79-20.82,35.08-21.94,44.67,0,.01.18,6.15.18,6.15,2.51-3.22,3.62-4.22,7.97-6.63,8.46-4.67,18.39-1.27,22.4,9.26.04.12,2.35,10.41,2.39,11.24.02.42.04-9.38.19-10.88-.96-13.22-15.39-14.39-25.92-14.04Z"/>
        <g>
          <path class="cls-38" d="M147.55,202c-10.31,3.67-5.4,11.06-2.85,18.16-12.38-9.8-7.4-25.37-2.57-25.81.6-.05,2.57-.04,3.82.89,1.15.86,1.63,1.73,1.63,1.73,0,0,0,3.37-.04,5.02Z"/>
          <path class="cls-45" d="M145.42,197.12c.86-.04,2.13,1.32,2.1,4.07-.03,2.31-.95,7.35-.78,11.64,0,0,.48,5.68,1.6,9.55-1.36-.54-2.49-1.3-3.64-2.21-2.55-7.1-9.59-19.37.72-23.04Z"/>
        </g>
        <g>
          <path class="cls-16" d="M340.62,215.6c-.14-.13-.31-.32-.48-.48-.31-18.33-12.21-12.48-19.34-17.19-4.6-3.04-7.83-19.38,14.08-18.38,5.56,7.95-13.96,6.35-11.94,10.5.48.99,15.1,6.07,17.19,8.59,3,3.63,2.98,13.91.48,16.95Z"/>
          <path class="cls-58" d="M93.8,199.37c-.77,1.33-4.97,3.92-3.34,11.94-5.77-2.09-14.97-2.67-13.84-10.74,1.81-13.02,15.73-1.17,17.19-1.19Z"/>
          <path class="cls-58" d="M106.21,181.7q.48,4.42.95,8.83-6.68,4.42-13.37,8.83c.54-.92,2.18-2.06,2.39-2.63,2-5.39-4.36-9.36-3.82-14.8q6.92-.12,13.84-.24Z"/>
          <path class="cls-58" d="M347.78,146.85c-4.37-2.21-5.02-1.55-9.55-2.63,2.76-7.37,4.11-10.61,0-17.43-.52-.4-.64-.5,0,0-3.84-6.37-10.81-10.63-17.94-7.5-2.75-.54.98-4.57-9.75-10.41,8.37-15.47-11.31-28.07-21.24-13.61-17.61-19.8-42.25-28.58-66.84-15.28-16.73-18.96-48.35-16.68-65.64.24-1.68,1.64.06,3.99-12.65,9.31-1.97.09-9.93-10.8-21.24-1.43,0,0,0,0,0,0-2.89,2.39-5.59,6.4-5.73,10.26-.03.76,1.65,8.46,1.91,8.83-1.18.2-2.31.87-3.34,1.43-7.68,4.19-5.16,3.47-8.83,10.98-18.35-1.5-25.18,16.33-12.17,28.88-2.57.83-5.11,1.11-7.64,2.15-1.99.82-3.19,1.37-4.77,2.86-9.07,8.54-4.83,20.54,5.73,25.06.64,1.79-3.89,4.36,0,13.37-18.05-2.07-24.49,18.34-7.64,26.26-3.6,8.83,2.84,20.44,12.65,16.95,7.94,7.76-1.98,7.84-.24,18.86,1.36,8.6,13.51,14.07,20.77,8.83,10.25,4.27,5.3,4.94,8.83,9.79,4.51,6.19,15.68,5.61,20.77.24,1.38.31.67,13.47,19.1,10.98,4.44-7.84,5.94-2.38,12.89-5.73,5.18-2.5,5.11-9.42,10.26-4.77,2.74-3.89,3.15-8.08,6.93-11.28.07-.7.14-1.4.21-1.99-6.38-2.21-25.4-13.42-31.26-18.43-9.34-7.98-13.33-20.37-13.01-19.3-1.36-.54-2.49-1.3-3.64-2.21-12.38-9.8-7.4-25.37-2.57-25.81.6-.05,2.57-.04,3.82.89,1.13.85,1.61,1.7,1.63,1.73.9-3.64,1.92-8.38,2.1-11.67.91-5.89.92-15.31.93-15.49.51-7.83,10.9-38.47,20.04-42.53,5.38-2.39,10.25,1.5,16.95-8.12,21.88,12.34,30.33-2.24,31.99-2.86,6.58-2.47,8.32,5.19,8.83,5.49,13.69,7.91,27,21.42,30.54,26.98.47.73,2.46,5.84,3.64,9.46,3.7,11.31,6.79,34.73,6.79,34.73,0,0,3.9-5.64,7.37-6.78-.07-.05,3.66-1.35,6.46,1.78,5.22,5.85,4.58,25.77-3.74,31.97-4.96,3.7-10.25,2.94-13.43,0-1.22-1.12-2.42-1.4-2.42-1.4,0,0-.35.73-1,1.91-1.55,2.8-5.42,11.17-9.33,15.71-7.98,9.27-15.7,11.85-22.05,15.97.87,3.22,1.58,5.68,2.38,8.52.64,2.27,1.85,4.93,1.91,5.25,5.45.54,7.16,3.77,10.08,5.58.54.34,3.43.86,4.54.95,6.7,13.18,24.45,10.16,28.64-3.82,9.21,9.72,23.29,11.63,27.21-3.82,7.01.07,11.98.74,16.71-5.25,17.53,1.89,24.17-15.7,11.7-27.45l5.97-7.88c5.9,1.47,11.45.11,14.56-5.25,3.95-6.8,2.04-13.9-4.3-18.38,1.49-16.72-7.49-16.8-8.12-17.66-2.99-4.15,5.51-3.75,10.03-9.07,6.81-8.02,4.79-22.13-4.77-26.97"/>
          <path class="cls-16" d="M100,218.94c-.27.1-1.5,1.75-5.01,2.86-.56-.14-4.42-9.94-4.54-10.5-1.63-8.01,2.57-10.6,3.34-11.94q6.68-4.42,13.37-8.83-.48-4.42-.95-8.83c.1-2.73-8.04-6.86-13.37-10.5-2.1-4.42-1.05-9.85,1.91-13.84,8.45-3.78,19.02-1.63,19.1-7.88,0-.5-2.12-5.75-2.39-9.79-.72-10.74,14.06-12.77,15.28-14.08.5-.54,1.74-5.63,1.91-6.92,1.36-2.12,3.22-3.78,4.77-5.73,2.19-2.75,3.56-.4,1.91-8.83,15.43-17.14,14.53-10.69,36.04-7.88,3.21-.75,3.19-14.58,10.03-15.75,9.57-1.64,12.02,10.31,8.12,13.37-3.67,2.88-3.2-2.58-6.68-7.64-3.78,22.62-17.69,15.12-34.85,12.89-8.46,5.82-4.47,10.16-5.49,13.13-.28.81-7.63,7.08-8.12,8.12-3,6.43,5.2,5.22-16.71,16.71-2.36,5.97,9.05,16.27-6.92,23.15-4.57,1.97-16.64,2.16-13.37,6.21,2.66,3.28,15.27,6.03,15.99,17.43,1.43,22.72-26.97,10.24-13.37,35.09Z"/>
          <g>
            <g>
              <path class="cls-16" d="M234.87,81.92c12.02-1.13,20.75,19.49,43.44,11.94,11.03,14.64,20.32,10.14,15.52,27.93,2.48,1.22,11.9,9.52,12.65,9.79,5.27,1.89,20.78-2.81,15.99,16.47,4.52,1.56,20.47,7.85,22.44,11.46,2.26,4.16.7,12.42-4.06,14.08-11.08,3.87-.82-9.16-1.19-10.74-11.93-10.93-28.55-.8-21.96-23.39l-12.65-1.19c-8.03-10.55-12.63-7.74-15.52-11.22-7.65-9.25,11.94-21.6-18.86-17.43l-2.39-8.12c-11.72.38-21.94-6.33-31.03-12.89-4.05-.29-16.38,7.73-13.61-.72.59-1.81,9.15-5.77,11.22-5.97Z"/>
              <path class="cls-57" d="M279.75,99.59c2.95-.22-2.46,2.06-3.34,2.39-11.48,4.18-3.32-1.9,3.34-2.39Z"/>
            </g>
            <path class="cls-1" d="M181.4,80.49c-6.84,1.17-6.82,15.01-10.03,15.75-21.51-2.82-20.61-9.27-36.04,7.88,1.65,8.43.28,6.08-1.91,8.83-1.55,1.95-3.41,3.61-4.77,5.73h0c-.17,1.29-1.41,6.38-1.91,6.92-1.22,1.32-16,3.34-15.28,14.08.27,4.04,2.39,9.28,2.39,9.79-.07,6.25-10.64,4.1-19.1,7.88-2.96,3.99-4.01,9.42-1.91,13.84,5.33,3.64,13.47,7.78,13.37,10.5q-6.92.12-13.84.24c-.54,5.44,5.82,9.41,3.82,14.8-.21.57-1.85,1.7-2.39,2.63-1.46.02-15.38-11.82-17.19,1.19-1.12,8.08,8.08,8.65,13.84,10.74.11.56,3.98,10.36,4.54,10.5,3.52-1.11,4.74-2.77,5.01-2.86-13.6-24.85,14.8-12.37,13.37-35.09-.72-11.4-13.34-14.14-15.99-17.43-3.27-4.05,8.8-4.24,13.37-6.21,15.97-6.89,4.57-17.19,6.92-23.15,21.91-11.49,13.71-10.28,16.71-16.71.48-1.03,7.84-7.31,8.12-8.12,1.03-2.97-2.97-7.31,5.49-13.13,17.16,2.23,31.07,9.73,34.85-12.89,3.48,5.05,3.01,10.51,6.68,7.64,3.9-3.06,1.45-15.01-8.12-13.37Z"/>
            <path class="cls-1" d="M322.96,190.06c-2.02-4.15,17.5-2.56,11.94-10.5-21.91-.99-18.69,15.34-14.08,18.38,7.12,4.71,19.02-1.14,19.34,17.19.17.16.33.34.48.48,2.5-3.03,2.52-13.32-.48-16.95-2.09-2.52-16.71-7.61-17.19-8.59Z"/>
          </g>
        </g>
        <g>
          <path class="cls-34" d="M181.88,188.37c-.5-1.47-1.36-5.17-5.73-9.43-2.82-2.75-5.81-4.38-7.96-4.74-1.44-.2-2.74-.16-3.92.02-2.25-.1-5.68,1.45-7.92,3.23-5.87,4.68-4.57,12.46,1.08,15.84.25.15.53.29.82.43,3.24,1.76,5.75,1.8,9.2,1.91,0,0,6.24.41,14.03-2.74.47-.19,1.41-.71,1.41-.71,0,0-.22-2.03-1.01-3.82Z"/>
          <path d="M150.49,174.24c2.64,2.22,6.39-6.16,17.05-5.19,8.72.79,15.56,12.06,15.24,22.28-1.16-2.08-2.23-5.18-2.57-5.54-.05-.06-.18.02-1.29-.86,1.16-4.03-6.96-10.25-10.73-10.73-6.55-.85-10.77,2.43-13.74,7.73-.14.25-.58,1.17-.86,2.15-1.13,3.97,1.02,7.74,4.65,9.65-.74,0-3.81-1.99-4.23-2.35-4.02-3.43-7.61-12.5-7.56-18.15-.1-1.1.31-4.58.83-3.19.99,2.65,2.45,3.56,3.2,4.2Z"/>
          <path d="M167.21,187.1c1.9-.49,2.53-3.14,2.21-4.87,11.2-1.45,3.91,16.24-2.21,4.87Z"/>
          <path class="cls-11" d="M180.22,186.76c0-.2-.04-.38-.05-.58,0-.14,0-.27,0-.41,0,0-.02-.02-.04-.02-.84-6.6-8.39-11.1-11.98-11.57-.36,1.44-2.68,2.49-3.43,3.86-.15.27-.81,2.12,0,2.15,2.03-.08,2.65.33,3.43.43.07.43,1.27,1.61,1.29,1.72,10.87-1.4,3.79,15.75-2.15,4.72-2.27.58-4.3-1.57-4.72-.64.81,3.73,1.27,6.93,4.72,8.8,1.25.67,3.25.49,7.72-.31,3.74-.67,4.99-4.57,5.14-8.2.02.01.05.04.06.05Z"/>
          <path class="cls-34" d="M232.02,177.35c.9-.18,3.78-.53,5.05-.47,2.94.16,5.9,2.18,5.9,2.18,7.28,5.07,10.16,9.31,3.22,16.31-.69.31-2.85,1.25-3.01,1.29-5.74,1.41-21.22,1.35-27.05-2-.02,0-.03-.02-.05-.03-.3-.17-.26-2.91.05-3.98,3.45-6.78,7.95-12.16,15.89-13.31Z"/>
          <g>
            <path d="M252.2,181.22c2.17,1.76,3.7.7,5.24-1.17.9-.99.81-1.56,1.05-1.23.27.39.27,1.84-.33,3.75-1.37,4.31-5.27,9.83-11.96,12.82,6.94-7.01,4.06-11.25-3.22-16.31,0,0-1.92-1.42-5.58-2.15-1.82-.36-3.59.17-5.37.43-7.94,1.15-12.44,6.53-15.89,13.31,1.51-13.76,12.07-22.65,26.4-17.6,5.73,2.02,8.22,6.99,9.66,8.16Z"/>
            <path class="cls-11" d="M245.33,185.51c-.19-2.4-3.14-7.78-7.94-8.59-1.83-.31-3.59.17-5.37.43-4.27,6.01-2.22,3.07,1.5,4.29.41.13,1.13.82,1.5,1.29.24.3,1.52.19,3.86.86,4.97,5.8-3.02,11.68-6.44,4.72-1.91.28-4.19-1.74-4.29-1.5.28,14.31,18.69,12.68,17.17-1.5Z"/>
            <path d="M238.89,183.79c4.97,5.8-3.02,11.68-6.44,4.72,2.32-.34,3.84-3.51,2.58-5.58,1.66-.19,2.83-.01,3.86.86Z"/>
          </g>
        </g>
        <path class="cls-3" d="M276.36,217.33l1,2c1,2-3,3-3,3-1.16.37-2,1-3,0l1-5c1-2,3.66-.46,4,0Z"/>
        <g>
          <path class="cls-21" d="M277.36,225.33c0-2,0-5-1-6s-1.79-2.03-3-1c-.85.72-1.85,4.6-2,7-.05.8.36,3.41,1.05,3.95,1.97,1.52,3.28,1.28,3.96.21,1.99-3.16.99-2.77.99-4.16Z"/>
          <path class="cls-36" d="M277.91,224.53c-.22-2.79-.45-4.83-1.55-5.2-3-1-1,3-4,5-1.18.78-.56,3.32,0,4,3.39,4.13,5.76-1.04,5.55-3.8Z"/>
        </g>
        <g>
          <path d="M149.09,160.15c-.32-.04-.57-.26-.4-.54,1.23-1.98,4.66-7.32,6.9-8.78s9.41-4.96,14.55-3.99c4.03.76,4.14,4.49,4.17,6.11,0,.03-.02.06-.05.08-2.65,1.53-4.4.39-8.93.03-1.75-.14-3.24-.01-4.87.46-2.57.74-4.87,2.4-7.04,4.87-.66.75-2.7,1.96-4.34,1.76Z"/>
          <path d="M249.23,152.98c.11.55,2.3,3.22,2.88,5.4l-1.08,1.08c-14.83-10.29-26.1-.3-29.16-7.2,2.55-2.21,3.17-11.87,27.36.72Z"/>
        </g>
        <g>
          <path class="cls-29" d="M208.2,209.68c1.79,8-20.24,11.31-20.88,2.16,5.6,5.57,14.97,2.25,20.88-2.16Z"/>
          <g>
            <path class="cls-22" d="M226.57,216.17c2.64.26,5.03,1.58,6.12,3.96-8.51.6-12.2,25.11-29.16,27.72-25.18,3.88-14.91-25.59-27.72-19.8.7-9.31,39.85-.3,54.01-8.64l-3.24-3.24Z"/>
            <path class="cls-28" d="M221.52,224.81c4.44-.62-4.85,8.34-6.48,9.36-9.07,5.7-30.73,7.42-30.24-4.32,15.16,3.57,34.64-4.75,36.73-5.04Z"/>
          </g>
          <path class="cls-23" d="M192,206.08c2.21,1.67,5.3,2.24,5.4,2.52,1.58,4.52-6.69,4.93-5.4-2.52Z"/>
        </g>
        <g>
          <path class="cls-35" d="M188.51,179.37c0,15.74-15.3,27-28,27s-19-10.26-19-26,9.3-22,22-22,25,5.26,25,21Z"/>
          <path class="cls-35" d="M267.51,180.56c0,22.81-17.9,29.81-32.77,29.81s-22.23-11.33-22.23-28.71c0-20.29,10.88-24.29,25.74-24.29,19.26,0,29.26,5.81,29.26,23.19Z"/>
          <g>
            <path d="M272.51,189.37c4.16-9.68-4.33-20.72-5.73-23.8-2.17-4.77-6.05-8.24-9.27-9.2-2-.6-6-1-13-1-6,0-29-3-34.5,13.71-7.21-3.06-12.58-2.59-20-1-1.5-2.71-5.52-11.66-20.5-12.71-1.93-.13-9.16-.71-16,1-8,2-7.86,2.86-10,5-2.22,2.22-4.6,9.78-5,18-.35,7.04,2,17,3,19,.63,1.26,3,6,5.75,7.46,8.64,4.97,15.01,4.96,21.25,4.54,15-1,26.35-18.47,26-32.79,21.23-1.93,7.52,3.43,18.25,22.75,2.56,4.62,9.75,11.04,16.75,13.04,4.9,1.4,14.82,1.78,23-2,13-6,17.7-16.64,20-22ZM186.26,182.08c-.26,7.54-3.33,13.47-8.14,17.34-6.18,4.97-15.23,6.52-24.86,3.66-5.75-1.71-7.78-6.29-8.75-8.71-4-10,0-24,1-27,1.92-5.77,10.39-7.67,16-8,8.61-.51,17.34.25,21.75,8.71,2.09,4,3.16,9.45,3,14ZM219.26,200.33c-3.52-4.73-5.36-13.94-5.5-19.75-.37-15.93,5.18-19.09,20-20.5,5.57-.53,11.46-.87,17,0,.81.13,2.43.35,3,.5,2.12.56,4.25,1.34,5.79,2.84.47.46,4.36,5.98,5.96,16.95.49,3.39,0,8-1.72,12.65-.01.02-.02.03-.04.05-8.92,20.35-36.11,18.5-44.5,7.25Z"/>
            <path class="cls-52" d="M286.22,174.6c-.51-.71-12.85-7.97-15.03-8.89-2.45-1.04-4.78-2.3-5.2-1.97.57,2.38,7.75,12.97,7.56,18.78-.03.91,1.94,1.11,1.94,1.11l.1-.78c9.11.38,12.15-1.51,15.04.62-.21-1.64-3.59-7.73-4.4-8.87Z"/>
            <g>
              <path class="cls-9" d="M139.82,170.1l-10,4.5c-.53-1.11-2.64-9.66-1.25-10.5,22.79-3.44,17.71-10.26,11.25,6Z"/>
              <path d="M139.82,170.1q-.62,5-1.25,10c-3.24-2.09-6.93-1.68-8.75-5.5l10-4.5Z"/>
            </g>
            <path d="M284.74,190.02c.37-.18,4.84-5.6,5.88-6.56-2.73-2.01-5.98-.95-13.59-.61-9.56-.34-10.25-3.54-10.25-3.54l.63,3.1c-.08.54.19,2.49.46,4.47l4.41,2.9c3.7-3.78,5.28-4.79,9.33-3.29,2.07,1.2,2.74,2.94,3.13,3.54Z"/>
          </g>
        </g>
      </g>
      <path class="cls-39" d="M279,409.55s7.38-5,12-2l-3.69,7-4.62,2-3.69-7Z"/>
      <path class="cls-39" d="M334,394.55s-8-5-13-2l4,7,5,2,4-7Z"/>
      <g>
        <path class="cls-12" d="M282.17,524.37c-1,6-1.03,7.18-2,12-1.01,5.03-40.7,16.17-55.03,16.18,0-1,12.03-17.18,12.03-18.18,14.94-1.36,30.9-4.79,45-10Z"/>
        <path class="cls-4" d="M193.18,425.37c8.59,2.41,12.27,1.9,20.5-1.5.44,1.29,1.34,2.35,2,3.5.91,1.59.93,2.38,1,2.5q-4.12,1.5-8.25,3c-7.9-2.04-15.82,2.24-26-6-7.32-5.93-7.97-13.95-9.25-22.5,2.73,2.32,6.32,2.45,6.5,2.75,1.08,1.8-3.79,13.4,13.5,18.25Z"/>
        <g>
          <path class="cls-33" d="M234.67,398.37c.53.28,2.38-.03,2.5,0,1.47.35,2.91,1.19,4.5,1,.27,1.41.49.94.5,1,1.19,10.16-2.94,10.15-11.5,7,1.15-1.83,1.77-8.97,4-9Z"/>
          <g>
            <path class="cls-25" d="M234.67,398.37c-2.23.03-2.85,7.17-4,9-.09.15-2.16,2.19-2.5,2.5-6.1,5.52-27.48,14.95-35.5,12.5-1.98-.6-3.11-2.17-4.5-3.5,18.99,3.66,8.71.64,6.5-6.25-4.34-13.54,3.99-12.61-6.5-14.75-5.58-1.14-11.5-.48-16.5-3.5,1.12-4.9,15.39-4.04,20-4.5,4-.4,7.98-.98,12-1.25-2.04-2.4-4.57-4.24-6.5-6.75,25.12-3.65,35.58,15.5,37.5,16.5Z"/>
            <path class="cls-49" d="M188.18,397.87c10.49,2.14,2.16,1.2,6.5,14.75,2.21,6.89,12.49,9.91-6.5,6.25-3.11-2.97-10.62-13.76-3-13.75-4.44-1.93-9.22-2.43-13-5.75,0-.17,0-.33,0-.5,1.32-2.47,12.76,2.1,16-1Z"/>
            <path class="cls-55" d="M188.18,418.87c1.39,1.33,2.52,2.9,4.5,3.5q.25,1.5.5,3c-17.29-4.85-12.42-16.45-13.5-18.25-.18-.3-3.77-.43-6.5-2.75-.26-1.76-.89-3.01-1-5,3.78,3.32,8.56,3.82,13,5.75-7.62-.01-.11,10.78,3,13.75Z"/>
            <path class="cls-55" d="M188.18,397.87c-3.24,3.1-14.68-1.47-16,1-.07-1.41-.86-2.91-.5-4.5,5,3.02,10.91,2.36,16.5,3.5Z"/>
            <path class="cls-49" d="M228.17,409.87c1.2.78,1.41,2.33,2,3.5-2.03,1.42-7,5.4-8,6-.78.47-8.06,4.32-8.5,4.5-8.23,3.4-11.91,3.91-20.5,1.5q-.25-1.5-.5-3c8.02,2.45,29.4-6.98,35.5-12.5Z"/>
          </g>
        </g>
        <g>
          <path class="cls-47" d="M226.67,425.37q6.25,9.75,12.5,19.5c-.5.11-6.03,3.33-9.5,4-.08-.76-.95-.95-1-1-.81-.83-10.68-15.8-12-18-.07-.12-.09-.91-1-2.5,2.7-1.02,6.17-1.82,9-2,.66-.04,1.34.01,2,0Z"/>
          <path class="cls-53" d="M222.17,419.37c1.5,2.32,4.67,5.01,2.5,6-2.83.18-6.3.98-9,2-.66-1.15-1.56-2.21-2-3.5.44-.18,7.72-4.03,8.5-4.5Z"/>
        </g>
        <g>
          <path class="cls-39" d="M203.17,291.88c-.68,2.07-1.7,3.96-2.5,6-1.83-.3-1.9.96-2,1-.53.21.22-1.48-3,1.75-3.25,3.26-20.49,27.48-22.25,27.75-.29.04-5.13-2.48-5.25-2.75-1.4-3.12-.03-30.67-2.75-32.25-.73-.42-3.62.87-3.25-1,2.03-.15,3.94.87,6,.5-.58,8.83-.24,18.16,6.75,24.5.41,0,3.62-3.92,4.25-4.5,6.77-6.24,12.8-13.26,19.5-19.5.93-.87,2.32-1.39,3-2.5.19.17,1.22.84,1.5,1Z"/>
          <path class="cls-17" d="M275.14,385.55s26.08-25.13,29-33c.78-2.09,5-16,3.64-22.19-2.22-8.65-5.33-16.92-11.1-23.73-11.06-13.05-23.06-9.92-32-12.75-2.06,4.39-4.56,8.65-7.5,12.5-1.79,6.55-15.09,23.07-21.75,23.5-9.38.61-21.12-34.32-27.42-38.33-1,1-4,2-5,1-.53.21-4.1,4.85-7.33,8.08-3.25,3.26-20.49,27.48-22.25,27.75-.29.04-5.13-2.48-5.25-2.75-1.4-3.12-.03-30.67-2.75-32.25-.73-.42-3.62.87-3.25-1-7.49.57-11.19.92-18.25,5-10.18,5.89-20.87,23.02-18.25,28.25,3.46,6.92,12.46,17.92,19.46,23.92,1.88,1.61,3.84-.93,4.94-2.87-3.33,7.68-9.15,19.78-7.94,29.87,1.37,11.43,6.94,17.95,11,21,2.73,2.05,9,4,9,4,0,0,4,5,0,14-1.14,2.56-14,37-17,41,.1-.13.98-.25,2.51-.38-8.58,10.98-10.57,26.92-13.51,55.38-.3,2.14-1.55,5.77-2.46,7.82,14.74,9.85,38.13,13.18,55.5,15,17.19,1.8,34.75,2.58,52,1,14.94-1.36,30.9-4.79,45-10,4.67-1.72,10.18-4.03,14.5-6.5-2.17-15.61-25.23-75.2-29.53-90.32-.5.23-1.06.45-1.65.67.8-13.71,1.65-29.67,1.65-29.67l6-14Z"/>
          <g>
            <path class="cls-24" d="M246.67,274.88c2.5,7.39,9.61,16.34,18,19-2.06,4.39-4.56,8.65-7.5,12.5-3.73,4.89-16.44,18.28-22.75,17.5-5.61-.69-23.98-26.03-26.75-32.5,10.69-3.61,21.74-10.07,29-18.75-.28-2.07-.61-4.2-1-6.25,5.71.57,7.95,6.6,11,8.5Z"/>
            <path class="cls-39" d="M207.67,291.38c2.77,6.47,21.14,31.81,26.75,32.5,6.31.78,19.02-12.61,22.75-17.5-1.79,6.55-15.09,23.07-21.75,23.5-9.38.61-14.95-13.49-21.25-17.5-.27-2.45-.78-3.36-1.5-5.5-.43-1.28-.98-2.29-1.5-3.5-1.09-2.53-2.39-3.79-2.5-4-1.19-2.2-2.49-4.5-3-7,.11-.03-.48-.16,2-1Z"/>
            <g>
              <path class="cls-24" d="M191.68,275.38c-1.42-.22-1.75,4.51-2.5,7-2.73,9.06-10.13,26.79-10.5,28.25-.16.62-.16,2.32.5,2.25-.63.58-3.84,4.5-4.25,4.5-6.99-6.34-7.33-15.67-6.75-24.5,6.55-3.95,11.23-9.94,15.5-16,2.87-4.07,4.54-9.14,8.5-12.5-.31,3.11-.95,8.1-.5,11Z"/>
              <path class="cls-24" d="M198.67,293.38c-6.7,6.24-12.73,13.26-19.5,19.5-.66.07-.66-1.63-.5-2.25.37-1.46,7.77-19.18,10.5-28.25q4.75,5.5,9.5,11Z"/>
              <path class="cls-17" d="M191.68,275.38c.63,4.03,3.64,6.92,6,10,.61.79,3.74,5.28,4,5.5-.68,1.11-2.07,1.63-3,2.5q-4.75-5.5-9.5-11c.75-2.49,1.08-7.22,2.5-7Z"/>
            </g>
          </g>
        </g>
      </g>
      <g>
        <path class="cls-5" d="M224.54,5.17c16.02.38,25.6,2.45,40.53,7.48.19.06.44-.06.62,0,6.62,2.28,12.89,5.39,19.33,8.11-10.08-19.86-53.11-26.37-60.48-15.59Z"/>
        <g>
          <path class="cls-56" d="M93.6,85.6c-11.03,2.43-56.33,16.31-47.39,33.36,4.81,9.17,55.7,32.3,68.28,35.85,2.15,3.84-21.02-6.26-21.51-3.74,10.18,3.53,20.86,5.67,31.18,8.73.5-2.64.87-5.52,2.49-7.79.16-2.7-5.1-6.77-1.25-15.59-22.05-16.85,18.07-48.8,34.92-53.93.41-.13.17-1.08-.31-1.25-1.56-.54-29.26-.21-33.05,0-10.85.59-22.74,2.02-33.36,4.36Z"/>
          <path class="cls-17" d="M161.57,66.27c-15.21-.18-30.32,1.45-45.52,1.25-1.96.3-5.17,1.42-6.24,0-.6.32-.72,1.26-2.81,1.87-21.98.53-86.41,15.27-67.65,48.63,2.15-2.03-.48-4.15,0-7.79,2.01-15.37,42.22-24.27,54.87-27.12,41.07-9.25,51.49-5.71,92.59-4.99,43.41,5.92,105.58,19.42,144.03,39.91,3.64,1.94,16.15,9.33,13.41,9.98,9.23,4.42,40.02,23.88,44.27,32.11,2.93,5.67,1.02,9.01,3.12,8.42,6.77-20.22-17.22-40.21-33.67-48.01-.15-.07-.46,1.36-3.43,0-53.38-24.36-96.13-39.94-154.32-51.13-12.78-2.5-25.68-2.97-38.66-3.12Z"/>
          <path class="cls-17" d="M268.81,75c17.29,4.89,73.61,25.2,85.42,35.54.79.05.78-.99.62-1.56-2.79-10.46-22.95-44.63-30.55-54.25-11.88-15.03-23.3-23.77-39.28-33.98-6.44-2.71-12.71-5.83-19.33-8.11,3.66,20.63,3.24,41.49,3.12,62.35Z"/>
          <path class="cls-24" d="M223.92,6.42c-38.82-1.25-79.93,27.97-104.75,56.12,15.59-4.52,50.49-4.32,67.34-3.12,10.84-18.97,24.52-39.85,42.4-52.69-.29-.58-4.02-.28-4.99-.31Z"/>
          <path class="cls-24" d="M200.23,69.39c58.19,11.19,100.94,26.77,154.32,51.13,2.97,1.36,3.27-.07,3.43,0-.09-.8.14-1.72,0-2.49-18.24-12.11-46.28-24.61-67.03-31.8-15.16-5.25-70.69-20.29-83.86-20.58-4.11-.09-5.65-.76-6.86,3.74Z"/>
          <path class="cls-2" d="M388.53,160.11c-4.25-8.23-35.04-27.7-44.27-32.11-5.94-2.84-17.59-8.41-17.46-4.99,2.66.88,3.53,3,3.74,3.12,8.64,4.9,48.5,30.78,51.13,37.72,4.18,11-16.93,21.04-33,23.7.81,1.63.95,1.4,1.58,4.11,16.01-1.57,36.98-9.95,41.4-23.13-2.1.59-.19-2.75-3.12-8.42Z"/>
          <path class="cls-2" d="M39.36,118.03c8.62,15.34,37.42,27.43,53.62,33.05.49-2.52,23.66,7.58,21.51,3.74-12.57-3.55-63.47-26.69-68.28-35.85-8.94-17.05,36.36-30.93,47.39-33.36q.31-1.25.62-2.49c-12.65,2.85-52.86,11.75-54.87,27.12-.48,3.64,2.15,5.77,0,7.79Z"/>
          <path class="cls-18" d="M207.08,65.65c13.17.29,68.7,15.32,83.86,20.58,20.75,7.19,48.79,19.69,67.03,31.8-.76-4.34-.43-4.59-3.74-7.48-11.81-10.35-68.13-30.65-85.42-35.54-1.34-.38-1.78-.6-1.87-.62-15.34-4.24-43.13-10.37-58.61-12.47l-1.25,3.74Z"/>
          <path class="cls-6" d="M119.17,62.53c-10.27,2.98-8.86,4.73-9.35,4.99,1.07,1.42,4.28.3,6.24,0,7.74-1.18,40.08-4.28,45.21-2.49.48.17.31.81.31,1.25,12.98.15,25.88.62,38.66,3.12,1.21-4.5,2.75-3.83,6.86-3.74l1.25-3.74c-7.14-.97-14.66-1.98-21.82-2.49-16.85-1.2-51.75-1.4-67.34,3.12Z"/>
          <path class="cls-56" d="M381.67,163.86c-2.25-6.08-26.91-22.35-41.89-32.06,2.14,1.72.47,6.02-1.7,12.6,10.5,1.09,14.87,5.87,16.57,9.77,2.45,5.65,3.53,13.93-3.61,21.16-4,3-11.54,4.19-8.44,7.62.23.36,4.22,1.36,6.08,4.62,16.07-2.65,37.08-12.66,33-23.7Z"/>
          <path class="cls-24" d="M94.23,83.11q-.31,1.25-.62,2.49c10.62-2.34,22.51-3.78,33.36-4.36,3.79-.21,31.49-.54,33.05,0,.48.17.31.81.31,1.25,36.71-4.76,130.31,22.09,166.48,40.53-.13-3.43,11.52,2.15,17.46,4.99,2.74-.65-9.77-8.04-13.41-9.98-38.46-20.49-100.62-33.98-144.03-39.91-41.1-.73-51.53-4.26-92.59,4.99Z"/>
          <path class="cls-26" d="M116.05,67.52c15.2.21,30.31-1.42,45.52-1.25,0-.43.17-1.08-.31-1.25-5.12-1.78-37.46,1.31-45.21,2.49Z"/>
          <g>
            <path class="cls-17" d="M224.54,5.17c-.23.33-.52.84-.62,1.25.97.03,4.7-.27,4.99.31-17.88,12.84-31.56,33.72-42.4,52.69,7.17.51,14.69,1.53,21.82,2.49,15.48,2.1,43.27,8.23,58.61,12.47-.13-20.6.74-41.24-1.87-61.73-14.93-5.03-24.51-7.1-40.53-7.48Z"/>
            <path class="cls-39" d="M266.94,74.38c.1.03.53.24,1.87.62.12-20.86.54-41.72-3.12-62.35-.19-.06-.44.06-.62,0,2.61,20.49,1.74,41.13,1.87,61.73Z"/>
          </g>
        </g>
      </g>
      <path class="cls-39" d="M274.67,438.87c-4.87-6.97-4.71-26.63-3.53-39.53,2.34-3.03,4.3-6.79,5.03-10.22.97-3.58.43-15.82-2.75-24.75-1.58.23,4.64,12.67-.78,23.88-2.11,2.97-4.93,6.89-9.43,9.94-2.21,1.34-4.8,2.56-7.86,3.61-5.94,1.64-13.75,1.73-24.21-1.26.64.18,35.3,40.12,43,56,7.48,15.45,16.24,62.78,15,67,.46-.1,6.78-3.39,10-5,2-1-2.74-48.58-24.47-79.67Z"/>
      <path class="cls-39" d="M30.52,367.64s-9.52-26.09,35.53-48.38c0,0,18.78,13.14,15.95,18.28-3.82,6.93-8.43,12.61-16,22-4.8,5.96-21.69,8.16-24,11-1.78,2.19-11.48-2.91-11.48-2.91Z"/>
      <path class="cls-39" d="M168.18,402.87c5,0,10-3,10-3-6,3-16.04,1.67-16.04,1.67,0,0,1.12,1.84,1,5-.12,3.34-1.54,8.12-3.96,12.33-4,6.95-7.14,12.93-9.58,17.88-2.76,4.78-4.86,10.17-6.12,13.6-.92,2.33-1.31,3.52-1.31,3.52-4.86,19.13-9.34,45.12-12.04,64.67,6.62,4.02,7,4,7,4,0,0-3.25-21.94,2.02-42.41,7.46-28.98,19.64-41.24,22.98-46.59,15-24,6.04-30.67,6.04-30.67Z"/>
      <path class="cls-39" d="M137.14,341.55s7,3,13-1c6.13-4.09-3,13-3,13,0,0-6.11-5.26-10-12Z"/>
      <path class="cls-24" d="M202,291.55s.58,49.37,2,68c1.7,22.28,1,57-1,81-1.81,21.75,3,95,3,95l2,1s-3.19-43.99-3.1-70.23c.1-29.77,1.92-48.87,2.1-63.77.18-14.91-2-60.97-2-71,0-6-.85-24.61,0-34,.5-5.49,2-5,2-5l-5-1Z"/>
      <g>
        <g>
          <path class="cls-38" d="M37.67,292.73c-.68,19.16-6.06,39.07-2.12,67.02,17.53,7.66,32.17,5.99,33.16-15.52.13-2.81-.11-5.65,0-8.47.43-10.99.45-21.42,1.41-32.45-8.71-8.31-20.87-9.69-32.45-10.58Z"/>
          <path class="cls-13" d="M60.25,281.44c-7.13,4.92-14.17,9.29-23.28,9.17,2.23,1.63.75.98.71,2.12,11.58.9,23.74,2.27,32.45,10.58,1.33-15.22,1.39-21.21,5.64-36.68-5.73,4.09-8.77,11.35-14.46,15.52-.84.61-1.01-.74-1.06-.71Z"/>
        </g>
        <g>
          <path class="cls-24" d="M25.68,213.72c11.49,1.07,15.39-1.37,16.23-1.41-.38-11.08,3.92-1.73,13.4.71-.27-.99-2.95-9.72-2.47-9.88l8.11,7.76c.97-.9,5.75,3.01,2.12-9.88-.05-.17-1.7-1.2-1.41-3.17.55-.74,1.44,1.87,2.12,2.47,4.47,3.96,5.98,5.74,11.99,4.94-3.11-.32-7.97-12.01-6.7-12.7q6.53,5.29,13.05,10.58c1.35-.71,3.2,1.3,1.41-4.23-.37-1.13-4.99-5.18-3.17-6.35q6.17,1.76,12.35,3.53c-1.38-2.88-1.09-5.01-3.53-7.76-39.92-8.42-49.53,15.28-63.49,25.4Z"/>
          <path class="cls-24" d="M92.7,196.08c1.14,2.38,3.09,4.35,3.53,7.05.94.05,1.86,2.02,4.94-.71.56-.5,1.49-3.61,2.82-4.94-4.61-3.56-4.43-4.32-5.64-5.64-.03-.04-.78.15-.71-.71-2.19,0-6.14-2.33-8.47-2.82,2.44,2.75,2.15,4.88,3.53,7.76Z"/>
          <path class="cls-8" d="M55.31,213.01c.19.68.69.82.71,1.41.18.03-.86.66,3.53.71-.26-3.09-.1-2.84,1.41-4.23l-8.11-7.76c-.48.16,2.2,8.89,2.47,9.88Z"/>
          <path class="cls-40" d="M41.91,212.31c.39-.02,1.32-1.12,3.88-.71,3.29,1.28,6.73,2.31,10.23,2.82-.01-.59-.52-.73-.71-1.41-9.49-2.43-13.79-11.78-13.4-.71Z"/>
          <path class="cls-39" d="M83.53,198.9c5.77,1.11,6.69,3.91,12.7,4.23-.44-2.71-2.39-4.68-3.53-7.05q-6.17-1.76-12.35-3.53c-1.82,1.17,2.81,5.22,3.17,6.35Z"/>
          <path class="cls-42" d="M75.77,205.25c1.1-.15,5.36-1.59,6.35-2.12q-6.53-5.29-13.05-10.58c-1.27.69,3.6,12.37,6.7,12.7Z"/>
          <path class="cls-44" d="M63.07,201.02l.71-.71c-.68-.6-1.57-3.21-2.12-2.47-.29,1.97,1.36,3.01,1.41,3.17Z"/>
        </g>
        <g>
          <path class="cls-17" d="M327.35,417.61c8.19-25.01-10.74-93.06-31.58-111.98-1.38-.29-1.61-1.01-2.31-1.77-4.17,3.58-8.94,6.38-13.36,9.6-5.15,3.74-10.33,7.5-15.73,10.86.39,3.45-.07,6.99-1.6,10.27-.43.84-.79,1.7-1.13,2.57-.06.32-.15.76-.27,1.33-.11,1.61-.36,3.2-.47,4.81.08.21.23,3.57.27,4.1.19,2.48.49,4.95.79,7.42.49,4.08.98,8.14,1.33,12.2,2.91-2.12,6.34-4.66,7.67-5.64-.7-26.94-3.57-32.94,8.91-7.3,1.45.81,10.06-4.83,12.66-5.29.09-.02.27-.59,1.53-.88-2.04,18.64-4.04,43.64-2.24,61.27,4.15,1.99,29.14,14.87,30.86,14.85,2.53-.02,2.43-5.82,4.69-6.43Z"/>
          <path class="cls-17" d="M155.13,310.37c.66.12,1.39.89,2.18,2.06,1.8-6.69,4.01-13.3,7-19.35-4.94.17-13.13.53-25.05,5.3-2.89,1.16-7.29,4.06-10.58,5.64-17.85,8.57-34.58,19.97-52.2,28.92-1.35,6.92-.37,7.2-6.35,11.29,16.55-3.69,8.24,27.42-3.17,35.27-10.72,7.38-20.33,4.18-27.87-5.64,7.56,20.37,22,23.59,41.62,17.64,2.12-7.03,5.98-5.66,10.23-8.47,16.06-10.61,31.31-23.44,42.68-39.15,11.31-15.63,8.76-18.8,11.64-37.74q1.59,15.17,3.17,30.33c2.59-11.58,1.54-27.05,6.7-26.1Z"/>
          <path class="cls-13" d="M70.12,344.23h-1.41c-.98,21.51-15.63,23.18-33.16,15.52.73,5.14,1.72,9.23,3.53,14.11,7.53,9.82,17.14,13.02,27.87,5.64,11.41-7.86,19.72-38.96,3.17-35.27Z"/>
          <path class="cls-39" d="M80.71,391.49c15.05-4.56,51.88-28.1,66.29-37.95-.06-3.2.42-12.55,1.43-17.08q-1.59-15.17-3.17-30.33c-2.88,18.94-.33,22.11-11.64,37.74-11.37,15.71-26.62,28.54-42.68,39.15-4.25,2.81-8.11,1.44-10.23,8.47Z"/>
          <path class="cls-17" d="M292.51,348.79c1.09,3.47-9.79,8.3-14.62,12.51,4.86,20.34,4.25,20.9,9.11,41.25.9.81-2.64,8.26,4,12,2.46,1.38,8.87.73,14,1-18.36-.97-8.45-49.32-10.96-67.64-1.26.29-1.44.86-1.53.88Z"/>
          <path class="cls-39" d="M287.61,401.99q-4.86-20.34-9.72-40.69c4.83-4.21,15.71-9.05,14.62-12.51-2.59.46-11.2,6.1-12.66,5.29-12.49-25.65-9.61-19.65-8.91,7.3-1.33.98-4.76,3.52-7.67,5.64.08.92.15,1.84.22,2.76,3.33-1.54,4.27-1.98,9.11-4.23,3.13,16.11,9.26,31.84,10.3,48.24.51.6,8.59-.85,9.1-.24-.43-2.44-3-3-4.39-11.56Z"/>
          <path class="cls-24" d="M68.71,335.76c-.11,2.81.13,5.65,0,8.47h1.41c5.97-4.09,5-4.36,6.35-11.29-2.35,1.19-5.22,2.07-7.76,2.82Z"/>
        </g>
        <g>
          <path class="cls-14" d="M112.45,189.03c-2.6-.2-6.84,1.89-9.17,0-.95.59-1.78.76-2.82,1.41-.11.07-.38.85-2.12,1.41,1.21,1.32,1.03,2.08,5.64,5.64,5.54,4.28,11.76,7.51,15.17,14.11.81.22,7.57-3.84,15.87-5.64-6.72-9.5-10.13-15.95-22.57-16.93Z"/>
          <path class="cls-46" d="M97.64,191.14c-.08.86.67.67.71.71,1.74-.56,2.01-1.34,2.12-1.41-1.75-.37-2.29.7-2.82.71Z"/>
          <path class="cls-32" d="M194.28,218.66c-.14-.19-1.48-2.98-2.09-4.19-1.74-1.75-3.45-3.52-5.06-5.39-4.1-1.16-5.9-5.98-11.19-7.36-.38-.1-7.38-.1-7.76,0-.57.14-5.71,4.06-10.23,5.64-10.42,3.65-23.78,9.12-32.8,11.99,15.22,2.86,29.28,16.01,33.16,31.04q19.05-11.64,38.09-23.28c-.12-.42.59-2.05-2.12-8.47Z"/>
          <path class="cls-20" d="M101.16,202.43c1.99.88,3.3,2.19,4.94,3.53,12.69,10.39,2.88,9.52-9.17,17.64,1.45,3.42-.45,2.83-2.82,5.64,11.24-8.43,21.99-6.99,31.04-9.88,9.03-2.88,22.38-8.35,32.8-11.99,4.52-1.58,9.66-5.5,10.23-5.64v-.71c-10.92,2.11-22.29,2.57-33.16,4.94-8.31,1.81-15.06,5.87-15.87,5.64-3.41-6.6-9.63-9.83-15.17-14.11-1.33,1.33-2.26,4.44-2.82,4.94Z"/>
          <g>
            <path class="cls-14" d="M41.91,212.31c-.84.04-4.73,2.48-16.23,1.41-8.09,5.87-14.97,4.75-21.16,15.87-13.99,25.11,6.68,60.69,32.45,61.02,9.11.12,16.15-4.26,23.28-9.17,7.12-6.14,13.05-32.31,12.7-39.86-.29-6.27-8.82-14.14,6-3.17,1.44-.97.96-2.05,1.06-2.12-3.23-6.34-8.36-18.83-14.11-21.87-1.91,1.12-4.24.73-6.35.71-4.39-.05-3.35-.68-3.53-.71-3.5-.52-6.94-1.55-10.23-2.82-2.56-.41-3.49.69-3.88.71Z"/>
            <path class="cls-27" d="M28.15,218.66c-36.14-3.22-24.69,58.7,6.35,66.31,41.36,10.14,28.67-63.19-6.35-66.31Z"/>
          </g>
          <path class="cls-41" d="M65.89,214.42c5.75,3.04,10.88,15.53,14.11,21.87,6.48-4.9,9.54-7.72,16.93-12.7,12.06-8.11,21.86-7.25,9.17-17.64-6.58-1.58-38.45,3.21-40.21,8.47Z"/>
          <path class="cls-48" d="M80,236.29c-.09.07.39,1.14-1.06,2.12-14.81-10.97-6.29-3.09-6,3.17.35,7.54-5.58,33.72-12.7,39.86.05-.04.22,1.32,1.06.71,5.69-4.17,8.73-11.43,14.46-15.52.97-3.53,2.37-5.85,3.53-9.17,5.71-16.43,2.85-14.05,14.81-28.22,2.38-2.81,4.27-2.22,2.82-5.64-7.39,4.97-10.45,7.8-16.93,12.7Z"/>
          <path class="cls-27" d="M83.53,198.9c1.79,5.53-.06,3.52-1.41,4.23-.99.53-5.25,1.97-6.35,2.12-6.01.8-7.52-.98-11.99-4.94l-.71.71c3.63,12.88-1.14,8.98-2.12,9.88-1.51,1.4-1.67,1.14-1.41,4.23,2.11.02,4.44.41,6.35-.71,1.76-5.25,33.63-10.05,40.21-8.47-1.63-1.34-2.94-2.65-4.94-3.53-3.08,2.72-4,.76-4.94.71-6.01-.32-6.93-3.12-12.7-4.23Z"/>
          <path class="cls-50" d="M158.31,250.4c.2.79-.16,1.96,0,2.82,1.82,9.62,1.65,16.71-3.53,25.4,4.76-4.23,10.87-7.5,11.29-7.76,4.64-2.91,9.53-5.51,14.11-8.47,2.23-1.44,5.46-2.83,6.35-3.53,3.99-3.1,11.67-12.24,12.7-16.93.11-.52.71-4.02.71-4.23-.04-2.73-2.75-7.87-3.53-10.58q-19.05,11.64-38.09,23.28Z"/>
          <g>
            <path class="cls-10" d="M149.84,282.85c2.53.48,3.8-2.33,4.94-4.23,5.18-8.69,5.35-15.78,3.53-25.4-8.28.33-3.97,16.41-8.47,29.63Z"/>
            <g>
              <path class="cls-14" d="M94.11,229.24c-11.97,14.17-9.1,11.78-14.81,28.22,2.55,27.2,20.08,49.4,49.38,46.56,3.29-1.58,7.69-4.49,10.58-5.64,4.08-4.55,7.59-8.37,9.88-14.11.62-1.55.68-1.34.71-1.41,4.5-13.22.19-29.3,8.47-29.63-.16-.86.2-2.03,0-2.82-3.88-15.03-17.93-28.18-33.16-31.04-9.05,2.89-19.8,1.45-31.04,9.88Z"/>
              <g>
                <path class="cls-27" d="M112.1,228.53c-39.38-5.37-29.65,59.04,4.23,68.43,42.87,11.88,33.8-63.24-4.23-68.43Z"/>
                <path class="cls-20" d="M90.23,258.16c-5.88-1.36,3.18,20.39,11.29,28.22,1.01.98,10.73,8.16,11.29,7.76,2.76-2.01-7.65-8.66-13.76-17.99-5.41-8.27-7.84-17.76-8.82-17.99Z"/>
              </g>
            </g>
          </g>
        </g>
      </g>
      <path class="cls-56" d="M203.92,345.38c2.63-.31,3.1,4.32,1,5-3.13,1.02-3.92-4.65-1-5Z"/>
      <path class="cls-56" d="M204.92,366.38c2.63-.31,3.1,4.32,1,5-3.13,1.02-3.92-4.65-1-5Z"/>
      <path class="cls-56" d="M204.92,385.38c2.63-.31,3.1,4.32,1,5-3.13,1.02-3.92-4.65-1-5Z"/>
      <path class="cls-56" d="M204.92,405.38c2.63-.31,3.1,4.32,1,5-3.13,1.02-3.92-4.65-1-5Z"/>
      <path class="cls-56" d="M203.92,325.38c2.63-.31,3.1,4.32,1,5-3.13,1.02-3.92-4.65-1-5Z"/>
      <path class="cls-24" d="M30.16,366.75s21.97,5.6,39.36-33.82l7.58-4.66s15.66,14.96,9.47,24c-6.19,9.04,3.51,20.28-18.13,27.89-21.63,7.61-17.8,6.22-23.42,4.92-11.57-2.68-14.86-18.34-14.86-18.34Z"/>
      <path class="cls-56" d="M203.92,427.38c2.63-.31,3.1,4.32,1,5-3.13,1.02-3.92-4.65-1-5Z"/>
      <path class="cls-56" d="M203.92,445.38c2.63-.31,3.1,4.32,1,5-3.13,1.02-3.92-4.65-1-5Z"/>
      <path class="cls-56" d="M203.92,465.38c2.63-.31,3.1,4.32,1,5-3.13,1.02-3.92-4.65-1-5Z"/>
      <path class="cls-56" d="M203.92,485.38c2.63-.31,3.1,4.32,1,5-3.13,1.02-3.92-4.65-1-5Z"/>
      <path class="cls-56" d="M204.92,506.38c2.63-.31,3.1,4.32,1,5-3.13,1.02-3.92-4.65-1-5Z"/>
      <g>
        <path class="cls-58" d="M117.7,102.39c.37.52,8.75,7.01,10.23,7.55.19,1.44-.3,2.75-.49,4.14-.18,1.31-1.44,6.51-1.95,7.06-1.24,1.34-16.32,3.41-15.58,14.36-24.77,1.61-20.59-15.05-14.36-17.53,4.37-1.74,9.25,1.23,13.63.49,1.47-1.15.45-7.35,5.11-14.61,1.06-.58,2.2-1.26,3.41-1.46Z"/>
        <path class="cls-54" d="M109.91,135.5c.28,4.12,2.44,9.47,2.43,9.98-.07,6.37-10.86,4.18-19.48,8.03,1.19-1.61,2.98-1.49,2.43-2.19-4.98-.51-5.83-.16-3.17-4.63-4.6-.74-7.25,2.3-7.06,0,2.58-1.06,5.17-1.35,7.79-2.19-13.27-12.8-6.3-30.99,12.42-29.46,3.74-7.66,1.17-6.93,9.01-11.2-4.67,7.26-3.64,13.46-5.11,14.61-4.38.75-9.26-2.23-13.63-.49-6.22,2.48-10.41,19.14,14.36,17.53Z"/>
        <path class="cls-58" d="M85.07,146.7c-.19,2.3,2.46-.74,7.06,0-2.67,4.46-1.81,4.11,3.17,4.63.54.7-1.24.58-2.43,2.19-3.02,4.07-4.09,9.61-1.95,14.12-.97-.66-1.77-.27-1.7-1.95-2.55.17-7.31-3.26-8.03-5.11-.92-2.35-.2-4.94-.49-7.3-.18-1.43-2.41-1.17-.49-3.65,1.62-1.52,2.84-2.09,4.87-2.92Z"/>
        <path class="cls-54" d="M132.31,108.23c-1.58,1.99-3.48,3.68-4.87,5.84.19-1.39.67-2.7.49-4.14-1.47-.53-9.86-7.03-10.23-7.55-.27-.38-1.98-8.24-1.95-9.01.14-3.94,2.89-8.03,5.84-10.47-6.01,13.34,9.31,19.11,10.23,21.67.52,1.45-1.12,3.38.49,3.65Z"/>
        <path class="cls-16" d="M110.21,174.69c-3.72-6.88-12.48-9.22-14.66-11.92-3.34-4.13,8.98-4.32,13.63-6.33,16.29-7.03,4.66-17.53,7.06-23.62,22.35-11.72,13.98-10.49,17.04-17.04.49-1.05,7.99-7.46,8.28-8.28,1.05-3.02-3.03-7.46,5.6-13.39,17.5,2.27,31.69,9.92,35.55-13.15,3.55,5.16,3.07,10.72,6.82,7.79,3.98-3.12,1.48-15.31-8.28-13.63-6.97,1.2-6.95,15.31-10.23,16.07-21.94-2.87-21.02-9.45-36.76,8.03,1.68,8.6.29,6.2-1.95,9.01-1.58,1.99-3.48,3.68-4.87,5.84-.18,1.31-1.44,6.51-1.95,7.06-1.24,1.34-16.32,3.41-15.58,14.36.28,4.12,2.44,9.47,2.43,9.98-.07,6.37-10.86,4.18-19.48,8.03-3.02,4.07-4.09,9.61-1.95,14.12,5.44,3.72,13.74,7.93,13.63,10.71.09.84.17,1.53.23,2.11.96.19,1.91.39,2.85.64.34.09.68.19,1.01.28.34-2.23.88-4.48,1.56-6.69Z"/>
        <path class="cls-58" d="M104.78,180.47c-.06-.59-.14-1.27-.23-2.11l-14.12.24c-.04.36-.04.71-.02,1.05,4.82-.38,9.69-.1,14.37.82Z"/>
        <path class="cls-54" d="M86.05,175.19c.38,1.08-1.06,2.44-1.5,5.26,1.94-.37,3.89-.65,5.86-.81-.02-.34-.01-.69.02-1.05q7.06-.12,14.12-.24c.11-2.78-8.2-7-13.63-10.71-.97-.66-1.77-.27-1.7-1.95-2.55.17-7.31-3.26-8.03-5.11-.92-2.35-.2-4.94-.49-7.3-.18-1.43-2.41-1.17-.49-3.65-9.25,8.71-4.93,20.95,5.84,25.56Z"/>
        <path class="cls-58" d="M222.33,73.79c-26.03-18.02-48.79-15.91-66.16,1.09-1.71,1.68.06,4.07-12.9,9.5-2.01.09-10.13-11.01-21.67-1.46-6.01,13.34,9.31,19.11,10.23,21.67.52,1.45-1.12,3.38.49,3.65,2.23-2.8,3.63-.41,1.95-9.01,15.74-17.49,14.82-10.91,36.76-8.03,3.27-.76,3.25-14.87,10.23-16.07,9.76-1.68,12.26,10.52,8.28,13.63-3.75,2.93-3.27-2.64-6.82-7.79-3.85,23.07-18.05,15.42-35.55,13.15-8.63,5.93-4.55,10.37-5.6,13.39-.28.82-7.79,7.22-8.28,8.28-3.06,6.55,5.3,5.33-17.04,17.04-2.4,6.08,9.23,16.59-7.06,23.62-4.66,2.01-16.97,2.2-13.63,6.33,2.18,2.7,10.95,5.04,14.66,11.92,2.51-8.08,13.4-14.1,18.89-19.59,5.48-5.48,6.3-11.36,13.89-13.82,9.38-15.95,22.73-29.5,39.26-38.25,1.11-.59,2.23-1.14,3.34-1.69.18-.81.33-1.32.53-1.38.17.3.35.57.52.86,12.42-5.98,44.16-6.6,57.38-9.02-1.55-4.82-17.24-14.93-21.69-18.01Z"/>
      </g>
      <g>
        <path class="cls-30" d="M211.89,506.24c1.37.5,5.57,2.1,6.54,2.64,1.21.67,4.56,2,1.58,3.12-5.81,2.19-19.91-6.14-25.25-8.45-1.37-.59-1.59-1.3-2.21-1-.06-.35.23-.46.18-.83,6.44.92,13.03,2.28,19.16,4.52Z"/>
        <path class="cls-7" d="M220.01,512l.56,2.21c-9.73,2.5-18.93-4.64-25.81-10.65,5.34,2.31,19.44,10.64,25.25,8.45Z"/>
        <path class="cls-43" d="M294.75,287.46c-3.39,10.86-8.82,20.96-12.7,31.61-6.98,19.17-42.69,121.68-44.04,132.96-.15,1.23-7.95,19.94-9.01,23.04-3.81,11.16-6.51,22.73-10.57,33.81,1.21.67,4.56,2,1.58,3.12l.56,2.21c1.04-.27,2.08-.53,3.12-.8q.37-.48.73-.97c3.46-10.49,14.73-72.84,27.16-110.25,6.01-18.09,31.7-67.53,38.4-87.3,1.98-5.84,6.92-18.77,7.54-21.1.35-1.31.87-2.59.95-3.96-.1-.24-3.18-2-3.74-2.38ZM248.87,441.63c-.07-.06-.12-.09-.19-.15.08-.25.17-.49.25-.74-.02.29-.03.55-.06.89Z"/>
        <path class="cls-7" d="M292.35,285.72c-.56-.31-10.2-2.6-11.31-3.1-9.65,28.98-14.56,70.42-15.19,66.6-3.13,9.09-6.4,17.46-11.59,25.15-.01.02-16.58,34.03-15.45,50.24-.1-.02-.2,0-.29-.04-3.65,15.05-20.58,65.95-25.21,79.54-.23.67-.66,2.07-1.42,2.12,1.37.5,5.57,2.1,6.54,2.64,4.06-11.09,26.51-76.2,27.97-84.22,4.18-13.17,16.3-47.21,16.45-47.27,7.42-19.06,12.22-39.15,19.2-58.32,3.88-10.65,9.31-20.75,12.7-31.61-.77-.53-1.6-1.3-2.4-1.74Z"/>
        <path class="cls-31" d="M276.4,280c-.8-.17-6.78-1.12-7.09-.94-.51,1.61-1.53,2.94-2.19,4.47-.83,1.94-1.54,5.69-2.26,8.01-.48,1.55-8.98,46.47-25.71,94.21-18.86,53.82-46.18,111.16-46.53,112.47-.25.95-.42,1.87-.86,2.76.24.22.92.37.97.73,6.44.92,13.03,2.28,19.16,4.52.75-.05,1.19-1.45,1.42-2.12,4.42-12.97,20.03-59.9,24.62-77.24.13.08.26.14.39.22l4.96-22.01c-1.65.21,18.39-43.71,22.57-55.85,3.5-10.16,6.52-22.01,9.75-32.43,1.3-4.19,3.37-8.34,4.64-12.53,1.75-5.78,3.83-19.11,6.49-20.64-2.53-.99-7.95-3.14-10.32-3.63Z"/>
      </g>
      <g>
        <g>
          <path class="cls-3" d="M264.34,391.34c-.13.57-1.19.84-1.22,1.04-.46,2.92,5.34,4.61-2.44,20.66-2.32,4.79-4.64,7.64-7.85,11.73-.91,1.16-8.76,8.67-8.21,9.62,20.15,12.57,76.12,38.22,87.47,7.13-.42,6.09-.81,12.47-2.51,18.36-1.22,4.22-3.05,8.2-6.68,10.94-13.07,9.85-40.75-3.36-53.18-10.73-3.33-1.97-24.15-16.54-27.16-18.96-11.25-9.05-11.65-11.22-9.31-25.72,1.41-.53,4.2,3.64,7.35,5.48,4.34-4.73,18.11-9.95,19.89-14.76.32-.86,1.72-13.12,1.71-14.18.92-.46,1.17-.5,2.15-.6Z"/>
          <path class="cls-38" d="M329.85,405.45c1.49,13.44,3.25,21.47,2.24,36.07-11.35,31.09-67.32,5.44-87.47-7.13-.55-.96,7.3-8.46,8.21-9.62,3.79,1.86,4.2.8,4.42.85,10.6,2.47,21.21,4.3,31.82,6.62,3.38.74,7.26,1.29,9.82,1.89,7.19,1.68,14.69,3.17,21.09,6.85-4.34-6.27-12.18-8.14-18.76-10.99,7.4-12.02,17-17.18,28.64-24.54Z"/>
          <path class="cls-3" d="M329.85,405.45c-11.64,7.35-21.24,12.52-28.64,24.54-.81,1.32-2.11,2.47-2.32,4.14-2.56-.6-6.44-1.15-9.82-1.89-2.06-4.22-2.75-11.56-3.84-14.48,9.97-1.15,14.07-1.97,23.4-5.18,7.46-2.56,14.3-5.84,21.2-9.67.03.23-.12,1.28.02,2.55Z"/>
          <path class="cls-3" d="M298.89,434.13c.22-1.66,1.51-2.82,2.32-4.14,6.58,2.85,14.43,4.72,18.76,10.99-6.4-3.68-13.9-5.17-21.09-6.85Z"/>
          <g>
            <path class="cls-38" d="M262.19,391.95c.01,1.06-1.39,13.32-1.71,14.18-1.78,4.81-15.55,10.03-19.89,14.76-3.14-1.85-5.94-6.02-7.35-5.48.34-2.13.81-4.26,1.23-6.38,15.51,10.46-1.01.64,2.27-5.17,16.88,9.3,14.35,4.25-.45-1.61.12-.48.16-.99.28-1.47.08-.32.1-.66.19-.98.83-.7.63-1.35.87-1.87,5.8,1.25,11.29,5.02,17.74,5.7-12.69-8.6-18.63-2.18-9.7-11.79,18.67,14.65,13.33,7.28-.42-3.13q.3-2.23.6-4.47c2.06-2.41,2.44-1.56,3.51-2.38,2.49-1.92-2.42-4.68,10.35.46-.12-6.59,2.4,3.81,2.48,9.64Z"/>
            <path class="cls-3" d="M234.47,409.02c.03-.16.06-.33.09-.49.3-1.44,1.22-4.32,1.72-6.29,14.81,5.87,17.33,10.92.45,1.61-3.28,5.8,13.25,15.63-2.27,5.17Z"/>
            <path class="cls-15" d="M237.62,397.92c1.97-4.37,5.85-7.39,6.43-12.26.87-1.35,1.73-1.35,1.8-1.44q-.3,2.23-.6,4.47c13.75,10.41,19.09,17.78.42,3.13-8.93,9.61-2.99,3.19,9.7,11.79-6.45-.68-11.94-4.45-17.74-5.7Z"/>
            <path class="cls-15" d="M253.18,387.16c5.87,6.25,5.17,9.47-.39.69l.09-.49.29-.2Z"/>
          </g>
        </g>
        <path class="cls-51" d="M279.08,374.66c.14-1.05.26-2.1.35-3.07.09-.97.13-1.86.12-2.58,0,.72-.04,1.61-.12,2.58-.09.97-.21,2.02-.35,3.07-.09.7-.2,1.4-.3,2.07.1-.67.21-1.37.3-2.07Z"/>
        <g>
          <path class="cls-39" d="M313,427.55s-9,4-28.23-1.96c-1.33-.41-1.41-1.59-1.57-5.51,12.18,7.04,10.8-6.53,11.34-5.56-2.24-4.05,18.46,13.03,18.46,13.03Z"/>
          <path class="cls-24" d="M333.99,394.55c-11.52,13.85-24.59,15.79-37.18,15.8-.49,0-1.21.39-3.41.28,0-.03-.01-.06-.02-.09-3.8-.33-10.61-.17-14.39-1,.27,3.8,2,12,5,16,10,2,14.19,6,12.42-8,3.55,3.51,9.37,8.05,12.58,11,7.98-1.37,15.55-4.6,23.35-9.07.21-2.86,2.08-13.72,2.65-19.39.05-3.75-1.01-5.24-1.01-5.54Z"/>
        </g>
      </g>
    </g>
  </g>
</svg>