<?xml version="1.0" encoding="UTF-8"?>
<svg id="Layer_2" data-name="Layer 2" xmlns="http://www.w3.org/2000/svg" viewBox="0 0 353.12 579.99"><defs>
    <style>
      .cls-1, .cls-2 {
        fill: none;
      }

      .cls-3 {
        fill: #742e74;
      }

      .cls-4 {
        fill: #c45f41;
      }

      .cls-5 {
        fill: #2d0903;
      }

      .cls-6 {
        fill: #232323;
      }

      .cls-7 {
        fill: #facf38;
      }

      .cls-8 {
        fill: #491c48;
      }

      .cls-9 {
        fill: #3a310b;
      }

      .cls-10 {
        fill: #8e3226;
      }

      .cls-11 {
        fill: #f7b750;
      }

      .cls-12 {
        fill: #dac0dd;
      }

      .cls-13 {
        fill: #23110a;
      }

      .cls-14 {
        fill: #b14f3d;
      }

      .cls-15 {
        fill: #281a26;
      }

      .cls-16 {
        fill: #ec9927;
      }

      .cls-17 {
        fill: #f0935d;
      }

      .cls-18 {
        fill: #bdeded;
      }

      .cls-19 {
        fill: #c12e4b;
      }

      .cls-20 {
        fill: #f8ae89;
      }

      .cls-21 {
        fill: #f8edf9;
      }

      .cls-22 {
        fill: #a04394;
      }

      .cls-23 {
        fill: #fbfbfc;
      }

      .cls-24 {
        fill: #cc5637;
      }

      .cls-25 {
        fill: #fbbb29;
      }

      .cls-26 {
        fill: #fcf8e9;
      }

      .cls-27 {
        opacity: .2;
      }

      .cls-27, .cls-28 {
        fill: #7aebe9;
      }

      .cls-29 {
        fill: #ac4a30;
      }

      .cls-30 {
        fill: #c9892d;
      }

      .cls-31 {
        fill: #e6794d;
      }

      .cls-32 {
        fill: #27151d;
      }

      .cls-33 {
        fill: #903893;
      }

      .cls-34 {
        fill: #fffdff;
      }

      .cls-35 {
        fill: #61c6c1;
      }

      .cls-36 {
        fill: #661b6a;
      }

      .cls-37 {
        fill: #d7643c;
      }

      .cls-38 {
        fill: #4d3340;
      }

      .cls-39 {
        fill: #bfcbb8;
      }

      .cls-40 {
        fill: #95409b;
      }

      .cls-2 {
        stroke: #f8edf9;
        stroke-miterlimit: 10;
      }

      .cls-41 {
        fill: #353535;
      }

      .cls-42 {
        fill: #309c97;
      }

      .cls-43 {
        fill: #320532;
      }

      .cls-44 {
        fill: #1d121b;
      }
    </style>
  </defs>
  <g id="PERFORMING_ARTS" data-name="PERFORMING ARTS">
    <g>
      <g>
        <path class="cls-32" d="M81.75,358.36c-4.92,14.79-3.87,25.34-3.73,32.7.38,20.24,10.58,90.57,10.58,90.57l39.85.66-25.99-89.13s-2.56-6.7-5.9-14.34c-5.34-12.21-12.69-26.83-14.81-20.45Z"/>
        <path class="cls-38" d="M79.1,410.34c2.71-3.91,13.23,2.32,16.1-1.28,3.59-4.52.14-16.13-3.52-27.5-.8-1.93,5.5-.36,4.52-2.6-5.34-12.21-12.69-26.83-14.81-20.45-4.92,14.79-3.87,25.34-3.73,32.7.08,4.41.63,11.21,1.44,19.13Z"/>
        <g>
          <g>
            <path class="cls-11" d="M186.8,561.57c-17.25,1.58-91.19-26.61-87.03-9.82.25,1.01,4.19,17.73,8,21,7,6,43,8,67,7,14.33,0,54.02-11.14,55.03-16.18.97-4.82,1-6,2-12-14.1,5.2-30.06,8.63-45,10Z"/>
            <path class="cls-30" d="M160.1,579.99l-1.33-10.67s2.67,10.67,4,10.67h-2.67Z"/>
          </g>
          <g>
            <path class="cls-38" d="M230.13,425.46s1.63-13.71,1.62-13.37c.79.22,24.46-11.76,27.38-19.63.78-2.09,5-16,3.64-22.19-2.22-8.65-5.33-16.92-11.1-23.73-11.06-13.05-23.06-9.92-32-12.75-2.06,4.39-4.56,8.65-7.5,12.5-1.79,6.55-15.09,23.07-21.75,23.5-9.38.61-14.95-13.49-21.25-17.5.77,7.01-12.67-15.97-9.83-21.07-.53.21-6.43,6.16-9.65,9.4-3.25,3.26-19.51,27.41-21.27,27.68-.29.04-5.13-2.48-5.25-2.75-1.4-3.12-.03-30.67-2.75-32.25-.73-.42-3.62.87-3.25-1-2.02.38-10.27,1.21-10.27,1.21,0,0,.93,12.26,1.22,14.67,1.88,15.93-3.98,40.06-3.05,38.41-3.33,7.68-9.15,19.78-7.94,29.87,1.37,11.43,6.94,17.95,11,21,2.73,2.05,9,4,9,4,0,0,5.05,5.22-1,15-2.44,3.95-9.95,14.22-18.96,37.33-4.86,19.13-8.8,38.44-11.5,58-.3,2.14-.09,4.45-1,6.5,14.74,9.85,38.13,13.18,55.5,15,17.19,1.8,34.75,2.58,52,1,14.94-1.36,30.9-4.79,45-10,4.67-1.72,10.18-4.03,14.5-6.5-2.17-15.61-5.7-30.88-10-46-3.23-11.34-6.45-22.5-12-33-7.44-5.87-5.13-31.09-3.95-43.02l4.42-10.3Z"/>
            <path class="cls-36" d="M220.9,416.64c.04.06.06.13.09.21-.01-.17-.04-.24-.09-.21Z"/>
            <path class="cls-36" d="M220.99,416.86c.02.22,0,.59-.03,1.11.11-.46.12-.84.03-1.11Z"/>
          </g>
          <path class="cls-32" d="M228.82,477.22c-4.87-6.97-4.71-26.63-3.53-39.53,2.34-3.03,4.3-6.79,5.03-10.22.97-3.58,1.93-17.54-1.25-26.47-1.58.23-20.07.11-21.44-3.47-29.03-75.82-47.81-35.73-47.92-27.99-.78,50.31,24.2,48.28,24.21,48.49.14,2.7,5.04,42.85,23.52,47.79,10.03,2.69,17.97,23.1,20.85,29.06,7.48,15.45,16.24,62.78,15,67,.46-.1,6.78-3.39,10-5,2-1-2.74-48.58-24.47-79.67Z"/>
          <path class="cls-32" d="M122.25,442.54c5,0,10-3,10-3-6,3-16.04,1.67-16.04,1.67,0,0,.48.79.78,2.23.16.75.26,1.68.22,2.77-.12,3.34-1.54,8.12-3.96,12.33-4,6.95-7.14,12.93-9.58,17.88-2.76,4.78-4.86,10.17-6.12,13.6-.92,2.33-1.31,3.52-1.31,3.52-4.86,19.13-9.34,45.12-12.04,64.67,6.62,4.02,7,4,7,4,0,0-3.25-21.94,2.02-42.41,7.46-28.98,19.64-41.24,22.98-46.59,15-24,6.04-30.67,6.04-30.67Z"/>
          <path class="cls-32" d="M92.02,381.41s7,3,13-1c6.13-4.09-3,13-3,13,0,0-7.21,13.66-9.76,10.76-1.76-2,1.35-20.01-.24-22.76Z"/>
          <g>
            <path class="cls-32" d="M159.47,331.3c-.68,2.07-4.19,6.28-8.89,9.26-3.89,2.46-20.49,27.48-22.25,27.75-.29.04-5.13-2.48-5.25-2.75-1.4-3.12-.03-30.67-2.75-32.25-.73-.42-3.62.87-3.25-1,2.03-.15,3.94.87,6,.5-.58,8.83-.24,18.16,6.75,24.5.41,0,3.62-3.92,4.25-4.5,6.77-6.24,12.8-13.26,19.5-19.5.93-.87.77-1.23,1.45-2.35.19.17,4.16.17,4.44.33Z"/>
            <g>
              <path class="cls-34" d="M201.09,315.82c2.5,7.39,10.09,15.33,18.49,17.99-2.06,4.39-4.56,8.65-7.5,12.5-3.73,4.89-16.44,18.28-22.75,17.5-5.61-.69-23.98-26.03-26.75-32.5,10.69-3.61,21.25-9.81,28.51-18.49-.28-2.07-1.61-5.95-2-8,5.71.57,8.95,9.11,12,11Z"/>
              <path class="cls-21" d="M162.58,331.31c2.77,6.47,21.14,31.81,26.75,32.5,6.31.78,19.02-12.61,22.75-17.5-1.79,6.55-15.09,23.07-21.75,23.5-9.38.61-16.73-11.55-21.25-17.5-1.99-2.61-2.26-3.47-2.99-5.61-.43-1.28-.48-1.79-1-3-1.09-2.53-1.4-4.18-1.51-4.39-1.19-2.2-2.49-4.5-3-7,.11-.03-.48-.16,2-1Z"/>
            </g>
          </g>
        </g>
        <g>
          <path class="cls-32" d="M153.47,340.92s3.01,124.24,1.99,136.41c-1.81,21.75,3,95,3,95l2,1s-3.19-43.99-3.1-70.23c.1-29.77.55-88.11-.22-103-.48-9.41,0-60.46,0-60.46l-3.67,1.27Z"/>
          <path class="cls-25" d="M156.62,453.3c2.65.05,2.49,4.7.31,5.09-3.24.58-3.25-5.14-.31-5.09Z"/>
          <path class="cls-25" d="M156.34,478.25c2.65-.03,2.63,4.62.47,5.08-3.22.68-3.4-5.04-.47-5.08Z"/>
          <path class="cls-25" d="M156.88,431.89c2.65.11,2.38,4.75.2,5.1-3.25.51-3.13-5.21-.2-5.1Z"/>
          <path class="cls-25" d="M156.39,502.16c2.63-.31,3.1,4.32,1,5-3.13,1.02-3.92-4.65-1-5Z"/>
          <path class="cls-25" d="M156.39,522.16c2.63-.31,3.1,4.32,1,5-3.13,1.02-3.92-4.65-1-5Z"/>
          <path class="cls-25" d="M157.39,542.16c2.63-.31,3.1,4.32,1,5-3.13,1.02-3.92-4.65-1-5Z"/>
        </g>
      </g>
      <path class="cls-39" d="M191.72,574.85v2c-16.83,0-33.67,0-50.5,0q-.75-1.5-1.5-3c17.19,1.8,34.75,2.58,52,1Z"/>
      <g>
        <path class="cls-36" d="M68.2,351.84c-1.83,8.91.29,17.96,5.4,24.94,3.79,5.17,29.74,14.22,31.9,9.46,2.97-6.56,2.28-12.01,4.43-21.74,3.42-15.44,16.1-44.97,1.11-49.42-14.99-4.45-36.69,6.8-42.84,36.76Z"/>
        <path class="cls-25" d="M87.91,390.41c8.25,2.45,15.45,1.59,15.88-.33l1.71-3.83s-5.39,1.04-16.36-2.21c-11.15-3.31-14.87-6.51-14.87-6.51l-.79,3.56c-.43,1.92,3.99,6.23,14.43,9.32Z"/>
        <path class="cls-40" d="M88.67,381.79s4.85-2.7,11.68-23.82c2.93-9.06,5.85-28.79,8.56-41.64,0,0-11.1,18.74-17.53,37.68-3.28,9.66-4.19,18.12-2.71,27.78Z"/>
        <path class="cls-40" d="M78.56,378.01s2.31-16.68,9.7-32.98c4.51-9.94,10.44-19.34,15.24-28.74,0,0-29.03,13.48-24.94,61.72Z"/>
        <path class="cls-40" d="M73.5,372.58s-.55-12.04,1.42-21.75c1.2-5.92,4.83-14.91,7.26-20.45,0,0-17.99,17.01-8.68,42.21Z"/>
        <path class="cls-40" d="M95.61,383.46s8.49-13.78,13.11-31.38c2.82-10.73,4.29-22.23,6.57-32.81,0,0,12.55,33.01-19.68,64.19Z"/>
      </g>
      <g>
        <g>
          <path class="cls-12" d="M235.08,329.63c-.04,16.05-39.92,35.76-86.66,44.58-40.37,7.62-57.48-6.72-59.52-21.2-.18-1.3-1.14-9.58-.81-10.93,3.35-13.72,33.05-20.3,69.73-27.81,37.76-7.73,70.71-12.06,76.32.39.37.83.93,13.55.93,14.96Z"/>
          <polyline class="cls-2" points="90.79 358.05 89.71 347.23 93.49 360.38 93.85 351.95 98.66 365.73 100.93 355.35 104.3 368.51 107.25 357.43 109.21 370.44 112.13 358.25 114.87 371.7 117.31 358.04 120.54 373.05 123.35 359.07 126.43 373.22 129.21 358.64 131.61 372.19 133.25 358.75 136.3 372.17 137.41 359.01 140.09 371.84 141.88 358.35 145.35 371 146.8 357.68 150.04 370.19 151.28 357.17 154.38 369.24 156.31 356.34 159.86 368.09 160.86 355.08 164.63 366.67 165.44 354.27 169.88 365.54 170.64 352.1 174.99 363.81 176.12 351.1 179.41 362.11 180.42 349.26 183.64 361.47 184.97 347.85 189.27 358.53 189.37 345.86 193.03 357.61 194.69 343.82 197.2 355.48 199.33 341.82 202.63 353.43 204.95 338.73 208.46 351.84 211.13 335.31 214.07 347.64 215.48 332.28 218 345.42 219.42 330.31 222.04 341.81 222.87 327.47 225.46 338.52 225.87 325.09 228.23 336.3 228.64 322.73 230.65 338.22 230.03 320.43 232.04 331.36 232.21 317.8 233.95 327.84 234.11 315.35"/>
          <path class="cls-21" d="M234,312.86c.26,1.87.33,2.08.11,2.49-10.24,18.86-58.24,39.45-89.81,42.56-40.75,4.02-54.79-5.22-56.2-15.18-1.02-7.2,19.47-20.73,55.86-32.58,9.3-3.03,3.39,1.9,14.55-.38,40.29-8.25,74.09-6.86,75.49,3.1Z"/>
        </g>
        <path class="cls-31" d="M152.3,326.37s.08.11.14.19c5-1.49,9.92-3.65,14.58-6.35-4.65,2.63-9.58,4.72-14.72,6.16Z"/>
        <path class="cls-21" d="M180.5,310.29c-4.09,3.77-8.65,7.13-13.49,9.93,4.88-2.76,9.44-6.11,13.55-9.94-.02,0-.04,0-.06,0Z"/>
        <path class="cls-12" d="M194.45,314.08c-.58-1.11-2.26-1.74-4.7-1.95.28.94.55,1.89.8,2.82-5.51,6.34-13.83,2.53-22.5,6.2-2.78-.18-12.55,8.64-12.68,8.57-.26-.15-5.11.14-6.04-.74-.32.1-.65.21-.97.31-.97-.88-1.91-1.79-2.76-2.76-2.5,2.11-3.63,4.04-2.89,5.45.98,1.86,12.52,2.42,23.54-.36-.11.04,4.68-1.91,7.37-2.86,13.31-4.68,22.64-11.25,20.83-14.68Z"/>
        <path class="cls-31" d="M188.3,301.88c-2.35,2.99-43.49,9.63-43.49,9.63,0,0,.44,7.35.42,7.66-.18,3.14-.37,13.68.07,13.88,2.84,1.26,13.52.63,20.38-.69,4.5-.87,21.25-7.48,28.25-15.36-.16-1.16-4.96-12.74-5.63-15.12Z"/>
      </g>
      <g>
        <g>
          <path class="cls-24" d="M186.9,298.37c-9.09,11.59-21.81,20.53-36,24.5-2.36-3.08-5.37-5.97-6-10-.45-2.9.19-7.89.5-11,.07-.73.15-4.25.5-4.86,12.44,2.19,27.65-1.76,38.5-7.64,1.21,2.88,1.66,6.03,2.5,9Z"/>
          <path class="cls-31" d="M188.9,303.87c.39,2.05.72,4.18,1,6.25-7.26,8.67-18.31,15.14-29,18.75-2.48.84-1.89.97-2,1-.74.17-.36.73-2.5-.5-.28-.16-1.31-.83-1.5-1-.26-.22-3.39-4.71-4-5.5,14.19-3.97,26.91-12.91,36-24.5.67,2.38,1.94,5.17,2,5.5Z"/>
        </g>
        <g>
          <path class="cls-17" d="M217.67,200.86s-6.44-19.74-10.08-25.56c-4.81-7.69-19.05-20.76-27.72-23.4-8.71-2.65-26.18-2.64-36.4-.73,0,0-32.82,1.73-41.14,39.7-.94,4.3,3.47,25.35-1.5,42.9-.09.32-.14.65-.14.98v7.55c2.59,9.21,3.89,21.19,12.53,31.65,7.61,9.21,31.57,23.86,35.88,24.27,2.26.08,9.06-1.41,19.05-5.59,9.16-3.84,22.2-12.35,27.89-20.52,2.79-4.01,12.29-22.94,10.07-25.68,7.3-3.43,16.67-4.19,16.67-15.97,0-5.05-2.94-19.94-5.1-29.59ZM117.28,249.06c1.03.09,2.08.13,3.16.11-1.03.04-2.09,0-3.16-.11ZM174.08,246.04c.99.49,2.08.94,3.27,1.35-1.16-.38-2.25-.83-3.27-1.35Z"/>
          <path class="cls-37" d="M222.55,230.28c.06-.09,1.34-1.31-1.39-12.61-.8-3.84-2.6-12.74-2.6-12.74,0,0-.45-.64-1.11-1.37-.54-.59-1.23-1.23-1.8-1.71-7.14-5.96-20.51-5.64-24.33-5.66-8.48-.09-16.76,1.17-20.81,6.02-4.18,5.01-3.97,13.78-2.53,24.56.31,1.3,1.12,4,1.08,3.36-.1-1.67,1.06-6.72,2.37-9.57,2.25-4.92,4.62-8.13,10.93-10.58,15.64-6.05,31.83,20.59,32.55,21.79-1.8,6.6-5.1,12.32-11.07,14.7,3.89.67-5.67,21.3-8.64,25.56-5.68,8.17-18.56,15.97-27.72,19.8-9.98,4.18-16.68,6.28-18.99,6.23.17.06.07.12.64.16,15.33,1.15,24.21-2.52,37.43-10,19.85-11.23,20.3-13.57,30.24-32.4,1.1-2.09,1.09-4.53,2.88-6.84.38-.49,9.73-1.54.72-7.92,13.28-19.13,20.35-3.89,12.96,6.48-6.8,9.55-18.62-4.15-10.8,11.88,25.69,5.04,20.19-57.31,0-29.16Z"/>
          <path class="cls-29" d="M222.55,259.44c-2.56-.5-3.24-2.94-5.76-3.6,1.1-2.09,1.09-4.53,2.88-6.84.38-.49,9.73-1.54.72-7.92,13.28-19.13,20.35-3.89,12.96,6.48-6.8,9.55-18.62-4.15-10.8,11.88Z"/>
        </g>
        <path class="cls-20" d="M100.97,241.03c3.5,16.27,5.03,23.58,11.87,32.34,4.4,5.63,24.09,20.16,35.68,24.72-5.49-.09-34.05-16.97-40.23-24.75-6.68-8.4-8.31-18.44-8.47-25.05-.04-1.66.29-4.97.48-6.62.08-.68.39-2.73.39-2.73,0,0,.18,1.59.29,2.09Z"/>
        <path class="cls-31" d="M110.22,203.99c-1.88.06,1.36-4.44,2.23-6.28,1.06-2.92,1.12-6.36,2-9.25,6.04-19.79,23.82-27.78,10.5-24.25-10.51,2.79-20.82,35.08-21.94,44.67,0,.01.18,6.15.18,6.15,2.51-3.22,3.62-4.22,7.97-6.63,8.46-4.67,18.39-1.27,22.4,9.26.04.12,2.35,10.41,2.39,11.24.02.42.04-9.38.19-10.88-.96-13.22-15.39-14.39-25.92-14.04Z"/>
        <g>
          <path class="cls-31" d="M100.71,239.33c-10.31,3.67-5.4,11.06-2.85,18.16-12.38-9.8-7.4-25.37-2.57-25.81.6-.05,2.57-.04,3.82.89,1.15.86,1.63,1.73,1.63,1.73,0,0,0,3.37-.04,5.02Z"/>
          <path class="cls-37" d="M98.58,234.45c.86-.04,2.13,1.32,2.1,4.07-.03,2.31-.95,7.35-.78,11.64,0,0,.48,5.68,1.6,9.55-1.36-.54-2.49-1.3-3.64-2.21-2.55-7.1-9.59-19.37.72-23.04Z"/>
        </g>
        <g>
          <path class="cls-15" d="M293.78,252.93c-.14-.13-.31-.32-.48-.48-.31-18.33-12.21-12.48-19.34-17.19-4.6-3.04-7.83-19.38,14.08-18.38,5.56,7.95-13.96,6.35-11.94,10.5.48.99,15.1,6.07,17.19,8.59,3,3.63,2.98,13.91.48,16.95Z"/>
          <path class="cls-44" d="M46.96,236.7c-.77,1.33-4.97,3.92-3.34,11.94-5.77-2.09-14.97-2.67-13.84-10.74,1.81-13.02,15.73-1.17,17.19-1.19Z"/>
          <path class="cls-44" d="M59.37,219.03q.48,4.42.95,8.83-6.68,4.42-13.37,8.83c.54-.92,2.18-2.06,2.39-2.63,2-5.39-4.36-9.36-3.82-14.8q6.92-.12,13.84-.24Z"/>
          <path class="cls-44" d="M300.94,184.18c-4.37-2.21-5.02-1.55-9.55-2.63,2.76-7.37,4.11-10.61,0-17.43-.52-.4-.64-.5,0,0-3.84-6.37-10.77-9.34-17.9-6.21-2.75-.54.94-5.86-9.79-11.7,8.37-15.47-11.31-28.07-21.24-13.61-17.61-19.8-42.25-28.58-66.84-15.28-16.73-18.96-48.35-16.68-65.64.24-1.68,1.64.06,3.99-12.65,9.31-1.97.09-9.93-10.8-21.24-1.43,0,0,0,0,0,0-2.89,2.39-5.59,6.4-5.73,10.26-.03.76,1.65,8.46,1.91,8.83-1.18.2-2.31.87-3.34,1.43-7.68,4.19-5.16,3.47-8.83,10.98-18.35-1.5-25.18,16.33-12.17,28.88-2.57.83-5.11,1.11-7.64,2.15-1.99.82-3.19,1.37-4.77,2.86-9.07,8.54-4.83,20.54,5.73,25.06.64,1.79-3.89,4.36,0,13.37-18.05-2.07-24.49,18.34-7.64,26.26-3.6,8.83,2.84,20.44,12.65,16.95,7.94,7.76-1.98,7.84-.24,18.86,1.36,8.6,13.51,14.07,20.77,8.83,10.25,4.27,5.3,4.94,8.83,9.79,4.51,6.19,15.68,5.61,20.77.24,1.38.31.67,13.47,19.1,10.98,4.44-7.84,5.94-2.38,12.89-5.73,5.18-2.5,5.11-9.42,10.26-4.77,2.74-3.89,3.15-8.08,6.93-11.28.07-.7.14-1.4.21-1.99-6.38-2.21-25.4-13.42-31.26-18.43-9.34-7.98-13.33-20.37-13.01-19.3-1.36-.54-2.49-1.3-3.64-2.21-12.38-9.8-7.4-25.37-2.57-25.81.6-.05,2.57-.04,3.82.89,1.13.85,1.61,1.7,1.63,1.73.9-3.64,1.92-8.38,2.1-11.67.91-5.89.92-15.31.93-15.49.51-7.83,10.9-38.47,20.04-42.53,5.38-2.39,10.25,1.5,16.95-8.12,21.88,12.34,30.33-2.24,31.99-2.86,6.58-2.47,8.32,5.19,8.83,5.49,13.69,7.91,27,21.42,30.54,26.98.47.73,2.46,5.84,3.64,9.46,3.7,11.31,6.79,34.73,6.79,34.73,0,0,3.9-5.64,7.37-6.78-.07-.05,3.66-1.35,6.46,1.78,5.22,5.85,4.58,25.77-3.74,31.97-4.96,3.7-10.25,2.94-13.43,0-1.22-1.12-2.42-1.4-2.42-1.4,0,0-.35.73-1,1.91-1.55,2.8-5.42,11.17-9.33,15.71-7.98,9.27-15.7,11.85-22.05,15.97.87,3.22,1.58,5.68,2.38,8.52.64,2.27,1.85,4.93,1.91,5.25,5.45.54,7.16,3.77,10.08,5.58.54.34,3.43.86,4.54.95,6.7,13.18,24.45,10.16,28.64-3.82,9.21,9.72,23.29,11.63,27.21-3.82,7.01.07,11.98.74,16.71-5.25,17.53,1.89,24.17-15.7,11.7-27.45l5.97-7.88c5.9,1.47,11.45.11,14.56-5.25,3.95-6.8,2.04-13.9-4.3-18.38,1.49-16.72-7.49-16.8-8.12-17.66-2.99-4.15,5.51-3.75,10.03-9.07,6.81-8.02,4.79-22.13-4.77-26.97"/>
          <path class="cls-15" d="M53.16,256.27c-.27.1-1.5,1.75-5.01,2.86-.56-.14-4.42-9.94-4.54-10.5-1.63-8.01,2.57-10.6,3.34-11.94q6.68-4.42,13.37-8.83-.48-4.42-.95-8.83c.1-2.73-8.04-6.86-13.37-10.5-2.1-4.42-1.05-9.85,1.91-13.84,8.45-3.78,19.02-1.63,19.1-7.88,0-.5-2.12-5.75-2.39-9.79-.72-10.74,14.06-12.77,15.28-14.08.5-.54,1.74-5.63,1.91-6.92,1.36-2.12,3.22-3.78,4.77-5.73,2.19-2.75,3.56-.4,1.91-8.83,15.43-17.14,14.53-10.69,36.04-7.88,3.21-.75,3.19-14.58,10.03-15.75,9.57-1.64,12.02,10.31,8.12,13.37-3.67,2.88-3.2-2.58-6.68-7.64-3.78,22.62-17.69,15.12-34.85,12.89-8.46,5.82-4.47,10.16-5.49,13.13-.28.81-7.63,7.08-8.12,8.12-3,6.43,5.2,5.22-16.71,16.71-2.36,5.97,9.05,16.27-6.92,23.15-4.57,1.97-16.64,2.16-13.37,6.21,2.66,3.28,15.27,6.03,15.99,17.43,1.43,22.72-26.97,10.24-13.37,35.09Z"/>
          <g>
            <g>
              <path class="cls-15" d="M188.03,119.26c12.02-1.13,20.75,19.49,43.44,11.94,11.03,14.64,20.32,10.14,15.52,27.93,2.48,1.22,11.9,9.52,12.65,9.79,5.27,1.89,20.78-2.81,15.99,16.47,4.52,1.56,20.47,7.85,22.44,11.46,2.26,4.16.7,12.42-4.06,14.08-11.08,3.87-.82-9.16-1.19-10.74-11.93-10.93-28.55-.8-21.96-23.39l-12.65-1.19c-8.03-10.55-12.63-7.74-15.52-11.22-7.65-9.25,11.94-21.6-18.86-17.43q-1.19-4.06-2.39-8.12c-11.72.38-21.94-6.33-31.03-12.89-4.05-.29-16.38,7.73-13.61-.72.59-1.81,9.15-5.77,11.22-5.97Z"/>
              <path class="cls-43" d="M232.91,136.92c2.95-.22-2.46,2.06-3.34,2.39-11.48,4.18-3.32-1.9,3.34-2.39Z"/>
            </g>
            <path class="cls-1" d="M134.56,117.82c-6.84,1.17-6.82,15.01-10.03,15.75-21.51-2.82-20.61-9.27-36.04,7.88,1.65,8.43.28,6.08-1.91,8.83-1.55,1.95-3.41,3.61-4.77,5.73h0c-.17,1.29-1.41,6.38-1.91,6.92-1.22,1.32-16,3.34-15.28,14.08.27,4.04,2.39,9.28,2.39,9.79-.07,6.25-10.64,4.1-19.1,7.88-2.96,3.99-4.01,9.42-1.91,13.84,5.33,3.64,13.47,7.78,13.37,10.5q-6.92.12-13.84.24c-.54,5.44,5.82,9.41,3.82,14.8-.21.57-1.85,1.7-2.39,2.63-1.46.02-15.38-11.82-17.19,1.19-1.12,8.08,8.08,8.65,13.84,10.74.11.56,3.98,10.36,4.54,10.5,3.52-1.11,4.74-2.77,5.01-2.86-13.6-24.85,14.8-12.37,13.37-35.09-.72-11.4-13.34-14.14-15.99-17.43-3.27-4.05,8.8-4.24,13.37-6.21,15.97-6.89,4.57-17.19,6.92-23.15,21.91-11.49,13.71-10.28,16.71-16.71.48-1.03,7.84-7.31,8.12-8.12,1.03-2.97-2.97-7.31,5.49-13.13,17.16,2.23,31.07,9.73,34.85-12.89,3.48,5.05,3.01,10.51,6.68,7.64,3.9-3.06,1.45-15.01-8.12-13.37Z"/>
            <path class="cls-1" d="M276.11,227.39c-2.02-4.15,17.5-2.56,11.94-10.5-21.91-.99-18.69,15.34-14.08,18.38,7.12,4.71,19.02-1.14,19.34,17.19.17.16.33.34.48.48,2.5-3.03,2.52-13.32-.48-16.95-2.09-2.52-16.71-7.61-17.19-8.59Z"/>
          </g>
        </g>
        <g>
          <path class="cls-26" d="M135.03,225.71c-.5-1.47-1.36-5.17-5.73-9.43-2.82-2.75-5.81-4.38-7.96-4.74-1.44-.2-2.74-.16-3.92.02-2.25-.1-5.68,1.45-7.92,3.23-5.87,4.68-4.57,12.46,1.08,15.84.25.15.53.29.82.43,3.24,1.76,5.75,1.8,9.2,1.91,0,0,6.24.41,14.03-2.74.47-.19,1.41-.71,1.41-.71,0,0-.22-2.03-1.01-3.82Z"/>
          <path d="M103.65,211.57c2.64,2.22,6.39-6.16,17.05-5.19,8.72.79,15.56,12.06,15.24,22.28-1.16-2.08-2.23-5.18-2.57-5.54-.05-.06-.18.02-1.29-.86,1.16-4.03-6.96-10.25-10.73-10.73-6.55-.85-10.77,2.43-13.74,7.73-.14.25-.58,1.17-.86,2.15-1.13,3.97,1.02,7.74,4.65,9.65-.74,0-3.81-1.99-4.23-2.35-4.02-3.43-7.61-12.5-7.56-18.15-.1-1.1.31-4.58.83-3.19.99,2.65,2.45,3.56,3.2,4.2Z"/>
          <path d="M120.37,224.44c1.9-.49,2.53-3.14,2.21-4.87,11.2-1.45,3.91,16.24-2.21,4.87Z"/>
          <path class="cls-9" d="M133.38,224.09c0-.2-.04-.38-.05-.58,0-.14,0-.27,0-.41,0,0-.02-.02-.04-.02-.84-6.6-8.39-11.1-11.98-11.57-.36,1.44-2.68,2.49-3.43,3.86-.15.27-.81,2.12,0,2.15,2.03-.08,2.65.33,3.43.43.07.43,1.27,1.61,1.29,1.72,10.87-1.4,3.79,15.75-2.15,4.72-2.27.58-4.3-1.57-4.72-.64.81,3.73,1.27,6.93,4.72,8.8,1.25.67,3.25.49,7.72-.31,3.74-.67,4.99-4.57,5.14-8.2.02.01.05.04.06.05Z"/>
          <path class="cls-26" d="M185.18,214.68c.9-.18,3.78-.53,5.05-.47,2.94.16,5.9,2.18,5.9,2.18,7.28,5.07,10.16,9.31,3.22,16.31-.69.31-2.85,1.25-3.01,1.29-5.74,1.41-21.22,1.35-27.05-2-.02,0-.03-.02-.05-.03-.3-.17-.26-2.91.05-3.98,3.45-6.78,7.95-12.16,15.89-13.31Z"/>
          <g>
            <path d="M205.35,218.55c2.17,1.76,3.7.7,5.24-1.17.9-.99.81-1.56,1.05-1.23.27.39.27,1.84-.33,3.75-1.37,4.31-5.27,9.83-11.96,12.82,6.94-7.01,4.06-11.25-3.22-16.31,0,0-1.92-1.42-5.58-2.15-1.82-.36-3.59.17-5.37.43-7.94,1.15-12.44,6.53-15.89,13.31,1.51-13.76,12.07-22.65,26.4-17.6,5.73,2.02,8.22,6.99,9.66,8.16Z"/>
            <path class="cls-9" d="M198.49,222.84c-.19-2.4-3.14-7.78-7.94-8.59-1.83-.31-3.59.17-5.37.43-4.27,6.01-2.22,3.07,1.5,4.29.41.13,1.13.82,1.5,1.29.24.3,1.52.19,3.86.86,4.97,5.8-3.02,11.68-6.44,4.72-1.91.28-4.19-1.74-4.29-1.5.28,14.31,18.69,12.68,17.17-1.5Z"/>
            <path d="M192.04,221.12c4.97,5.8-3.02,11.68-6.44,4.72,2.32-.34,3.84-3.51,2.58-5.58,1.66-.19,2.83-.01,3.86.86Z"/>
          </g>
        </g>
        <path class="cls-4" d="M229.51,254.67l1,2c1,2-3,3-3,3-1.16.37-2,1-3,0l1-5c1-2,3.66-.46,4,0Z"/>
        <g>
          <path class="cls-18" d="M230.51,262.67c0-2,0-5-1-6s-1.79-2.03-3-1c-.85.72-1.85,4.6-2,7-.05.8.36,3.41,1.05,3.95,1.97,1.52,3.28,1.28,3.96.21,1.99-3.16.99-2.77.99-4.16Z"/>
          <path class="cls-28" d="M231.06,261.87c-.22-2.79-.45-4.83-1.55-5.2-3-1-1,3-4,5-1.18.78-.56,3.32,0,4,3.39,4.13,5.76-1.04,5.55-3.8Z"/>
        </g>
        <g>
          <path d="M102.25,197.49c-.32-.04-.57-.26-.4-.54,1.23-1.98,4.66-7.32,6.9-8.78,2.26-1.48,9.41-4.96,14.55-3.99,4.03.76,4.14,4.49,4.17,6.11,0,.03-.02.06-.05.08-2.65,1.53-4.4.39-8.93.03-1.75-.14-3.24-.01-4.87.46-2.57.74-4.87,2.4-7.04,4.87-.66.75-2.7,1.96-4.34,1.76Z"/>
          <path d="M202.39,190.31c.11.55,2.3,3.22,2.88,5.4l-1.08,1.08c-14.83-10.29-26.1-.3-29.16-7.2,2.55-2.21,3.17-11.87,27.36.72Z"/>
        </g>
        <g>
          <path class="cls-24" d="M161.36,247.02c1.79,8-20.24,11.31-20.88,2.16,5.6,5.57,14.97,2.25,20.88-2.16Z"/>
          <g>
            <path class="cls-19" d="M179.72,253.5c2.64.26,5.03,1.58,6.12,3.96-8.51.6-12.2,25.11-29.16,27.72-25.18,3.88-14.91-25.59-27.72-19.8.7-9.31,39.85-.3,54.01-8.64l-3.24-3.24Z"/>
            <path class="cls-23" d="M174.68,262.14c4.44-.62-4.85,8.34-6.48,9.36-9.07,5.7-30.73,7.42-30.24-4.32,15.16,3.57,34.64-4.75,36.73-5.04Z"/>
          </g>
          <path class="cls-20" d="M145.16,243.42c2.21,1.67,5.3,2.24,5.4,2.52,1.58,4.52-6.69,4.93-5.4-2.52Z"/>
        </g>
        <g>
          <path class="cls-27" d="M141.67,216.7c0,15.74-15.3,27-28,27s-19-10.26-19-26,9.3-22,22-22,25,5.26,25,21Z"/>
          <path class="cls-27" d="M220.67,217.89c0,22.81-17.9,29.81-32.77,29.81s-22.23-11.33-22.23-28.71c0-20.29,10.88-24.29,25.74-24.29,19.26,0,29.26,5.81,29.26,23.19Z"/>
          <g>
            <path d="M225.67,226.7c4.16-9.68-4.33-20.72-5.73-23.8-2.17-4.77-6.05-8.24-9.27-9.2-2-.6-6-1-13-1-6,0-29-3-34.5,13.71-7.21-3.06-12.58-2.59-20-1-1.5-2.71-5.52-11.66-20.5-12.71-1.93-.13-9.16-.71-16,1-8,2-7.86,2.86-10,5-2.22,2.22-4.6,9.78-5,18-.35,7.04,2,17,3,19,.63,1.26,3,6,5.75,7.46,8.64,4.97,15.01,4.96,21.25,4.54,15-1,26.35-18.47,26-32.79,21.23-1.93,7.52,3.43,18.25,22.75,2.56,4.62,9.75,11.04,16.75,13.04,4.9,1.4,14.82,1.78,23-2,13-6,17.7-16.64,20-22ZM139.42,219.41c-.26,7.54-3.33,13.47-8.14,17.34-6.18,4.97-15.23,6.52-24.86,3.66-5.75-1.71-7.78-6.29-8.75-8.71-4-10,0-24,1-27,1.92-5.77,10.39-7.67,16-8,8.61-.51,17.34.25,21.75,8.71,2.09,4,3.16,9.45,3,14ZM172.42,237.66c-3.52-4.73-5.36-13.94-5.5-19.75-.37-15.93,5.18-19.09,20-20.5,5.57-.53,11.46-.87,17,0,.81.13,2.43.35,3,.5,2.12.56,4.25,1.34,5.79,2.84.47.46,4.36,5.98,5.96,16.95.49,3.39,0,8-1.72,12.65-.01.02-.02.03-.04.05-8.92,20.35-36.11,18.5-44.5,7.25Z"/>
            <path class="cls-41" d="M239.38,211.93c-.51-.71-12.85-7.97-15.03-8.89-2.45-1.04-4.78-2.3-5.2-1.97.57,2.38,7.75,12.97,7.56,18.78-.03.91,1.94,1.11,1.94,1.11l.1-.78c9.11.38,12.15-1.51,15.04.62-.21-1.64-3.59-7.73-4.4-8.87Z"/>
            <g>
              <path class="cls-6" d="M92.98,207.44q-5,2.25-10,4.5c-.53-1.11-2.64-9.66-1.25-10.5,22.79-3.44,17.71-10.26,11.25,6Z"/>
              <path d="M92.98,207.44q-.62,5-1.25,10c-3.24-2.09-6.93-1.68-8.75-5.5q5-2.25,10-4.5Z"/>
            </g>
            <path d="M237.9,227.36c.37-.18,4.84-5.6,5.88-6.56-2.73-2.01-5.98-.95-13.59-.61-9.56-.34-10.25-3.54-10.25-3.54l.63,3.1c-.08.54.19,2.49.46,4.47l4.41,2.9c3.7-3.78,5.28-4.79,9.33-3.29,2.07,1.2,2.74,2.94,3.13,3.54Z"/>
          </g>
        </g>
      </g>
      <g>
        <g>
          <g>
            <path class="cls-28" d="M87.52,385.47c-1.93-2.78-4.63-3.26-8.15-4.24-15.13-4.26-33.59-1.69-47.42,5.38-17.78,9.09-30.24,31.13-30.24,31.13-1.19,2.17-2.47,6.45-1.15,8.78.34.67,11.67,21.27,16.82,29.45.51.81.98,1.77,1.5,2.57,3.77,5.84,8.7,14.12,13.46,18.98.99,1.01,2.15,2.04,3.22,2.97,1.26,1.1,4.98,4.46,7.24,6.68-1.87-1.84,16.93,12.75,18.45,13.23,8.88,2.85,15.01,2.53,16.43,2.88,15.79,3.79,23.12-6.6,28.18-19.56,5.7-14.58,6.01-33.28,2.09-48.41-2.97-11.48-13.9-40.46-20.42-49.84Z"/>
            <g>
              <path class="cls-35" d="M87.48,385.4l3.67,22.45c-12.7,3.39-12.48,2.52-13.77,2.79-6.83,1.41-14.8-2.47-17.62-4.31-3.08-2.01,10.16,38.07,23.34,60.22-4.54.95-8.94,4.23-11.93,7.18-5.36-14.05-29.33-55.84-32.61-53.43-2.02,1.49,1.23,7.49-3.98,10.28-.57.31-.78,1.68-3.92,7.2-1.07,1.89-14.13,8.09-14.1,8.2.51,2.31,13.12,20.64,15.34,23.51,4.92,6.39,10.96,11.52,16.86,16.91,1.66,1.34,12.06,8.87,15.56,10.28,7,1.07,14.93,3.34,22.17,1.61,17.37-4.16,20.89-30.71,21.72-45.63l-.31-17.41c-2.97-11.48-13.9-40.46-20.42-49.84Z"/>
              <path d="M82.27,430.29c-2.72.92-12.66,1.96-15.7-10.35,2.91,1.37,5.27,3.22,10.97,3.32,4.37.08,10.31-2.85,16.27-6.45.92,5.38-6.13,11.65-11.53,13.48Z"/>
              <path d="M46.52,446.82c-4.16,7.4-12.59,9.36-20.13,6.35,10.89-4.37,16.06-9.16,16.88-21.29,4.12,3.21,5.98,10.09,3.26,14.94Z"/>
              <path class="cls-42" d="M92.44,479.39c-7.42-1.11-12.09,2.46-16.09,8-.31.44.29,1.14.69.8,4.52-3.86,9.73-6.43,15.6-7.79.48-.11.31-.94-.2-1.01Z"/>
            </g>
            <path class="cls-5" d="M68.47,466.05c2.35-2.3,8.2-6.58,15.19-5.97,6.99.61,15.12,6.12,17.34,8.27,1.41,1.35.62,3.15-1.6,3.22-5.22.16-12.46,1.06-16.28,2.63-4.98,2.05-9.62,6.04-15.94,14.49-2.8,3.74-4.13,2.61-4.38,1.48-1.89-8.61.48-19.04,5.67-24.12Z"/>
          </g>
          <path class="cls-42" d="M34.8,436.41c3.09-7.04,2.68-7.22,3.77-16.11.04-.35-.43-.52-.6-.2-1.49,2.82-3.89,16.7-16.7,22.37-1.58.7-3.54,1.15-4.71,2.58-.46.56-.06,1.41.66,1.38,6.41-.2,15.08-4.29,17.59-10.02Z"/>
          <path class="cls-42" d="M91.21,408.43c.4-.48.38-1.17-.24-1.26-9.71-1.53-16.25,8.01-31.36-1.31-2.14-.32,4.42,6.08,10.13,7.43,5.67,1.33,18.09-.79,21.47-4.86Z"/>
        </g>
        <g>
          <path class="cls-31" d="M58.85,494.75c2.78-1.26,13.19-12.34,15.39-6.21,1.66,4.62-15.23,15.79-19.27,17.2,12.33-2.59,19.65-13.65,20.88-14.28,3.84-1.97,7.75-.98,6.9,3.23-1.1,5.46-14.02,13.27-22.32,18.33-4.61,2.82-9.14-4.79-12.15-7.97-1.87-3.73-8.29-16.85-5.7-18.13,4.41,3.1,8.74,6.3,13.29,9.21.95-.58,1.99-.92,2.99-1.37Z"/>
          <path class="cls-31" d="M86.14,502.5c.35-.4.84-.64,1.37-.68,1.24-.09,2.37.95,1.03,4.26-.61,1.51-1.48,3.93-3.06,6.35-1.04,1.6-4.89,6.31-7.97,8.6-4.66,3.46-11,2.63-12.39-.71-3.27-7.88,15.13-10.95,21.02-17.82Z"/>
          <path class="cls-31" d="M86.46,496.75c1.08,1.86.52,3.8.62,3.98-2.05,4.12-19.25,18.55-22.34,18.75-2.43.15-8.02-2.15-7.6-4.71,1.1-.29,16.39-9.74,18.5-11.29,5.41-3.98,6.52-9.31,10.82-6.73Z"/>
          <path class="cls-10" d="M64.61,519.18c-2.41.15-6.99-1.73-6.64-4.28.37.35,15.63-9.93,17.66-11.43,5.41-3.98,6.52-9.31,10.82-6.73-1.41-2.3-4.21-.37-4.21-.37,0,0,.59-1.24.5-1.69-.99,4.91-19.48,16.19-24.01,18.52-4.39-.14-7.79-5.33-10.47-8.15,4.45,8.88,9.08,12.97,18.4,17.1.06-.06.08-.15.09-.24,0,.07,0,.15-.09.24,1.88.83,3.43,2.82,5.91,2.47,8.97-1.27,13.37-12.98,13.37-12.98,0,0-1.36,2.03-2.17,3-.5.61-10.91,12.01-17.07,6.76-.2-.76-.76-1.75-.31-1.98,11.62-5.87,21.15-17.8,20.68-18.7-2.05,4.12-19.38,18.25-22.46,18.45Z"/>
        </g>
      </g>
      <path class="cls-25" d="M156.34,385.5c-3.13,1.02-3.92-4.65-1-5,2.63-.31,3.1,4.32,1,5"/>
      <path class="cls-25" d="M156.75,414.32c-3.16,1.03-3.92-4.65-1-5,2.63-.31,3.1,4.32,1,5"/>
      <g>
        <path class="cls-12" d="M235.19,434c.82.2-4.07,3.15-9.75,5.28-5.68,2.13-12.55,5.15-12.85,4.36s6.1-5.08,11.78-7.21c4.36-1.63,8.25-2.47,9.95-2.5.51,0,.5-.02.86.07Z"/>
        <g>
          <g>
            <path class="cls-32" d="M295.86,484.76c-23.94,22.23-61.44-24.55-74.16-45.34-2.03.95-4.06,1.78-6.24,2.3.27.63.55,1.27.86,1.96,1.58,3.53,13.49,25.97,15.56,29.24,7.71,12.21,26.8,29.02,42.48,33.74,13.43,4.05,20.41-10.82,22.07-14.89,1.85-4.53-3.71-1.78-.56-7.01Z"/>
            <path class="cls-38" d="M297.36,452.81s0,0-.01,0c-7.34-33.31-16.53-58.84-21.23-71.1-.46-1.21-23.12,10.38-22.25,21.08-3.81,10.77-11.55,11.36-11.27,14.61.03.38,2.58,4.13,2.55,14.01,0,1.02,1.06,6.08,1.31,7.12.79,3.3,2.66,7.06,3.01,8.56,0,0,0,.01.01.02-4.38-3.46-8.75-6.93-13.04-10.56-.17-.15-2.94-.6-5.47-3.98-1.34.62-9.82,4.95-9.77,6.05,10.32,17.18,39.4,62.08,62.66,60.36,4.31-.32,8.77-3.69,12.56-7.2,6.26-16.55,3.53-31.43.94-38.97Z"/>
          </g>
          <g>
            <path class="cls-38" d="M276.63,383.26c-2.22-8.65-5.34-16.93-11.11-23.74-7.24-8.54-26.02-12.4-26.02-12.4l-.26.72s-13.69,34.81-5.93,48.21c4.39,7.58,7.04,14.75,7.42,16.51.4.93,3.35,6.44,3.22,12.32,1.01,2.25,1.9,8.77,4.33,15.68,1.01-.38,7.47-2.26,8.71-3.46,6.07-5.88,13.6-25.14,16.01-31.63.78-2.09,5-16.01,3.64-22.2Z"/>
            <path class="cls-38" d="M298.46,457.67c-7.49-35.69-17.35-63.12-22.28-75.97-.46-1.21-23.12,10.38-22.25,21.08-3.81,10.77-11.55,11.36-11.27,14.61.03.38,2.58,4.13,2.55,14.01,0,1.02,1.06,6.08,1.31,7.12.79,3.3,2.66,7.06,3.01,8.56.01.13,53.56,76.03,48.92,10.59Z"/>
          </g>
          <g>
            <path class="cls-36" d="M292.22,365.34c2.08,11.11-1.41,22.11-9,30.33-5.63,6.1-38.59,11.77-45.48,9.36-11.7-4.11-20.41-11.64-22.9-23.77-3.96-19.27-2.31-59.89,19.06-64.29,21.37-4.4,51.33,11.03,58.33,48.37Z"/>
            <path class="cls-25" d="M262.28,411.43c-11.76,2.42-21.87.85-22.36-1.56l-.91-4.44s6.25,1.27,21.9-1.95c15.9-3.27,21.31-6.94,21.31-6.94l.91,4.44c.49,2.4-5.97,7.38-20.86,10.45Z"/>
            <path class="cls-40" d="M261.7,400.76s-6.69-3.67-15.13-30.19c-3.62-11.37-6.64-35.89-9.74-51.91,0,0,14.59,23.88,22.61,47.68,4.09,12.14,4.89,22.62,2.27,34.42Z"/>
            <path class="cls-40" d="M276.16,396.83s-2.32-20.72-11.83-41.33c-5.8-12.57-13.64-24.58-19.88-36.51,0,0,40.16,18.7,31.71,77.84Z"/>
            <path class="cls-40" d="M283.59,390.5s1.45-14.79-.78-26.9c-1.36-7.38-5.97-18.71-9.1-25.72,0,0,24.4,22.26,9.88,52.62Z"/>
            <g>
              <path class="cls-40" d="M251.82,402.31s-11.2-17.59-16.73-39.61c-3.37-13.42-4.8-27.69-7.43-40.9,0,0-19.53,39.76,24.16,80.5Z"/>
              <path class="cls-40" d="M239.5,403.59s-9.72-11.24-14.89-22.42c-3.15-6.81-5.92-18.73-7.41-26.26,0,0-7.08,32.26,22.3,48.68Z"/>
            </g>
          </g>
          <g>
            <g>
              <g>
                <path class="cls-4" d="M215.57,445.08l7.16-1.25c-1.3-1.39-2.49-2.7-3.54-3.91-.24-1.08,9.47-5.93,10.68-6.78,4.28-2.96,7.33-5,10.96-8.89,3.15-3.37,4.3-8.35,5.65-10.7,3.87-6.73,3.05-13.3,3.81-15.36.69-1.88-8.94-8.09-12.81-8.48-4.06-.41,11.76,14.69,11.01,14.82-.3,1.02-5.25,12.32-5.81,13.05-3.12,4.07-17.81,5.01-23.36,8.24-2.46-2.69-3.9-7.5-5.4-7.41-6.41,12.98-6.74,15.29.98,26.81.22-.06.44-.11.67-.15Z"/>
                <g>
                  <path class="cls-4" d="M216.97,412.68c.08-.15.15-.3.23-.44.71-1.28,2.44-3.77,3.49-5.5,12.42,9.97,13.34,15.54-.04,1.68-4.84,4.58,8.05,18.84-3.69,4.27Z"/>
                  <path class="cls-14" d="M241.3,397.3c3.77,7.71,2.15,10.57-.57.54l.23-.44.34-.1Z"/>
                </g>
              </g>
              <path class="cls-31" d="M234.95,435.88c-.37-.21-.74-.41-1.1-.63-.19-.11-.06.2-3.13-2.7-1.22.84-11.76,6.28-11.52,7.36.93,1.07,1.97,2.26,3.12,3.54,4.81-1.29,8.83-4.37,12.64-7.58Z"/>
            </g>
            <g>
              <path class="cls-7" d="M247.82,317.76c-.81-.88-2.58-2.77-3.38-3.47-4.65-4.06-11.32-8.07-17-10.49-18.21-7.78-55.45-7.39-68.16,9.9,0,0,0,0,0,0,0,0-1.67,3.76-2.03,5.36,0,0,0,0,0,0-5.08,30.08-4.32,75.08,18.34,98.13.16.16.33.35.48.5,2.85,2.79,12.58,10.1,16.26,10.49,3.42.35,13.88-3.75,16.96-5.66,1.25-.77,10.96-7.13,10.96-7.13.06-2.06,3.72-9.78,3.94-10.05.33-.41-.85-1.6.04-2.94,1.99-3.01,7.6-4.75,8.4-6.01.09-.14.09-2.3.53-2.93,1.68-2.47.99-3.82,4.33-3.73.23-2.93,9.73-27.87,9.78-27.91,1.12-8.97,3.22-17.89,4.26-26.87,1.2-10.34,3.44-9.44-3.7-17.18Z"/>
              <g>
                <path class="cls-25" d="M251.52,334.94c-1.04,8.97-3.14,17.9-4.26,26.87-.04.04-4.84,22.83-9.53,28.55-3.34-.09-2.9.63-4.58,3.09-.43.63-.44,2.79-.53,2.93-.8,1.26-6.4,3-8.4,6.01-.89,1.34.29,2.53-.04,2.94-.22.28-4.24.85-5.92,3.6-1.01,1.65-.96,1.35-1.02,3.41-17.06,13-29.26,13.92-43.03-3.73-14.47-18.54-14.46-41.83-14.36-64.3.54-.23,1.86-1.62,1.98-1.69,12.92-7.46,22.94-6.44,31.25,6.27,2.91,4.45,2.02,12.79,1.72,18.38-.49,9.2-2.33,18.53-3.78,27.61,2.81.79,8.08,1.25,13.22-.32,1.57-11.83.33-29.27,4.43-40.33.64-1.71,2.53-3.26,2.99-4.12,4.46-1.51,7.64-7.43,12.59-8.16,7.51-1.11,13.28,4.75,18.98,8.56.42-.17.21-.98.26-.98.5.01.83.7,1.21.99l.74-.72c1.99-4.04,2.78-8.42,4.08-12.67.34-1.13.39-2.59,1.99-2.18Z"/>
                <path d="M225.12,351.25c7.94-.97,15.1,4.37,14.77,12.67-2.64,0-4.73-3.31-7.04-4.25-7-2.84-14.03-.59-19.63,4.16-.43-5.12,7.02-11.98,11.91-12.58Z"/>
                <path d="M172.31,347.15c9.7-1.6,16.84,5.84,17.67,15.15-8.43-7.39-15.66-11.35-26.61-5.48-.53-4,5.29-9.08,8.93-9.68Z"/>
              </g>
              <path class="cls-16" d="M243.5,349.52c-.05,0,.17.8-.26.98-5.7-3.81-11.47-9.68-18.98-8.56-4.95.73-8.12,6.66-12.59,8.16,10.2-18.96,19.89-17.12,31.82-.58Z"/>
              <path class="cls-16" d="M189.79,339.54c1.47,2.35,2.39,6.65,3.31,9.34-8.31-12.71-18.33-13.73-31.25-6.27,7.1-7.78,20.87-14.38,27.94-3.07Z"/>
              <path class="cls-13" d="M191.04,394.87c4.07.54,9.13.15,13.22-.32,3.78-.43,7.43-1.27,10.77-2.77,3.17-1.42,6.33,1.89,4.69,4.96-2.09,3.91-5.08,7.58-7.54,9.66-15.98,13.5-30.55,4.7-36.43-10.47-1.19-3.08,2.13-5.99,5.05-4.44,3.28,1.74,6.88,2.94,10.23,3.38Z"/>
            </g>
            <path class="cls-31" d="M238.98,390.06c-2.34-1.03-4.43-1.72-5.46-1.75-2.73-.08-4.63,2.35-4.17,3.3.19.4-.75-.25-.97-.2-1.19.26-2.36,1.27-2.73,2.03-.74,1.56.4,2.58.13,2.91-.18.23-3.46.7-4.83,2.94-.23,1.89.16,3.66.87,5.36-.14.25-.25.52-.4.76-.12.2-.22.4-.33.61-.26-.4-.48-.78-.61-1.14-1.87.76-2.77,2.12-4.04,3.15-.81,2.45.04,5.53,1.68,8.26-4.59,2.05-7.44,9.65-8.14,11.06-1,2.93-1.84,7.87,6.35,4.27,2.56-1.13,7.19,1.05,10.85-.71,5.54-3.24,13.61-7.24,16.73-11.31.25-.32,1.03-2.53,1.85-4.96.3-.4.55-.77.73-1.08,3.87-6.73,3.05-13.3,3.81-15.36.61-1.67-6.91-6.74-11.31-8.13Z"/>
            <g>
              <path class="cls-4" d="M225.78,396.35c.13,0-.22-.62.51-.09,1.89,1.36,5.85,5.62,6.94,7.53.49.85,5.65,10.39,3.46,10.39-.46,0-2.84-7.01-5.89-12.05-2.44-4.03-4.54-5.05-5.02-5.78Z"/>
              <path class="cls-4" d="M209.98,427.34s1.34-5.54,1.64-6.37c1.11-3.08,5.23-5.06,5.23-5.06-1.91-3.13-1.35-7.12-.42-7.88-1.36,4.11,6.15,7.05,4.05,12.83-3.67-1-8.32,3.98-10.51,6.49Z"/>
            </g>
            <path class="cls-4" d="M243.3,407.13c-1.1.71-2.36-4-3.36-5.3-6-7.85-8.66-7.75-11.64-10.38,0,0,.71-.38,2.2.47,4.44,2.55,13.5,9.29,12.8,15.21Z"/>
            <path class="cls-4" d="M228.27,420.16c-.73.59-1.42.64-1.61.78-.77-3.05-.76-6.44-1.88-9.42-.99-2.62-3.68-4.82-4.31-6.65-.4-1.17-.4-1.57-.36-2.8.05-1.68,0-1.44.83-2.79-.96,7.74,8.59,13.48,7.33,20.87Z"/>
          </g>
          <path class="cls-32" d="M263,457.92c-1.44-1.25-13.47-10.84-13.47-10.84,0,0-1.59-4.05-2.02-5.29-.66-1.91-1.17-4-1.17-4,0,0,2.41,6.85,11.28,13.31,4.32,3.14,26.74,20.1,27.75,27.65-4.02-6.18-16.8-16-22.38-20.84Z"/>
        </g>
        <path class="cls-21" d="M263.1,452.63c-.42-.41-.92-.67-1.44-.81-.03-.01-.05-.03-.08-.04-13.23-2.73-26.3-17.72-26.3-17.72-.14.34-.26.36-.45.53-5.54,4.96-15.72,7.16-18.82,8.33-2.73,1.03-3.4.71-3.4.71,1.43,2.43,4.93,8.31,6,11.77,2.01,6.5,5.46,20.77,5.46,20.77,0,.05.02.1.03.14,0,.02,0,.03.01.05,0,0,0,.02,0,.03.33,1.47,1.64,2.57,3.21,2.57s2.98-1.19,3.24-2.75c0,0,0,0,0,0,.6.78,1.53,1.28,2.59,1.28,1.59,0,2.92-1.13,3.23-2.63.71.81,1.79,1.26,2.94,1.1,1.6-.22,2.76-1.56,2.83-3.12.69.58,1.6.88,2.56.74,1.63-.23,2.81-1.62,2.83-3.22,1.16,1.05,2.93,1.16,4.21.17,1.03-.8,1.45-2.08,1.2-3.28,1.14.76,2.68.76,3.83-.12,1.16-.89,1.54-2.41,1.08-3.71.98.12,2.01-.19,2.75-.95,1.13-1.16,1.24-2.93.33-4.21.81-.03,1.6-.35,2.21-.98,1.27-1.3,1.25-3.38-.05-4.66Z"/>
        <path class="cls-12" d="M230.06,475.42s-7.68-20.86-10.06-32.6c0,0,6.05,17.03,10.06,32.6Z"/>
        <path class="cls-12" d="M235.99,474.04s-6.73-20.87-12.88-31.6c10.16,17.73,9.12,18.32,12.88,31.6Z"/>
        <path class="cls-12" d="M241.82,471.95s-10.11-19.79-13.88-31.17c0,0,8.04,16.19,13.88,31.17Z"/>
        <path class="cls-12" d="M247.29,469.42s-11.33-19.12-15.8-30.24c0,0,9.04,15.66,15.8,30.24Z"/>
        <path class="cls-12" d="M252.57,466.8s-13.59-17.79-18.61-28.6c0,0,10.02,14.98,18.61,28.6Z"/>
        <path class="cls-12" d="M257.47,462.83s-14.59-13.45-21.93-26.14c0,0,11.04,13.24,21.93,26.14Z"/>
        <path class="cls-12" d="M260.44,458.46s-7.9-5.48-15.9-14.39c0,0,3.74,3.74,15.9,14.39Z"/>
      </g>
      <g>
        <path class="cls-7" d="M226.92,64.52s7.23-5.73,6.93-18.38S241.38-1.17,277.85.03s54.95,31.08,33.48,117.54c-21.47,86.46,41.79,71.12,41.79,71.12,0,0-33.84,13.9-58.37-21.84-24.53-35.74-18.05-85.48-18.05-85.48,0,0,11.54-40.74-16.97-33.61-28.52,7.13-22.41,18.67-22.41,18.67l-10.39-1.92Z"/>
        <g>
          <path class="cls-25" d="M234.77,63.87c6.21,4.09,8.54,11.35,6.74,14.08l-3.33,5.06s-1.2-4.8-9.46-10.24c-8.4-5.53-13.37-4.8-13.37-4.8l3.33-5.06c1.8-2.73,8.22-4.22,16.09.96Z"/>
          <path class="cls-16" d="M232.34,68.72c6.21,4.09,9.89,8.48,8.09,11.21l-4.68,7.93s-1.2-4.8-9.46-10.24c-8.4-5.53-13.37-4.8-13.37-4.8l4.48-7.89c1.8-2.73,7.07-1.39,14.94,3.8Z"/>
        </g>
        <path class="cls-16" d="M233.11,62.9c4.7-15.09,13.12-29.72,26.45-38.78,9.11-6.29,21.26-7.92,31.85-4.71,11.01,3.48,14.02,18.97,15.06,28.9,1.54,15.99-1.41,32.19-7.86,46.82-7.29,18.9-9.52,40.57-1.32,59.56,2.96,7.09,7.3,13.65,12.59,19.25,1.77,1.87,3.66,3.67,5.72,5.23l-.16.25c-4.28-3.02-7.97-6.78-11.23-10.85-17.07-20.95-17.29-49.95-8.05-74.33,3.97-9.62,6.83-19.67,7.49-30.1.71-10.29.14-20.93-3.41-30.69-1.8-4.62-4.58-9.77-9.63-11.26-9.94-3.06-21.03-1.73-29.81,3.92-8.85,5.5-15.51,13.91-20.72,22.82-2.59,4.5-4.89,9.19-6.69,14.06l-.28-.1h0Z"/>
        <g>
          <path class="cls-3" d="M106.99,74.58c-.04.06-.08-.13-.91,1.26q5.42,9.71,10.83,19.41c4.36-.75,7.69-1.42,12.22-1.48,4.72-.06,7.86.12,12.56.69-2.01-6.74-5.79-13.29-7.18-20.21-9.16,1.15-18.37,2.1-27.51.33Z"/>
          <path class="cls-16" d="M258.07,185.74c4.29-6.11,6.78-10.66,8.69-18.26-.49-.35-4.18-5.88-7.99-9.08-1.55-1.3-2.15-.19-2.4-.4-7.77,8.35-11.86,5.25-21.8-.13-2.47-.31-1.94.64-1.83,2.51,8.05,6.01,21.84,16.3,25.33,25.36"/>
          <path class="cls-7" d="M157.99,119.02c16.56,3.87,53.05,18.28,66.42,28.01,3.52-.53,9.72-3.77,6.63-8.04-1.88-2.61-47.88-30.52-55.01-33.14-18.31-6.72-43.62-7.81-25.86.96-9.19,5.07,2.65,5.27,7.81,12.22Z"/>
          <path class="cls-3" d="M260.51,112.22c2.54,8.63,3.7,17.48-4.01,23.97,4.3,2.81,15.35,8.48,16.09,9.03-.59-10.8-3.49-22.45-9.51-31.51-1.25-1.88-2.47-1.34-2.57-1.49Z"/>
          <path class="cls-22" d="M137.26,49.37c-1.26.83-2.63,1.69-4.08,2.59,1.45-.9,2.83-1.76,4.08-2.59h0Z"/>
          <path class="cls-22" d="M131.39,53.04c.61-.37,1.2-.73,1.78-1.09-.58.36-1.18.72-1.78,1.09Z"/>
          <path class="cls-22" d="M123.75,57.73c.65-.41,1.31-.82,1.96-1.22-.65.4-1.3.81-1.96,1.22Z"/>
          <path class="cls-22" d="M128.6,54.74c.63-.38,1.26-.76,1.87-1.14-.62.37-1.24.75-1.87,1.14Z"/>
          <path class="cls-22" d="M120.28,61.51c-1.93,1.39-3.85,2.81-5.77,4.26,1.92-1.45,3.84-2.87,5.77-4.26Z"/>
          <path class="cls-22" d="M109.42,70.09c-.9.92-1.51,1.64-1.93,2.21.41-.56,1.03-1.28,1.93-2.21Z"/>
          <path class="cls-22" d="M101.77,78.48c.24-.58.51-1.15.81-1.72-.3.57-.57,1.14-.81,1.72Z"/>
          <path class="cls-22" d="M100.5,83.87c.03-.62.1-1.23.21-1.83-.11.61-.18,1.22-.21,1.83Z"/>
          <path class="cls-22" d="M100.78,87.65c-.13-.64-.21-1.28-.26-1.91.05.63.13,1.27.26,1.91Z"/>
          <path class="cls-3" d="M238.27,85.27c8.3,9.12,15.2,16.65,22.25,26.95.1.14,1.32-.4,2.57,1.49,6.02,9.07,8.92,20.72,9.51,31.51,4.4,3.27,15.03,24.53,18.49,7.32.14-3.65-1.6-8.94-2.85-12.44-6.14-17.2-51.86-65.75-68.45-73.15-.86-.39,14.15,13.57,18.48,18.33Z"/>
          <path class="cls-22" d="M107.49,72.3c-.28.38-.46.68-.58.93.12-.25.31-.56.58-.93Z"/>
          <path class="cls-22" d="M101.65,90.6c-.26-.66-.48-1.32-.65-1.97.17.65.39,1.31.65,1.97Z"/>
          <path class="cls-22" d="M103.14,93.63c-.61-1.03-1.1-2.04-1.49-3.03.39,1,.89,2.01,1.49,3.03Z"/>
          <path class="cls-22" d="M100.71,82.03c.11-.6.25-1.2.43-1.8-.18.59-.32,1.19-.43,1.8Z"/>
          <path class="cls-22" d="M106.72,74.04c-.03-.18,0-.43.19-.81-.18.38-.22.63-.19.81Z"/>
          <path class="cls-22" d="M100.5,83.87c-.03.62-.03,1.24.02,1.87-.05-.63-.05-1.26-.02-1.87Z"/>
          <path class="cls-22" d="M102.46,79c-.19.28-.36.59-.49.91.13-.32.3-.62.49-.91Z"/>
          <path class="cls-22" d="M107.66,97.93c.08.03.17.05.26.06-.09-.01-.18-.03-.26-.06Z"/>
          <path class="cls-22" d="M110.41,69.1c.37-.35.77-.73,1.2-1.14.97-.74,1.93-1.47,2.89-2.19-.96.72-1.92,1.46-2.89,2.19-.44.41-.84.78-1.2,1.14Z"/>
          <path class="cls-22" d="M106.72,74.04c.03.18.12.28.19.35-.07-.07-.17-.18-.19-.35Z"/>
          <path class="cls-22" d="M103.09,78.2c-.23.25-.44.52-.63.8.19-.28.41-.55.63-.8Z"/>
          <path class="cls-25" d="M255.69,155.77c-32.54-27.39-70.5-55.97-114.01-61.31-4.7-.58-7.84-.75-12.56-.69.31.26.5.48.58.67-.08-.19-.27-.41-.58-.67-4.53.06-7.85.72-12.22,1.48-3.7.64-7.02,2.68-8.69,2.75-.41.35-.77.74-1.08,1.17-.15,1.38-1.69,5.34-2.45,10.23-.29,1.84-.66,3.61-.92,5.48-1.43,10.48-4.08,12.19,3.76,6.97.62-.41.56-4.29,13.13-4.84,20.51-.91,51.49,10.3,70.43,18.82,14.88,6.69,28.56,14.8,41.65,24.57-.12-1.87-.64-2.83,1.83-2.51,9.95,5.38,14.04,8.47,21.8.13-.09-.08.57-1.18-.68-2.23ZM129.75,94.62c0,.11-.03.22-.11.32.08-.1.11-.2.11-.32ZM123.86,112.61c1.35.58,2.92,1.06,4.66,1.48-1.74-.42-3.31-.91-4.66-1.48ZM130.31,114.5c1.47.31,3.04.58,4.68.84-1.64-.26-3.21-.53-4.68-.84ZM224.42,147.02c-13.37-9.72-49.86-24.14-66.42-28.01-5.17-6.95-17.01-7.15-7.81-12.22-17.77-8.76,7.55-7.68,25.86-.96,7.12,2.61,53.12,30.53,55.01,33.14,3.09,4.28-3.11,7.51-6.63,8.04.83.6,1.97,1.59,3.19,2.75-1.22-1.16-2.36-2.15-3.19-2.75Z"/>
          <path class="cls-22" d="M103.79,94.67c.91,1.38,2.02,2.79,3.36,4.23,0,0,0,0,0,0,0,0,0,0,0,0-1.34-1.44-2.45-2.85-3.36-4.23Z"/>
          <path class="cls-22" d="M136.78,51.72c.2-.27.35-.77.36-1.67.01-.09.03-.15.03-.2,0,.05-.02.12-.03.2-.01.9-.16,1.4-.36,1.67Z"/>
          <path class="cls-22" d="M107.14,99.17h0c.01-.1.02-.2,0-.27,0,.07,0,.17,0,.27Z"/>
          <path class="cls-22" d="M105.33,72.63c.43-.54.88-1.07,1.35-1.59-.47.52-.93,1.05-1.35,1.59Z"/>
          <path class="cls-22" d="M108.22,98c-.11,0-.2,0-.3,0,.09.01.19.01.3,0h0Z"/>
          <path class="cls-22" d="M135.69,51.9c-.08-.02-.14-.04-.19-.04.05,0,.12.01.19.04Z"/>
          <path class="cls-22" d="M135.94,51.97c-.09-.02-.18-.05-.25-.07.08.02.16.05.25.07Z"/>
          <path class="cls-22" d="M105.69,76.12c-.14.09-.32.21-.52.34.2-.13.38-.25.52-.34Z"/>
          <path class="cls-22" d="M106.08,75.83c-.03.05-.17.15-.39.29.22-.14.36-.24.39-.29.62-1.04.8-1.19.87-1.23-.07.04-.24.19-.87,1.23Z"/>
          <path class="cls-22" d="M136.23,52c-.1,0-.19-.01-.29-.03.09.02.19.04.29.03Z"/>
          <path class="cls-22" d="M137.26,49.37h0c-.01.09-.03.15-.03.2,0-.05.02-.12.03-.2Z"/>
          <path class="cls-33" d="M133.17,51.95c-.58.36-1.18.72-1.78,1.09-.3.18-.61.37-.92.56-.62.37-1.24.75-1.87,1.14-.95.58-1.92,1.17-2.89,1.77-.65.4-1.3.81-1.96,1.22-6.22,3.92-12.57,8.34-17.06,13.31-.47.52-.93,1.05-1.35,1.59-1.07,1.34-2,2.72-2.75,4.13-.3.57-.57,1.14-.81,1.72-.24.58-.45,1.17-.63,1.76-.18.59-.32,1.19-.43,1.8-.11.61-.18,1.22-.21,1.83s-.03,1.24.02,1.87.13,1.27.26,1.91c.06.32.14.65.22.97.17.65.39,1.31.65,1.97.39,1,.89,2.01,1.49,3.03.2.34.42.69.65,1.03.91,1.38,2.02,2.79,3.36,4.23h0c0,.08,0,.17,0,.27.31-.43.68-.82,1.08-1.17-.11,0-.21,0-.3,0-.09-.01-.18-.03-.26-.06-3.13-5.61-7.79-10.75-5.87-17.53.05-.17.11-.33.17-.49.13-.32.3-.62.49-.91s.41-.55.63-.8c.68-.75,1.47-1.33,2.07-1.73.2-.13.38-.25.52-.34.22-.14.36-.24.39-.29.62-1.04.8-1.19.87-1.23.02-.01.03-.01.04-.03,9.14,1.78,18.35.82,27.51-.33-1.78-8.82-2.26-13.46.93-22.37.02,0,.04-.01.06-.01.05,0,.12.01.19.04s.16.05.25.07c.09.02.19.04.29.03.2,0,.39-.07.55-.28.2-.27.35-.77.36-1.67.01-.09.02-.15.03-.2.02-.11.03-.17.05-.28,0-.05.02-.12.03-.2-1.26.83-2.63,1.69-4.08,2.59Z"/>
          <path class="cls-33" d="M286.5,223.22c2.9-3.21,21.37-9.47,22.44-12.09"/>
          <path class="cls-33" d="M308.94,211.13c-1.07,2.61-19.54,8.88-22.44,12.09"/>
          <g>
            <path class="cls-3" d="M226.52,71.34c76.73,46.16,77.9,109.79,84.04,126.99,1.25,3.5,2.99,8.8,2.85,12.44-3.46,17.21-14.09-4.05-18.49-7.32-.59-10.8-90.51-120.45-96.53-129.51-1.25-1.88,28.14-2.6,28.14-2.6Z"/>
            <path class="cls-8" d="M311.11,199.88c.6,17.55-8.12-2.69-12.52-5.96-.16-.12-15.1-10.9-19.66-18.73-.86-1.48-1.75-2.96-2.66-4.43,1.47.12,2.88.04,4.08-.3,7.55-2.11-19.54-31.45-23.84-34.26-21.58-14.13-22.49-14.58-42.68-31.08-3.2-2.61-4.32-5.75-7.3-6.85-21.73-8.05-23.99-30.76-47.98-39.25-1.41-.5-20.2-7.33-28.17-2.08-4.71,3.1-7.35,14.95-7.75,17.05-.07-.07-.14-.15-.2-.23-7.33-10.23-19.88,3.95-20.64,6.65-1.92,6.77,2.74,11.92,5.87,17.53,1.32.53,7.22-.6,9-2.4,4.98-1.25,12.48-2.84,25.02-1.07,42.49,6.01,79.87,32.77,111.96,59.6,18.73,21.88,11.73,51.88,25.23,66.38,8.76,9.41,20.73,12.25,24.5,10.5,23.74-10.99,7.85-27.55,7.73-31.06Z"/>
            <path class="cls-33" d="M295.18,174.71c-8.8-9.78-17.09-19.5-23.8-30.78-15.63-26.23-33-59-63-69,.21-.96,28.73,11.01,29.89,10.33-4.33-4.76-17.97-18-18.12-18.11-23.5-16.97-55.32-19.31-73.41-19.73-2.3-.05-4.76.47-7.08.22-.75.55-1.64,1.21-2.4,1.71-.06.34.17.49-.11.68-8.78,5.83-10.33,22.37-3.76,27.88,16.04,13.46,57.33,14.68,73.14,20.33,1.41-15.62-5.6-25.68-16.07-32.81-1.1-.75-2.24-1.47-3.42-2.16,1.17.69,2.31,1.41,3.42,2.16,10.47,7.13,17.48,17.19,16.07,32.81,1.01.33,1.79.93,2.52,1.65,7.49,10.25,12.99,12.58,17.72,16.81,7.11,6.36,12.91,11.08,23.34,22.09,10.85,11.47,22.97,29.65,36.96,47.4,6.81,8.65,10.63,9.08,12.41,6.23,2.89-4.63,1.46-11.37-4.28-17.75Z"/>
          </g>
        </g>
      </g>
    </g>
  </g>
</svg>