<?xml version="1.0" encoding="UTF-8"?>
<svg id="Layer_2" data-name="Layer 2" xmlns="http://www.w3.org/2000/svg" viewBox="0 0 296.87 485.35"><<defs>
    <style>
      .cls-1 {
        fill: none;
      }

      .cls-2 {
        fill: #c45f41;
      }

      .cls-3 {
        fill: #f3d5b5;
      }

      .cls-4 {
        fill: #232323;
      }

      .cls-5 {
        fill: #3a310b;
      }

      .cls-6 {
        fill: #8e3226;
      }

      .cls-7 {
        fill: #f7b750;
      }

      .cls-8 {
        fill: #a34737;
      }

      .cls-9 {
        fill: #e5decc;
      }

      .cls-10 {
        fill: #b14f3d;
      }

      .cls-11 {
        fill: #281a26;
      }

      .cls-12 {
        fill: #f0935d;
      }

      .cls-13 {
        fill: #ede1ef;
      }

      .cls-14 {
        fill: #bdeded;
      }

      .cls-15 {
        fill: #c12e4b;
      }

      .cls-16 {
        fill: #c35f41;
      }

      .cls-17 {
        fill: #f8ae89;
      }

      .cls-18 {
        fill: #c7a78d;
      }

      .cls-19 {
        fill: #f8edf9;
      }

      .cls-20 {
        fill: #dcc1a4;
      }

      .cls-21 {
        fill: #fbfbfc;
      }

      .cls-22 {
        fill: #cc5637;
      }

      .cls-23 {
        fill: #ac8577;
      }

      .cls-24 {
        fill: #fcf4e1;
      }

      .cls-25 {
        fill: #fcf8e9;
      }

      .cls-26 {
        opacity: .2;
      }

      .cls-26, .cls-27 {
        fill: #7aebe9;
      }

      .cls-28 {
        fill: #ac4a30;
      }

      .cls-29 {
        fill: #957367;
      }

      .cls-30 {
        fill: #e6794d;
      }

      .cls-31 {
        fill: #e5d4e8;
      }

      .cls-32 {
        fill: #deba9d;
      }

      .cls-33 {
        fill: #d7643c;
      }

      .cls-34 {
        fill: #bfcbb8;
      }

      .cls-35 {
        fill: #e67a4d;
      }

      .cls-36 {
        fill: #353535;
      }

      .cls-37 {
        fill: #320532;
      }

      .cls-38 {
        fill: #1d121b;
      }
    </style>
  </defs>
  <g id="PHILOSOPHY">
    <g>
      <g>
        <g>
          <path class="cls-22" d="M173.61,194.37c-9.09,11.59-21.81,20.53-36,24.5-2.36-3.08-5.37-5.97-6-10-.45-2.9.19-7.89.5-11,.07-.73.15-4.25.5-4.86,12.44,2.19,27.65-1.76,38.5-7.64,1.21,2.88,1.66,6.03,2.5,9Z"/>
          <path class="cls-30" d="M175.61,199.87c.39,2.05.72,4.18,1,6.25-7.26,8.67-18.31,15.14-29,18.75-2.48.84-1.89.97-2,1-.74.17-.36.73-2.5-.5-.28-.16-1.31-.83-1.5-1-.26-.22-3.39-4.71-4-5.5,14.19-3.97,26.91-12.91,36-24.5.67,2.38,1.94,5.17,2,5.5Z"/>
        </g>
        <g>
          <path class="cls-12" d="M204.38,96.87s-6.44-19.74-10.08-25.56c-4.81-7.69-19.05-20.76-27.72-23.4-8.71-2.65-26.18-2.64-36.4-.73,0,0-32.82,1.73-41.14,39.7-.94,4.3,3.47,25.35-1.5,42.9-.09.32-.14.65-.14.98v7.55c2.59,9.21,3.89,21.19,12.53,31.65,7.61,9.21,31.57,23.86,35.88,24.27,2.26.08,9.06-1.41,19.05-5.59,9.16-3.84,22.2-12.35,27.89-20.52,2.79-4.01,12.29-22.94,10.07-25.68,7.3-3.43,16.67-4.19,16.67-15.97,0-5.05-2.94-19.94-5.1-29.59ZM104,145.06c1.03.09,2.08.13,3.16.11-1.03.04-2.09,0-3.16-.11ZM160.8,142.04c.99.49,2.08.94,3.27,1.35-1.16-.38-2.25-.83-3.27-1.35Z"/>
          <path class="cls-33" d="M209.27,126.28c.06-.09,1.34-1.31-1.39-12.61-.8-3.84-2.6-12.74-2.6-12.74,0,0-.45-.64-1.11-1.37-.54-.59-1.23-1.23-1.8-1.71-7.14-5.96-20.51-5.64-24.33-5.66-8.48-.09-16.76,1.17-20.81,6.02-4.18,5.01-3.97,13.78-2.53,24.56.31,1.3,1.12,4,1.08,3.36-.1-1.67,1.06-6.72,2.37-9.57,2.25-4.92,4.62-8.13,10.93-10.58,15.64-6.05,31.83,20.59,32.55,21.79-1.8,6.6-5.1,12.32-11.07,14.7,3.89.67-5.67,21.3-8.64,25.56-5.68,8.17-18.56,15.97-27.72,19.8-9.98,4.18-16.68,6.28-18.99,6.23.17.06.07.12.64.16,15.33,1.15,24.21-2.52,37.43-10,19.85-11.23,20.3-13.57,30.24-32.4,1.1-2.09,1.09-4.53,2.88-6.84.38-.49,9.73-1.54.72-7.92,13.28-19.13,20.35-3.89,12.96,6.48-6.8,9.55-18.62-4.15-10.8,11.88,25.69,5.04,20.19-57.31,0-29.16Z"/>
          <path class="cls-28" d="M209.27,155.45c-2.56-.5-3.24-2.94-5.76-3.6,1.1-2.09,1.09-4.53,2.88-6.84.38-.49,9.73-1.54.72-7.92,13.28-19.13,20.35-3.89,12.96,6.48-6.8,9.55-18.62-4.15-10.8,11.88Z"/>
        </g>
        <path class="cls-17" d="M87.69,137.04c3.5,16.27,5.03,23.58,11.87,32.34,4.4,5.63,24.09,20.16,35.68,24.72-5.49-.09-34.05-16.97-40.23-24.75-6.68-8.4-8.31-18.44-8.47-25.05-.04-1.66.29-4.97.48-6.62.08-.68.39-2.73.39-2.73,0,0,.18,1.59.29,2.09Z"/>
        <path class="cls-30" d="M96.93,100c-1.88.06,1.36-4.44,2.23-6.28,1.06-2.92,1.12-6.36,2-9.25,6.04-19.79,23.82-27.78,10.5-24.25-10.51,2.79-20.82,35.08-21.94,44.67,0,.01.18,6.15.18,6.15,2.51-3.22,3.62-4.22,7.97-6.63,8.46-4.67,18.39-1.27,22.4,9.26.04.12,2.35,10.41,2.39,11.24.02.42.04-9.38.19-10.88-.96-13.22-15.39-14.39-25.92-14.04Z"/>
        <g>
          <path class="cls-30" d="M87.42,135.33c-10.31,3.67-5.4,11.06-2.85,18.16-12.38-9.8-7.4-25.37-2.57-25.81.6-.05,2.57-.04,3.82.89,1.15.86,1.63,1.73,1.63,1.73,0,0,0,3.37-.04,5.02Z"/>
          <path class="cls-33" d="M85.29,130.45c.86-.04,2.13,1.32,2.1,4.07-.03,2.31-.95,7.35-.78,11.64,0,0,.48,5.68,1.6,9.55-1.36-.54-2.49-1.3-3.64-2.21-2.55-7.1-9.59-19.37.72-23.04Z"/>
        </g>
        <g>
          <path class="cls-11" d="M280.49,148.94c-.14-.13-.31-.32-.48-.48-.31-18.33-12.21-12.48-19.34-17.19-4.6-3.04-7.83-19.38,14.08-18.38,5.56,7.95-13.96,6.35-11.94,10.5.48.99,15.1,6.07,17.19,8.59,3,3.63,2.98,13.91.48,16.95Z"/>
          <path class="cls-38" d="M33.67,132.71c-.77,1.33-4.97,3.92-3.34,11.94-5.77-2.09-14.97-2.67-13.84-10.74,1.81-13.02,15.73-1.17,17.19-1.19Z"/>
          <path class="cls-38" d="M46.08,115.04q.48,4.42.95,8.83-6.68,4.42-13.37,8.83c.54-.92,2.18-2.06,2.39-2.63,2-5.39-4.36-9.36-3.82-14.8q6.92-.12,13.84-.24Z"/>
          <path class="cls-38" d="M287.65,80.19c-4.37-2.21-5.02-1.55-9.55-2.63,2.76-7.37,4.11-10.61,0-17.43-.52-.4-.64-.5,0,0-3.84-6.37-10.77-9.34-17.9-6.21-2.75-.54.94-5.86-9.79-11.7,8.37-15.47-11.31-28.07-21.24-13.61C211.56,8.83,186.93.05,162.33,13.35c-16.73-18.96-48.35-16.68-65.64.24-1.68,1.64.06,3.99-12.65,9.31-1.97.09-9.93-10.8-21.24-1.43,0,0,0,0,0,0-2.89,2.39-5.59,6.4-5.73,10.26-.03.76,1.65,8.46,1.91,8.83-1.18.2-2.31.87-3.34,1.43-7.68,4.19-5.16,3.47-8.83,10.98-18.35-1.5-25.18,16.33-12.17,28.88-2.57.83-5.11,1.11-7.64,2.15-1.99.82-3.19,1.37-4.77,2.86-9.07,8.54-4.83,20.54,5.73,25.06.64,1.79-3.89,4.36,0,13.37-18.05-2.07-24.49,18.34-7.64,26.26-3.6,8.83,2.84,20.44,12.65,16.95,7.94,7.76-1.98,7.84-.24,18.86,1.36,8.6,13.51,14.07,20.77,8.83,10.25,4.27,5.3,4.94,8.83,9.79,4.51,6.19,15.68,5.61,20.77.24,1.38.31.67,13.47,19.1,10.98,4.44-7.84,5.94-2.38,12.89-5.73,5.18-2.5,5.11-9.42,10.26-4.77,2.74-3.89,3.15-8.08,6.93-11.28.07-.7.14-1.4.21-1.99-6.38-2.21-25.4-13.42-31.26-18.43-9.34-7.98-13.33-20.37-13.01-19.3-1.36-.54-2.49-1.3-3.64-2.21-12.38-9.8-7.4-25.37-2.57-25.81.6-.05,2.57-.04,3.82.89,1.13.85,1.61,1.7,1.63,1.73.9-3.64,1.92-8.38,2.1-11.67.91-5.89.92-15.31.93-15.49.51-7.83,10.9-38.47,20.04-42.53,5.38-2.39,10.25,1.5,16.95-8.12,21.88,12.34,30.33-2.24,31.99-2.86,6.58-2.47,8.32,5.19,8.83,5.49,13.69,7.91,27,21.42,30.54,26.98.47.73,2.46,5.84,3.64,9.46,3.7,11.31,6.79,34.73,6.79,34.73,0,0,3.9-5.64,7.37-6.78-.07-.05,3.66-1.35,6.46,1.78,5.22,5.85,4.58,25.77-3.74,31.97-4.96,3.7-10.25,2.94-13.43,0-1.22-1.12-2.42-1.4-2.42-1.4,0,0-.35.73-1,1.91-1.55,2.8-5.42,11.17-9.33,15.71-7.98,9.27-15.7,11.85-22.05,15.97.87,3.22,1.58,5.68,2.38,8.52.64,2.27,1.85,4.93,1.91,5.25,5.45.54,7.16,3.77,10.08,5.58.54.34,3.43.86,4.54.95,6.7,13.18,24.45,10.16,28.64-3.82,9.21,9.72,23.29,11.63,27.21-3.82,7.01.07,11.98.74,16.71-5.25,17.53,1.89,24.17-15.7,11.7-27.45l5.97-7.88c5.9,1.47,11.45.11,14.56-5.25,3.95-6.8,2.04-13.9-4.3-18.38,1.49-16.72-7.49-16.8-8.12-17.66-2.99-4.15,5.51-3.75,10.03-9.07,6.81-8.02,4.79-22.13-4.77-26.97"/>
          <path class="cls-11" d="M39.88,152.28c-.27.1-1.5,1.75-5.01,2.86-.56-.14-4.42-9.94-4.54-10.5-1.63-8.01,2.57-10.6,3.34-11.94q6.68-4.42,13.37-8.83-.48-4.42-.95-8.83c.1-2.73-8.04-6.86-13.37-10.5-2.1-4.42-1.05-9.85,1.91-13.84,8.45-3.78,19.02-1.63,19.1-7.88,0-.5-2.12-5.75-2.39-9.79-.72-10.74,14.06-12.77,15.28-14.08.5-.54,1.74-5.63,1.91-6.92,1.36-2.12,3.22-3.78,4.77-5.73,2.19-2.75,3.56-.4,1.91-8.83,15.43-17.14,14.53-10.69,36.04-7.88,3.21-.75,3.19-14.58,10.03-15.75,9.57-1.64,12.02,10.31,8.12,13.37-3.67,2.88-3.2-2.58-6.68-7.64-3.78,22.62-17.69,15.12-34.85,12.89-8.46,5.82-4.47,10.16-5.49,13.13-.28.81-7.63,7.08-8.12,8.12-3,6.43,5.2,5.22-16.71,16.71-2.36,5.97,9.05,16.27-6.92,23.15-4.57,1.97-16.64,2.16-13.37,6.21,2.66,3.28,15.27,6.03,15.99,17.43,1.43,22.72-26.97,10.24-13.37,35.09Z"/>
          <g>
            <g>
              <path class="cls-11" d="M174.75,15.26c12.02-1.13,20.75,19.49,43.44,11.94,11.03,14.64,20.32,10.14,15.52,27.93,2.48,1.22,11.9,9.52,12.65,9.79,5.27,1.89,20.78-2.81,15.99,16.47,4.52,1.56,20.47,7.85,22.44,11.46,2.26,4.16.7,12.42-4.06,14.08-11.08,3.87-.82-9.16-1.19-10.74-11.93-10.93-28.55-.8-21.96-23.39q-6.33-.6-12.65-1.19c-8.03-10.55-12.63-7.74-15.52-11.22-7.65-9.25,11.94-21.6-18.86-17.43q-1.19-4.06-2.39-8.12c-11.72.38-21.94-6.33-31.03-12.89-4.05-.29-16.38,7.73-13.61-.72.59-1.81,9.15-5.77,11.22-5.97Z"/>
              <path class="cls-37" d="M219.62,32.93c2.95-.22-2.46,2.06-3.34,2.39-11.48,4.18-3.32-1.9,3.34-2.39Z"/>
            </g>
            <path class="cls-1" d="M121.28,13.83c-6.84,1.17-6.82,15.01-10.03,15.75-21.51-2.82-20.61-9.27-36.04,7.88,1.65,8.43.28,6.08-1.91,8.83-1.55,1.95-3.41,3.61-4.77,5.73h0c-.17,1.29-1.41,6.38-1.91,6.92-1.22,1.32-16,3.34-15.28,14.08.27,4.04,2.39,9.28,2.39,9.79-.07,6.25-10.64,4.1-19.1,7.88-2.96,3.99-4.01,9.42-1.91,13.84,5.33,3.64,13.47,7.78,13.37,10.5q-6.92.12-13.84.24c-.54,5.44,5.82,9.41,3.82,14.8-.21.57-1.85,1.7-2.39,2.63-1.46.02-15.38-11.82-17.19,1.19-1.12,8.08,8.08,8.65,13.84,10.74.11.56,3.98,10.36,4.54,10.5,3.52-1.11,4.74-2.77,5.01-2.86-13.6-24.85,14.8-12.37,13.37-35.09-.72-11.4-13.34-14.14-15.99-17.43-3.27-4.05,8.8-4.24,13.37-6.21,15.97-6.89,4.57-17.19,6.92-23.15,21.91-11.49,13.71-10.28,16.71-16.71.48-1.03,7.84-7.31,8.12-8.12,1.03-2.97-2.97-7.31,5.49-13.13,17.16,2.23,31.07,9.73,34.85-12.89,3.48,5.05,3.01,10.51,6.68,7.64,3.9-3.06,1.45-15.01-8.12-13.37Z"/>
            <path class="cls-1" d="M262.83,123.4c-2.02-4.15,17.5-2.56,11.94-10.5-21.91-.99-18.69,15.34-14.08,18.38,7.12,4.71,19.02-1.14,19.34,17.19.17.16.33.34.48.48,2.5-3.03,2.52-13.32-.48-16.95-2.09-2.52-16.71-7.61-17.19-8.59Z"/>
          </g>
          <g>
            <g>
              <path class="cls-7" d="M89.92,118.92c-1.78-1.23-3.85-2.24-5.87-2.61-7.55-1.36-3.75,5.14.54,7.76.53.32,2.25.6,4.11.81.5-1.37,1.17-2.69,1.96-3.92.02-.08.04-.16.05-.24-.2-.37-.37-.75-.53-1.14-.1-.22-.18-.44-.27-.66Z"/>
              <path class="cls-7" d="M76.15,100.73c-8.13-4.9-8.68-17.64,1.83-6.74,4.19,4.35,4.24,10.4-1.83,6.74Z"/>
              <path class="cls-7" d="M77.76,86.95c-5.12-3.28-8.68-8.69-5.78-14.54,8.74,4.99,7.97,15.28,5.78,14.54Z"/>
              <path class="cls-7" d="M77.6,112.44c-10.61-6.96,1.62-8.23,6.61-1.94,3.75,4.73-3,4.31-6.61,1.94Z"/>
            </g>
            <g>
              <path class="cls-7" d="M89.22,114.36c-.56-.81-1.08-1.84-1.57-2.66-4.84-8.01-6.66-17.71-7.46-26.89-.17,10.65,3.23,21.02,9.02,29.98,0-.14.01-.28.02-.43Z"/>
              <path class="cls-7" d="M80.95,60.27c5.59-3.22,1.29,14.38-.25,16.04-.24,1.58.03,3.9-.1,5.18-.11,1.05-.41,3.15-.42,3.32-.57-6.5.39-9.56.11-9.97-5.76-1.71-3.25-12.32.65-14.57Z"/>
              <path class="cls-7" d="M90.42,73.92c-.93,3.41-3.3,6.63-6.77,7.76-1.51.5-.57-4.03-.35-4.63,1.95-5.22,9.11-10.41,7.12-3.13Z"/>
              <g>
                <path class="cls-7" d="M88.75,110.54c-10.3-15.8,8.95-29,1.61-2.96l-1.61,2.96Z"/>
                <path class="cls-7" d="M83.12,94.97c-.3-2.41-1.54-5.68-.57-8.01,3.59-8.58,9.82-.62.57,8.01Z"/>
              </g>
            </g>
          </g>
        </g>
        <g>
          <path class="cls-25" d="M121.75,121.71c-.5-1.47-1.36-5.17-5.73-9.43-2.82-2.75-5.81-4.38-7.96-4.74-1.44-.2-2.74-.16-3.92.02-2.25-.1-5.68,1.45-7.92,3.23-5.87,4.68-4.57,12.46,1.08,15.84.25.15.53.29.82.43,3.24,1.76,5.75,1.8,9.2,1.91,0,0,6.24.41,14.03-2.74.47-.19,1.41-.71,1.41-.71,0,0-.22-2.03-1.01-3.82Z"/>
          <path d="M90.37,107.58c2.64,2.22,6.39-6.16,17.05-5.19,8.72.79,15.56,12.06,15.24,22.28-1.16-2.08-2.23-5.18-2.57-5.54-.05-.06-.18.02-1.29-.86,1.16-4.03-6.96-10.25-10.73-10.73-6.55-.85-10.77,2.43-13.74,7.73-.14.25-.58,1.17-.86,2.15-1.13,3.97,1.02,7.74,4.65,9.65-.74,0-3.81-1.99-4.23-2.35-4.02-3.43-7.61-12.5-7.56-18.15-.1-1.1.31-4.58.83-3.19.99,2.65,2.45,3.56,3.2,4.2Z"/>
          <path d="M107.08,120.44c1.9-.49,2.53-3.14,2.21-4.87,11.2-1.45,3.91,16.24-2.21,4.87Z"/>
          <path class="cls-5" d="M120.1,120.1c0-.2-.04-.38-.05-.58,0-.14,0-.27,0-.41,0,0-.02-.02-.04-.02-.84-6.6-8.39-11.1-11.98-11.57-.36,1.44-2.68,2.49-3.43,3.86-.15.27-.81,2.12,0,2.15,2.03-.08,2.65.33,3.43.43.07.43,1.27,1.61,1.29,1.72,10.87-1.4,3.79,15.75-2.15,4.72-2.27.58-4.3-1.57-4.72-.64.81,3.73,1.27,6.93,4.72,8.8,1.25.67,3.25.49,7.72-.31,3.74-.67,4.99-4.57,5.14-8.2.02.01.05.04.06.05Z"/>
          <path class="cls-25" d="M171.89,110.69c.9-.18,3.78-.53,5.05-.47,2.94.16,5.9,2.18,5.9,2.18,7.28,5.07,10.16,9.31,3.22,16.31-.69.31-2.85,1.25-3.01,1.29-5.74,1.41-21.22,1.35-27.05-2-.02,0-.03-.02-.05-.03-.3-.17-.26-2.91.05-3.98,3.45-6.78,7.95-12.16,15.89-13.31Z"/>
          <g>
            <path d="M192.07,114.56c2.17,1.76,3.7.7,5.24-1.17.9-.99.81-1.56,1.05-1.23.27.39.27,1.84-.33,3.75-1.37,4.31-5.27,9.83-11.96,12.82,6.94-7.01,4.06-11.25-3.22-16.31,0,0-1.92-1.42-5.58-2.15-1.82-.36-3.59.17-5.37.43-7.94,1.15-12.44,6.53-15.89,13.31,1.51-13.76,12.07-22.65,26.4-17.6,5.73,2.02,8.22,6.99,9.66,8.16Z"/>
            <path class="cls-5" d="M185.2,118.85c-.19-2.4-3.14-7.78-7.94-8.59-1.83-.31-3.59.17-5.37.43-4.27,6.01-2.22,3.07,1.5,4.29.41.13,1.13.82,1.5,1.29.24.3,1.52.19,3.86.86,4.97,5.8-3.02,11.68-6.44,4.72-1.91.28-4.19-1.74-4.29-1.5.28,14.31,18.69,12.68,17.17-1.5Z"/>
            <path d="M178.76,117.13c4.97,5.8-3.02,11.68-6.44,4.72,2.32-.34,3.84-3.51,2.58-5.58,1.66-.19,2.83-.01,3.86.86Z"/>
          </g>
        </g>
        <path class="cls-2" d="M216.23,150.67l1,2c1,2-3,3-3,3-1.16.37-2,1-3,0l1-5c1-2,3.66-.46,4,0Z"/>
        <g>
          <path class="cls-14" d="M217.23,158.67c0-2,0-5-1-6s-1.79-2.03-3-1c-.85.72-1.85,4.6-2,7-.05.8.36,3.41,1.05,3.95,1.97,1.52,3.28,1.28,3.96.21,1.99-3.16.99-2.77.99-4.16Z"/>
          <path class="cls-27" d="M217.78,157.87c-.22-2.79-.45-4.83-1.55-5.2-3-1-1,3-4,5-1.18.78-.56,3.32,0,4,3.39,4.13,5.76-1.04,5.55-3.8Z"/>
        </g>
        <g>
          <path d="M88.97,93.49c-.32-.04-.57-.26-.4-.54,1.23-1.98,4.66-7.32,6.9-8.78s9.41-4.96,14.55-3.99c4.03.76,4.14,4.49,4.17,6.11,0,.03-.02.06-.05.08-2.65,1.53-4.4.39-8.93.03-1.75-.14-3.24-.01-4.87.46-2.57.74-4.87,2.4-7.04,4.87-.66.75-2.7,1.96-4.34,1.76Z"/>
          <path d="M189.11,86.32c.11.55,2.3,3.22,2.88,5.4l-1.08,1.08c-14.83-10.29-26.1-.3-29.16-7.2,2.55-2.21,3.17-11.87,27.36.72Z"/>
        </g>
        <g>
          <path class="cls-22" d="M148.07,143.02c1.79,8-20.24,11.31-20.88,2.16,5.6,5.57,14.97,2.25,20.88-2.16Z"/>
          <g>
            <path class="cls-15" d="M166.44,149.5c2.64.26,5.03,1.58,6.12,3.96-8.51.6-12.2,25.11-29.16,27.72-25.18,3.88-14.91-25.59-27.72-19.8.7-9.31,39.85-.3,54.01-8.64l-3.24-3.24Z"/>
            <path class="cls-21" d="M161.4,158.15c4.44-.62-4.85,8.34-6.48,9.36-9.07,5.7-30.73,7.42-30.24-4.32,15.16,3.57,34.64-4.75,36.73-5.04Z"/>
          </g>
          <path class="cls-17" d="M131.87,139.42c2.21,1.67,5.3,2.24,5.4,2.52,1.58,4.52-6.69,4.93-5.4-2.52Z"/>
        </g>
      </g>
      <g>
        <g>
          <path class="cls-35" d="M248.27,262.72c-2.22-8.65-5.34-16.93-11.11-23.74-11.07-13.05-23.42-10.07-32.36-12.9-2.06,4.39-5.17,12.73-15.03,22.5,2.57,2.76,15.03-22.5,15.03-22.5l6.08,1.22s-13.69,34.81-5.93,48.21c4.39,7.58,7.04,14.75,7.42,16.51.4.93.73,1.9.99,2.91,1.01,2.25,4.19,13.89,3.39,22.57,1.01-.38,1.91-1.29,3.14-2.5,6.07-5.88,22.34-23.59,24.75-30.08.78-2.09,5-16.01,3.64-22.2Z"/>
          <g>
            <g>
              <path class="cls-6" d="M235.28,341.16c-.81,1.32-2.11,2.47-2.32,4.14-2.56-.6-6.44-1.15-9.82-1.89-2.06-4.22-2.75-11.56-3.84-14.48,9.97-1.15,14.07-1.97,23.4-5.18,7.46-2.56-.02,5.39-7.42,17.41Z"/>
              <path class="cls-6" d="M232.96,345.29c.22-1.66,1.51-2.82,2.32-4.14,6.58,2.85,14.43,4.72,18.76,10.99-6.4-3.68-13.9-5.17-21.09-6.85Z"/>
            </g>
            <path class="cls-30" d="M216.74,317.5c-.5,8.55,3.81,18.11,4.81,21.09.01.13,9.02,1.61,13.73,2.57-.01-.03.04-.1.13-.2-.04.07-.09.13-.13.2,6.58,2.85,14.43,4.72,18.76,10.99-6.4-3.68-13.9-5.17-21.09-6.85-2.56-.6-6.44-1.15-9.82-1.89-.12-.03-.25-.05-.37-.08.55.63,1.06,1.3,1.53,2,.22.34.42.68.63,1.02,5.52,1.46,10.98,3.12,16.51,4.58,2.25.59,4.51,1.16,6.79,1.64.52.11,4.99.83,4.85.89,1.95.2.74,6.18,2.69,6.19.69,0,7.43,2.87,8.15.92.88-2.38-.33-10.57-.39-12.19,0-.27-.99-17.99-2.48-31.43-7.49-35.69-8.29-42.92-13.21-55.77-.46-1.21-23.12,10.38-22.25,21.08-3.81,10.77-11.55,11.36-11.27,14.61.04.42,3.11,9.19,2.44,20.64Z"/>
          </g>
        </g>
        <g>
          <path class="cls-34" d="M177.08,467.2v2c-16.83,0-33.67,0-50.5,0l-1.5-3c17.19,1.8,34.75,2.58,52,1Z"/>
          <g>
            <g>
              <path class="cls-7" d="M234.42,68.79c.04-5.03-3.48-11.68-6.31-4.55-2.15,5.41-.1,14,1.92,13.53.49-.12,4.38-7.47,4.39-8.97Z"/>
              <path class="cls-7" d="M219.03,49.31c.12-9.49-10.42-16.68-6.7-2,1.48,5.85,6.6,9.08,6.7,2Z"/>
              <path class="cls-7" d="M242.2,93.19c-.01-.65.06-2.03-.82-2.22-.89-.19-12.46,8.52-10.01,12.55,1.62,2.67,10.94-4.53,10.83-10.34Z"/>
              <path class="cls-7" d="M238.81,80.75c-.07-11.85-7.86,2.7-7.72,6.72.35,9.81,7.75-2.17,7.72-6.72Z"/>
              <path class="cls-7" d="M206.47,43.41c-.09-6.08-2.81-11.96-9.31-12.58-.37,10.06,8.79,14.83,9.31,12.58Z"/>
              <path class="cls-7" d="M228.21,56.71c-.32-12.68-7.85-2.97-5.13,4.59,2.04,5.68,5.24-.27,5.13-4.59Z"/>
            </g>
            <g>
              <path class="cls-7" d="M203.37,44.34c7.38,5.52,14.85,12.28,19.1,20.62,6.36,12.46,8.34,29.1,5.5,42.76-.7,3.35-1.61,6.22-2.87,8.96-1.07,2.33.1,1.29.56.24,10.92-25.03,1.32-58.44-22.29-72.57Z"/>
              <path class="cls-7" d="M182.12,32.05c-5.69,3.05,11.53,8.68,13.76,8.25,1.47.63,3.29,2.08,4.45,2.65.95.46,2.9,1.31,3.04,1.4-5.22-3.91-8.33-4.71-8.53-5.16,1.58-5.8-8.76-9.26-12.72-7.13Z"/>
              <path class="cls-7" d="M219.51,91.99c0,.08-.87.65-.9,1.37.37,3.98,2.73,5.61,3.79,7.2,10.18,7.4,4.99-5.54-2.89-8.57Z"/>
              <path class="cls-7" d="M188.73,47.3c3.39,1.01,7.37.69,10.16-1.66,1.22-1.02-3.13-2.61-3.75-2.74-5.47-1.1-13.65,2.25-6.41,4.4Z"/>
              <path class="cls-7" d="M226.82,118.24c.02.12.02.24.05.35,13.11.23,18.92-12.47,10.61-10.66-2.4.52-11.66,5.1-10.66,10.31Z"/>
              <g>
                <path class="cls-7" d="M226.57,77.31c.88-2.64-7.22-12.06-14.6-10.64,1.69,6.34,13.5,13.97,14.6,10.64Z"/>
                <path class="cls-7" d="M220.72,65.19c-7.99-17.09-26.46-6.9-.46.6l.46-.6Z"/>
                <path class="cls-7" d="M227.84,90.03c.79-1.5-3.09-6.59-5.86-8.01-12.47-6.39,3.25,12.96,5.86,8.01Z"/>
                <path class="cls-7" d="M210.46,52.2c-1.89-1.52-4.02-4.31-6.51-4.71-9.19-1.47-5.71,8.02,6.51,4.71Z"/>
              </g>
            </g>
          </g>
          <path class="cls-30" d="M175.66,199.73l5.34,10.57c3.2,6.33,8.9,11.04,15.72,13l12.46,3.57-18.07,36.71-66.92,22.87-31.48-2.26-.37-9.98,10-49.33s19.11-2.1,23.97-5.91c2.23-1.74,5.13-11.41,5.13-11.41,0,0,1.36,6.53,6.28,11.31,1.65,1.6,7.79,4.62,7.79,4.62l30.15-23.75Z"/>
          <path class="cls-35" d="M102.74,224.87c-7.49.57-11.19.92-18.26,5-10.19,5.89-21.07,27.06-18.45,32.29,3.46,6.92,8.04,33.79,15.05,39.79,1.88,1.61,7.09-21.72,9.55-22.77,3.35-2.64,11.05-50.07,11.05-50.07l1.06-4.25Z"/>
          <g>
            <path class="cls-16" d="M86.19,257.98c-.13-.48-.29-.89-.48-1.22l.48,1.22Z"/>
            <path class="cls-16" d="M90.04,281.35c1.92-4.11,4-9.35,1.88-8.88l-5.73-14.49c.9,3.26.56,9.8-.27,16.95-4.41.75-8.23-.87-8.23-.87,1.55,2.69,3.46,5.14,5.19,7.12,1.21,1.38,1.75,3.22,1.46,5.03-1.54,9.6-3.26,17.75-3.26,17.75l8.96-22.6Z"/>
          </g>
        </g>
        <g id="Generative_Object" data-name="Generative Object">
          <g>
            <path class="cls-31" d="M195.72,396.08c-2.29-.22-3.41.84-5.04,2.16-1.13.92-1.89,2.54-2.88,3.6-18.29,19.72-31.66,49.8-64.81,44.29,11.08,7.78,24.53,18.94,38.89,14.04-.69,3.34,13.87-.35,16.56-2.88-1.12,1.91,8.81,1.83,14.76,1.44,8.23-.54,16.03-3.51,24.12-4.32-1.98,14.41.53,15.46-13.32,20.88-27.18,10.65-122.99,18.56-114.86-21.6,46.05-14.16,82.62-27.8,105.14-73.45,2.06,1.5,1.83,12.2,1.44,15.84Z"/>
            <path class="cls-19" d="M196.44,356.47c1.02.6,2.05,1.38,2.16,1.44-16.52,37.98-33.19,61.49-73.09,76.33-18.59,6.91-38.79,8.93-56.53,18-.63-2.57.3-15.21.72-19.08,1.05-9.67,12.4-55.42,15.84-64.09,2.6-6.54,8.31-13.3,9.36-15.48,38.92-36.13,15.37-9.38,2.88,10.44-7.31,11.6-20.74,33.98-3.24,20.52l1.08,1.08c-15.7,15.62-21.41,34.9-20.52,56.53,51.98-5.81,94.97-42.39,121.34-85.69Z"/>
            <path class="cls-13" d="M236.04,418.4c2.24,8.56,4.2,17.22,7.2,25.56-4.66,2.82-24.48,7.66-25.92,10.44-8.1.81-15.9,3.78-24.12,4.32-5.95.39-15.88.47-14.76-1.44.15-.14,1.66-2.8,2.16-3.6,1.27,3.72,9.08-7.18,10.8-11.16,6.57-15.15,5.79-43.55,7.92-20.52-.82,11.47-4.06,26.4-3.6,27.72,1.2,3.48,13.41.8,14.76-.36,4.22-3.63,1.5-64.19-7.56-70.57.75-2.15,7-13.63,9.36-12.6,5.38,24.69,12.2,49.14,15.84,74.17h1.44c.66-18.77-8.3-20.01,6.48-21.96Z"/>
            <path class="cls-31" d="M223.08,367.99c3.16,17.1,8.57,33.65,12.96,50.41-14.78,1.95-5.82,3.19-6.48,21.96h-1.44c-3.64-25.03-10.46-49.48-15.84-74.17-2.36-1.03-8.61,10.45-9.36,12.6-1.36,3.89-1.7,8.16-2.16,12.24-3.86,15.2-12.55,50.4-20.16,62.65-.5.8-2.01,3.46-2.16,3.6-2.69,2.53-17.25,6.22-16.56,2.88,17.36-5.92,32.06-47.5,33.84-64.09.39-3.64.62-14.35-1.44-15.84,3.21-6.51,5.03-13.81,8.64-20.16,5.67,2.82,14.16,6.53,20.16,7.92Z"/>
            <path class="cls-13" d="M202.92,360.07c-3.61,6.35-5.43,13.66-8.64,20.16-22.52,45.65-59.08,59.29-105.14,73.45-6.61-1.6-18.28,6.23-20.16-1.44,17.74-9.07,37.94-11.09,56.53-18,39.9-14.84,56.57-38.35,73.09-76.33,1.4.77,2.89,1.45,4.32,2.16Z"/>
            <path class="cls-31" d="M253.33,270.06c3.97,5.57,4.3,6.09.15,10.55-.39.42-11.1,7.66-11.56,8.13-1.86,1.88-14.88,12.34-23.15,22.36-.08-.28-3.52,1.86-.72-3.96.99-2.05,18.31-18.8,21.6-24.84.42,3.71,9.4-8.24,13.68-12.24Z"/>
            <path class="cls-19" d="M183.47,347.83c-17.19,26.06-49.3,53.08-79.57,61.93,29.15-16.56,55.35-38.2,77.41-63.37.1.08.64.31,2.16,1.44Z"/>
            <path class="cls-13" d="M195.72,396.08c-1.79,16.59-16.48,58.17-33.84,64.09-14.35,4.89-27.8-6.26-38.89-14.04,33.15,5.52,46.52-24.57,64.81-44.29-.78,5.48-6.11,20.89-8.64,26.28-3.84,8.2-10.06,19.98-19.8,21.96-1.04.21-24.99,1.07-6.48,2.88,24.55,2.4,33.02-34,38.53-52.21.2-.65.24-2.59-.72-2.52,1.63-1.33,2.75-2.38,5.04-2.16Z"/>
            <path class="cls-19" d="M187.8,401.84c.99-1.06,1.75-2.68,2.88-3.6.96-.07.92,1.87.72,2.52-5.5,18.21-13.97,54.6-38.53,52.21-18.51-1.81,5.44-2.67,6.48-2.88,9.74-1.98,15.97-13.77,19.8-21.96,2.53-5.4,7.86-20.81,8.64-26.28Z"/>
            <path class="cls-13" d="M239.64,282.3c-3.3,6.04-20.61,22.79-21.6,24.84-2.8,5.82.64,3.68.72,3.96.11.39-.12,1.1,0,1.44-.88-.08-.68.69-.72.72-5.62,4.13-9.82,14.92-11.52,21.6-.64-.1-3.52.93-12.96-.72.33-1.2-.74-1.71-.72-1.8.3-1.52,9.96-25.03,11.52-28.8,7.9-19.06,17.8-37.4,25.56-56.53-3.28,4.48-5.99,9.39-9,14.04-.5.77-1.39-1.03-1.8-.36-9.13,14.93-18.19,53.44-30.6,72.01-3.02-.69-7.83-.69-11.16-2.16-2.63-1.16-3.73-3.47-3.96-3.6,8.57-9.25,17.63-18.48,24.48-29.16,12.76-19.91,25.46-62.71,35.65-57.97,5.95,2.77-10.64,30.81-12.6,35.65-6.52,16.06-11.72,32.8-18,48.97,18.03-17.89,30.41-58.48,33.84-62.65,6.23-7.57,10.93,5.78,2.88,20.52Z"/>
            <path class="cls-31" d="M221.28,230.45c-10.6-.86-17.19,16.5-27.72,29.16-16.47,19.81-39.56,37.77-58.41,55.3-10.22,2.61-29.51,23.62-36.64,30.75-.62,1.16-1.58,2.47-2.16,3.6-.1.2-.42,2.2-1.44,4.32,38.92-36.13,15.37-9.38,2.88,10.44-7.31,11.6-20.74,33.98-3.24,20.52l1.08,1.08c-15.7,15.62-21.41,34.9-20.52,56.53,51.98-5.81,94.97-42.39,121.34-85.69-3.43-2.02-9.76-6.26-12.96-8.64-17.19,26.06-49.3,53.08-79.57,61.93,29.15-16.56,55.35-38.2,77.41-63.37-.06-.05-.66-1.39-.72-1.44-2.21-2.06,30.22,20.3,37-.06,2.66-8,3.71-8.74.56-21.65-5.65-23.15-9.94-69.47-10.93-67.59,4.12-.71,15.76-24.05,14.04-25.2Z"/>
            <path class="cls-13" d="M207.24,255.66c-.8,1.53-.67,2.06-.72,2.16-4.6,8.46-25.88,37.74-46.54,64.99-17.62,23.23-44.78,63.43-50.8,69.52-.22-.08-14.26-4.61-7.34-15.25,10.56-16.25,53.71-59.47,53.56-59.49,17.9-18.47,34.15-38.61,48.25-60.13.83-1.27,10.67-19.49,11.52-17.28-2.92,5.01-5.24,10.36-7.92,15.48Z"/>
            <path class="cls-13" d="M165.27,324.94c-.83-.42-50.6,63.52-50.82,63.44,4.71-18.45,83.55-114.88,92.07-130.56,5.27,2.46,1.31,1.15,0,3.24-12.92,20.63-24.36,46.17-41.25,63.88Z"/>
            <g>
              <path class="cls-13" d="M253.33,270.06c-4.28,4.01-13.26,15.95-13.68,12.24,8.05-14.74,3.35-28.09-2.88-20.52-3.43,4.17-15.82,44.76-33.84,62.65,6.28-16.17,11.49-32.91,18-48.97,1.96-4.84,18.55-32.87,12.6-35.65-10.18-4.74-22.88,38.06-35.65,57.97-6.85,10.68-20.27,33.34-28.84,42.59-6.21,8.85-55.7,54.8-57.6,53.46-.93-.66,54.32-72.14,53.32-72.65,16.89-17.71,28.85-39.5,41.77-60.13,1.31-2.09,5.27-.78,0-3.24.05-.1-.08-.63.72-2.16,4.12-.71,15.76-24.05,14.04-25.2-10.6-.86-17.19,16.5-27.72,29.16-19.17,23.06-43.61,41.23-64.81,62.29-3.96,1.66-4.86,4.55-5.76,5.04-10.09,2.26-17.29,11.52-24.48,18.72.36-.67,1-6.83,5.76-14.04,2.14-3.24,20.37-21.51,25.2-26.28,12.63-12.47,26.65-23.34,38.89-36.37,4.56-4.86,9.08-10.15,13.59-15.6,8.19-9.9,8.69-23.04,16.93-32.16,4.87,1.69,18.78,4.89,23.85,6.35,22.88,7.89,18.97,15.09,23.44,25.06,2.35,5.25,5.89,13.53,7.16,17.43Z"/>
              <path class="cls-31" d="M201.84,236.21c2.09-.35-.36,3.99-1.08,5.4-14.47,28.32-56.07,60.99-80.29,82.45-.12-.6,1.66-4.48,1.8-4.68,8.22-11.65,62.93-51.18,79.57-83.17Z"/>
              <path class="cls-31" d="M234.15,267.92c9.6-2.57-12.47,33.86-19.28,46.58-7.06-2.91,20.43-41.12,19.28-46.58Z"/>
            </g>
            <path class="cls-19" d="M199.32,422c.72-10,.38-21.47,1.44-30.96.46-4.08.8-8.35,2.16-12.24,9.07,6.38,11.78,66.94,7.56,70.57-1.35,1.16-13.56,3.84-14.76.36-.46-1.32,2.78-16.25,3.6-27.72Z"/>
            <path class="cls-31" d="M199.32,422c-2.13-23.02-1.35,5.37-7.92,20.52-1.72,3.98-9.53,14.88-10.8,11.16,7.61-12.25,16.31-47.45,20.16-62.65-1.06,9.49-.72,20.97-1.44,30.96Z"/>
            <path class="cls-31" d="M182.35,315.41c-1.55-.27,23.25-12.35,21.72-12.7,16.49-28.04,35.04-64.13,25.94-61.55,6.98-1.98-42.1,47.09-47.66,74.25Z"/>
            <path class="cls-31" d="M218.04,313.26l1.44,23.04c-8.29,1-12.3-1.34-12.96-1.44,1.7-6.69,5.9-17.47,11.52-21.6Z"/>
          </g>
          <path class="cls-31" d="M179.76,460.65s-41.98,10.73-60.99-9.22c-.57-.6-1.59-.4-2.41-.42-5.61-.17-25.38,4.61-23.76,11.15.25,1.01,1.89,12.68,5.7,15.94,7,6,43,8,67,7,14.33,0,54.02-11.14,55.03-16.18.97-4.82.96-11.49,1.96-17.49-24.85,13.74-42.54,9.22-42.54,9.22Z"/>
        </g>
        <path class="cls-19" d="M185.67,255.43l-40.39,43.7s-29.18,36.94-42.84,34.87c-10.16-1.54-20.18-12.69-20.04-29.21.04-5.09,2.87-13.96,4.56-18.45.35-.94-4.26-11.58-2.8-12.4,7.54-4.22,37.6-13,42.14-14.61,25.81-9.18,42.43-15.61,54.49-22.31,14.95-8.29,14.27-17,18.07-15.81,8.75,2.73-6.44,27.17-13.2,34.21Z"/>
        <path class="cls-31" d="M132.32,264.33c-1.49.87-1.66,1.39-1.76,1.45-15.56,8.73-26.24,16.27-44.35,20.52-.37-.47-.37-5.61-.56-5.79,24.98-6.11,19.28-5.85,42.67-16.57,1.38-.63,19.4-10.83,18.95-8.5-5.14,2.69-9.94,5.98-14.94,8.89Z"/>
        <path class="cls-13" d="M161.91,273.96c-12.06,13.99-40.29,53.45-59.21,60.4-1.91-.62,49.85-53.57,47.81-53.65-3.12,3.13-50.45,36.89-59.41,47.42,11.41-17.49,36.52-33.13,57.22-56.85,4.25-4.87,10.02-5.59,16.94-10.92,5.74-4.42,19.42-9.59,23.27-14.29,1.12.99-25.92,27.06-26.63,27.88Z"/>
        <path class="cls-31" d="M141.52,286.15c-13.48,11.33-37.27,28.67-50.34,41.91,1.38,1.61,4.87,3.82,6.19,4.43,1.1.63,4.75,1.52,5.28,1.66.08.02,8.82-9.65,10.08-10.62,10.45-8.05,42.06-44.06,38.06-43.4-2.49,2.26-9.17,5.94-9.26,6.02Z"/>
        <path class="cls-13" d="M86.28,321.42c-3.53-5.12-6.21-17.01-1.48-29.01.85-2.15,24.89-9.82,27.39-10.48,6.35-1.69,15.68-10.49,23.34-12.89,3.49-1.09,42.48-28.03,46.49-28.05,0,0,29.69-29.36,16.56-10.45-4.41,6.35-50.9,38.33-53.36,41.32-5.36,6.49-28.12,26.4-28.8,27.01-5.81,5.23-30.14,22.55-30.14,22.55Z"/>
        <g>
          <path d="M45.69,187.74c-.06-.04-.72.02-.9-.45.52-.55.85.43.9.45Z"/>
          <g>
            <g>
              <path class="cls-2" d="M260.74,359.3c-16.79,20.09-65.22-2.36-83.65-13.86-.55-.96,7.3-8.46,8.21-9.62,3.21-4.09,5.53-6.94,7.85-11.73,7.79-16.04,1.98-17.73,2.44-20.66.03-.19,1.09-.46,1.22-1.04-.98.1-1.23.15-2.15.6.01,1.06-1.39,13.32-1.71,14.18-1.78,4.81-15.55,10.03-19.89,14.76-3.14-1.85-5.94-6.02-7.35-5.48-2.33,14.5-1.93,16.66,9.31,25.72,3.01,2.42,23.83,16.99,27.16,18.96,12.43,7.37,40.1,20.58,53.18,10.73,3.63-2.74,5.46-6.71,6.68-10.94.97-3.34,1.5-6.85,1.87-10.37-1.11-.32-2.17-.74-3.18-1.26Z"/>
              <g>
                <path class="cls-30" d="M194.66,302.99c.01,1.06-1.39,13.32-1.71,14.18-1.78,4.81-15.55,10.03-19.89,14.76-3.14-1.85-5.94-6.02-7.35-5.48.34-2.13.81-4.26,1.23-6.38,15.51,10.46-1.01.64,2.27-5.17,16.88,9.3,14.35,4.25-.45-1.61.12-.48.16-.99.28-1.47.08-.32.1-.66.19-.98.83-.7.63-1.35.87-1.87,5.8,1.25,11.29,5.02,17.74,5.7-12.69-8.6-18.63-2.18-9.7-11.79,18.67,14.65,13.33,7.28-.42-3.13q.3-2.23.6-4.47c2.06-2.41,2.44-1.56,3.51-2.38,2.49-1.92-2.42-4.68,10.35.46-.12-6.59,2.4,3.81,2.48,9.64Z"/>
                <path class="cls-2" d="M166.94,320.07c.03-.16.06-.33.09-.49.3-1.44,1.22-4.32,1.72-6.29,14.81,5.87,17.33,10.92.45,1.61-3.28,5.8,13.25,15.63-2.27,5.17Z"/>
                <path class="cls-10" d="M170.09,308.97c1.97-4.37,5.85-7.39,6.43-12.26.87-1.35,1.73-1.35,1.8-1.44q-.3,2.23-.6,4.47c13.75,10.41,19.09,17.78.42,3.13-8.93,9.61-2.99,3.19,9.7,11.79-6.45-.68-11.94-4.45-17.74-5.7Z"/>
                <path class="cls-10" d="M185.65,298.21c5.87,6.25,5.17,9.47-.39.69l.09-.49.29-.2Z"/>
              </g>
            </g>
            <path class="cls-30" d="M254.77,352.77c-5.93-5.36-16.23-5.92-23.42-7.6-2.56-.6-6.44-1.15-9.82-1.89-10.61-2.32-21.22-4.15-31.82-6.62-.22-.05-.63,1.01-4.42-.85-.91,1.16-8.76,8.67-8.21,9.62,18.44,11.5,70.04,35.21,86.83,15.12l-2.65-8.19-6.49.4Z"/>
          </g>
        </g>
        <g>
          <g>
            <path class="cls-29" d="M52.47,203.42c1.33-.36,5.38-1.53,6.34-1.96,1.18-.53,4.43-1.51,1.72-2.8-5.27-2.51-19.14,4.18-24.33,5.92-1.33.45-1.59,1.09-2.15.76-.08.33.18.45.1.79,6.11-.36,12.39-1.1,18.31-2.72Z"/>
            <path class="cls-20" d="M60.54,198.66l.7-2.02c-8.92-3.11-18.11,2.85-25.03,7.95,5.18-1.74,19.06-8.44,24.33-5.92Z"/>
            <path class="cls-18" d="M116.55,413.05c.04-1.29-.35-2.53-.58-3.79-.4-2.23-4.01-14.74-5.4-20.37-4.71-19.05-24.89-67.41-29.1-84.84-8.7-36.04-14.34-95.35-16.76-105.46q-.3-.48-.61-.97c-.95-.33-1.91-.66-2.87-.99l-.7,2.02c2.7,1.29-.54,2.27-1.73,2.8,2.93,10.71,4.55,21.76,7.24,32.52.75,2.99,6.58,21.14,6.62,22.3.37,10.67,25.75,109.56,30.78,128.07,2.79,10.29,7.09,20.18,9.4,30.63.55-.31,3.57-1.71,3.69-1.93ZM82.02,267.72c-.06-.24-.12-.47-.18-.71.07-.04.12-.07.19-.12,0,.32,0,.56-.01.83Z"/>
            <path class="cls-20" d="M110.47,416.42c-.55.25-9.77,1.63-10.84,2.01-6.76-27.92-8.09-67.15-8.98-63.61-2.22-8.77-4.62-16.87-8.88-24.48,0-.02-12.86-33.2-10.51-48.3-.09.01-.19-.03-.28.01-2.23-14.39-14.08-63.43-17.35-76.53-.16-.65-.46-1.99-1.16-2.1,1.33-.36,5.38-1.53,6.34-1.96,2.93,10.71,18.83,73.5,19.56,81.13,2.88,12.67,11.55,45.53,11.68,45.59,5.45,18.45,8.37,37.66,13.39,56.17,2.79,10.29,7.09,20.18,9.4,30.63-.76.43-1.6,1.09-2.39,1.44Z"/>
            <path class="cls-9" d="M95.08,420.53c-.76.09-6.44.51-6.72.32-.35-1.54-1.2-2.88-1.7-4.36-.63-1.88-1-5.45-1.49-7.69-.33-1.49-4.75-44.26-16.66-90.31-13.43-51.93-34.51-107.81-34.73-109.07-.16-.91-.25-1.79-.59-2.66.25-.19.89-.27.97-.61,6.11-.36,12.39-1.1,18.31-2.72.7.11,1,1.45,1.16,2.1,3.12,12.5,14.05,57.72,16.98,74.33.13-.06.25-.11.38-.17q1.46,10.51,2.92,21.02c-1.53-.32,13.79,42.42,16.75,54.12,2.48,9.8,4.37,21.14,6.58,31.16.89,4.03,2.5,8.08,3.36,12.11,1.18,5.56,2.08,18.21,4.45,19.85-2.45.73-7.7,2.32-9.96,2.59Z"/>
          </g>
          <g>
            <path class="cls-23" d="M20.13,188.73c1.37-.5,5.57-2.1,6.54-2.64,1.21-.67,4.56-2,1.58-3.12-5.81-2.19-19.91,6.14-25.25,8.45-1.37.59-1.59,1.3-2.21,1-.06.35.23.46.18.83,6.44-.92,13.03-2.28,19.16-4.52Z"/>
            <path class="cls-3" d="M28.25,182.97l.56-2.21c-9.73-2.5-18.93,4.64-25.81,10.65,5.34-2.31,19.44-10.64,25.25-8.45Z"/>
            <path class="cls-32" d="M106.72,405.13c-.07-1.37-.6-2.65-.95-3.96-.62-2.33-5.57-15.26-7.54-21.1-6.69-19.76-32.39-69.21-38.4-87.3-12.43-37.41-23.7-99.76-27.16-110.25q-.37-.48-.73-.97c-1.04-.27-2.08-.53-3.12-.8l-.56,2.21c2.98,1.13-.37,2.45-1.58,3.12,4.06,11.09,6.76,22.65,10.57,33.81,1.06,3.1,8.86,21.81,9.01,23.04,1.35,11.27,37.06,113.79,44.04,132.96,3.88,10.65,9.31,20.75,12.7,31.61.55-.38,3.63-2.13,3.74-2.38ZM57.17,254.22c-.08-.25-.17-.49-.25-.74.07-.05.12-.09.19-.15.04.33.04.59.06.89Z"/>
            <path class="cls-3" d="M100.58,409.25c-.56.31-10.2,2.6-11.31,3.1-9.65-28.98-14.56-70.42-15.19-66.6-3.13-9.09-6.4-17.46-11.59-25.15-.01-.02-16.58-34.03-15.45-50.24-.1.02-.2,0-.29.04-3.65-15.05-20.58-65.95-25.21-79.54-.23-.67-.66-2.07-1.42-2.12,1.37-.5,5.57-2.1,6.54-2.64,4.06,11.09,26.51,76.2,27.97,84.22,4.18,13.17,16.3,47.21,16.45,47.27,7.42,19.06,12.22,39.15,19.2,58.32,3.88,10.65,9.31,20.75,12.7,31.61-.77.53-1.6,1.3-2.4,1.74Z"/>
            <path class="cls-24" d="M84.64,414.97c-.8.17-6.78,1.12-7.09.94-.51-1.61-1.53-2.94-2.19-4.47-.83-1.94-1.54-5.69-2.26-8.01-.48-1.55-8.98-46.47-25.71-94.21C28.53,255.39,1.2,198.06.86,196.74c-.25-.95-.42-1.87-.86-2.76.24-.22.92-.37.97-.73,6.44-.92,13.03-2.28,19.16-4.52.75.05,1.19,1.45,1.42,2.12,4.42,12.97,20.03,59.9,24.62,77.24.13-.08.26-.14.39-.22q2.48,11.01,4.96,22.01c-1.65-.21,18.39,43.71,22.57,55.85,3.5,10.16,6.52,22.01,9.75,32.43,1.3,4.19,3.37,8.34,4.64,12.53,1.75,5.78,3.83,19.11,6.49,20.64-2.53.99-7.95,3.14-10.32,3.63Z"/>
          </g>
          <g>
            <path class="cls-30" d="M55.51,309.57c3.05.14,17.36-4.99,16.53,1.47-.63,4.87-20.75,7.13-24.98,6.55,12.16,3.3,23.71-3.21,25.09-3.21,4.31,0,7.35,2.65,4.68,6.02-3.47,4.36-25.89,3-28.22,6.16-5.28-1.14-5.96-8.42-7.2-12.63.04-4.17.08-25.36.15-23.77.16,4.24,4.42,16.68,6.12,19.59,1.11-.09,6.75-.23,7.84-.18Z"/>
            <path class="cls-30" d="M78.13,329.31c0,.08,4.55,4.44-12.17,11.36-.75.31-11.17,4.54-13.79-3.73,7.86-3.94,17.66-4.11,25.96-7.63Z"/>
            <path class="cls-6" d="M48.6,326.56c-1.54,2.09.19,6.13,2.42,7.1,2.83,1.23,23.2-3.18,26.9-5.91,0,1.02.22,1.32.2,1.57-8.31,3.52-18.1,3.69-25.96,7.63-.63.32-1.48.33-2.16.59-6.42-7.92-8.69-13.67-8.6-23.61,1.24,4.2,1.91,11.48,7.2,12.63Z"/>
            <path class="cls-8" d="M54.14,342.43c-2.32-.94-2.84-3.29-4.13-4.89.67-.26,1.52-.28,2.16-.59,2.62,8.27,13.07,4.1,13.79,3.73,5.72-2.92-6.55,3.87-11.81,1.75Z"/>
            <path class="cls-30" d="M79.19,323.92c.11,2.15-1.26,3.63-1.26,3.83-3.7,2.73-24.07,7.15-26.9,5.91-2.23-.97-3.97-5.01-2.42-7.1,1.11.24,15.31-1.15,17.89-1.57,6.63-1.08,10.04-5.32,12.7-1.07Z"/>
            <path class="cls-6" d="M79.19,323.92c-2.66-4.26-6.07,0-12.7,1.07-2.58.42-16.78,1.81-17.89,1.57,2.33-3.16,24.76-1.8,28.22-6.16,1.02,1.5,2.25,1.24,2.36,3.52Z"/>
          </g>
        </g>
      </g>
      <g>
        <path class="cls-26" d="M128.38,112.71c0,15.74-15.3,27-28,27s-19-10.26-19-26,9.3-22,22-22,25,5.26,25,21Z"/>
        <path class="cls-26" d="M207.38,113.9c0,22.81-17.9,29.81-32.77,29.81s-22.23-11.33-22.23-28.71c0-20.29,10.88-24.29,25.74-24.29,19.26,0,29.26,5.81,29.26,23.19Z"/>
        <g>
          <path d="M212.38,122.71c4.16-9.68-4.33-20.72-5.73-23.8-2.17-4.77-6.05-8.24-9.27-9.2-2-.6-6-1-13-1-6,0-29-3-34.5,13.71-7.21-3.06-12.58-2.59-20-1-1.5-2.71-5.52-11.66-20.5-12.71-1.93-.13-9.16-.71-16,1-8,2-7.86,2.86-10,5-2.22,2.22-4.6,9.78-5,18-.35,7.04,2,17,3,19,.63,1.26,3,6,5.75,7.46,8.64,4.97,15.01,4.96,21.25,4.54,15-1,26.35-18.47,26-32.79,21.23-1.93,7.52,3.43,18.25,22.75,2.56,4.62,9.75,11.04,16.75,13.04,4.9,1.4,14.82,1.78,23-2,13-6,17.7-16.64,20-22ZM126.13,115.42c-.26,7.54-3.33,13.47-8.14,17.34-6.18,4.97-15.23,6.52-24.86,3.66-5.75-1.71-7.78-6.29-8.75-8.71-4-10,0-24,1-27,1.92-5.77,10.39-7.67,16-8,8.61-.51,17.34.25,21.75,8.71,2.09,4,3.16,9.45,3,14ZM159.13,133.67c-3.52-4.73-5.36-13.94-5.5-19.75-.37-15.93,5.18-19.09,20-20.5,5.57-.53,11.46-.87,17,0,.81.13,2.43.35,3,.5,2.12.56,4.25,1.34,5.79,2.84.47.46,4.36,5.98,5.96,16.95.49,3.39,0,8-1.72,12.65-.01.02-.02.03-.04.05-8.92,20.35-36.11,18.5-44.5,7.25Z"/>
          <path class="cls-36" d="M226.1,107.93c-.51-.71-12.85-7.97-15.03-8.89-2.45-1.04-4.78-2.3-5.2-1.97.57,2.38,7.75,12.97,7.56,18.78-.03.91,1.94,1.11,1.94,1.11l.1-.78c9.11.38,12.15-1.51,15.04.62-.21-1.64-3.59-7.73-4.4-8.87Z"/>
          <g>
            <path class="cls-4" d="M79.69,103.44l-10,4.5c-.53-1.11-2.64-9.66-1.25-10.5,22.79-3.44,17.71-10.26,11.25,6Z"/>
            <path d="M79.69,103.44q-.62,5-1.25,10c-3.24-2.09-6.93-1.68-8.75-5.5l10-4.5Z"/>
          </g>
          <path d="M224.61,123.36c.37-.18,4.84-5.6,5.88-6.56-2.73-2.01-5.98-.95-13.59-.61-9.56-.34-10.25-3.54-10.25-3.54l.63,3.1c-.08.54.19,2.49.46,4.47l4.41,2.9c3.7-3.78,5.28-4.79,9.33-3.29,2.07,1.2,2.74,2.94,3.13,3.54Z"/>
        </g>
      </g>
    </g>
  </g>
</svg>