<?xml version="1.0" encoding="UTF-8"?>
<svg id="Layer_2" data-name="Layer 2" xmlns="http://www.w3.org/2000/svg" viewBox="0 0 369.12 504.61"><defs>
    <style>
      .cls-1 {
        fill: none;
      }

      .cls-2 {
        fill: #c45f41;
      }

      .cls-3 {
        fill: #d56d4a;
      }

      .cls-4 {
        fill: #2d0903;
      }

      .cls-5 {
        fill: #232323;
      }

      .cls-6 {
        fill: #f9fbfd;
      }

      .cls-7 {
        fill: #3a310b;
      }

      .cls-8 {
        fill: #8e3226;
      }

      .cls-9 {
        fill: #79829c;
      }

      .cls-10 {
        fill: #f7b750;
      }

      .cls-11 {
        fill: #a34737;
      }

      .cls-12 {
        fill: #6f2123;
      }

      .cls-13 {
        fill: #a34faf;
      }

      .cls-14 {
        fill: #281a26;
      }

      .cls-15 {
        fill: #65687d;
      }

      .cls-16 {
        fill: #f0935d;
      }

      .cls-17 {
        fill: #bdeded;
      }

      .cls-18 {
        fill: #c12e4b;
      }

      .cls-19 {
        fill: #0c191f;
      }

      .cls-20 {
        fill: #080707;
      }

      .cls-21 {
        fill: #f8ae89;
      }

      .cls-22 {
        fill: #dd8462;
      }

      .cls-23 {
        fill: #78347f;
      }

      .cls-24 {
        fill: #451249;
      }

      .cls-25 {
        fill: #fbfbfc;
      }

      .cls-26 {
        fill: #2e1638;
      }

      .cls-27 {
        fill: #cc5637;
      }

      .cls-28 {
        fill: #fcf8e9;
      }

      .cls-29 {
        opacity: .2;
      }

      .cls-29, .cls-30 {
        fill: #7aebe9;
      }

      .cls-31 {
        fill: #ac4a30;
      }

      .cls-32 {
        fill: #c9892d;
      }

      .cls-33 {
        fill: #e6794d;
      }

      .cls-34 {
        fill: #efd870;
      }

      .cls-35 {
        fill: #661b6a;
      }

      .cls-36 {
        fill: #90eaeb;
      }

      .cls-37 {
        fill: #8f919e;
      }

      .cls-38 {
        fill: #13192b;
      }

      .cls-39 {
        fill: #d7643c;
      }

      .cls-40 {
        fill: #dc5c47;
      }

      .cls-41 {
        fill: #c94836;
      }

      .cls-42 {
        fill: #f9efed;
      }

      .cls-43 {
        fill: #95409b;
      }

      .cls-44 {
        fill: #f09c7f;
      }

      .cls-45 {
        fill: #a83b2e;
      }

      .cls-46 {
        fill: #d8f6fb;
      }

      .cls-47 {
        fill: #353535;
      }

      .cls-48 {
        fill: #cae9ed;
      }

      .cls-49 {
        fill: #320532;
      }

      .cls-50 {
        fill: #1d121b;
      }
    </style>
  </defs>
  <g id="POLITICS">
    <g>
      <g>
        <g>
          <path class="cls-27" d="M213.61,194.37c-9.09,11.59-21.81,20.53-36,24.5-2.36-3.08-5.37-5.97-6-10-.45-2.9.19-7.89.5-11,.07-.73.15-4.25.5-4.86,12.44,2.19,27.65-1.76,38.5-7.64,1.21,2.88,1.66,6.03,2.5,9Z"/>
          <path class="cls-33" d="M215.61,199.87c.39,2.05.72,4.18,1,6.25-7.26,8.67-18.31,15.14-29,18.75-2.48.84-1.89.97-2,1-.74.17-.36.73-2.5-.5-.28-.16-1.31-.83-1.5-1-.26-.22-3.39-4.71-4-5.5,14.19-3.97,26.91-12.91,36-24.5.67,2.38,1.94,5.17,2,5.5Z"/>
        </g>
        <g>
          <path class="cls-16" d="M244.38,96.87s-6.44-19.74-10.08-25.56c-4.81-7.69-19.05-20.76-27.72-23.4s-26.18-2.64-36.4-.73c0,0-32.82,1.73-41.14,39.7-.94,4.3,3.47,25.35-1.5,42.9-.09.32-.14.65-.14.98v7.55c2.59,9.21,3.89,21.19,12.53,31.65,7.61,9.21,31.57,23.86,35.88,24.27,2.26.08,9.06-1.41,19.05-5.59,9.16-3.84,22.2-12.35,27.89-20.52,2.79-4.01,12.29-22.94,10.07-25.68,7.3-3.43,16.67-4.19,16.67-15.97,0-5.05-2.94-19.94-5.1-29.59ZM144,145.06c1.03.09,2.08.13,3.16.11-1.03.04-2.09,0-3.16-.11ZM200.8,142.04c.99.49,2.08.94,3.27,1.35-1.16-.38-2.25-.83-3.27-1.35Z"/>
          <path class="cls-39" d="M249.27,126.28c.06-.09,1.34-1.31-1.39-12.61-.8-3.84-2.6-12.74-2.6-12.74,0,0-.45-.64-1.11-1.37-.54-.59-1.23-1.23-1.8-1.71-7.14-5.96-20.51-5.64-24.33-5.66-8.48-.09-16.76,1.17-20.81,6.02-4.18,5.01-3.97,13.78-2.53,24.56.31,1.3,1.12,4,1.08,3.36-.1-1.67,1.06-6.72,2.37-9.57,2.25-4.92,4.62-8.13,10.93-10.58,15.64-6.05,31.83,20.59,32.55,21.79-1.8,6.6-5.1,12.32-11.07,14.7,3.89.67-5.67,21.3-8.64,25.56-5.68,8.17-18.56,15.97-27.72,19.8-9.98,4.18-16.68,6.28-18.99,6.23.17.06.07.12.64.16,15.33,1.15,24.21-2.52,37.43-10,19.85-11.23,20.3-13.57,30.24-32.4,1.1-2.09,1.09-4.53,2.88-6.84.38-.49,9.73-1.54.72-7.92,13.28-19.13,20.35-3.89,12.96,6.48-6.8,9.55-18.62-4.15-10.8,11.88,25.69,5.04,20.19-57.31,0-29.16Z"/>
          <path class="cls-31" d="M249.27,155.45c-2.56-.5-3.24-2.94-5.76-3.6,1.1-2.09,1.09-4.53,2.88-6.84.38-.49,9.73-1.54.72-7.92,13.28-19.13,20.35-3.89,12.96,6.48-6.8,9.55-18.62-4.15-10.8,11.88Z"/>
        </g>
        <path class="cls-21" d="M127.69,137.04c3.5,16.27,5.03,23.58,11.87,32.34,4.4,5.63,24.09,20.16,35.68,24.72-5.49-.09-34.05-16.97-40.23-24.75-6.68-8.4-8.31-18.44-8.47-25.05-.04-1.66.29-4.97.48-6.62.08-.68.39-2.73.39-2.73,0,0,.18,1.59.29,2.09Z"/>
        <path class="cls-33" d="M136.93,100c-1.88.06,1.36-4.44,2.23-6.28,1.06-2.92,1.12-6.36,2-9.25,6.04-19.79,23.82-27.78,10.5-24.25-10.51,2.79-20.82,35.08-21.94,44.67,0,.01.18,6.15.18,6.15,2.51-3.22,3.62-4.22,7.97-6.63,8.46-4.67,18.39-1.27,22.4,9.26.04.12,2.35,10.41,2.39,11.24.02.42.04-9.38.19-10.88-.96-13.22-15.39-14.39-25.92-14.04Z"/>
        <g>
          <path class="cls-33" d="M127.42,135.33c-10.31,3.67-5.4,11.06-2.85,18.16-12.38-9.8-7.4-25.37-2.57-25.81.6-.05,2.57-.04,3.82.89,1.15.86,1.63,1.73,1.63,1.73,0,0,0,3.37-.04,5.02Z"/>
          <path class="cls-39" d="M125.29,130.45c.86-.04,2.13,1.32,2.1,4.07-.03,2.31-.95,7.35-.78,11.64,0,0,.48,5.68,1.6,9.55-1.36-.54-2.49-1.3-3.64-2.21-2.55-7.1-9.59-19.37.72-23.04Z"/>
        </g>
        <g>
          <path class="cls-14" d="M320.49,148.94c-.14-.13-.31-.32-.48-.48-.31-18.33-12.21-12.48-19.34-17.19-4.6-3.04-7.83-19.38,14.08-18.38,5.56,7.95-13.96,6.35-11.94,10.5.48.99,15.1,6.07,17.19,8.59,3,3.63,2.98,13.91.48,16.95Z"/>
          <path class="cls-50" d="M73.67,132.71c-.77,1.33-4.97,3.92-3.34,11.94-5.77-2.09-14.97-2.67-13.84-10.74,1.81-13.02,15.73-1.17,17.19-1.19Z"/>
          <path class="cls-50" d="M86.08,115.04q.48,4.42.95,8.83-6.68,4.42-13.37,8.83c.54-.92,2.18-2.06,2.39-2.63,2-5.39-4.36-9.36-3.82-14.8l13.84-.24Z"/>
          <path class="cls-50" d="M327.65,80.19c-4.37-2.21-5.02-1.55-9.55-2.63,2.76-7.37,4.11-10.61,0-17.43-.52-.4-.64-.5,0,0-3.84-6.37-10.77-9.34-17.9-6.21-2.75-.54.94-5.86-9.79-11.7,8.37-15.47-11.31-28.07-21.24-13.61C251.56,8.83,226.92.05,202.33,13.35c-16.73-18.96-48.35-16.68-65.64.24-1.68,1.64.06,3.99-12.65,9.31-1.97.09-9.93-10.8-21.24-1.43,0,0,0,0,0,0-2.89,2.39-5.59,6.4-5.73,10.26-.03.76,1.65,8.46,1.91,8.83-1.18.2-2.31.87-3.34,1.43-7.68,4.19-5.16,3.47-8.83,10.98-18.35-1.5-25.18,16.33-12.17,28.88-2.57.83-5.11,1.11-7.64,2.15-1.99.82-3.19,1.37-4.77,2.86-9.07,8.54-4.83,20.54,5.73,25.06.64,1.79-3.89,4.36,0,13.37-18.05-2.07-24.49,18.34-7.64,26.26-3.6,8.83,2.84,20.44,12.65,16.95,7.94,7.76-1.98,7.84-.24,18.86,1.36,8.6,13.51,14.07,20.77,8.83,10.25,4.27,5.3,4.94,8.83,9.79,4.51,6.19,15.68,5.61,20.77.24,1.38.31.67,13.47,19.1,10.98,4.44-7.84,5.94-2.38,12.89-5.73,5.18-2.5,5.11-9.42,10.26-4.77,2.74-3.89,3.15-8.08,6.93-11.28.07-.7.14-1.4.21-1.99-6.38-2.21-25.4-13.42-31.26-18.43-9.34-7.98-13.33-20.37-13.01-19.3-1.36-.54-2.49-1.3-3.64-2.21-12.38-9.8-7.4-25.37-2.57-25.81.6-.05,2.57-.04,3.82.89,1.13.85,1.61,1.7,1.63,1.73.9-3.64,1.92-8.38,2.1-11.67.91-5.89.92-15.31.93-15.49.51-7.83,10.9-38.47,20.04-42.53,5.38-2.39,10.25,1.5,16.95-8.12,21.88,12.34,30.33-2.24,31.99-2.86,6.58-2.47,8.32,5.19,8.83,5.49,13.69,7.91,27,21.42,30.54,26.98.47.73,2.46,5.84,3.64,9.46,3.7,11.31,6.79,34.73,6.79,34.73,0,0,3.9-5.64,7.37-6.78-.07-.05,3.66-1.35,6.46,1.78,5.22,5.85,4.58,25.77-3.74,31.97-4.96,3.7-10.25,2.94-13.43,0-1.22-1.12-2.42-1.4-2.42-1.4,0,0-.35.73-1,1.91-1.55,2.8-5.42,11.17-9.33,15.71-7.98,9.27-15.7,11.85-22.05,15.97.87,3.22,1.58,5.68,2.38,8.52.64,2.27,1.85,4.93,1.91,5.25,5.45.54,7.16,3.77,10.08,5.58.54.34,3.43.86,4.54.95,6.7,13.18,24.45,10.16,28.64-3.82,9.21,9.72,23.29,11.63,27.21-3.82,7.01.07,11.98.74,16.71-5.25,17.53,1.89,24.17-15.7,11.7-27.45l5.97-7.88c5.9,1.47,11.45.11,14.56-5.25,3.95-6.8,2.04-13.9-4.3-18.38,1.49-16.72-7.49-16.8-8.12-17.66-2.99-4.15,5.51-3.75,10.03-9.07,6.81-8.02,4.79-22.13-4.77-26.97"/>
          <path class="cls-14" d="M79.87,152.28c-.27.1-1.5,1.75-5.01,2.86-.56-.14-4.42-9.94-4.54-10.5-1.63-8.01,2.57-10.6,3.34-11.94q6.68-4.42,13.37-8.83-.48-4.42-.95-8.83c.1-2.73-8.04-6.86-13.37-10.5-2.1-4.42-1.05-9.85,1.91-13.84,8.45-3.78,19.02-1.63,19.1-7.88,0-.5-2.12-5.75-2.39-9.79-.72-10.74,14.06-12.77,15.28-14.08.5-.54,1.74-5.63,1.91-6.92,1.36-2.12,3.22-3.78,4.77-5.73,2.19-2.75,3.56-.4,1.91-8.83,15.43-17.14,14.53-10.69,36.04-7.88,3.21-.75,3.19-14.58,10.03-15.75,9.57-1.64,12.02,10.31,8.12,13.37-3.67,2.88-3.2-2.58-6.68-7.64-3.78,22.62-17.69,15.12-34.85,12.89-8.46,5.82-4.47,10.16-5.49,13.13-.28.81-7.63,7.08-8.12,8.12-3,6.43,5.2,5.22-16.71,16.71-2.36,5.97,9.05,16.27-6.92,23.15-4.57,1.97-16.64,2.16-13.37,6.21,2.66,3.28,15.27,6.03,15.99,17.43,1.43,22.72-26.97,10.24-13.37,35.09Z"/>
          <g>
            <g>
              <path class="cls-14" d="M214.74,15.26c12.02-1.13,20.75,19.49,43.44,11.94,11.03,14.64,20.32,10.14,15.52,27.93,2.48,1.22,11.9,9.52,12.65,9.79,5.27,1.89,20.78-2.81,15.99,16.47,4.52,1.56,20.47,7.85,22.44,11.46,2.26,4.16.7,12.42-4.06,14.08-11.08,3.87-.82-9.16-1.19-10.74-11.93-10.93-28.55-.8-21.96-23.39l-12.65-1.19c-8.03-10.55-12.63-7.74-15.52-11.22-7.65-9.25,11.94-21.6-18.86-17.43q-1.19-4.06-2.39-8.12c-11.72.38-21.94-6.33-31.03-12.89-4.05-.29-16.38,7.73-13.61-.72.59-1.81,9.15-5.77,11.22-5.97Z"/>
              <path class="cls-49" d="M259.62,32.93c2.95-.22-2.46,2.06-3.34,2.39-11.48,4.18-3.32-1.9,3.34-2.39Z"/>
            </g>
            <path class="cls-1" d="M161.27,13.83c-6.84,1.17-6.82,15.01-10.03,15.75-21.51-2.82-20.61-9.27-36.04,7.88,1.65,8.43.28,6.08-1.91,8.83-1.55,1.95-3.41,3.61-4.77,5.73h0c-.17,1.29-1.41,6.38-1.91,6.92-1.22,1.32-16,3.34-15.28,14.08.27,4.04,2.39,9.28,2.39,9.79-.07,6.25-10.64,4.1-19.1,7.88-2.96,3.99-4.01,9.42-1.91,13.84,5.33,3.64,13.47,7.78,13.37,10.5q-6.92.12-13.84.24c-.54,5.44,5.82,9.41,3.82,14.8-.21.57-1.85,1.7-2.39,2.63-1.46.02-15.38-11.82-17.19,1.19-1.12,8.08,8.08,8.65,13.84,10.74.11.56,3.98,10.36,4.54,10.5,3.52-1.11,4.74-2.77,5.01-2.86-13.6-24.85,14.8-12.37,13.37-35.09-.72-11.4-13.34-14.14-15.99-17.43-3.27-4.05,8.8-4.24,13.37-6.21,15.97-6.89,4.57-17.19,6.92-23.15,21.91-11.49,13.71-10.28,16.71-16.71.48-1.03,7.84-7.31,8.12-8.12,1.03-2.97-2.97-7.31,5.49-13.13,17.16,2.23,31.07,9.73,34.85-12.89,3.48,5.05,3.01,10.51,6.68,7.64,3.9-3.06,1.45-15.01-8.12-13.37Z"/>
            <path class="cls-1" d="M302.83,123.4c-2.02-4.15,17.5-2.56,11.94-10.5-21.91-.99-18.69,15.34-14.08,18.38,7.12,4.71,19.02-1.14,19.34,17.19.17.16.33.34.48.48,2.5-3.03,2.52-13.32-.48-16.95-2.09-2.52-16.71-7.61-17.19-8.59Z"/>
          </g>
        </g>
        <g>
          <path class="cls-28" d="M161.75,121.71c-.5-1.47-1.36-5.17-5.73-9.43-2.82-2.75-5.81-4.38-7.96-4.74-1.44-.2-2.74-.16-3.92.02-2.25-.1-5.68,1.45-7.92,3.23-5.87,4.68-4.57,12.46,1.08,15.84.25.15.53.29.82.43,3.24,1.76,5.75,1.8,9.2,1.91,0,0,6.24.41,14.03-2.74.47-.19,1.41-.71,1.41-.71,0,0-.22-2.03-1.01-3.82Z"/>
          <path d="M130.36,107.58c2.64,2.22,6.39-6.16,17.05-5.19,8.72.79,15.56,12.06,15.24,22.28-1.16-2.08-2.23-5.18-2.57-5.54-.05-.06-.18.02-1.29-.86,1.16-4.03-6.96-10.25-10.73-10.73-6.55-.85-10.77,2.43-13.74,7.73-.14.25-.58,1.17-.86,2.15-1.13,3.97,1.02,7.74,4.65,9.65-.74,0-3.81-1.99-4.23-2.35-4.02-3.43-7.61-12.5-7.56-18.15-.1-1.1.31-4.58.83-3.19.99,2.65,2.45,3.56,3.2,4.2Z"/>
          <path d="M147.08,120.44c1.9-.49,2.53-3.14,2.21-4.87,11.2-1.45,3.91,16.24-2.21,4.87Z"/>
          <path class="cls-7" d="M160.09,120.1c0-.2-.04-.38-.05-.58,0-.14,0-.27,0-.41,0,0-.02-.02-.04-.02-.84-6.6-8.39-11.1-11.98-11.57-.36,1.44-2.68,2.49-3.43,3.86-.15.27-.81,2.12,0,2.15,2.03-.08,2.65.33,3.43.43.07.43,1.27,1.61,1.29,1.72,10.87-1.4,3.79,15.75-2.15,4.72-2.27.58-4.3-1.57-4.72-.64.81,3.73,1.27,6.93,4.72,8.8,1.25.67,3.25.49,7.72-.31,3.74-.67,4.99-4.57,5.14-8.2.02.01.05.04.06.05Z"/>
          <path class="cls-28" d="M211.89,110.69c.9-.18,3.78-.53,5.05-.47,2.94.16,5.9,2.18,5.9,2.18,7.28,5.07,10.16,9.31,3.22,16.31-.69.31-2.85,1.25-3.01,1.29-5.74,1.41-21.22,1.35-27.05-2-.02,0-.03-.02-.05-.03-.3-.17-.26-2.91.05-3.98,3.45-6.78,7.95-12.16,15.89-13.31Z"/>
          <g>
            <path d="M232.07,114.56c2.17,1.76,3.7.7,5.24-1.17.9-.99.81-1.56,1.05-1.23.27.39.27,1.84-.33,3.75-1.37,4.31-5.27,9.83-11.96,12.82,6.94-7.01,4.06-11.25-3.22-16.31,0,0-1.92-1.42-5.58-2.15-1.82-.36-3.59.17-5.37.43-7.94,1.15-12.44,6.53-15.89,13.31,1.51-13.76,12.07-22.65,26.4-17.6,5.73,2.02,8.22,6.99,9.66,8.16Z"/>
            <path class="cls-7" d="M225.2,118.85c-.19-2.4-3.14-7.78-7.94-8.59-1.83-.31-3.59.17-5.37.43-4.27,6.01-2.22,3.07,1.5,4.29.41.13,1.13.82,1.5,1.29.24.3,1.52.19,3.86.86,4.97,5.8-3.02,11.68-6.44,4.72-1.91.28-4.19-1.74-4.29-1.5.28,14.31,18.69,12.68,17.17-1.5Z"/>
            <path d="M218.76,117.13c4.97,5.8-3.02,11.68-6.44,4.72,2.32-.34,3.84-3.51,2.58-5.58,1.66-.19,2.83-.01,3.86.86Z"/>
          </g>
        </g>
        <path class="cls-2" d="M256.23,150.67l1,2c1,2-3,3-3,3-1.16.37-2,1-3,0l1-5c1-2,3.66-.46,4,0Z"/>
        <g>
          <path class="cls-17" d="M257.23,158.67c0-2,0-5-1-6s-1.79-2.03-3-1c-.85.72-1.85,4.6-2,7-.05.8.36,3.41,1.05,3.95,1.97,1.52,3.28,1.28,3.96.21,1.99-3.16.99-2.77.99-4.16Z"/>
          <path class="cls-30" d="M257.78,157.87c-.22-2.79-.45-4.83-1.55-5.2-3-1-1,3-4,5-1.18.78-.56,3.32,0,4,3.39,4.13,5.76-1.04,5.55-3.8Z"/>
        </g>
        <g>
          <path d="M128.96,93.49c-.32-.04-.57-.26-.4-.54,1.23-1.98,4.66-7.32,6.9-8.78s9.41-4.96,14.55-3.99c4.03.76,4.14,4.49,4.17,6.11,0,.03-.02.06-.05.08-2.65,1.53-4.4.39-8.93.03-1.75-.14-3.24-.01-4.87.46-2.57.74-4.87,2.4-7.04,4.87-.66.75-2.7,1.96-4.34,1.76Z"/>
          <path d="M229.1,86.32c.11.55,2.3,3.22,2.88,5.4l-1.08,1.08c-14.83-10.29-26.1-.3-29.16-7.2,2.55-2.21,3.17-11.87,27.36.72Z"/>
        </g>
        <g>
          <path class="cls-27" d="M188.07,143.02c1.79,8-20.24,11.31-20.88,2.16,5.6,5.57,14.97,2.25,20.88-2.16Z"/>
          <g>
            <path class="cls-18" d="M206.44,149.5c2.64.26,5.03,1.58,6.12,3.96-8.51.6-12.2,25.11-29.16,27.72-25.18,3.88-14.91-25.59-27.72-19.8.7-9.31,39.85-.3,54.01-8.64l-3.24-3.24Z"/>
            <path class="cls-25" d="M201.39,158.15c4.44-.62-4.85,8.34-6.48,9.36-9.07,5.7-30.73,7.42-30.24-4.32,15.16,3.57,34.64-4.75,36.73-5.04Z"/>
          </g>
          <path class="cls-21" d="M171.87,139.42c2.21,1.67,5.3,2.24,5.4,2.52,1.58,4.52-6.69,4.93-5.4-2.52Z"/>
        </g>
        <g>
          <path class="cls-29" d="M168.38,112.71c0,15.74-15.3,27-28,27s-19-10.26-19-26,9.3-22,22-22,25,5.26,25,21Z"/>
          <path class="cls-29" d="M247.38,113.9c0,22.81-17.9,29.81-32.77,29.81s-22.23-11.33-22.23-28.71c0-20.29,10.88-24.29,25.74-24.29,19.26,0,29.26,5.81,29.26,23.19Z"/>
          <g>
            <path d="M252.38,122.71c4.16-9.68-4.33-20.72-5.73-23.8-2.17-4.77-6.05-8.24-9.27-9.2-2-.6-6-1-13-1-6,0-29-3-34.5,13.71-7.21-3.06-12.58-2.59-20-1-1.5-2.71-5.52-11.66-20.5-12.71-1.93-.13-9.16-.71-16,1-8,2-7.86,2.86-10,5-2.22,2.22-4.6,9.78-5,18-.35,7.04,2,17,3,19,.63,1.26,3,6,5.75,7.46,8.64,4.97,15.01,4.96,21.25,4.54,15-1,26.35-18.47,26-32.79,21.23-1.93,7.52,3.43,18.25,22.75,2.56,4.62,9.75,11.04,16.75,13.04,4.9,1.4,14.82,1.78,23-2,13-6,17.7-16.64,20-22ZM166.13,115.42c-.26,7.54-3.33,13.47-8.14,17.34-6.18,4.97-15.23,6.52-24.86,3.66-5.75-1.71-7.78-6.29-8.75-8.71-4-10,0-24,1-27,1.92-5.77,10.39-7.67,16-8,8.61-.51,17.34.25,21.75,8.71,2.09,4,3.16,9.45,3,14ZM199.13,133.67c-3.52-4.73-5.36-13.94-5.5-19.75-.37-15.93,5.18-19.09,20-20.5,5.57-.53,11.46-.87,17,0,.81.13,2.43.35,3,.5,2.12.56,4.25,1.34,5.79,2.84.47.46,4.36,5.98,5.96,16.95.49,3.39,0,8-1.72,12.65-.01.02-.02.03-.04.05-8.92,20.35-36.11,18.5-44.5,7.25Z"/>
            <path class="cls-47" d="M266.1,107.93c-.51-.71-12.85-7.97-15.03-8.89-2.45-1.04-4.78-2.3-5.2-1.97.57,2.38,7.75,12.97,7.56,18.78-.03.91,1.94,1.11,1.94,1.11l.1-.78c9.11.38,12.15-1.51,15.04.62-.21-1.64-3.59-7.73-4.4-8.87Z"/>
            <g>
              <path class="cls-5" d="M119.69,103.44l-10,4.5c-.53-1.11-2.64-9.66-1.25-10.5,22.79-3.44,17.71-10.26,11.25,6Z"/>
              <path d="M119.69,103.44q-.62,5-1.25,10c-3.24-2.09-6.93-1.68-8.75-5.5l10-4.5Z"/>
            </g>
            <path d="M264.61,123.36c.37-.18,4.84-5.6,5.88-6.56-2.73-2.01-5.98-.95-13.59-.61-9.56-.34-10.25-3.54-10.25-3.54l.63,3.1c-.08.54.19,2.49.46,4.47l4.41,2.9c3.7-3.78,5.28-4.79,9.33-3.29,2.07,1.2,2.74,2.94,3.13,3.54Z"/>
          </g>
        </g>
      </g>
      <g>
        <path class="cls-35" d="M252.44,319.44s2.01-1.33,2-1c.79.22,24.08-24.13,27-32,.78-2.09,5-16,3.64-22.19-2.22-8.65-5.33-16.92-11.1-23.73-11.06-13.05-23.06-9.92-32-12.75-2.06,4.39-4.56,8.65-7.5,12.5-1.79,6.55-15.09,23.07-21.75,23.5-9.38.61-14.95-13.49-21.25-17.5.77,7.01-1.52,13.2-8,16.75.27,1.15,3.33-2.49,4,2.75,4.99-2.53-2.85,6.03-6.25,6.5-7.5,1.03-10.54-8.74-11.25-14.75-.29-2.47-.34-9.47,1-8.75-.4-5.91,2.16-10.9,5-16-.53.21.22-1.48-3,1.75-3.25,3.26-20.49,27.48-22.25,27.75-.29.04-5.13-2.48-5.25-2.75-1.4-3.12-.03-30.67-2.75-32.25-.73-.42-3.62.87-3.25-1-7.49.57-11.19.92-18.25,5-10.18,5.89-16.63,22.63-18.25,28.25-.77,2.69-22.41,36.23-19.77,39.69,1.89,2.47,8.95,11.59,17,4,4.83-4.55,10.84-26.07,14-28,2.81-1.72,7.18,7.33,8.24,8.23,1.88,1.61,3.84-.93,4.94-2.87-3.33,7.68-9.15,19.78-7.94,29.87,1.37,11.43,6.94,17.95,11,21,2.73,2.05,9,4,9,4,0,0,5.05,5.22-1,15-2.44,3.95-9.95,14.22-18.96,37.33-4.86,19.13-8.8,38.44-11.5,58-.3,2.14-.09,4.45-1,6.5,14.74,9.85,38.13,13.18,55.5,15,17.19,1.8,34.75,2.58,52,1,14.94-1.36,30.9-4.79,45-10,4.67-1.72,10.18-4.03,14.5-6.5-2.17-15.61-5.7-30.88-10-46-3.23-11.34-6.45-22.5-12-33-7.44-5.87-5.13-31.09-3.95-43.02l4.42-10.3Z"/>
        <path class="cls-35" d="M248.44,323.44c.04.06.06.13.09.21-.01-.17-.04-.24-.09-.21Z"/>
        <path class="cls-35" d="M248.53,323.65c.02.22,0,.59-.03,1.11.11-.46.12-.84.03-1.11Z"/>
      </g>
      <path class="cls-24" d="M140.26,365.98c13.64-22.72,5.09-29.11,5.09-29.11,5,0,10-3,10-3-6,3-16.04,1.67-16.04,1.67,0,0,1.12,1.84,1,5-.12,3.34-1.54,8.12-3.96,12.33-4,6.95-7.14,12.93-9.58,17.88-2.76,4.78-4.86,10.17-6.12,13.6-.92,2.33-1.31,3.52-1.31,3.52-4.86,19.13-9.34,45.12-12.04,64.67,6.62,4.02,7,4,7,4,0,0-.12-.81-.27-2.25,3.23,1.17,8.43,2.02,16.54,1.11,10.63-1.19,32.33-11.59,35.59-27.9,2.3-11.54.38-22.46-2.87-31.55,7.68-9.5,57.38-13.22,91.65-.98,0,0-112.59-29.62-114.68-28.99ZM121.91,397.04l-8.36,35.64c.35-5.87,1.16-12.28,2.78-18.55,1.67-6.5,3.59-12.16,5.58-17.09Z"/>
      <g>
        <path class="cls-46" d="M237.34,239.98c-1.79,6.55-43.87-6.82-50.17-10.83.77,7.01-7.84,3.1-5-2-.53.21-33.86,1.41-36.57-.17-.73-.42-3.62.87-3.25-1-7.49.57,43.65,89.27,43.65,89.27,0,0,54.28-79.12,51.34-75.27Z"/>
        <path class="cls-48" d="M181.16,225.15s1.57,49.45,2.99,68.08c1.7,22.28,1,57-1,81-1.81,21.75,3,95,3,95l2,1s-3.19-43.99-3.1-70.23c.1-29.77,1.92-48.87,2.1-63.77s-2-60.97-2-71c0-6,1.16-25.69,2.01-35.08.5-5.49,0-3.92,0-3.92l-5.99-1.08Z"/>
        <path class="cls-6" d="M184.08,279.07c2.63-.31,3.1,4.32,1,5-3.13,1.02-3.92-4.65-1-5Z"/>
        <path class="cls-6" d="M184.08,259.07c2.63-.31,3.1,4.32,1,5-3.13,1.02-3.92-4.65-1-5Z"/>
      </g>
      <g>
        <g>
          <path class="cls-10" d="M217.18,467.27c-17.25,1.58-91.19-26.61-87.03-9.82.25,1.01,4.19,17.73,8,21,7,6,43,8,67,7,14.33,0,54.02-11.14,55.03-16.18.97-4.82,1-6,2-12-14.1,5.2-30.06,8.63-45,10Z"/>
          <path class="cls-32" d="M190.48,485.69l-1.33-10.67s2.67,10.67,4,10.67h-2.67Z"/>
        </g>
        <g>
          <path class="cls-25" d="M206.72,359.01q6.25,9.75,12.5,19.5c-.5.11-6.03,3.33-9.5,4-.08-.76-.95-.95-1-1-.81-.83-10.68-15.8-12-18-.07-.12-.09-.91-1-2.5,2.7-1.02,6.17-1.82,9-2,.66-.04,1.34.01,2,0Z"/>
          <path class="cls-24" d="M202.22,353.01c1.5,2.32,14.67,15.57,12.5,16.55-2.83.18-14.54-1.82-17.24-.81-.66-1.15-3.32-9.96-3.76-11.25.44-.18,7.72-4.03,8.5-4.5Z"/>
        </g>
        <g>
          <path class="cls-24" d="M217.22,349.01c10.62,8.44,27.59,15.69,37.5,23.5,5.55,10.5,8.77,21.66,12,33-18.8,8.66-39.21,13.17-59.75,15-5.11.46-24.9,1.51-29.25,1.5-.5,0-1,0-1.5,0-12.66-.13-35.59-2.26-47.75-6q2.37,7.62,4.75,15.25-11.25,7.12-22.5,14.25c2.7-19.56,6.64-38.86,11.5-58,13.71-.99,27.53-.75,41.25-1.5,7.91-.43,42.84-2.84,46.25-3.5,3.47-.67,9-3.89,9.5-4,6.54-1.44,13.92.41,20.5-.75q-9.37-8.87-18.75-17.75c-4.79-.19-9.43-1.1-14.25-1-.66.01-1.34-.04-2,0,2.17-.99-1-3.68-2.5-6,1-.6,5.97-4.58,8-6,.1.2,1.78-.58,1.5,3.75,3.71,2.3,3.35.11,5.5-1.75Z"/>
          <path class="cls-35" d="M308.71,374c-4.66,15.46-24.61,18.75-37.75,12.5-5.17-2.46-8.54-7.6-12.75-11q2.25.5,4.5,1c1.22,1.73,3.6-4.38,4.25-4.5.3-.06,4.18,3.18,5,3.5,8.91,3.51,30.42,7.62,36.75-1.5Z"/>
          <path class="cls-43" d="M276.71,451.5c-4.32,2.47-9.83,4.78-14.5,6.5-14.1,5.2-30.06,8.63-45,10-17.25,1.58-34.8.8-52-1-17.37-1.82-40.75-5.15-55.5-15,.91-2.05.7-4.36,1-6.5q11.25-7.12,22.5-14.25-2.37-7.62-4.75-15.25c12.16,3.74,35.09,5.87,47.75,6-8.18,5.75,8.4,7.23,1.5,0,4.35.01,24.14-1.04,29.25-1.5,20.54-1.83,40.95-6.34,59.75-15,4.3,15.12,7.83,30.39,10,46Z"/>
          <path class="cls-24" d="M257.22,325.51l-1-2.75c-.97,4.59-4.14,9.76-7.5,13l8.5.5c.07-3.25-.1-6.51,0-9.75q11,3.12,22,6.25c-33.57,2.88-9.4,12.39-9.93,12.25-9.49-2.59-24.16-8.18-34.07-9.5,30.5-10.39,15.92-37.16,18.25-37.5,3.18,8.93,3.93,18.14,3.75,27.5Z"/>
          <path class="cls-42" d="M257.22,325.51c0,.33.01.67,0,1-.1,3.24.07,6.5,0,9.75l-8.5-.5c3.36-3.24,6.53-8.41,7.5-13l1,2.75Z"/>
          <g>
            <path class="cls-35" d="M103.22,264.6c-.85-5.78,10.56-27.7,20.75-33.59,7.06-4.08,10.76-4.43,18.25-5-.37,1.87,2.52.58,3.25,1,2.72,1.58,1.35,29.13,2.75,32.25.12.27-3.17-17.9-2.88-17.95,1.76-.26,21.36-8.11,19.91-3.75-7.04,21.14,18.97,78.75,18.97,78.75,0,0,10.05-9.48,9.27-16.5,6.3,4.01,12.59-35.7,21.97-36.31,6.66-.43,19.96-16.95,21.75-23.5,2.94-3.85,5.44-8.11,7.5-12.5,8.93,2.83,20.94-.3,32,12.75,11.73,13.84,12.51,33.75,17,50.5,4.06,15.14,15.03,50.02,16.5,62.75-1.33,5.92-.54-1.46-3-5.25-1.85-2.85-11.8-11.4-16-11.5,14.61,8.66,19.57,20.42,17.5,37.25-6.33,9.12-27.83,5.01-36.75,1.5-.82-.32-4.7-3.56-5-3.5-.65.12-3.02,6.23-4.25,4.5,2.31-2.2,3-5.18,4-8,1.63-4.62,3.2-8.95,3-14,1.32-.26,1.01-3.77,1.5-7,.02-.12,1.39-1.3,0-2.5h-.5c-.01-.17-25.07-9.37,8.5-12.25q-11-3.12-22-6.25c.01-.33,0-.67,0-1,.18-9.36-.57-18.57-3.75-27.5-2.33.34,12.25,27.11-18.25,37.5-4.32-.57-8.68-.93-13-1.5,0-.06-.23.41-.5-1-1.7-8.75-4.9-12.02-4.5-1-.12-.03-1.97.28-2.5,0-1.92-1-12.38-20.15-37.5-16.5-7.13-9.27-19.67-34.29-26.25-46-7.66.43-15.18,1.91-22.75,3q-.37-9.25-.75-18.5-1.37,9.5-2.75,19c-1.72.26-5.36-.1-6,1.5-2.07-3.1-4.78-4.25-5-4.5"/>
            <g>
              <path class="cls-33" d="M221.72,333.01c-1.59.19-3.03-.65-4.5-1-.4-11.02,2.8-7.75,4.5,1Z"/>
              <g>
                <path class="cls-33" d="M272.96,352.01c2.5-.04,1.42,10.25-1.5,9-1.77-.76-.68-8.97,1.5-9Z"/>
                <g>
                  <path class="cls-24" d="M310.21,353.51c.62,5.36,1.58,16.07-1.5,20.5,2.07-16.83-2.89-28.59-17.5-37.25,4.19.1,14.15,8.65,16,11.5,2.46,3.79,1.67,11.17,3,5.25Z"/>
                  <path class="cls-24" d="M266.96,335.01c7.16.98,13.01,1.04,19.75,3.75-5.65-.58-18.52-1.09-19.75-3.75Z"/>
                  <path class="cls-35" d="M271.21,347.51v-2.5c1.39,1.2.02,2.38,0,2.5Z"/>
                </g>
              </g>
            </g>
          </g>
          <path class="cls-35" d="M219.22,378.5q-6.25-9.75-12.5-19.5c4.82-.1,9.46.81,14.25,1q9.37,8.87,18.75,17.75c-6.58,1.16-13.96-.69-20.5.75Z"/>
          <g>
            <path class="cls-43" d="M226.72,208.51c2.5,7.39,9.61,16.34,18,19-2.06,4.39-4.56,8.65-7.5,12.5-3.73,4.89-16.44,18.28-22.75,17.5-5.61-.69-23.98-26.03-26.75-32.5,10.69-3.61,21.74-10.07,29-18.75-.28-2.07-.61-4.2-1-6.25,5.71.57,7.95,6.6,11,8.5Z"/>
            <path class="cls-24" d="M213.1,280.71c5.96-8.5,31.02-25.17,34.44-27.42.09-.06.04-.19-.07-.18-1.58.26-6.73,1.03-5.85.02,5.74-6.62,5.65-11.11,5.65-11.11l-10.05-2.02-11.41,4.47-37.65,70.86s23.44-32.48,24.94-34.62Z"/>
            <g>
              <path class="cls-23" d="M171.72,209.01c-1.42-.22-1.75,4.51-2.5,7-2.73,9.06-10.13,26.79-10.5,28.25-.16.62-.16,2.32.5,2.25-.63.58-3.84,4.5-4.25,4.5-6.99-6.34-13.36-18.78-12.78-27.61,6.55-3.95,17.26-6.83,21.53-12.89,2.87-4.07,4.54-9.14,8.5-12.5-.31,3.11-.95,8.1-.5,11Z"/>
              <path class="cls-43" d="M178.72,227.01c-6.7,6.24-12.73,13.26-19.5,19.5-.66.07-.66-1.63-.5-2.25.37-1.46,7.77-19.18,10.5-28.25q4.75,5.5,9.5,11Z"/>
              <path class="cls-13" d="M171.72,209.01c.63,4.03,3.64,6.92,6,10,.61.79,3.74,5.28,4,5.5-.68,1.11-2.07,1.63-3,2.5q-4.75-5.5-9.5-11c.75-2.49,1.08-7.22,2.5-7Z"/>
            </g>
          </g>
        </g>
        <path class="cls-33" d="M215.72,200.01c.39,2.05.72,4.18,1,6.25-7.26,8.67-18.31,15.14-29,18.75-2.48.84-2.36,1.73-4.5.5-.28-.16-1.31-.83-1.5-1-.26-.22-3.39-4.71-4-5.5,14.19-3.97,26.91-12.91,36-24.5.67,2.38,1.94,5.17,2,5.5Z"/>
      </g>
      <path class="cls-4" d="M192.48,457.61l-1.54,3.08"/>
      <path class="cls-20" d="M163.24,458.86c-.13,0-.26,0-.38,0"/>
      <path class="cls-24" d="M219.88,342.79c-5.16,18.21-14.01,16.29-16.92,15.19-2.9-1.1-2.23-10,1.5-19.9,3.73-9.89,9.11-17.02,12.02-15.93,2.9,1.1,6.29,10.46,3.4,20.63Z"/>
      <g>
        <path class="cls-34" d="M210.64,335.06c.58.18,2.34-.45,2.46-.44,1.51.09,3.07.65,4.61.19.52,1.33.65.84.67.9,2.96,9.79-1.1,10.51-10.08,8.92.81-2,.16-9.14,2.35-9.56Z"/>
        <path class="cls-33" d="M218.27,347.92c-.46.14-1.76,2.92-2.18,3.44-1.79,2.21-1.05,4.3-5.1,2.69-.49-4.31-2-3.25-2.14-3.43-.79-1.05-1.27-2.54-2.59-3.09.28-.36,1.95-2.74,2.02-2.9,8.98,1.59,13.05.87,10.08-8.92,4.36-.2,16.28,17.88-.1,12.21Z"/>
        <g>
          <path class="cls-33" d="M210.64,335.06c-2.19.42-1.54,7.56-2.35,9.56-.07.16-1.74,2.54-2.02,2.9-5.03,6.51-24.4,19.4-32.74,18.57-2.6-.26-6.54-3.77-5.05-2.65-8.8-6.61,7-20.42-3.7-20.67-5.7-.13-11.4,1.56-16.86-.53.24-5.02,14.44-6.69,18.89-7.96,2.64-.75,4.63-3.59,4.89-6.01.22-2.05,1.78-3.69,3.79-4.12,21.18-4.55,33.22,10.3,35.14,10.91Z"/>
          <path class="cls-2" d="M173.98,324.76s6.33,2.38,10.19,7.76c3.31,4.62,1,9.64-7.94,21.23-1.06,1.38-8.82,4.52-7.74,9.7.88,4.21-12.88-11.67-5.38-13-4.71-1.12-9.51-.77-13.81-3.37-.04-.16-.05-.33-.09-.49.87-2.67,24.77-21.82,24.77-21.82Z"/>
          <path class="cls-11" d="M168.48,363.44c1.61,1.06,2.99,2.41,5.05,2.65q.51,1.43,1.02,2.86c-17.87-1.73-15.12-14-16.51-15.58-.23-.27-3.79.24-6.88-1.56-.57-1.69-1.41-2.8-1.87-4.75,4.31,2.6,9.1,2.25,13.81,3.37-7.5,1.33,1.79,10.63,5.38,13Z"/>
          <path class="cls-11" d="M164.78,342.77c-2.64,3.63-14.71,1.14-15.57,3.81-.32-1.38-1.36-2.71-1.29-4.34,5.46,2.09,11.16.4,16.86.53Z"/>
          <path class="cls-2" d="M206.27,347.53c1.31.55,5.62,4.88,4.72,6.52-1.19,2.18-8.08,3.13-8.95,3.89-.68.6-7.17,5.67-7.57,5.93-7.5,4.79-11.03,5.95-19.91,5.09q-.51-1.43-1.02-2.86c8.32,1,27.71-12.05,32.74-18.57Z"/>
        </g>
      </g>
      <path class="cls-35" d="M215.61,321.91l15,.14.49,4.35,40.12,11.61s12.64,13.48,5.5,26.47h-44.41s1.31-1.04-5.49-3.36c-1.21-.42.15-1.34-1.21-.42-.72.49-5.61,4.84-9.03,2.86s-14.39-6.15-14.39-6.15c0,0,4.95,1.71,8.89-3.32,3.51-4.48,7.29-10.36,8.38-21.44.32-3.24.52-9.12-3.84-10.72Z"/>
      <path class="cls-24" d="M213.03,323.49s1.69-1.97,3.46-2.16c3.96-.42,19.23-1.78,21.32,1.43.14.22.28,2.94,1.91,3.89,3.09,1.81,8.38,2.4,6.99,3.68-2.23,2.03-6.29-2.03-6.53-1.3-8.1,25.06-14.36,31.48-14.36,31.48,0,0,12.88-26.1,9.41-35.49-1.55-4.19-1.36-3.41-5.03-3.54,0,0-11.39-.12-14.61.66-1.33.32-2.55,1.36-2.55,1.36Z"/>
      <ellipse class="cls-34" cx="225.78" cy="352.49" rx="2.85" ry="2.24" transform="translate(-161.13 512.27) rotate(-79.8)"/>
      <path class="cls-34" d="M219.55,359.33c-.37-1.45.3-3.11,1.5-3.69s2.46.12,2.83,1.57c.37,1.45-.3,3.11-1.5,3.69s-2.46-.12-2.83-1.57Z"/>
      <path class="cls-24" d="M126.3,354.78c-2.23,13.88-6.65,24.71-9.88,24.19-3.23-.52-4.04-12.19-1.81-26.07,1.09-6.81-.37-15.28,1.38-19.64,1.82-4.53,7.62-4.74,9.28-4.67,2.79.12,3.26,12.31,1.03,26.19Z"/>
      <path class="cls-35" d="M249.23,228.76s20.52,1.67,27.86,0c0,0,6.59,3.79,6.96,8.3s4.5,37.54,8.64,49.59l-28.59-36.89-14.87-21Z"/>
      <path class="cls-24" d="M259.29,263.51c-10.05,22.58-2.48,51.46-2.48,51.46,0,0-.6-28.23-.01-36.05.55-7.42,2.49-15.41,2.49-15.41Z"/>
      <path class="cls-35" d="M142.28,226.45s-18.2,1.67-24.72,0c0,0-5.84,3.79-6.18,8.3-.24,3.19-13.6,36.08-10.91,36.25,4.49.29,13.25-1,13.25-1l15.37-22.56,13.19-21Z"/>
      <g>
        <g>
          <path class="cls-38" d="M31.4,340.23c-.01,7.97.64,16.22-.78,24.1-1.55.05-3.12-.03-4.66,0,1.16-7.08.38-14.77.78-21.77.07-1.21,1.53-.55,1.55-1.17.56-11.89-1.15-32.09.78-41.98,1.31-6.73,14.06-28.65,13.99-30.32-.11-3.07-15.76-5.6,0-23.32,12.15-13.67,30.12-1.35,16.33,17.88-9.09,12.68-11.17,3.88-13.99,7-16.75,32.24-13.94,35.42-13.99,69.58Z"/>
          <path class="cls-9" d="M32.96,341.01v23.32c-.77.03-1.56-.02-2.33,0,1.42-7.88.77-16.13.78-24.1.59.11,1,.52,1.55.78Z"/>
          <path class="cls-19" d="M50.45,241.5c20.52-4,8.58,25.34,2.33,27.21-5.42,1.62-15.59-6.95-15.94-8.16-.87-3.05,8.91-18.13,13.6-19.05Z"/>
        </g>
        <g>
          <path class="cls-38" d="M342.36,341.01c-.04,7.38.03,14.77,0,22.16l-1.55-1.17c.71-4.18-1.4-17.32-1.55-22.54-1.04-34.69,4.76-34.04-14.77-70.35-12.04,6.25-25.95-19.3-15.16-26.82,14.16-9.87,26.16,15.9,23.71,20.6-1.3,2.48-5.47,1.81-5.44,5.44.02,1.95,13.94,27.1,14.77,33.43-.05,13.08.07,26.18,0,39.26Z"/>
          <path class="cls-15" d="M344.69,341.78l-.78,22.54c-1.29-.03-2.6.04-3.89,0-.37-2.67.76-2.21.78-2.33l1.55,1.17c.03-7.38-.04-14.78,0-22.16,2.66-.36,2.21.74,2.33.78Z"/>
          <path class="cls-37" d="M340.81,362c-.02.12-1.15-.34-.78,2.33-.51-.02-1.04.02-1.55,0v-24.88h.78c.16,5.23,2.27,18.36,1.55,22.54Z"/>
          <path class="cls-19" d="M313.21,241.5c10.35-2.2,18.13,15.39,18.27,16.71.62,6.1-11.91,11.33-12.83,11.27-4.39-.3-21.05-24.67-5.44-27.99Z"/>
        </g>
        <g>
          <path class="cls-12" d="M357.13,393.09c-4.76,5.24-38.73,41.92-41.59,42.76-2.3.67-12.37-.02-15.94.78l-.39-20.21c-11.78-.08-23.64.11-35.37,0-2.03-.02-1.47.78-1.55.78-52.06-.42-104.17-1.22-156.26-.78-1.55.01-3.12-.01-4.66,0-11,.1-22.03-.07-33.04,0-.14,6.74.79,13.5,1.17,20.21-5.56-.2-12.09-.79-17.49,0-13.7-13.7-26.52-28.18-39.26-42.76l344.38-.78Z"/>
          <path class="cls-45" d="M288.63,504.61l10.2-67.61c-11.57-.24-23.39.29-34.98,0l-9.02,67.61h33.81Z"/>
          <path class="cls-40" d="M111.31,504.61c-3.22-22.53-6.48-45.06-9.16-67.61-.02-.14.02-.28,0-.41-10.85-.15-21.8.2-32.65,0,2.4,22.69,6.26,45.36,10.04,68.02h31.78Z"/>
          <path class="cls-40" d="M368.4,364.33c.8.57.24,2.87.39,3.89.65,4.48.45,12.26-1.55,15.55l-363.82.78c-.88-1.27-4.49-.47-3.11-14.77.12-1.2-.41-4.87.39-5.44,6.34.73,362.66-.11,367.71,0Z"/>
          <path class="cls-45" d="M367.24,383.76c-.67,1.1-8.17,7.2-10.11,9.33l-344.38.78c-2.86-3.27-6.77-5.63-9.33-9.33l363.82-.78Z"/>
          <path class="cls-45" d="M299.6,436.63l-.78.78c-11.57-.44-23.39.55-34.98,0-.26-.01-.52.03-.78,0l.78-20.99c11.73.11,23.59-.08,35.37,0l.39,20.21Z"/>
          <path class="cls-45" d="M262.29,417.19l-1.55,19.43-.78.78c-51.02.94-102.16-.9-153.15-.78-.42-6.69-.58-13.51-.78-20.21,52.08-.44,104.2.35,156.26.78Z"/>
          <path class="cls-45" d="M101.37,416.41c-.38,6.77.36,13.49.78,20.21-10.85-.28-21.8.38-32.65,0-.38-6.71-1.31-13.47-1.17-20.21,11.01-.07,22.04.1,33.04,0Z"/>
          <path class="cls-22" d="M106.03,416.41c.2,6.7.35,13.52.78,20.21-1.69,0-3.17-.31-4.66.78-.02-.26.02-.52,0-.78-.42-6.73-1.16-13.44-.78-20.21,1.55-.01,3.12.01,4.66,0Z"/>
          <path class="cls-3" d="M263.84,416.41v20.99c-1.12-.12-2.93.82-3.89.26l2.1-20.47c.09,0-.24-.79,1.79-.78Z"/>
          <path class="cls-22" d="M255.21,504.61l8.63-67.61c-.26,0-.52.01-.78,0-1.12-.07-3.11,0-3.11,0-1.57,22.56-4.25,45.09-7.36,67.61h2.62Z"/>
          <path class="cls-44" d="M115.59,504.61c-3.66-28.01-7.42-56.73-8.78-68.02-1.69,0-3.17-.16-4.66.41,2.68,22.54,5.94,45.08,9.16,67.61h4.28Z"/>
          <path class="cls-41" d="M252.6,504.61c3.11-22.51,5.79-45.04,7.36-67.61-51.02.5-102.16-.48-153.15-.41,1.31,10.92,4.99,39.84,8.61,68.02h137.18Z"/>
        </g>
      </g>
      <path class="cls-43" d="M211.84,234.42c4.12,7.97,20.25,10.15,29.08,11.56-1.03,5.41-21.39,18.52-32.23,34.84-2.6,3.91-13.7,22.51-21.61,36.16-.38.66-.12,2.74-.12,2.74l.05,3.75-1.89-.14.88-8.08s24.4-59.27,21.44-64.14c9.67-6.2.98-18.27,4.41-16.7Z"/>
      <path class="cls-43" d="M140.6,248.09c.84,5.42,11.62,10.88,15.47,19.54,1.86,4.19,18.54,32.67,28.19,48.66.4.66.87,7.04.87,7.04,0,0,2.44-4.13,1.11-7.28-24.96-58.86-19.25-84.33-25.16-79.61-8.13,6.49-11.89,10.37-20.47,11.65Z"/>
      <path class="cls-10" d="M187.96,225.47c.44.43,2.38,3.72,2.28,4.09-1.29,4.52-3.64,6.74-3.8,11.94-.25,8.35,5.82,44.45,5.73,58.4-1.76,4.27-5.66,13.87-6.17,15.34-1.03-1.84-5.23-11.68-5.55-12.48-1.98-4.98-4.45-10.43-5.89-18.19-.29-12.53,6.34-39.62,5.45-46.66-.05-.41-3.2-5.93-3.58-7.51-.4-1.02-.16-1.14.25-1.64,1.7-1.13,4.35-5.01,7.26-4.8,3.62,1.64,3.7,1.3,4.02,1.5Z"/>
      <path class="cls-36" d="M174.55,284.59c-.12-2.53.62-9.7.62-9.7"/>
      <path class="cls-32" d="M187.95,225.41c.44.43,2.38,3.72,2.28,4.09-1.29,4.52-3.64,6.74-3.8,11.94-.25,8.35,5.82,44.45,5.73,58.4-1.35,3.37-6.22,15.62-6.22,15.62,0,0-2.89-4.18-3.68-8.42,13.14-17.81-.36-69.96,2.55-69.75,3.62,1.64,2.82-12.09,3.13-11.89Z"/>
      <g>
        <g>
          <path class="cls-1" d="M55.71,374.16c.07-.74.15-1.45.23-2.14-.09.7-.16,1.41-.23,2.14Z"/>
          <path class="cls-35" d="M70.18,364.62s23.88,0,32.21,0c3.82,0-6.52-8.93,9.02-29.72.13-.12.26-.25.4-.4,1.63-1.72,13.73-5.87,13.73-5.87,0,0-6.02-1.68-16.56.39,16.59-8.79,6.68-81.67,6.69-81.75.15-1.31-30.82,44.38-29.93,43.2l-24.54,30.2s-6.7,14.33-8.28,21.56c-.58,2.65-.92,13.99.75,16.13,6.01,7.72,16.49,6.24,16.49,6.24Z"/>
          <g>
            <path class="cls-26" d="M71.36,328.64s-.04.04-.05.06c.02-.02.04-.04.05-.06Z"/>
            <path class="cls-24" d="M106.75,326.02s.09-3.09-1.96-6.15c-3.18-3.76-3.98-9.38-6.68-12.87,5.39,15.86,3.07,10.02,7.03,17.05-2.05-2.73-8.13-8.62-9.6-10.92-1.55.4,7.39,11.13,10.11,16.22-7.16-5.04-27-7.83-33.45-.68.67-.65,5.95-4.79,20.75-2.2,5.43.95,10.85,3.67,11.01,3.7.38.06.8.09,1.23.1-3.73.52-6.15,2.06-7.64,4.21-1.52,2.21-.27,3.89-.19,6.96.25,9.89,5.04,23.21,5.04,23.21,0-32.89,7.07-35.59,7.07-35.59l16.08-.4s-18.53-2.07-18.79-2.62Z"/>
          </g>
        </g>
        <path class="cls-35" d="M107.76,241.53c-.12.13-.21.26-.27.4.08-.14.17-.27.27-.4Z"/>
      </g>
      <g>
        <path class="cls-8" d="M146.78,324.94c-.54.38-1.19,1.64-2.29,2.94-.27.32-.75.36-3.4,2.54-.57.47-.06,3.13-.83,4.08-.25.32-.09,1.28-1.69,1.39-2.5,3.37-1.16,4.68-1.71,6.76l.75-.15c1.11-1.19,3.23-2.01,4.85-2.31-1.88-12.9,5.85-2.47,8.44-16.31-1.86-.02-2.68.04-4.11,1.06Z"/>
        <path class="cls-33" d="M164.05,353.29c-.2-.24-2.38-3.88-3.37-5.37-10.5-15.71-2.12-5.76,3.36,1.89,3.14.17,6.54-.6,8.92-2.81-.59-1.17-1.04-1.39-1.29-1.85-8.29-14.95-14.52-20.52,2.07-4.27,3.79-3.06,4.38-2.46,8.68-3.31-.04-.59.23-2,.05-2.48-.08-.23-2.31-3.43-2.74-4.03-.09-.13-.51-.07-2.28-2.2-.23-.27-.54-.54-.81-.84-.08-.09-.08-.25-.16-.33-.75-.82-.99-1.37-1.13-1.51-.63-.69-1.76-1.86-2.43-2.53-.03-.03-.8.01-.83-.02-2.64-2.57-5.63-6.33-6-6.58-1.42-.97-2.36-.39-2.64-.38-2.65.02-2.7.43-4.66,1.4.71,7.27-2.27,4.27-6.07,5.35-.75.21-1.74.43-1.83.46-2.58,13.84-10.31,3.41-8.44,16.31-1.62.3-3.74,1.11-4.85,2.31-.08.08-1.13,1.85-1.12,1.97.14,1,10.31,12.29,15.06,13.13,1.01.18,2.37-.37,2.49-.36,2.22,0-2.61-3.94-5.39-7.89-7.02-13.19,3.26,4.89,6.33,6.42,2.23,1.11,6.87-1.47,9.07-2.47Z"/>
        <path class="cls-8" d="M158.79,318.07c-2.66,1.31-3.15,1.07-6.07,5.35,3.8-1.08,6.77,1.92,6.07-5.35Z"/>
        <path class="cls-8" d="M154.04,357.23c-.13,0-1.48.54-2.49.36-4.75-.84-14.92-12.13-15.06-13.13-.02-.12,1.04-1.88,1.12-1.97l-.75.15c.55-2.08.89-4.78,3-7.04-21,3.97-31.19,3.25-31.19,3.25,0,0-8.73,24.14-5.49,24.2,1.41.03,3.84,1.79,7.83,1,8.99-1.78,21.41-5.66,22.08-5.06,5.6,4.78,16.3,7.66,23.99,3.76.65-.66,1.93-2.06,2.53-2.43-3.12-5.59-4.46-2.49-5.08-2.5-.38,0-.42-.59-.49-.59Z"/>
        <path class="cls-33" d="M182.42,337.59c-4.29.85-4.88.25-8.68,3.31l3.18,6.69c4.27-.79,5.75-6.13,5.5-9.99Z"/>
        <path class="cls-2" d="M173.74,340.89c-16.59-16.26-10.36-10.69-2.07,4.27,1.37-1.57.74,3.26,5.25,2.42l-3.18-6.69Z"/>
        <path class="cls-2" d="M159.61,360.32c2.7-1.68,13.6-7.44,14.25-8.83,1.04-2.23-.75-4.19-.91-4.49-2.37,2.2-5.77,2.98-8.92,2.81-5.48-7.65-13.86-17.6-3.36-1.89,1,1.49,3.17,5.12,3.37,5.37-2.21,1-6.84,3.58-9.07,2.47-3.07-1.53-13.36-19.61-6.33-6.42,2.78,3.95,7.61,7.9,5.39,7.89.06,0,.1.58.49.59.63,0,1.97-3.09,5.08,2.5Z"/>
      </g>
      <path class="cls-24" d="M126.66,283.09c5.72-10.33-5.5-8.05-6.24-13.26-.7-4.91,7.44-38.31,7.09-42.98-1,0-1.04-.2-2,0,.44,1.19-9,28-9,52,0,9.92,1.43,23.5.31,33.56-.7,6.21-6.76,14.58-6.09,14.74,1.68.38,2.79.88,2.79.88,0,0,1.93-2.67,2.67-4.14.28-.56,4.57-7.33,4.21-8.63-2.04-7.25-.96-19.11,6.27-32.16Z"/>
      <path class="cls-35" d="M102.57,364.63s-2.01-8.06-2.36-11.23c-.83-7.55.54-17.63.54-17.63.13-1.89,6.57-5.68,7.92-6.47,4.67-2.75,17.12-.6,17.12-.6,0,0-11.53,1.02-6.93,22.01,3.21,14.66,1,13.91,1,13.91l-17.28.03Z"/>
      <path class="cls-34" d="M110.76,350.67c.42-1.53-.34-3.14-1.71-3.6s-2.82.4-3.25,1.93.34,3.14,1.71,3.6,2.82-.4,3.25-1.93Z"/>
      <path class="cls-34" d="M104.95,340.4c-1.05,1.09-1.11,2.92-.14,4.09s2.62,1.22,3.67.13,1.11-2.92.14-4.09-2.62-1.22-3.67-.13Z"/>
    </g>
  </g>
</svg>