<?xml version="1.0" encoding="UTF-8"?>
<svg xmlns="http://www.w3.org/2000/svg" viewBox="0 0 334.05 467.76"><defs>
    <style>
      .cls-1 {
        fill: none;
      }

      .cls-2 {
        fill: #1e131b;
      }

      .cls-3 {
        fill: #bfe4e7;
      }

      .cls-4 {
        fill: #8e3327;
      }

      .cls-5 {
        fill: #c05e58;
      }

      .cls-6 {
        fill: #181919;
      }

      .cls-7 {
        fill: #232323;
      }

      .cls-8 {
        fill: #66256a;
      }

      .cls-9 {
        fill: #facf38;
      }

      .cls-10 {
        fill: #3a310b;
      }

      .cls-11 {
        fill: #8e3226;
      }

      .cls-12 {
        fill: #c25f41;
      }

      .cls-13 {
        fill: #a34737;
      }

      .cls-14 {
        fill: #ff9100;
      }

      .cls-15 {
        fill: #281a26;
      }

      .cls-16 {
        fill: #ec9927;
      }

      .cls-17 {
        fill: #f0935d;
      }

      .cls-18 {
        fill: #e57a4d;
      }

      .cls-19 {
        fill: #c12e4b;
      }

      .cls-20 {
        fill: #c35f41;
      }

      .cls-21 {
        fill: #4af40b;
      }

      .cls-22 {
        fill: #f8ae89;
      }

      .cls-23 {
        fill: #141114;
      }

      .cls-24 {
        isolation: isolate;
      }

      .cls-25 {
        fill: #fbfbfc;
      }

      .cls-26 {
        fill: #fff;
      }

      .cls-27 {
        fill: #cc5637;
      }

      .cls-28 {
        fill: #b56724;
      }

      .cls-29 {
        fill: #c085b9;
      }

      .cls-30 {
        fill: #fbbb29;
      }

      .cls-31 {
        fill: #8bd2d9;
      }

      .cls-32 {
        fill: #0d1313;
        opacity: .95;
      }

      .cls-33 {
        fill: #fffce3;
        mix-blend-mode: luminosity;
        opacity: .4;
      }

      .cls-34 {
        fill: #fcf8e9;
      }

      .cls-35 {
        fill: #ac4a30;
      }

      .cls-36 {
        fill: #e6794d;
      }

      .cls-37 {
        fill: #4b131e;
      }

      .cls-38 {
        fill: #c12e4c;
      }

      .cls-39 {
        fill: #24130c;
      }

      .cls-40 {
        opacity: .8;
      }

      .cls-41 {
        stroke: #1d121b;
        stroke-miterlimit: 10;
        stroke-width: 5px;
      }

      .cls-41, .cls-42 {
        fill: #1d121b;
      }

      .cls-43 {
        fill: #14ad9b;
      }

      .cls-44 {
        fill: #2e653d;
      }

      .cls-45 {
        fill: #e6f4f7;
      }

      .cls-46 {
        fill: #d43a5c;
      }

      .cls-47 {
        fill: #a06b9c;
      }

      .cls-48 {
        fill: #dbb4d4;
      }

      .cls-49 {
        fill: #d7643c;
      }

      .cls-50 {
        fill: #fafbfd;
      }

      .cls-51 {
        fill: #e67a4d;
      }

      .cls-52 {
        fill: #271a26;
      }

      .cls-53 {
        fill: #353535;
      }

      .cls-54 {
        fill: #320532;
      }

      .cls-55 {
        fill: #4f180e;
      }

      .cls-56 {
        fill: #8d3428;
      }

      .cls-57 {
        fill: #ef925d;
      }
    </style>
  </defs>
  <g class="cls-24">
    <g id="Layer_2" data-name="Layer 2">
      <g id="POP_CULTURE" data-name="POP CULTURE">
        <g>
          <g>
            <g>
              <path class="cls-27" d="M210.79,194.37c-9.09,11.59-21.81,20.53-36,24.5-2.36-3.08-5.37-5.97-6-10-.45-2.9.19-7.89.5-11,.07-.73.15-4.25.5-4.86,12.44,2.19,27.65-1.76,38.5-7.64,1.21,2.88,1.66,6.03,2.5,9Z"/>
              <path class="cls-36" d="M212.79,199.87c.39,2.05.72,4.18,1,6.25-7.26,8.67-18.31,15.14-29,18.75-2.48.84-1.89.97-2,1-.74.17-.36.73-2.5-.5-.28-.16-1.31-.83-1.5-1-.26-.22-3.39-4.71-4-5.5,14.19-3.97,26.91-12.91,36-24.5.67,2.38,1.94,5.17,2,5.5Z"/>
            </g>
            <g>
              <path class="cls-17" d="M241.56,96.87s-6.44-19.74-10.08-25.56c-4.81-7.69-19.05-20.76-27.72-23.4-8.71-2.65-26.18-2.64-36.4-.73,0,0-32.82,1.73-41.14,39.7-.94,4.3,3.47,25.35-1.5,42.9-.09.32-.14.65-.14.98v7.55c2.59,9.21,3.89,21.19,12.53,31.65,7.61,9.21,31.57,23.86,35.88,24.27,2.26.08,9.06-1.41,19.05-5.59,9.16-3.84,22.2-12.35,27.89-20.52,2.79-4.01,12.29-22.94,10.07-25.68,7.3-3.43,16.67-4.19,16.67-15.97,0-5.05-2.94-19.94-5.1-29.59ZM141.18,145.06c1.03.09,2.08.13,3.16.11-1.03.04-2.09,0-3.16-.11ZM197.98,142.04c.99.49,2.08.94,3.27,1.35-1.16-.38-2.25-.83-3.27-1.35Z"/>
              <path class="cls-49" d="M246.45,126.28c.06-.09,1.34-1.31-1.39-12.61-.8-3.84-2.6-12.74-2.6-12.74,0,0-.45-.64-1.11-1.37-.54-.59-1.23-1.23-1.8-1.71-7.14-5.96-20.51-5.64-24.33-5.66-8.48-.09-16.76,1.17-20.81,6.02-4.18,5.01-3.97,13.78-2.53,24.56.31,1.3,1.12,4,1.08,3.36-.1-1.67,1.06-6.72,2.37-9.57,2.25-4.92,4.62-8.13,10.93-10.58,15.64-6.05,31.83,20.59,32.55,21.79-1.8,6.6-5.1,12.32-11.07,14.7,3.89.67-5.67,21.3-8.64,25.56-5.68,8.17-18.56,15.97-27.72,19.8-9.98,4.18-16.68,6.28-18.99,6.23.17.06.07.12.64.16,15.33,1.15,24.21-2.52,37.43-10,19.85-11.23,20.3-13.57,30.24-32.4,1.1-2.09,1.09-4.53,2.88-6.84.38-.49,9.73-1.54.72-7.92,13.28-19.13,20.35-3.89,12.96,6.48-6.8,9.55-18.62-4.15-10.8,11.88,25.69,5.04,20.19-57.31,0-29.16Z"/>
              <path class="cls-35" d="M246.45,155.45c-2.56-.5-3.24-2.94-5.76-3.6,1.1-2.09,1.09-4.53,2.88-6.84.38-.49,9.73-1.54.72-7.92,13.28-19.13,20.35-3.89,12.96,6.48-6.8,9.55-18.62-4.15-10.8,11.88Z"/>
            </g>
            <path class="cls-36" d="M134.11,100c-1.88.06,1.36-4.44,2.23-6.28,1.06-2.92,1.12-6.36,2-9.25,6.04-19.79,23.82-27.78,10.5-24.25-10.51,2.79-20.82,35.08-21.94,44.67,0,.01.18,6.15.18,6.15,2.51-3.22,3.62-4.22,7.97-6.63,8.46-4.67,18.39-1.27,22.4,9.26.04.12,2.35,10.41,2.39,11.24.02.42.04-9.38.19-10.88-.96-13.22-15.39-14.39-25.92-14.04Z"/>
            <g>
              <path class="cls-36" d="M124.6,135.33c-10.31,3.67-5.4,11.06-2.85,18.16-12.38-9.8-7.4-25.37-2.57-25.81.6-.05,2.57-.04,3.82.89,1.15.86,1.63,1.73,1.63,1.73,0,0,0,3.37-.04,5.02Z"/>
              <path class="cls-49" d="M122.47,130.45c.86-.04,2.13,1.32,2.1,4.07-.03,2.31-.95,7.35-.78,11.64,0,0,.48,5.68,1.6,9.55-1.36-.54-2.49-1.3-3.64-2.21-2.55-7.1-9.59-19.37.72-23.04Z"/>
            </g>
            <g>
              <path class="cls-15" d="M317.67,148.94c-.14-.13-.31-.32-.48-.48-.31-18.33-12.21-12.48-19.34-17.19-4.6-3.04-7.83-19.38,14.08-18.38,5.56,7.95-13.96,6.35-11.94,10.5.48.99,15.1,6.07,17.19,8.59,3,3.63,2.98,13.91.48,16.95Z"/>
              <path class="cls-42" d="M70.85,132.71c-.77,1.33-4.97,3.92-3.34,11.94-5.77-2.09-14.97-2.67-13.84-10.74,1.81-13.02,15.73-1.17,17.19-1.19Z"/>
              <path class="cls-42" d="M83.26,115.04l.95,8.83q-6.68,4.42-13.37,8.83c.54-.92,2.18-2.06,2.39-2.63,2-5.39-4.36-9.36-3.82-14.8l13.84-.24Z"/>
              <path class="cls-42" d="M324.83,80.19c-4.37-2.21-5.02-1.55-9.55-2.63,2.76-7.37,4.11-10.61,0-17.43-.52-.4-.64-.5,0,0-3.84-6.37-10.77-9.34-17.9-6.21-2.75-.54.94-5.86-9.79-11.7,8.37-15.47-11.31-28.07-21.24-13.61C248.74,8.83,224.1.05,199.51,13.35c-16.73-18.96-48.35-16.68-65.64.24-1.68,1.64.06,3.99-12.65,9.31-1.97.09-9.93-10.8-21.24-1.43,0,0,0,0,0,0-2.89,2.39-5.59,6.4-5.73,10.26-.03.76,1.65,8.46,1.91,8.83-1.18.2-2.31.87-3.34,1.43-7.68,4.19-5.16,3.47-8.83,10.98-18.35-1.5-25.18,16.33-12.17,28.88-2.57.83-5.11,1.11-7.64,2.15-1.99.82-3.19,1.37-4.77,2.86-9.07,8.54-4.83,20.54,5.73,25.06.64,1.79-3.89,4.36,0,13.37-18.05-2.07-24.49,18.34-7.64,26.26-3.6,8.83,2.84,20.44,12.65,16.95,7.94,7.76-1.98,7.84-.24,18.86,1.36,8.6,13.51,14.07,20.77,8.83,10.25,4.27,5.3,4.94,8.83,9.79,4.51,6.19,15.68,5.61,20.77.24,1.38.31.67,13.47,19.1,10.98,4.44-7.84,5.94-2.38,12.89-5.73,5.18-2.5,5.11-9.42,10.26-4.77,2.74-3.89,3.15-8.08,6.93-11.28.07-.7.14-1.4.21-1.99-6.38-2.21-25.4-13.42-31.26-18.43-9.34-7.98-13.33-20.37-13.01-19.3-1.36-.54-2.49-1.3-3.64-2.21-12.38-9.8-7.4-25.37-2.57-25.81.6-.05,2.57-.04,3.82.89,1.13.85,1.61,1.7,1.63,1.73.9-3.64,1.92-8.38,2.1-11.67.91-5.89.92-15.31.93-15.49.51-7.83,10.9-38.47,20.04-42.53,5.38-2.39,10.25,1.5,16.95-8.12,21.88,12.34,30.33-2.24,31.99-2.86,6.58-2.47,8.32,5.19,8.83,5.49,13.69,7.91,27,21.42,30.54,26.98.47.73,2.46,5.84,3.64,9.46,3.7,11.31,6.79,34.73,6.79,34.73,0,0,3.9-5.64,7.37-6.78-.07-.05,3.66-1.35,6.46,1.78,5.22,5.85,4.58,25.77-3.74,31.97-4.96,3.7-10.25,2.94-13.43,0-1.22-1.12-2.42-1.4-2.42-1.4,0,0-.35.73-1,1.91-1.55,2.8-5.42,11.17-9.33,15.71-7.98,9.27-15.7,11.85-22.05,15.97.87,3.22,1.58,5.68,2.38,8.52.64,2.27,1.85,4.93,1.91,5.25,5.45.54,7.16,3.77,10.08,5.58.54.34,3.43.86,4.54.95,6.7,13.18,24.45,10.16,28.64-3.82,9.21,9.72,23.29,11.63,27.21-3.82,7.01.07,11.98.74,16.71-5.25,17.53,1.89,24.17-15.7,11.7-27.45l5.97-7.88c5.9,1.47,11.45.11,14.56-5.25,3.95-6.8,2.04-13.9-4.3-18.38,1.49-16.72-7.49-16.8-8.12-17.66-2.99-4.15,5.51-3.75,10.03-9.07,6.81-8.02,4.79-22.13-4.77-26.97"/>
              <path class="cls-15" d="M77.05,152.28c-.27.1-1.5,1.75-5.01,2.86-.56-.14-4.42-9.94-4.54-10.5-1.63-8.01,2.57-10.6,3.34-11.94q6.68-4.42,13.37-8.83l-.95-8.83c.1-2.73-8.04-6.86-13.37-10.5-2.1-4.42-1.05-9.85,1.91-13.84,8.45-3.78,19.02-1.63,19.1-7.88,0-.5-2.12-5.75-2.39-9.79-.72-10.74,14.06-12.77,15.28-14.08.5-.54,1.74-5.63,1.91-6.92,1.36-2.12,3.22-3.78,4.77-5.73,2.19-2.75,3.56-.4,1.91-8.83,15.43-17.14,14.53-10.69,36.04-7.88,3.21-.75,3.19-14.58,10.03-15.75,9.57-1.64,12.02,10.31,8.12,13.37-3.67,2.88-3.2-2.58-6.68-7.64-3.78,22.62-17.69,15.12-34.85,12.89-8.46,5.82-4.47,10.16-5.49,13.13-.28.81-7.63,7.08-8.12,8.12-3,6.43,5.2,5.22-16.71,16.71-2.36,5.97,9.05,16.27-6.92,23.15-4.57,1.97-16.64,2.16-13.37,6.21,2.66,3.28,15.27,6.03,15.99,17.43,1.43,22.72-26.97,10.24-13.37,35.09Z"/>
              <g>
                <g>
                  <path class="cls-15" d="M211.92,15.26c12.02-1.13,20.75,19.49,43.44,11.94,11.03,14.64,20.32,10.14,15.52,27.93,2.48,1.22,11.9,9.52,12.65,9.79,5.27,1.89,20.78-2.81,15.99,16.47,4.52,1.56,20.47,7.85,22.44,11.46,2.26,4.16.7,12.42-4.06,14.08-11.08,3.87-.82-9.16-1.19-10.74-11.93-10.93-28.55-.8-21.96-23.39l-12.65-1.19c-8.03-10.55-12.63-7.74-15.52-11.22-7.65-9.25,11.94-21.6-18.86-17.43q-1.19-4.06-2.39-8.12c-11.72.38-21.94-6.33-31.03-12.89-4.05-.29-16.38,7.73-13.61-.72.59-1.81,9.15-5.77,11.22-5.97Z"/>
                  <path class="cls-54" d="M256.8,32.93c2.95-.22-2.46,2.06-3.34,2.39-11.48,4.18-3.32-1.9,3.34-2.39Z"/>
                </g>
                <path class="cls-1" d="M158.45,13.83c-6.84,1.17-6.82,15.01-10.03,15.75-21.51-2.82-20.61-9.27-36.04,7.88,1.65,8.43.28,6.08-1.91,8.83-1.55,1.95-3.41,3.61-4.77,5.73h0c-.17,1.29-1.41,6.38-1.91,6.92-1.22,1.32-16,3.34-15.28,14.08.27,4.04,2.39,9.28,2.39,9.79-.07,6.25-10.64,4.1-19.1,7.88-2.96,3.99-4.01,9.42-1.91,13.84,5.33,3.64,13.47,7.78,13.37,10.5q-6.92.12-13.84.24c-.54,5.44,5.82,9.41,3.82,14.8-.21.57-1.85,1.7-2.39,2.63-1.46.02-15.38-11.82-17.19,1.19-1.12,8.08,8.08,8.65,13.84,10.74.11.56,3.98,10.36,4.54,10.5,3.52-1.11,4.74-2.77,5.01-2.86-13.6-24.85,14.8-12.37,13.37-35.09-.72-11.4-13.34-14.14-15.99-17.43-3.27-4.05,8.8-4.24,13.37-6.21,15.97-6.89,4.57-17.19,6.92-23.15,21.91-11.49,13.71-10.28,16.71-16.71.48-1.03,7.84-7.31,8.12-8.12,1.03-2.97-2.97-7.31,5.49-13.13,17.16,2.23,31.07,9.73,34.85-12.89,3.48,5.05,3.01,10.51,6.68,7.64,3.9-3.06,1.45-15.01-8.12-13.37Z"/>
                <path class="cls-1" d="M300.01,123.4c-2.02-4.15,17.5-2.56,11.94-10.5-21.91-.99-18.69,15.34-14.08,18.38,7.12,4.71,19.02-1.14,19.34,17.19.17.16.33.34.48.48,2.5-3.03,2.52-13.32-.48-16.95-2.09-2.52-16.71-7.61-17.19-8.59Z"/>
              </g>
            </g>
            <g>
              <g>
                <path class="cls-3" d="M128.49,158.44c0-1.67,0-4.16-.83-5s-1.49-1.69-2.5-.83c-.71.6-1.54,3.83-1.67,5.83-.04.67.3,2.84.87,3.29,1.64,1.27,2.73,1.06,3.29.17,1.66-2.63.83-2.31.83-3.46Z"/>
                <path class="cls-31" d="M128.95,157.77c-.18-2.32-.38-4.03-1.29-4.33-2.5-.83-.83,2.5-3.33,4.16-.98.65-.46,2.77,0,3.33,2.83,3.44,4.8-.87,4.62-3.16Z"/>
              </g>
              <g>
                <path class="cls-3" d="M128.88,173.96c0-1.67,0-4.16-.83-5s-1.49-1.69-2.5-.83c-.71.6-1.54,3.83-1.67,5.83-.04.67.3,2.84.87,3.29,1.64,1.27,2.73,1.06,3.29.17,1.66-2.63.83-2.31.83-3.46Z"/>
                <path class="cls-31" d="M129.34,173.29c-.18-2.32-.38-4.03-1.29-4.33-2.5-.83-.83,2.5-3.33,4.16-.98.65-.46,2.77,0,3.33,2.83,3.44,4.8-.87,4.62-3.16Z"/>
              </g>
              <g>
                <rect class="cls-16" x="122.95" y="162.92" width="6.91" height="5.34" rx="2.48" ry="2.48" transform="translate(-8 6.42) rotate(-2.82)"/>
                <path class="cls-30" d="M124.77,163.38h3.2c.84,0,1.53.68,1.53,1.53h0c0,.8-.65,1.45-1.45,1.45h-3.36c-.8,0-1.45-.65-1.45-1.45h0c0-.84.68-1.53,1.53-1.53Z" transform="translate(-7.96 6.42) rotate(-2.82)"/>
                <rect class="cls-9" x="123.79" y="161.67" width="4.89" height="1.25" rx=".37" ry=".37" transform="translate(-7.84 6.41) rotate(-2.82)"/>
                <rect class="cls-9" x="124.12" y="168.26" width="4.89" height="1.25" rx=".37" ry=".37" transform="translate(-8.16 6.44) rotate(-2.82)"/>
              </g>
              <g>
                <path class="cls-3" d="M128.83,189.4c.05-1.66.13-4.16-.68-5.02s-1.44-1.73-2.47-.91c-.73.58-1.66,3.78-1.84,5.77-.06.66.21,2.85.77,3.31,1.6,1.32,2.7,1.15,3.29.27,1.74-2.58.9-2.28.93-3.43Z"/>
                <path class="cls-31" d="M129.31,188.75c-.11-2.33-.25-4.03-1.16-4.37-2.47-.91-.91,2.47-3.46,4.06-1,.62-.55,2.75-.1,3.33,2.72,3.52,4.82-.72,4.72-3.02Z"/>
              </g>
              <g>
                <rect class="cls-16" x="123.19" y="178.2" width="6.91" height="5.34" rx="2.48" ry="2.48" transform="translate(-3.31 2.36) rotate(-1.05)"/>
                <path class="cls-30" d="M125.03,178.66h3.2c.84,0,1.53.68,1.53,1.53h0c0,.8-.65,1.45-1.45,1.45h-3.36c-.8,0-1.45-.65-1.45-1.45h0c0-.84.68-1.53,1.53-1.53Z" transform="translate(-3.29 2.36) rotate(-1.05)"/>
                <rect class="cls-9" x="124.13" y="176.95" width="4.89" height="1.25" rx=".37" ry=".37" transform="translate(-3.25 2.36) rotate(-1.05)"/>
                <rect class="cls-9" x="124.26" y="183.54" width="4.89" height="1.25" rx=".37" ry=".37" transform="translate(-3.37 2.36) rotate(-1.05)"/>
              </g>
            </g>
            <path class="cls-22" d="M124.87,137.04c3.5,16.27,5.03,23.58,11.87,32.34,4.4,5.63,24.09,20.16,35.68,24.72-5.49-.09-34.05-16.97-40.23-24.75-6.68-8.4-8.31-18.44-8.47-25.05-.04-1.66.29-4.97.48-6.62.08-.68.39-2.73.39-2.73,0,0,.18,1.59.29,2.09Z"/>
            <g>
              <path class="cls-34" d="M158.93,121.71c-.5-1.47-1.36-5.17-5.73-9.43-2.82-2.75-5.81-4.38-7.96-4.74-1.44-.2-2.74-.16-3.92.02-2.25-.1-5.68,1.45-7.92,3.23-5.87,4.68-4.57,12.46,1.08,15.84.25.15.53.29.82.43,3.24,1.76,5.75,1.8,9.2,1.91,0,0,6.24.41,14.03-2.74.47-.19,1.41-.71,1.41-.71,0,0-.22-2.03-1.01-3.82Z"/>
              <path d="M127.54,107.58c2.64,2.22,6.39-6.16,17.05-5.19,8.72.79,15.56,12.06,15.24,22.28-1.16-2.08-2.23-5.18-2.57-5.54-.05-.06-.18.02-1.29-.86,1.16-4.03-6.96-10.25-10.73-10.73-6.55-.85-10.77,2.43-13.74,7.73-.14.25-.58,1.17-.86,2.15-1.13,3.97,1.02,7.74,4.65,9.65-.74,0-3.81-1.99-4.23-2.35-4.02-3.43-7.61-12.5-7.56-18.15-.1-1.1.31-4.58.83-3.19.99,2.65,2.45,3.56,3.2,4.2Z"/>
              <path d="M144.26,120.44c1.9-.49,2.53-3.14,2.21-4.87,11.2-1.45,3.91,16.24-2.21,4.87Z"/>
              <path class="cls-10" d="M157.27,120.1c0-.2-.04-.38-.05-.58,0-.14,0-.27,0-.41,0,0-.02-.02-.04-.02-.84-6.6-8.39-11.1-11.98-11.57-.36,1.44-2.68,2.49-3.43,3.86-.15.27-.81,2.12,0,2.15,2.03-.08,2.65.33,3.43.43.07.43,1.27,1.61,1.29,1.72,10.87-1.4,3.79,15.75-2.15,4.72-2.27.58-4.3-1.57-4.72-.64.81,3.73,1.27,6.93,4.72,8.8,1.25.67,3.25.49,7.72-.31,3.74-.67,4.99-4.57,5.14-8.2.02.01.05.04.06.05Z"/>
              <path class="cls-34" d="M209.07,110.69c.9-.18,3.78-.53,5.05-.47,2.94.16,5.9,2.18,5.9,2.18,7.28,5.07,10.16,9.31,3.22,16.31-.69.31-2.85,1.25-3.01,1.29-5.74,1.41-21.22,1.35-27.05-2-.02,0-.03-.02-.05-.03-.3-.17-.26-2.91.05-3.98,3.45-6.78,7.95-12.16,15.89-13.31Z"/>
              <g>
                <path d="M229.25,114.56c2.17,1.76,3.7.7,5.24-1.17.9-.99.81-1.56,1.05-1.23.27.39.27,1.84-.33,3.75-1.37,4.31-5.27,9.83-11.96,12.82,6.94-7.01,4.06-11.25-3.22-16.31,0,0-1.92-1.42-5.58-2.15-1.82-.36-3.59.17-5.37.43-7.94,1.15-12.44,6.53-15.89,13.31,1.51-13.76,12.07-22.65,26.4-17.6,5.73,2.02,8.22,6.99,9.66,8.16Z"/>
                <path class="cls-10" d="M222.38,118.85c-.19-2.4-3.14-7.78-7.94-8.59-1.83-.31-3.59.17-5.37.43-4.27,6.01-2.22,3.07,1.5,4.29.41.13,1.13.82,1.5,1.29.24.3,1.52.19,3.86.86,4.97,5.8-3.02,11.68-6.44,4.72-1.91.28-4.19-1.74-4.29-1.5.28,14.31,18.69,12.68,17.17-1.5Z"/>
                <path d="M215.94,117.13c4.97,5.8-3.02,11.68-6.44,4.72,2.32-.34,3.84-3.51,2.58-5.58,1.66-.19,2.83-.01,3.86.86Z"/>
              </g>
            </g>
            <g>
              <path d="M126.14,93.49c-.32-.04-.57-.26-.4-.54,1.23-1.98,4.66-7.32,6.9-8.78,2.26-1.48,9.41-4.96,14.55-3.99,4.03.76,4.14,4.49,4.17,6.11,0,.03-.02.06-.05.08-2.65,1.53-4.4.39-8.93.03-1.75-.14-3.24-.01-4.87.46-2.57.74-4.87,2.4-7.04,4.87-.66.75-2.7,1.96-4.34,1.76Z"/>
              <path d="M226.28,86.32c.11.55,2.3,3.22,2.88,5.4l-1.08,1.08c-14.83-10.29-26.1-.3-29.16-7.2,2.55-2.21,3.17-11.87,27.36.72Z"/>
            </g>
            <g>
              <path class="cls-27" d="M185.25,143.02c1.79,8-20.24,11.31-20.88,2.16,5.6,5.57,14.97,2.25,20.88-2.16Z"/>
              <g>
                <path class="cls-19" d="M203.62,149.5c2.64.26,5.03,1.58,6.12,3.96-8.51.6-12.2,25.11-29.16,27.72-25.18,3.88-14.91-25.59-27.72-19.8.7-9.31,39.85-.3,54.01-8.64l-3.24-3.24Z"/>
                <path class="cls-25" d="M198.57,158.15c4.44-.62-4.85,8.34-6.48,9.36-9.07,5.7-30.73,7.42-30.24-4.32,15.16,3.57,34.64-4.75,36.73-5.04Z"/>
              </g>
              <path class="cls-22" d="M169.05,139.42c2.21,1.67,5.3,2.24,5.4,2.52,1.58,4.52-6.69,4.93-5.4-2.52Z"/>
            </g>
            <g>
              <path class="cls-32" d="M165.56,112.71c0,15.74-15.3,27-28,27s-19-10.26-19-26,9.3-22,22-22,25,5.26,25,21Z"/>
              <path class="cls-32" d="M244.56,113.9c0,22.81-17.9,29.81-32.77,29.81s-22.23-11.33-22.23-28.71c0-20.29,10.88-24.29,25.74-24.29,19.26,0,29.26,5.81,29.26,23.19Z"/>
              <g>
                <path d="M249.56,122.71c4.16-9.68-4.33-20.72-5.73-23.8-2.17-4.77-6.05-8.24-9.27-9.2-2-.6-6-1-13-1-6,0-29-3-34.5,13.71-7.21-3.06-12.58-2.59-20-1-1.5-2.71-5.52-11.66-20.5-12.71-1.93-.13-9.16-.71-16,1-8,2-7.86,2.86-10,5s-4.6,9.78-5,18c-.35,7.04,2,17,3,19,.63,1.26,3,6,5.75,7.46,8.64,4.97,15.01,4.96,21.25,4.54,15-1,26.35-18.47,26-32.79,21.23-1.93,7.52,3.43,18.25,22.75,2.56,4.62,9.75,11.04,16.75,13.04,4.9,1.4,14.82,1.78,23-2,13-6,17.7-16.64,20-22ZM163.31,115.42c-.26,7.54-3.33,13.47-8.14,17.34-6.18,4.97-15.23,6.52-24.86,3.66-5.75-1.71-7.78-6.29-8.75-8.71-4-10,0-24,1-27,1.92-5.77,10.39-7.67,16-8,8.61-.51,17.34.25,21.75,8.71,2.09,4,3.16,9.45,3,14ZM196.31,133.67c-3.52-4.73-5.36-13.94-5.5-19.75-.37-15.93,5.18-19.09,20-20.5,5.57-.53,11.46-.87,17,0,.81.13,2.43.35,3,.5,2.12.56,4.25,1.34,5.79,2.84.47.46,4.36,5.98,5.96,16.95.49,3.39,0,8-1.72,12.65-.01.02-.02.03-.04.05-8.92,20.35-36.11,18.5-44.5,7.25Z"/>
                <path class="cls-53" d="M263.28,107.93c-.51-.71-12.85-7.97-15.03-8.89-2.45-1.04-4.78-2.3-5.2-1.97.57,2.38,7.75,12.97,7.56,18.78-.03.91,1.94,1.11,1.94,1.11l.1-.78c9.11.38,12.15-1.51,15.04.62-.21-1.64-3.59-7.73-4.4-8.87Z"/>
                <g>
                  <path class="cls-7" d="M116.87,103.44q-5,2.25-10,4.5c-.53-1.11-2.64-9.66-1.25-10.5,22.79-3.44,17.71-10.26,11.25,6Z"/>
                  <path d="M116.87,103.44q-.62,5-1.25,10c-3.24-2.09-6.93-1.68-8.75-5.5q5-2.25,10-4.5Z"/>
                </g>
                <path d="M261.79,123.36c.37-.18,4.84-5.6,5.88-6.56-2.73-2.01-5.98-.95-13.59-.61-9.56-.34-10.25-3.54-10.25-3.54l.63,3.1c-.08.54.19,2.49.46,4.47l4.41,2.9c3.7-3.78,5.28-4.79,9.33-3.29,2.07,1.2,2.74,2.94,3.13,3.54Z"/>
              </g>
            </g>
            <g>
              <path class="cls-20" d="M253.37,150.56l1,2c1,2-3,3-3,3-1.16.37-2,1-3,0l1-5c1-2,3.66-.46,4,0Z"/>
              <g>
                <path class="cls-3" d="M254.37,158.56c0-2,0-5-1-6s-1.79-2.03-3-1c-.85.72-1.85,4.6-2,7-.05.8.36,3.41,1.05,3.95,1.97,1.52,3.28,1.28,3.96.21,1.99-3.16.99-2.77.99-4.16Z"/>
                <path class="cls-31" d="M254.92,157.76c-.22-2.79-.45-4.83-1.55-5.2-3-1-1,3-4,5-1.18.78-.56,3.32,0,4,3.39,4.13,5.76-1.04,5.55-3.8Z"/>
              </g>
              <g>
                <path class="cls-3" d="M254.84,177.2c0-2,0-5-1-6s-1.79-2.03-3-1c-.85.72-1.85,4.6-2,7-.05.8.36,3.41,1.05,3.95,1.97,1.52,3.28,1.28,3.96.21,1.99-3.16.99-2.77.99-4.16Z"/>
                <path class="cls-31" d="M255.39,176.4c-.22-2.79-.45-4.83-1.55-5.2-3-1-1,3-4,5-1.18.78-.56,3.32,0,4,3.39,4.13,5.76-1.04,5.55-3.8Z"/>
              </g>
              <g>
                <rect class="cls-16" x="247.72" y="163.94" width="8.29" height="6.41" rx="2.48" ry="2.48" transform="translate(-7.92 12.6) rotate(-2.82)"/>
                <path class="cls-30" d="M249.9,164.5h3.84c1.01,0,1.83.82,1.83,1.83h0c0,.96-.78,1.74-1.74,1.74h-4.03c-.96,0-1.74-.78-1.74-1.74h0c0-1.01.82-1.83,1.83-1.83Z" transform="translate(-7.88 12.6) rotate(-2.82)"/>
                <rect class="cls-9" x="248.73" y="162.44" width="5.88" height="1.5" rx=".37" ry=".37" transform="translate(-7.73 12.59) rotate(-2.82)"/>
                <rect class="cls-9" x="249.12" y="170.35" width="5.88" height="1.5" rx=".37" ry=".37" transform="translate(-8.12 12.62) rotate(-2.82)"/>
              </g>
              <g>
                <path class="cls-3" d="M254.78,195.75c.06-2,.15-5-.81-6.03s-1.73-2.08-2.97-1.09c-.88.7-1.99,4.54-2.21,6.93-.08.8.25,3.42.93,3.98,1.93,1.59,3.24,1.38,3.95.33,2.09-3.09,1.08-2.74,1.12-4.12Z"/>
                <path class="cls-31" d="M255.35,194.97c-.13-2.79-.3-4.85-1.39-5.25-2.97-1.09-1.09,2.97-4.15,4.87-1.2.75-.66,3.3-.12,4,3.26,4.23,5.79-.86,5.66-3.63Z"/>
              </g>
              <g>
                <rect class="cls-16" x="248.01" y="182.3" width="8.29" height="6.41" rx="2.48" ry="2.48" transform="translate(-3.37 4.67) rotate(-1.05)"/>
                <path class="cls-30" d="M250.22,182.85h3.84c1.01,0,1.83.82,1.83,1.83h0c0,.96-.78,1.74-1.74,1.74h-4.03c-.96,0-1.74-.78-1.74-1.74h0c0-1.01.82-1.83,1.83-1.83Z" transform="translate(-3.36 4.67) rotate(-1.05)"/>
                <rect class="cls-9" x="249.14" y="180.79" width="5.88" height="1.5" rx=".37" ry=".37" transform="translate(-3.3 4.67) rotate(-1.05)"/>
                <rect class="cls-9" x="249.29" y="188.71" width="5.88" height="1.5" rx=".37" ry=".37" transform="translate(-3.44 4.67) rotate(-1.05)"/>
              </g>
            </g>
          </g>
          <g>
            <path class="cls-51" d="M245.29,225.56s-3.52,6.4-7.29,12.31c3.9-5.22,5.85-9.56,7.29-12.31Z"/>
            <path class="cls-51" d="M251.3,227.04l-6.01-1.48c1.86.68,3.88,1.1,6.01,1.48Z"/>
            <path class="cls-51" d="M238,237.87c-2.2,2.94-5.01,6.15-8.71,9.51,1.2,1.41,5.07-3.82,8.71-9.51Z"/>
            <path class="cls-51" d="M303.88,288.46c-5.51-12.91-14.53-30.58-22.82-42.33-1.15-2.18-2.47-4.28-4.01-6.26-8.28-10.67-17.78-11.4-25.75-12.82h.01s-16.23,35.75-4.46,45.81c10.14,8.68,46.63,71.44,46.63,71.44,0,0,28.4-13.38,26.6-18.53-1.49-4.27-10.04-22.89-16.2-37.31Z"/>
          </g>
          <path class="cls-51" d="M104.64,250.17c-4.92,14.79-3.87,25.34-3.73,32.7.38,20.24,17.52,137.56,17.52,137.56l32.92-46.33-21.49-88.19s-21.76-46.1-25.21-35.73Z"/>
          <path class="cls-12" d="M124.34,321.66l18.97-2.21v23.47l-24.88,77.51s-16.69-47.78-10.61-75.78c.47-2.15,14.31,4.67,14.31,4.67,0,0,14.71-7.44,2.22-27.66Z"/>
          <path class="cls-18" d="M229.14,223.89c-6.82-1.95-9.61-5.52-12.81-11.85,0,0-5.18-13.33-5.59-17.61-8.72,11.12-20.77,19.77-34.26,23.98-.47-.46-.88-.86-1.16-1.13-4.92-4.78-6.44-8.45-6.44-8.45,0,0-5.02,10.13-7.25,11.87-4.86,3.8-23.97,5.91-23.97,5.91l-10,49.33.37,9.98,31.36,24.64,85.83-27.54,4.16-55.41-20.25-3.72Z"/>
          <g>
            <g>
              <path class="cls-29" d="M252.61,318.03s2.01-1.33,2-1c.46.13.85-9.88-2.3-22.05-2.21-8.56-6.12-8.57-11.22-24.19-34.57,31.43-71.92,35.38-87.08,29.38-15.55-6.15-22.86-24.81-24.53-25.98-.69-.48-3.08,6.91-1.98,4.96-3.33,7.69-9.15,19.79-7.94,29.89,1.37,11.43,6.94,17.96,11,21.01,2.73,2.05,9,4,9,4,0,0,5.05,5.22-1,15.01-2.44,3.95-9.96,14.22-18.97,37.34-4.86,19.14-.95,36.73,2.89,53.11,2.1,8.98,6.44,22.15,6.44,22.15,0,0,60.96,13.92,124.92-2.15,6.24-1.57,4.76-.91,6.76-5.14,6.28-13.29,7.85-34.85,3.55-49.98-3.23-11.35-6.46-22.51-12-33.01-7.45-5.87-5.14-31.11-3.95-43.04l4.42-10.31Z"/>
              <path class="cls-8" d="M248.61,322.03c.04.06.06.13.09.21-.01-.17-.04-.24-.09-.21Z"/>
              <path class="cls-8" d="M248.7,322.24c.02.22,0,.59-.03,1.11.11-.46.12-.84.03-1.11Z"/>
            </g>
            <path class="cls-8" d="M114.56,274.01s7,3,13.01-1c6.13-4.09-3,13.01-3,13.01,0,0-6.11-5.26-10-12Z"/>
            <path class="cls-47" d="M252.02,369.48c-3.34-4.78-4.76-16.3-4.67-26.73.04-4.81,0-8.84,1.14-12.81,2.35-3.03,5.2-8.75,6.02-12.16.87-3.6,1.14-13.49-2.04-22.43-.63.95,8.64,19.3-11.92,33.44-11.06,5.43-21.61,5.34-32.08,2.35.22.06,9.33,4.14,16.91,4.65,5.89.4,12.8-.06,12.8-.06,2.43,16.1,3.66,28.1,13.31,51.44,6.56,15.87,16.56,42.94,9.12,67.21.46-.1,4.88-8.56,7.26-27.32.28-2.22,5.88-26.47-15.85-57.58Z"/>
          </g>
          <path class="cls-12" d="M114.56,274.01s7,3,13.01-1c6.13-4.09-3,13.01-3,13.01,0,0-6.11-5.26-10-12Z"/>
          <g>
            <path class="cls-18" d="M140.37,226.33c-7.47-.85-12.08-.57-19.14,3.51-10.19,5.89-19.39,22.52-18.26,28.26,2.51,12.66,21.47,27.93,21.47,27.93,0,0,1.59-4.59,2.94-6.88,3.35-2.64,11.05-50.07,11.05-50.07l1.95-2.76Z"/>
            <path class="cls-12" d="M122.57,256.71l6.91,17.46c.19.45-1.73,5.09-2.33,6.51l-2.71,5.35s2.03-22.58-1.86-29.32Z"/>
          </g>
          <g class="cls-40">
            <g>
              <path class="cls-48" d="M167.92,269.32c-8.97-4.26-20.25-15.07-21.86-20.01-3.16-9.72-2.99-12.28.43-23.36.07-.23.29-.41.45-.59-3.68-1.14-6.91-3.12-12.03-.12-.03,24.37-1.07,12.07-2.01.25-5.93-1.02-6.93.4-10.53,3.86-6.09-2.3-4.46,2.85-4.71,2.96,1.33,10.79,4.9,27.22,10.02,38.06,3.78,8,16.47,31.86,34.77,31.86,2.6-7.07.84-27.12,5.47-32.89Z"/>
              <path class="cls-29" d="M134.91,225.23c-.74,20.7.39,26.47,13.16,42.86-16.45-17.15-14.48-27.37-15.17-42.61.08-.02.5-.41,2.01-.25Z"/>
            </g>
            <g>
              <path class="cls-48" d="M266.22,232.28c-.16-4.2-7.72-5.43-11.72-3.91-12.7,12.98-12.44,13.4,0,0-2.35-4.55-5.13-4.56-12.69-2.42-.03.83-.35,1.84-.5,2.7-2.55,14.48-20.1,30.45-34.65,37.12-11.5,5.28-27.73,7.75-38.75,3.53-5.54,7.29-4.96,25.13-5.52,32.89,18.98,2.54,47.13-7.26,69.68-23.38,9.06-6.48,18.41-18.71,28.68-29.26,4.71-4.84,13.05-13.21,10.79-15.29-.46-.53-.52-1.86-5.34-1.99Z"/>
              <path class="cls-29" d="M255.41,228.09c-11.06,14.4-20.43,28.77-42.66,43.98,20.9-14.26,30.57-29.68,41.33-44.46.99.32,1.26.43,1.33.48Z"/>
            </g>
            <path class="cls-29" d="M132.85,264.41c3.29,11.67,12.15,21.89,23.96,25.24,22.07,5.98,46.82-6.69,65.99-16.85-14.96,9.76-31.45,18.49-49.57,20.2-19.78,2.02-36.28-8.81-40.38-28.59h0Z"/>
          </g>
          <path d="M82.56,187.69c-.06-.04-.72.02-.9-.45.52-.55.85.43.9.45Z"/>
          <g>
            <path class="cls-26" d="M122.43,115.76c5.95-3.98,12.06-7.66,18.37-11.05,1.7-.91.19-3.51-1.51-2.59-6.31,3.39-12.42,7.07-18.37,11.05-1.6,1.07-.1,3.67,1.51,2.59h0Z"/>
            <path class="cls-26" d="M130.35,115.59c2.22-.74,4.45-1.46,6.57-2.44,1.82-.84,3.53-1.92,5.25-2.94s.15-3.58-1.51-2.59-3.37,2.06-5.15,2.9c-.18.08-.35.16-.53.24-.06.03-.41.17-.04.02-.09.04-.17.07-.26.11-.44.18-.89.35-1.34.52-1.25.46-2.51.88-3.77,1.3-.77.26-1.27,1.03-1.05,1.85.21.75,1.07,1.31,1.85,1.05h0Z"/>
          </g>
          <g>
            <path class="cls-26" d="M194.61,115.76c5.95-3.98,12.06-7.66,18.37-11.05,1.7-.91.19-3.51-1.51-2.59-6.31,3.39-12.42,7.07-18.37,11.05-1.6,1.07-.1,3.67,1.51,2.59h0Z"/>
            <path class="cls-26" d="M202.53,115.59c2.11-.71,4.22-1.44,6.25-2.36,1.93-.88,3.75-1.95,5.57-3.03,1.66-.98.15-3.58-1.51-2.59-1.78,1.05-3.57,2.1-5.45,2.97-.19.09-.38.17-.57.25-.03.01-.37.16-.2.09s-.22.09-.21.09c-.44.18-.88.35-1.32.51-1.11.41-2.23.79-3.36,1.17-.77.26-1.27,1.03-1.05,1.85.21.75,1.07,1.31,1.85,1.05h0Z"/>
          </g>
          <g>
            <g>
              <path class="cls-20" d="M326.25,351.51c2.15-7.74,2.02-15.28-6.38-26.44,8.75,23.09-26.06,49.21-50.38,62.27-6.73,3.61-4.74,9.25,1.05,5.59,17.99-11.38,54.37-36.59,55.71-41.41Z"/>
              <path class="cls-4" d="M293.35,342.32c.71,1.37,1.04,3.08,2.35,4.12-1.83,1.89,2.12-.6-.25,1.91-2.93-.25-18.01-29.54-30.46-49.65-2.16-3.48-6.2-6.95-7.53-7.65-2.21-1.16-11.98-9.62-11.98-9.62,0,0-4.16-8.49-4.39-10.65,0-.03,5.33,1.33,5.33,1.33,0,0,10.06,6.85,12.43,10.83,8.66,14.57,29.38,49.54,34.49,59.38Z"/>
            </g>
            <path class="cls-51" d="M292.57,339.46s2.68-7.84,10.37-9.14c-6.77,2.94-12.02,14.12-15.28,19.58-1.35,2.26-4.77,4.49-7.37,6.75-8.19,7.13-7.73,8.81-16.04,15.85-.17.15-3.07,11.13-6.83,13.07.39,1.43,10.46,1.98,11.56,2.12,22.11-8.67,65-38.23,52.52-60.86-27.77-65.93-32.49-.31-28.93,12.64Z"/>
          </g>
          <g>
            <g>
              <path class="cls-11" d="M237.32,402.75c2,.17,15.44-4.66,17.71-5.94,1.5-.85,7.95-4.83,7.59-6.5-6.35,2.95-12.74,7.49-19.29,9.28-1.96.54-1.81.06-1.9.09-.38.11-1.38.32-1.45.36-3.17,1.81-1.57,1.05-4.66.9.06.08-.96,1.15-.59,1.49.88-.18,1.66.24,2.57.32Z"/>
              <path class="cls-11" d="M237.48,418.83c2.9,1.26,5.61,2.47,7.13,2.45,6.42-.11,12.44-4.69,17.58-8.79,1.86-1.49,7.44-6.7,7.19-8.89-6.95,6.4-22.35,18.64-31.36,14.33-.08.26-.24,1.03-.54.9Z"/>
              <path class="cls-11" d="M237.22,413.14c8.88-2.1,18.56-4.53,25.21-11.27.93-.94,4.21-3.35,2.99-4.96-6.92,7.89-18.72,12.66-29.19,13.79-.06,0-1.12.05-1.29.22,1.36.67,1.61,2.05,2.28,2.22Z"/>
              <path class="cls-46" d="M248.52,423.88c1.26-.2,3.47-.6,4-1.99,1.2-1.83-2.4-2.08-3.79-2.89-3.64,2.2-6.18,2.2-.21,4.88Z"/>
              <path class="cls-36" d="M276.17,389.24c-.61-.38-.58-9.53-8.31-10.11-.44-.17-3.19-4.54-4.93-6.47-1.48-1.64-10.48-2.55-10.48-2.55,0,0,2.15,2.89,3.15,4.98.45.94,1.76,3.11,2.3,3.91.87,1.3-.72,2.8-.75,2.81-.22.12-8.52,8.83-10.8,10.24-6.07,3.75-15.16,5.06-11.3,7.36.09-.03,2.24,2.36,4.2,1.83,6.55-1.79,17.19-6.78,23.37-10.93.36,1.67-6.09,5.65-7.59,6.5-2.27,1.28-17.53,6.47-19.33,7.34-1.42.69-1.93,2.04-2.83,3.03,3.57-.47,3.41-1.5,3.36,3.52,10.47-1.13,22.27-5.9,29.19-13.79,1.22,1.61-2.06,4.03-2.99,4.96-6.65,6.74-16.33,9.17-25.21,11.27-.34.34-.46,1.34-.36,1.63.1.29,1.72,1.32,1.17,3.16,9.01,4.31,24.41-7.94,31.36-14.33.25,2.19-5.32,7.4-7.19,8.89-5.14,4.1-7.97,3.18-13.47,6.51,1.39.82,4.99,1.06,3.79,2.89,1.39-.55,11.56-4.51,18.66-11.56,4.41-4.38,3.69-8.05,2.55-13.95.31-.41,2.63-5.48,2.45-7.13Z"/>
            </g>
            <path class="cls-46" d="M236.38,418.98c1.26-.2,3.47-.6,4-1.99,1.2-1.83-2.4-2.08-3.79-2.89-3.64,2.2-6.18,2.2-.21,4.88Z"/>
            <path class="cls-46" d="M234.58,411c1.26-.2,3.47-.6,4-1.99,1.2-1.83-2.4-2.08-3.79-2.89-3.64,2.2-6.18,2.2-.21,4.88Z"/>
            <path class="cls-46" d="M234.5,402.7c1.26-.2,3.47-.6,4-1.99,1.2-1.83-2.4-2.08-3.79-2.89-3.64,2.2-6.18,2.2-.21,4.88Z"/>
          </g>
          <path class="cls-20" d="M273.36,397.24s1.55-3.22-1.05-5.18c0,0,.19-3.71-2.69-5.13,0,0-.56-5.25-3.8-5.09l-1.42-7.17s7.64,2.34,10.62,10.43c1.6,4.36,1.65,4.21,1.65,4.21,0,0-1.4,4.43-1.83,5.2s-1.47,2.74-1.47,2.74Z"/>
          <g>
            <path class="cls-28" d="M282.04,388.22c1.88-.84,1.97-4.74.19-8.71-1.05-2.35-2.52-4.17-3.94-5.11.15.2.29.39.42.58,7.5,10.61.25,12.36.25,12.36,0,0,.03.05.08.13,1.08.81,2.14,1.14,2.98.76Z"/>
            <path class="cls-28" d="M268.55,363.68c.12.31.25.63.41.94.42.84,1.5,2.15,1.5,2.15,0,0,.62-.79.88-1.2.7-1.13-2.5-1.31-2.79-1.88Z"/>
            <g>
              <path class="cls-28" d="M271.51,354.37c.23.32,1.74,1.8,1.99,2.12.67.87,1.85,2.57,1.85,2.57,0,0,.72-.78.68-1.2-.11-1.15-4.06-2.9-4.52-3.49Z"/>
              <path class="cls-28" d="M293.24,381.54c.78-.83-.93-4.81-3.98-8.92-1.81-2.43.96,2.73,1.76,3.76.92,1.18,1.47,2.76,1.58,3.47.23,1.5-1.91-.15-1.91-.15l.17.8s.23.36.3.44c1.07.85,1.74.98,2.09.6Z"/>
              <path class="cls-30" d="M273.48,350.2c-.73-.29-3.47.92-1.98,4.17.25.42,3.82,3.31,5.87,5.3,1.99,1.93,8.9,10.07,10.71,12.5,3.05,4.11,5.73,8.26,5.15,9.23-.25.42-1.28.44-2.38-.91.25.98,2.88,7.29,6.81,3.67.56-.52.73-1.51.57-2.72-.84-6.68-10-17-13.8-21.35-1.98-2.27-4.01-4.41-6.08-6.34-1.63-1.52-3.35-2.95-4.87-3.56Z"/>
            </g>
            <path class="cls-16" d="M291.9,377.75s-7.49-11.84-14.75-18.31c0,0,7.86,4.33,14.75,18.31Z"/>
            <path class="cls-30" d="M274.55,358.25c-.95-.27-1.99-.3-2.96-.09-1.05.22-2.02.73-2.69,1.57-.6.75-.82,1.76-.72,2.71.05.44.17.86.37,1.24.29.57,3.25,1.91,5.03,3.81,1.73,1.85,6.64,9.67,7.69,12.02,1.78,3.97,2.65,7.86.77,8.7-.84.38-1.91.05-2.98-.76.51.76,3.59,4.96,7.9,2.86,1.24-.6,2.32-1.51,3-2.71,3.75-6.58-2.53-15.74-5.32-19.93-1.45-2.18-3.09-4.23-4.95-6.07-1.47-1.45-3.13-2.81-5.13-3.36Z"/>
            <path class="cls-33" d="M285.4,385.43s-2.64-12.93-12.12-21.01c0,0-3.44-3.24-1.02-3.74,2.42-.51,12.47,4.85,13.14,24.76Z"/>
            <path class="cls-33" d="M293.44,372.62c0-.06-9.72-11.24-13.77-14.67-.78-.66-6.55-4.13-4.13-4.64,2.42-.51,14.12,13.76,17.9,19.31Z"/>
          </g>
          <path class="cls-47" d="M145.35,335.46c5,0,10-3,10-3-6,3-16.04,1.67-16.04,1.67,0,0,1.12,1.84,1,5-.12,3.34-1.54,8.12-3.96,12.33-4,6.96-7.14,12.93-9.58,17.88-2.76,4.79-4.86,10.17-6.12,13.6-.92,2.33-1.31,3.52-1.31,3.52-8.57,20.27,7.96,70.09,7.96,70.09-7.11-31.72-9.67-48.08-.16-69.35,4.36-9.76,18.21-51.76,18.21-51.76Z"/>
          <path class="cls-4" d="M296.41,336.97c3.5-5.25,12.02-10.62,12.02-10.62,0,0-6.07,3.06-8.99,4.2s-7.98,8.73-8.06,8.69c0,0,1.64,1.11-3.72,10.65"/>
          <path class="cls-6" d="M68.96,196.77C26.11,201.08-4.52,245.46.55,295.89c5.07,50.43,43.92,87.83,86.77,83.52,42.85-4.31,73.48-48.69,68.41-99.12-5.07-50.43-43.92-87.83-86.77-83.52ZM78.14,360.06c-33.09,0-59.92-32.22-59.92-71.97s26.83-71.97,59.92-71.97,59.92,32.22,59.92,71.97-26.83,71.97-59.92,71.97Z"/>
          <path class="cls-41" d="M102.97,328.24l-7.46-74.91c-.65-6.57-6.56-11.41-13.13-10.75l-24.9,2.48c-6.57.65-11.41,6.56-10.75,13.13l7.46,74.91c.65,6.57,6.56,11.41,13.13,10.75l24.9-2.48c6.57-.65,11.41-6.56,10.75-13.13ZM92,339.01l-24.92,2.48c-5.49.55-10.43-3.5-10.97-8.99l-7.37-74c-.55-5.49,3.5-10.43,8.99-10.97l24.92-2.48c5.49-.55,10.43,3.5,10.97,8.99l7.37,74c.55,5.49-3.5,10.43-8.99,10.97Z"/>
          <g>
            <g>
              <path class="cls-51" d="M81.55,290.49s-.38.99-.8,1.91c.45-.82.65-1.48.8-1.91Z"/>
              <path class="cls-51" d="M82.38,290.62l-.83-.14c.26.07.54.11.83.14Z"/>
              <path class="cls-51" d="M80.75,292.39c-.25.46-.58.97-1.03,1.52.18.19.63-.63,1.03-1.52Z"/>
              <path class="cls-51" d="M90.31,298.91c-.92-1.82-2.38-4.29-3.67-5.9-.19-.3-.39-.59-.63-.86-1.26-1.45-2.55-1.43-3.64-1.53h0s-1.67,5.47.05,6.78c1.48,1.13,7.27,9.84,7.27,9.84,0,0,3.62-2.35,3.31-3.08-.26-.61-1.67-3.22-2.71-5.25Z"/>
            </g>
            <path class="cls-57" d="M77.29,273.47l1,3.31s.39.49.58.39c.53-.3.81-1.42.7-2.59-.09-.88-.74-2-.74-2l-1.54.9Z"/>
            <g>
              <g>
                <path class="cls-23" d="M82,273.09c-.45-.22-.16.73-1.4.96-.12-1.11-.34-1.52-1.16-2.21l.09-.12c.31.07,2.16.72,2.25.81.14.14.15.34.22.57Z"/>
                <path class="cls-23" d="M82,273.09c.09.26.09.71.21.79-.15.06-1.08,1.29-1.57,1.27.03-.34,0-.77-.04-1.11,1.24-.22.95-1.17,1.4-.96Z"/>
              </g>
              <g>
                <path class="cls-23" d="M60.58,265.28c-.19.32-.43.6-.59.95,0-.21.05-.42,0-.63-.21-.06-1.46-.92-1.52-.99-.04-.05-.39-1.21-.4-1.33-.04-.6.28-1.25.65-1.66-.63,2.09,1.56,2.75,1.73,3.12.09.21-.11.52.12.54Z"/>
                <path class="cls-23" d="M89.57,264.46c.68.99.54,1.51.26,2.68.65.1.73-.01,1.38.27l-.02.15c-.16-.28-.06.26-.83-.14-.09.85-1.02-.27-.56.84-.85.54-.55-2.46.01-2.67.03-.13-.92-1.59-.24-1.12Z"/>
                <path class="cls-52" d="M91.23,278.07s-.05-.04-.07-.07c-.32-2.81-1.9-1.74-2.97-2.36-.69-.4-1.39-2.86,1.71-3.03.9,1.14-1.87,1.18-1.52,1.79.08.14,2.21.72,2.54,1.07.48.51.63,2.09.32,2.6Z"/>
                <path class="cls-2" d="M56.29,279.12c-.09.22-.64.67-.29,1.88-.84-.24-2.14-.19-2.11-1.45.06-2.03,2.19-.41,2.4-.43Z"/>
                <path class="cls-2" d="M57.78,276.23l.27,1.34-1.75,1.55c.06-.15.28-.35.3-.44.2-.86-.75-1.37-.76-2.22l1.94-.24Z"/>
                <g>
                  <path class="cls-23" d="M62.07,275.12l-.03,1.48c-.46-.26-.95-.15-1.25-.69q.64-.4,1.28-.8Z"/>
                  <path class="cls-43" d="M63.56,274.38c-.14.56-.3.87-.26,1.51-.45.34-.29-1.29.3-1.85l-.04.34Z"/>
                </g>
                <g>
                  <path class="cls-2" d="M92.41,275.62c-.04-2.59-1.3-2.47-1.4-2.6-.48-.59.72-.66,1.27-1.54.84-1.33.34-3.47-1.07-4.08l-.02.15c-.16-.28-.06.26-.83-.14-.09.85-1.02-.27-.56.84-.85.54-.55-2.46.01-2.67.03-.13-.92-1.59-.24-1.12-.63-.92-1.65-1.28-2.61-.7-.4-.04.04-.91-1.55-1.66.95-2.5-2.01-4.15-3.19-1.79-3.59.47-18.78.21-20.48,1.2-.28.04-1.56-1.52-3.01.09-.63,2.09,1.56,2.75,1.73,3.12.09.21-.11.52.12.54.27-.45.49-.11.14-1.38,1.91-2.86,1.88-1.85,4.95-1.73.44-.16.23-2.29,1.17-2.56,1.32-.39,1.84,1.41,1.34,1.94-.47.49-.49-.35-1.05-1.08-.19,3.53-2.26,2.58-4.71,2.48-1.1,1.02-.48,1.63-.58,2.1-.03.13-.97,1.2-1.02,1.36-.33,1.03.81.73-2.1,2.81-.24.95,1.51,2.37-.63,3.66-.61.37-2.31.57-1.79,1.15.42.47,2.24.71,2.51,2.45.54,3.47-3.64,1.96-1.36,5.58-.04.02-.18.29-.66.51-.08-.01-.77-1.46-.79-1.55-.84-.24-2.14-.19-2.11-1.45.06-2.03,2.19-.41,2.4-.43.06-.15.28-.35.3-.44.2-.86-.75-1.37-.76-2.22q.97-.12,1.94-.24c-.03-.42-1.23-.94-2.04-1.42-.36-.65-.29-1.5.06-2.15,1.13-.7,2.65-.52,2.57-1.48,0-.08-.38-.85-.48-1.47-.11.02-.21.03-.31.05.1-.01.2-.03.31-.05-.26-1.64,1.79-2.16,1.94-2.38.06-.09.16-.89.17-1.09,0-.21.05-.42,0-.63-.21-.06-1.46-.92-1.52-.99-.16.05-.31.17-.45.27-.07.14-.12.29-.17.42.05-.14.1-.28.17-.42-1.02.75-.67.61-1.08,1.81-2.6.03-3.3,2.87-1.28,4.61-.35.16-.7.24-1.04.44-.27.15-.43.26-.63.51-1.15,1.44-.37,3.23,1.18,3.77.12.27-.48.73.2,2.05-2.57-.06-3.17,3.17-.68,4.14-.37,1.41.7,3.1,2.03,2.42,1.23,1.08-.16,1.23.25,2.9.32,1.3,2.11,1.97,3.05,1.06,1.5.51.82.68,1.39,1.38.73.89,2.29.64,2.92-.26.2.03.29,2.06,2.85,1.41.51-1.27.8-.45,1.73-1.07.69-.46.58-1.52,1.37-.88.33-.64.48-1.4.96-1.95,0-.11,0-.13.05-.23-1.05-.09-3.83-1.94-4.74-2.66-1.53-1.21-2.47-2.33-2.66-4.4.01-.1-.17-1.23-.35-1.56-.07-.12-.18-1.38-.24-2.49-.45.34-.29-1.29.3-1.84q-.02.17-.04.34c.02-.06.14-.51.15-.53.15-.4.24-1.06.79-.93q-.15-.19-.31-.38c0-1.4.61-4.84,1.83-5.59.72-.44,1.5.02,2.26-1.49,3.26,1.58,4.23-.78,4.45-.9.89-.47,1.26.65,1.32.72,1.19,1.21,2.24.61,3.34,2.33.43.68.64,1.61,1.1,2.26.19.28.12,2.45.34,2.86.76,1.45.84,3.03.51,3.76.75-1.65.29.51,1.05-.4.06-.19.24-.81.25-.91.03-.34,0-.77-.04-1.11-.12-1.11-.34-1.52-1.16-2.21l.09-.12c.31.07,2.16.72,2.25.81.14.14.15.34.22.57.09.26.09.71.21.79,1.54-.57,2.57,2.55.87,4.43-1.32,1.46-2.25-.13-3.01,1.46-.04.08-.06.7-.58,1.73-.7,1.39-2.01,2.49-3.2,3.36.2.41.31.86.46,1.29.12.34.33.73.35.78.77,0,1.16.86,1.6,1.1.08.04.49.08.65.08,1.14,1.93,3.59,1.21,3.97-1,1.44,1.36,3.45,1.45,3.77-.98.99-.09,1.69-.06,2.27-1.05,2.49.04,3.16-2.76,1.23-4.39q.36-.65.72-1.3c.85.14,1.61-.15,1.97-1.02.45-1.1.08-2.16-.88-2.76ZM57.75,265.69c-.03.13-.05.25-.07.36.02-.11.04-.23.07-.36ZM55.65,267.26c.07-.04.15-.07.22-.09.08-.02.15-.03.23-.04-.08,0-.16.02-.23.04-.08.02-.15.05-.22.09-.05.03-.1.07-.15.11.05-.04.1-.08.15-.11ZM55.11,268.27c0-.08.02-.16.04-.24-.02.08-.03.16-.04.24,0,.12,0,.24.02.37-.02-.12-.03-.24-.02-.37ZM91.23,278.07s-.05-.04-.07-.07c-.32-2.81-1.9-1.74-2.97-2.36-.69-.4-1.39-2.86,1.71-3.03.9,1.14-1.87,1.18-1.52,1.79.08.14,2.21.72,2.54,1.07.48.51.63,2.09.32,2.6Z"/>
                  <path class="cls-52" d="M74.37,259.05c1.67-.35,3.21,2.7,6.28,1.21,1.77,2.09,3.01,1.27,2.6,4.07.37.15,1.81,1.29,1.92,1.32.77.21,2.88-.73,2.49,2.3.66.17,2.99.91,3.32,1.44.38.61.28,1.9-.36,2.22-1.5.75-.25-1.4-.33-1.63-1.84-1.51-4.03.29-3.44-3.28h-1.8c-1.29-1.51-1.89-1.01-2.35-1.5-1.21-1.31,1.36-3.49-2.91-2.41l-.46-1.21c-1.64.23-3.18-.66-4.55-1.53-.57.01-2.19,1.42-1.92.09.06-.29,1.2-1.02,1.49-1.08Z"/>
                </g>
                <path class="cls-52" d="M57.46,282.04s-.18.29-.66.51c-.08-.01-.77-1.46-.79-1.55-.35-1.21.2-1.67.29-1.88l1.75-1.55-.27-1.34c-.03-.42-1.23-.94-2.04-1.42-.36-.65-.29-1.5.06-2.15,1.13-.7,2.65-.52,2.57-1.48,0-.08-.38-.85-.48-1.47-.26-1.64,1.79-2.16,1.94-2.38.06-.09.16-.89.17-1.09.16-.35.4-.63.59-.95.27-.45.49-.11.14-1.38,1.91-2.86,1.88-1.85,4.95-1.73.44-.16.23-2.29,1.17-2.56,1.32-.39,1.84,1.41,1.34,1.94-.47.49-.49-.35-1.05-1.08-.19,3.53-2.26,2.58-4.71,2.48-1.1,1.02-.48,1.63-.58,2.1-.03.13-.97,1.2-1.02,1.36-.33,1.03.81.73-2.1,2.81-.24.95,1.51,2.37-.63,3.66-.61.37-2.31.57-1.79,1.15.42.47,2.24.71,2.51,2.45.54,3.47-3.64,1.96-1.36,5.58Z"/>
              </g>
              <g>
                <g>
                  <g>
                    <path class="cls-4" d="M76.76,286.14c-1.06,1.83-2.64,3.31-4.48,4.09-.36-.42-.81-.8-.95-1.38-.1-.42-.09-1.16-.09-1.62,0-.11,0-.13.05-.23,1.7.15,3.64-1.13,5.01-2.14.2.41.31.86.46,1.29Z"/>
                    <path class="cls-51" d="M77.11,286.92c.08.3.16.6.22.9-.85,1.37-2.24,2.47-3.63,3.15-.32.16-.24.17-.25.17-.1.04-.04.11-.34-.04-.04-.02-.19-.1-.22-.13-.04-.03-.52-.64-.62-.75,1.85-.78,3.43-2.26,4.48-4.09.12.34.33.73.35.78Z"/>
                  </g>
                  <path class="cls-51" d="M79.71,280.14c-.62,2.55-6.04,6.15-7.69,6.27-2.1.15-6.62-3.16-7.35-5.51.75.09,1.52.02,2.21-.26.1.12.45.4.99,1.16,1.09,1.52,1.81,3.13,3.92,2.64,1.68-.4,1.96-1.7,2.41-2.39.38-.59.81-1.16,1.19-1.75.49.08,1.04.11,1.52,0,.28-.07,1.53-.76,1.36-1.03.3-.2,1.03-.94,1.24-1.24.33.64.38,1.41.21,2.13Z"/>
                  <path class="cls-5" d="M78.26,279.25c.17.27-1.07.96-1.36,1.03-.48.12-1.03.09-1.52,0,.05-.08.06-.22.11-.31.93.11,1.98-.2,2.78-.73Z"/>
                  <g>
                    <path class="cls-51" d="M79.5,281.49c-.25-.22.54-.96.21-1.35.17-.71.12-1.49-.21-2.13.2-.29.65-1.51.76-1.89.06-.19.38-.87.39-.97.49.02,1.42-1.22,1.57-1.27,1.54-.57,2.57,2.55.87,4.43-1.32,1.46-2.25-.13-3.01,1.46-.04.08-.06.7-.58,1.73Z"/>
                    <path class="cls-13" d="M82.75,276.64c.35,1-.54,1.22-.88,1.05-.35-.17-.64-1.47-.49-1.95.59.2,1.31,1.45,1.37.9Z"/>
                    <path class="cls-55" d="M82.75,276.64c-.06.55-.78-.7-1.37-.9.2-.69,2.16-1.34,1.98.46-.32-1.42-1.36-.71-1.38-.56-.02.12.61.54.77.99Z"/>
                  </g>
                  <path class="cls-57" d="M75.23,280.08c-.23.08-.41.34-.7.44-2.5.87-4.61,1.26-7.11.06-.14-.07-.28-.12-.42-.18,1.9-.65,3.1-3.16,2.84-5.25,2.82-.57,1.06.4,2.77,3.09.71,1.11,1.5,1.44,2.62,1.84Z"/>
                  <g>
                    <path class="cls-37" d="M66.99,280.4c.14.06.29.11.42.18.36.5,1.08.88,1.62,1.32.03.02.17.37.4.59.1.09.24.15.36.22-.5.33-1.4-.69-1.92-.92-.54-.75-.9-1.04-.99-1.16,0,0,0-.11-.09-.21.06-.02.14,0,.2-.02Z"/>
                    <path class="cls-37" d="M75.49,279.98c-.05.09-.05.22-.11.31-.38.59-.8,1.16-1.19,1.75-.2.05-.8.25-.92.32.27-.41.55-.8.83-1.2.14-.2.33-.41.41-.63.29-.1.47-.36.7-.44l.26-.1Z"/>
                    <path class="cls-46" d="M74.2,282.03c-.45.69-.73,2-2.41,2.39-1.28.06-2.62-1.39-1.92-1.66,1.69.88,2.73-.07,3.42-.42.12-.06.72-.26.92-.32Z"/>
                    <path class="cls-38" d="M69.79,282.71c.08.05.07.06.07.07-.7.27.64,1.72,1.92,1.66-2.1.5-2.82-1.12-3.92-2.64.52.23,1.42,1.25,1.92.92Z"/>
                    <path class="cls-38" d="M74.52,280.52c-.09.23-.27.44-.41.63-1.58.81-3.35,1.17-5.08.74-.54-.44-1.26-.82-1.62-1.32,2.5,1.2,4.61.81,7.11-.06Z"/>
                    <path class="cls-50" d="M74.11,281.15c-.28.4-.57.79-.83,1.2-.68.35-1.72,1.31-3.42.42,0,0,0-.02-.07-.07-.12-.07-.26-.13-.36-.22-.23-.21-.37-.57-.4-.59,1.73.43,3.5.07,5.08-.74Z"/>
                  </g>
                </g>
                <g>
                  <g>
                    <path class="cls-50" d="M77.02,276.19c.21-.3.12-.23.15-.53,0-.07-.02-.15-.02-.22,0-.02.17-.08-.04-.44.42.05,1,.57,1.03.86.11,1.07-2.52,1.49-3.78.53-.63-.48-.14-.33.05-.52.4-.4.61-1.36,1.95-1.24.72.07-.49.04-.72.63-.44,1.13.75,1.83,1.38.93Z"/>
                    <path class="cls-45" d="M77.11,275c.21.36.04.42.04.44l-.18.24c-.86.3-.75-.79.14-.68Z"/>
                    <path class="cls-31" d="M77.17,275.66c-.03.3.06.23-.15.53-.43-.21-.03-.23.02-.52h.13Z"/>
                    <path class="cls-44" d="M77.17,275.66h-.13s-.05.01-.07.02l.18-.24c0,.07.03.15.02.22Z"/>
                  </g>
                  <g>
                    <path class="cls-2" d="M64.88,272.66c-.79,1.36-.66,4.68-.65,4.51.08.1-.32,3.1-.39,3-.64-.97-1.66-3.09-.81-5.55.2-.6,1.09-1.84,1.84-1.97Z"/>
                    <path class="cls-57" d="M79.35,276.47c.49-1.67-1.18-.62-1.21-.62.11,1.07-2.52,1.49-3.78.53-.63-.48-.14-.33.05-.52-.15-.66.32-1.24.79-1.59.23-.17.79-.23,1.19-.27s.98.34,1.36.71c.12.14,1.61-2.96,1.64-2.98.03-.02.19-.61.17-.72-.05-.26-.87-.88-1.06-1.15-.46-.65-.67-1.58-1.1-2.26-1.1-1.72-2.15-1.11-3.34-2.33-.06-.06-.43-1.19-1.32-.72-.22.12-1.19,2.48-4.45.9-.77,1.51-1.54,1.05-2.26,1.49-.99,1.7-2.27,6.82-2.25,6.78-.08.6-.28,1.36-.22,2.04-.02.56.11,1.92.07,2.07-.41,1.38.14,2.8.3,3.08.02.04,1.97-.25,2.87-.49.06-.02.14,0,.2-.02,1.9-.65,3.1-3.16,2.84-5.25,2.82-.57,1.06.4,2.77,3.09.71,1.11,1.5,1.44,2.62,1.84l.26-.1c.93.11,1.98-.2,2.78-.73.3-.2,1.03-.94,1.24-1.24.2-.29.79-1.57.9-1.94-.76.92-.28-1.24-1.05.4ZM68.79,275.92c-.26-.03-.03.46-.08.56-.1.2-.47-.18-.52.24.01.08.04.24.03.29.68.09-.36,1.82-.6,1.84-.19.02-.43-.7-1-.56-.27.06-1.43-.09-2.19-1.12.02-.41.02-1.13.04-1.18.01-.05-.05-.23.03-.41.47-1.16,2.66-1.62,3.7-1.67.34.56.56,1.34.6,2.01ZM74.77,270.27c-.16.02-.32.04-.47.07.15-.03.31-.06.47-.07ZM73.47,270.66c-.07.04-.12.09-.17.14.04-.05.1-.09.17-.14Z"/>
                    <path class="cls-50" d="M66.74,275.69c-2.18.81.43,2.89.78,1.03.06-.3.03-.52-.01-.81.07,0,.49.38.6.61.02.04.09.2.09.21,0,.04.01.09.02.14,0,.06.01.12,0,.15-.15.89-2.41,1.03-3.38.79-.34-.08-.42-.47-.41-.77.02-1.01,2.01-1.76,2.31-1.35Z"/>
                    <path class="cls-51" d="M68.19,273.91c-1.04.06-3.23.52-3.7,1.67-.07.18-.02.36-.03.41.78-1.54,3.62-1.45,3.64.52.02.03.14.24.07.65-.37.75-2.53.79-3.33.64-.05,0-.37-.13-.19.09.53.66,1.67.88,2.05.95.55.09.75.09.92,0,1.06-.51,1.16-2.3,1.17-2.93.01-.53-.26-1.45-.6-2.01Z"/>
                    <path class="cls-3" d="M67.51,276.72c-.26.42-.64.27-.5-.25.27-.09.33-.55.49-.57.04.29.07.52.01.81Z"/>
                  </g>
                </g>
              </g>
            </g>
            <g>
              <g>
                <path class="cls-3" d="M65.82,285.16c0-.21-.01-.52-.11-.62s-.17-.2-.27-.1c-.08.08-.15.48-.16.73,0,.08.04.35.11.4.18.15.3.12.36.01.17-.33.08-.29.08-.43Z"/>
                <path class="cls-31" d="M65.87,285.08c-.03-.29-.05-.5-.15-.53-.27-.1-.08.31-.35.53-.1.08-.04.34.01.41.32.42.52-.12.49-.41Z"/>
              </g>
              <g>
                <g>
                  <path class="cls-3" d="M65.73,283.24c0-.21-.01-.52-.11-.62s-.17-.2-.27-.1c-.08.08-.15.48-.16.73,0,.08.04.35.11.4.18.15.3.12.36.01.17-.33.08-.29.08-.43Z"/>
                  <path class="cls-31" d="M65.78,283.15c-.03-.29-.05-.5-.15-.53-.27-.1-.08.31-.35.53-.1.08-.04.34.01.41.32.42.52-.12.49-.41Z"/>
                </g>
                <g>
                  <path class="cls-16" d="M65.83,284.44l-.56.05c-.05,0-.1-.04-.1-.1l-.03-.44c0-.06.04-.11.09-.12l.56-.05c.05,0,.1.04.1.1l.03.44c0,.06-.04.11-.09.12Z"/>
                  <path class="cls-30" d="M65.82,284.2l-.57.05s-.05-.02-.06-.05l-.02-.25s.02-.06.05-.07l.57-.05s.06.02.06.06l.02.25s-.02.06-.05.06Z"/>
                  <path class="cls-9" d="M65.75,283.78l-.49.04s-.02,0-.02-.02v-.1s0-.03.01-.03l.49-.04s.02,0,.02.02v.1s0,.03-.01.03Z"/>
                  <path class="cls-9" d="M65.8,284.59l-.49.04s-.02,0-.02-.02v-.1s0-.03.01-.03l.49-.04s.02,0,.02.02v.1s0,.03-.01.03Z"/>
                </g>
                <g>
                  <path class="cls-3" d="M65.87,287.07c0-.21,0-.52-.09-.62s-.16-.21-.27-.11c-.08.07-.17.47-.18.72,0,.08.03.35.09.41.18.16.3.13.36.02.18-.32.09-.29.09-.43Z"/>
                  <path class="cls-31" d="M65.92,286.99c-.02-.29-.04-.5-.14-.54-.27-.11-.09.31-.36.51-.11.08-.05.34,0,.41.31.43.52-.1.5-.39Z"/>
                </g>
                <g>
                  <path class="cls-16" d="M65.9,286.34l-.56.03c-.05,0-.1-.04-.1-.1l-.02-.44c0-.06.04-.11.09-.11l.56-.03c.05,0,.1.04.1.1l.02.44c0,.06-.04.11-.09.11Z"/>
                  <path class="cls-30" d="M65.9,286.1l-.57.03s-.05-.02-.05-.06v-.25s.01-.06.04-.06l.57-.03s.06.03.06.06v.25s-.01.06-.04.06Z"/>
                  <path class="cls-9" d="M65.83,285.68l-.49.02s-.02-.01-.02-.02v-.1s0-.03.02-.03l.49-.02s.02.01.02.02v.1s0,.03-.02.03Z"/>
                  <path class="cls-9" d="M65.87,286.5l-.49.02s-.02-.01-.02-.02v-.1s0-.03.02-.03l.49-.02s.02.01.02.02v.1s0,.03-.02.03Z"/>
                </g>
              </g>
            </g>
            <path class="cls-20" d="M63.91,279.43c.74.69,1.98,1.23,2.88.99.09.1.08.2.09.21-.7.29-1.46.35-2.21.26.73,2.35,5.25,5.65,7.35,5.51,1.65-.11,7.08-3.72,7.69-6.27.34.4-.46,1.14-.21,1.35-.7,1.39-2.01,2.49-3.2,3.36-1.37,1.01-3.31,2.29-5.01,2.14-1.05-.09-3.97-1.67-4.87-2.39-1.44-1.14-2.74-3.21-2.93-5.29,0,0,.4.11.42.11Z"/>
            <path class="cls-20" d="M64.82,272.03c-.22.16-.87,1.58-1.05,1.78,0-1.4.88-6.31,2.26-6.87,1.74-.7-.53.71-1.06,3.7-.08.44-.04.94-.14,1.38Z"/>
            <g>
              <path class="cls-51" d="M70.89,280.08c-.56.03-1.08-.31-1.49-.66-.4-1.48.44-.18.78,0,.88.45,2.42-.29.71.67Z"/>
              <path class="cls-55" d="M69.4,279.41c.4.35.93.69,1.49.66.5-.03,1.86-1.03,1.16-.27-1.32,1.44-3.71-.64-2.92-.74.06,0,.07.17.27.34Z"/>
            </g>
            <path class="cls-51" d="M74.73,272.2c.39-.08.12.09-.38.38-.78.46-1.24,1.16-.64,3.1.02.07-.04.06-.09.12l-1.28-.31c-.28-2.33.52-2.9,2.39-3.28Z"/>
            <path class="cls-20" d="M82.62,278.11l.16.28c.16.28-.36.48-.36.48-.15.07-.25.17-.4.04l.06-.75c.11-.31.49-.12.54-.05Z"/>
            <path class="cls-51" d="M79.63,271c-.08-.57-.61-.51-1.05-1.08-.37-.48-.68-1.64-.71-1.71-.54-1.43-1.81-1.89-1.81-1.89,0,0,2.12,2.3,1.78,5.74-.08-.01-.59-.26-.7-.27-.73.17-.12.26.29.9.54.84.89,1.89.76,2.92,0,.04.02.27.02.26,0,0-.1.33-.23.47-.61.66-1.96.62-2.39.54-.27-.05-.7-.22-.7-.22,0,0,.53,1.28,2.81,1.05.92-.09,1.75-2.08,1.79-2.55.06-.67-.14-1.47-.63-2.31-.02-.03.81-1.57.77-1.86Z"/>
            <g>
              <path d="M63.65,274.03s.07-.02.13-.08c.75-.67,1.12-1,1.38-1.18.51-.35.86-.4.91-.41.48-.23,2.42.29,1.66-.72-.7-.93-2.32,0-3,.49-.22.16-1.13,1.25-1.08,1.9Z"/>
              <path d="M77.04,271.91c.09.08.07-.36-.02-.59-.7-1.54-3.81-.94-3.92-.23-.17,1.07,1.41.03,2.94.29.38.09.52.08,1,.53Z"/>
            </g>
            <path class="cls-20" d="M78.11,274.26s-.04.1-.07.06c-.63-1.02-2.43-1.11-3.08-.68-.39.26.89-1.3,2.27-.77.69.27.81,1.09.88,1.38Z"/>
            <path class="cls-39" d="M79.01,274.74c-.57.25-.95.22-1.19,0-.06-.05-.11-.1-.16-.14-1.07-1.36-3.55-.37-3.25,1.26.4-.4.61-1.36,1.95-1.24.72.07-.49.04-.72.63-.44,1.13.75,1.83,1.38.93-.43-.21-.03-.23.02-.52-.02,0-.05,0-.07,0-.86.3-.75-.79.14-.68.42.05,1,.57,1.03.86.08.18-.05.36-.04.34.12-.16.23-.47.09-.56.31-.04.83-.9.83-.9Z"/>
            <path class="cls-20" d="M64.37,275.82s.5-.88.97-1.14c.72-.4,2.49-.85,2.91-.74s-1.63-.51-2.86.14c-.17.09-.45.3-.6.51-.48.64-.42,1.23-.42,1.23Z"/>
            <path class="cls-39" d="M64.54,275.86h0c-.39.45-.98.16-.98.16,0,0,.24.51.69.57.02,0,.04,0,.07.02.03.27.04.33.12.43.02-1.01,2.01-1.76,2.31-1.35.02.01.03.03.04.04.03.03.03.06,0,.07.02-.02.02-.04,0-.07,0-.01-.02-.02-.04-.04-2.18.81.43,2.89.78,1.03-.26.42-.64.27-.5-.25-.12-.03-.21-.05-.29-.07.08.02.17.04.29.07.27-.09.33-.55.49-.57.07,0,.49.38.6.61-.02-1.91-2.7-2.05-3.57-.65Z"/>
            <g>
              <path class="cls-32" d="M68.96,275.65c.22,2.31-1.67,4.17-3.37,4.34-1.7.17-2.7-1.24-2.92-3.55-.22-2.31.93-3.35,2.64-3.53,1.7-.17,3.43.43,3.65,2.74Z"/>
              <path class="cls-32" d="M79.58,274.74c.32,3.35-1.98,4.62-3.97,4.82-1.99.2-3.15-1.36-3.39-3.91-.29-2.98,1.11-3.71,3.11-3.92,2.58-.26,4.01.45,4.26,3Z"/>
              <g>
                <path d="M80.38,275.97c.64-1.49-.78-2.71-.98-3.16-.52-1.13-1.05-1.38-1.5-1.48-.28-.06-.82-.06-1.76.03-.81.08-3.93-.04-4.44,2.48-1.01-.35-1.73-.21-2.7.13-.24-.38-.91-1.64-2.93-1.58-.26,0-1.24.02-2.13.37-1.05.4-1.01.53-1.27.87s-.48,1.5-.41,2.71c.05,1.04.51,2.47.67,2.75.1.18.49.84.88,1.02,1.89.92,2.08.52,2.92.37,2-.35,3.27-3.07,3.02-5.17,2.82-.57,1.06.4,2.77,3.09.41.64,1.47,1.49,2.43,1.68.68.14,2.01.06,3.06-.61,1.66-1.06,2.04-2.73,2.37-3.5ZM68.7,276.08c.07,1.11-.25,2.02-.85,2.66-.76.81-1.95,1.17-3.28.88-.8-.17-1.13-.82-1.3-1.16-.68-1.41-.34-3.52-.25-3.97.18-.87,1.29-1.27,2.03-1.39,1.15-.19,2.33-.2,3.04.98.34.56.56,1.34.6,2.01ZM73.39,278.3c-.54-.64-.92-1.97-1.02-2.82-.28-2.33.42-2.87,2.39-3.28.74-.15,1.53-.28,2.28-.23.11,0,.33.02.41.03.29.05.59.14.82.34.07.06.67.82,1.04,2.4.11.49.11,1.17-.05,1.88,0,0,0,0,0,0-.91,3.11-4.58,3.21-5.87,1.67Z"/>
                <path class="cls-53" d="M82,272.35c-.09-.09-1.93-.74-2.25-.81-.35-.07-1.1.1-1.14.16.69.58.6,2.15,1.21,2.69.1.09.47-.22.74-.41l.04.03.27-.03v-.11c1.2-.23,1.54-.6,1.98-.38-.08-.23-.71-1-.85-1.14Z"/>
                <g>
                  <path class="cls-7" d="M62.3,274.96l-1.28.8c-.09-.16-.49-1.38-.32-1.52,3.01-.82,2.23-1.75,1.6.73Z"/>
                  <path d="M62.3,274.96l-.03,1.48c-.46-.26-.95-.15-1.25-.69l1.28-.8Z"/>
                </g>
                <path d="M82.34,273.84c-.12-.08.58-.23.49-.49-.42-.2-.8.2-1.79.49-1.27.25-1.7-.13-1.7-.13l.18.43c0,.08.1.35.2.63l-.27.13.38.99c.65-.87,1.08-.63,1.89-1.53.29-.3.56-.48.63-.51Z"/>
              </g>
            </g>
            <path class="cls-51" d="M63.31,295.78c-.45,2.24-.16,3.77-.04,4.85.34,2.96,4.31,19.94,4.31,19.94l3.76-7.25-4.14-12.64s-3.58-6.46-3.89-4.9Z"/>
            <path class="cls-12" d="M66.97,306l2.51-.58.33,3.44-2.24,11.71s-2.92-6.78-2.5-10.97c.03-.32,1.99.49,1.99.49,0,0,1.87-1.29-.1-4.09Z"/>
            <g>
              <path class="cls-56" d="M76.76,286.15c-1.06,1.83-2.64,3.31-4.48,4.09-.36-.42-.81-.8-.95-1.39-.1-.42-.09-1.16-.09-1.62,0-.11,0-.13.05-.23,1.7.15,3.64-1.13,5.01-2.14.2.41.31.86.46,1.29Z"/>
              <path class="cls-18" d="M79.65,290.22c-.94-.19-1.37-.68-1.89-1.56,0,0-.88-1.88-1-2.51-1.01,1.75-2.51,3.19-4.26,3.99-.07-.06-.13-.11-.17-.15-.73-.63-.98-1.15-.98-1.15,0,0-.53,1.55-.8,1.84-.6.62-3.13,1.2-3.13,1.2l-.64,7.37.19,1.46,4.56,3.18,11.13-5.22-.23-8.19-2.77-.27Z"/>
            </g>
            <g>
              <g>
                <path class="cls-29" d="M84.14,303.7s.25-.22.25-.17c.06.01-.03-1.46-.62-3.2-.42-1.23-.94-1.17-1.85-3.4-4.19,5.08-9.15,6.18-11.27,5.5-2.17-.69-3.42-3.33-3.66-3.48-.1-.06-.31,1.06-.2.76-.34,1.17-.95,3.03-.64,4.49.35,1.66,1.19,2.54,1.78,2.93.4.26,1.27.46,1.27.46,0,0,.75.7.08,2.22-.27.61-1.13,2.22-2.01,5.74-.38,2.87-.31,8.65.44,11,.41,1.29,3.17,12.22,3.17,12.22,0,0,14.22-1.46,15.77-1.72,1.83-.31,2.27-13.83,2.57-14.44-.51-2.26-1.5-4.24-2.29-6.4-.59-1.62-1.19-3.21-2.08-4.68-1.08-.76-1.13-4.49-1.14-6.26l.45-1.57Z"/>
                <path class="cls-8" d="M83.66,304.35s.01.02.01.03c0-.02,0-.03-.01-.03Z"/>
                <path class="cls-8" d="M83.67,304.38s0,.09.01.16c0-.07,0-.12-.01-.16Z"/>
              </g>
              <path class="cls-8" d="M64.98,299.14s.98.34,1.73-.33-.22,1.95-.22,1.95c0,0-.89-.69-1.51-1.62Z"/>
              <path class="cls-47" d="M84.79,311.26c-.52-.65-.87-2.33-1.01-3.86-.06-.71-.13-1.3-.03-1.9.27-.48.57-1.35.63-1.87.07-.54-.04-1.99-.59-3.26-.07.15,1.43,2.71-1.12,5.07-1.41.95-2.82,1.08-4.27.79.03,0,1.31.48,2.34.45.8-.02,1.72-.19,1.72-.19.56,2.33.89,4.07,2.52,7.36,1.11,2.24,3.24,13.79,2.98,14.46.06-.02,1.05-.48,1.26-5.7.01-.33-1.06-7.09-4.42-11.36Z"/>
            </g>
            <path class="cls-12" d="M64.98,299.14s.98.34,1.73-.33-.22,1.95-.22,1.95c0,0-.89-.69-1.51-1.62Z"/>
            <g>
              <path class="cls-18" d="M67.77,291.79c-1.01-.02-1.63.08-2.52.78-1.28,1-2.28,3.57-2.05,4.4.52,1.82,3.28,3.8,3.28,3.8,0,0,.15-.69.3-1.05.41-.43.77-7.5.77-7.5l.22-.43Z"/>
              <path class="cls-12" d="M65.81,296.49l1.18,2.47c.03.06-.16.77-.22.99l-.29.82s-.05-3.34-.67-4.28Z"/>
            </g>
            <g class="cls-40">
              <g>
                <path class="cls-48" d="M72.08,297.72c-1.26-.5-2.93-1.93-3.22-2.64-.56-1.38-.58-1.76-.27-3.43,0-.04.03-.06.05-.09-.51-.12-.97-.36-1.62.15.34,3.57.03,1.78-.27.06-.81-.07-.92.15-1.36.71-.85-.25-.56.48-.59.5.33,1.56,1.05,3.93,1.89,5.45.62,1.12,2.66,4.45,5.12,4.2.25-1.07-.27-3.99.27-4.9Z"/>
                <path class="cls-29" d="M67.02,291.71c.2,3.05.43,3.88,2.38,6.11-2.45-2.29-2.33-3.82-2.64-6.04.01,0,.06-.07.27-.06Z"/>
              </g>
              <g>
                <path class="cls-48" d="M84.74,290.94c-.08-.61-1.11-.69-1.63-.41-1.52,2.08-1.48,2.14,0,0-.38-.64-.75-.6-1.74-.18,0,.12-.02.27-.03.4-.14,2.16-2.26,4.74-4.12,5.92-1.47.93-3.61,1.52-5.15,1.05-.64,1.15-.31,3.75-.27,4.9,2.58.11,6.22-1.71,9.02-4.39,1.12-1.07,2.21-3,3.43-4.69.56-.78,1.56-2.12,1.23-2.39-.07-.07-.1-.27-.74-.22Z"/>
                <path class="cls-29" d="M83.23,290.47c-1.28,2.26-2.33,4.5-5.1,7.04,2.6-2.38,3.68-4.77,4.91-7.09.14.03.18.05.19.05Z"/>
              </g>
              <path class="cls-29" d="M67.3,297.48c2.39,3.43,5.42,2.98,8.76,1.45,1.14-.47,2.22-1.03,3.43-1.45-.35.55-.77,1.03-1.19,1.52-1.37,1.42-3.11,2.59-5.09,2.96-2.8.76-6.02-1.54-5.91-4.48h0Z"/>
            </g>
            <path d="M59.46,286.92s-.1.01-.13-.05c.06-.09.12.05.13.05Z"/>
            <g>
              <g>
                <path class="cls-2" d="M61.23,261.59s.06-.02.09-.03c2.69-.09,5.16-.29,7.34,1.15.06,0,.13,0,.19.01-.02-.24-.07-.51-.16-.83,1.15-2.19-.2-4.21-2.16-3.04-.25-.13.04-.23.04-.24-.23-.33-.8-.86-1.17-1.01-.03-.01-.53-.13-.56-.13-1.7-.04-2.83,1.65-1.89,3.33-.81.07-1.37.36-1.71.78Z"/>
                <path class="cls-2" d="M71.08,261.8c1.23.09,2.52.93,3.76.75,1.53-.22,2.97-1.39,4.51-1.49.78-.05,1.55-.05,2.33.03.09.01.19.02.28.03-.7-.31-1.09-2.35-2.76-1.77-.48,0-.73.77-1.19.57-.31-.13-.68-1.91-2.89-1.12-.21.11-.75-.74-1.3-.97-.99-.42-2.66-.21-3.21.9-.13.26-.35,1.77-.87,2.62.12.05.2.12.26.19.36.1.72.19,1.08.26Z"/>
                <path class="cls-2" d="M68.69,261.9c.08.32.13.6.16.83.29.02.58.04.87.04.44-.07.87-.16,1.3-.27.24-.11.47-.23.7-.36-.09-.02-.19-.01-.31.03-.12-1.02-.86-2.33-.92-2.62-1.53,1.1-.88-1.64-2.61-1.65-.5,0-1.08.24-1.31.71,0,0-.28.1-.04.24,1.96-1.17,3.32.85,2.16,3.04Z"/>
              </g>
              <path class="cls-52" d="M74.02,261.38c.67.2.15.94.89,1.1,2.59-.39,2.92-1.4,4.6.06-.18-.33.08-.99-.26-1.2-1.55-.96-2.23.07-2.91-.08-.66-.18-1.86-1.82-3.6.41.49.11.83-.43,1.29-.29Z"/>
            </g>
            <g>
              <g>
                <path class="cls-3" d="M82.95,281.96c0-.29-.02-.72-.15-.86s-.23-.28-.38-.13c-.1.11-.22.67-.22,1.01,0,.12.06.49.15.56.25.21.42.17.5.02.24-.46.11-.4.11-.6Z"/>
                <path class="cls-31" d="M83.02,281.84c-.04-.4-.08-.69-.22-.74-.38-.13-.11.43-.48.73-.15.12-.06.48.02.57.44.58.72-.17.68-.57Z"/>
              </g>
              <g>
                <g>
                  <path class="cls-3" d="M82.82,279.28c0-.29-.02-.72-.15-.86s-.23-.28-.38-.13c-.1.11-.22.67-.22,1.01,0,.12.06.49.15.56.25.21.42.17.5.02.24-.46.11-.4.11-.6Z"/>
                  <path class="cls-31" d="M82.89,279.16c-.04-.4-.08-.69-.22-.74-.38-.13-.11.43-.48.73-.15.12-.06.48.02.57.44.58.72-.17.68-.57Z"/>
                </g>
                <g>
                  <path class="cls-16" d="M82.96,280.95l-.78.07c-.07,0-.14-.06-.14-.14l-.04-.62c0-.08.05-.16.12-.16l.78-.07c.07,0,.14.06.14.14l.04.62c0,.08-.05.16-.12.16Z"/>
                  <path class="cls-30" d="M82.95,280.62l-.8.07s-.07-.03-.08-.08l-.02-.34s.03-.09.07-.09l.79-.07s.08.03.08.08l.02.34s-.03.08-.07.09Z"/>
                  <path class="cls-9" d="M82.84,280.03l-.68.06s-.03-.01-.03-.03v-.14s0-.04.02-.04l.68-.06s.03.01.03.03v.14s0,.04-.02.04Z"/>
                  <path class="cls-9" d="M82.92,281.17l-.68.06s-.03-.01-.03-.03v-.14s0-.04.02-.04l.68-.06s.03.01.03.03v.14s0,.04-.02.04Z"/>
                </g>
                <g>
                  <path class="cls-3" d="M83.02,284.62c0-.29,0-.72-.13-.86s-.23-.29-.38-.15c-.11.1-.23.66-.25,1,0,.11.04.49.13.57.25.22.41.19.5.03.25-.45.13-.4.13-.6Z"/>
                  <path class="cls-31" d="M83.08,284.5c-.03-.4-.06-.69-.19-.75-.38-.15-.13.43-.5.71-.15.11-.07.48,0,.57.43.6.73-.14.7-.54Z"/>
                </g>
                <g>
                  <path class="cls-16" d="M83.05,283.6l-.78.04c-.07,0-.14-.06-.14-.14l-.03-.62c0-.08.05-.15.13-.16l.78-.04c.07,0,.14.06.14.14l.03.62c0,.08-.05.15-.13.16Z"/>
                  <path class="cls-30" d="M83.05,283.27l-.8.04s-.07-.03-.08-.08v-.34s.02-.09.06-.09l.79-.04s.08.04.08.08v.34s-.01.08-.05.09Z"/>
                  <path class="cls-9" d="M82.96,282.68l-.68.03s-.03-.01-.03-.03v-.14s0-.04.02-.04l.68-.03s.03.01.03.03v.14s0,.04-.02.04Z"/>
                  <path class="cls-9" d="M83.01,283.82l-.68.03s-.03-.01-.03-.03v-.14s0-.04.02-.04l.68-.03s.03.01.03.03v.14s0,.04-.02.04Z"/>
                </g>
              </g>
            </g>
            <g>
              <g>
                <path class="cls-20" d="M94.21,307.85c.18-1.17.05-2.27-1.23-3.79,1.5,3.27-2.8,7.58-5.87,9.83-.85.62-.5,1.42.22.81,2.25-1.92,6.78-6.11,6.89-6.84Z"/>
                <path class="cls-4" d="M89.66,306.95c.12.19.18.44.37.57-.22.3.28-.12,0,.28-.4,0-2.84-4.09-4.8-6.87-.34-.48-.93-.93-1.12-1.02-.31-.14-1.17-.96-1.17-.96,0,0-.85-1.51-.91-1.83,0,0,1.55.69,1.55.69,0,0,.23.34.61.89,1.37,2.02,4.65,6.86,5.47,8.24Z"/>
              </g>
              <path class="cls-51" d="M89.52,306.55s.25-1.19,1.26-1.48c-.87.52-1.41,2.24-1.77,3.08-.15.35-.58.72-.89,1.09-1,1.16-.91,1.4-1.93,2.54-.02.02-.25,1.68-.73,2.01.07.2,1.43.15,1.58.15,2.84-1.58,8.18-6.5,6.18-9.65-4.67-9.29-4.36.4-3.7,2.25Z"/>
            </g>
            <g>
              <g>
                <path class="cls-11" d="M83.33,316.42c.27-.01,1.98-.96,2.26-1.18.19-.15.98-.85.9-1.09-.8.54-1.57,1.32-2.41,1.7-.25.11-.24.04-.25.05-.05.02-.18.07-.19.08-.39.32-.19.18-.61.21,0,.01-.11.19-.05.23.12-.04.23,0,.35,0Z"/>
                <path class="cls-11" d="M83.64,318.77c.41.13.8.26,1,.23.86-.13,1.58-.91,2.19-1.6.22-.25.87-1.11.8-1.43-.81,1.06-2.65,3.12-3.94,2.65,0,.04-.01.16-.06.14Z"/>
                <path class="cls-11" d="M83.5,317.95c1.15-.47,2.4-.99,3.17-2.1.11-.15.5-.57.31-.78-.78,1.28-2.28,2.19-3.66,2.54,0,0-.15.03-.17.05.19.07.25.27.35.28Z"/>
                <path class="cls-46" d="M85.2,319.31c.16-.05.45-.15.5-.36.13-.29-.36-.26-.56-.36-.45.39-.79.43.06.72Z"/>
                <path class="cls-36" d="M88.28,313.76c-.09-.04-.25-1.38-1.29-1.33-.06-.02-.51-.61-.78-.86-.23-.21-1.45-.19-1.45-.19,0,0,.34.38.51.67.08.13.29.42.38.53.14.18-.05.42-.05.42-.03.02-.98,1.44-1.26,1.69-.74.66-1.94,1.01-1.38,1.28.01,0,.34.31.59.19.84-.38,2.18-1.3,2.93-2.01.08.24-.71.93-.9,1.09-.28.23-2.23,1.26-2.45,1.42-.18.13-.22.33-.32.49.47-.13.43-.28.51.45,1.38-.35,2.87-1.26,3.66-2.54.19.21-.2.63-.31.78-.77,1.1-2.02,1.63-3.17,2.1-.04.06-.04.2-.02.24.02.04.25.16.21.44,1.28.47,3.12-1.59,3.94-2.65.07.32-.58,1.18-.8,1.43-.61.69-1.01.61-1.68,1.19.2.09.69.07.56.36.18-.11,1.47-.87,2.29-2.02.51-.72.35-1.24.09-2.09.03-.07.25-.85.2-1.09Z"/>
              </g>
              <path class="cls-46" d="M83.49,318.81c.16-.05.45-.15.5-.36.13-.29-.36-.26-.56-.36-.45.39-.79.43.06.72Z"/>
              <path class="cls-46" d="M83.11,317.68c.16-.05.45-.15.5-.36.13-.29-.36-.26-.56-.36-.45.39-.79.43.06.72Z"/>
              <path class="cls-46" d="M82.95,316.47c.16-.05.45-.15.5-.36.13-.29-.36-.26-.56-.36-.45.39-.79.43.06.72Z"/>
            </g>
            <path class="cls-20" d="M87.77,315.12s.16-.49-.21-.75c0,0-.17-.63-.57-.8,0,0-.15-.68-.59-.62l-.29-1.03s1.33.52,1.84,1.67c.28.62.06.62.06.62,0,0-.03.37-.07.49s-.16.42-.16.42Z"/>
            <g>
              <path class="cls-28" d="M88.8,313.84c.24-.15.2-.72-.1-1.28-.17-.33-.4-.58-.6-.7.02.03.04.05.07.08,1.16,1.45.21,1.81.21,1.81,0,0,0,0,.01.02.16.1.3.14.41.07Z"/>
              <path class="cls-28" d="M86.64,310.43s.04.09.07.13c.07.12.23.29.23.29,0,0,.07-.12.1-.19.08-.18-.35-.16-.4-.24Z"/>
              <g>
                <path class="cls-28" d="M86.9,309.02s.26.24.3.28c.1.12.29.35.29.35,0,0,.09-.12.07-.19-.03-.17-.59-.37-.66-.45Z"/>
                <path class="cls-28" d="M90.21,312.71c.09-.13-.19-.69-.66-1.25-.28-.33.17.39.29.53.14.16.24.38.26.49.05.22-.26,0-.26,0l.03.12s.04.05.05.06c.16.11.25.12.29.06Z"/>
                <path class="cls-30" d="M87.11,308.38c-.1-.03-.45.18-.21.64.04.06.56.43.86.7.29.26,1.34,1.35,1.61,1.69.47.56.89,1.13.82,1.28-.03.07-.17.08-.33-.1.05.14.49,1.03.97.44.07-.08.08-.23.04-.41-.21-.97-1.58-2.36-2.16-2.94-.3-.31-.6-.59-.91-.85-.24-.2-.49-.39-.7-.46Z"/>
              </g>
              <path class="cls-16" d="M89.97,312.17s-1.17-1.63-2.24-2.48c0,0,1.12.53,2.24,2.48Z"/>
              <path class="cls-30" d="M87.37,309.55c-.13-.03-.27-.02-.4.03-.14.05-.26.14-.34.27-.07.12-.09.27-.06.41.01.06.04.12.07.18.05.08.46.24.73.49.26.25,1.03,1.33,1.2,1.66.29.56.47,1.12.23,1.27-.11.07-.26.03-.41-.07.08.11.55.68,1.1.31.16-.11.29-.25.36-.44.41-1.02-.56-2.27-1-2.85-.23-.3-.48-.58-.75-.82-.22-.19-.46-.37-.74-.42Z"/>
              <path class="cls-33" d="M89.21,313.39s-.54-1.86-1.93-2.92c0,0-.51-.43-.19-.54s1.74.54,2.12,3.45Z"/>
              <path class="cls-33" d="M90.11,311.4s-1.46-1.52-2.06-1.96c-.11-.09-.94-.52-.62-.62s2.09,1.82,2.68,2.59Z"/>
            </g>
            <path class="cls-47" d="M70.41,307.69c.67-.07,1.3-.58,1.3-.58-.76.52-2.13.47-2.13.47,0,0,.18.25.21.72.03.49-.09,1.21-.36,1.86-.44,1.08-.77,2-1.03,2.76-.3.74-.51,1.56-.63,2.08-.09.35-.13.53-.13.53-.86,3.09.16,9.42.16,9.42,0,0-.06-6.23.9-9.41.45-1.49,1.71-7.84,1.71-7.84Z"/>
            <path class="cls-4" d="M90,306.13c.4-.82,1.46-1.72,1.46-1.72,0,0-.77.53-1.15.74s-.95,1.39-.96,1.39c0,0,.24.14-.35,1.61"/>
          </g>
          <g>
            <rect class="cls-42" x="60.44" y="248.57" width="21.03" height="4.72" rx="2.22" ry="2.22" transform="translate(-24.51 8.27) rotate(-5.69)"/>
            <rect class="cls-21" x="74.53" y="249.64" width="1.74" height="1.69" rx=".79" ry=".79" transform="translate(-24.45 8.7) rotate(-5.69)"/>
            <rect class="cls-14" x="77.58" y="249.34" width="1.74" height="1.69" rx=".79" ry=".79" transform="translate(-24.4 9) rotate(-5.69)"/>
          </g>
          <g>
            <rect class="cls-6" x="70.99" y="301.3" width="14.26" height="55.99" transform="translate(397.8 218.2) rotate(84.18)"/>
            <rect class="cls-6" x="103.19" y="315.98" width="5.94" height="20.92" transform="translate(244.86 640.44) rotate(174.18)"/>
            <rect class="cls-6" x="47.82" y="321.63" width="5.94" height="20.92" transform="translate(134.97 657.31) rotate(174.18)"/>
            <rect class="cls-6" x="72.18" y="332.25" width="11.87" height="45.79" transform="translate(156.23 710.28) rotate(180)"/>
          </g>
          <path class="cls-6" d="M93.16,377.62h-30.03c-2.5,0-4.54,2.46-4.54,5.46v2.36c0,2.73,1.69,5,3.88,5.39-.04.3-.07.61-.07.93,0,3,2.04,5.46,4.54,5.46h22.41c2.5,0,4.54-2.46,4.54-5.46,0-.32-.03-.63-.07-.93,2.19-.39,3.88-2.66,3.88-5.39v-2.36c0-3-2.04-5.46-4.54-5.46Z"/>
          <rect class="cls-6" x="72.18" y="388.58" width="11.82" height="79.18"/>
        </g>
      </g>
    </g>
  </g>
</svg>