<?xml version="1.0" encoding="UTF-8"?>
<svg id="Layer_2" data-name="Layer 2" xmlns="http://www.w3.org/2000/svg" viewBox="0 0 286.36 486.31"><defs>
    <style>
      .cls-1 {
        fill: none;
      }

      .cls-2 {
        fill: #52d9c5;
      }

      .cls-3 {
        fill: #c45f41;
      }

      .cls-4 {
        fill: #503c43;
      }

      .cls-5 {
        fill: #c0b8c1;
      }

      .cls-6 {
        fill: #3a310b;
      }

      .cls-7 {
        fill: #ac9ead;
      }

      .cls-8 {
        fill: #dfd4e4;
      }

      .cls-9 {
        fill: #9ce9e2;
      }

      .cls-10 {
        fill: #c85937;
      }

      .cls-11 {
        fill: #f7b750;
      }

      .cls-12 {
        fill: #634d66;
      }

      .cls-13 {
        fill: #dbdbdb;
      }

      .cls-14 {
        fill: #a72c28;
      }

      .cls-15 {
        fill: #281a26;
      }

      .cls-16 {
        fill: #ef7d3c;
      }

      .cls-17 {
        fill: #f0935d;
      }

      .cls-18 {
        fill: #bdeded;
      }

      .cls-19 {
        fill: #c12e4b;
      }

      .cls-20 {
        fill: #f8ae89;
      }

      .cls-21 {
        fill: #e68d68;
      }

      .cls-22 {
        fill: #cfa4cd;
      }

      .cls-23 {
        fill: #7f63b5;
      }

      .cls-24 {
        fill: #b83525;
      }

      .cls-25 {
        fill: #594a7e;
      }

      .cls-26 {
        fill: #f5dec8;
      }

      .cls-27 {
        fill: #c4b2ce;
      }

      .cls-28 {
        fill: #fbfbfc;
      }

      .cls-29 {
        fill: #cc5637;
      }

      .cls-30 {
        fill: #8e4237;
      }

      .cls-31 {
        fill: #dafae9;
      }

      .cls-32 {
        fill: #efdd89;
      }

      .cls-33 {
        fill: #a28ca5;
      }

      .cls-34 {
        fill: #fcf8e9;
      }

      .cls-35 {
        fill: #ac4a30;
      }

      .cls-36 {
        fill: #c9892d;
      }

      .cls-37 {
        fill: #e6794d;
      }

      .cls-38 {
        fill: #41c4a7;
      }

      .cls-39 {
        fill: #7aebe9;
      }

      .cls-40 {
        fill: #8cfbe8;
      }

      .cls-41 {
        fill: #e46040;
      }

      .cls-42 {
        fill: #98529b;
      }

      .cls-43 {
        fill: #faf8ed;
      }

      .cls-44 {
        fill: #ecf6f9;
        opacity: .3;
      }

      .cls-45 {
        fill: #c392c2;
      }

      .cls-46 {
        fill: #661b6a;
      }

      .cls-47 {
        fill: #d7643c;
      }

      .cls-48 {
        fill: #fcfcfc;
      }

      .cls-49 {
        fill: #c47258;
      }

      .cls-50 {
        fill: #46ded9;
      }

      .cls-51 {
        fill: #dccedd;
      }

      .cls-52 {
        fill: #68276a;
      }

      .cls-53 {
        fill: #107eb5;
      }

      .cls-54 {
        fill: #32a088;
      }

      .cls-55 {
        fill: #ab7ab7;
      }

      .cls-56 {
        fill: #309c97;
      }

      .cls-57 {
        fill: #9f6d64;
      }

      .cls-58 {
        fill: #872023;
      }

      .cls-59 {
        fill: #320532;
      }

      .cls-60 {
        fill: #65778d;
      }

      .cls-61 {
        fill: #1d121b;
      }

      .cls-62 {
        fill: #27aaaf;
      }

      .cls-63 {
        fill: #e8e8e8;
      }
    </style>
  </defs>
  <g id="SCIENCE">
    <g>
      <g>
        <path class="cls-37" d="M133.78,245.71l-6.32,5.59c-8.59,0-15.55-6.96-15.55-15.55h0c0-8.59,6.96-15.55,15.55-15.55h11.18c8.59,0,15.55,6.96,15.55,15.55h0c0,8.59-11.82,9.96-20.42,9.96Z"/>
        <g>
          <path class="cls-11" d="M166.87,467.89c0,1-11.04,18.13-12.03,18.18-24,1-60-1-67-7-3.81-3.27-7.75-19.99-8-21-4.15-16.78,69.78,11.4,87.03,9.82Z"/>
          <g>
            <path class="cls-11" d="M211.86,457.89c-1,6-1.03,7.18-2,12-1.01,5.03-40.7,16.17-55.03,16.18,0-1,12.03-17.18,12.03-18.18,14.94-1.36,30.9-4.79,45-10Z"/>
            <path class="cls-4" d="M122.87,358.89c8.59,2.41,12.27,1.9,20.5-1.5.44,1.29,1.34,2.35,2,3.5.91,1.59.93,2.38,1,2.5q-4.12,1.5-8.25,3c-7.9-2.04-15.82,2.24-26-6-7.32-5.93-7.97-13.95-9.25-22.5,2.73,2.32,6.32,2.45,6.5,2.75,1.08,1.8-3.79,13.4,13.5,18.25Z"/>
            <g>
              <path class="cls-32" d="M164.37,331.89c.53.28,2.38-.03,2.5,0,1.47.35,2.91,1.19,4.5,1,.27,1.41.49.94.5,1,1.19,10.16-2.94,10.15-11.5,7,1.15-1.83,1.77-8.97,4-9Z"/>
              <g>
                <path class="cls-21" d="M164.37,331.89c-2.23.03-2.85,7.17-4,9-.09.15-2.16,2.19-2.5,2.5-6.1,5.52-27.48,14.95-35.5,12.5-1.98-.6-3.11-2.17-4.5-3.5,18.99,3.66,8.71.64,6.5-6.25-4.34-13.54,3.99-12.61-6.5-14.75-5.58-1.14-11.5-.48-16.5-3.5,1.12-4.9,15.39-4.04,20-4.5,4-.4,7.98-.98,12-1.25-2.04-2.4-4.57-4.24-6.5-6.75,25.12-3.65,35.58,15.5,37.5,16.5Z"/>
                <path class="cls-49" d="M117.87,331.39c10.49,2.14,2.16,1.2,6.5,14.75,2.21,6.89,12.49,9.91-6.5,6.25-3.11-2.97-10.62-13.76-3-13.75-4.44-1.93-9.22-2.43-13-5.75,0-.17,0-.33,0-.5,1.32-2.47,12.76,2.1,16-1Z"/>
                <path class="cls-57" d="M117.87,352.39c1.39,1.33,2.52,2.9,4.5,3.5q.25,1.5.5,3c-17.29-4.85-12.42-16.45-13.5-18.25-.18-.3-3.77-.43-6.5-2.75-.26-1.76-.89-3.01-1-5,3.78,3.32,8.56,3.82,13,5.75-7.62-.01-.11,10.78,3,13.75Z"/>
                <path class="cls-57" d="M117.87,331.39c-3.24,3.1-14.68-1.47-16,1-.07-1.41-.86-2.91-.5-4.5,5,3.02,10.91,2.36,16.5,3.5Z"/>
                <path class="cls-49" d="M157.87,343.39c1.2.78,1.41,2.33,2,3.5-2.03,1.42-7,5.4-8,6-.78.47-8.06,4.32-8.5,4.5-8.23,3.4-11.91,3.91-20.5,1.5q-.25-1.5-.5-3c8.02,2.45,29.4-6.98,35.5-12.5Z"/>
              </g>
            </g>
            <g>
              <path class="cls-48" d="M156.37,358.89q6.25,9.75,12.5,19.5c-.5.11-6.03,3.33-9.5,4-.08-.76-.95-.95-1-1-.81-.83-10.68-15.8-12-18-.07-.12-.09-.91-1-2.5,2.7-1.02,6.17-1.82,9-2,.66-.04,1.34.01,2,0Z"/>
              <path class="cls-55" d="M151.87,352.89c1.5,2.32,4.67,5.01,2.5,6-2.83.18-6.3.98-9,2-.66-1.15-1.56-2.21-2-3.5.44-.18,7.72-4.03,8.5-4.5Z"/>
            </g>
            <g>
              <path class="cls-52" d="M132.87,225.39c-.68,2.07-1.7,3.96-2.5,6-1.83-.3-1.9.96-2,1-.53.21.22-1.48-3,1.75-3.25,3.26-20.49,27.48-22.25,27.75-.29.04-5.13-2.48-5.25-2.75-1.4-3.12-.03-30.67-2.75-32.25-.73-.42-3.62.87-3.25-1,2.03-.15,3.94.87,6,.5-.58,8.83-.24,18.16,6.75,24.5.41,0,3.62-3.92,4.25-4.5,6.77-6.24,12.8-13.26,19.5-19.5.93-.87,2.32-1.39,3-2.5.19.17,1.22.84,1.5,1Z"/>
              <g>
                <path class="cls-42" d="M179.69,325.06s-1.01-54.15-4.72-56.55-8.01-5.79-11.28-6.45c-5-1-16-11-17-18-12.17,4.17-28.84-.9-26-6-.53.21,6.9-7.15,3.67-3.92-3.25,3.26-20.49,27.48-22.25,27.75-.29.04-5.13-2.48-5.25-2.75-1.4-3.12-8.18,59.92-8.18,59.92,0,0,11,15,7,24-1.14,2.56-3.06,74.54-6,103-.3,2.14-7.09,9.95-8,12,14.74,9.85,16.81,8,34.18,9.82,17.19,1.8,34.75,2.58,52,1,14.94-1.36,11.83-143.82,11.83-143.82Z"/>
                <path class="cls-8" d="M133.62,278.89c2.63-.31,3.1,4.32,1,5-3.13,1.02-3.92-4.65-1-5Z"/>
              </g>
              <path class="cls-42" d="M168.87,378.39q-6.25-9.75-12.5-19.5c4.82-.1,9.46.81,14.25,1q9.37,8.87,18.75,17.75c-6.58,1.16-13.96-.69-20.5.75Z"/>
              <g>
                <path class="cls-45" d="M176.37,208.4c2.5,7.39,9.61,16.34,18,19-2.06,4.39-4.56,8.65-7.5,12.5-3.73,4.89-16.44,18.28-22.75,17.5-5.61-.69-23.98-26.03-26.75-32.5,10.69-3.61,21.74-10.07,29-18.75-.28-2.07-.61-4.2-1-6.25,5.71.57,7.95,6.6,11,8.5Z"/>
                <g>
                  <path class="cls-55" d="M121.37,208.9c-1.42-.22-1.75,4.51-2.5,7-2.73,9.06-10.13,26.79-10.5,28.25-.16.62-.16,2.32.5,2.25-.63.58-3.84,4.5-4.25,4.5-6.99-6.34-7.33-15.67-6.75-24.5,6.55-3.95,11.23-9.94,15.5-16,2.87-4.07,4.54-9.14,8.5-12.5-.31,3.11-.95,8.1-.5,11Z"/>
                  <path class="cls-45" d="M128.37,226.89c-6.7,6.24-12.73,13.26-19.5,19.5-.66.07-.66-1.63-.5-2.25.37-1.46,7.77-19.18,10.5-28.25q4.75,5.5,9.5,11Z"/>
                  <path class="cls-22" d="M121.37,208.9c.63,4.03,3.64,6.92,6,10,.61.79,3.74,5.28,4,5.5-.68,1.11-2.07,1.63-3,2.5q-4.75-5.5-9.5-11c.75-2.49,1.08-7.22,2.5-7Z"/>
                </g>
              </g>
            </g>
            <g>
              <path class="cls-30" d="M163.37,194.4c-9.09,11.59-21.81,20.53-36,24.5-2.36-3.08-5.37-5.97-6-10-.45-2.9.19-7.89.5-11,.07-.73.15-.89.5-1.5,12.44,2.19,27.65-5.12,38.5-11,1.21,2.88,1.66,6.03,2.5,9Z"/>
              <path class="cls-21" d="M165.37,199.9c.39,2.05.72,4.18,1,6.25-7.26,8.67-18.31,15.14-29,18.75-2.48.84-1.89.97-2,1-.74.17-.36.73-2.5-.5-.28-.16-1.31-.83-1.5-1-.26-.22-3.39-4.71-4-5.5,14.19-3.97,26.91-12.91,36-24.5.67,2.38,1.94,5.17,2,5.5Z"/>
            </g>
          </g>
        </g>
        <path class="cls-36" d="M140.16,486.31l-1.33-10.67s2.67,10.67,4,10.67h-2.67Z"/>
        <path class="cls-46" d="M204.36,372.39c-4.87-6.97-4.71-26.63-3.53-39.53,2.34-3.03,4.3-6.79,5.03-10.22.97-3.58.43-15.82-2.75-24.75-1.58.23,4.64,12.67-.78,23.88-2.11,2.97-4.93,6.89-9.43,9.94-2.21,1.34-4.8,2.56-7.86,3.61-5.94,1.64-13.75,1.73-24.21-1.26.64.18,35.3,40.12,43,56,7.48,15.45,16.24,62.78,15,67,.46-.1,6.78-3.39,10-5,2-1-2.74-48.58-24.47-79.67Z"/>
        <path class="cls-46" d="M97.87,336.39c5,0,10-3,10-3-6,3-16.04,1.67-16.04,1.67,0,0,1.12,1.84,1,5-.12,3.34-1.54,8.12-3.96,12.33-4,6.95-7.14,12.93-9.58,17.88-2.76,4.78-4.86,10.17-6.12,13.6-.92,2.33-1.31,3.52-1.31,3.52-4.86,19.13-9.34,45.12-12.04,64.67,6.62,4.02,7,4,7,4,0,0-3.25-21.94,2.02-42.41,7.46-28.98,19.64-41.24,22.98-46.59,15-24,6.04-30.67,6.04-30.67Z"/>
        <path class="cls-46" d="M66.83,275.06s7,3,13-1-3,13-3,13c0,0-6.11-5.26-10-12Z"/>
      </g>
      <path class="cls-46" d="M28.45,312.74c-1.04,3.55-.69,3.89-.74,4.09-.78,2.68-1.33,5.55-2.23,8.18-.08.23-1.47,3.54-1.86,4.46-.72,1.7-1.84,4.46-2.6,5.95-1.31,2.57-6.3,6.7-6.7,13.02h-.74c.48-4.01,2.61-6.3,3.72-9.3,6.61-17.77,8.87-31.21,14.13-47.8,2.64-8.33,5.69-16.77,9.3-24.74,1.6-3.54,3.67-7.03,5.58-10.41.08.54-15.3,47.83-17.85,56.54Z"/>
      <path class="cls-46" d="M94.69,468.06c2.18.85-.9,1.06-2-1-20.02-37.71,0-86.48,0-127,0-8-5.6-15.22-6.05-23.52-1.37-25.15,8.16-49.55,18.87-72.34l23.18-14.14-25,40-3-1s-8,25-4,53,.31,41.28.31,41.28l1.69,87.72"/>
      <path class="cls-63" d="M100.37,260.78c-1.33-.69-2.72-1.47-2.78-1.61-1.4-3.12-.03-30.67-2.75-32.25-.73-.42-3.62.87-3.25-1-4.27.32-7.31.58-10.44,1.49.28-.21.42-.33.41-.32-14,2-35.03,27.47-36.53,30.13.01.07.03.13.06.18-.03-.06-.05-.12-.06-.18-1.91,3.39-3.98,6.88-5.58,10.41-3.61,7.97-6.65,16.41-9.3,24.74-5.27,16.59-7.53,30.02-14.13,47.8-1.11,3-3.24,5.29-3.72,9.3h.74c.39-6.32,5.39-10.45,6.7-13.02.48-.93,1.09-2.36,1.67-3.72-.57,1.35-1.19,2.78-1.67,3.72-3.12,8.19,2.24.04,11.9-1.49,4.35-.69,7.3-.23,11.53.37.22-.19.41-.41.58-.66-.18.24-.37.47-.58.66,4.33.62,13.27,3.4,14.51,3.35.61-.03,4.43-1.49,5.02-1.86,5.26-3.3,5.09-18.41,5.86-24.73.88-7.24,2.48-20.87,2.97-31.79,1.04,1.01,2.05,1.95,3.03,2.79,1.88,1.61,3.84-.93,4.94-2.87-3.33,7.68-9.15,19.78-7.94,29.87,1.37,11.43,6.94,17.95,11,21,2.73,2.05,9,4,9,4,0,0,4,5,0,14-1.14,2.56-14,37-17,41,.1-.13.98-.25,2.51-.38-8.58,10.98-10.57,26.92-13.51,55.38-.3,2.14-2.95,4.92-3.86,6.98,19.6,20.15,35.86,19.02,35.86,19.02,0,0-8.86-88.02,3.14-135.02,1.75-6.85-7-10-7.14-30.98-.12-18.13,3.78-32.85,8.82-44.31ZM44.43,262.2c-.22.56-.47,1.18-.73,1.83.26-.65.51-1.27.73-1.83ZM29.55,313.09c-1.81-.6-1.62,4.82-3.12,4.76-.58,2.01-1.04,4.13-1.61,6.17.57-2.04,1.03-4.16,1.61-6.17.06-.2-.29-.54.74-4.09.64-2.18,1.23-4.37,1.82-6.56.88-3.29,1.72-6.6,2.63-9.88-.91,3.29-1.75,6.59-2.63,9.88-.58,2.2-1.18,4.39-1.82,6.56,1.62-1.44,2.61-2.32,3.46-3.08-.05.18-.08.33-.08.41-.33,3.96,10.43,15.21,13.98,20.26-3.82-2.45-13.91-17.91-14.98-18.26ZM45.03,260.67c.44-1.14.71-1.9.74-2.14.04-.32-.12-.51-.31-.69.19.18.35.37.31.69-.03.24-.3,1.01-.74,2.14Z"/>
      <path class="cls-46" d="M97.59,336.41c5,0,10-3,10-3-6,3-16.04,1.67-16.04,1.67l6.04,1.33Z"/>
      <path class="cls-46" d="M121.69,339.06l-22,28,8.42-1.3c2.35-.36,4.42,1.55,4.26,3.92l-2.92,41.59c-1.29,4.24-.13,8.87,3.08,11.93,2.52,2.4,2.3,2.19,7.16,3.86,11.39,3.91,36.07,5.89,50.23-6.02,4.72-3.97-13.73-19.48-12.23-26.98l-9.58-62.02-26.42,7.02Z"/>
      <g>
        <g>
          <g>
            <path class="cls-63" d="M204.55,319.09s26.08-25.13,29-33c.78-2.09,5-16,3.64-22.19-2.22-8.65-5.33-16.92-11.1-23.73-11.06-13.05-23.06-9.92-32-12.75-2.06,4.39-4.56,8.65-7.5,12.5-.45,1.66-1.66,3.97-3.3,6.5-.23.56-.57,1.05-1,1.49-3.88,5.57-9.55,11.76-14.05,14.31,9.42,18.3-1.85,51.55-2.68,74.87,28.4,55.16-.86,139.98-.86,139.98,0,0,34.9-8.8,49-14,4.67-1.72,11-6,14.39-10.65-2.17-15.61-25.23-75.2-29.53-90.32-.5.23-1.06.45-1.65.67.8-13.71,1.65-29.67,1.65-29.67l6-14Z"/>
            <path class="cls-51" d="M182.28,247.9c.35-.5.69-1,1-1.49.27-.68.38-1.44.26-2.33-1.34-10-11.2-13.2-20.92-13.94.23,1.36.39,2.75.45,4.15.38,8.56-3.54,16.45-9.62,22.09,3.97,4.17,7.95,7.24,11.38,7.02,1-.06,2.15-.5,3.39-1.2-.76-1.47-1.63-2.86-2.68-4.13-5.77-7.01,11.7-5.13,16.73-10.18Z"/>
          </g>
          <path class="cls-7" d="M132.59,225.42c-.68,2.07-1.7,3.96-2.5,6-1.83-.3-1.9.96-2,1-.53.21.22-1.48-3,1.75-3.25,3.26-20.49,27.48-22.25,27.75-.29.04-5.13-2.48-5.25-2.75-1.4-3.12-.03-30.67-2.75-32.25-.73-.42-3.62.87-3.25-1,2.03-.15,3.94.87,6,.5-.58,8.83-.24,18.16,6.75,24.5.41,0,3.62-3.92,4.25-4.5,6.77-6.24,12.8-13.26,19.5-19.5.93-.87,2.32-1.39,3-2.5.19.17,1.22.84,1.5,1Z"/>
          <g>
            <path class="cls-13" d="M176.09,208.42c2.5,7.39,9.61,16.34,18,19-2.06,4.39-4.56,8.65-7.5,12.5-3.73,4.89-16.44,18.28-22.75,17.5-5.61-.69-23.98-26.03-26.75-32.5,10.69-3.61,21.74-10.07,29-18.75-.28-2.07-.61-4.2-1-6.25,5.71.57,7.95,6.6,11,8.5Z"/>
            <path class="cls-33" d="M137.09,224.92c2.77,6.47,21.14,31.81,26.75,32.5,6.31.78,19.02-12.61,22.75-17.5-1.79,6.55-15.09,23.07-21.75,23.5-9.38.61-22.02-20.86-22.75-23-.43-1.28-.98-2.29-1.5-3.5-1.09-2.53-2.39-3.79-2.5-4-1.19-2.2-2.49-4.5-3-7,.11-.03-.48-.16,2-1Z"/>
            <g>
              <path class="cls-13" d="M121.09,208.92c-1.42-.22-1.75,4.51-2.5,7-2.73,9.06-10.13,26.79-10.5,28.25-.16.62-.16,2.32.5,2.25-.63.58-3.84,4.5-4.25,4.5-6.99-6.34-7.33-15.67-6.75-24.5,6.55-3.95,11.23-9.94,15.5-16,2.87-4.07,4.54-9.14,8.5-12.5-.31,3.11-.95,8.1-.5,11Z"/>
              <path class="cls-13" d="M128.09,226.92c-6.7,6.24-12.73,13.26-19.5,19.5-.66.07-.66-1.63-.5-2.25.37-1.46,7.77-19.18,10.5-28.25q4.75,5.5,9.5,11Z"/>
              <path class="cls-63" d="M121.09,208.92c.63,4.03,3.64,6.92,6,10,.61.79,3.74,5.28,4,5.5-.68,1.11-2.07,1.63-3,2.5q-4.75-5.5-9.5-11c.75-2.49,1.08-7.22,2.5-7Z"/>
            </g>
          </g>
        </g>
        <path class="cls-7" d="M205.09,372.41c-4.87-6.97-4.71-26.63-3.53-39.53,2.34-3.03,4.3-6.79,5.03-10.22.97-3.58.43-15.82-2.75-24.75-1.58.23,4.64,12.67-.78,23.88-2.11,2.97-4.93,6.89-9.43,9.94-2.21,1.34-4.8,2.56-7.86,3.61-5.94,1.64-13.75,1.73-24.21-1.26.64.18,35.3,40.12,43,56,7.48,15.45,12.14,69.98,10.14,72.98,11-5,13-8,14.86-10.98,1.18-1.9-2.74-48.58-24.47-79.67Z"/>
        <path class="cls-7" d="M98.69,336.06c-1.9-.35-7.14-.98-7.14-.98,0,0,1.12,1.84,1,5-.12,3.34-1.54,8.12-3.96,12.33-4,6.95-7.14,12.93-9.58,17.88-2.76,4.78-4.86,10.17-6.12,13.6-.92,2.33-1.31,3.52-1.31,3.52-4.86,19.13-9.34,45.12-12.04,64.67,4.14,4.98,9.14,7.98,9.14,7.98,0,0-5.39-25.92-.12-46.38,7.46-28.98,19.64-41.24,22.98-46.59,15-24,7.14-31.02,7.14-31.02Z"/>
        <path class="cls-7" d="M66.55,275.09s7,3,13-1c6.13-4.09-3,13-3,13,0,0-6.11-5.26-10-12Z"/>
      </g>
      <g>
        <g>
          <path class="cls-14" d="M51.35,352.45c-3.55,3.94-5.99,13.65-5.95,18.97-.47-.07-2.38-.02-1.86.74,0-.04-.39.22-.37-.74.13-6.22,2.99-15.64,7.07-20.46q.56.74,1.12,1.49Z"/>
          <path class="cls-58" d="M61.39,347.24c-3.24.91-7.76,2.67-10.04,5.21q-.56-.74-1.12-1.49c5.35-6.31,9.08-3.55,11.16-3.72Z"/>
        </g>
        <g>
          <path class="cls-46" d="M258.16,394.48c-2.15,6.58-11.61,9.59-17.85,9.67-3.47.04-6.34-.46-9.67-1.49-.36-.11-1.12-.74-1.12-.74,0,0,9.03,1.17,16.92-1.49,4.21-1.42,8.11-3.47,11.72-5.95Z"/>
          <path class="cls-12" d="M73.29,386.29c-.19.16-.85,2.23-3.35,3.72-1.08.97-2.54,1.46-3.72,2.23-.62-.18-.05-.9-1.3-.74-1.2.15-9.66,5.66-16.92-2.98,14.98,4.88,23.44-2.87,24.74-2.98.62-.05.62.2.56.74Z"/>
          <path class="cls-5" d="M38.33,347.24c-8.82,10.96-6.13,28.04-4.65,28.27l9.49-4.09c-.02.97.37.7.37.74.08,6.05.48,11.64,4.46,16.37,7.27,8.63,15.73,3.12,16.92,2.98,1.26-.15.68.57,1.3.74-.87.57-1.71,1.3-2.6,1.86-7.24,3.54-20.94,3.18-27.9-.37-.39-.2-1.63-.93-1.86-1.12-4.69-3.79-8.32-18.86-7.44-24.74.03-.19,1.14-2.51,1.49-3.53,1.57-4.66,6.61-14.1,10.41-17.48v.37Z"/>
          <path class="cls-7" d="M13.04,349.47c-.37,5.94,3.65,22.78,6.32,28.46,2.78,5.89,8.85,12.7,14.51,14.69.22.18,1.47.92,1.86,1.12l-.74.74c-3.91-1.86-11.06-6.88-13.76-10.23-6.55-8.11-10.16-24.58-8.93-34.78h.74Z"/>
          <path class="cls-27" d="M63.62,394.11c-9.22,5.82-19.02,4.95-28.64.37l.74-.74c6.96,3.55,20.66,3.91,27.9.37Z"/>
          <path class="cls-7" d="M220.59,324.55c1.17,4.3,3.87,13.27,5.58,16.92,6.23,13.3,7.16,7.6,21.95,5.02,1.41-.24,11.24-1.84,11.72-1.49.46.34.05,3.31.19,4.09-1.68.29-4.29,1.76-4.84,2.6-.96.03-6.15-.17-6.32.19,2.5,1.05,6.29,3.86,5.21,4.65-5-1.35-9.17-1.87-14.13,0-1.33.5-12.23,7.1-11.9,9.3-.06.01.17.55-1.12.37-.92,0-4.6-.03-4.84,0,.78-1.59,2.34-3.19,2.98-4.84,1.81-4.66-2.96-17.37-4.09-23.25-1.3-6.75-2.56-15.33-2.6-22.13.57,2.84,1.47,5.75,2.23,8.56Z"/>
          <g>
            <path class="cls-13" d="M254.07,356.54c1.21.33,7.57,3.56,8.37,2.98.96-.7-.27-4.29.93-3.72,12.13,7.49,13.09,22.11,11.16,34.96-3.69,5.39-8.35,11.42-14.69,13.76-2.81,1.04-12.47,2.43-19.28,1.57-5.55-.7-9-3-11-4,5.44,2.72,25,0,28.61-7.61,3.67-7.74-.88-17.31-6.7-23.06-3.55-3.51-5.62-5.14-10.79-5.95l2.6-.56c-1.71-2.48-3.49-5.25-3.35-8.37,4.96-1.87,9.14-1.35,14.13,0Z"/>
            <path class="cls-5" d="M240.68,365.46c-3.61-.57-9.11-.41-12.65.37-.32-2.2,10.57-8.8,11.9-9.3-.15,3.12,1.64,5.89,3.35,8.37l-2.6.56Z"/>
          </g>
          <path class="cls-7" d="M31.63,334.96c1.09.74,2.87.78,4.09,1.12-3.86,2.15-7.97.5-10.79,6.51l.56.56c1.18-1.29,11.54-3.66,11.72-2.42-8.01,5.82-19.51,14.09-9.3,23.62-.34,1.02-1.46,3.34-1.49,3.53-.88,5.87,2.75,20.94,7.44,24.74-2.2-.77-9.37-3.86-13.31-10.53-6.2-10.47-8.23-28.37-8-32,.39-6.32,5.87-11.07,7.18-13.64-3.12,8.19,2.24.04,11.9-1.49Z"/>
          <path class="cls-63" d="M53.95,340.17c2.31.38,4.98-.53,7.63.74.39.19,5.86,5.56,5.39,5.95-1.87.12-3.71.22-5.58.37-2.08.16-5.81-2.59-11.16,3.72-4.08,4.81-6.94,14.24-7.07,20.46l-9.49,4.09c-1.48-.23-4.17-17.31,4.65-28.27,3.61-4.48,7-5.7,12.27-7.44.78.14,2.04.16,3.35.37Z"/>
          <path class="cls-13" d="M37.96,336.82c-4,2.96.03,2.4.37,3.91.03.11-.76,2.12-.74,2.23.33,2.46,1.38,1.78.74,3.91-3.81,3.39-8.85,12.82-10.41,17.48-10.21-9.53,1.29-17.8,9.3-23.62-.18-1.25-10.54,1.12-11.72,2.42l-.56-.56c2.81-6.01,6.92-4.36,10.79-6.51.5.14.99.44,2.23.74Z"/>
          <path class="cls-51" d="M50.6,339.8c-5.28,1.74-8.67,2.96-12.27,7.44v-.37c.63-2.12-.41-1.44-.74-3.91-.02-.12.77-2.12.74-2.23-.34-1.51-4.37-.94-.37-3.91,3.81.92,9,2.3,12.65,2.98Z"/>
          <path class="cls-7" d="M43.55,329.09c.56.97,2,4,2,4,0,0-15-16-16.34-18.96-.78-1.73-1.28,3.78-2.79,3.72.06-.2-.29-.54.74-4.09,4.18-3.72,4.08-8.12,3.38-13.67,2,16,9.01,22.13,13,29Z"/>
          <path class="cls-7" d="M18.65,333.1c.27-.96,1.25-4.42,1.3-4.66l8.28.29q-4.79,2.18-9.58,4.37Z"/>
          <path class="cls-7" d="M76.69,287.06c1.56-4.94-3.32-13-4.14-18.31-.78-4.99-2.59-10.13-2.98-14.88-1.05-1.35-1.17-2.8-2.23-2.6.49,1.21,1.77,6.29,2.23,8.18.82,3.32,1.5,5.81,1.86,9.3,1.04,10.05-1.63,33.1-2.88,43.33-.77,6.32-.6,21.43-5.86,24.73-.6.37-4.41,1.83-5.02,1.86.35,2.21-2.57.37-3.72,1.49,2.31.38,4.98-.53,7.63.74.39.19,5.86,5.56,5.39,5.95,2.04-.13,3.53-.74,3.72-.74-.17-2.08,7-20.06,7-20.06,0,0-3.2-6.41-4-8-1-2-2.01-8.57-2-9,.12-4.35-1-3,5-22Z"/>
          <path class="cls-63" d="M280.48,342.03c-1.09-4.29-2.99-9.15-4.46-13.39-7-20.12-15.53-37.73-26.78-55.79-7.85-12.62-16.74-24.6-25.67-36.45-1.18.35-5.59-.14-7.25-.37-1,.46-.24,2.5-.93,3.72q.56.56,1.12,1.12c-.9.68-4,3.58-4.46,4.46-.42.76-.36,1.38-.74,2.23,3.91.79,1.04,5.37-.37,7.44-3.54,5.17-8.02,5.94-13.76,7.07,1.42,3.73,2.65,8.12,2.98,12.09.27,3.35,1.62,27.61,2.42,27.94-.15-6.29.09-11.78,1-18,.18-1.24,12.23-8.51,12.39-9.76.29,0,.2,3.59.19,4.09-.32,9.17-12.58,29.66-6.58,41.66-3.31-6.62,6.56,17.53,13,21,1.19.64,2.49.89,3.85.87,6.02,12.66,7.11,7.08,21.72,4.54,1.41-.24,11.24-1.84,11.72-1.49.46.34.05,3.31.19,4.09,3.05-.53,15.16-.8,18.78,0,1.82,1.88-22.13,2.56-23.62,2.6-.96.03-6.15-.17-6.32.19,2.5,1.05,6.29,3.86,5.21,4.65,1.21.33,7.57,3.56,8.37,2.98.96-.7-.27-4.29.93-3.72,12.13,7.49,13.09,22.11,11.16,34.96,10.15-14.82,10.27-31.72,5.95-48.73Z"/>
          <path class="cls-7" d="M220.96,338.12c-1.3-6.75-11.41-18.04-11.41-18.04,0,0-2.59-12.31-3-16-1.01-9.14,9.26-16.49,9.58-25.66.02-.5.11-4.09-.19-4.09-.16,1.24-.38,2.48-.56,3.72-.91,6.22-14.79,14.82-13.83,21.04,2,13,3.9,11.32,2,24,1.99.13,13.81,14.7,14.06,15.97.54,2.74,1.31,5.37,1.49,8.18q2.98,7.07,5.95,14.13c1.81-4.66-2.96-17.37-4.09-23.25Z"/>
          <path class="cls-7" d="M255.18,351.7c.55-.84,3.15-2.31,4.84-2.6,3.05-.53,15.16-.8,18.78,0,1.82,1.88-22.13,2.56-23.62,2.6Z"/>
          <path class="cls-7" d="M43.16,335.33c4.33.62,13.27,3.4,14.51,3.35.35,2.21-2.57.37-3.72,1.49-1.31-.22-2.56-.23-3.35-.37-3.65-.67-8.84-2.06-12.65-2.98-1.24-.3-1.73-.6-2.23-.74-1.22-.34-3-.37-4.09-1.12,4.35-.69,7.3-.23,11.53.37Z"/>
        </g>
      </g>
      <path class="cls-30" d="M127.88,371.02c-1.32,0-3.24-.64-4.46-1.12-.61-.24-2-1.05-2.98-1.49-1.49-.67-7.91-4.79-8.74-4.84-6.17,3.08-10.83,4.71-17.85,4.09-1.26.28-11.26,10.9-13.58,13.02-.26.24-1.32.66-2.23,1.49-1.25,1.13-2.55,2.66-3.35,3.35-.3.26-.81.49-1.12.74.06-.54.06-.79-.56-.74-1.29.1-9.76,7.86-24.74,2.98-3.98-4.73-4.39-10.32-4.46-16.37-.52-.77,1.39-.81,1.86-.74.2.03.54,1.15,3.91.74,5.64-.68,11.63-6.89,17.85-8.18,7.98-1.66,29.93.07,41.1-3.35,2.4,2.68,16.2,6.92,19.34,10.41Z"/>
      <path class="cls-21" d="M192.97,366.18c1.36.19,6.22,1.16,7.07,1.49,1.39.53,1.55.77,2.6,1.49,5.67,3.87,9.42,14.72,7.44,21.2-.18.58-1.72,2.74-2.23,3.35-.4.47-1.74,1.32-2.6,2.23-1.81,1.89-3.59,3.87-5.58,5.58-.02-3.67-4.46-.88-6.32,0-.62.29-2.28.38-2.23,1.49-.12.02-.25-.03-.37,0-2.8.61-5.62,4.77-15.25,5.21.09-1.08.18-2.02.74-2.98,1.27-.39,3.64-2.26,4.84-2.98,3.16-1.88,5.28-3.91,5.58-4.09,1.71-1.04,3.33-2.36,5.02-3.35,4.53-2.63,14.99-5.78,2.42-2.6-4.35,1.01-8-.55-12.27,0,1.64-2.04,5.36-3.1,4.84-5.95,4.2-1.73,14.31-8.35,9.11-7.81-.5.05-6.16,2.86-7.63,3.35-3.65,1.22-19.38,6.08-21.57,6.32v-5.21c4.07-1.2,7.83-4.04,12.09-4.84.35-.18.13-.71.19-.74,2.84-.35,7.78-2.39,10.41-3.72,7.99-4.04,3.03-4.18-3.91-3.72-.33.02-6.19,1.03-6.51,1.12,7.39-6.51,5.21-4.36,14.13-4.84Z"/>
      <path class="cls-30" d="M190.74,403.01c-4.16,5.07-5.72,5.5-11.16,6.7-.46.1-1.33.55-1.86.74-.79.1-1.33.56-2.23.37.05-.86-.07-1.75,0-2.6,9.63-.44,12.45-4.6,15.25-5.21Z"/>
      <path class="cls-10" d="M189.25,373.62c-2.94-.77-6.53.8-9.3,1.49-1.04.26-4.59,1.44-4.84,1.49-1.96.34-3.8,1.01-5.58,0-.04-.02-.3-.67-.37-.74,0-.5.01-.99,0-1.49,1.93,1.19,3.53-1.03,3.72-1.12,1.79-.79,4.07-1.74,5.95-2.23.32-.08,6.18-1.09,6.51-1.12,6.94-.46,11.89-.32,3.91,3.72Z"/>
      <path class="cls-21" d="M186.65,386.27c.53,2.85-3.2,3.91-4.84,5.95-5.71.74-14.9,7.58-12.65-.37,2.71-.88,5.49-1.7,8.18-2.6.19-.06,1.9-.83,3.72-1.49,1.8-.65,3.68-1.18,5.58-1.49Z"/>
      <path class="cls-10" d="M188.14,381.81c2.85,2.08-7.95,2.69-7.07,5.95-1.82.65-3.53,1.42-3.72,1.49-1.03-1.55-7.04,1.21-12.27.74q.56-.93,1.12-1.86c.12-.01.25.01.37,0,2.19-.24,17.92-5.1,21.57-6.32Z"/>
      <path class="cls-16" d="M168.8,397.06l-.37-5.21c.18-.06.55.06.74,0-2.25,7.95,6.94,1.11,12.65.37,4.28-.55,7.93,1.01,12.27,0-4.87,1.23-10.14,2.84-15.06,3.72"/>
      <path class="cls-21" d="M208.6,369.9c-.14.06-.85.08-1.49.56.52.55,1.12.98,1.49,1.67,3.45,6.45,3.49,8.55,3.72,15.62-1.68-.05.4,3.53-2.23,2.6,1.98-6.48-1.77-17.33-7.44-21.2,4.99-2.96,5.77-4.95,5.95.74Z"/>
      <path class="cls-21" d="M192.97,366.18c-8.92.48-6.75-1.67-14.13,4.84-1.89.49-4.16,1.44-5.95,2.23q-.56-1.86-1.12-3.72c1.12-.59,2.88-1.12,4.09-1.86,5.36-2.76,11.4-2.29,17.11-1.49Z"/>
      <path class="cls-21" d="M240.96,365.44c5.16.81,7.24,2.44,10.79,5.95,10.05,17.95-16.76,25.59-29.94,23.81-1.03-.14-7.44-1.57-8-1.86-.31-.16-2.18-1.85-2.23-2.05.41-.28.39-.48.37-.93,8.48.99,20.19.66,27.71-3.72,12.46-7.25,4.19-20.87-10.23-19.71l.19-.74c-2.42.77-2.3,0-2.42,0,1.28.17,1.06-.36,1.12-.37,3.54-.78,9.04-.94,12.65-.37Z"/>
      <path class="cls-21" d="M211.94,390.36c-.06-1.23.4-1.7.37-2.6-.23-7.08-.27-9.17-3.72-15.62,6.49-2.87,14.08-2.74,20.83-5.21,14.41-1.15,22.69,12.46,10.23,19.71-7.52,4.38-19.23,4.71-27.71,3.72Z"/>
      <g>
        <g>
          <g>
            <path class="cls-30" d="M193.35,401.52c2.1.47,4.19,1.19,6.32.37-.03.37-.4.41-.37.74-2.78-.03-5.42-.12-8.18.37-.05-1.11,1.61-1.19,2.23-1.49Z"/>
            <path class="cls-16" d="M179.03,395.94c-2.35.42-8.99.81-10.23,1.12"/>
            <path class="cls-30" d="M186.65,398.17c-2.95-4.06-1.97-2.64-5.58-2.23-1.49.17-2.97.52-4.46.74-1.8.27-5.81,1.42-7.07,1.49-.04-.21-1.05-.73-1.12-.74.46.04.35-.37.37-.37,1.24-.3,7.88-.7,10.23-1.12,4.93-.88,10.19-2.49,15.06-3.72,12.57-3.18,2.11-.02-2.42,2.6-1.69.98-3.31,2.31-5.02,3.35Z"/>
            <path class="cls-24" d="M186.65,386.27c-1.9.3-3.78.84-5.58,1.49-.88-3.26,9.92-3.87,7.07-5.95,1.46-.49,7.12-3.3,7.63-3.35,5.2-.53-4.91,6.08-9.11,7.81Z"/>
            <path class="cls-25" d="M189.25,373.62c-2.63,1.33-7.58,3.37-10.41,3.72,2.63-1.4,7.18-2.5,1.12-2.23,2.77-.69,6.35-2.26,9.3-1.49Z"/>
            <path class="cls-43" d="M176.24,405.24c-.56.95-.65,1.9-.74,2.98-.07.86.05,1.74,0,2.6-.5-.1-3.09-2-2.98-2.98-.54-2.29,1.75-1.08,2.6-2.6.35-.06.83.09,1.12,0Z"/>
            <path class="cls-30" d="M199.67,401.52c0,.12,0,.25,0,.37-2.14.82-4.22.1-6.32-.37,1.87-.88,6.31-3.67,6.32,0Z"/>
            <path class="cls-53" d="M178.84,377.34c-.97.12-2.08.77-3.72-.74.25-.04,3.79-1.23,4.84-1.49,6.06-.27,1.52.84-1.12,2.23Z"/>
            <g>
              <path class="cls-30" d="M258.44,394.45c-1.86,3.97-7.31,5.47-11.61,6.61-3.59.95-11,2-17.03.83-.84-.16-1.23-.29-1.86-.37-2.83-.38-6.38-1.57-9.3-2.23-.94-.21-1.78-.18-2.6-.37-3.63-.86-7.22-1.88-10.79-2.98.87-.91,2.21-1.76,2.6-2.23,2.91-.91,5.3,1.42,5.95-.37.56.29,6.97,1.72,8,1.86,13.18,1.78,39.99-5.86,29.94-23.81,5.81,5.75,11.09,13.67,6.7,23.06Z"/>
              <path class="cls-43" d="M166.56,382.92v5.21c-.12.01-.25-.01-.37,0-3.07.26-3.63-.08-4.46-3.35,1.49-1.02,2.62-1.13,4.09-1.86.24-.03.56.05.74,0Z"/>
              <path class="cls-30" d="M212.32,387.76c.03.9-.43,1.38-.37,2.6.02.45.03.65-.37.93.05.2,1.92,1.89,2.23,2.05-.66,1.8-3.05-.53-5.95.37.51-.61,2.05-2.76,2.23-3.35,2.63.93.56-2.65,2.23-2.6Z"/>
              <path class="cls-21" d="M227.19,366.18c.12,0,0,.77,2.42,0l-.19.74c-6.75,2.47-14.34,2.33-20.83,5.21-.37-.69-.97-1.12-1.49-1.67.64-.48,1.34-.5,1.49-.56.69-.28,2.47-1.07,2.6-1.12,1.11-.35,4.49-.75,6.14-1.12.32-.07.15-.74.19-.74.19-.04.77.45,3.91,0,.18-.03.46-.69.93-.74.24-.03,3.92,0,4.84,0Z"/>
              <path class="cls-43" d="M172.89,373.25c-.19.09-1.79,2.3-3.72,1.12-.03-1.43-.42-1.76-.74-2.98,1.06-.99,2.13-1.22,3.35-1.86q.56,1.86,1.12,3.72Z"/>
              <path class="cls-10" d="M168.42,371.39c.33,1.21.71,1.54.74,2.98.01.5,0,.99,0,1.49-1.23-1.29-2.17-2.67-1.49-4.65.16-.46.56.36.74.19Z"/>
              <path class="cls-10" d="M166.19,388.13q-.56.93-1.12,1.86c-3.43-.31-5.63-1.46-3.72-5.21.07-.06.29.06.37,0,.83,3.27,1.4,3.6,4.46,3.35Z"/>
            </g>
            <path class="cls-43" d="M168.42,391.85l.37,5.21s.09.41-.37.37c-1.8-.49-4.09-2.21-2.98-4.65.42-.92,2.31-.7,2.98-.93Z"/>
          </g>
          <g>
            <path class="cls-14" d="M51.63,352.42c-3.55,3.94-5.99,13.65-5.95,18.97-.47-.07-2.38-.02-1.86.74,0-.04-.39.22-.37-.74.13-6.22,2.99-15.64,7.07-20.46l1.12,1.49Z"/>
            <path class="cls-58" d="M61.67,347.21c-3.24.91-7.76,2.67-10.04,5.21l-1.12-1.49c5.35-6.31,9.08-3.55,11.16-3.72Z"/>
            <g>
              <path class="cls-21" d="M109.65,353.54c-3.94,5,4.48,10.73,3.35,4.46,3.08,1.08,5.91,2.9,8.93,4.09.51.2.98.56,1.49.74,3.77,2.64,4.77,3.05,5.95,7.81-1.47.95-.78.37-1.49.37-3.14-3.5-16.94-7.74-19.34-10.41-1.92-2.14-3.04-6.81,0-8.56.04.08.82,1.12,1.12,1.49Z"/>
              <path class="cls-30" d="M143.87,360.23c-.94.4-2.13.9-2.98,1.49-.82-.42-1.77-.72-2.6-1.12-3.6-1.68-17.03-7.95-18.6-5.58-3.38-.14-6.2-4.26-9.3-1.12-.02-.03-.72-.34-.74-.37-.29-.37-1.07-1.4-1.12-1.49-1.23-2.44-.38-2.49,0-2.98,5.23,5.83,8.37-.76,9.49-.74.77.01,4.24,3.69,6.7,4.84,1.58.74,6.02,1.57,8.56,2.6,3.46,1.41,6.37,4.52,10.6,4.46Z"/>
              <path class="cls-26" d="M140.9,361.72c2.11,1.08,8.53,4.12,2.98,5.58-.11.03-.25-.02-.37,0v-.37l1.12-.56-6.32-5.77c.84.39,1.78.7,2.6,1.12Z"/>
              <path class="cls-30" d="M134.95,364.32c2.22.89,3.94,2.68,6.51,2.23l-.93.37c-4.09-.46-5.9-1.68-7.07-1.86-2.94-.46-4.06,1.45-2.23,3.35-.27.38-.51.47-.74.74-1.3-2.03-.03-3.69-1.49-5.21-.57-.59-6.27-2.73-7.07-1.86-3.02-1.19-5.85-3.01-8.93-4.09-.02-.12-.6-1.53-.74-1.86,4.14-.06,5.1,1.62,5.77,1.86.42.16,1.45-.16,1.86,0,3.58,1.39,8.98,4.49,12.65,5.95.4.16,1.93.18,2.42.37Z"/>
              <path class="cls-10" d="M143.5,366.93v.37c-1.13.2-1.97-.26-2.98-.37l.93-.37c-2.56.45-4.29-1.35-6.51-2.23.98-3.03-8.69-5.36-8.56-6.14.07-.37.93.44,1.12-1.3,5.15,2.23,11.21,6.88,15.99,10.04Z"/>
              <path class="cls-26" d="M129,363.95c1.46,1.52.19,3.18,1.49,5.21-.06.07.31.56-1.12,1.49-1.18-4.76-2.18-5.17-5.95-7.81,1.57.57,3.89,1.14,5.58,1.12Z"/>
              <path class="cls-41" d="M133.46,365.07c-.82,1.08-1.44,2.24-2.23,3.35-1.82-1.9-.71-3.81,2.23-3.35Z"/>
              <path class="cls-21" d="M109.65,353.54s.72.34.74.37c.43.61.94-.31,1.49.56-.19,1.86.34,1.6.37,1.67.15.33.72,1.74.74,1.86,1.13,6.27-7.29.53-3.35-4.46Z"/>
              <path class="cls-60" d="M129,363.95c-1.69.03-4.01-.55-5.58-1.12-.51-.19-.98-.54-1.49-.74.8-.87,6.5,1.27,7.07,1.86Z"/>
              <path class="cls-30" d="M124.9,344.61c5.16,2.42,10.45,5.18,15.99,6.32-1.31.4-2.47.22-3.72.74-4.31-1.93-8.85-3.51-13.39-4.84-.2-.06-1.39-.04-4.09-.74-.21-.05-.53.05-.74,0-2.15-.56-2.56-.18-5.21-1.49,1.74-3.49,7.44.28,11.16,0Z"/>
              <path class="cls-43" d="M137.92,344.24c2.87,1.03,9.11,2.49,4.84,5.95-.31-1.45-2.51-1.52-5.21-2.98-.64-1.38-2.14-3.04.37-2.98Z"/>
              <path class="cls-21" d="M119.7,355.02c1.23.29.89-1.13,7.81,1.86-.19,1.74-1.05.93-1.12,1.3-.14.78,9.54,3.11,8.56,6.14-.49-.19-2.02-.21-2.42-.37-3.67-1.46-9.07-4.57-12.65-5.95-.41-.16-1.44.16-1.86,0-.66-.24-1.63-1.92-5.77-1.86-.03-.08-.56.19-.37-1.67-.55-.87-1.06.05-1.49-.56,3.1-3.14,5.92.98,9.3,1.12Z"/>
              <path class="cls-21" d="M138.3,360.6l6.32,5.77-1.12.56c-4.78-3.16-10.84-7.81-15.99-10.04-6.92-2.99-6.58-1.57-7.81-1.86,1.56-2.37,15,3.9,18.6,5.58Z"/>
              <path class="cls-21" d="M147.22,357.26h0c-.19-1.16-8.53-4.9-10.04-5.58-4.31-1.93-8.85-3.51-13.39-4.84h0c-.2-.06-1.39-.04-4.09-.74-.21-.05-.53.05-.74,0-2.15-.56-2.56-.18-5.21-1.49-1.14-.56-1.34-.18-2.23-1.49-1.86-2.74-2.33-8.05.93-10.04.66-.4,2.7.03,2.42-1.12-.59,0-2.68.53-3.35.74-5.5,1.78-9.78,7.14-13.76,10.79-2.96,2.71-1.52,3.4-6.32,2.6-4.82.32-9.68-.1-14.51,0-1.87.04-4.29-.07-5.95,0-.19,0-1.68.62-3.72.74-1.87.12-3.71.22-5.58.37-3.24.91-7.76,2.67-10.04,5.21-3.55,3.94-5.99,13.65-5.95,18.97.2.03.54,1.15,3.91.74,5.64-.68,11.63-6.89,17.85-8.18,7.98-1.66,29.93.07,41.1-3.35-1.92-2.14-3.04-6.81,0-8.56-1.23-2.44-.38-2.49,0-2.98,5.23,5.83,8.37-.76,9.48-.74.77.01,4.24,3.69,6.7,4.84,1.58.74,6.02,1.57,8.56,2.6,3.46,1.41,6.37,4.52,10.6,4.46.64-.27,2.3-1.05,2.6-1.12-.17-.88.89-.96.74-1.86ZM141.75,357.87c-.13-.19-.28-.4-.48-.62-1.75-1.91-3.15-3.22-4.41-4.18-.63-.48-1.22-.86-1.8-1.19-1.16-.65-2.26-1.05-3.51-1.45-1.87-.59-4.05-1.16-7.21-2.49-.1-.04-.2-.08-.28-.12.08.04.18.08.28.12,3.16,1.33,5.34,1.89,7.21,2.49,1.25.39,2.35.8,3.51,1.45.58.32,1.17.71,1.8,1.19,1.26.95,2.66,2.27,4.41,4.18.2.22.35.42.48.62.13.19.23.37.32.53-.09-.16-.2-.34-.32-.53Z"/>
              <path class="cls-14" d="M119.33,341.63c1.88.84,3.76,2.12,5.58,2.98-3.72.28-9.42-3.49-11.16,0-1.14-.56-1.34-.18-2.23-1.49.63-.53-.28-2.23,1.12-4.46,3.33.28,4.88,2.64,6.7,2.98Z"/>
              <path class="cls-21" d="M137.55,347.21c-.64-1.38-2.14-3.04.37-2.98-2.81-4.37-8.61-5.37-13.02-7.44-1.12-.53-2.73-.63-3.72-1.12-.64-.31-.3-.71-.37-.74-1.85-1.71-3.22-2.98-5.95-2.98.28,1.14-1.76.71-2.42,1.12-3.26,2-2.79,7.31-.93,10.04.63-.53-.28-2.23,1.12-4.46,3.33.28,4.88,2.64,6.7,2.98,1.88.84,3.76,2.12,5.58,2.98,5.16,2.42,10.45,5.18,15.99,6.32.28-.09.62.26,1.86-.74-.31-1.45-2.51-1.52-5.21-2.98Z"/>
            </g>
          </g>
        </g>
        <g>
          <path class="cls-12" d="M258.44,394.45c-2.15,6.58-11.61,9.59-17.85,9.67-3.47.04-6.34-.46-9.67-1.49-.36-.11-1.12-.74-1.12-.74,0,0,9.03,1.17,16.92-1.49,4.21-1.42,8.11-3.47,11.72-5.95Z"/>
          <path class="cls-27" d="M63.9,394.08c-9.22,5.82-19.02,4.95-28.64.37l.74-.74c6.96,3.55,20.66,3.91,27.9.37Z"/>
          <path class="cls-23" d="M186.65,398.17c-.3.18-2.42,2.21-5.58,4.09v-6.32c3.61-.41,2.63-1.83,5.58,2.23Z"/>
          <g>
            <path class="cls-50" d="M120.44,368.42c.97.44,2.37,1.25,2.98,1.49-.67,2.04-.73,4.23-1.12,6.32-.88,4.81-8.05,35.4-7.44,37.2,1.83,5.39,31.58,6.6,37.01,6.32,8.19-.42,20.55-2.54,25.85-9.3.53-.19,1.4-.64,1.86-.74.73.63-2.34,5.92-2.98,6.7-.08.1-1.69,1.71-1.86,1.86-5.04,4.38-16.18,6.38-22.69,7.07-.82.09-1.86.32-2.6.37-.49.03-.99-.02-1.49,0-.62.03-1.24-.01-1.86,0-1.84.03-3.74.08-5.58,0-.62-.03-1.25.04-1.86,0-5.91-.42-19.84-2.75-24.18-6.7-.29-.26-2.06-2.61-2.23-2.98-1.65-3.43-.77-4.25-.37-7.81.42-3.77,1.19-7.79,1.86-11.53,1.58-8.83,4.53-17.56,5.21-26.6.8-.89-.22-1.96,1.49-1.67Z"/>
            <path class="cls-50" d="M181.07,395.94v6.32c-1.2.71-3.56,2.59-4.84,2.98-.28.09-.77-.06-1.12,0-3.8.71-.27-.21,0-.93.51-1.38-2.23-5.19,1.49-7.63,1.49-.22,2.98-.58,4.46-.74Z"/>
            <path class="cls-40" d="M175.12,376.6c1.64,1.51,2.75.86,3.72.74-.05.03.16.57-.19.74-4.26.8-8.02,3.63-12.09,4.84-.18.05-.5-.03-.74,0,1.23-.61,2.19-1.64,3.72-1.67-.45-1-.48-2.13-.74-3.16l.74-1.49c1.78,1.01,3.62.34,5.58,0Z"/>
            <path class="cls-50" d="M165.82,369.53c.46,1.12,1.31.56,1.49.93-1.07,3.55.72,4.61,1.49,7.63.26,1.03.3,2.16.74,3.16-1.53.03-2.49,1.07-3.72,1.67-1.47.73-2.6.84-4.09,1.86-.09.06-.3-.06-.37,0-1.95,1.63-.65,2.47-1.67,2.98-.41.2-3.67-.16-3.91.93-.13.62,8.16,8.87,8.74,9.11,1.35.56,3.53.45,5.02.37,1.26-.06,5.27-1.22,7.07-1.49-3.71,2.44-.98,6.25-1.49,7.63-.27.72-3.8,1.64,0,.93-.85,1.52-3.14.31-2.6,2.6-.76.49-10.87-1.73-12.83-1.86-14.47-.94-31.94.3-44.82,7.44-.61-1.8,6.55-32.39,7.44-37.2,6.06,12.33,16.87-2.96,21.57-8.93,5.55-1.46-.87-4.5-2.98-5.58.84-.59,2.03-1.09,2.98-1.49.64-.27,2.3-1.05,2.6-1.12,4.14-.88,12.32-.11,16.74-2.6.83,4.23.96,8.99,2.6,13.02Z"/>
            <path class="cls-2" d="M152.06,285.1c-6.02.03-12.37-2.03-17.37-4.03-.06-.02-1.55.35-1.6.31,2.4,10.48,1.35,13.83-.37,23.43-.29,1.59-.54,3.23-.74,4.84,5.72,4.42,22.26,1.17,22.69.74-.66-4.29-3.32-22.65-2.6-25.29Z"/>
            <path class="cls-56" d="M172.52,407.84c-.11.98,2.48,2.87,2.98,2.98.9.19,1.44-.27,2.23-.37-5.3,6.76-17.66,8.88-25.85,9.3-5.44.28-35.18-.94-37.01-6.32,12.88-7.14,30.35-8.38,44.82-7.44,1.97.13,12.07,2.35,12.83,1.86Z"/>
            <path class="cls-62" d="M140.53,366.93c1.01.11,1.85.57,2.98.37.12-.02.26.03.37,0-4.7,5.97-15.51,21.26-21.57,8.93.39-2.1.44-4.28,1.12-6.32,1.22.47,3.14,1.11,4.46,1.12.71,0,.02.58,1.49-.37,1.43-.93,1.05-1.42,1.12-1.49.24-.27.47-.37.74-.74.79-1.11,1.41-2.26,2.23-3.35,1.17.18,2.98,1.4,7.07,1.86Z"/>
            <path class="cls-2" d="M175.86,367.67c-.23,1.4-2.97,1.27-4.09,1.86-1.22.64-2.29.87-3.35,1.86-.18.17-.58-.65-.74-.19-.68,1.98.26,3.36,1.49,4.65.07.07.34.72.37.74l-.74,1.49c-.77-3.02-2.56-4.08-1.49-7.63-.17-.37-1.03.19-1.49-.93,2.11-.87,6-2.16,5.58-3.91-3.26-14.19-14.28-56.01-7.81-42.96,6.02,12.14,12.68,42.48,12.27,45.01Z"/>
            <path class="cls-62" d="M161.36,384.78c-1.91,3.75.29,4.9,3.72,5.21,5.23.47,11.25-2.29,12.27-.74-2.69.9-5.47,1.72-8.18,2.6-.19.06-.56-.06-.74,0-.66.23-2.55,0-2.98.93-1.12,2.44,1.17,4.16,2.98,4.65.06.02,1.08.53,1.12.74-1.49.08-3.67.19-5.02-.37-.58-.24-8.87-8.5-8.74-9.11.23-1.09,3.49-.73,3.91-.93,1.02-.51-.27-1.34,1.67-2.98Z"/>
            <path class="cls-38" d="M154.66,310.39c2,12.94,5.92,32.74,8.56,46.12-4.42,2.49-12.59,1.73-16.74,2.6-.17-.88.89-.96.74-1.86-.19-1.16-8.53-4.9-10.04-5.58,1.25-.52,2.41-.34,3.72-.74.28-.09.62.26,1.86-.74,4.27-3.46-1.97-4.92-4.84-5.95-2.81-4.37-8.61-5.37-13.02-7.44,2.78-8.51-1.23-31.37,7.07-27.15,6.72,3.42,22.26,1.17,22.69.74Z"/>
            <path class="cls-31" d="M156.89,280.26c-1.2,7.8-2.77,9.66-1.2,16.8.23,1.04,5,18,7.9,25.6,5.19,13.61,4.55,28.77,7.81,42.96.42,1.75-3.47,3.04-5.58,3.91-1.64-4.02-1.77-8.79-2.6-13.02-2.64-13.39-6.56-33.18-8.56-46.12-.66-4.29-3.32-22.65-2.6-25.29.24-.87,3.4-3.06,4.09-4.84.25.02.78-.24.74,0Z"/>
            <path class="cls-50" d="M130.86,279.14c.79.79,1.3,1.53,2.23,2.23,2.4,10.48,1.35,13.83-.37,23.43-.29,1.59-.54,3.23-.74,4.84-2.74,8.89-4.29,18.64-7.07,27.15-1.12-.53-2.73-.63-3.72-1.12,1.92-12.25,10.37-38.3,10.79-39.61v-3.72c-.29-1.91-3.99-14.16-3.72-14.88.6-1.59,1.49.56,2.6,1.67Z"/>
            <path class="cls-43" d="M153.69,283.06c-4.99,1.56-21.7.28-24-5-.91-2.08.81-2.67,2.65-3.01,16.35-2.99,21.62-.75,23.06-.37,5.29,1.38-.23,7.92-1.71,8.38Z"/>
          </g>
        </g>
      </g>
      <path class="cls-31" d="M147.69,277.06c0,1.32-.11,1.06-3,3-2.55,1.72,6,6-5,4-3.11-.57-6.47-2.85-8-4-.72-.54-2-1.2-2-2,0-2.49,5.98-2,11-2s7-1.49,7,1Z"/>
      <path class="cls-50" d="M132.69,294.06s-1.53-7.46-3-12c-.96-2.97-2-4.5-2-5,0-3,20-5,24-3,0,0-20.93,1.05-21.88,2.23-.1.12-.27.82-.12,1.77.11.7.46,1.47.8,2.56,1.54,4.9,2.97,12.7,2.2,13.44Z"/>
      <path class="cls-54" d="M152.69,283.06c1.99-.72,5.14-5.45,5-6,1,4-3.01,7.81-5.63,8.03-11.37.97-13.31-1.31-17.37-3.03-1.47-.63-5-2-5-4,0,.18,4.32,2.59,9,4,5.03,1.51,10.81,2.16,14,1Z"/>
      <g>
        <g>
          <path class="cls-29" d="M163.1,194.37c-9.09,11.59-21.81,20.53-36,24.5-2.36-3.08-5.37-5.97-6-10-.45-2.9.19-7.89.5-11,.07-.73.15-4.25.5-4.86,12.44,2.19,27.65-1.76,38.5-7.64,1.21,2.88,1.66,6.03,2.5,9Z"/>
          <path class="cls-37" d="M165.1,199.87c.39,2.05.72,4.18,1,6.25-7.26,8.67-18.31,15.14-29,18.75-2.48.84-1.89.97-2,1-.74.17-.36.73-2.5-.5-.28-.16-1.31-.83-1.5-1-.26-.22-3.39-4.71-4-5.5,14.19-3.97,26.91-12.91,36-24.5.67,2.38,1.94,5.17,2,5.5Z"/>
        </g>
        <g>
          <path class="cls-17" d="M193.87,96.87s-6.44-19.74-10.08-25.56c-4.81-7.69-19.05-20.76-27.72-23.4-8.71-2.65-26.18-2.64-36.4-.73,0,0-32.82,1.73-41.14,39.7-.94,4.3,3.47,25.35-1.5,42.9-.09.32-.14.65-.14.98v7.55c2.59,9.21,3.89,21.19,12.53,31.65,7.61,9.21,31.57,23.86,35.88,24.27,2.26.08,9.06-1.41,19.05-5.59,9.16-3.84,22.2-12.35,27.89-20.52,2.79-4.01,12.29-22.94,10.07-25.68,7.3-3.43,16.67-4.19,16.67-15.97,0-5.05-2.94-19.94-5.1-29.59ZM93.49,145.06c1.03.09,2.08.13,3.16.11-1.03.04-2.09,0-3.16-.11ZM150.29,142.04c.99.49,2.08.94,3.27,1.35-1.16-.38-2.25-.83-3.27-1.35Z"/>
          <path class="cls-47" d="M198.76,126.28c.06-.09,1.34-1.31-1.39-12.61-.8-3.84-2.6-12.74-2.6-12.74,0,0-.45-.64-1.11-1.37-.54-.59-1.23-1.23-1.8-1.71-7.14-5.96-20.51-5.64-24.33-5.66-8.48-.09-16.76,1.17-20.81,6.02-4.18,5.01-3.97,13.78-2.53,24.56.31,1.3,1.12,4,1.08,3.36-.1-1.67,1.06-6.72,2.37-9.57,2.25-4.92,4.62-8.13,10.93-10.58,15.64-6.05,31.83,20.59,32.55,21.79-1.8,6.6-5.1,12.32-11.07,14.7,3.89.67-5.67,21.3-8.64,25.56-5.68,8.17-18.56,15.97-27.72,19.8-9.98,4.18-16.68,6.28-18.99,6.23.17.06.07.12.64.16,15.33,1.15,24.21-2.52,37.43-10,19.85-11.23,20.3-13.57,30.24-32.4,1.1-2.09,1.09-4.53,2.88-6.84.38-.49,9.73-1.54.72-7.92,13.28-19.13,20.35-3.89,12.96,6.48-6.8,9.55-18.62-4.15-10.8,11.88,25.69,5.04,20.19-57.31,0-29.16Z"/>
          <path class="cls-35" d="M198.76,155.45c-2.56-.5-3.24-2.94-5.76-3.6,1.1-2.09,1.09-4.53,2.88-6.84.38-.49,9.73-1.54.72-7.92,13.28-19.13,20.35-3.89,12.96,6.48-6.8,9.55-18.62-4.15-10.8,11.88Z"/>
        </g>
        <path class="cls-20" d="M77.18,137.04c3.5,16.27,5.03,23.58,11.87,32.34,4.4,5.63,24.09,20.16,35.68,24.72-5.49-.09-34.05-16.97-40.23-24.75-6.68-8.4-8.31-18.44-8.47-25.05-.04-1.66.29-4.97.48-6.62.08-.68.39-2.73.39-2.73,0,0,.18,1.59.29,2.09Z"/>
        <path class="cls-37" d="M86.42,100c-1.88.06,1.36-4.44,2.23-6.28,1.06-2.92,1.12-6.36,2-9.25,6.04-19.79,23.82-27.78,10.5-24.25-10.51,2.79-20.82,35.08-21.94,44.67,0,.01.18,6.15.18,6.15,2.51-3.22,3.62-4.22,7.97-6.63,8.46-4.67,18.39-1.27,22.4,9.26.04.12,2.35,10.41,2.39,11.24.02.42.04-9.38.19-10.88-.96-13.22-15.39-14.39-25.92-14.04Z"/>
        <g>
          <path class="cls-37" d="M76.91,135.33c-10.31,3.67-5.4,11.06-2.85,18.16-12.38-9.8-7.4-25.37-2.57-25.81.6-.05,2.57-.04,3.82.89,1.15.86,1.63,1.73,1.63,1.73,0,0,0,3.37-.04,5.02Z"/>
          <path class="cls-47" d="M74.78,130.45c.86-.04,2.13,1.32,2.1,4.07-.03,2.31-.95,7.35-.78,11.64,0,0,.48,5.68,1.6,9.55-1.36-.54-2.49-1.3-3.64-2.21-2.55-7.1-9.59-19.37.72-23.04Z"/>
        </g>
        <g>
          <path class="cls-15" d="M269.98,148.94c-.14-.13-.31-.32-.48-.48-.31-18.33-12.21-12.48-19.34-17.19-4.6-3.04-7.83-19.38,14.08-18.38,5.56,7.95-13.96,6.35-11.94,10.5.48.99,15.1,6.07,17.19,8.59,3,3.63,2.98,13.91.48,16.95Z"/>
          <path class="cls-61" d="M23.16,132.71c-.77,1.33-4.97,3.92-3.34,11.94-5.77-2.09-14.97-2.67-13.84-10.74,1.81-13.02,15.73-1.17,17.19-1.19Z"/>
          <path class="cls-61" d="M35.57,115.04q.48,4.42.95,8.83-6.68,4.42-13.37,8.83c.54-.92,2.18-2.06,2.39-2.63,2-5.39-4.36-9.36-3.82-14.8l13.84-.24Z"/>
          <path class="cls-61" d="M277.14,80.19c-4.37-2.21-5.02-1.55-9.55-2.63,2.76-7.37,4.11-10.61,0-17.43-.52-.4-.64-.5,0,0-3.84-6.37-10.77-9.34-17.9-6.21-2.75-.54.94-5.86-9.79-11.7,8.37-15.47-11.31-28.07-21.24-13.61C201.05,8.83,176.41.05,151.82,13.35c-16.73-18.96-48.35-16.68-65.64.24-1.68,1.64.06,3.99-12.65,9.31-1.97.09-9.93-10.8-21.24-1.43,0,0,0,0,0,0-2.89,2.39-5.59,6.4-5.73,10.26-.03.76,1.65,8.46,1.91,8.83-1.18.2-2.31.87-3.34,1.43-7.68,4.19-5.16,3.47-8.83,10.98-18.35-1.5-25.18,16.33-12.17,28.88-2.57.83-5.11,1.11-7.64,2.15-1.99.82-3.19,1.37-4.77,2.86-9.07,8.54-4.83,20.54,5.73,25.06.64,1.79-3.89,4.36,0,13.37-18.05-2.07-24.49,18.34-7.64,26.26-3.6,8.83,2.84,20.44,12.65,16.95,7.94,7.76-1.98,7.84-.24,18.86,1.36,8.6,13.51,14.07,20.77,8.83,10.25,4.27,5.3,4.94,8.83,9.79,4.51,6.19,15.68,5.61,20.77.24,1.38.31.67,13.47,19.1,10.98,4.44-7.84,5.94-2.38,12.89-5.73,5.18-2.5,5.11-9.42,10.26-4.77,2.74-3.89,3.15-8.08,6.93-11.28.07-.7.14-1.4.21-1.99-6.38-2.21-25.4-13.42-31.26-18.43-9.34-7.98-13.33-20.37-13.01-19.3-1.36-.54-2.49-1.3-3.64-2.21-12.38-9.8-7.4-25.37-2.57-25.81.6-.05,2.57-.04,3.82.89,1.13.85,1.61,1.7,1.63,1.73.9-3.64,1.92-8.38,2.1-11.67.91-5.89.92-15.31.93-15.49.51-7.83,10.9-38.47,20.04-42.53,5.38-2.39,10.25,1.5,16.95-8.12,21.88,12.34,30.33-2.24,31.99-2.86,6.58-2.47,8.32,5.19,8.83,5.49,13.69,7.91,27,21.42,30.54,26.98.47.73,2.46,5.84,3.64,9.46,3.7,11.31,6.79,34.73,6.79,34.73,0,0,3.9-5.64,7.37-6.78-.07-.05,3.66-1.35,6.46,1.78,5.22,5.85,4.58,25.77-3.74,31.97-4.96,3.7-10.25,2.94-13.43,0-1.22-1.12-2.42-1.4-2.42-1.4,0,0-.35.73-1,1.91-1.55,2.8-5.42,11.17-9.33,15.71-7.98,9.27-15.7,11.85-22.05,15.97.87,3.22,1.58,5.68,2.38,8.52.64,2.27,1.85,4.93,1.91,5.25,5.45.54,7.16,3.77,10.08,5.58.54.34,3.43.86,4.54.95,6.7,13.18,24.45,10.16,28.64-3.82,9.21,9.72,23.29,11.63,27.21-3.82,7.01.07,11.98.74,16.71-5.25,17.53,1.89,24.17-15.7,11.7-27.45l5.97-7.88c5.9,1.47,11.45.11,14.56-5.25,3.95-6.8,2.04-13.9-4.3-18.38,1.49-16.72-7.49-16.8-8.12-17.66-2.99-4.15,5.51-3.75,10.03-9.07,6.81-8.02,4.79-22.13-4.77-26.97"/>
          <path class="cls-15" d="M29.37,152.28c-.27.1-1.5,1.75-5.01,2.86-.56-.14-4.42-9.94-4.54-10.5-1.63-8.01,2.57-10.6,3.34-11.94q6.68-4.42,13.37-8.83-.48-4.42-.95-8.83c.1-2.73-8.04-6.86-13.37-10.5-2.1-4.42-1.05-9.85,1.91-13.84,8.45-3.78,19.02-1.63,19.1-7.88,0-.5-2.12-5.75-2.39-9.79-.72-10.74,14.06-12.77,15.28-14.08.5-.54,1.74-5.63,1.91-6.92,1.36-2.12,3.22-3.78,4.77-5.73,2.19-2.75,3.56-.4,1.91-8.83,15.43-17.14,14.53-10.69,36.04-7.88,3.21-.75,3.19-14.58,10.03-15.75,9.57-1.64,12.02,10.31,8.12,13.37-3.67,2.88-3.2-2.58-6.68-7.64-3.78,22.62-17.69,15.12-34.85,12.89-8.46,5.82-4.47,10.16-5.49,13.13-.28.81-7.63,7.08-8.12,8.12-3,6.43,5.2,5.22-16.71,16.71-2.36,5.97,9.05,16.27-6.92,23.15-4.57,1.97-16.64,2.16-13.37,6.21,2.66,3.28,15.27,6.03,15.99,17.43,1.43,22.72-26.97,10.24-13.37,35.09Z"/>
          <g>
            <g>
              <path class="cls-15" d="M164.23,15.26c12.02-1.13,20.75,19.49,43.44,11.94,11.03,14.64,20.32,10.14,15.52,27.93,2.48,1.22,11.9,9.52,12.65,9.79,5.27,1.89,20.78-2.81,15.99,16.47,4.52,1.56,20.47,7.85,22.44,11.46,2.26,4.16.7,12.42-4.06,14.08-11.08,3.87-.82-9.16-1.19-10.74-11.93-10.93-28.55-.8-21.96-23.39l-12.65-1.19c-8.03-10.55-12.63-7.74-15.52-11.22-7.65-9.25,11.94-21.6-18.86-17.43l-2.39-8.12c-11.72.38-21.94-6.33-31.03-12.89-4.05-.29-16.38,7.73-13.61-.72.59-1.81,9.15-5.77,11.22-5.97Z"/>
              <path class="cls-59" d="M209.11,32.93c2.95-.22-2.46,2.06-3.34,2.39-11.48,4.18-3.32-1.9,3.34-2.39Z"/>
            </g>
            <path class="cls-1" d="M110.76,13.83c-6.84,1.17-6.82,15.01-10.03,15.75-21.51-2.82-20.61-9.27-36.04,7.88,1.65,8.43.28,6.08-1.91,8.83-1.55,1.95-3.41,3.61-4.77,5.73h0c-.17,1.29-1.41,6.38-1.91,6.92-1.22,1.32-16,3.34-15.28,14.08.27,4.04,2.39,9.28,2.39,9.79-.07,6.25-10.64,4.1-19.1,7.88-2.96,3.99-4.01,9.42-1.91,13.84,5.33,3.64,13.47,7.78,13.37,10.5q-6.92.12-13.84.24c-.54,5.44,5.82,9.41,3.82,14.8-.21.57-1.85,1.7-2.39,2.63-1.46.02-15.38-11.82-17.19,1.19-1.12,8.08,8.08,8.65,13.84,10.74.11.56,3.98,10.36,4.54,10.5,3.52-1.11,4.74-2.77,5.01-2.86-13.6-24.85,14.8-12.37,13.37-35.09-.72-11.4-13.34-14.14-15.99-17.43-3.27-4.05,8.8-4.24,13.37-6.21,15.97-6.89,4.57-17.19,6.92-23.15,21.91-11.49,13.71-10.28,16.71-16.71.48-1.03,7.84-7.31,8.12-8.12,1.03-2.97-2.97-7.31,5.49-13.13,17.16,2.23,31.07,9.73,34.85-12.89,3.48,5.05,3.01,10.51,6.68,7.64,3.9-3.06,1.45-15.01-8.12-13.37Z"/>
            <path class="cls-1" d="M252.32,123.4c-2.02-4.15,17.5-2.56,11.94-10.5-21.91-.99-18.69,15.34-14.08,18.38,7.12,4.71,19.02-1.14,19.34,17.19.17.16.33.34.48.48,2.5-3.03,2.52-13.32-.48-16.95-2.09-2.52-16.71-7.61-17.19-8.59Z"/>
          </g>
        </g>
        <g>
          <path class="cls-34" d="M111.24,121.71c-.5-1.47-1.36-5.17-5.73-9.43-2.82-2.75-5.81-4.38-7.96-4.74-1.44-.2-2.74-.16-3.92.02-2.25-.1-5.68,1.45-7.92,3.23-5.87,4.68-4.57,12.46,1.08,15.84.25.15.53.29.82.43,3.24,1.76,5.75,1.8,9.2,1.91,0,0,6.24.41,14.03-2.74.47-.19,1.41-.71,1.41-.71,0,0-.22-2.03-1.01-3.82Z"/>
          <path d="M79.85,107.58c2.64,2.22,6.39-6.16,17.05-5.19,8.72.79,15.56,12.06,15.24,22.28-1.16-2.08-2.23-5.18-2.57-5.54-.05-.06-.18.02-1.29-.86,1.16-4.03-6.96-10.25-10.73-10.73-6.55-.85-10.77,2.43-13.74,7.73-.14.25-.58,1.17-.86,2.15-1.13,3.97,1.02,7.74,4.65,9.65-.74,0-3.81-1.99-4.23-2.35-4.02-3.43-7.61-12.5-7.56-18.15-.1-1.1.31-4.58.83-3.19.99,2.65,2.45,3.56,3.2,4.2Z"/>
          <path d="M96.57,120.44c1.9-.49,2.53-3.14,2.21-4.87,11.2-1.45,3.91,16.24-2.21,4.87Z"/>
          <path class="cls-6" d="M109.59,120.1c0-.2-.04-.38-.05-.58,0-.14,0-.27,0-.41,0,0-.02-.02-.04-.02-.84-6.6-8.39-11.1-11.98-11.57-.36,1.44-2.68,2.49-3.43,3.86-.15.27-.81,2.12,0,2.15,2.03-.08,2.65.33,3.43.43.07.43,1.27,1.61,1.29,1.72,10.87-1.4,3.79,15.75-2.15,4.72-2.27.58-4.3-1.57-4.72-.64.81,3.73,1.27,6.93,4.72,8.8,1.25.67,3.25.49,7.72-.31,3.74-.67,4.99-4.57,5.14-8.2.02.01.05.04.06.05Z"/>
          <path class="cls-34" d="M161.38,110.69c.9-.18,3.78-.53,5.05-.47,2.94.16,5.9,2.18,5.9,2.18,7.28,5.07,10.16,9.31,3.22,16.31-.69.31-2.85,1.25-3.01,1.29-5.74,1.41-21.22,1.35-27.05-2-.02,0-.03-.02-.05-.03-.3-.17-.26-2.91.05-3.98,3.45-6.78,7.95-12.16,15.89-13.31Z"/>
          <g>
            <path d="M181.56,114.56c2.17,1.76,3.7.7,5.24-1.17.9-.99.81-1.56,1.05-1.23.27.39.27,1.84-.33,3.75-1.37,4.31-5.27,9.83-11.96,12.82,6.94-7.01,4.06-11.25-3.22-16.31,0,0-1.92-1.42-5.58-2.15-1.82-.36-3.59.17-5.37.43-7.94,1.15-12.44,6.53-15.89,13.31,1.51-13.76,12.07-22.65,26.4-17.6,5.73,2.02,8.22,6.99,9.66,8.16Z"/>
            <path class="cls-6" d="M174.69,118.85c-.19-2.4-3.14-7.78-7.94-8.59-1.83-.31-3.59.17-5.37.43-4.27,6.01-2.22,3.07,1.5,4.29.41.13,1.13.82,1.5,1.29.24.3,1.52.19,3.86.86,4.97,5.8-3.02,11.68-6.44,4.72-1.91.28-4.19-1.74-4.29-1.5.28,14.31,18.69,12.68,17.17-1.5Z"/>
            <path d="M168.25,117.13c4.97,5.8-3.02,11.68-6.44,4.72,2.32-.34,3.84-3.51,2.58-5.58,1.66-.19,2.83-.01,3.86.86Z"/>
          </g>
        </g>
        <path class="cls-3" d="M205.72,150.67l1,2c1,2-3,3-3,3-1.16.37-2,1-3,0l1-5c1-2,3.66-.46,4,0Z"/>
        <g>
          <path class="cls-18" d="M206.72,158.67c0-2,0-5-1-6s-1.79-2.03-3-1c-.85.72-1.85,4.6-2,7-.05.8.36,3.41,1.05,3.95,1.97,1.52,3.28,1.28,3.96.21,1.99-3.16.99-2.77.99-4.16Z"/>
          <path class="cls-39" d="M207.27,157.87c-.22-2.79-.45-4.83-1.55-5.2-3-1-1,3-4,5-1.18.78-.56,3.32,0,4,3.39,4.13,5.76-1.04,5.55-3.8Z"/>
        </g>
        <g>
          <path d="M78.46,93.49c-.32-.04-.57-.26-.4-.54,1.23-1.98,4.66-7.32,6.9-8.78s9.41-4.96,14.55-3.99c4.03.76,4.14,4.49,4.17,6.11,0,.03-.02.06-.05.08-2.65,1.53-4.4.39-8.93.03-1.75-.14-3.24-.01-4.87.46-2.57.74-4.87,2.4-7.04,4.87-.66.75-2.7,1.96-4.34,1.76Z"/>
          <path d="M178.6,86.32c.11.55,2.3,3.22,2.88,5.4l-1.08,1.08c-14.83-10.29-26.1-.3-29.16-7.2,2.55-2.21,3.17-11.87,27.36.72Z"/>
        </g>
        <g>
          <path class="cls-29" d="M137.56,143.02c1.79,8-20.24,11.31-20.88,2.16,5.6,5.57,14.97,2.25,20.88-2.16Z"/>
          <g>
            <path class="cls-19" d="M155.93,149.5c2.64.26,5.03,1.58,6.12,3.96-8.51.6-12.2,25.11-29.16,27.72-25.18,3.88-14.91-25.59-27.72-19.8.7-9.31,39.85-.3,54.01-8.64l-3.24-3.24Z"/>
            <path class="cls-28" d="M150.89,158.15c4.44-.62-4.85,8.34-6.48,9.36-9.07,5.7-30.73,7.42-30.24-4.32,15.16,3.57,34.64-4.75,36.73-5.04Z"/>
          </g>
          <path class="cls-20" d="M121.36,139.42c2.21,1.67,5.3,2.24,5.4,2.52,1.58,4.52-6.69,4.93-5.4-2.52Z"/>
        </g>
        <g>
          <g>
            <path class="cls-63" d="M164.92,90.44c-1.75.65-4.38.39-6.32.37.57.42,2.77,3.63,2.98,3.71,1.23.46,22.49-.04,26.16,0,2.77.03,5.66.1,8.43.37,0-.03.39.09.35-.37-.99-4.99-1.01-3.5-1.05-3.71h-1.76c-8.84-.38-17.87.67-26.68-.37-.1-.01-.1.82-2.11,0Z"/>
            <path class="cls-9" d="M187.75,94.52c.08.46-.75,1.22-1.05,1.48,5.5-1.95,4.22.51,7.72,3.34.68-1.5,1.32-2.83,1.76-4.45-2.76-.27-5.65-.34-8.43-.37Z"/>
            <path class="cls-63" d="M143.16,90.81c.62,2.66-2.52,2.24-1.93,3.71,11.22,3.46,9.99,4.97,12.46-3.71-3.51-.01-7.02.04-10.53,0Z"/>
            <path class="cls-63" d="M73.99,135.71c.21.1,3.12,2.1,3.86,2.6,3.86,2.56,9.24,4.96,13.69,5.94,21.47,4.71,26.06-6.89,31.25-9.28,7.4-3.41,10.78,3.07,13.34,4.82,11.35,7.78,21.79,7.56,34.41,2.6.37-.14,4.28-1.7,4.56-1.86,5.69-3.11,10.63-8.85,14.04-14.47.36.21,9.4.45,9.61.22,2.25-2.49,5.11-6.56,8.06-6.97,2.52-.35,4.62.84,4.62.84,0,0,2.55-12.84-11.75-28.09-.97-1.03-3.9-1.17-5-1-5.79.92-6.81,3.34-6.93,3.46,0,0-.02,0-.03,0-3.7-.04-24.91.46-26.14,0-.22-.08-2.42-3.29-2.98-3.71-1.65-.02-3.27,0-4.92,0-2.47,8.68-1.24,7.18-12.46,3.71-.59-1.47,2.55-1.05,1.93-3.71-.06,0,.32-.36-1.05-.37-13.44-.14-26.94-.37-40.38-.37-4.67,0-9.37-.01-14.04,0-2.51,0-5.16.51-7.72.37-23.15-1.22-19.9,7.79-18.18,20.83.23,3.54,2.85,19.79,12.21,24.44ZM67.01,110.38c-.65-2.11-.44-11.44,1.4-12.75,4.29-.05,115.48.21,119.16.25,7.53,16.7-2.42,30.65-12.11,37.45-9.41,6.61-23.9,9.42-34.23,3.71-6.13-3.39-6.9-9.7-16.85-8.16-5.46.84-11.92,9.48-21.59,10.39-3.75.35-8.6-.47-12.29-1.48-5.35-1.47-9.58-3.93-13.69-7.79-7.34-6.91-7.65-14.69-9.79-21.62Z"/>
          </g>
          <path class="cls-44" d="M184.82,92.63l-121.49.74,7.72,35.62s7.72,13.36,27.39,15.59c7.82.89,28.79-13.36,28.79-13.36l15.45,10.39,13.34,4.45s13.53-4.19,17.56-6.68c20.37-12.62,16.85-34.14,16.85-34.14l-5.62-12.62Z"/>
        </g>
      </g>
    </g>
  </g>
</svg>