<?xml version="1.0" encoding="UTF-8"?>
<svg id="Layer_2" data-name="Layer 2" xmlns="http://www.w3.org/2000/svg" xmlns:xlink="http://www.w3.org/1999/xlink" viewBox="0 0 286.36 486.18"><defs>
    <style>
      .cls-1 {
        fill: none;
      }

      .cls-2 {
        fill: #c45f41;
      }

      .cls-3 {
        fill: #503c43;
      }

      .cls-4 {
        fill: #301f2d;
      }

      .cls-5 {
        fill: #2d0903;
      }

      .cls-6 {
        fill: #380d09;
      }

      .cls-7 {
        fill: #232323;
      }

      .cls-8 {
        fill: #3a310b;
      }

      .cls-9 {
        fill: #8e3226;
      }

      .cls-10 {
        fill: #dfd4e4;
      }

      .cls-11 {
        fill: #f7b750;
      }

      .cls-12 {
        fill: #ead6cd;
      }

      .cls-13 {
        fill: #523d42;
      }

      .cls-14 {
        fill: #f8f7f5;
      }

      .cls-15 {
        fill: #943434;
      }

      .cls-16 {
        fill: #b14f3d;
      }

      .cls-17 {
        fill: #281a26;
      }

      .cls-18 {
        fill: url(#linear-gradient);
      }

      .cls-19 {
        fill: #f0935d;
      }

      .cls-20 {
        fill: #bdeded;
      }

      .cls-21 {
        fill: #c12e4b;
      }

      .cls-22 {
        fill: #080707;
      }

      .cls-23 {
        fill: #f8ae89;
      }

      .cls-24 {
        fill: #e68d68;
      }

      .cls-25 {
        fill: #cfa4cd;
      }

      .cls-26 {
        fill: #581514;
      }

      .cls-27 {
        fill: #dcbdd8;
      }

      .cls-28 {
        fill: #fbfbfc;
      }

      .cls-29 {
        fill: #fceddf;
      }

      .cls-30 {
        fill: #cc5637;
      }

      .cls-31 {
        fill: #8e4237;
      }

      .cls-32 {
        fill: #dbd1d0;
      }

      .cls-33 {
        fill: #efdd89;
      }

      .cls-34 {
        fill: #7d6c73;
      }

      .cls-35 {
        fill: #fcf8e9;
      }

      .cls-36 {
        opacity: .2;
      }

      .cls-36, .cls-37 {
        fill: #7aebe9;
      }

      .cls-38 {
        fill: #ac4a30;
      }

      .cls-39 {
        fill: #5c1818;
      }

      .cls-40 {
        fill: #c9892d;
      }

      .cls-41 {
        fill: #e6794d;
      }

      .cls-42 {
        fill: #eee4dc;
      }

      .cls-43 {
        fill: #98529b;
      }

      .cls-44 {
        fill: #c392c2;
      }

      .cls-45 {
        fill: #661b6a;
      }

      .cls-46 {
        fill: #d7643c;
      }

      .cls-47 {
        fill: #441c1f;
      }

      .cls-48 {
        fill: #fcfcfc;
      }

      .cls-49 {
        fill: #7a1e26;
      }

      .cls-50 {
        fill: #c47258;
      }

      .cls-51 {
        fill: #edcdbb;
      }

      .cls-52 {
        fill: #a0898a;
      }

      .cls-53 {
        fill: #c1a79b;
      }

      .cls-54 {
        fill: #68276a;
      }

      .cls-55 {
        fill: #353535;
      }

      .cls-56 {
        fill: #ab7ab7;
      }

      .cls-57 {
        fill: #7f6665;
      }

      .cls-58 {
        fill: #9f6d64;
      }

      .cls-59 {
        fill: #773f40;
      }

      .cls-60 {
        fill: #c06a64;
      }

      .cls-61 {
        fill: #320532;
      }

      .cls-62 {
        fill: #1d121b;
      }

      .cls-63 {
        fill: #19171c;
      }
    </style>
    <linearGradient id="linear-gradient" x1="177.33" y1="238.01" x2="155.61" y2="241.09" gradientUnits="userSpaceOnUse">
      <stop offset="0" stop-color="#100c10"/>
      <stop offset="1" stop-color="#241b26"/>
    </linearGradient>
  </defs>
  <g id="SPORTS">
    <g>
      <g>
        <path class="cls-11" d="M166.57,467.76c0,1-11.04,18.13-12.03,18.18-24,1-60-1-67-7-3.81-3.27-7.75-19.99-8-21-4.15-16.78,69.78,11.4,87.03,9.82Z"/>
        <g>
          <path class="cls-11" d="M211.57,457.76c-1,6-1.03,7.18-2,12-1.01,5.03-40.7,16.17-55.03,16.18,0-1,12.03-17.18,12.03-18.18,14.94-1.36,30.9-4.79,45-10Z"/>
          <path class="cls-3" d="M122.57,358.77c8.59,2.41,12.27,1.9,20.5-1.5.44,1.29,1.34,2.35,2,3.5.91,1.59.93,2.38,1,2.5q-4.12,1.5-8.25,3c-7.9-2.04-15.82,2.24-26-6-7.32-5.93-7.97-13.95-9.25-22.5,2.73,2.32,6.32,2.45,6.5,2.75,1.08,1.8-3.79,13.4,13.5,18.25Z"/>
          <g>
            <path class="cls-33" d="M164.07,331.77c.53.28,2.38-.03,2.5,0,1.47.35,2.91,1.19,4.5,1,.27,1.41.49.94.5,1,1.19,10.16-2.94,10.15-11.5,7,1.15-1.83,1.77-8.97,4-9Z"/>
            <g>
              <path class="cls-24" d="M164.07,331.77c-2.23.03-2.85,7.17-4,9-.09.15-2.16,2.19-2.5,2.5-6.1,5.52-27.48,14.95-35.5,12.5-1.98-.6-3.11-2.17-4.5-3.5,18.99,3.66,8.71.64,6.5-6.25-4.34-13.54,3.99-12.61-6.5-14.75-5.58-1.14-11.5-.48-16.5-3.5,1.12-4.9,15.39-4.04,20-4.5,4-.4,7.98-.98,12-1.25-2.04-2.4-4.57-4.24-6.5-6.75,25.12-3.65,35.58,15.5,37.5,16.5Z"/>
              <path class="cls-50" d="M117.57,331.27c10.49,2.14,2.16,1.2,6.5,14.75,2.21,6.89,12.49,9.91-6.5,6.25-3.11-2.97-10.62-13.76-3-13.75-4.44-1.93-9.22-2.43-13-5.75,0-.17,0-.33,0-.5,1.32-2.47,12.76,2.1,16-1Z"/>
              <path class="cls-58" d="M117.57,352.27c1.39,1.33,2.52,2.9,4.5,3.5q.25,1.5.5,3c-17.29-4.85-12.42-16.45-13.5-18.25-.18-.3-3.77-.43-6.5-2.75-.26-1.76-.89-3.01-1-5,3.78,3.32,8.56,3.82,13,5.75-7.62-.01-.11,10.78,3,13.75Z"/>
              <path class="cls-58" d="M117.57,331.27c-3.24,3.1-14.68-1.47-16,1-.07-1.41-.86-2.91-.5-4.5,5,3.02,10.91,2.36,16.5,3.5Z"/>
              <path class="cls-50" d="M157.57,343.27c1.2.78,1.41,2.33,2,3.5-2.03,1.42-7,5.4-8,6-.78.47-8.06,4.32-8.5,4.5-8.23,3.4-11.91,3.91-20.5,1.5q-.25-1.5-.5-3c8.02,2.45,29.4-6.98,35.5-12.5Z"/>
            </g>
          </g>
          <g>
            <path class="cls-48" d="M156.07,358.77q6.25,9.75,12.5,19.5c-.5.11-6.03,3.33-9.5,4-.08-.76-.95-.95-1-1-.81-.83-10.68-15.8-12-18-.07-.12-.09-.91-1-2.5,2.7-1.02,6.17-1.82,9-2,.66-.04,1.34.01,2,0Z"/>
            <path class="cls-56" d="M151.57,352.77c1.5,2.32,4.67,5.01,2.5,6-2.83.18-6.3.98-9,2-.66-1.15-1.56-2.21-2-3.5.44-.18,7.72-4.03,8.5-4.5Z"/>
          </g>
          <g>
            <path class="cls-54" d="M132.57,225.27c-.68,2.07-1.7,3.96-2.5,6-1.83-.3-1.9.96-2,1-.53.21.22-1.48-3,1.75-3.25,3.26-20.49,27.48-22.25,27.75-.29.04-5.13-2.48-5.25-2.75-1.4-3.12-.03-30.67-2.75-32.25-.73-.42-3.62.87-3.25-1,2.03-.15,3.94.87,6,.5-.58,8.83-.24,18.16,6.75,24.5.41,0,3.62-3.92,4.25-4.5,6.77-6.24,12.8-13.26,19.5-19.5.93-.87,2.32-1.39,3-2.5.19.17,1.22.84,1.5,1Z"/>
            <path class="cls-54" d="M123.07,248.27c.06.91-.04,1.84,0,2.75.18.49,1.14.92,1.5,1.25-4.75,6.42,6.79,10.22,2.75,9.5-.51-.09-1.95-1.38-2.5-2,2.35,8.5,7.18,9.34,14.75,5.5,4.99-2.53-2.85,6.03-6.25,6.5-7.5,1.03-10.54-8.74-11.25-14.75-.29-2.47-.34-9.47,1-8.75Z"/>
            <g>
              <path class="cls-12" d="M204.53,318.94s26.08-25.13,29-33c.78-2.09,5-16,3.64-22.19-2.22-8.65-5.33-16.92-11.1-23.73-11.06-13.05-23.06-9.92-32-12.75-2.06,4.39-4.56,8.65-7.5,12.5-1.79,6.55-15.09,23.07-21.75,23.5-9.38.61-14.95-13.49-21.25-17.5.77,7.01-1.52,13.2-8,16.75.27,1.15,3.33-2.49,4,2.75,4.99-2.53-2.85,6.03-6.25,6.5-7.5,1.03-10.54-8.74-11.25-14.75-.29-2.47-.34-9.47,1-8.75-.4-5.91,2.16-10.9,5-16-.53.21.22-1.48-3,1.75-3.25,3.26-20.49,27.48-22.25,27.75-.29.04-5.13-2.48-5.25-2.75-1.4-3.12-.03-30.67-2.75-32.25-.73-.42-3.62.87-3.25-1-7.49.57-11.19.92-18.25,5-10.18,5.89-20.87,23.02-18.25,28.25,3.46,6.92,12.46,17.92,19.46,23.92,1.88,1.61,3.84-.93,4.94-2.87-3.33,7.68-9.15,19.78-7.94,29.87,1.37,11.43,6.94,17.95,11,21,2.73,2.05,9,4,9,4,0,0,4,5,0,14-1.14,2.56-14,37-17,41,.1-.13.98-.25,2.51-.38-8.58,10.98-10.57,26.92-13.51,55.38-.3,2.14-1.55,5.77-2.46,7.82,14.74,9.85,38.13,13.18,55.5,15,17.19,1.8,34.75,2.58,52,1,14.94-1.36,30.9-4.79,45-10,4.67-1.72,10.18-4.03,14.5-6.5-2.17-15.61-25.23-75.2-29.53-90.32-.5.23-1.06.45-1.65.67.8-13.71,1.65-29.67,1.65-29.67l6-14Z"/>
              <path class="cls-10" d="M133.32,278.77c2.63-.31,3.1,4.32,1,5-3.13,1.02-3.92-4.65-1-5Z"/>
            </g>
            <path class="cls-43" d="M168.57,378.26q-6.25-9.75-12.5-19.5c4.82-.1,9.46.81,14.25,1q9.37,8.87,18.75,17.75c-6.58,1.16-13.96-.69-20.5.75Z"/>
            <g>
              <path class="cls-44" d="M176.07,208.27c2.5,7.39,9.61,16.34,18,19-2.06,4.39-4.56,8.65-7.5,12.5-3.73,4.89-16.44,18.28-22.75,17.5-5.61-.69-23.98-26.03-26.75-32.5,10.69-3.61,21.74-10.07,29-18.75-.28-2.07-.61-4.2-1-6.25,5.71.57,7.95,6.6,11,8.5Z"/>
              <path class="cls-54" d="M137.07,224.77c2.77,6.47,21.14,31.81,26.75,32.5,6.31.78,19.02-12.61,22.75-17.5-1.79,6.55-15.09,23.07-21.75,23.5-9.38.61-14.95-13.49-21.25-17.5-.27-2.45-.78-3.36-1.5-5.5-.43-1.28-.98-2.29-1.5-3.5-1.09-2.53-2.39-3.79-2.5-4-1.19-2.2-2.49-4.5-3-7,.11-.03-.48-.16,2-1Z"/>
              <g>
                <path class="cls-4" d="M121.07,208.77c-1.42-.22-1.75,4.51-2.5,7-2.73,9.06-10.13,26.79-10.5,28.25-.16.62-.16,2.32.5,2.25-.63.58-3.84,4.5-4.25,4.5-6.99-6.34-7.33-15.67-6.75-24.5,6.55-3.95,11.23-9.94,15.5-16,2.87-4.07,4.54-9.14,8.5-12.5-.31,3.11-.95,8.1-.5,11Z"/>
                <path class="cls-44" d="M128.07,226.77c-6.7,6.24-12.73,13.26-19.5,19.5-.66.07-.66-1.63-.5-2.25.37-1.46,7.77-19.18,10.5-28.25q4.75,5.5,9.5,11Z"/>
                <path class="cls-25" d="M121.07,208.77c.63,4.03,3.64,6.92,6,10,.61.79,3.74,5.28,4,5.5-.68,1.11-2.07,1.63-3,2.5q-4.75-5.5-9.5-11c.75-2.49,1.08-7.22,2.5-7Z"/>
              </g>
            </g>
          </g>
          <path class="cls-60" d="M135.07,225.77c.51,2.5,1.81,4.8,3,7,.38,1.95-3.11.52-5.5,1-4.79.96-5.67,5.61-2.5-2.5.8-2.04,1.82-3.93,2.5-6,2.14,1.23,1.76.67,2.5.5Z"/>
          <g>
            <path class="cls-27" d="M143.57,245.77c.77,7.01-1.52,13.2-8,16.75.27,1.15,3.33-2.49,4,2.75-7.57,3.84-12.4,3-14.75-5.5.55.62,1.99,1.91,2.5,2,4.04.72-7.5-3.08-2.75-9.5,1.1.99,9.96,4.57,10.75,4,.98-.71-.66-3.37-.25-4.75.3-1.02,3.05-1.61,4-3,1.53-2.24.81-6.54,3-8.25.72,2.14,1.23,3.05,1.5,5.5Z"/>
            <path class="cls-27" d="M130.07,231.27c-3.17,8.11-2.29,3.46,2.5,2.5-5.47,4.24-3.9,6.84-3.25,13,5.58-11.84,6.28,4.99,7.25-7.25q2-1.37,4-2.75c.52,1.21,1.07,2.22,1.5,3.5-2.19,1.71-1.47,6.01-3,8.25-.95,1.39-3.7,1.98-4,3-.41,1.37,1.23,4.04.25,4.75-.79.57-9.65-3.01-10.75-4-.36-.33-1.32-.76-1.5-1.25-.04-.91.06-1.84,0-2.75-.4-5.91,2.16-10.9,5-16,.1-.04.17-1.3,2-1Z"/>
            <path class="cls-44" d="M140.57,236.77q-2,1.37-4,2.75c-.97,12.24-1.67-4.59-7.25,7.25-.65-6.16-2.22-8.75,3.25-13,2.39-.48,5.88.95,5.5-1,.11.21,1.41,1.47,2.5,4Z"/>
          </g>
          <g>
            <path class="cls-31" d="M163.07,194.27c-9.09,11.59-21.81,20.53-36,24.5-2.36-3.08-5.37-5.97-6-10-.45-2.9.19-7.89.5-11,.07-.73.15-.89.5-1.5,12.44,2.19,27.65-5.12,38.5-11,1.21,2.88,1.66,6.03,2.5,9Z"/>
            <path class="cls-24" d="M165.07,199.77c.39,2.05.72,4.18,1,6.25-7.26,8.67-18.31,15.14-29,18.75-2.48.84-1.89.97-2,1-.74.17-.36.73-2.5-.5-.28-.16-1.31-.83-1.5-1-.26-.22-3.39-4.71-4-5.5,14.19-3.97,26.91-12.91,36-24.5.67,2.38,1.94,5.17,2,5.5Z"/>
          </g>
        </g>
      </g>
      <path class="cls-40" d="M139.87,486.18l-1.33-10.67s2.67,10.67,4,10.67h-2.67Z"/>
      <path class="cls-52" d="M204.07,372.27c-4.87-6.97-4.71-26.63-3.53-39.53,2.34-3.03,4.3-6.79,5.03-10.22.97-3.58.43-15.82-2.75-24.75-1.58.23,4.64,12.67-.78,23.88-2.11,2.97-4.93,6.89-9.43,9.94-2.21,1.34-4.8,2.56-7.86,3.61-5.94,1.64-13.75,1.73-24.21-1.26.64.18,35.3,40.12,43,56,7.48,15.45,16.24,62.78,15,67,.46-.1,6.78-3.39,10-5,2-1-2.74-48.58-24.47-79.67Z"/>
      <path class="cls-52" d="M97.57,336.26c5,0,10-3,10-3-6,3-16.04,1.67-16.04,1.67,0,0,1.12,1.84,1,5-.12,3.34-1.54,8.12-3.96,12.33-4,6.95-7.14,12.93-9.58,17.88-2.76,4.78-4.86,10.17-6.12,13.6-.92,2.33-1.31,3.52-1.31,3.52-4.86,19.13-9.34,45.12-12.04,64.67,6.62,4.02,7,4,7,4,0,0-3.25-21.94,2.02-42.41,7.46-28.98,19.64-41.24,22.98-46.59,15-24,6.04-30.67,6.04-30.67Z"/>
      <g>
        <g>
          <path class="cls-30" d="M163.1,194.37c-9.09,11.59-21.81,20.53-36,24.5-2.36-3.08-5.37-5.97-6-10-.45-2.9.19-7.89.5-11,.07-.73.15-4.25.5-4.86,12.44,2.19,27.65-1.76,38.5-7.64,1.21,2.88,1.66,6.03,2.5,9Z"/>
          <path class="cls-41" d="M165.1,199.87c.39,2.05.72,4.18,1,6.25-7.26,8.67-18.31,15.14-29,18.75-2.48.84-1.89.97-2,1-.74.17-.36.73-2.5-.5-.28-.16-1.31-.83-1.5-1-.26-.22-3.39-4.71-4-5.5,14.19-3.97,26.91-12.91,36-24.5.67,2.38,1.94,5.17,2,5.5Z"/>
        </g>
        <g>
          <path class="cls-19" d="M193.87,96.87s-6.44-19.74-10.08-25.56c-4.81-7.69-19.05-20.76-27.72-23.4s-26.18-2.64-36.4-.73c0,0-32.82,1.73-41.14,39.7-.94,4.3,3.47,25.35-1.5,42.9-.09.32-.14.65-.14.98v7.55c2.59,9.21,3.89,21.19,12.53,31.65,7.61,9.21,31.57,23.86,35.88,24.27,2.26.08,9.06-1.41,19.05-5.59,9.16-3.84,22.2-12.35,27.89-20.52,2.79-4.01,12.29-22.94,10.07-25.68,7.3-3.43,16.67-4.19,16.67-15.97,0-5.05-2.94-19.94-5.1-29.59ZM93.49,145.06c1.03.09,2.08.13,3.16.11-1.03.04-2.09,0-3.16-.11ZM150.29,142.04c.99.49,2.08.94,3.27,1.35-1.16-.38-2.25-.83-3.27-1.35Z"/>
          <path class="cls-46" d="M198.76,126.28c.06-.09,1.34-1.31-1.39-12.61-.8-3.84-2.6-12.74-2.6-12.74,0,0-.45-.64-1.11-1.37-.54-.59-1.23-1.23-1.8-1.71-7.14-5.96-20.51-5.64-24.33-5.66-8.48-.09-16.76,1.17-20.81,6.02s-3.97,13.78-2.53,24.56c.31,1.3,1.12,4,1.08,3.36-.1-1.67,1.06-6.72,2.37-9.57,2.25-4.92,4.62-8.13,10.93-10.58,15.64-6.05,31.83,20.59,32.55,21.79-1.8,6.6-5.1,12.32-11.07,14.7,3.89.67-5.67,21.3-8.64,25.56-5.68,8.17-18.56,15.97-27.72,19.8-9.98,4.18-16.68,6.28-18.99,6.23.17.06.07.12.64.16,15.33,1.15,24.21-2.52,37.43-10,19.85-11.23,20.3-13.57,30.24-32.4,1.1-2.09,1.09-4.53,2.88-6.84.38-.49,9.73-1.54.72-7.92,13.28-19.13,20.35-3.89,12.96,6.48-6.8,9.55-18.62-4.15-10.8,11.88,25.69,5.04,20.19-57.31,0-29.16Z"/>
          <path class="cls-38" d="M198.76,155.45c-2.56-.5-3.24-2.94-5.76-3.6,1.1-2.09,1.09-4.53,2.88-6.84.38-.49,9.73-1.54.72-7.92,13.28-19.13,20.35-3.89,12.96,6.48-6.8,9.55-18.62-4.15-10.8,11.88Z"/>
        </g>
        <path class="cls-23" d="M77.18,137.04c3.5,16.27,5.03,23.58,11.87,32.34,4.4,5.63,24.09,20.16,35.68,24.72-5.49-.09-34.05-16.97-40.23-24.75-6.68-8.4-8.31-18.44-8.47-25.05-.04-1.66.29-4.97.48-6.62.08-.68.39-2.73.39-2.73,0,0,.18,1.59.29,2.09Z"/>
        <path class="cls-41" d="M86.42,100c-1.88.06,1.36-4.44,2.23-6.28,1.06-2.92,1.12-6.36,2-9.25,6.04-19.79,23.82-27.78,10.5-24.25-10.51,2.79-20.82,35.08-21.94,44.67,0,.01.18,6.15.18,6.15,2.51-3.22,3.62-4.22,7.97-6.63,8.46-4.67,18.39-1.27,22.4,9.26.04.12,2.35,10.41,2.39,11.24.02.42.04-9.38.19-10.88-.96-13.22-15.39-14.39-25.92-14.04Z"/>
        <g>
          <path class="cls-41" d="M76.91,135.33c-10.31,3.67-5.4,11.06-2.85,18.16-12.38-9.8-7.4-25.37-2.57-25.81.6-.05,2.57-.04,3.82.89,1.15.86,1.63,1.73,1.63,1.73,0,0,0,3.37-.04,5.02Z"/>
          <path class="cls-46" d="M74.78,130.45c.86-.04,2.13,1.32,2.1,4.07-.03,2.31-.95,7.35-.78,11.64,0,0,.48,5.68,1.6,9.55-1.36-.54-2.49-1.3-3.64-2.21-2.55-7.1-9.59-19.37.72-23.04Z"/>
        </g>
        <g>
          <path class="cls-17" d="M269.98,148.94c-.14-.13-.31-.32-.48-.48-.31-18.33-12.21-12.48-19.34-17.19-4.6-3.04-7.83-19.38,14.08-18.38,5.56,7.95-13.96,6.35-11.94,10.5.48.99,15.1,6.07,17.19,8.59,3,3.63,2.98,13.91.48,16.95Z"/>
          <path class="cls-62" d="M23.16,132.71c-.77,1.33-4.97,3.92-3.34,11.94-5.77-2.09-14.97-2.67-13.84-10.74,1.81-13.02,15.73-1.17,17.19-1.19Z"/>
          <path class="cls-62" d="M35.57,115.04q.48,4.42.95,8.83-6.68,4.42-13.37,8.83c.54-.92,2.18-2.06,2.39-2.63,2-5.39-4.36-9.36-3.82-14.8l13.84-.24Z"/>
          <path class="cls-62" d="M277.14,80.19c-4.37-2.21-5.02-1.55-9.55-2.63,2.76-7.37,4.11-10.61,0-17.43-.52-.4-.64-.5,0,0-3.84-6.37-10.77-9.34-17.9-6.21-2.75-.54.94-5.86-9.79-11.7,8.37-15.47-11.31-28.07-21.24-13.61C201.05,8.83,176.41.05,151.82,13.35c-16.73-18.96-48.35-16.68-65.64.24-1.68,1.64.06,3.99-12.65,9.31-1.97.09-9.93-10.8-21.24-1.43,0,0,0,0,0,0-2.89,2.39-5.59,6.4-5.73,10.26-.03.76,1.65,8.46,1.91,8.83-1.18.2-2.31.87-3.34,1.43-7.68,4.19-5.16,3.47-8.83,10.98-18.35-1.5-25.18,16.33-12.17,28.88-2.57.83-5.11,1.11-7.64,2.15-1.99.82-3.19,1.37-4.77,2.86-9.07,8.54-4.83,20.54,5.73,25.06.64,1.79-3.89,4.36,0,13.37-18.05-2.07-24.49,18.34-7.64,26.26-3.6,8.83,2.84,20.44,12.65,16.95,7.94,7.76-1.98,7.84-.24,18.86,1.36,8.6,13.51,14.07,20.77,8.83,10.25,4.27,5.3,4.94,8.83,9.79,4.51,6.19,15.68,5.61,20.77.24,1.38.31.67,13.47,19.1,10.98,4.44-7.84,5.94-2.38,12.89-5.73,5.18-2.5,5.11-9.42,10.26-4.77,2.74-3.89,3.15-8.08,6.93-11.28.07-.7.14-1.4.21-1.99-6.38-2.21-25.4-13.42-31.26-18.43-9.34-7.98-13.33-20.37-13.01-19.3-1.36-.54-2.49-1.3-3.64-2.21-12.38-9.8-7.4-25.37-2.57-25.81.6-.05,2.57-.04,3.82.89,1.13.85,1.61,1.7,1.63,1.73.9-3.64,1.92-8.38,2.1-11.67.91-5.89.92-15.31.93-15.49.51-7.83,10.9-38.47,20.04-42.53,5.38-2.39,10.25,1.5,16.95-8.12,21.88,12.34,30.33-2.24,31.99-2.86,6.58-2.47,8.32,5.19,8.83,5.49,13.69,7.91,27,21.42,30.54,26.98.47.73,2.46,5.84,3.64,9.46,3.7,11.31,6.79,34.73,6.79,34.73,0,0,3.9-5.64,7.37-6.78-.07-.05,3.66-1.35,6.46,1.78,5.22,5.85,4.58,25.77-3.74,31.97-4.96,3.7-10.25,2.94-13.43,0-1.22-1.12-2.42-1.4-2.42-1.4,0,0-.35.73-1,1.91-1.55,2.8-5.42,11.17-9.33,15.71-7.98,9.27-15.7,11.85-22.05,15.97.87,3.22,1.58,5.68,2.38,8.52.64,2.27,1.85,4.93,1.91,5.25,5.45.54,7.16,3.77,10.08,5.58.54.34,3.43.86,4.54.95,6.7,13.18,24.45,10.16,28.64-3.82,9.21,9.72,23.29,11.63,27.21-3.82,7.01.07,11.98.74,16.71-5.25,17.53,1.89,24.17-15.7,11.7-27.45l5.97-7.88c5.9,1.47,11.45.11,14.56-5.25,3.95-6.8,2.04-13.9-4.3-18.38,1.49-16.72-7.49-16.8-8.12-17.66-2.99-4.15,5.51-3.75,10.03-9.07,6.81-8.02,4.79-22.13-4.77-26.97"/>
          <path class="cls-17" d="M29.37,152.28c-.27.1-1.5,1.75-5.01,2.86-.56-.14-4.42-9.94-4.54-10.5-1.63-8.01,2.57-10.6,3.34-11.94q6.68-4.42,13.37-8.83-.48-4.42-.95-8.83c.1-2.73-8.04-6.86-13.37-10.5-2.1-4.42-1.05-9.85,1.91-13.84,8.45-3.78,19.02-1.63,19.1-7.88,0-.5-2.12-5.75-2.39-9.79-.72-10.74,14.06-12.77,15.28-14.08.5-.54,1.74-5.63,1.91-6.92,1.36-2.12,3.22-3.78,4.77-5.73,2.19-2.75,3.56-.4,1.91-8.83,15.43-17.14,14.53-10.69,36.04-7.88,3.21-.75,3.19-14.58,10.03-15.75,9.57-1.64,12.02,10.31,8.12,13.37-3.67,2.88-3.2-2.58-6.68-7.64-3.78,22.62-17.69,15.12-34.85,12.89-8.46,5.82-4.47,10.16-5.49,13.13-.28.81-7.63,7.08-8.12,8.12-3,6.43,5.2,5.22-16.71,16.71-2.36,5.97,9.05,16.27-6.92,23.15-4.57,1.97-16.64,2.16-13.37,6.21,2.66,3.28,15.27,6.03,15.99,17.43,1.43,22.72-26.97,10.24-13.37,35.09Z"/>
          <g>
            <g>
              <path class="cls-17" d="M164.23,15.26c12.02-1.13,20.75,19.49,43.44,11.94,11.03,14.64,20.32,10.14,15.52,27.93,2.48,1.22,11.9,9.52,12.65,9.79,5.27,1.89,20.78-2.81,15.99,16.47,4.52,1.56,20.47,7.85,22.44,11.46,2.26,4.16.7,12.42-4.06,14.08-11.08,3.87-.82-9.16-1.19-10.74-11.93-10.93-28.55-.8-21.96-23.39l-12.65-1.19c-8.03-10.55-12.63-7.74-15.52-11.22-7.65-9.25,11.94-21.6-18.86-17.43q-1.19-4.06-2.39-8.12c-11.72.38-21.94-6.33-31.03-12.89-4.05-.29-16.38,7.73-13.61-.72.59-1.81,9.15-5.77,11.22-5.97Z"/>
              <path class="cls-61" d="M209.11,32.93c2.95-.22-2.46,2.06-3.34,2.39-11.48,4.18-3.32-1.9,3.34-2.39Z"/>
            </g>
            <path class="cls-1" d="M110.76,13.83c-6.84,1.17-6.82,15.01-10.03,15.75-21.51-2.82-20.61-9.27-36.04,7.88,1.65,8.43.28,6.08-1.91,8.83-1.55,1.95-3.41,3.61-4.77,5.73h0c-.17,1.29-1.41,6.38-1.91,6.92-1.22,1.32-16,3.34-15.28,14.08.27,4.04,2.39,9.28,2.39,9.79-.07,6.25-10.64,4.1-19.1,7.88-2.96,3.99-4.01,9.42-1.91,13.84,5.33,3.64,13.47,7.78,13.37,10.5q-6.92.12-13.84.24c-.54,5.44,5.82,9.41,3.82,14.8-.21.57-1.85,1.7-2.39,2.63-1.46.02-15.38-11.82-17.19,1.19-1.12,8.08,8.08,8.65,13.84,10.74.11.56,3.98,10.36,4.54,10.5,3.52-1.11,4.74-2.77,5.01-2.86-13.6-24.85,14.8-12.37,13.37-35.09-.72-11.4-13.34-14.14-15.99-17.43-3.27-4.05,8.8-4.24,13.37-6.21,15.97-6.89,4.57-17.19,6.92-23.15,21.91-11.49,13.71-10.28,16.71-16.71.48-1.03,7.84-7.31,8.12-8.12,1.03-2.97-2.97-7.31,5.49-13.13,17.16,2.23,31.07,9.73,34.85-12.89,3.48,5.05,3.01,10.51,6.68,7.64,3.9-3.06,1.45-15.01-8.12-13.37Z"/>
            <path class="cls-1" d="M252.32,123.4c-2.02-4.15,17.5-2.56,11.94-10.5-21.91-.99-18.69,15.34-14.08,18.38,7.12,4.71,19.02-1.14,19.34,17.19.17.16.33.34.48.48,2.5-3.03,2.52-13.32-.48-16.95-2.09-2.52-16.71-7.61-17.19-8.59Z"/>
          </g>
        </g>
        <g>
          <path class="cls-35" d="M111.24,121.71c-.5-1.47-1.36-5.17-5.73-9.43-2.82-2.75-5.81-4.38-7.96-4.74-1.44-.2-2.74-.16-3.92.02-2.25-.1-5.68,1.45-7.92,3.23-5.87,4.68-4.57,12.46,1.08,15.84.25.15.53.29.82.43,3.24,1.76,5.75,1.8,9.2,1.91,0,0,6.24.41,14.03-2.74.47-.19,1.41-.71,1.41-.71,0,0-.22-2.03-1.01-3.82Z"/>
          <path d="M79.85,107.58c2.64,2.22,6.39-6.16,17.05-5.19,8.72.79,15.56,12.06,15.24,22.28-1.16-2.08-2.23-5.18-2.57-5.54-.05-.06-.18.02-1.29-.86,1.16-4.03-6.96-10.25-10.73-10.73-6.55-.85-10.77,2.43-13.74,7.73-.14.25-.58,1.17-.86,2.15-1.13,3.97,1.02,7.74,4.65,9.65-.74,0-3.81-1.99-4.23-2.35-4.02-3.43-7.61-12.5-7.56-18.15-.1-1.1.31-4.58.83-3.19.99,2.65,2.45,3.56,3.2,4.2Z"/>
          <path d="M96.57,120.44c1.9-.49,2.53-3.14,2.21-4.87,11.2-1.45,3.91,16.24-2.21,4.87Z"/>
          <path class="cls-8" d="M109.59,120.1c0-.2-.04-.38-.05-.58,0-.14,0-.27,0-.41,0,0-.02-.02-.04-.02-.84-6.6-8.39-11.1-11.98-11.57-.36,1.44-2.68,2.49-3.43,3.86-.15.27-.81,2.12,0,2.15,2.03-.08,2.65.33,3.43.43.07.43,1.27,1.61,1.29,1.72,10.87-1.4,3.79,15.75-2.15,4.72-2.27.58-4.3-1.57-4.72-.64.81,3.73,1.27,6.93,4.72,8.8,1.25.67,3.25.49,7.72-.31,3.74-.67,4.99-4.57,5.14-8.2.02.01.05.04.06.05Z"/>
          <path class="cls-35" d="M161.38,110.69c.9-.18,3.78-.53,5.05-.47,2.94.16,5.9,2.18,5.9,2.18,7.28,5.07,10.16,9.31,3.22,16.31-.69.31-2.85,1.25-3.01,1.29-5.74,1.41-21.22,1.35-27.05-2-.02,0-.03-.02-.05-.03-.3-.17-.26-2.91.05-3.98,3.45-6.78,7.95-12.16,15.89-13.31Z"/>
          <g>
            <path d="M181.56,114.56c2.17,1.76,3.7.7,5.24-1.17.9-.99.81-1.56,1.05-1.23.27.39.27,1.84-.33,3.75-1.37,4.31-5.27,9.83-11.96,12.82,6.94-7.01,4.06-11.25-3.22-16.31,0,0-1.92-1.42-5.58-2.15-1.82-.36-3.59.17-5.37.43-7.94,1.15-12.44,6.53-15.89,13.31,1.51-13.76,12.07-22.65,26.4-17.6,5.73,2.02,8.22,6.99,9.66,8.16Z"/>
            <path class="cls-8" d="M174.69,118.85c-.19-2.4-3.14-7.78-7.94-8.59-1.83-.31-3.59.17-5.37.43-4.27,6.01-2.22,3.07,1.5,4.29.41.13,1.13.82,1.5,1.29.24.3,1.52.19,3.86.86,4.97,5.8-3.02,11.68-6.44,4.72-1.91.28-4.19-1.74-4.29-1.5.28,14.31,18.69,12.68,17.17-1.5Z"/>
            <path d="M168.25,117.13c4.97,5.8-3.02,11.68-6.44,4.72,2.32-.34,3.84-3.51,2.58-5.58,1.66-.19,2.83-.01,3.86.86Z"/>
          </g>
        </g>
        <path class="cls-2" d="M205.72,150.67l1,2c1,2-3,3-3,3-1.16.37-2,1-3,0l1-5c1-2,3.66-.46,4,0Z"/>
        <g>
          <path class="cls-20" d="M206.72,158.67c0-2,0-5-1-6s-1.79-2.03-3-1c-.85.72-1.85,4.6-2,7-.05.8.36,3.41,1.05,3.95,1.97,1.52,3.28,1.28,3.96.21,1.99-3.16.99-2.77.99-4.16Z"/>
          <path class="cls-37" d="M207.27,157.87c-.22-2.79-.45-4.83-1.55-5.2-3-1-1,3-4,5-1.18.78-.56,3.32,0,4,3.39,4.13,5.76-1.04,5.55-3.8Z"/>
        </g>
        <g>
          <path d="M78.46,93.49c-.32-.04-.57-.26-.4-.54,1.23-1.98,4.66-7.32,6.9-8.78s9.41-4.96,14.55-3.99c4.03.76,4.14,4.49,4.17,6.11,0,.03-.02.06-.05.08-2.65,1.53-4.4.39-8.93.03-1.75-.14-3.24-.01-4.87.46-2.57.74-4.87,2.4-7.04,4.87-.66.75-2.7,1.96-4.34,1.76Z"/>
          <path d="M178.6,86.32c.11.55,2.3,3.22,2.88,5.4l-1.08,1.08c-14.83-10.29-26.1-.3-29.16-7.2,2.55-2.21,3.17-11.87,27.36.72Z"/>
        </g>
        <g>
          <path class="cls-30" d="M137.56,143.02c1.79,8-20.24,11.31-20.88,2.16,5.6,5.57,14.97,2.25,20.88-2.16Z"/>
          <g>
            <path class="cls-21" d="M155.93,149.5c2.64.26,5.03,1.58,6.12,3.96-8.51.6-12.2,25.11-29.16,27.72-25.18,3.88-14.91-25.59-27.72-19.8.7-9.31,39.85-.3,54.01-8.64l-3.24-3.24Z"/>
            <path class="cls-28" d="M150.89,158.15c4.44-.62-4.85,8.34-6.48,9.36-9.07,5.7-30.73,7.42-30.24-4.32,15.16,3.57,34.64-4.75,36.73-5.04Z"/>
          </g>
          <path class="cls-23" d="M121.36,139.42c2.21,1.67,5.3,2.24,5.4,2.52,1.58,4.52-6.69,4.93-5.4-2.52Z"/>
        </g>
        <g>
          <path class="cls-36" d="M117.87,112.71c0,15.74-15.3,27-28,27s-19-10.26-19-26,9.3-22,22-22,25,5.26,25,21Z"/>
          <path class="cls-36" d="M196.87,113.9c0,22.81-17.9,29.81-32.77,29.81s-22.23-11.33-22.23-28.71c0-20.29,10.88-24.29,25.74-24.29,19.26,0,29.26,5.81,29.26,23.19Z"/>
          <g>
            <path d="M201.87,122.71c4.16-9.68-4.33-20.72-5.73-23.8-2.17-4.77-6.05-8.24-9.27-9.2-2-.6-6-1-13-1-6,0-29-3-34.5,13.71-7.21-3.06-12.58-2.59-20-1-1.5-2.71-5.52-11.66-20.5-12.71-1.93-.13-9.16-.71-16,1-8,2-7.86,2.86-10,5s-4.6,9.78-5,18c-.35,7.04,2,17,3,19,.63,1.26,3,6,5.75,7.46,8.64,4.97,15.01,4.96,21.25,4.54,15-1,26.35-18.47,26-32.79,21.23-1.93,7.52,3.43,18.25,22.75,2.56,4.62,9.75,11.04,16.75,13.04,4.9,1.4,14.82,1.78,23-2,13-6,17.7-16.64,20-22ZM115.62,115.42c-.26,7.54-3.33,13.47-8.14,17.34-6.18,4.97-15.23,6.52-24.86,3.66-5.75-1.71-7.78-6.29-8.75-8.71-4-10,0-24,1-27,1.92-5.77,10.39-7.67,16-8,8.61-.51,17.34.25,21.75,8.71,2.09,4,3.16,9.45,3,14ZM148.62,133.67c-3.52-4.73-5.36-13.94-5.5-19.75-.37-15.93,5.18-19.09,20-20.5,5.57-.53,11.46-.87,17,0,.81.13,2.43.35,3,.5,2.12.56,4.25,1.34,5.79,2.84.47.46,4.36,5.98,5.96,16.95.49,3.39,0,8-1.72,12.65-.01.02-.02.03-.04.05-8.92,20.35-36.11,18.5-44.5,7.25Z"/>
            <path class="cls-55" d="M215.59,107.93c-.51-.71-12.85-7.97-15.03-8.89-2.45-1.04-4.78-2.3-5.2-1.97.57,2.38,7.75,12.97,7.56,18.78-.03.91,1.94,1.11,1.94,1.11l.1-.78c9.11.38,12.15-1.51,15.04.62-.21-1.64-3.59-7.73-4.4-8.87Z"/>
            <g>
              <path class="cls-7" d="M69.18,103.44q-5,2.25-10,4.5c-.53-1.11-2.64-9.66-1.25-10.5,22.79-3.44,17.71-10.26,11.25,6Z"/>
              <path d="M69.18,103.44q-.62,5-1.25,10c-3.24-2.09-6.93-1.68-8.75-5.5q5-2.25,10-4.5Z"/>
            </g>
            <path d="M214.1,123.36c.37-.18,4.84-5.6,5.88-6.56-2.73-2.01-5.98-.95-13.59-.61-9.56-.34-10.25-3.54-10.25-3.54l.63,3.1c-.08.54.19,2.49.46,4.47l4.41,2.9c3.7-3.78,5.28-4.79,9.33-3.29,2.07,1.2,2.74,2.94,3.13,3.54Z"/>
          </g>
        </g>
      </g>
      <path class="cls-45" d="M66.53,274.94s7,3,13-1c6.13-4.09-3,13-3,13,0,0-6.11-5.26-10-12Z"/>
      <g>
        <g>
          <path class="cls-5" d="M142.12,457.69l-1.54,3.08"/>
          <path class="cls-26" d="M81.5,391.1c5.16,5.42.61,3.13-.19.96-.08-.22-.07-.82.19-.96Z"/>
        </g>
        <g>
          <path class="cls-12" d="M59.37,257.16c-6.96,18.24-11.44,37.32-19.24,55.23.05.8,4.11,4.01,5,4.81,3.08,2.78,9.82,7.18,10.2,7.7,1.12,1.53.14,1.24.19,2.31.05,1.04-.33,2.03-.38,3.08-.17-.07-.61.07-.77,0-3.81-1.66-9.65-5.89-13.09-8.47-.14-.1.04-1.28-2.69-1.54,1.55-12.78,3.7-21.55,6.54-33.87,2.29-9.9,6.16-27.6,10.39-35.8,1.97,1.71,2.78,4.29,3.85,6.54Z"/>
          <path class="cls-18" d="M177.15,218.28c1.01,1.62,1.37,2.4,1.92,4.23.49,1.62.94,3.33,1.15,5,1.15,8.81-.37,23.58-2.31,32.52.41,2.48.95,5,1.15,7.51-1.37.36-1.33-1.06-1.54-1.15,4.45-6.05-11.78-11.87-13.09-9.24-.05-.3-.6-.69-.38-1.92-.89-1.84-8.21-4.71-10.39-5.39l-3.46-2.31c2.51-3.73,6.28-8.52,7.7-10.78,2.36-3.76,3.46-8.91,4.62-13.66l-1.54-12.51c6.79-1.57,12.59,1.96,16.17,7.7Z"/>
          <path class="cls-12" d="M233.34,247.26c-1.24-1.6-3.67-2.36-3.85-2.5-10.06-8.29-24.13-16.86-2.96-2.82-.56,1.8-2.98,7.25-3.97,7.63-.2.73.49,1.05.38,1.73-4.1,12.4-6.36,33.84-9.24,44.46-.11.41-.47,1.6-1.15,1.35-.59-3.38-1.17-6.59-1.54-10.01-1.45-13.51-1.72-32.49-1.15-46.19.83-.67-1.75-4.35-2.33-4.97-7.25-2.56-9.1-5.05-16.53-6.96-4.01-1.03-7.41-5.9-3.66-4.62,8.34,2.84,17.06,3.18,25.19,6.58,9.11,3.81,21.44,13.9,22.54,14.59,5.46,3.41,3.46,38.41,3.46,38.41,0,0-4.32-29.62-5.19-36.68Z"/>
          <path class="cls-12" d="M74.38,286.79l-.77.19c.07,5.09-3.96,15.52-4.23,18.09-.08.71-.09,1.09.77.96-4.12,6.91-9.18,13.09-13.47,19.82-.02.03.52.37.38.58-.36.56-.29-.33-1.54.77-.05-1.06.93-.78-.19-2.31-.38-.51-7.12-4.92-10.2-7.7.72.73,1.31-.46,1.92-1.35,3.46-5.06,13.27-23.59,15.4-29.25,5.26-14.05,4.15-14.16-3.08-29.44-1.07-2.25-1.88-4.84-3.85-6.54.33-.64.79-1.28,1.15-1.92,2.36,2.73,11.92,12.91,12.7,14.82.83,2.01-.07,5.12,0,5.39,1.65,6.58,3.87,8.98,5,17.9Z"/>
          <path class="cls-12" d="M109.02,218.28c-1.59,2.95-1.8,4.66-1.92,8.08-6.14,1.73-5.99-.24-7.31,12.7-1.13,11.03-1.36,35.89-2.31,51.58-1.28-4.28.38-11.83.38-17.13l-2.31-5.39c-1.61-14.82,2.13-38.84,1.54-40.8-.24-.8-1.47-.9-1.54-.96-.05-.04,0-1.08-.58-1.15-1.64-.22-26.46,9.34-29.44,14.43.35,2.91.95,5.8,1.54,8.66,2.59,12.53,8.23,24.63,10.01,37.34.36,2.55.87,5.1.77,7.7.16,1.33-1.96,1.74-2.31,2.31-.76-2.88-.78-5.92-1.15-8.85-1.14-8.92-3.36-11.32-5-17.9-.07-.27.83-3.38,0-5.39-.79-1.91-10.34-12.09-12.7-14.82,8.26-14.47,17.86-21.75,35.99-23.86,1.74-.2,1.85-.02,3.85-.38,1.47-.27,8.82-1.34,9.24-1.54,1.8-.86,1.34-4.47,3.27-4.62Z"/>
          <path class="cls-12" d="M127.88,250.61c-.12.99.32,1.71.38,2.69.16,2.43.24,4.88.38,7.31.56,9.24.7,18.48,1.15,27.71.64,12.91,1.67,25.61,2.69,38.49.63,7.91,2.44,15.7,1.92,23.67q-5,36.47-10.01,72.94c-.26-.09-1.68.08-2.89-.38-4.18-1.6-11.02-6.76-14.82-9.62,6.53-14.89,14.85-47.71,12.7-62.93-.54-3.8-2.59-7.6-3.46-11.35-.7-2.98-1.71-5.83-2.31-8.85-4.21-21.13-3.14-55.3-4.11-77.35.28-.89,13.17-18.93,15-20,.04-.02,3.13,17.8,3.35,17.67Z"/>
          <path class="cls-63" d="M135.53,469.94c-3.2,1.79-12.26-.75-16-2,5-36.47,9.89-80.98,14.89-117.44.52-7.97-1.29-15.76-1.92-23.67,2-1.13,14.59,2.84,15.4,2.12,1.59-8.6.3-17.45-1.15-25.98.07.13,1.16.62,1.54,2.12.88,3.45.8,20.61.77,25.79-.19,29.74-12.86,109.36-13.52,139.07Z"/>
          <path class="cls-22" d="M181.77,341.06c-.86,4.53-2.85,9-3.46,13.66-2.42,18.24.83,36.54,5.77,54.08-.31.22-.67,2.1-5.77,4.62-7.57-12.47-11.85-26.92-13.47-41.38-.69-6.17,1.42-13.21-2.69-12.12.72-11.51,3.44-18.51,4.62-26.17,4.1,2.4,9.54,2.19,14.05,4.23l1.35-.96c-1.01-3.43,2.95-4.9-.38-5.97,1.55-.37.74-2.74,1.15-4.81.38-1.89,1.14-1.81,1.15-1.92.18-1.13.48-12.75.38-14.24-.02-.3-.75-.09-.77-.38-.24-3.02-.35-6.25-.77-9.24-.04-.31-.73-.08-.77-.38-.29-2.01-.14-5.78-.38-7.7-.04-.31-.73-.08-.77-.38-.1-.86-.47-5.77.38-5.58,3.55,29.22,6.2,23.96.38,54.66Z"/>
          <path class="cls-22" d="M203.71,296.03q4.62,1.25,9.24,2.5c.62,4.42,2.37,8.7,3.08,13.09.55,3.4-.09,7.16,1.15,6.74v10.01c-.71-.73-1.35.49-1.92,1.35-5.42,8.14-9.22,17.26-13.09,26.17.94,7.82-5.06,12.14-4.62,20.01.09,1.65,3.22,17.16,5.39,19.05.05,1.27-1.47,1.58-2.31,2.31-1.73,1.5-3.31,1.8-3.46,1.92-18.06-38.54.79-52.38,6.54-70.44,5.37-16.85.02-24.01-3.46-39.64l1.15-.38,2.31,7.31Z"/>
          <path class="cls-52" d="M203.71,328.75c-5.76,18.06-24.61,31.89-6.54,70.44-4.34,3.42-8.59,6.43-13.09,9.62-4.94-17.53-8.19-35.83-5.77-54.08.62-4.67,2.61-9.14,3.46-13.66,1.57.38,9.66-3.93,12.12-5.39,3.48-2.06,6.61-4.48,9.81-6.93Z"/>
          <path class="cls-63" d="M106.33,413.04c-2.03-1.56-4.24-2.9-6.16-4.62-2.17-1.95-4.15-4.42-6.16-6.54,3.57-4.61,12.97-24.46,13.86-28.48,1.56,1.02,11.04-12.98,10.78-7.51-1.44,2.36-1.18,7.83-1.54,10.01-.63,3.83-2.86,9.96-3.08,14.24q-3.85,11.45-7.7,22.9Z"/>
          <path class="cls-22" d="M115.95,339.14c.88,3.75,2.93,7.55,3.46,11.35,2.15,15.22-6.17,48.04-12.7,62.93-.37-.28-.36-.37-.38-.38q3.85-11.45,7.7-22.9c.22-4.28,2.45-10.41,3.08-14.24.36-2.18.1-7.64,1.54-10.01.27-5.47-9.22,8.52-10.78,7.51.19-.89.31-1.78.38-2.69.92-11.41-6.63-27.75-6.54-29.25.04-.69-.14-1.05.58-1.54,4.35-.38,10.17.85,13.66-.77Z"/>
          <path class="cls-63" d="M178.3,413.42l-.58.77c-3.82.36-10.4-.22-13.66,0-.86-16.66-2.95-37.96-1.92-54.27,4.12-1.08,2,5.96,2.69,12.12,1.62,14.45,5.9,28.91,13.47,41.38Z"/>
          <path class="cls-4" d="M45.13,317.2c-.89-.8-4.96-4.01-5-4.81,7.8-17.91,17.41-47.45,18.41-66.45-.89,16.89,15,14,3.92,40.66-2.32,5.59-11.94,24.2-15.4,29.25-.61.89-1.2,2.08-1.92,1.35Z"/>
          <path class="cls-53" d="M57.06,326.44c2.66,1.55,9.24,4.04,11.93,3.85-.75,5.23.73,2.11,3.08,4.23-3.28-.44-6.42-1.13-9.62-1.92-2.62-.65-4.81-1.27-7.31-2.31.06-1.05.44-2.04.38-3.08,1.25-1.1,1.18-.21,1.54-.77Z"/>
          <path class="cls-12" d="M191,230.6c.01.06.12-.38.38,1.15,2.18,12.84,3.43,25.66,5.39,38.49,1.02,6.67,1.99,12.26,3.46,18.86,3.48,15.63,8.83,22.8,3.46,39.64-3.2,2.44-6.34,4.87-9.81,6.93-2.47,1.46-10.56,5.77-12.12,5.39,5.81-30.7,3.17-25.43-.38-54.66-.76-6.27-1.8-12.57-2.31-18.86-.2-2.5-.74-5.03-1.15-7.51,1.94-8.94,3.46-23.72,2.31-32.52l10.78,3.08Z"/>
          <path class="cls-4" d="M177.53,266.39c.21.1.17,1.52,1.54,1.15.51,6.29,1.55,12.59,2.31,18.86-.86-.19-.49,4.73-.38,5.58.04.31.73.08.77.38.24,1.92.1,5.69.38,7.7.04.31.73.08.77.38.42,2.98.53,6.22.77,9.24.02.3.75.09.77.38.1,1.49-.2,13.11-.38,14.24-.02.11-.77.04-1.15,1.92-.42,2.07.4,4.44-1.15,4.81-3.9-1.24-10.07-1.6-14.24-2.69.14-1.72.66-3.42.38-5.2-1.92-20.65-1.79-41.52-3.46-62.16,4.86,2.97,11.93,4.87,13.09,5.39Z"/>
          <path class="cls-4" d="M124.42,229.44c2.29,2.57,11.8,3.94,14.12.5,1.73,1.15,13.4,18.75,15.14,19.9-3.13-.98-2.43-2.41-4.62,1.54-.14.25-.28.5-.38.77-.02.04-.67-.15-.77.19-.45,1.48.97,3.9-1.15,4.43-.97,1.06-1.4,2.85-1.92,3.46-3.07,3.58-3.76-3.12-7.51-8.47l-9.05,1.54c-.06-.98-.5-1.71-.38-2.69.88-.51-3.63-16-6.16-22.71.48-.67,2.08.85,2.69,1.54Z"/>
          <path class="cls-63" d="M177.53,266.39c-1.16-.52-8.22-2.41-13.09-5.39-.1-1.23.17-2.8,0-3.85,1.3-2.64,17.53,3.19,13.09,9.24Z"/>
          <path class="cls-52" d="M191,225.98c-.43,1-.18,3.58,0,4.62l-10.78-3.08c-.22-1.67-.67-3.38-1.15-5,3.86,1.53,7.92,2.43,11.93,3.46Z"/>
          <g>
            <path class="cls-12" d="M164.06,255.23c-.21,1.23.34,1.62.38,1.92.17,1.05-.1,2.62,0,3.85,1.67,20.65,1.55,41.52,3.46,62.16.27,1.78-.25,3.48-.38,5.2-.14,1.76-.5,3.63-.77,5.39-1.18,7.66-3.9,14.66-4.62,26.17-1.02,16.31,1.07,37.61,1.92,54.27-2.63.17-5.23.67-7.89.38-3.84,1.63-7.71,3.36-11.35,5.39.66-29.72,4.04-59.37,4.23-89.1.03-5.17.11-22.34-.77-25.79-.38-1.49-1.47-1.99-1.54-2.12-1.88-3.44.6-1.69,1.15-2.89.58-1.26-1.05-19.78-.77-27.71,0-.17,1.15-.98,1.15-1.15.29-6.33-.53-12.74.38-19.05.1-.27.25-.52.38-.77q7.51,1.92,15.01,3.85Z"/>
            <path class="cls-52" d="M153.67,249.84c2.18.68,9.5,3.55,10.39,5.39q-7.51-1.92-15.01-3.85c2.19-3.94,1.49-2.52,4.62-1.54Z"/>
          </g>
          <path class="cls-12" d="M229.49,241.76c-.27,1.92-2.14,4.37-2.31,5.97-.61,5.64,8.49,54.66,12.35,62.21-2.39,8.59-5.51,4-7.34,12.65-3.67.99-8.61,2.51-11.93,4.23-1.51-4.14.67-3.44,3.08-5,1.36-.88,7.11-1.07,7.2-1.88-3.93-7.64-9.72-27.16-11.05-35.07-2.28-13.65,1.89-22.79,3.85-35.22.17-1.08-.4-1.28-.38-1.35.1-.68-.58-1-.38-1.73.99-.38,1.37-3.2,1.92-5-21.17-14.04-5.06-8.1,5,.19Z"/>
          <path class="cls-4" d="M209.86,237.91c-.57,13.7-.3,32.68,1.15,46.19-1.72,1.47.85,6.4,0,7.89q-3.66,2.02-7.31,4.04l-2.31-7.31c-1.48-6.04-2.27-19.56-3.27-19.63-.17-.01-.75,1.02-1.35,1.15-1.96-12.83-3.21-25.65-5.39-38.49,4.24.25,14.5,9.35,18.48,6.16Z"/>
          <path class="cls-22" d="M248.53,306.94c1.61,3.41-7.99.39-9,4-3.85-7.55-12.96-56.57-12.35-62.21.17-1.6,2.04-4.04,2.31-5.97.18.15,2.6.9,3.85,2.5,1.74,14.12,7.19,44.68,15.19,61.68Z"/>
          <path class="cls-22" d="M219.49,284.87c-.51,10.49-1.09,21.06-.77,31.56l-1.54-.38c-.62-7.13-3.38-14.79-4.62-21.94.68.25,1.04-.93,1.15-1.35,2.88-10.62,5.14-32.05,9.24-44.46-.01.07.56.27.38,1.35-1.96,12.43-6.13,21.57-3.85,35.22Z"/>
          <path class="cls-22" d="M209.86,237.91c-3.97,3.19-14.23-5.91-18.48-6.16-.26-1.53-.37-1.09-.38-1.15-.18-1.04-.43-3.62,0-4.62,7.43,1.91,14.88,3.6,22.13,6.16.59.62-2.44,5.11-3.27,5.77Z"/>
          <path class="cls-63" d="M212.56,294.11c1.24,7.15,4,14.8,4.62,21.94.07.76-.05,1.55,0,2.31-1.25.43-.61-3.33-1.15-6.74-.71-4.39-2.46-8.67-3.08-13.09q-4.62-1.25-9.24-2.5,3.66-2.02,7.31-4.04c.85-1.49-1.72-6.42,0-7.89.37,3.42.95,6.63,1.54,10.01Z"/>
          <path class="cls-22" d="M81.69,290.64c-.62,10.5-8.6,29.37-1.92,42.92.3.61.69,1.48,1.54,1.35,2.01,4.03,4.25,6.12,5,7.31,4.29,6.83,9.68,13.03,10.39,21.55.27,3.22-.07,15.47-2.69,17.71.01-.2-.74-3.4-.77-3.85-.26-4.36-1.91-14.48-3.08-16.74-.38-.73-2.2-1.36-2.69-2.31-.64-1.22-.82-6.03-1.15-6.93-1.2-3.17-6.33-10.54-8.08-14.63l-.77.58c-.03.25.06.6,0,.77-.21-1.59-.86-2.59-1.15-3.46-4.58-13.9-2.38-4.96-7.31-4.62-2.69.19-9.27-2.3-11.93-3.85.13-.21-.41-.55-.38-.58,4.29-6.73,9.36-12.91,13.47-19.82,2.01-3.38,3.34-7.06,5.39-10.39.35-.57,2.47-.98,2.31-2.31l3.85-2.69Z"/>
          <path class="cls-53" d="M74.38,286.79c.37,2.93.4,5.97,1.15,8.85-2.05,3.34-3.38,7.02-5.39,10.39-.86.13-.85-.25-.77-.96.28-2.57,4.3-13,4.23-18.09l.77-.19Z"/>
          <path class="cls-12" d="M97.47,290.64c-.5,8.26-2.26,17.46-2.31,25.4-.06,9.31.61,10.7,3.85,18.86.66,1.66,1.9,4.65,2.31,6.16q-7.51.58-15.01,1.15c-.75-1.19-3-3.28-5-7.31-9.17-18.44,3.01-35.3,2.69-65.63-.13-12.29-4.77-32.21,1.15-37.14,6.2-2.32,13.84-4.6,10.39-5.77.07.06,1.3.16,1.54.96.59,1.96-3.15,25.98-1.54,40.8l2.31,5.39c0,5.3-1.66,12.85-.38,17.13Z"/>
          <path class="cls-4" d="M95.16,316.05c.05-7.94,1.81-17.15,2.31-25.4.94-15.68,1.18-40.55,2.31-51.58.49-.18,1.46.68,1.54.96.59,2.12-.43,36.14-.77,41.18-1.96,8.42-2.45,30.51-3.46,35.41-.87,4.24-1.43,2.52-1.92-.58Z"/>
          <g>
            <path class="cls-4" d="M85.16,232.14c-5.92,4.93-1.28,24.85-1.15,37.14.32,30.32-11.86,47.19-2.69,65.63-.85.14-1.24-.74-1.54-1.35-6.67-13.55,1.3-32.41,1.92-42.92,0-.15.5-1.76.77-2.12-2.36-.45-4.03-1.06-5.39-2.89-1.78-12.7-7.42-24.8-10.01-37.34,1.3-1.84-1.8-5.74-.19-7.31,4.28-1.83,13.66-10.02,16.17-7.31.68-.83,1.08-1.15,2.12-1.54Z"/>
            <path class="cls-63" d="M95.55,226.36c3.45,1.17-4.19,3.45-10.39,5.77-1.03.39-1.44.71-2.12,1.54-2.51-2.7-11.88,5.49-16.17,7.31-1.61,1.57,1.49,5.47.19,7.31-.59-2.86-1.19-5.76-1.54-8.66,2.98-5.09,27.81-14.65,29.44-14.43.57.08.53,1.11.58,1.15Z"/>
            <path class="cls-63" d="M81.69,290.64l-3.85,2.69c.1-2.6-.41-5.14-.77-7.7,1.36,1.82,3.03,2.44,5.39,2.89-.27.36-.76,1.97-.77,2.12Z"/>
          </g>
          <path class="cls-63" d="M181.77,331.06c3.34,1.06-.63,2.54.38,5.97l-1.35.96c-4.51-2.04-9.95-1.83-14.05-4.23.27-1.76.63-3.63.77-5.39,4.18,1.09,10.35,1.45,14.24,2.69Z"/>
          <path class="cls-63" d="M115.95,339.14c-3.5,1.62-9.32.39-13.66.77-.72.49-.54.85-.58,1.54-.42.04-.33-.19-.38-.38-.41-1.51-1.65-4.5-2.31-6.16,2.14-2.96,11.69-1.99,14.63-4.62.6,3.02,1.61,5.88,2.31,8.85Z"/>
          <path class="cls-4" d="M201.4,288.72l-1.15.38c-1.47-6.6-2.44-12.19-3.46-18.86.59-.13,1.18-1.17,1.35-1.15,1,.07,1.79,13.59,3.27,19.63Z"/>
          <path class="cls-13" d="M218.72,316.43c.04,1.23-.27,6.15.38,6.74l4.23-1.35c-2.41,1.56-4.59.87-3.08,5-.59.31-2.17,1.48-3.08,1.92-.01-.13.01-.26,0-.38v-10.01c-.05-.76.07-1.55,0-2.31l1.54.38Z"/>
          <path class="cls-12" d="M108.25,370.7c-.07.91-.19,1.81-.38,2.69-.88,4.02-10.29,23.87-13.86,28.48-2.01-2.12-3.83-4.38-5.77-6.54l5.77-13.86c2.62-2.24,2.96-14.48,2.69-17.71q5.77,3.46,11.55,6.93Z"/>
          <path class="cls-52" d="M101.32,341.06c.05.19-.04.43.38.38-.08,1.51,7.46,17.84,6.54,29.25q-5.77-3.46-11.55-6.93c-.71-8.53-6.1-14.73-10.39-21.55q7.51-.58,15.01-1.15Z"/>
          <path class="cls-52" d="M76.3,334.91c-1.38-.16-2.86-.2-4.23-.38-2.34-2.12-3.83,1-3.08-4.23,4.93-.34,2.73-9.28,7.31,4.62Z"/>
          <path class="cls-22" d="M218.53,328.94c-.66-.59.22-11.27.18-12.51-.32-10.51.26-21.07.77-31.56,1.32,7.91,10.11,31.43,14.05,39.07-.09.81-12.88,4.33-15,5Z"/>
          <path class="cls-42" d="M93.24,377.63c-1.99-2.51-2.45-7.67-3.85-11.35-1.11-2.92-3.12-5.6-4.23-8.47-2.6-6.68-4.53-13.73-7.7-20.21l.77-.58c1.76,4.09,6.88,11.46,8.08,14.63.34.89.52,5.71,1.15,6.93.5.95,2.32,1.57,2.69,2.31,1.16,2.26,2.82,12.39,3.08,16.74Z"/>
          <g>
            <path class="cls-4" d="M100.53,248.94c-1.83,1.07,12.23,10.21,11.95,11.1.97,22.05-3.06,49.12,1.15,70.24-2.93,2.63-12.48,1.65-14.63,4.62-3.24-8.16-3.91-9.55-3.85-18.86.5,3.1,1.05,4.81,1.92.58,1.01-4.9,1.5-26.99,3.46-35.41.34-5.05,1.36-39.06.77-41.18-.08-.28-1.05-1.14-1.54-.96,1.33-12.94,1.17-10.98,7.31-12.7.05-.01-.17,1.28.77.58.21-5.21-7.29,21.98-7.33,22Z"/>
            <path class="cls-4" d="M106.13,240.61c.6,2.12,9.58,24.61,3.08,21.17-.96-.51-4.44-21.18-3.08-21.17Z"/>
          </g>
          <g>
            <path class="cls-4" d="M129.8,288.33c-.46-9.24-.59-18.47-1.15-27.71,2.38,1.12,2.59,12.04,2.69,15.97.15,5.87.77,12.48-1.54,11.74Z"/>
            <g>
              <path class="cls-4" d="M144.82,260.23c1.09,3.59-3.05,33.03,1.54,25.6.78-1.26-.63-7.27-.38-13.09,0-.15.76-.62.77-.77.14-3.82-.34-9.23,0-12.32.02-.17,2.08-1.03,0-2.89,2.13-.52.7-2.95,1.15-4.43.1-.34.75-.15.77-.19-.92,6.31-.1,12.73-.38,19.05,0,.18-1.15.98-1.15,1.15-.28,7.94,1.35,26.46.77,27.71-.56,1.19-3.03-.55-1.15,2.89,1.46,8.53,2.75,17.38,1.15,25.98-.81.72-13.4-3.25-15.4-2.12-1.03-12.88-2.05-25.58-2.69-38.49,2.31.74,1.69-5.87,1.54-11.74-.1-3.93-.31-14.85-2.69-15.97-.15-2.43-.23-4.89-.38-7.31l9.05-1.54c3.74,5.35,4.44,12.05,7.51,8.47Z"/>
              <path class="cls-13" d="M144.82,260.23c.53-.61.96-2.4,1.92-3.46,2.08,1.86.02,2.71,0,2.89-.34,3.09.14,8.5,0,12.32,0,.15-.76.62-.77.77-.24,5.82,1.16,11.83.38,13.09-4.59,7.43-.45-22.01-1.54-25.6Z"/>
              <path class="cls-34" d="M146.16,286.41c.58,6.9-2.89,3.25-2.89,2.89,0-.2,2.53-2.38,2.89-2.89Z"/>
            </g>
          </g>
        </g>
      </g>
      <g>
        <g>
          <path class="cls-6" d="M18.71,275.26c-.12,2.62.4,4.9-1,4.25-.41,1.85,1.42,1,1.5,1.5.21,1.23-.81,19.54-.5,25,.45,7.81,2.46,15.63,2.5,23.5l.75.75,14.25-12q.25,1.25.5,2.5c-4.38,6.45-11.5,13.89-15,19.5-11.62-11.95-9.43-55.2-4-69,2.06,1.35,1.09,2.08,1,4Z"/>
          <path class="cls-49" d="M38.21,317.76c-.83,1.08-.92,2.39-1,2.5-.39.56-.48.47-.5.5q-.25-1.25-.5-2.5c-6.15-10.88-9.88-23.34-14.5-34.25-.53-3-.67-6.96-3-8.75.09-1.92,1.06-2.65-1-4,.03-.07-.03-.46.5-1.5.35-.69.48-.47.5-.5,7.25,15.78,10.98,33.53,19.5,48.5Z"/>
          <path class="cls-39" d="M25.21,264.76c.04.35-.07.81,0,1-.75-.16-2.72.25-3,.75-1.31,2.37,11.62,31.58,13.5,36.25.24.59-.05,6.15,4.75,11,1.71-.89,3.53-1.65,5.25-2.5.33,2.38,13.34,11.31,14.25,11.5,1.34.28,5.92-1.87,6.25-3.5.48.32,1.3.35,1.5,1-2.53,1.3-19.47,10.15-20.25,11-.84.92,1.27,3.66.75,5-.98.32-15.36,10.2-17,11.5l-1.5-1.5c2.7-3.27,12.01-16.02,13-19.5,1.42-5.03-.37-5.93-3.25-10.5-.56.39-.85.98-1.25,1.5-8.52-14.97-12.25-32.72-19.5-48.5,1.72-2.65,3.11-4.07,6.5-4.5Z"/>
          <path class="cls-6" d="M83.21,327.75c4.96,2.09,7.79,14.11,12,19,.09.22-.09.77,0,1q-12.5,7-25,14h-.5c-1.8-2.88-3.71-5.47-6-8-.3-6.41-1.43-6.42-5-5.5-2.33.6-14.63,6.13-22.5,9q9.5-8,19-16c.13-.07.36.06.5,0l1.75,1.5c8.14-5.77,17.09-10.12,25.75-15Z"/>
          <path class="cls-39" d="M93.71,299.26h.5c.7,2.15,2.87,3.31,3,3.5,2.95,4.21,6.19,8.19,9,12.5-3.96,7.01-3.62,28.13-14.5,23-2.09-4.21-4.13-8.43-6.5-12.5-.96-1.65-4.68-8.6-5-9,2.01-1.19,3.03.45,5-1.5,1.63-1.61.91-1.96,1-4.75,4.16-3.67.88-8.51,6.5-11.25.04-.02.19.78,1,0Z"/>
          <path class="cls-32" d="M70.21,361.75q12.5-7,25-14c.25.61,4.38,7.45,6,11.75-.11,2.22-19.4,9.78-21.75,12.75q-4.62-5.25-9.25-10.5Z"/>
          <g>
            <path class="cls-6" d="M106.71,315.76c.56,2.29,2.46,4.03,3.5,6,2.16,4.08,5.17,10.16,6.5,14.5,3.31,10.83,8.02,59.33-7.25,62-3.06.54-11.17-.82-14.75-1.5-14.23-2.7-39.51-13.44-49.5-24.5,3.63-.65,18.46-.76,18.5-4.25.07-7-12.57-3.51-20-5.75q9.37-4,18.75-8,3.62,3.75,7.25,7.5h.5q4.62,5.25,9.25,10.5c2.35-2.97,21.64-10.53,21.75-12.75-1.62-4.3-5.75-11.14-6-11.75-.09-.23.09-.78,0-1-1.16-2.76-1.54-6.03-3.5-8.5,10.88,5.13,10.54-15.99,14.5-23l.5.5Z"/>
            <path class="cls-6" d="M101.46,360.75c2.28.44,10.23,27.47,11.25,31.25l-.75.75c-2.15-5.08-3.21-10.65-5.25-15.75-1.52-3.8-9.62-17.09-5.25-16.25Z"/>
            <path class="cls-47" d="M80.96,371.75c1.73-.42,23.09,21.1,27.25,22.75-.58,1.25-15.53-10.23-16.75-11.25-1.55-1.3-12.82-10.94-10.5-11.5Z"/>
          </g>
          <path class="cls-59" d="M91.71,338.25c1.96,2.47,2.34,5.73,3.5,8.5-4.21-4.89-7.04-16.91-12-19,.63-.35,1.71-1.27,2-2,2.37,4.07,4.41,8.29,6.5,12.5Z"/>
          <path class="cls-39" d="M72.71,282.26c3.79,2.31,8.64,5.65,12,8.5.57.48,2.16,1.18,2.5,1.5.65.62,3.13,4.84,5.5,7-5.62,2.74-2.34,7.58-6.5,11.25-.09,2.79.63,3.14-1,4.75-4.41-11.56-10.32-23.21-20.25-31-3.01,1.26-6.43,1.85-6.75,2-9.39-10.08-26.99-16.44-32-19.5-.54-.33-.75-.35-1-1-.07-.19.04-.65,0-1,10.49-1.33,37.88,11.63,47.5,17.5Z"/>
          <path class="cls-39" d="M36.21,318.25l-14.25,12-.75-.75c-.04-7.87-2.05-15.69-2.5-23.5-.31-5.45.71-23.77.5-25-.08-.5-1.91.35-1.5-1.5,1.4.65.88-1.63,1-4.25,2.33,1.79,2.47,5.75,3,8.75,4.62,10.91,8.35,23.37,14.5,34.25Z"/>
          <path class="cls-49" d="M25.21,265.76c.25.65.46.67,1,1-1.8,1.59,7.37,10.46,9.75,12.5,4.94,4.22,11.26,6.95,16,11.5,1.47-.42,5.9-4.34,6.25-4.5.32-.15,3.74-.74,6.75-2,9.93,7.78,15.84,19.44,20.25,31-1.97,1.95-2.99.31-5,1.5-.3-.37-1.29-1.14-1.75-2-3.56,1.87-7.17,3.67-10.75,5.5-.2-.65-1.02-.68-1.5-1-2.58-1.71-15.08-10.92-13.5-12,4.77-2.52,9.25-5.84,14.25-8,1.22.18,10.57,16.25,11.25,14.75q-9.12-13.37-18.25-26.75-12.12,7.75-24.25,15.5c-1.88-4.67-14.8-33.88-13.5-36.25.28-.5,2.25-.91,3-.75Z"/>
          <path class="cls-14" d="M80.21,316.76c.32.4,4.04,7.35,5,9-.29.73-1.37,1.65-2,2-8.66,4.88-17.61,9.22-25.75,15l-1.75-1.5c2.38-1.08,6.58-4.58,8.75-6.5-3.79.55-15.47,1.25-16.25,1.5.52-1.34-1.59-4.08-.75-5,.78-.85,17.72-9.7,20.25-11,3.58-1.83,7.19-3.63,10.75-5.5.46.86,1.45,1.63,1.75,2Z"/>
          <path class="cls-14" d="M52.71,307.26c-3.14,1.65-6.64,3.82-7,4-1.72.85-3.54,1.61-5.25,2.5-4.8-4.85-4.51-10.41-4.75-11q12.12-7.75,24.25-15.5,9.12,13.37,18.25,26.75c-.68,1.5-10.03-14.57-11.25-14.75-5,2.16-9.48,5.48-14.25,8Z"/>
          <path class="cls-39" d="M52.71,307.26c-1.58,1.08,10.92,10.29,13.5,12-.33,1.63-4.91,3.78-6.25,3.5-.9-.19-13.92-9.12-14.25-11.5.36-.18,3.86-2.35,7-4Z"/>
          <g>
            <path class="cls-2" d="M25.71,348.75c.15,2.61,3.29-1.64,4-2.5l1.5,1.5c-11.23,8.9-4.72,6.38.5,11.5.57.56,1,3.71,1.75,4,2.38-1.03,4.9-1.93,7.25-3,1.29.79,1.34,1.5,3,2,7.43,2.24,20.07-1.25,20,5.75-.04,3.49-14.87,3.6-18.5,4.25-.38.07-.51-.94-2.25,0-1.43,1.45-5.58,4.37-7.25,5-7.72,2.9-13.99,1.56-18.5-5.5-5.84-9.16-2.42-17.2,2-26-.84,11.88.8,13.33,6.5,3Z"/>
            <path class="cls-41" d="M41.21,325.75c-7.03,6.43-11.02,14.88-15.5,23-5.7,10.33-7.34,8.88-6.5-3,.67-1.34,2.34-5.24,2.5-5.5,3.5-5.61,10.62-13.05,15-19.5.02-.03.11.06.5-.5,1.5,1.55,2.63,3.93,4,5.5Z"/>
            <path class="cls-41" d="M55.71,341.25c-.14.06-.37-.07-.5,0-.07.04.18-1.7-1.25-1-3.62,1.76-23.66,17.04-22.25,19-5.22-5.12-11.73-2.6-.5-11.5,1.63-1.3,16.02-11.18,17-11.5.78-.25,12.46-.95,16.25-1.5-2.17,1.92-6.37,5.42-8.75,6.5Z"/>
            <path class="cls-41" d="M58.71,348.25c1.68,1.81,1.41,2.38,1.5,2.5-6.56,2.88-13.01,6.55-19.5,9.5-2.35,1.07-4.87,1.97-7.25,3-.75-.29-1.18-3.44-1.75-4,1.45-.3,3.25-1.54,4.5-2,7.87-2.87,20.17-8.4,22.5-9Z"/>
            <path class="cls-2" d="M63.71,353.75c2.28,2.53,4.2,5.12,6,8q-3.62-3.75-7.25-7.5-9.37,4-18.75,8c-1.66-.5-1.71-1.21-3-2,6.49-2.95,12.94-6.62,19.5-9.5,2.13,2.95,3.35,2.83,3.5,3Z"/>
            <path class="cls-2" d="M41.21,325.75c.06.07,1.09.78,1.5,1-.99,3.48-10.3,16.22-13,19.5-.71.86-3.85,5.11-4,2.5,4.48-8.12,8.47-16.57,15.5-23Z"/>
            <path class="cls-29" d="M42.71,326.75c-.41-.22-1.44-.93-1.5-1-1.37-1.57-2.5-3.95-4-5.5.08-.11.17-1.42,1-2.5.4-.52.69-1.11,1.25-1.5,2.88,4.57,4.67,5.47,3.25,10.5Z"/>
            <path class="cls-2" d="M55.21,341.25q-9.5,8-19,16c-1.25.46-3.05,1.7-4.5,2-1.41-1.96,18.63-17.24,22.25-19,1.43-.7,1.18,1.04,1.25,1Z"/>
            <path class="cls-51" d="M63.71,353.75c-.15-.17-1.37-.05-3.5-3-.09-.12.18-.69-1.5-2.5,3.57-.92,4.7-.91,5,5.5Z"/>
          </g>
          <path class="cls-15" d="M58.21,286.26c-.35.16-4.78,4.08-6.25,4.5-4.74-4.55-11.06-7.28-16-11.5-2.38-2.03-11.55-10.91-9.75-12.5,5.01,3.06,22.61,9.42,32,19.5Z"/>
        </g>
        <g>
          <g>
            <path class="cls-2" d="M182.41,304.55c-.13.57-1.19.84-1.22,1.04-.46,2.92,5.34,4.61-2.44,20.66-2.32,4.79-4.64,7.64-7.85,11.73-.91,1.16-8.76,8.67-8.21,9.62,20.15,12.57,76.12,38.22,87.47,7.13-.42,6.09-.81,12.47-2.51,18.36-1.22,4.22-3.05,8.2-6.68,10.94-13.07,9.85-40.75-3.36-53.18-10.73-3.33-1.97-24.15-16.54-27.16-18.96-11.25-9.05-11.65-11.22-9.31-25.72,1.41-.53,4.2,3.64,7.35,5.48,4.34-4.73,18.11-9.95,19.89-14.76.32-.86,1.72-13.12,1.71-14.18.92-.46,1.17-.5,2.15-.6Z"/>
            <path class="cls-41" d="M247.92,318.66c1.49,13.44,3.25,21.47,2.24,36.07-11.35,31.09-67.32,5.44-87.47-7.13-.55-.96,7.3-8.46,8.21-9.62,3.79,1.86,4.2.8,4.42.85,10.6,2.47,21.21,4.3,31.82,6.62,3.38.74,7.26,1.29,9.82,1.89,7.19,1.68,14.69,3.17,21.09,6.85-4.34-6.27-12.18-8.14-18.76-10.99,7.4-12.02,17-17.18,28.64-24.54Z"/>
            <path class="cls-9" d="M247.92,318.66c-11.64,7.35-21.24,12.52-28.64,24.54-.81,1.32-2.11,2.47-2.32,4.14-2.56-.6-6.44-1.15-9.82-1.89-2.06-4.22-2.75-11.56-3.84-14.48,9.97-1.15,14.07-1.97,23.4-5.18,7.46-2.56,14.3-5.84,21.2-9.67.03.23-.12,1.28.02,2.55Z"/>
            <path class="cls-9" d="M216.96,347.33c.22-1.66,1.51-2.82,2.32-4.14,6.58,2.85,14.43,4.72,18.76,10.99-6.4-3.68-13.9-5.17-21.09-6.85Z"/>
            <g>
              <path class="cls-41" d="M180.26,305.15c.01,1.06-1.39,13.32-1.71,14.18-1.78,4.81-15.55,10.03-19.89,14.76-3.14-1.85-5.94-6.02-7.35-5.48.34-2.13.81-4.26,1.23-6.38,15.51,10.46-1.01.64,2.27-5.17,16.88,9.3,14.35,4.25-.45-1.61.12-.48.16-.99.28-1.47.08-.32.1-.66.19-.98.83-.7.63-1.35.87-1.87,5.8,1.25,11.29,5.02,17.74,5.7-12.69-8.6-18.63-2.18-9.7-11.79,18.67,14.65,13.33,7.28-.42-3.13l.6-4.47c2.06-2.41,2.44-1.56,3.51-2.38,2.49-1.92-2.42-4.68,10.35.46-.12-6.59,2.4,3.81,2.48,9.64Z"/>
              <path class="cls-2" d="M152.54,322.23c.03-.16.06-.33.09-.49.3-1.44,1.22-4.32,1.72-6.29,14.81,5.87,17.33,10.92.45,1.61-3.28,5.8,13.25,15.63-2.27,5.17Z"/>
              <path class="cls-16" d="M155.69,311.13c1.97-4.37,5.85-7.39,6.43-12.26.87-1.35,1.73-1.35,1.8-1.44l-.6,4.47c13.75,10.41,19.09,17.78.42,3.13-8.93,9.61-2.99,3.19,9.7,11.79-6.45-.68-11.94-4.45-17.74-5.7Z"/>
              <path class="cls-16" d="M171.25,300.37c5.87,6.25,5.17,9.47-.39.69l.09-.49.29-.2Z"/>
            </g>
          </g>
          <path class="cls-52" d="M197.14,287.86c.14-1.05.26-2.1.35-3.07.09-.97.13-1.86.12-2.58,0,.72-.04,1.61-.12,2.58-.09.97-.21,2.02-.35,3.07-.09.7-.2,1.4-.3,2.07.1-.67.21-1.37.3-2.07Z"/>
          <g>
            <path class="cls-52" d="M247.9,316.11c-6.91,3.83-13.75,7.11-21.2,9.67-4.14-.54-12.2-1.14-15.41-1.94-.95-.24-2.22-.64-2.76-1.55,3-.63,3.76-1.07,4.31-1.21,12.03-3.13,24.28-7.21,33.61-15.94.03.13,1.23.49,1.63,2.1.15,2.54-.33,7.61-.18,8.88Z"/>
            <path class="cls-13" d="M226.7,325.79c-9.32,3.21-13.42,4.02-23.4,5.18-.22-.58-1.54-.32-2.17-1.94,12.5-.05,13.84,1.33,10.16-5.18,3.21.8,11.27,1.4,15.41,1.94Z"/>
            <path class="cls-52" d="M211.29,323.84c3.68,6.5,2.34,5.13-10.16,5.18-.61-1.56-.94-3.33-1.61-4.89,3.05-.42,6.01-1.2,9.01-1.83.54.91,1.81,1.31,2.76,1.55Z"/>
          </g>
        </g>
      </g>
      <path class="cls-22" d="M132.57,225.27c-.68,2.07-1.7,3.96-2.5,6-1.83-.3-1.9.96-2,1-.53.21.22-1.48-3,1.75-3.25,3.26-20.49,27.48-22.25,27.75-.29.04-5.13-2.48-5.25-2.75-1.4-3.12-.03-30.67-2.75-32.25-.73-.42-3.62.87-3.25-1,2.03-.15,3.94.87,6,.5-.58,8.83-.24,18.16,6.75,24.5.41,0,3.62-3.92,4.25-4.5,6.77-6.24,12.8-13.26,19.5-19.5.93-.87,2.32-1.39,3-2.5.19.17,1.22.84,1.5,1Z"/>
      <g>
        <path class="cls-4" d="M176.07,208.27c2.5,7.39,9.61,16.34,18,19-2.06,4.39-4.56,8.65-7.5,12.5-3.73,4.89-16.44,18.28-22.75,17.5-5.61-.69-23.98-26.03-26.75-32.5,10.69-3.61,21.74-10.07,29-18.75-.28-2.07-.61-4.2-1-6.25,5.71.57,7.95,6.6,11,8.5Z"/>
        <path class="cls-22" d="M137.07,224.77c2.77,6.47,21.14,31.81,26.75,32.5,6.31.78,19.02-12.61,22.75-17.5-1.79,6.55-15.09,23.07-21.75,23.5-9.38.61-14.95-13.49-21.25-17.5-.27-2.45-.78-3.36-1.5-5.5-.43-1.28-.98-2.29-1.5-3.5-1.09-2.53-2.39-3.79-2.5-4-1.19-2.2-2.49-4.5-3-7,.11-.03-.48-.16,2-1Z"/>
        <g>
          <path class="cls-4" d="M121.07,208.77c-1.42-.22-1.75,4.51-2.5,7-2.73,9.06-10.13,26.79-10.5,28.25-.16.62-.16,2.32.5,2.25-.63.58-3.84,4.5-4.25,4.5-6.99-6.34-7.33-15.67-6.75-24.5,6.55-3.95,11.23-9.94,15.5-16,2.87-4.07,4.54-9.14,8.5-12.5-.31,3.11-.95,8.1-.5,11Z"/>
          <path class="cls-4" d="M128.07,226.77c-6.7,6.24-12.73,13.26-19.5,19.5-.66.07-.66-1.63-.5-2.25.37-1.46,7.77-19.18,10.5-28.25q4.75,5.5,9.5,11Z"/>
          <path class="cls-4" d="M121.07,208.77c.63,4.03,3.64,6.92,6,10,.61.79,3.74,5.28,4,5.5-.68,1.11-2.07,1.63-3,2.5q-4.75-5.5-9.5-11c.75-2.49,1.08-7.22,2.5-7Z"/>
        </g>
      </g>
      <g>
        <g>
          <path class="cls-22" d="M224.53,453.94l-8,4s-10.68-36.93-12.91-38.84c-.83-.71-.39.94-1.92.19-.03-.12.03-.26,0-.38-.57-2.44-1.3-4.88-1.92-7.31-.46-1.81-1.17-31.11-2.24-32.65,7,10,27,75,27,75Z"/>
          <path class="cls-22" d="M216.53,457.94c-4.23,0-11.77,5-16,5,2.62-13.4,1.21-30.56-1.83-43.65,1.53.75,5.01-3.06,5.83-2.35,2.23,1.91,11.22,35.31,12,41Z"/>
        </g>
        <g>
          <path class="cls-63" d="M87.17,419.69c-.54,14.3-1.1,28.94-.23,43.25-2.94,0-11.47-3.99-14.42-4-.96-19.38,5.69-46.37,7.85-64.98.77,3.37,6.84,6.77,7.24,8.49-.26,5.62-1.13,11.9-.45,17.24Z"/>
          <path class="cls-22" d="M88.53,395.06c-.23,2.34-.3,4.75-.45,7.12-.37,5.86-.68,11.62-.91,17.52-.68-5.35.19-11.62.45-17.24-.4-1.72-6.48-5.12-7.24-8.49.23-2.02.63-4.03.91-6.02,2.63.86,4.85,4.9,7.24,7.12Z"/>
        </g>
        <path class="cls-12" d="M198.7,392.94c.03.22-.03.49,0,.71,3.04,24.21,4.45,44.52,1.83,69.29-5.65,0-10.43,3.99-16.07,4-1.1-18.93-1.1-37.93-1.54-56.92q7.89-8.54,15.78-17.08Z"/>
        <g>
          <path class="cls-12" d="M103.94,408.09c0,2.33.42,4.87.38,7.34-.19,14.52-.92,29.01-1.54,43.5-5.65,0-11.29,0-16.94,0-1.49-13.7-.54-27.71.38-41.41.38-5.65.91-11.16,1.54-16.77q8.08,3.67,16.17,7.34Z"/>
          <path class="cls-57" d="M104.33,400.75c.41,2.39-.39,5.07-.38,7.34q-8.08-3.67-16.17-7.34c.26-2.27.37-4.57.77-6.81,5.1,2.66,10.65,4.16,15.78,6.81Z"/>
        </g>
        <g>
          <path class="cls-63" d="M182.92,436.14c.44,10.27.44,20.55,1.54,30.79-6.03,0-12.9,2-18.93,2.01.1-3.6.61-9.19.45-12.78-.09-2.07-.27-4.1-.38-6.16-.01-.26.01-.51,0-.77,5.54-5.56,15.44-10.27,16.94-14.63.05,1.22.38,1.33.38,1.54Z"/>
          <path class="cls-63" d="M182.77,403.28c-.13,1.83-.67,22.56-.62,24.39.07,2.33.3,4.6.38,6.93-1.49,4.36-11.39,9.07-16.94,14.63-.23-4.24-1.6-36.06-2.07-40.29,8.47-7.12,10.77,1.47,19.23-5.65Z"/>
        </g>
        <path class="cls-12" d="M166.37,458.93c-6.41,0-12.83,0-19.24,0-.2-1.76.38-1.46.38-1.54,7.73.04,13.33-3.86,18.48-9.24.16,3.59.49,7.18.38,10.78Z"/>
        <path class="cls-63" d="M111.49,466.94c-5.9,0-12.06-2-17.96-2,.62-15.19,2.6-36.38,2.79-51.6,1.52.33.31-3.74.96-6.59q7.79,10.85,15.59,21.7c-.19,15.24-1.19,23.24-1.38,38.49Z"/>
        <path class="cls-22" d="M113.65,422.13c-.06,1.45.09,2.95,0,4.39-.67,10.82-.11,21.6-.77,32.41-.13,0-.26,0-.38,0q.19-15.24.38-30.49-7.79-10.85-15.59-21.7c-.65,2.85.55,6.92-.96,6.59.03-2.59-.38-5.25-.38-7.69,0-2.37.79-5.19.38-7.69.2.11.55-.56,4.04,1.65l10.58,19.5c.7,1.39,1.8,1.98,2.69,3.02Z"/>
      </g>
    </g>
  </g>
</svg>