<?xml version="1.0" encoding="UTF-8"?>
<svg id="Layer_2" data-name="Layer 2" xmlns="http://www.w3.org/2000/svg" viewBox="0 0 389.66 572.32"><defs>
    <style>
      .cls-1 {
        fill: #29574f;
      }

      .cls-2 {
        fill: none;
      }

      .cls-3 {
        fill: #72bfb3;
      }

      .cls-4 {
        fill: #c45f41;
      }

      .cls-5 {
        fill: #03030a;
      }

      .cls-6 {
        fill: #3a310b;
      }

      .cls-7 {
        fill: #8e3226;
      }

      .cls-8 {
        fill: #96cbc0;
      }

      .cls-9 {
        fill: #f7b750;
      }

      .cls-10 {
        fill: #66bcb8;
      }

      .cls-11 {
        fill: #281a26;
      }

      .cls-12 {
        fill: #f0935d;
      }

      .cls-13 {
        fill: #bdeded;
      }

      .cls-14 {
        fill: #c12e4b;
      }

      .cls-15 {
        fill: #f8ae89;
      }

      .cls-16 {
        fill: #958a8d;
      }

      .cls-17 {
        fill: #fbfbfc;
      }

      .cls-18 {
        fill: #a9a1a0;
      }

      .cls-19 {
        fill: #fff;
      }

      .cls-20 {
        fill: #cc5637;
      }

      .cls-21 {
        fill: #fcf8e9;
      }

      .cls-22 {
        fill: #ac4a30;
      }

      .cls-23 {
        fill: #c9892d;
      }

      .cls-24 {
        fill: #e6794d;
      }

      .cls-25 {
        fill: #7aebe9;
      }

      .cls-26 {
        fill: #27151d;
      }

      .cls-27 {
        fill: #040106;
      }

      .cls-28 {
        opacity: .2;
      }

      .cls-29 {
        fill: #268c8c;
      }

      .cls-30 {
        fill: #c392c2;
      }

      .cls-31 {
        fill: #bf5a41;
      }

      .cls-32 {
        fill: #661b6a;
      }

      .cls-33 {
        fill: #17ae9d;
      }

      .cls-34 {
        fill: #d7643c;
      }

      .cls-35 {
        fill: #4d3340;
      }

      .cls-36 {
        fill: #95409b;
      }

      .cls-37 {
        fill: #29999b;
      }

      .cls-38 {
        fill: #320532;
      }

      .cls-39 {
        fill: #1d121b;
      }

      .cls-40 {
        fill: #382e41;
      }

      .cls-41 {
        fill: #b175a7;
      }
    </style>
  </defs>
  <g id="TECHNOLOGY">
    <g>
      <g>
        <g>
          <path class="cls-20" d="M266.4,281.36c-9.09,11.59-21.81,20.53-36,24.5-2.36-3.08-5.37-5.97-6-10-.45-2.9.19-7.89.5-11,.07-.73.15-4.25.5-4.86,12.44,2.19,27.65-1.76,38.5-7.64,1.21,2.88,1.66,6.03,2.5,9Z"/>
          <path class="cls-24" d="M268.4,286.86c.39,2.05.72,4.18,1,6.25-7.26,8.67-18.31,15.14-29,18.75-2.48.84-1.89.97-2,1-.74.17-.36.73-2.5-.5-.28-.16-1.31-.83-1.5-1-.26-.22-3.39-4.71-4-5.5,14.19-3.97,26.91-12.91,36-24.5.67,2.38,1.94,5.17,2,5.5Z"/>
        </g>
        <g>
          <path class="cls-12" d="M297.17,183.85s-6.44-19.74-10.08-25.56c-4.81-7.69-19.05-20.76-27.72-23.4-8.71-2.65-26.18-2.64-36.4-.73,0,0-32.82,1.73-41.14,39.7-.94,4.3,3.47,25.35-1.5,42.9-.09.32-.14.65-.14.98v7.55c2.59,9.21,3.89,21.19,12.53,31.65,7.61,9.21,31.57,23.86,35.88,24.27,2.26.08,9.06-1.41,19.05-5.59,9.16-3.84,22.2-12.35,27.89-20.52,2.79-4.01,12.29-22.94,10.07-25.68,7.3-3.43,16.67-4.19,16.67-15.97,0-5.05-2.94-19.94-5.1-29.59ZM196.79,232.05c1.03.09,2.08.13,3.16.11-1.03.04-2.09,0-3.16-.11ZM253.59,229.03c.99.49,2.08.94,3.27,1.35-1.16-.38-2.25-.83-3.27-1.35Z"/>
          <path class="cls-34" d="M302.06,213.27c.06-.09,1.34-1.31-1.39-12.61-.8-3.84-2.6-12.74-2.6-12.74,0,0-.45-.64-1.11-1.37-.54-.59-1.23-1.23-1.8-1.71-7.14-5.96-20.51-5.64-24.33-5.66-8.48-.09-16.76,1.17-20.81,6.02s-3.97,13.78-2.53,24.56c.31,1.3,1.12,4,1.08,3.36-.1-1.67,1.06-6.72,2.37-9.57,2.25-4.92,4.62-8.13,10.93-10.58,15.64-6.05,31.83,20.59,32.55,21.79-1.8,6.6-5.1,12.32-11.07,14.7,3.89.67-5.67,21.3-8.64,25.56-5.68,8.17-18.56,15.97-27.72,19.8-9.98,4.18-16.68,6.28-18.99,6.23.17.06.07.12.64.16,15.33,1.15,24.21-2.52,37.43-10,19.85-11.23,20.3-13.57,30.24-32.4,1.1-2.09,1.09-4.53,2.88-6.84.38-.49,9.73-1.54.72-7.92,13.28-19.13,20.35-3.89,12.96,6.48-6.8,9.55-18.62-4.15-10.8,11.88,25.69,5.04,20.19-57.31,0-29.16Z"/>
          <path class="cls-22" d="M302.06,242.43c-2.56-.5-3.24-2.94-5.76-3.6,1.1-2.09,1.09-4.53,2.88-6.84.38-.49,9.73-1.54.72-7.92,13.28-19.13,20.35-3.89,12.96,6.48-6.8,9.55-18.62-4.15-10.8,11.88Z"/>
        </g>
        <path class="cls-15" d="M180.48,224.02c3.5,16.27,5.03,23.58,11.87,32.34,4.4,5.63,24.09,20.16,35.68,24.72-5.49-.09-34.05-16.97-40.23-24.75-6.68-8.4-8.31-18.44-8.47-25.05-.04-1.66.29-4.97.48-6.62.08-.68.39-2.73.39-2.73,0,0,.18,1.59.29,2.09Z"/>
        <path class="cls-24" d="M189.72,186.98c-1.88.06,1.36-4.44,2.23-6.28,1.06-2.92,1.12-6.36,2-9.25,6.04-19.79,23.82-27.78,10.5-24.25-10.51,2.79-20.82,35.08-21.94,44.67,0,.01.18,6.15.18,6.15,2.51-3.22,3.62-4.22,7.97-6.63,8.46-4.67,18.39-1.27,22.4,9.26.04.12,2.35,10.41,2.39,11.24.02.42.04-9.38.19-10.88-.96-13.22-15.39-14.39-25.92-14.04Z"/>
        <g>
          <path class="cls-24" d="M180.21,222.32c-10.31,3.67-5.4,11.06-2.85,18.16-12.38-9.8-7.4-25.37-2.57-25.81.6-.05,2.57-.04,3.82.89,1.15.86,1.63,1.73,1.63,1.73,0,0,0,3.37-.04,5.02Z"/>
          <path class="cls-34" d="M178.08,217.44c.86-.04,2.13,1.32,2.1,4.07-.03,2.31-.95,7.35-.78,11.64,0,0,.48,5.68,1.6,9.55-1.36-.54-2.49-1.3-3.64-2.21-2.55-7.1-9.59-19.37.72-23.04Z"/>
        </g>
        <g>
          <path class="cls-11" d="M373.28,235.92c-.14-.13-.31-.32-.48-.48-.31-18.33-12.21-12.48-19.34-17.19-4.6-3.04-7.83-19.38,14.08-18.38,5.56,7.95-13.96,6.35-11.94,10.5.48.99,15.1,6.07,17.19,8.59,3,3.63,2.98,13.91.48,16.95Z"/>
          <path class="cls-39" d="M126.46,219.69c-.77,1.33-4.97,3.92-3.34,11.94-5.77-2.09-14.97-2.67-13.84-10.74,1.81-13.02,15.73-1.17,17.19-1.19Z"/>
          <path class="cls-39" d="M138.87,202.02l.95,8.83q-6.68,4.42-13.37,8.83c.54-.92,2.18-2.06,2.39-2.63,2-5.39-4.36-9.36-3.82-14.8q6.92-.12,13.84-.24Z"/>
          <path class="cls-39" d="M380.44,167.17c-4.37-2.21-5.02-1.55-9.55-2.63,2.76-7.37,4.11-10.61,0-17.43-.52-.4-.64-.5,0,0-3.84-6.37-10.77-9.34-17.9-6.21-2.75-.54.94-5.86-9.79-11.7,8.37-15.47-11.31-28.07-21.24-13.61-17.61-19.8-42.25-28.58-66.84-15.28-16.73-18.96-48.35-16.68-65.64.24-1.68,1.64.06,3.99-12.65,9.31-1.97.09-9.93-10.8-21.24-1.43,0,0,0,0,0,0-2.89,2.39-5.59,6.4-5.73,10.26-.03.76,1.65,8.46,1.91,8.83-1.18.2-2.31.87-3.34,1.43-7.68,4.19-5.16,3.47-8.83,10.98-18.35-1.5-25.18,16.33-12.17,28.88-2.57.83-5.11,1.11-7.64,2.15-1.99.82-3.19,1.37-4.77,2.86-9.07,8.54-4.83,20.54,5.73,25.06.64,1.79-3.89,4.36,0,13.37-18.05-2.07-24.49,18.34-7.64,26.26-3.6,8.83,2.84,20.44,12.65,16.95,7.94,7.76-1.98,7.84-.24,18.86,1.36,8.6,13.51,14.07,20.77,8.83,10.25,4.27,5.3,4.94,8.83,9.79,4.51,6.19,15.68,5.61,20.77.24,1.38.31.67,13.47,19.1,10.98,4.44-7.84,5.94-2.38,12.89-5.73,5.18-2.5,5.11-9.42,10.26-4.77,2.74-3.89,3.15-8.08,6.93-11.28.07-.7.14-1.4.21-1.99-6.38-2.21-25.4-13.42-31.26-18.43-9.34-7.98-13.33-20.37-13.01-19.3-1.36-.54-2.49-1.3-3.64-2.21-12.38-9.8-7.4-25.37-2.57-25.81.6-.05,2.57-.04,3.82.89,1.13.85,1.61,1.7,1.63,1.73.9-3.64,1.92-8.38,2.1-11.67.91-5.89.92-15.31.93-15.49.51-7.83,10.9-38.47,20.04-42.53,5.38-2.39,10.25,1.5,16.95-8.12,21.88,12.34,30.33-2.24,31.99-2.86,6.58-2.47,8.32,5.19,8.83,5.49,13.69,7.91,27,21.42,30.54,26.98.47.73,2.46,5.84,3.64,9.46,3.7,11.31,6.79,34.73,6.79,34.73,0,0,3.9-5.64,7.37-6.78-.07-.05,3.66-1.35,6.46,1.78,5.22,5.85,4.58,25.77-3.74,31.97-4.96,3.7-10.25,2.94-13.43,0-1.22-1.12-2.42-1.4-2.42-1.4,0,0-.35.73-1,1.91-1.55,2.8-5.42,11.17-9.33,15.71-7.98,9.27-15.7,11.85-22.05,15.97.87,3.22,1.58,5.68,2.38,8.52.64,2.27,1.85,4.93,1.91,5.25,5.45.54,7.16,3.77,10.08,5.58.54.34,3.43.86,4.54.95,6.7,13.18,24.45,10.16,28.64-3.82,9.21,9.72,23.29,11.63,27.21-3.82,7.01.07,11.98.74,16.71-5.25,17.53,1.89,24.17-15.7,11.7-27.45q2.98-3.94,5.97-7.88c5.9,1.47,11.45.11,14.56-5.25,3.95-6.8,2.04-13.9-4.3-18.38,1.49-16.72-7.49-16.8-8.12-17.66-2.99-4.15,5.51-3.75,10.03-9.07,6.81-8.02,4.79-22.13-4.77-26.97"/>
          <path class="cls-11" d="M132.67,239.26c-.27.1-1.5,1.75-5.01,2.86-.56-.14-4.42-9.94-4.54-10.5-1.63-8.01,2.57-10.6,3.34-11.94q6.68-4.42,13.37-8.83l-.95-8.83c.1-2.73-8.04-6.86-13.37-10.5-2.1-4.42-1.05-9.85,1.91-13.84,8.45-3.78,19.02-1.63,19.1-7.88,0-.5-2.12-5.75-2.39-9.79-.72-10.74,14.06-12.77,15.28-14.08.5-.54,1.74-5.63,1.91-6.92,1.36-2.12,3.22-3.78,4.77-5.73,2.19-2.75,3.56-.4,1.91-8.83,15.43-17.14,14.53-10.69,36.04-7.88,3.21-.75,3.19-14.58,10.03-15.75,9.57-1.64,12.02,10.31,8.12,13.37-3.67,2.88-3.2-2.58-6.68-7.64-3.78,22.62-17.69,15.12-34.85,12.89-8.46,5.82-4.47,10.16-5.49,13.13-.28.81-7.63,7.08-8.12,8.12-3,6.43,5.2,5.22-16.71,16.71-2.36,5.97,9.05,16.27-6.92,23.15-4.57,1.97-16.64,2.16-13.37,6.21,2.66,3.28,15.27,6.03,15.99,17.43,1.43,22.72-26.97,10.24-13.37,35.09Z"/>
          <g>
            <g>
              <path class="cls-11" d="M267.54,102.24c12.02-1.13,20.75,19.49,43.44,11.94,11.03,14.64,20.32,10.14,15.52,27.93,2.48,1.22,11.9,9.52,12.65,9.79,5.27,1.89,20.78-2.81,15.99,16.47,4.52,1.56,20.47,7.85,22.44,11.46,2.26,4.16.7,12.42-4.06,14.08-11.08,3.87-.82-9.16-1.19-10.74-11.93-10.93-28.55-.8-21.96-23.39q-6.33-.6-12.65-1.19c-8.03-10.55-12.63-7.74-15.52-11.22-7.65-9.25,11.94-21.6-18.86-17.43l-2.39-8.12c-11.72.38-21.94-6.33-31.03-12.89-4.05-.29-16.38,7.73-13.61-.72.59-1.81,9.15-5.77,11.22-5.97Z"/>
              <path class="cls-38" d="M312.41,119.91c2.95-.22-2.46,2.06-3.34,2.39-11.48,4.18-3.32-1.9,3.34-2.39Z"/>
            </g>
            <path class="cls-2" d="M214.07,100.81c-6.84,1.17-6.82,15.01-10.03,15.75-21.51-2.82-20.61-9.27-36.04,7.88,1.65,8.43.28,6.08-1.91,8.83-1.55,1.95-3.41,3.61-4.77,5.73h0c-.17,1.29-1.41,6.38-1.91,6.92-1.22,1.32-16,3.34-15.28,14.08.27,4.04,2.39,9.28,2.39,9.79-.07,6.25-10.64,4.1-19.1,7.88-2.96,3.99-4.01,9.42-1.91,13.84,5.33,3.64,13.47,7.78,13.37,10.5q-6.92.12-13.84.24c-.54,5.44,5.82,9.41,3.82,14.8-.21.57-1.85,1.7-2.39,2.63-1.46.02-15.38-11.82-17.19,1.19-1.12,8.08,8.08,8.65,13.84,10.74.11.56,3.98,10.36,4.54,10.5,3.52-1.11,4.74-2.77,5.01-2.86-13.6-24.85,14.8-12.37,13.37-35.09-.72-11.4-13.34-14.14-15.99-17.43-3.27-4.05,8.8-4.24,13.37-6.21,15.97-6.89,4.57-17.19,6.92-23.15,21.91-11.49,13.71-10.28,16.71-16.71.48-1.03,7.84-7.31,8.12-8.12,1.03-2.97-2.97-7.31,5.49-13.13,17.16,2.23,31.07,9.73,34.85-12.89,3.48,5.05,3.01,10.51,6.68,7.64,3.9-3.06,1.45-15.01-8.12-13.37Z"/>
            <path class="cls-2" d="M355.62,210.38c-2.02-4.15,17.5-2.56,11.94-10.5-21.91-.99-18.69,15.34-14.08,18.38,7.12,4.71,19.02-1.14,19.34,17.19.17.16.33.34.48.48,2.5-3.03,2.52-13.32-.48-16.95-2.09-2.52-16.71-7.61-17.19-8.59Z"/>
          </g>
        </g>
        <g>
          <path class="cls-21" d="M214.54,208.7c-.5-1.47-1.36-5.17-5.73-9.43-2.82-2.75-5.81-4.38-7.96-4.74-1.44-.2-2.74-.16-3.92.02-2.25-.1-5.68,1.45-7.92,3.23-5.87,4.68-4.57,12.46,1.08,15.84.25.15.53.29.82.43,3.24,1.76,5.75,1.8,9.2,1.91,0,0,6.24.41,14.03-2.74.47-.19,1.41-.71,1.41-.71,0,0-.22-2.03-1.01-3.82Z"/>
          <path d="M183.16,194.56c2.64,2.22,6.39-6.16,17.05-5.19,8.72.79,15.56,12.06,15.24,22.28-1.16-2.08-2.23-5.18-2.57-5.54-.05-.06-.18.02-1.29-.86,1.16-4.03-6.96-10.25-10.73-10.73-6.55-.85-10.77,2.43-13.74,7.73-.14.25-.58,1.17-.86,2.15-1.13,3.97,1.02,7.74,4.65,9.65-.74,0-3.81-1.99-4.23-2.35-4.02-3.43-7.61-12.5-7.56-18.15-.1-1.1.31-4.58.83-3.19.99,2.65,2.45,3.56,3.2,4.2Z"/>
          <path d="M199.87,207.42c1.9-.49,2.53-3.14,2.21-4.87,11.2-1.45,3.91,16.24-2.21,4.87Z"/>
          <path class="cls-6" d="M212.89,207.08c0-.2-.04-.38-.05-.58,0-.14,0-.27,0-.41,0,0-.02-.02-.04-.02-.84-6.6-8.39-11.1-11.98-11.57-.36,1.44-2.68,2.49-3.43,3.86-.15.27-.81,2.12,0,2.15,2.03-.08,2.65.33,3.43.43.07.43,1.27,1.61,1.29,1.72,10.87-1.4,3.79,15.75-2.15,4.72-2.27.58-4.3-1.57-4.72-.64.81,3.73,1.27,6.93,4.72,8.8,1.25.67,3.25.49,7.72-.31,3.74-.67,4.99-4.57,5.14-8.2.02.01.05.04.06.05Z"/>
          <path class="cls-21" d="M264.68,197.67c.9-.18,3.78-.53,5.05-.47,2.94.16,5.9,2.18,5.9,2.18,7.28,5.07,10.16,9.31,3.22,16.31-.69.31-2.85,1.25-3.01,1.29-5.74,1.41-21.22,1.35-27.05-2-.02,0-.03-.02-.05-.03-.3-.17-.26-2.91.05-3.98,3.45-6.78,7.95-12.16,15.89-13.31Z"/>
          <g>
            <path d="M284.86,201.54c2.17,1.76,3.7.7,5.24-1.17.9-.99.81-1.56,1.05-1.23.27.39.27,1.84-.33,3.75-1.37,4.31-5.27,9.83-11.96,12.82,6.94-7.01,4.06-11.25-3.22-16.31,0,0-1.92-1.42-5.58-2.15-1.82-.36-3.59.17-5.37.43-7.94,1.15-12.44,6.53-15.89,13.31,1.51-13.76,12.07-22.65,26.4-17.6,5.73,2.02,8.22,6.99,9.66,8.16Z"/>
            <path class="cls-6" d="M277.99,205.83c-.19-2.4-3.14-7.78-7.94-8.59-1.83-.31-3.59.17-5.37.43-4.27,6.01-2.22,3.07,1.5,4.29.41.13,1.13.82,1.5,1.29.24.3,1.52.19,3.86.86,4.97,5.8-3.02,11.68-6.44,4.72-1.91.28-4.19-1.74-4.29-1.5.28,14.31,18.69,12.68,17.17-1.5Z"/>
            <path d="M271.55,204.11c4.97,5.8-3.02,11.68-6.44,4.72,2.32-.34,3.84-3.51,2.58-5.58,1.66-.19,2.83-.01,3.86.86Z"/>
          </g>
        </g>
        <path class="cls-4" d="M309.02,237.66l1,2c1,2-3,3-3,3-1.16.37-2,1-3,0l1-5c1-2,3.66-.46,4,0Z"/>
        <g>
          <path class="cls-13" d="M310.02,245.66c0-2,0-5-1-6s-1.79-2.03-3-1c-.85.72-1.85,4.6-2,7-.05.8.36,3.41,1.05,3.95,1.97,1.52,3.28,1.28,3.96.21,1.99-3.16.99-2.77.99-4.16Z"/>
          <path class="cls-25" d="M310.57,244.86c-.22-2.79-.45-4.83-1.55-5.2-3-1-1,3-4,5-1.18.78-.56,3.32,0,4,3.39,4.13,5.76-1.04,5.55-3.8Z"/>
        </g>
        <g>
          <path d="M181.76,180.48c-.32-.04-.57-.26-.4-.54,1.23-1.98,4.66-7.32,6.9-8.78,2.26-1.48,9.41-4.96,14.55-3.99,4.03.76,4.14,4.49,4.17,6.11,0,.03-.02.06-.05.08-2.65,1.53-4.4.39-8.93.03-1.75-.14-3.24-.01-4.87.46-2.57.74-4.87,2.4-7.04,4.87-.66.75-2.7,1.96-4.34,1.76Z"/>
          <path d="M281.9,173.3c.11.55,2.3,3.22,2.88,5.4l-1.08,1.08c-14.83-10.29-26.1-.3-29.16-7.2,2.55-2.21,3.17-11.87,27.36.72Z"/>
        </g>
        <g>
          <path class="cls-20" d="M240.86,230.01c1.79,8-20.24,11.31-20.88,2.16,5.6,5.57,14.97,2.25,20.88-2.16Z"/>
          <g>
            <path class="cls-14" d="M259.23,236.49c2.64.26,5.03,1.58,6.12,3.96-8.51.6-12.2,25.11-29.16,27.72-25.18,3.88-14.91-25.59-27.72-19.8.7-9.31,39.85-.3,54.01-8.64l-3.24-3.24Z"/>
            <path class="cls-17" d="M254.19,245.13c4.44-.62-4.85,8.34-6.48,9.36-9.07,5.7-30.73,7.42-30.24-4.32,15.16,3.57,34.64-4.75,36.73-5.04Z"/>
          </g>
          <path class="cls-15" d="M224.66,226.41c2.21,1.67,5.3,2.24,5.4,2.52,1.58,4.52-6.69,4.93-5.4-2.52Z"/>
        </g>
        <g>
          <g>
            <path class="cls-29" d="M317.83,196.09c-.04-2.49.95-4.46.17-6.19-.49-1.08-10.1-12.54-12.43-14.05-.52.49-4.14.91-4.65,1.4,2.41,10.95-1.16,18.6.26,30.08.35,2.87.52,2.87.91,6.12,6.83-10.45,12.51-7.74,14.89-3.61-.75-1.09.89-10.88.85-13.75Z"/>
            <g>
              <path class="cls-37" d="M303.66,204.45l-1.45-.07c-1.41-.07-2.52-1.28-2.45-2.69l1.22-33.91c.07-1.41,1.28-2.52,2.69-2.45l1.45.07c1.41.07,2.52,1.28,2.45,2.69l-1.22,33.91c-.07,1.41-1.28,2.52-2.69,2.45Z"/>
              <path class="cls-37" d="M303.67,165.38c-75.25-14.54-117.12-.77-143.64,9.22-1.76-.1-3.13,4.32-3.15,4.99-.56,14.57-2.7,47.05,33.27,54.97,23.72,5.05,28.78-6.34,34.63-10.34,1.31-.9,1.89-1.56,3.39-1.47,2.61.15,4.59,1.91,5.57,2.84,8.57,8.05,19.27,15.87,43.49,8.2,2.3-.73,17.66-5.99,25.15-21.04,2.38-4.79,2.12-9,3.12-15.84.47-.05-.9-22.67,1.58-25.62.93-1.11.29-5.19-3.4-5.9Z"/>
              <g>
                <path class="cls-39" d="M295.19,170.6c-41.24-15.75-123.02,2.48-130.36,7.57-2.31,1.61-4.11,2.44-4.92,5.14-5.37,17.7,1.9,45.3,30.74,48.07,12.77,1.23,25.33-2.72,30.46-9.09,12.69-10.67,19.16,11.36,32.1,11.64,43.83.94,55.19-32.35,46.87-58.97-.75-2.39-2.55-3.47-4.89-4.36Z"/>
                <path class="cls-11" d="M298.1,203.83c4.3-9.93,4.43-21.65,1.97-28.86-.86-2.54-2.55-3.47-4.89-4.36-34.19-13.01-100.35-13.03-130.36,7.57-2.6,1.79-4.13,2.44-4.92,5.14-3.51,11.98-3.67,32.26,15.37,43.38,15.15-10.98,41.15-21.6,69.68-24.69,19.38-2.1,38.08-1.25,53.15,1.82Z"/>
              </g>
            </g>
          </g>
          <g class="cls-28">
            <path class="cls-19" d="M183.76,187.92c6.39-4.61,13.86-7.86,21.44-9.95,2.27-.62,4.56-1.14,6.88-1.54,2.13-.37,1.49-3.66-.64-3.29-8.39,1.46-16.65,4.35-24.07,8.53-2.01,1.13-3.95,2.38-5.82,3.73-.73.53-.71,1.73-.16,2.37.64.73,1.63.69,2.37.16h0Z"/>
          </g>
          <g class="cls-28">
            <path class="cls-19" d="M196.6,189.37c4.78-3.15,10.37-5.05,16.02-5.81.9-.12,1.49-1.11,1.33-1.96-.18-.93-1.06-1.45-1.96-1.33-5.91.79-11.88,2.8-16.87,6.1-.76.5-1.2,1.36-.76,2.25.36.73,1.49,1.26,2.25.76h0Z"/>
          </g>
        </g>
      </g>
      <g>
        <g>
          <g>
            <g>
              <g>
                <g>
                  <path class="cls-9" d="M270.24,553.9c-17.25,1.58-91.19-26.61-87.03-9.82.25,1.01,4.19,17.73,8,21,7,6,43,8,67,7,14.33,0,54.02-11.14,55.03-16.18.97-4.82,1-6,2-12-14.1,5.2-30.06,8.63-45,10Z"/>
                  <path class="cls-23" d="M243.53,572.32l-1.33-10.67s2.67,10.67,4,10.67h-2.67Z"/>
                </g>
                <g>
                  <path class="cls-36" d="M308.33,404.98s.57-6.57.61-6.82c0,0,0-6,0-6,9,2,12,1,12,1,0,0,14.97-17.35,16.39-21.18.78-2.09,5-16,3.64-22.19-2.22-8.65-5.33-16.92-11.1-23.73-11.06-13.05-37.58-12.49-46.58-18.49-2.06,4.39-29.62,28.25-35.92,24.24.77,7.01-20.56,1.56-20.62.89-.27-3.32-5.87-13.42-6.8-17.54-.91-4.02-.07-8.79-2.46-7.77-5.5,2.34-13.45,3.2-19.92,3.64-7.49.57-13.38,1.7-20.44,5.78-10.18,5.89-20.87,23.02-18.25,28.25,3.46,6.92,12.46,17.92,19.46,23.92,1.88,1.61,3.84-.93,4.94-2.87-3.33,7.68-9.15,19.78-7.94,29.87,1.37,11.43,6.94,17.95,11,21,2.73,2.05,9,4,9,4,0,0,5.05,5.22-1,15-2.44,3.95-9.95,14.22-18.96,37.33-4.86,19.13-8.8,38.44-11.5,58-.3,2.14-.09,4.45-1,6.5,14.74,9.85,38.13,13.18,55.5,15,17.19,1.8,34.75,2.58,52,1,14.94-1.36,30.9-4.79,45-10,4.67-1.72,10.18-4.03,14.5-6.5-2.17-15.61-5.7-30.88-10-46-3.23-11.34-6.45-22.5-12-33-7.44-5.87-5.13-31.09-3.95-43.02l4.42-10.3Z"/>
                  <path class="cls-32" d="M304.33,408.98c.04.06.06.13.09.21-.01-.17-.04-.24-.09-.21Z"/>
                  <path class="cls-32" d="M304.42,409.19c.02.22,0,.59-.03,1.11.11-.46.12-.84.03-1.11Z"/>
                </g>
                <path class="cls-32" d="M307.73,456.4c-4.87-6.97-4.71-26.63-3.53-39.53,2.34-3.03,4.3-6.79,5.03-10.22.97-3.58.43-15.82-2.75-24.75-1.58.23,4.64,12.67-.78,23.88-2.11,2.97-4.93,6.89-9.43,9.94-2.21,1.34-4.8,2.56-7.86,3.61-5.94,1.64-13.75,1.73-24.21-1.26.64.18,35.3,40.12,43,56,7.48,15.45,16.24,62.78,15,67,.46-.1,6.78-3.39,10-5,2-1-2.74-48.58-24.47-79.67Z"/>
                <path class="cls-32" d="M201.24,422.4c5,0,10-3,10-3-6,3-16.04,1.67-16.04,1.67,0,0,1.12,1.84,1,5-.12,3.34-1.54,8.12-3.96,12.33-4,6.95-7.14,12.93-9.58,17.88-2.76,4.78-4.86,10.17-6.12,13.6-.92,2.33-1.31,3.52-1.31,3.52-4.86,19.13-9.34,45.12-12.04,64.67,6.62,4.02,7,4,7,4,0,0-3.25-21.94,2.02-42.41,7.46-28.98,19.64-41.24,22.98-46.59,15-24,6.04-30.67,6.04-30.67Z"/>
              </g>
              <path class="cls-32" d="M317.94,502.16c-4.39-14.26-6.61-17.74-11-32-4.94,8.36-10.7,11.75-19.47,13.41-4.94.93,12.74-31.83,4.47-36.41-22.61-12.51-78.07-8.61-92-10-3.57-.36,6.11,47,2.57,46.41-4.51,1.69-9.45,1.79-14.16.99-3.72-.63-10.6-3.62-13.18-6.45-2.38,4.66-2.56,10.18-3.91,15.13-.46,1.69-1.17,5.37-1.32,5.92,2.21,6.59,9.09,13.99,15,18,7.74,5.24,16.91,8.86,26.79,11.13,4.66,1.07,12.3-16.62,17.21-16.13,15.05,1.52,20.52,2.83,35,0,3.2-.63,13.89,14.74,16.93,13.95,7.32-1.9,14.12-4.26,20.07-6.95,4.87-2.52,19.4-9.35,17-17Z"/>
            </g>
            <path class="cls-24" d="M269.48,293.17c-.32-2.07-.61-4.2-1-6.25-.06-.33-1.33-3.12-2-5.5-7.64,9.74-17.84,17.58-29.31,22.21-5.3-4.57-13.33-12.12-12.69-14.4-.97,3.45-1.64,19.43-4.54,26.94-4.42,11.45,10.11,17,17,17,18,0,30.53-9.24,30-12-.4-.73,1.93-2.24.75-3.48.8-.33,1.55-.82,2.25-1.52.92-.93,0-20-.46-22.99Z"/>
            <g>
              <path class="cls-30" d="M245.64,329.8c-11.72,0-24.24-5.49-24.7-16.65-.1-2.55-.73-8.02-.73-8.02,0,0-1.61,2.06-7.21,3.51-2,.52-8.05,1.51-8.05,1.51,3.06,19.28,22.01,35,40.7,35s37.14-17.06,40.2-36.34c0,0-2.56-1.55-6-4-1.95-1.39-5.86-7.56-5.86-7.56,0,0-2.61,9.84-4.04,12.9-3.3,7.08-12.58,19.65-24.3,19.65Z"/>
              <path class="cls-41" d="M209.82,318.27c3.08.27,6.14-.31,8.96-1.54.72-.31.94-1.43.54-2.05-.48-.75-1.28-.87-2.05-.54-.16.07-.18.08-.05.02-.09.04-.18.07-.27.11-.14.05-.28.1-.41.15-.32.12-.65.22-.98.32-.64.18-1.29.33-1.94.44-.06,0-.55.08-.26.04-.15.02-.29.03-.44.05-.34.03-.69.06-1.03.07-.69.02-1.38,0-2.06-.06-.78-.07-1.53.74-1.5,1.5.04.87.66,1.43,1.5,1.5h0Z"/>
              <path class="cls-41" d="M217.01,327.95c1.85-.26,3.68-1.32,4.83-2.8.26-.33.44-.63.44-1.06,0-.37-.16-.81-.44-1.06s-.66-.46-1.06-.44c-.37.02-.82.13-1.06.44-.33.43-.72.81-1.15,1.14l.3-.23c-.43.33-.9.6-1.4.82l.36-.15c-.52.22-1.06.37-1.62.45-.34.05-.73.4-.9.69-.19.32-.27.8-.15,1.16s.34.71.69.9l.36.15c.27.07.53.07.8,0h0Z"/>
              <path class="cls-41" d="M225.97,335.85c.88-1.64,1.85-3.23,2.9-4.76.44-.65.14-1.69-.54-2.05-.76-.4-1.58-.15-2.05.54-1.05,1.54-2.02,3.12-2.9,4.76-.37.69-.19,1.67.54,2.05s1.65.2,2.05-.54h0Z"/>
              <path class="cls-41" d="M238.72,340.52c-.02-1.21.02-2.43.14-3.63.03-.31.07-.61.11-.92-.04.27.01-.09.03-.17.02-.14.04-.28.07-.42.1-.61.22-1.22.36-1.82.17-.76-.23-1.66-1.05-1.85-.76-.17-1.66.23-1.85,1.05-.57,2.54-.85,5.15-.8,7.76.01.78.68,1.54,1.5,1.5s1.52-.66,1.5-1.5h0Z"/>
              <path class="cls-41" d="M253.09,341.36c.13-2.54.03-5.09-.3-7.62-.06-.41-.13-.75-.44-1.06-.26-.26-.69-.46-1.06-.44-.72.03-1.61.67-1.5,1.5.34,2.53.44,5.07.3,7.62-.04.78.72,1.53,1.5,1.5.85-.04,1.46-.66,1.5-1.5h0Z"/>
              <path class="cls-41" d="M266.24,335.2c-.18-.2-.35-.41-.52-.62-.1-.12-.19-.24-.28-.35-.03-.03-.17-.22-.04-.05s0-.01-.04-.05c-.33-.44-.65-.9-.96-1.36-.61-.93-1.16-1.89-1.65-2.88-.35-.7-1.4-.96-2.05-.54-.72.47-.91,1.3-.54,2.05,1.06,2.14,2.4,4.11,3.96,5.92.51.6,1.6.57,2.12,0,.58-.64.55-1.49,0-2.12h0Z"/>
              <path class="cls-41" d="M273.15,326.54c-.3-.05-.59-.12-.88-.22-.14-.04-.27-.1-.41-.14-.27-.1.31.14.07.03-.07-.03-.14-.07-.22-.1-.27-.13-.54-.28-.79-.45-.12-.08-.24-.16-.36-.25-.24-.17.28.23.05.04-.06-.05-.12-.1-.18-.15-.22-.19-.43-.39-.62-.61-.11-.12-.2-.24-.31-.36.33.38-.02-.03-.09-.14-.16-.24-.31-.49-.44-.75-.04-.07-.07-.14-.1-.21-.05-.11-.1-.34.02.07-.05-.15-.11-.3-.16-.45-.25-.74-1.05-1.31-1.85-1.05-.74.24-1.31,1.05-1.05,1.85.96,2.89,3.49,5.25,6.52,5.79.41.07.79.06,1.16-.15.31-.18.61-.54.69-.9.17-.73-.22-1.7-1.05-1.85h0Z"/>
              <path class="cls-41" d="M278.43,317.89c-.26,0-.57-.08-.82-.05.06,0,.34.05.13.02-.06-.01-.12-.02-.18-.03-.14-.02-.27-.05-.4-.09-.27-.06-.53-.14-.79-.24-.06-.02-.12-.04-.17-.06-.22-.08-.05-.03.06.03-.12-.06-.25-.11-.37-.17-.23-.12-.46-.24-.68-.38-.12-.07-.23-.15-.34-.23-.05-.04-.1-.07-.15-.11-.15-.11.25.21.05.04-.42-.36-.81-.74-1.16-1.18-.22-.28-.72-.44-1.06-.44-.37,0-.81.16-1.06.44s-.46.66-.44,1.06c.02.42.18.73.44,1.06,1.65,2.09,4.32,3.31,6.96,3.34.78,0,1.54-.7,1.5-1.5s-.66-1.49-1.5-1.5h0Z"/>
              <path class="cls-41" d="M280.49,311.23c-.3-.09-.59-.2-.88-.31-.17-.07.31.14.07.03-.07-.03-.13-.06-.2-.09-.15-.07-.29-.14-.44-.22-.26-.14-.52-.29-.76-.45-.12-.08-.25-.17-.37-.25-.07-.05-.14-.11-.21-.16.1.07.24.19.06.04-.47-.38-.91-.81-1.3-1.27-.05-.06-.1-.11-.14-.17-.15-.18-.03-.04.04.06-.09-.12-.18-.24-.26-.36-.19-.27-.36-.54-.52-.83-.38-.69-1.38-.97-2.05-.54s-.95,1.32-.54,2.05c1.44,2.57,3.89,4.51,6.7,5.37.75.23,1.67-.27,1.85-1.05s-.24-1.6-1.05-1.85h0Z"/>
            </g>
            <g>
              <path class="cls-36" d="M180.6,347.88s-.01-.02-.02-.03c-5.64-8.95,6.8-29.72,18.12-36.92-21.61,1.03-35.05,9.47-36.96,10.4-23.13,11.22-17.55,53.7-33.45,56.31.15,1.23,10.12,8.35,10.74,8.68,6.91,3.7,15.61,5.34,22.9,7.83,10.53,3.6,13,5,13,5,0,0-1.35-6.03,0-5,.57.44-.06-.89.23-2.87,2.95-20.66,8.68-37.37,5.43-43.4Z"/>
              <path class="cls-4" d="M175.31,461.74c-.19-6.64,1.31-8.56,1.95-11.41-4.94,3.79-9.23,8.39-14.4,11.91-6.28,4.27-42.17,23.94-45.65,13.89.93,4.25,1.81,6.04,4.39,9.43,2.6,3.4,3.5,3.22,5.86,5.46,19.74.6,36.05-6.53,48.83-21.83-.1-.36.42-2.22-.98-7.44Z"/>
              <path class="cls-24" d="M293.33,463.22c-4.51.27-9.58.03-14.16,0,2.04-2.42,10.8-3.11,15.87-4.47,4.55-1.22,13.73-6.37,5.37,0-2.19,1.66-4.96,2.66-7.08,4.47Z"/>
              <path class="cls-31" d="M207.53,475.63c-3.77,3.88-7.49,8.64-13.18,8.93-3.72-.63-10.6-3.62-13.18-6.45-1.44-1.58-3.12-5.3-3.91-7.44.1-3.19,3.13,3.2,7.08,5.46,8.23,4.7,15.05,2.08,23.19-.5Z"/>
              <path class="cls-7" d="M343.12,426.05c-2.67-5.77-15.56-21.96-15.78-25.63-.35-5.88,17.49-11.43,21.04-15.57-1.19-2.45-1.27-4.15-2.3-6.67-6.36,6.36-14.11,12.22-22.6,14.79-1.3.39-4.83.42-5.16.42-3.06.04-7.47-.83-7.47-.83,0,0-2.1,4.77-.9,7.6.88,2.08,20.89,30.36,24.23,36.08l.09.49c1.33.21,7.98.21,13.35,1.16,8.56,1.52,18.73,5.67,27.36,7.5-7.57-8.51-21.29-17.7-31.85-19.34Z"/>
              <path class="cls-7" d="M165.4,392.78c-1.34-.08-2.57-.36-3.91-.5-7.67-.78-15.77-2.39-22.68-6.08-.6,1.65-1.26,4.52-1.82,6.08,6.1,2.98,21.98,24.49,20.72,32.38-.31,1.94-12.33,17.68-12.91,18.52-.58.83-11.04,10.33-10.64,11.75,1.99-.6,28.15-9.37,29.87-10,.85-.74-1.3-2.79-.44-3.53,6.05-21.53,3.03-21.58,12.07-43.16-.48-1.65-.72-8.07.28-11.07.9-2.71-7.69,5.79-10.54,5.62Z"/>
              <path class="cls-7" d="M220.72,458.76c.02.08.85.92.98,1.24-.49,1.6-18.56,5.2-2.93,9.67-.07,6.27-4.63,11.78-10.25,13.89-4.51,1.69-9.45,1.79-14.16.99,5.69-.29,9.42-5.05,13.18-8.93,3.2-1.29-6.13-1.79-11.96-3.47-7.99-2.31-25.79-9.81-6.35-4.47,30.21.22,10.62.45-7.08-15.13,12.01,6.56,25.13,11.22,38.57,6.2Z"/>
              <path class="cls-24" d="M213.64,450.32c-1.21.22,2.69,4.57-9.28,1.49-12.89-3.32-22.81-13.29-12.45-25.8.97-1.18,1.73-2.02,2.93-2.98,1.34-1.06,3.41-2.78,4.88-3.47.92-.44,4.56-1.51,4.88-.99,1.01-1.31,1.87-2.71,2.93-3.97-.35-7.29-5.98-2.07-9.28,0-1.51.95-1.86.93-1.95.99-.83.59-2.88,2.02-3.42,2.48-4,3.46-9.05,10.12-10.5,15.38-5.94,2.02-13.72,7.86-18.8,7.94-.85.74-11.5,4.46-11.92,4.6-1.95.7-14.08,6.72-14.86,8.07-.43-2.21,13.95-14.63,20.74-15.65,1.01-.15,1.64-14.15,1.64-14.15,0,0,6.68-27.48-22.19-32-6.16,17.32-12.29,46.45-16.87,60.53-3.07,9.44-5.14,13.22-2.93,23.32,3.49,10.05,39.37-9.62,45.65-13.89,5.17-3.52,9.46-8.11,14.4-11.91-.65,2.85-2.15,4.77-1.95,11.41,1.39,5.22.87,7.08.98,7.44.02.09.95,1.4.98,1.49.1-3.19,3.13,3.2,7.08,5.46,8.23,4.7,15.05,2.08,23.19-.5,3.2-1.29-6.13-1.79-11.96-3.47-7.99-2.31-25.79-9.81-6.35-4.47,30.21.22,10.62.45-7.08-15.13,12.01,6.56,25.13,11.22,38.57,6.2-.76-2.67-3.86-9.03-7.08-8.43Z"/>
              <g>
                <rect class="cls-10" x="211.88" y="411.38" width="5" height="11" rx=".83" ry=".83"/>
                <rect class="cls-25" x="214.93" y="411.38" width="1.94" height="11" rx=".83" ry=".83"/>
              </g>
              <path class="cls-26" d="M224.53,410.09c0-.32-4.67-1.61-10.4-1.61s-10.35,1.28-10.35,1.61c0,.14-1.29,2.46-.63,3.29,0,0,0,0,.01.01.04.05.09.1.15.13.03.02.07.04.11.06.05.02.11.04.16.05.06.01.12.03.19.03,0,0,.02,0,.03,0,0,0,.02,0,.02,0,1.75.17,6.3-1.39,10.23-1.39,4.97,0,11.72,2.6,11.72.91,0-.01,0-.03,0-.04.22-.96-1.23-2.94-1.23-3.07Z"/>
              <g>
                <g>
                  <rect class="cls-10" x="260.62" y="412.59" width="5" height="11" rx=".83" ry=".83" transform="translate(96.36 -46.91) rotate(12.45)"/>
                  <rect class="cls-25" x="263.64" y="412.91" width="1.94" height="11" rx=".83" ry=".83" transform="translate(96.46 -47.22) rotate(12.45)"/>
                </g>
                <path class="cls-26" d="M274.5,413.64c.07-.32-4.21-2.58-9.81-3.81-5.59-1.24-10.38-.98-10.45-.66-.03.13-1.79,2.12-1.32,3.08,0,0,0,0,0,.01.03.06.07.11.12.16.03.03.06.06.1.08.04.03.09.06.15.09.05.03.11.05.17.07,0,0,.02,0,.02.01,0,0,.02,0,.02,0,1.67.54,6.46,0,10.29.84,4.85,1.07,10.88,5.06,11.24,3.42,0-.01,0-.03,0-.04.42-.89-.57-3.14-.54-3.26Z"/>
              </g>
              <g>
                <path class="cls-26" d="M288.54,426.04c-1.03-1.22-2.2-2.33-3.44-3.33s-2.96-2.34-4.21-2.93c-.92-.43-4.27-1.02-4.88-.99-.42.02-13.66,5.2-34.62,5.2-20.41,0-36.59-5.5-37.01-5.55-1.71-.19-4.37.63-5.25,1.14-4.41,2.54-6.22,5.23-7.25,6.46-10.62,12.59-.67,22.66,12.29,25.99,11.97,3.08,8.07-1.26,9.28-1.49,3.22-.59,5.73,4.09,6.5,6.76.01.05,0,4.12-5.15,6.18-.81.32-3.89.92-4.12,2.06-.13.66,2.05,1.94,4.31,2.97,1.81.83,3.81,1.11,5.77.82,9.06-1.35,29.83-1.35,38.89,0,.67.1,16.86.61,16.86.61,0,0,22.64-31.3,12.03-43.9Z"/>
                <path class="cls-35" d="M258.33,429.25c-1.44-.67-5.68,1.87-18.06,2.17-12.38-.3-20.67-2.84-22.11-2.17-.15.07-17.05,1.86-16.68,10.87q.24,1.24.49,2.48c1.63,2.55,5.42,5.2,9.77,6.7,9.34,3.16,19.79-5.82,28.44-5.83,8.68-.01,15.24,9,24.57,5.83,4.35-1.5,8.14-4.15,9.77-6.7q.24-1.24.49-2.48c.37-9.01-16.52-10.8-16.68-10.87Z"/>
                <path class="cls-25" d="M237.75,454.07c0-.93,1.51-1.69,3.37-1.69s1.37.75,1.37,1.69.49,1.69-1.37,1.69-3.37-.75-3.37-1.69Z"/>
                <path class="cls-10" d="M243.63,458.13c0,.93-.02,1.69-2.51,1.69s-4.51-.75-4.51-1.69,2.02-1.69,4.51-1.69,2.51.75,2.51,1.69Z"/>
              </g>
            </g>
            <path class="cls-32" d="M183.07,367.41c1.65-3.63,1.88-8.05,1.86-8.05,0-.07.01-.14.01-.2-4,4-10,5-10,5,1.8,3.12,3,3,1.39,4.85-5.25,7.42-9.44,13.78-14.39,23.15,2,0,6.89,2.24,8,3,2.36,1.61,5.16,3.51,6,3-.75-10.67,1.65-18.4,6-28,.39-.86.77-1.79,1.12-2.75Z"/>
            <path class="cls-36" d="M350.75,372.2c-2.26-3.35-6.59-29.39-18.25-42.78-.1.53-.2,1.06-.31,1.59-1.84,6.68-4.41,12.93-7.69,18.76.99,14.39-7.09,29.03-8.55,43.4,11,1,22.05-1.9,29-7,.49-.36,9.62-8.99,12-10.09-1.84-1.75-4.66-1.6-6.19-3.87Z"/>
            <path class="cls-32" d="M310.88,386.71c-1.01-9.14,9.26-16.49,9.58-25.66.02-.5.11-4.09-.19-4.09-.16,1.24-.38,2.48-.56,3.72-.91,6.22-14.79,14.82-13.83,21.04,2,13,3.96,13.77,2.06,26.45,1.99.13,3.34-17.76,2.94-21.45Z"/>
          </g>
          <g>
            <path class="cls-32" d="M108.1,70.52c-9.3,11.15-13.2,43.69-14.92,53.19.42,2.88,2.42,3.02,4.52,2.28,3.21-1.13,5.47-4.02,5.96-7.39,1.22-8.29,9.08-24.41,16.29-35.85,3.1-4.91,8.85-7.46,14.57-6.48,6.6,1.14,15.08,2.2,19.21,1.17,3.66-.91,7.71-4.86,11.63-8.72,4.49-4.42,11.35-5.42,16.89-2.42,11.87,6.41,26.6,16.21,31.78,22.69,2.12,2.66,5.53,4.03,8.87,3.4,2.18-.41,3.85-1.53,2.76-4.24-6.51-7.51-26.43-32.64-39.69-38.63-18.38-8.31-64.98,5.5-77.9,20.99Z"/>
            <g>
              <path class="cls-36" d="M250.12,25.89c-.07,0-1.64.17-2.19.33.23-.03-8.26,2.04-8.43,1.88-23.94,8.21-49.45,7.26-74.16,10.98-12.73,3.94-25.84,6.78-38.49,11.07-19.04,6.46-36.73,16.5-56.11,21.98-8.3,3.44-16.8,6.38-25.52,8.61-.71.11-1.07.15-1,.12-.56.14-2,.78-2.06.81-1.3.83-1.71,2.17-1.36,3.45.42,1.56,4.46,8.52,6.81,10.63,7.63,6.89,32.81-15.97,45.97-21.52,0,0,43.15-9.19,55.3-12.45,14.93-4.01,53.02-16.6,53.02-16.6,14.18-1.78,47.41,5.41,50.57-4.38.97-3,.99-11.06.57-12.61-.34-1.28-1.37-2.23-2.91-2.3Z"/>
              <path class="cls-30" d="M179.76,37.13c-39.41,1.84-74.01,18.29-109.05,34.95,28.03-7.03,53.32-23.16,82.18-28.03,27.51-3.75,87.31-12.55,26.87-6.91Z"/>
            </g>
            <g>
              <path class="cls-27" d="M161.92,54.93c1.5.05,2.72,1.26,3.11,2.71l5.8,21.62c.64,2.38-.77,4.82-3.15,5.46,0,0-8.43,3.18-11.33,3.96-2.99.81-12.16,2.34-12.16,2.34-2.38.64-4.82-.77-5.46-3.15l-5.88-21.93c-.38-1.42-.04-3.17,1.27-3.85,6.38-3.3,21.46-7.37,27.8-7.16Z"/>
              <g>
                <path class="cls-39" d="M160.27,58.01c1.31-.18,2.55.64,2.9,1.92l5.35,19.93c-.28.58-.59,1.48-1.1,1.9-.65.54-5.8,3.27-11.23,4.74-5.99,1.62-12.33,1.97-13.24,1.82-.41-.07-1.68-.71-1.9-1.1-.67-1.18-3.67-14.21-5.33-20.13-.37-1.31.33-2.69,1.61-3.16,1.56-.58,6.09-3.17,11.04-4.41,5.76-1.45,11.92-1.52,11.92-1.52Z"/>
                <g>
                  <path class="cls-27" d="M147.34,61.4c16.43-5.98,23.97,18.22,9.27,23.5-16.39,5.9-24.35-18.01-9.27-23.5Z"/>
                  <path class="cls-29" d="M147.3,62.15c15.57-5.94,22.97,16.72,9.13,22.06-15.31,5.9-23.06-16.74-9.13-22.06Z"/>
                  <path class="cls-27" d="M147.61,63.31c14.41-5.81,21.32,16.39,7.19,20.35-12.98,3.64-18.83-15.66-7.19-20.35Z"/>
                  <g>
                    <path class="cls-27" d="M143.11,74.66c1.01-.55,1.44-1.98.3-2.56.02,0-.12-.24.17-.29,4.15,1.9,4.35-6.85.75-3.67,5.55-8.46,18.04-3.48,16.84,6.5-.82,6.84-10.1,10.35-15.27,5.83-1.35-1.18-3.9-5.49-2.8-5.81Z"/>
                    <path class="cls-16" d="M143.58,71.81c-.99-.45-1.05-.93.75-3.67,3.6-3.18,3.4,5.56-.75,3.67Z"/>
                    <path class="cls-18" d="M143.41,72.11c1.14.58.71,2-.3,2.56-1.14-2.09-.54-2.17.3-2.56Z"/>
                  </g>
                </g>
              </g>
            </g>
            <path class="cls-30" d="M61.34,93.1l-17.72,5c-1.48-3.04-6.54-16.54-2.64-18.6,1.28-.68,9.41-2.38,13.46-3.55,1.07-.31,2.22.17,2.71,1.17,1.93,3.92,3.89,13.88,4.19,15.98Z"/>
            <g>
              <path class="cls-40" d="M45.57,80.25l-2.82-12.93c.73-.31,4.95-1.6,5.39-.9l3.28,10.31c.17.53.32,1.24-.08,1.63-1.93,1.85-4.19,2.06-5.78,1.89Z"/>
              <path class="cls-5" d="M42.75,67.33l2.82,12.93c-3.55-.79-1.38-3.17-4.39-12.32.07-.4,1.23-.46,1.57-.6Z"/>
            </g>
            <g>
              <ellipse class="cls-8" cx="44.42" cy="65.58" rx="45.95" ry="6.36" transform="translate(-15.47 13.75) rotate(-15.01)"/>
              <ellipse class="cls-3" cx="44.42" cy="65.58" rx="37.4" ry="5.17" transform="translate(-15.47 13.75) rotate(-15.01)"/>
              <ellipse class="cls-33" cx="44.42" cy="65.58" rx="24.41" ry="3.38" transform="translate(-15.47 13.75) rotate(-15.01)"/>
              <ellipse class="cls-1" cx="44.42" cy="65.58" rx="8.71" ry="1.21" transform="translate(-15.47 13.75) rotate(-15.01)"/>
            </g>
            <g>
              <path class="cls-40" d="M42.85,67.22l-2.19-8.24c-.99-11.11,4.34-1.9,7.23,6.84.02.07-2,.62-2.14.66l-2.9.74Z"/>
              <path class="cls-5" d="M42.85,67.22l-1.13.28c-.77-2.72-.81-5.71-1.06-8.52l2.19,8.24Z"/>
            </g>
            <path class="cls-30" d="M255.87,40.92l-17.72,5c-1.48-3.04-6.54-16.54-2.64-18.6,1.28-.68,9.41-2.38,13.46-3.55,1.07-.31,2.22.17,2.71,1.17,1.93,3.92,3.89,13.88,4.19,15.98Z"/>
            <path class="cls-30" d="M255.87,40.92c.32,2.27,1.01,4.15-1.65,5.39-1,.46-11.93,3.24-12.76,3.18-2.23-.18-2.91-2.75-3.31-3.57l17.72-5Z"/>
            <g>
              <path class="cls-40" d="M240.1,28.07l-2.82-12.93c.73-.31,4.95-1.6,5.39-.9l3.28,10.31c.17.53.32,1.24-.08,1.63-1.93,1.85-4.19,2.06-5.78,1.89Z"/>
              <path class="cls-5" d="M237.28,15.15l2.82,12.93c-3.55-.79-1.38-3.17-4.39-12.32.07-.4,1.23-.46,1.57-.6Z"/>
            </g>
            <g>
              <ellipse class="cls-8" cx="238.95" cy="13.4" rx="45.95" ry="6.36" transform="translate(4.69 62.36) rotate(-15.01)"/>
              <ellipse class="cls-3" cx="238.95" cy="13.4" rx="37.4" ry="5.17" transform="translate(4.69 62.36) rotate(-15.01)"/>
              <ellipse class="cls-33" cx="238.95" cy="13.4" rx="24.41" ry="3.38" transform="translate(4.69 62.36) rotate(-15.01)"/>
              <ellipse class="cls-1" cx="238.95" cy="13.4" rx="8.71" ry="1.21" transform="translate(4.69 62.36) rotate(-15.01)"/>
            </g>
            <g>
              <path class="cls-40" d="M237.38,15.04l-2.19-8.24c-.99-11.11,4.34-1.9,7.23,6.84.02.07-2,.62-2.14.66l-2.9.74Z"/>
              <path class="cls-5" d="M237.38,15.04l-1.13.28c-.77-2.72-.81-5.71-1.06-8.52l2.19,8.24Z"/>
            </g>
            <path class="cls-30" d="M61.34,93.1c.32,2.27,1.01,4.15-1.65,5.39-1,.46-11.93,3.24-12.76,3.18-2.23-.18-2.91-2.75-3.31-3.57l17.72-5Z"/>
          </g>
        </g>
        <g>
          <path class="cls-4" d="M378.74,460.44c-.05,11.29-6.23,19.46-17.49,20.34-16.51,1.3-43.05-16.04-46.86-33.81.2-1.71-1.28-3.81.67-2.34,1.76,1.33,8.91,20.5,33.79,26.29,40.47,9.41,20.39-26.08,22.45-27.51,3.97-2.76,7.05,14.22,7.44,17.03Z"/>
          <path class="cls-24" d="M371.79,437.84c-8.79-19.46-15.41-34.62-23.94-54.26-11.11,9.46-26.03,9.82-26.03,9.82,0,0,12.49,30.46,14.9,36.34,10.48,2.09,23.93,3.05,31.13,11.88-8.54-2.2-18.53-6.79-27.01-8.67-5.32-1.18-11.97-1.47-13.28-1.74-10.46-2.15-9.43-6.79-19.23-11.33-3.62-2.47-11.14-6.58-16.23-11.03-.04-.03-18.02-2.87-18.12-3.1-3.34-.13-11.16-3.56-13.66-2.69-.18.06-.39,0-.48.06-1.12.82-.89,3.58-.35,4.8.74,1.67,13.03,5.27,12.47,5.28,11.03.75,23.52,23.62,20.13,27.23-15.1,16.06-26.01,3.39-25.23,15.87,0,0,0,0,0,0,.32,5.05,2.7,3.82,6.78,4.98-.68.94-.75,2.19-.16,2.76,1.78,1.73,24.8,2.79,32.98-2.75,5.13-3.47,8.26-8.89,8.97-15.01.2-1.71,8.53,18.85,33.41,24.63,40.47,9.41,20.39-26.08,22.45-27.51,3.97-2.76,7.05,14.22,7.44,17.03.04-9.1-3.39-14.71-6.95-22.6ZM296.79,418.29c.38.12.79.39,1.2.78-.42-.39-.82-.66-1.2-.78-.32-.1-.76-.09-1.25-.01.49-.08.94-.09,1.25.01ZM300.15,444.34c-.22.2-.44.4-.66.6.22-.2.44-.4.66-.6ZM290.73,451.93c-1.2.8-2.43,1.55-3.68,2.23-3.33,1.8-6.81,3.06-10.42,3.43,3.61-.38,7.09-1.64,10.42-3.43,1.25-.67,2.47-1.42,3.68-2.23ZM282.66,460.21c-1.08.14-6.79-.1-7.15-.05h0c.33-.14,6.06.19,7.15.05ZM275.07,457.68c-.67.02-1.35,0-2.03-.04.68.04,1.36.06,2.03.04Z"/>
          <path class="cls-7" d="M267.1,455.43s10.85,3.4,22.93-1.06c12.08-4.46,13.12-10.57,13.12-10.57,0,0,.28,4.24-1.27,5.44s-20.13,14.64-34.78,6.19Z"/>
          <path class="cls-7" d="M273.71,461.19s10.85,3.4,22.93-1.06c4.26-1.57,6.97-4.31,8.93-5.95,3.58-3.02,4.2-4.62,4.2-4.62,0,0-1.23,4.66-2.78,5.87-1.17.91-10.54,7.53-22.12,7.69-3.75.05-7.58.13-11.16-1.93Z"/>
        </g>
      </g>
    </g>
  </g>
</svg>