<?xml version="1.0" encoding="UTF-8"?>
<svg xmlns="http://www.w3.org/2000/svg" xmlns:xlink="http://www.w3.org/1999/xlink" viewBox="0 0 409.42 576.67">
<defs>
    <style>
      .cls-1, .cls-2 {
        fill: none;
      }

      .cls-3, .cls-4 {
        fill: #8dd4da;
      }

      .cls-5 {
        fill: #954399;
      }

      .cls-6 {
        fill: #221d1a;
      }

      .cls-7 {
        fill: #8ebacc;
      }

      .cls-8 {
        fill: #010101;
      }

      .cls-9 {
        fill: #66256a;
      }

      .cls-10 {
        fill: url(#linear-gradient-3);
      }

      .cls-11 {
        fill: url(#linear-gradient-2);
      }

      .cls-12 {
        fill: #353635;
      }

      .cls-13 {
        fill: #a74529;
      }

      .cls-4, .cls-14 {
        opacity: .2;
      }

      .cls-15 {
        fill: #e77a4d;
      }

      .cls-16 {
        fill: #281a26;
      }

      .cls-17 {
        fill: url(#linear-gradient);
      }

      .cls-18 {
        fill: #fbfcfe;
      }

      .cls-19 {
        fill: #f8ae89;
      }

      .cls-20 {
        fill: #f6d6c7;
      }

      .cls-21 {
        fill: #ad4b2f;
      }

      .cls-22 {
        isolation: isolate;
      }

      .cls-23 {
        fill: #e16c28;
      }

      .cls-24 {
        fill: #1e141c;
      }

      .cls-25 {
        fill: #cd5736;
      }

      .cls-26 {
        fill: #7f2d86;
      }

      .cls-27 {
        fill: #f6b751;
      }

      .cls-14 {
        fill: #c3d4dc;
      }

      .cls-14, .cls-28 {
        mix-blend-mode: screen;
      }

      .cls-29 {
        fill: #fff;
      }

      .cls-30 {
        fill: #c88a2c;
      }

      .cls-31 {
        fill: #f69320;
      }

      .cls-32 {
        fill: #f89f1c;
      }

      .cls-33 {
        fill: #d8653c;
      }

      .cls-34 {
        fill: #c0e6e8;
      }

      .cls-35 {
        opacity: .9;
      }

      .cls-36 {
        fill: #c22f4c;
      }

      .cls-37 {
        fill: #d79d47;
      }

      .cls-38 {
        fill: #311131;
      }

      .cls-39 {
        fill: #313133;
      }

      .cls-40 {
        fill: #f3c4ad;
      }

      .cls-41 {
        fill: #c46041;
      }

      .cls-42 {
        fill: #232323;
      }

      .cls-43 {
        fill: #434343;
      }

      .cls-2 {
        stroke: #434343;
        stroke-miterlimit: 10;
        stroke-width: 5px;
      }

      .cls-44 {
        fill: #fcf8ea;
      }

      .cls-28 {
        opacity: .3;
      }

      .cls-45 {
        fill: #d97c27;
      }
    </style>
    <linearGradient id="linear-gradient" x1="173.97" y1="281.95" x2="173.97" y2="162.32" gradientUnits="userSpaceOnUse">
      <stop offset="0" stop-color="#e77a4d"/>
      <stop offset="1" stop-color="#f0935e"/>
    </linearGradient>
    <linearGradient id="linear-gradient-2" x1="142.73" y1="229.5" x2="145.67" y2="212.81" gradientUnits="userSpaceOnUse">
      <stop offset="0" stop-color="#3b3216"/>
      <stop offset="1" stop-color="#2b1f12"/>
    </linearGradient>
    <linearGradient id="linear-gradient-3" x1="196.71" y1="230.43" x2="196.71" y2="214.19" xlink:href="#linear-gradient-2"/>
  </defs>
  <g class="cls-22">
    <g id="Layer_1" data-name="Layer 1">
      <g>
        <g>
          <g>
            <path class="cls-30" d="M286.25,563.56c0,1.67-4.61,3.2-10.3,3.02-10.64-.34-9.66-1.53-10.3-3.02-.6-1.4-3.22-8.24-5.41-14.63-.2-.57.2-1.56.2-1.56l26.59-1.49s.58.62.56.98c-.41,7.03-1.34,16.38-1.34,16.69Z"/>
            <path class="cls-27" d="M298.23,573.63c0,1.67-4.61,3.2-10.3,3.02-10.64-.34-9.66-1.53-10.3-3.02-1.17-2.73-10.04-26.22-8.4-26.55,1.64-.33,28.46,1.76,30.21,2.16,1.15.26-1.21,23.88-1.21,24.38Z"/>
            <path class="cls-37" d="M299.26,560.44c-3.22,12.65-13.94-2.83-26.57-.26-.51.1-4.43-12.88-3.53-13.1,1.63-.4,28.11.31,30.33.58.8.1-.05,12.05-.23,12.78Z"/>
          </g>
          <g>
            <path class="cls-30" d="M132.52,563.56c0,1.67,4.62,3.2,10.32,3.02,10.66-.34,9.68-1.53,10.32-3.02.6-1.4,3.23-8.24,5.42-14.63.2-.57,1.22-3.29,1.22-3.29l-28.07.24s-.58.62-.56.98c.41,7.03,1.34,16.38,1.34,16.69Z"/>
            <path class="cls-27" d="M120.52,573.63c0,1.67,4.62,3.2,10.32,3.02,10.66-.34,9.68-1.53,10.32-3.02,1.17-2.73,10.06-26.22,8.42-26.55-1.65-.33-28.52,1.76-30.27,2.16-1.16.26,1.21,23.88,1.21,24.38Z"/>
            <path class="cls-37" d="M119.75,555.23c14.29,1.19,16.68,20.25,28.21.19,1.67-2.9,4.74-12.88,3.78-13.1-1.75-.4-29.95,1.89-32.33,2.16-.85.1-.01,10.72.34,10.75Z"/>
          </g>
        </g>
        <g>
          <g>
            <g>
              <path class="cls-5" d="M80.45,542.81c.03-.38-.03-.68-.15-.99.12.31.18.62.15.99Z"/>
              <path class="cls-5" d="M340.77,406.14c-2.63-23.69-12.85-29.78-54.14-30.4-20.44-.31-48.49.73-87.01,1.63-24.82-.43-45.98-2.03-65-1.91-12.24.08-23.59.87-34.47,3.14-15.63,2.05-25.19,7.46-26.85,15.64-4.92,24.29-17.81,94.29,3.08,138.1.73,1.54,11.15,9.83,16.92,9.97,53.15,1.28,160.1,11.74,219.67,5.16q22.32-2.47,26.35-18.21c8.11-40.21,5.49-86.66,1.44-123.13Z"/>
            </g>
            <g>
              <path class="cls-5" d="M218.51,527.53s93.93-5.44,95.15-10.17c0,0,5.85-9.83,5.71-44.31-.25-61-9.27-72.78-9.27-72.78,0-1.06-5.1-2.02-6.2-2.02-21.28,1.64-73.08-1.57-89.95.26-2.19.04.84,116.43.09,117.32.9,3.67.09,11.22,4.47,11.68Z"/>
              <path class="cls-26" d="M218.52,527.03c15.92-.86,31.9-2.96,47.67-5.47,0,0,23.67-3.71,23.67-3.71,6.97-1.19,14.17-1.83,20.9-3.79.11-.04.14-.07.04,0-.62.36-1.33,1.36-1.5,2.19,0,0,.49-1.17.49-1.17,3.39-8.17,4.62-17.89,5.87-26.96,1.23-9.73,1.68-19.63,1.66-29.45-.14-17.12-1.21-34.56-6.42-50.92-.75-2.06-1.52-4.23-2.72-5.99,0,0-.5-1.47-.5-1.47-.05.54.3,1.18.63,1.5-.98-.36-2.13-.57-3.21-.71,0,0-.72-.08-.72-.08-.21-.02-.5-.03-.48-.01h.21c-11,1.19-22.98,1.53-34.01,1.73-18.34.35-37.38-.54-55.58,1.01,0,0-.45.03-.45.03,1.26-.02,2.44-.52,3.31-1.29.66-.59,1.28-1.53,1.46-2.29.03-.11.02-.06.01,0-.3,4.24-.27,8.73-.3,12.99-.07,14.24-.09,29.77-.53,43.93-.66,18.31-2.42,36.76-3.03,55.1,0,0-.08,1.84-.08,1.84l-.06.93-.04.48-.03.26-.02.15-.02.11c-.03.05.02.08-.16.34l.14-.61c.9,3.28-.32,10.5,3.81,11.35h0ZM218.49,528.03c-5.15-.75-4.01-8.32-5.12-12.02,0,0,.14-.61.14-.61-.16.23-.11.21-.13.23.03-.86-.01-2.54-.05-3.45-.74-18.37-3.34-36.64-4.43-54.98-.95-18.44-1.6-36.91-.76-55.39.23-2.21.14-4.61,1.68-6.55.97-1.19,2.4-1.93,4.01-1.97,0,0-.45.03-.45.03,21.97-1.22,46.03.86,68.05,1.66,7.52.38,15.06.74,22.46.56,2.15.17,3.81.68,5.81,1.44,1.29.49,2.87,1.66,2.81,3.29,0,0-.5-1.47-.5-1.47.21.29.28.45.38.62,4.2,9.17,4.96,19.51,6.24,29.37,1.55,14.79,2.22,29.82,3.11,44.65.58,10.08.96,20.14-.17,30.26-.7,5.38-1.56,11.02-4.05,15.95,0,0,.49-1.17.49-1.17-.09.32-.21.64-.35.94-1.05,2.17-3.4,3.02-5.38,3.59-3.15.89-6.28,1.3-9.42,1.75-28.03,3.33-56.25,1.12-84.37,3.25h0Z"/>
            </g>
            <g>
              <path class="cls-5" d="M188.51,527.53s-60-5-90.8-5.08c0,0-8.2-13.92-8.48-49.39-.48-61,9.2-72.78,9.2-72.78,0-1.06,5.06-2.02,6.15-2.02,21.12,1.64,72.55-1.57,89.29.26,2.18.04-.84,116.43-.08,117.32-.9,3.67-.93,11.22-5.28,11.68Z"/>
              <path class="cls-26" d="M188.51,528.03c-30.22-2.62-60.58-.37-90.82-1.08,0,0-2.6-.01-2.6-.01l-1.27-2.2c-2.66-5-4.06-10.58-5.17-16.06-2.23-11.8-2.16-23.77-1.7-35.67.65-14.24,1.15-28.7,2.52-42.9.5-5.13,1.15-10.51,2.09-15.58.98-5.15,2.03-10.48,4.52-15.18.11-.18.19-.34.42-.65l-.57,1.58c.17-3.43,4.86-4.02,7.44-4.66.35-.05.61-.11,1.2-.14h.22c7.27.17,14.68-.19,22.08-.54,18.4-.83,37.52-1.92,55.93-2.02,3.79,0,7.6.08,11.64.4l-.46-.03c1.31.03,2.54.55,3.44,1.36,1.5,1.31,1.93,3.37,2.09,5.13,1.18,19.14.32,38.31-.61,57.42-1.03,17.12-3.33,34.18-4.25,51.31-.11,2.31-.25,4.72-.21,7.03,0,0,0,.08,0,.08,0,0,0,.02,0,0-.02-.02.04,0-.12-.23l.14.6c-1.15,3.89-.82,11.21-5.94,12.02h0ZM188.5,527.03c4.22-.91,3.72-7.97,4.62-11.34,0,0,.14.6.14.6-.18-.24-.16-.35-.21-.59-.06-.4-.09-1.24-.12-1.66-.36-9.02-.81-18.58-1.44-27.57-1.47-19.55-2.15-39.13-2.13-58.7-.13-7.8.09-19.93-.39-27.6,0-.06-.02-.11.01,0,.02.05.03.15.15.44l.13.3c.18.49.73,1.14,1.17,1.55.86.79,2.07,1.29,3.33,1.32-3.56-.35-7.29-.61-11.12-.7-18.22-.53-37.42.02-55.71-.56-7.15-.28-15.92-.65-22.35-1.45-.64,0-1.92.17-2.64.33-.63.13-1.15.26-1.69.46.36-.31.71-1.01.66-1.55,0,0-.57,1.58-.57,1.58-2.62,3.96-3.84,8.83-5.07,13.46-4.05,17.55-4.69,35.81-3.94,53.79.35,10.19,1.73,20.45,3.78,30.4,1.62,6.96,3.32,14.25,6.47,20.67,0,0-3.87-2.22-3.87-2.22,30.52.04,60.46,7.01,90.79,9.08h0Z"/>
            </g>
            <g>
              <path class="cls-9" d="M336.74,391.97c-.33-.4,7.64,88.75-5.09,125.03-2.68,7.65-7.97,14.41-11.6,15.17-50.66,10.51-162.33,5.2-220.86,3.65-25.39-.67-33.69-52.28-33.69-52.28,0,0-1.44,29.08,13.54,54.88.23.42.47.82.7,1.2.02.04.04.07.06.11,0,0,0,0,0,.01,3.95,6.44,8.07,7.82,25.31,6.44,31.09.76,82.94,3.72,107.07,4.71,60.09,2.45,85.91-1.05,109.52-3.32,15.51-1.49,14.29-6.91,17.15-14.96,1.72-4.85,4.66-25.4,5-29.49,1.99-24.02.75-101.55-7.13-111.14Z"/>
              <path class="cls-9" d="M80.45,542.81c.03-.38-.03-.68-.15-.99.12.31.18.62.15.99Z"/>
            </g>
          </g>
          <g>
            <g>
              <path class="cls-9" d="M170.85,426.88c3.14.01,8.52-3.16,5.25-9.24-.3,2.48-.44,6-.88,6.03-1.77,1.95-6.75,1.01-9.35,1.05.79.8,3.34,2.16,4.97,2.16Z"/>
              <path class="cls-39" d="M163.61,416.72c-2.1,4.35,1.87,9.67,6.68,9.43,14.12-3.1,1.49-20.13-6.68-9.43Z"/>
              <path class="cls-43" d="M171.57,415.73c-5.06-.59-3.77,7.25,1.03,5.96,2.95-.79,1.81-5.63-1.03-5.96Z"/>
            </g>
            <g>
              <path class="cls-9" d="M246.34,419.7c.33,1.71-2.61,8.12-8.28,6.45,2.49-.37,5.15-1.55,5.17-1.99,1.91-1.83,1.6-4.85,1.55-7.44.83.76,1.24,1.38,1.55,2.98Z"/>
              <path class="cls-39" d="M244.78,416.72c2.12,4.35-1.88,9.67-6.72,9.43-14.23-3.1-1.5-20.13,6.72-9.43Z"/>
              <path class="cls-43" d="M236.77,415.73c5.09-.59,3.8,7.25-1.03,5.96-2.97-.79-1.83-5.63,1.03-5.96Z"/>
            </g>
          </g>
          <path class="cls-9" d="M297.23,376.3c0,5.79-53.41,8.66-107.2,8.34-20.73-.12-83-4.67-84.57-5.96-2.03-1.66,7.9-22.64,23.24-24.53,15.62-1.93,53.43,15.46,77.44,15.46,28.16,0,56.78-17.75,72.5-15.21,10.85,1.75,18.59,19.53,18.59,21.9Z"/>
        </g>
        <g>
          <line class="cls-2" x1="205.58" y1="75.35" x2="241.31" y2="14.6"/>
          <line class="cls-2" x1="204.98" y1="74.75" x2="169.25" y2="14.01"/>
          <ellipse class="cls-43" cx="205.22" cy="74.91" rx="28.98" ry="24.08"/>
          <g>
            <circle class="cls-23" cx="165.45" cy="8.96" r="8.96"/>
            <circle class="cls-31" cx="163.8" cy="7.96" r="4.52"/>
          </g>
          <g>
            <path class="cls-13" d="M399.89,110.09h0c-3.98-13.02-9.69-22.86-21.07-30.76-2.34.55-4.52,4.17-3.99,6.27,8.96,6.74,14.25,15.25,18.23,25.63.46,1.19,1.88,3.2,2.28,4.56h0c10.61,36.3,8.61,125.49,3.42,164.61-1.08,8.1-2.29,15.93-3.99,23.92-5.77,27.2-13.36,51.22-44.14,56.96-19.34,3.61-93.87,6.43-117.91,6.84-41.03.69-131.97-.96-170.02-6.27-19.41-2.71-26.82-5.22-42.72-17.09,12.35,27.31,29.82,28.96,57.53,31.9,9.57,1.01,19.53.49,29.05,2.28,64.86,2.34,129.99,3.87,194.8-.57.43-.03,3.23-.72,8.54-1.14,7.38-.58,14.85-.42,22.21-1.14,16.87-1.66,29.07-1.86,42.72-12.53,4.77-3.73,8.78-7.6,11.96-12.82,26.59-43.65,28.11-191.61,13.1-240.65ZM397.65,115.29c.29-.09.54-.19.74-.3-.21.1-.45.2-.74.3ZM399.4,113.75c-.03.38-.22.75-.73,1.07.51-.33.7-.69.73-1.07,0-.13,0-.26-.02-.39-.02-.13-.05-.27-.09-.4-.1-.34-.23-.68-.31-1.01-.14-.59-.11-1.16.58-1.66-.69.5-.72,1.07-.58,1.66.08.34.21.68.31,1.01.04.13.07.27.09.4.02.13.03.26.02.39Z"/>
            <path class="cls-20" d="M387.36,234.54c-.49,11.99-2.1,24.25-3.42,36.17l-4.56-1.14c4.19-39.33,5.61-106.64-3.42-144.39-.72-3-4.01-8.62-3.99-9.11.07-1.36,16.52,90.65,15.38,118.47Z"/>
            <path class="cls-40" d="M383.94,270.71c-.87,7.84-1.5,15.57-2.85,23.35-2.35,13.59-4.69,28.65-14.81,38.73-.8.8-1.95,1.57-2.85,2.28-1.07-1.42,2.4-2.54-1.14-5.13,13.07-12.73,15.21-42.76,17.09-60.38l4.56,1.14Z"/>
            <path class="cls-31" d="M395.33,115.78c-.4-1.36-5.97-30.14-16.52-36.45-27.12-18.8-311.63-16.21-336.91-6.27-18.65,7.34-28.5,23.16-33.32,41.86-13.87,53.83-11.51,179.18,11.39,229.83,15.9,11.87,23.31,14.38,42.72,17.09.23-4.67,334.98-73.35,336.06-81.45,5.19-39.12,7.19-128.32-3.42-164.61Z"/>
            <path class="cls-23" d="M379.7,129.37c-4.12-19.07-16.29-23.77-18.82-25.54-10.3-7.21-38.33-8.11-51.83-9.11-41.99-3.12-106.52-4.5-148.66-3.42-16.65.43-91.38,4.14-102.53,7.4-16.01,4.68-20.81,18.52-23.64,33.32-7.34,38.38-8.22,95.37-3.99,134.42.9,8.32,2.12,21.79,5.11,34.31,0,0,0,0,0,0,2.25,17.16,13.37,56.64,27.36,61.1,38.05,5.31,128.99,6.96,170.02,6.27,24.03-.41,93.9-3.01,113.51-4.56,33.48-2.63,50.7-33.39,52.53-83.16,1.82-49.43-19.05-151.03-19.05-151.03ZM357.74,327.1c-4.45,1.51-45.9,2.59-60.09,3.42-67.96,3.95-136.43-.83-204.3-6.82-31.06-7.26-38.76-11.83-46.58-18.33-3.44-12.34-10.04-26.78-10.85-33.52-4.36-36.55-4.49-73.59-.57-110.22,3.05-28.45,3.98-52.8,27.06-58.38,14.59-3.53,84.21-6.96,103.1-7.4,34.2-.8,150.04,1.85,178.57,7.4,12.19,2.37,20.01,6.17,24.69,16.17-1.39,35.26-27.73,214.64-11.02,207.68Z"/>
            <path class="cls-39" d="M370.84,124.9c-4.29-14.21-12.56-18.88-26.77-21.64,0,0,0,0,0,0-28.53-5.56-144.36-8.21-178.57-7.4-18.88.44-88.5,3.87-103.1,7.4-23.07,5.58-24.01,29.93-27.06,58.38-3.92,36.63-3.79,73.67.57,110.22,1.4,11.74,5.42,42.92,17.57,47.87,82.46,18.84,292.73,17.94,304.25,7.38,11.05-10.12,18.52-69.63,19.37-84.01,1.65-27.95,1.33-93.02-6.27-118.19ZM354.01,107.01c1.51.62,2.98,1.3,4.38,2.11-1.4-.81-2.87-1.5-4.38-2.11Z"/>
            <g>
              <path class="cls-43" d="M184.01,102.68c22.33-.08,44.45.81,66.64,2.85,12.63,1.16,45.6,2.94,53.54,13.39,7.1,9.34,10.39,59.87,10.82,73.48.71,22.12-.27,91.16-6.84,109.36-3.13,8.69-8.98,12.42-17.09,15.66-116.31,14.55-225.73.49-235.53-8.54-13.25-12.22-15.75-86.15-15.09-105.09.55-15.74,5.42-72.34,13.1-83.73,5.76-8.55,22.52-9.68,32.18-11.11,29.06-4.3,68.66-6.16,98.25-6.27Z"/>
              <path class="cls-7" d="M164.93,110.09c23.34-.64,119.98-.3,131.86,19.65,8.41,14.12,9.65,80.24,9.11,99.11-.42,14.75-2.64,69.93-14.52,77.75-9.33,6.14-66.49,10.33-80.31,10.82-12.21.43-32.77.43-45,0-16.55-.58-90.68-6.67-101.39-14.24-9.34-6.6-14.87-54.91-15.66-67.5-1.49-23.7,2.42-75.87,9.11-97.97,4.69-15.48,16-17.29,30.47-20.22,19.13-3.87,56.36-6.86,76.33-7.4Z"/>
            </g>
          </g>
          <g>
            <circle class="cls-23" cx="243.67" cy="9.91" r="8.96"/>
            <circle class="cls-31" cx="242.02" cy="8.91" r="4.52"/>
          </g>
        </g>
        <g class="cls-28">
          <path class="cls-29" d="M122.07,127.78c2.04-3.59-1.16-7.89-5.18-6.96-15.57,3.57-35.91,7.72-42.55,19.93-7.59,13.95-10.27,63.86-1.42,69.21,13.44,8.11,15.86-15.99,19.79-32.64,0,0,4.71-7.79,10.65-17.71,6.25-10.44,13.84-23.25,18.72-31.82Z"/>
        </g>
        <g>
          <path class="cls-6" d="M324.69,192.71c1.73,1.01,3.72,1.56,5.7,1.71,8.52.64,17.29-3.99,21.07-11.96,3.06,2.54,7.48.97,6.84,4.84-1.31,7.9-13.24,9.88-19.65,9.97-18.51.25-26.82-10.35-13.95-4.56Z"/>
          <ellipse class="cls-13" cx="333.2" cy="171.93" rx="22.81" ry="23.18"/>
          <circle class="cls-23" cx="333.2" cy="170.72" r="21.97"/>
          <circle class="cls-31" cx="333.2" cy="170.72" r="18.22"/>
          <circle class="cls-45" cx="333.2" cy="170.72" r="14.17"/>
          <circle class="cls-32" cx="333.2" cy="169.51" r="12.95"/>
          <path class="cls-29" d="M331.71,159.67c5.49-.44,6.47,7.13,1.14,10.82-9.09,6.29-11.7-9.97-1.14-10.82Z"/>
        </g>
        <g>
          <path class="cls-31" d="M314.28,230.37c1.86-.55,36.88-.55,38.73,0,1,.3,3.08,3.13,2.56,4.27-.88,1.96-41.06,1.78-43,.85-2.27-1.09.5-4.77,1.71-5.13Z"/>
          <path class="cls-31" d="M354.43,240.05c1.08,3.52.17,2.38-.57,3.42-5.43-.66-38.34.87-40.16,0-1.66-.79-.74-3.49.57-3.99,2.05-.78,35.23-1.33,40.16.57Z"/>
          <path class="cls-31" d="M314.28,255.43c1.77-.79,36.96-.78,38.73,0,1.53.67,1.02,3.95-.57,4.56-1.78.68-36.42.77-38.16,0-1.26-.56-1.26-4,0-4.56Z"/>
          <path class="cls-31" d="M344.18,267.96c-4.43.21-25.18.34-27.34,0-4.88-.77-3.61-3.39-2.56-3.99,1.63-.93,35.87-1.33,37.59-.57,1.26.56,1.26,4,0,4.56-.57.25-5.78-.09-7.69,0Z"/>
          <path class="cls-31" d="M350.45,273.09c.26,1.68-.29,2.9-1.99,3.42-1.5.46-29.81.4-31.33,0-2.87-.76-2.43-2.45-1.99-4.56,11.57-.88,24.43-1.35,35.31,1.14Z"/>
          <path class="cls-31" d="M354.43,248.02c.16.44.1,3.15-.28,3.42-1.65,1.17-38.49.52-40.44,0-.49-.13-.8-1.09-.85-1.14-.03-.98-.24-2.34.85-2.85,1.85-.86,35.54.25,40.73.57Z"/>
          <path class="cls-31" d="M326.81,221.25c4.04-.69,18.67-1.22,18.51,4.84l-23.64.28c-2.04-.76,1.03-4.43,5.13-5.13Z"/>
        </g>
        <g class="cls-35">
          <g>
            <path class="cls-25" d="M194.26,282.07c-7.33,9.35-17.58,16.54-29.02,19.75-1.9-2.48-4.33-4.81-4.84-8.06-.37-2.34.15-6.36.4-8.87.06-.59.12-3.42.4-3.92,10.03,1.76,22.29-1.42,31.03-6.16.98,2.32,1.34,4.86,2.02,7.25Z"/>
            <path class="cls-15" d="M195.87,286.5c.32,1.65.58,3.37.81,5.04-5.85,6.99-14.76,12.2-23.38,15.11-2,.67-1.52.79-1.61.81-.59.14-.29.59-2.02-.4-.22-.13-1.05-.67-1.21-.81-.21-.18-2.74-3.8-3.22-4.43,11.44-3.2,21.69-10.4,29.02-19.75.54,1.92,1.56,4.16,1.61,4.43Z"/>
          </g>
          <g>
            <path class="cls-17" d="M219.06,203.47s-5.19-15.91-8.13-20.61c-3.88-6.2-15.35-16.73-22.35-18.86-7.02-2.14-21.11-2.13-29.34-.59,0,0-26.45,1.4-33.16,32-.76,3.46,2.8,20.43-1.21,34.58-.07.26-.11.52-.11.79v6.09c2.09,7.42,3.14,17.08,10.1,25.51,6.13,7.42,25.44,19.24,28.92,19.56,1.82.06,7.3-1.14,15.35-4.51,7.39-3.09,17.9-9.95,22.48-16.54,2.25-3.23,9.91-18.49,8.12-20.7,5.89-2.76,13.44-3.38,13.44-12.87,0-4.07-2.37-16.07-4.11-23.85ZM138.15,242.32c.83.07,1.68.1,2.55.09-.83.03-1.68,0-2.55-.09ZM183.93,239.89c.8.4,1.68.76,2.63,1.09-.94-.3-1.82-.67-2.63-1.09Z"/>
            <path class="cls-33" d="M223,227.19c.05-.07,1.08-1.06-1.12-10.16-.65-3.09-2.1-10.27-2.1-10.27,0,0-.36-.52-.9-1.1-.43-.48-.99-1-1.45-1.38-5.75-4.8-16.53-4.55-19.62-4.56-6.83-.07-13.51.95-16.78,4.85-3.37,4.04-3.2,11.11-2.04,19.8.25,1.05.9,3.22.87,2.71-.08-1.35.86-5.42,1.91-7.71,1.81-3.97,3.72-6.56,8.81-8.52,12.61-4.88,25.66,16.59,26.24,17.57-1.45,5.32-4.11,9.93-8.92,11.85,3.13.54-4.57,17.17-6.97,20.61-4.58,6.59-14.96,12.87-22.35,15.96-8.05,3.37-13.44,5.06-15.31,5.02.14.05.06.1.52.13,12.35.92,19.52-2.03,30.17-8.06,16-9.05,16.36-10.94,24.38-26.12.89-1.69.88-3.65,2.32-5.51.3-.39,7.84-1.24.58-6.38,10.7-15.42,16.4-3.13,10.45,5.22-5.48,7.69-15.01-3.35-8.71,9.58,20.71,4.06,16.28-46.19,0-23.51Z"/>
            <path class="cls-21" d="M223,250.69c-2.07-.4-2.61-2.37-4.64-2.9.89-1.69.88-3.65,2.32-5.51.3-.39,7.84-1.24.58-6.38,10.7-15.42,16.4-3.13,10.45,5.22-5.48,7.69-15.01-3.35-8.71,9.58Z"/>
          </g>
          <path class="cls-19" d="M125,235.85c2.82,13.11,4.05,19.01,9.57,26.07,3.54,4.53,19.41,16.25,28.76,19.93-4.43-.07-27.45-13.68-32.43-19.95-5.38-6.77-6.7-14.87-6.83-20.19-.03-1.34.24-4.01.38-5.34.06-.55.31-2.2.31-2.2,0,0,.14,1.28.23,1.68Z"/>
          <path class="cls-15" d="M132.45,206c-1.52.05,1.1-3.58,1.8-5.06.86-2.35.9-5.13,1.61-7.46,4.87-15.95,19.2-22.39,8.46-19.55-8.47,2.25-16.78,28.28-17.68,36.01,0,0,.14,4.96.14,4.96,2.02-2.6,2.92-3.4,6.42-5.34,6.82-3.77,14.82-1.02,18.06,7.47.04.09,1.9,8.39,1.93,9.06.02.34.03-7.56.16-8.77-.77-10.66-12.41-11.6-20.9-11.32Z"/>
          <g>
            <path class="cls-15" d="M124.79,234.48c-8.31,2.96-4.35,8.92-2.3,14.64-9.98-7.9-5.96-20.45-2.07-20.8.48-.04,2.07-.04,3.08.72.93.7,1.32,1.4,1.32,1.4,0,0,0,2.72-.03,4.05Z"/>
            <path class="cls-33" d="M123.07,230.55c.69-.04,1.72,1.07,1.69,3.28-.02,1.87-.77,5.92-.63,9.38,0,0,.39,4.58,1.29,7.7-1.09-.43-2.01-1.05-2.93-1.78-2.06-5.72-7.73-15.62.58-18.57Z"/>
          </g>
          <g>
            <path class="cls-16" d="M280.41,245.45c-.12-.11-.25-.25-.38-.38-.25-14.78-9.84-10.06-15.59-13.85-3.71-2.45-6.31-15.62,11.35-14.82,4.48,6.41-11.25,5.12-9.62,8.47.39.79,12.17,4.89,13.85,6.93,2.42,2.93,2.4,11.22.38,13.66Z"/>
            <path class="cls-24" d="M81.46,232.36c-.62,1.07-4.01,3.16-2.69,9.62-4.65-1.68-12.06-2.15-11.16-8.66,1.46-10.49,12.68-.95,13.85-.96Z"/>
            <path class="cls-24" d="M91.46,218.12q.38,3.56.77,7.12-5.39,3.56-10.78,7.12c.43-.74,1.76-1.66,1.92-2.12,1.61-4.35-3.52-7.54-3.08-11.93l11.16-.19Z"/>
            <path class="cls-24" d="M286.18,190.03c-3.52-1.78-4.05-1.25-7.7-2.12,2.22-5.94,3.31-8.55,0-14.05-.42-.32-.51-.4,0,0-3.09-5.13-8.68-7.53-14.43-5-2.22-.44.76-4.73-7.89-9.43,6.75-12.47-9.12-22.62-17.12-10.97-14.19-15.96-34.05-23.04-53.88-12.31-13.49-15.28-38.97-13.45-52.91.19-1.35,1.32.05,3.22-10.2,7.5-1.59.07-8.01-8.7-17.12-1.15,0,0,0,0,0,0-2.33,1.93-4.51,5.16-4.62,8.27-.02.61,1.33,6.82,1.54,7.12-.95.16-1.86.7-2.69,1.15-6.19,3.37-4.16,2.8-7.12,8.85-14.79-1.21-20.3,13.16-9.81,23.28-2.07.67-4.12.89-6.16,1.73-1.6.66-2.57,1.1-3.85,2.31-7.31,6.88-3.9,16.56,4.62,20.2.51,1.44-3.13,3.52,0,10.78-14.55-1.67-19.74,14.78-6.16,21.17-2.9,7.12,2.29,16.48,10.2,13.66,6.4,6.26-1.59,6.32-.19,15.2,1.09,6.93,10.89,11.34,16.74,7.12,8.26,3.44,4.27,3.98,7.12,7.89,3.64,4.99,12.64,4.53,16.74.19,1.11.25.54,10.86,15.39,8.85,3.58-6.32,4.79-1.92,10.39-4.62,4.18-2.01,4.12-7.59,8.27-3.85,2.21-3.13,2.54-6.51,5.59-9.09.06-.56.12-1.13.17-1.6-5.15-1.78-20.47-10.82-25.2-14.86-7.53-6.43-10.75-16.42-10.48-15.55-1.09-.43-2.01-1.05-2.93-1.78-9.98-7.9-5.96-20.45-2.07-20.8.48-.04,2.07-.04,3.08.72.91.68,1.3,1.37,1.32,1.4.73-2.93,1.55-6.75,1.7-9.41.73-4.75.74-12.34.75-12.49.41-6.31,8.79-31.01,16.15-34.28,4.34-1.93,8.26,1.21,13.66-6.54,17.64,9.95,24.45-1.81,25.78-2.31,5.31-1.99,6.7,4.19,7.12,4.43,11.03,6.38,21.76,17.27,24.62,21.74.38.59,1.98,4.71,2.93,7.62,2.98,9.12,5.47,27.99,5.47,27.99,0,0,3.14-4.55,5.94-5.46-.05-.04,2.95-1.09,5.21,1.44,4.21,4.72,3.69,20.77-3.01,25.77-4,2.98-8.26,2.37-10.82,0-.98-.91-1.95-1.13-1.95-1.13,0,0-.28.59-.81,1.54-1.25,2.25-4.37,9.01-7.52,12.67-6.43,7.47-12.65,9.55-17.78,12.87.7,2.59,1.27,4.58,1.92,6.87.52,1.83,1.49,3.98,1.54,4.23,4.39.44,5.77,3.04,8.12,4.5.44.27,2.76.69,3.66.77,5.4,10.63,19.71,8.19,23.09-3.08,7.43,7.83,18.78,9.38,21.93-3.08,5.65.05,9.66.6,13.47-4.23,14.13,1.53,19.48-12.65,9.43-22.13l4.81-6.35c4.76,1.19,9.23.09,11.74-4.23,3.18-5.48,1.64-11.2-3.46-14.82,1.2-13.48-6.04-13.54-6.54-14.24-2.41-3.34,4.44-3.03,8.08-7.31,5.49-6.46,3.86-17.84-3.85-21.74"/>
            <path class="cls-16" d="M86.46,248.14c-.22.08-1.21,1.41-4.04,2.31-.45-.11-3.56-8.01-3.66-8.47-1.31-6.46,2.07-8.55,2.69-9.62q5.39-3.56,10.78-7.12-.38-3.56-.77-7.12c.08-2.2-6.48-5.53-10.78-8.47-1.69-3.57-.85-7.94,1.54-11.16,6.81-3.05,15.34-1.32,15.39-6.35,0-.41-1.71-4.63-1.92-7.89-.58-8.66,11.33-10.29,12.31-11.35.4-.44,1.4-4.54,1.54-5.58,1.1-1.71,2.6-3.05,3.85-4.62,1.77-2.22,2.87-.32,1.54-7.12,12.44-13.82,11.71-8.62,29.05-6.35,2.59-.6,2.57-11.75,8.08-12.7,7.71-1.32,9.69,8.31,6.54,10.78-2.96,2.32-2.58-2.08-5.39-6.16-3.04,18.23-14.26,12.19-28.09,10.39-6.82,4.69-3.6,8.19-4.43,10.58-.22.65-6.15,5.71-6.54,6.54-2.42,5.18,4.19,4.21-13.47,13.47-1.9,4.81,7.29,13.11-5.58,18.66-3.68,1.59-13.41,1.74-10.78,5,2.14,2.65,12.31,4.86,12.89,14.05,1.16,18.32-21.74,8.26-10.78,28.28Z"/>
            <g>
              <g>
                <path class="cls-16" d="M195.17,137.7c9.69-.91,16.72,15.71,35.02,9.62,8.89,11.8,16.38,8.18,12.51,22.51,2,.98,9.59,7.67,10.2,7.89,4.25,1.52,16.75-2.26,12.89,13.28,3.64,1.25,16.5,6.32,18.09,9.24,1.83,3.35.57,10.01-3.27,11.35-8.93,3.12-.66-7.39-.96-8.66-9.62-8.81-23.01-.64-17.7-18.86q-5.1-.48-10.2-.96c-6.48-8.51-10.18-6.23-12.51-9.04-6.17-7.46,9.63-17.41-15.2-14.05q-.96-3.27-1.92-6.54c-9.45.31-17.68-5.1-25.01-10.39-3.27-.23-13.2,6.23-10.97-.58.48-1.46,7.38-4.65,9.04-4.81Z"/>
                <path class="cls-38" d="M231.35,151.93c2.38-.17-1.98,1.66-2.69,1.92-9.25,3.37-2.68-1.53,2.69-1.92Z"/>
              </g>
              <path class="cls-1" d="M152.07,136.54c-5.51.95-5.5,12.1-8.08,12.7-17.34-2.27-16.61-7.47-29.05,6.35,1.33,6.8.23,4.9-1.54,7.12-1.25,1.57-2.75,2.91-3.85,4.62h0c-.14,1.04-1.13,5.14-1.54,5.58-.98,1.06-12.9,2.69-12.31,11.35.22,3.26,1.93,7.48,1.92,7.89-.06,5.03-8.58,3.3-15.39,6.35-2.39,3.22-3.23,7.59-1.54,11.16,4.3,2.94,10.86,6.27,10.78,8.47q-5.58.1-11.16.19c-.44,4.39,4.69,7.58,3.08,11.93-.17.46-1.49,1.37-1.92,2.12-1.18.02-12.4-9.53-13.85.96-.9,6.51,6.51,6.98,11.16,8.66.09.45,3.21,8.35,3.66,8.47,2.83-.9,3.82-2.23,4.04-2.31-10.96-20.03,11.93-9.97,10.78-28.28-.58-9.19-10.75-11.4-12.89-14.05-2.64-3.26,7.09-3.42,10.78-5,12.87-5.55,3.68-13.86,5.58-18.66,17.66-9.26,11.05-8.29,13.47-13.47.39-.83,6.32-5.89,6.54-6.54.83-2.39-2.39-5.89,4.43-10.58,13.83,1.8,25.05,7.84,28.09-10.39,2.81,4.07,2.43,8.47,5.39,6.16,3.15-2.46,1.17-12.1-6.54-10.78Z"/>
              <path class="cls-1" d="M266.17,224.86c-1.63-3.35,14.1-2.06,9.62-8.47-17.66-.8-15.06,12.36-11.35,14.82,5.74,3.79,15.33-.92,15.59,13.85.14.13.27.28.38.38,2.02-2.45,2.04-10.74-.38-13.66-1.68-2.04-13.47-6.13-13.85-6.93Z"/>
            </g>
          </g>
          <g>
            <path class="cls-44" d="M152.45,223.5c-.4-1.18-1.1-4.17-4.62-7.6-2.27-2.22-4.68-3.53-6.42-3.82-1.16-.16-2.21-.13-3.16.02-1.82-.08-4.58,1.17-6.39,2.61-4.73,3.77-3.68,10.04.87,12.77.2.12.43.23.66.34,2.61,1.42,4.63,1.45,7.41,1.54,0,0,5.03.33,11.31-2.21.38-.15,1.14-.57,1.14-.57,0,0-.18-1.64-.81-3.08Z"/>
            <path class="cls-8" d="M127.16,212.11c2.13,1.79,5.15-4.96,13.74-4.18,7.03.64,12.54,9.72,12.28,17.96-.94-1.67-1.79-4.17-2.07-4.47-.04-.05-.15.01-1.04-.69.94-3.25-5.61-8.26-8.65-8.65-5.28-.68-8.68,1.96-11.07,6.23-.11.21-.47.94-.69,1.73-.91,3.2.83,6.24,3.75,7.78-.6,0-3.07-1.61-3.41-1.9-3.24-2.77-6.13-10.08-6.09-14.63-.08-.89.25-3.69.67-2.57.8,2.13,1.97,2.87,2.58,3.38Z"/>
            <path class="cls-8" d="M140.63,222.48c1.53-.4,2.04-2.53,1.78-3.92,9.03-1.17,3.15,13.09-1.78,3.92Z"/>
            <path class="cls-11" d="M151.12,222.2c0-.16-.03-.31-.04-.47,0-.11,0-.22,0-.33,0,0-.02-.01-.03-.02-.67-5.32-6.76-8.95-9.66-9.32-.29,1.16-2.16,2-2.77,3.11-.12.22-.65,1.71,0,1.73,1.63-.06,2.13.26,2.77.35.06.34,1.02,1.3,1.04,1.38,8.76-1.13,3.06,12.7-1.73,3.81-1.83.47-3.46-1.26-3.81-.52.65,3.01,1.02,5.59,3.81,7.09,1,.54,2.62.4,6.23-.25,3.02-.54,4.02-3.68,4.14-6.61.01.01.04.03.05.04Z"/>
            <path class="cls-44" d="M192.87,214.62c.73-.15,3.05-.43,4.07-.38,2.37.12,4.76,1.76,4.76,1.76,5.87,4.09,8.19,7.5,2.6,13.15-.55.25-2.29,1.01-2.42,1.04-4.63,1.13-17.1,1.09-21.8-1.61-.01,0-.03-.02-.04-.02-.24-.14-.21-2.34.04-3.21,2.78-5.47,6.4-9.8,12.8-10.73Z"/>
            <g>
              <path class="cls-8" d="M209.14,217.73c1.75,1.42,2.98.57,4.22-.95.73-.8.66-1.26.84-.99.22.31.22,1.49-.27,3.02-1.1,3.47-4.25,7.93-9.64,10.33,5.6-5.65,3.28-9.07-2.6-13.15,0,0-1.55-1.15-4.5-1.73-1.46-.29-2.89.14-4.33.35-6.4.93-10.03,5.26-12.8,10.73,1.21-11.09,9.73-18.26,21.28-14.19,4.61,1.63,6.63,5.64,7.79,6.58Z"/>
              <path class="cls-10" d="M203.6,221.19c-.16-1.93-2.53-6.27-6.4-6.92-1.47-.25-2.9.14-4.33.35-3.44,4.85-1.79,2.47,1.21,3.46.33.11.91.66,1.21,1.04.19.24,1.23.15,3.11.69,4.01,4.68-2.44,9.41-5.19,3.81-1.54.23-3.38-1.4-3.46-1.21.22,11.53,15.07,10.22,13.84-1.21Z"/>
              <path class="cls-8" d="M198.41,219.81c4.01,4.68-2.44,9.41-5.19,3.81,1.87-.28,3.1-2.83,2.08-4.5,1.34-.15,2.28-.01,3.11.69Z"/>
            </g>
          </g>
          <path class="cls-41" d="M228.61,246.84l.81,1.61c.81,1.61-2.42,2.42-2.42,2.42-.94.3-1.61.81-2.42,0l.81-4.03c.81-1.61,2.95-.37,3.22,0Z"/>
          <g>
            <path class="cls-34" d="M229.42,253.29c0-1.61,0-4.03-.81-4.84-.81-.81-1.44-1.63-2.42-.81-.69.58-1.49,3.71-1.61,5.64-.04.64.29,2.75.85,3.18,1.59,1.23,2.64,1.03,3.19.17,1.61-2.54.8-2.24.8-3.35Z"/>
            <path class="cls-3" d="M229.86,252.65c-.17-2.25-.36-3.9-1.25-4.19-2.42-.81-.81,2.42-3.22,4.03-.95.63-.45,2.68,0,3.22,2.74,3.33,4.65-.84,4.47-3.06Z"/>
          </g>
          <g>
            <path class="cls-8" d="M126.03,200.75c-.26-.03-.46-.21-.32-.44.99-1.59,3.75-5.9,5.56-7.08,1.83-1.19,7.59-3.99,11.73-3.22,3.25.61,3.34,3.62,3.36,4.92,0,.03-.02.05-.04.07-2.14,1.24-3.55.31-7.2.03-1.41-.11-2.61,0-3.93.37-2.07.6-3.92,1.94-5.67,3.93-.53.6-2.17,1.58-3.5,1.42Z"/>
            <path class="cls-8" d="M206.75,194.97c.09.44,1.85,2.6,2.32,4.35l-.87.87c-11.96-8.3-21.04-.24-23.51-5.8,2.06-1.78,2.56-9.57,22.06.58Z"/>
          </g>
          <g>
            <path class="cls-25" d="M173.68,240.68c1.45,6.45-16.31,9.11-16.83,1.74,4.51,4.49,12.07,1.81,16.83-1.74Z"/>
            <g>
              <path class="cls-36" d="M188.48,245.9c2.12.21,4.05,1.28,4.93,3.19-6.86.48-9.83,20.24-23.51,22.35-20.29,3.13-12.02-20.63-22.35-15.96.57-7.51,32.12-.24,43.53-6.97l-2.61-2.61Z"/>
              <path class="cls-18" d="M184.41,252.87c3.57-.5-3.91,6.72-5.22,7.55-7.31,4.59-24.77,5.98-24.38-3.48,12.22,2.88,27.92-3.83,29.6-4.06Z"/>
            </g>
            <path class="cls-19" d="M160.62,237.78c1.78,1.35,4.27,1.8,4.35,2.03,1.28,3.65-5.39,3.98-4.35-2.03Z"/>
          </g>
          <g>
            <path class="cls-4" d="M157.8,216.24c0,12.69-12.33,21.76-22.57,21.76s-15.32-8.27-15.32-20.96,7.49-17.73,17.73-17.73,20.15,4.24,20.15,16.93Z"/>
            <path class="cls-4" d="M221.48,217.2c0,18.39-14.43,24.03-26.41,24.03s-17.92-9.13-17.92-23.14c0-16.36,8.77-19.58,20.75-19.58,15.52,0,23.58,4.68,23.58,18.69Z"/>
            <g>
              <path class="cls-8" d="M225.51,224.3c3.35-7.81-3.49-16.7-4.62-19.18-1.75-3.85-4.87-6.64-7.47-7.42-1.61-.48-4.84-.81-10.48-.81-4.84,0-23.38-2.42-27.81,11.05-5.81-2.46-10.14-2.09-16.12-.81-1.21-2.18-4.45-9.4-16.52-10.24-1.55-.11-7.38-.57-12.9.81-6.45,1.61-6.33,2.3-8.06,4.03s-3.71,7.88-4.03,14.51c-.28,5.68,1.61,13.7,2.42,15.32.51,1.02,2.42,4.84,4.64,6.01,6.96,4.01,12.1,4,17.13,3.66,12.09-.81,21.24-14.88,20.96-26.43,17.11-1.56,6.06,2.76,14.71,18.34,2.07,3.72,7.86,8.9,13.5,10.51,3.95,1.13,11.94,1.43,18.54-1.61,10.48-4.84,14.27-13.41,16.12-17.73ZM155.99,218.43c-.21,6.08-2.68,10.86-6.56,13.98-4.98,4.01-12.28,5.26-20.04,2.95-4.64-1.38-6.27-5.07-7.05-7.02-3.22-8.06,0-19.35.81-21.76,1.55-4.65,8.38-6.18,12.9-6.45,6.94-.41,13.98.2,17.53,7.02,1.68,3.23,2.54,7.62,2.42,11.28ZM182.59,233.14c-2.84-3.81-4.32-11.24-4.43-15.92-.3-12.84,4.17-15.39,16.12-16.52,4.49-.43,9.24-.7,13.7,0,.65.1,1.96.28,2.42.4,1.71.45,3.42,1.08,4.67,2.29.38.37,3.51,4.82,4.8,13.66.4,2.73,0,6.45-1.38,10.2,0,.02-.02.03-.03.04-7.19,16.41-29.1,14.92-35.87,5.84Z"/>
              <path class="cls-12" d="M236.57,212.4c-.41-.57-10.36-6.42-12.11-7.17-1.97-.84-3.86-1.85-4.19-1.59.46,1.92,6.25,10.45,6.09,15.14-.02.73,1.56.9,1.56.9l.08-.63c7.34.3,9.79-1.22,12.12.5-.17-1.32-2.89-6.23-3.55-7.15Z"/>
              <g>
                <path class="cls-42" d="M118.56,208.77l-8.06,3.63c-.42-.89-2.13-7.79-1.01-8.46,18.37-2.77,14.27-8.27,9.07,4.84Z"/>
                <path class="cls-8" d="M118.56,208.77l-1.01,8.06c-2.61-1.69-5.59-1.35-7.05-4.43l8.06-3.63Z"/>
              </g>
              <path class="cls-8" d="M235.37,224.83c.3-.14,3.91-4.51,4.74-5.29-2.2-1.62-4.82-.77-10.96-.49-7.71-.27-8.26-2.85-8.26-2.85l.51,2.5c-.06.44.16,2.01.37,3.6l3.56,2.34c2.98-3.04,4.25-3.86,7.52-2.66,1.67.97,2.2,2.37,2.53,2.85Z"/>
            </g>
          </g>
        </g>
        <path class="cls-14" d="M296.32,132.64c-3.25-16.87-78.88-20.91-93.7-21.36-11.81-.36-26.33-.33-38.16,0-18.85.53-75.26,5.13-90.57,11.96-29.02,12.96-25.54,142.09-11.11,160.34,11.74,14.85,75.07,15.98,93.7,13.95,37.84-4.1,83.51-22.84,109.08-51.55,27.44-30.81,31.21-73.61,30.76-113.35Z"/>
      </g>
    </g>
  </g>
</svg>