<?xml version="1.0" encoding="UTF-8"?>
<svg id="Layer_2" data-name="Layer 2" xmlns="http://www.w3.org/2000/svg" viewBox="0 0 349.71 548.27"><defs>
    <style>
      .cls-1 {
        fill: none;
      }

      .cls-2 {
        fill: #c45f41;
      }

      .cls-3 {
        fill: #232323;
      }

      .cls-4 {
        fill: #eaeaea;
      }

      .cls-5 {
        fill: #3a310b;
      }

      .cls-6 {
        fill: #f7b750;
      }

      .cls-7 {
        fill: #dec9e2;
      }

      .cls-8 {
        fill: #f4f4f4;
      }

      .cls-9 {
        fill: #dbdbdb;
      }

      .cls-10 {
        fill: #281a26;
      }

      .cls-11 {
        fill: #f0935d;
      }

      .cls-12 {
        fill: #bdeded;
      }

      .cls-13 {
        fill: #c12e4b;
      }

      .cls-14 {
        fill: #f8ae89;
      }

      .cls-15 {
        fill: #fbfbfc;
      }

      .cls-16 {
        fill: #2e1638;
      }

      .cls-17 {
        fill: #cc5637;
      }

      .cls-18 {
        fill: #8a788e;
      }

      .cls-19 {
        fill: #f1dff4;
      }

      .cls-20 {
        fill: #fcf8e9;
      }

      .cls-21 {
        opacity: .2;
      }

      .cls-21, .cls-22 {
        fill: #7aebe9;
      }

      .cls-23 {
        fill: #ac4a30;
      }

      .cls-24 {
        fill: #e6794d;
      }

      .cls-25 {
        fill: #e5d4e8;
      }

      .cls-26 {
        fill: #f7c192;
      }

      .cls-27 {
        fill: #661b6a;
      }

      .cls-28 {
        fill: #ffd229;
      }

      .cls-29 {
        fill: #ffc012;
      }

      .cls-30 {
        fill: #d7643c;
      }

      .cls-31 {
        fill: #353535;
      }

      .cls-32 {
        fill: #2b0f33;
      }

      .cls-33 {
        fill: #320532;
      }

      .cls-34 {
        fill: #1d121b;
      }

      .cls-35 {
        fill: #e8e8e8;
      }
    </style>
  </defs>
  <g id="THEOLOGY">
    <g>
      <g>
        <g>
          <g>
            <g>
              <path class="cls-35" d="M211.1,275.06c-5.45,4.88-9.24,10.33-12.97,16.59.09,1.17-.46,1.34,1,1.48,7.14.69,14.13-15.21,22.78-16.92,9.72-7.21,20.81-6.33,32.31-7.21-16.27-1.66-25.02-5.39-42.94,8.62-2.78,2.18-6.77,3.99-2.99.56.81-.73,2.41-1.91,2.81-3.12Z"/>
              <path class="cls-8" d="M257.82,322.78c4.27,5.95,8.48,12.02,11.23,18.86.97.07,1.16.31,2.22-.3.89-2.4-.46-6.32-1.78-8.49-3.25-2.4-7.08-10.13-10.29-10.58-.58-.08-.96.19-1.39.51Z"/>
              <path class="cls-8" d="M307.23,322.67c.98-3.15-2-5.09-4.7-6.16-1.57-.62-9.02-2.04-19.95-6.71,2.89,2.74,20.55,12.14,23.22,13.06.61.21.91.31,1.43-.19Z"/>
              <path class="cls-8" d="M326.45,311.71c2.32-3.96.24-5.4-3.51-6.96-7.04,1.08-13.91-.02-20.82-1.11-1.18-.29-.3.47-.25.52,2.35,2.17,19.01,3.91,24.58,7.55Z"/>
              <path class="cls-8" d="M287.17,332.12c2.92-4.35-1.57-7.67-3.4-9.37-.08-.07-.2-.21-.33-.28-4.78-2.46-6.56-4.32-10.78-7.16,3,4.82,7.52,8.8,11.13,13.22.99,1.21,2.01,4.42,3.38,3.59Z"/>
              <path class="cls-9" d="M242.52,350.98c.75-2.64-1.08-5.1-2.56-7.09-.17-.24-3.69-4.23-3.97-4.32-.38-.12-2.98.58-3.89-.13-.73.59,7.02,13.53,10.42,11.53Z"/>
              <path class="cls-9" d="M256.51,346.86c2.64-2.45,1.34-6.02-.19-8.7-2.22-2.54-4.54-5.27-7.13-7.45-.19.02-.62.01-.61.24.01.89,6.91,13.86,7.93,15.9Z"/>
            </g>
            <path class="cls-4" d="M198.11,291.51c-1.6,2.68-3.31,5.38-4.38,8.34,1.72.45,3.75.79,5.56,1.13.67.12,1.28.34,1.87.7,2.29,1.38,5.37,6.59,5.49,6.76,7.66,11.18,19.74,39.44,24.94,42.67.11.11.21.22.34.33,2.51,1.49,9.48,3.5,10.6-.44-3.4,1.99-11.15-10.94-10.42-11.53.91.71,3.51,0,3.89.13.28.09,3.79,4.08,3.97,4.32,4.22,2.45,11.6,6.33,16.27,3.33.41-.27.26-.34.28-.36-1.02-2.04-7.92-15.01-7.93-15.9,0-.23.42-.22.61-.24,2.59,2.18,4.91,4.91,7.13,7.45,2.09,2.72,13.4,7.36,14.96,3.18-1.07.61-1.25.36-2.22.3-2.75-6.83-6.96-12.91-11.23-18.86.62-.37.81-.59,1.39-.51,3.21.45,7.04,8.18,10.29,10.58,3.99,2.94,8.71,4.14,13.56,2.39,1.81-.65,3.04-1.54,4.11-3.13-1.37.83-2.4-2.38-3.38-3.59-3.6-4.42-8.13-8.4-11.13-13.22,4.28,2.88,6.04,4.75,10.98,7.26,5.96,3.03,16.54,7.06,22.22,1.89.85-.77,1-1.04,1.38-1.8-.51.5-.81.4-1.43.19-2.66-.92-20.33-10.32-23.22-13.06,10.93,4.67,18.38,6.09,19.95,6.71,2.2.18,4.39.94,6.6,1.06,5.56.31,14.2-.55,17.31-5.86-4.42-3.94-23.78-6.36-24.26-7.56-.03-.06.03-.28-.07-.51,6.91,1.09,13.78,2.18,20.82,1.11,5.36-.82,8.61-1.94,12.87-5.27.9-.7,1.99-1.47,2.76-2.31,4.48-4.89,6.65-13.25,3.98-13.77-.72-.14-12.3,2.16-14.4,2.24,4.26-.08,8.36-.8,12.58-1.35-9.78,7.94-55.02,5.77-55.09,4.75,7.72.56,20.99,2.08,28.41-.09,1.64-.48,3.96-1.47,5.53-2.16,0,0-.02,0-.03,0,.02,0,.04,0,.05-.02,9.24-4.08,22.73-13.95,26.98-23.57.07-.16-.08-.33-.25-.29-6.2,1.41-12.33,3.31-15.68,3.99-2.62.53-11.35,1.5-13.17,1.75-15.19,2.1-29.9,2.88-45.26,2.15l-11.33-1.13c-2.41-.31-4.81-.6-6.69-.8-11.5.88-22.59,0-32.31,7.21-8.65,1.71-15.64,17.61-22.78,16.92-1.46-.14-.92-.31-1-1.48ZM290.71,275.55c.11,0,.22,0,.33-.02,0,0-.02,0-.02,0-.1,0-.2,0-.3.01Z"/>
          </g>
          <path class="cls-8" d="M205.55,280.61c-1.97,2.61-1.82,2.26-2.43,3.36-.43.77,6.24-4.86,8.15-6.35,17.92-14.01,26.67-10.28,42.94-8.62,6.17.63,11.71,1.5,18.01,1.8,15.36.73,30.07-.05,45.26-2.15,1.83-.25,10.55-1.22,13.17-1.75,2.99-.6,8.19-2.18,13.68-3.52.99-.24,1.8.82,1.3,1.71-5.05,9-17.42,17.89-26.06,21.7-1.57.69-3.91,1.77-6.44,2.37-7.13,1.67-21.81.3-29.53-.25.01.19,9.59,1.97,11.5,2.11,12.59.96,36.35,1.84,47.44-7.61-4.21.55-10.19,1.73-14.4,2.24-.51.06,4.84-3.06,10.55-6.9,3.25-2.18,5.71-5.17,8.12-8.19,3.32-5.23,3.08-10.33,2.67-11.5-.54-.78-11.36,3.93-26.32,7.05.35-.1.7-.19,1.05-.3-19.66,3.01-35.34,1.26-54.55.16-.01,0-.02,0-.03,0,0,0,0,0-.01,0,0,0,.02,0,.03,0-20.86-1.2-41.26-6.39-58.55,9.08-1.01.84-4.89,4.69-5.54,5.56ZM242.92,265.62s-.03.04-.04.06c0-.02.02-.04.04-.06ZM242.87,265.72s-.01.06-.02.09c0-.03,0-.06.02-.09ZM306.8,268.46c.94-.08,1.89-.16,2.83-.25-.94.09-1.88.18-2.83.25ZM242.87,266.02c.03.09.09.17.18.23,0,0-.01,0-.02,0-.07,0-.13-.1-.16-.23ZM242.85,265.89s0,.05,0,.07c0-.02,0-.05,0-.07Z"/>
        </g>
        <g>
          <g>
            <g>
              <path class="cls-35" d="M107.17,271.97c4.2,3.79,7.12,8.01,9.99,12.86-.07.9.35,1.04-.78,1.14-5.52.52-10.89-11.8-17.58-13.14-7.5-5.6-16.08-4.95-24.97-5.66,12.59-1.24,19.37-4.11,33.19,6.78,2.15,1.69,5.22,3.1,2.31.44-.62-.57-1.86-1.48-2.17-2.42Z"/>
              <path class="cls-8" d="M70.91,308.76c-3.32,4.59-6.59,9.28-8.73,14.55-.75.05-.89.24-1.72-.23-.68-1.86.37-4.88,1.39-6.56,2.52-1.85,5.5-7.82,7.99-8.16.45-.06.74.15,1.07.4Z"/>
              <path class="cls-8" d="M32.7,308.55c-.75-2.44,1.56-3.93,3.65-4.75,1.22-.48,6.98-1.55,15.45-5.14-2.24,2.11-15.93,9.34-17.99,10.04-.48.16-.71.24-1.1-.15Z"/>
              <path class="cls-8" d="M17.87,300.03c-1.78-3.07-.17-4.18,2.73-5.38,5.44.85,10.76.02,16.11-.8.91-.22.23.37.2.4-1.82,1.67-14.71,2.98-19.03,5.78Z"/>
              <path class="cls-8" d="M48.19,315.91c-2.25-3.37,1.24-5.93,2.66-7.24.06-.06.15-.16.25-.22,3.71-1.89,5.09-3.33,8.36-5.51-2.33,3.72-5.84,6.78-8.64,10.19-.77.93-1.57,3.41-2.63,2.77Z"/>
              <path class="cls-9" d="M82.68,330.61c-.57-2.05.85-3.94,2-5.48.14-.18,2.86-3.26,3.08-3.33.29-.09,2.31.46,3.01-.09.56.46-5.46,10.44-8.09,8.89Z"/>
              <path class="cls-9" d="M71.87,327.39c-2.04-1.9-1.02-4.66.17-6.73,1.72-1.96,3.52-4.07,5.53-5.74.15.02.48,0,.47.19-.01.69-5.38,10.7-6.17,12.28Z"/>
            </g>
            <path class="cls-4" d="M116.4,285.87c-5.52.52-10.89-11.8-17.58-13.14-7.5-5.6-16.08-4.95-24.97-5.66-1.46.14-3.31.36-5.18.6l-8.76.85c-11.88.53-23.26-.11-35-1.77-1.41-.2-8.16-.97-10.18-1.39-2.59-.53-7.32-2.02-12.12-3.12-.13-.03-.25.1-.19.23,3.26,7.45,13.67,15.11,20.81,18.3.01,0,.03,0,.04.01,0,0-.01,0-.02,0,1.21.54,3,1.31,4.27,1.69,5.73,1.7,16,.55,21.97.14-.05.79-35.05,2.36-42.59-3.81,3.26.43,6.43,1,9.73,1.08-1.63-.07-10.58-1.87-11.13-1.77-2.06.39-.41,6.87,3.04,10.66.59.65,1.44,1.24,2.13,1.79,3.28,2.58,5.79,3.46,9.94,4.1,5.44.85,10.76.02,16.11-.8-.08.18-.04.35-.05.4-.38.92-15.36,2.75-18.78,5.78,2.39,4.12,9.07,4.8,13.37,4.57,1.71-.09,3.4-.67,5.11-.8,1.22-.48,6.98-1.55,15.45-5.14-2.24,2.11-15.93,9.34-17.99,10.04-.48.16-.71.24-1.1-.15.29.59.4.79,1.06,1.39,4.37,4.01,12.57.93,17.19-1.4,3.82-1.93,5.2-3.37,8.51-5.59-2.33,3.72-5.84,6.78-8.64,10.19-.77.93-1.57,3.41-2.63,2.77.82,1.23,1.77,1.92,3.17,2.43,3.75,1.36,7.4.45,10.5-1.82,2.52-1.85,5.5-7.82,7.99-8.16.45-.06.59.1,1.07.4-3.32,4.59-6.59,9.28-8.73,14.55-.75.05-.89.24-1.72-.23,1.19,3.24,9.96-.32,11.58-2.42,1.72-1.96,3.52-4.07,5.53-5.74.15.02.48,0,.47.19-.01.69-5.38,10.7-6.17,12.28.01.01-.11.07.21.28,3.6,2.33,9.33-.64,12.59-2.53.14-.18,2.86-3.26,3.08-3.33.29-.09,2.31.46,3.01-.09.56.46-5.46,10.44-8.09,8.89.85,3.05,6.25,1.52,8.2.37.09-.08.17-.17.26-.25,4.03-2.48,13.45-24.31,19.4-32.94.09-.13,2.48-4.15,4.26-5.21.46-.27.92-.44,1.45-.54,1.41-.26,2.97-.51,4.31-.86-.82-2.29-2.14-4.38-3.37-6.46-.07.9.35,1.04-.78,1.14ZM45.36,272.14s-.01,0-.02,0c.08,0,.17,0,.25.01-.08,0-.16,0-.23,0Z"/>
          </g>
          <path class="cls-8" d="M107.17,271.97c-13.33-12.01-29.12-8.05-45.26-7.17,0,0,.01,0,.02,0,0,0,0,0-.01,0,0,0-.02,0-.02,0-14.87.81-26.99,2.12-42.19-.26.27.09.54.15.81.23-11.56-2.45-19.91-6.12-20.34-5.52-.32.9-.52,4.85,2.04,8.9,1.85,2.34,3.75,4.65,6.26,6.35,4.41,2.98,8.54,5.41,8.14,5.36-3.26-.4-7.87-1.33-11.13-1.77,8.55,7.33,26.93,6.72,36.67,6,1.47-.11,8.89-1.45,8.9-1.6-5.97.41-17.33,1.43-22.84.12-1.95-.46-3.76-1.31-4.97-1.85-6.68-2.97-16.22-9.87-20.1-16.85-.38-.69.24-1.5,1.01-1.32,4.25,1.05,8.27,2.28,10.57,2.75,2.02.42,8.77,1.19,10.18,1.39,11.74,1.66,23.12,2.3,35,1.77,4.87-.22,9.15-.88,13.93-1.35,12.59-1.24,19.37-4.11,33.19,6.78,1.48,1.16,6.62,5.53,6.29,4.94-.47-.85-.36-.58-1.87-2.6-.51-.68-3.49-3.66-4.27-4.31ZM82.61,264.64s-.02-.03-.03-.05c.01.02.02.03.03.05ZM82.63,264.74s0-.05-.01-.07c0,.02.01.05.01.07ZM30.98,266.43c.73.07,1.46.13,2.19.2-.74-.06-1.47-.12-2.19-.2ZM82.5,265.08s-.01,0-.02,0c.07-.04.12-.1.14-.18-.02.1-.07.17-.13.18ZM82.63,264.85s0-.04,0-.05c0,.02,0,.04,0,.05Z"/>
        </g>
      </g>
      <g>
        <g>
          <path class="cls-24" d="M191.88,262.67l5.34,10.57c3.2,6.33,8.9,11.04,15.72,13l12.46,3.57-18.07,36.71-66.92,22.87-31.85-12.24,10-49.33s19.11-2.1,23.97-5.91c2.23-1.74,5.13-11.41,5.13-11.41,0,0,1.81,6.13,6.78,11.37,1.58,1.66,7.29,4.56,7.29,4.56l30.15-23.75Z"/>
          <g>
            <g>
              <path class="cls-17" d="M189.89,256.85c-9.09,11.59-21.81,20.53-36,24.5-2.36-3.08-5.37-5.97-6-10-.45-2.9.19-7.89.5-11,.07-.73.15-4.25.5-4.86,12.44,2.19,27.65-1.76,38.5-7.64,1.21,2.88,1.66,6.03,2.5,9Z"/>
              <path class="cls-24" d="M191.89,262.35c.39,2.05.72,4.18,1,6.25-7.26,8.67-18.31,15.14-29,18.75-2.48.84-1.89.97-2,1-.74.17-.36.73-2.5-.5-.28-.16-1.31-.83-1.5-1-.26-.22-3.39-4.71-4-5.5,14.19-3.97,26.91-12.91,36-24.5.67,2.38,1.94,5.17,2,5.5Z"/>
            </g>
            <g>
              <path class="cls-11" d="M220.65,159.34s-6.44-19.74-10.08-25.56c-4.81-7.69-19.05-20.76-27.72-23.4-8.71-2.65-26.18-2.64-36.4-.73,0,0-32.82,1.73-41.14,39.7-.94,4.3,3.47,25.35-1.5,42.9-.09.32-.14.65-.14.98v7.55c2.59,9.21,3.89,21.19,12.53,31.65,7.61,9.21,31.57,23.86,35.88,24.27,2.26.08,9.06-1.41,19.05-5.59,9.16-3.84,22.2-12.35,27.89-20.52,2.79-4.01,12.29-22.94,10.07-25.68,7.3-3.43,16.67-4.19,16.67-15.97,0-5.05-2.94-19.94-5.1-29.59ZM120.27,207.54c1.03.09,2.08.13,3.16.11-1.03.04-2.09,0-3.16-.11ZM177.07,204.52c.99.49,2.08.94,3.27,1.35-1.16-.38-2.25-.83-3.27-1.35Z"/>
              <path class="cls-30" d="M225.54,188.76c.06-.09,1.34-1.31-1.39-12.61-.8-3.84-2.6-12.74-2.6-12.74,0,0-.45-.64-1.11-1.37-.54-.59-1.23-1.23-1.8-1.71-7.14-5.96-20.51-5.64-24.33-5.66-8.48-.09-16.76,1.17-20.81,6.02-4.18,5.01-3.97,13.78-2.53,24.56.31,1.3,1.12,4,1.08,3.36-.1-1.67,1.06-6.72,2.37-9.57,2.25-4.92,4.62-8.13,10.93-10.58,15.64-6.05,31.83,20.59,32.55,21.79-1.8,6.6-5.1,12.32-11.07,14.7,3.89.67-5.67,21.3-8.64,25.56-5.68,8.17-18.56,15.97-27.72,19.8-9.98,4.18-16.68,6.28-18.99,6.23.17.06.07.12.64.16,15.33,1.15,24.21-2.52,37.43-10,19.85-11.23,20.3-13.57,30.24-32.4,1.1-2.09,1.09-4.53,2.88-6.84.38-.49,9.73-1.54.72-7.92,13.28-19.13,20.35-3.89,12.96,6.48-6.8,9.55-18.62-4.15-10.8,11.88,25.69,5.04,20.19-57.31,0-29.16Z"/>
              <path class="cls-23" d="M225.54,217.93c-2.56-.5-3.24-2.94-5.76-3.6,1.1-2.09,1.09-4.53,2.88-6.84.38-.49,9.73-1.54.72-7.92,13.28-19.13,20.35-3.89,12.96,6.48-6.8,9.55-18.62-4.15-10.8,11.88Z"/>
            </g>
            <path class="cls-14" d="M103.96,199.51c3.5,16.27,5.03,23.58,11.87,32.34,4.4,5.63,24.09,20.16,35.68,24.72-5.49-.09-34.05-16.97-40.23-24.75-6.68-8.4-8.31-18.44-8.47-25.05-.04-1.66.29-4.97.48-6.62.08-.68.39-2.73.39-2.73,0,0,.18,1.59.29,2.09Z"/>
            <path class="cls-24" d="M113.21,162.48c-1.88.06,1.36-4.44,2.23-6.28,1.06-2.92,1.12-6.36,2-9.25,6.04-19.79,23.82-27.78,10.5-24.25-10.51,2.79-20.82,35.08-21.94,44.67,0,.01.18,6.15.18,6.15,2.51-3.22,3.62-4.22,7.97-6.63,8.46-4.67,18.39-1.27,22.4,9.26.04.12,2.35,10.41,2.39,11.24.02.42.04-9.38.19-10.88-.96-13.22-15.39-14.39-25.92-14.04Z"/>
            <g>
              <path class="cls-24" d="M103.7,197.81c-10.31,3.67-5.4,11.06-2.85,18.16-12.38-9.8-7.4-25.37-2.57-25.81.6-.05,2.57-.04,3.82.89,1.15.86,1.63,1.73,1.63,1.73,0,0,0,3.37-.04,5.02Z"/>
              <path class="cls-30" d="M101.57,192.93c.86-.04,2.13,1.32,2.1,4.07-.03,2.31-.95,7.35-.78,11.64,0,0,.48,5.68,1.6,9.55-1.36-.54-2.49-1.3-3.64-2.21-2.55-7.1-9.59-19.37.72-23.04Z"/>
            </g>
            <g>
              <path class="cls-10" d="M296.77,211.41c-.14-.13-.31-.32-.48-.48-.31-18.33-12.21-12.48-19.34-17.19-4.6-3.04-7.83-19.38,14.08-18.38,5.56,7.95-13.96,6.35-11.94,10.5.48.99,15.1,6.07,17.19,8.59,3,3.63,2.98,13.91.48,16.95Z"/>
              <path class="cls-34" d="M49.94,195.18c-.77,1.33-4.97,3.92-3.34,11.94-5.77-2.09-14.97-2.67-13.84-10.74,1.81-13.02,15.73-1.17,17.19-1.19Z"/>
              <path class="cls-34" d="M62.36,177.52l.95,8.83q-6.68,4.42-13.37,8.83c.54-.92,2.18-2.06,2.39-2.63,2-5.39-4.36-9.36-3.82-14.8l13.84-.24Z"/>
              <path class="cls-34" d="M303.93,142.67c-4.37-2.21-5.02-1.55-9.55-2.63,2.76-7.37,4.11-10.61,0-17.43-.52-.4-.64-.5,0,0-3.84-6.37-10.77-9.34-17.9-6.21-2.75-.54.94-5.86-9.79-11.7,8.37-15.47-11.31-28.07-21.24-13.61-17.61-19.8-42.25-28.58-66.84-15.28-16.73-18.96-48.35-16.68-65.64.24-1.68,1.64.06,3.99-12.65,9.31-1.97.09-9.93-10.8-21.24-1.43,0,0,0,0,0,0-2.89,2.39-5.59,6.4-5.73,10.26-.03.76,1.65,8.46,1.91,8.83-1.18.2-2.31.87-3.34,1.43-7.68,4.19-5.16,3.47-8.83,10.98-18.35-1.5-25.18,16.33-12.17,28.88-2.57.83-5.11,1.11-7.64,2.15-1.99.82-3.19,1.37-4.77,2.86-9.07,8.54-4.83,20.54,5.73,25.06.64,1.79-3.89,4.36,0,13.37-18.05-2.07-24.49,18.34-7.64,26.26-3.6,8.83,2.84,20.44,12.65,16.95,7.94,7.76-1.98,7.84-.24,18.86,1.36,8.6,13.51,14.07,20.77,8.83,10.25,4.27,5.3,4.94,8.83,9.79,4.51,6.19,15.68,5.61,20.77.24,1.38.31.67,13.47,19.1,10.98,4.44-7.84,5.94-2.38,12.89-5.73,5.18-2.5,5.11-9.42,10.26-4.77,2.74-3.89,3.15-8.08,6.93-11.28.07-.7.14-1.4.21-1.99-6.38-2.21-25.4-13.42-31.26-18.43-9.34-7.98-13.33-20.37-13.01-19.3-1.36-.54-2.49-1.3-3.64-2.21-12.38-9.8-7.4-25.37-2.57-25.81.6-.05,2.57-.04,3.82.89,1.13.85,1.61,1.7,1.63,1.73.9-3.64,1.92-8.38,2.1-11.67.91-5.89.92-15.31.93-15.49.51-7.83,10.9-38.47,20.04-42.53,5.38-2.39,10.25,1.5,16.95-8.12,21.88,12.34,30.33-2.24,31.99-2.86,6.58-2.47,8.32,5.19,8.83,5.49,13.69,7.91,27,21.42,30.54,26.98.47.73,2.46,5.84,3.64,9.46,3.7,11.31,6.79,34.73,6.79,34.73,0,0,3.9-5.64,7.37-6.78-.07-.05,3.66-1.35,6.46,1.78,5.22,5.85,4.58,25.77-3.74,31.97-4.96,3.7-10.25,2.94-13.43,0-1.22-1.12-2.42-1.4-2.42-1.4,0,0-.35.73-1,1.91-1.55,2.8-5.42,11.17-9.33,15.71-7.98,9.27-15.7,11.85-22.05,15.97.87,3.22,1.58,5.68,2.38,8.52.64,2.27,1.85,4.93,1.91,5.25,5.45.54,7.16,3.77,10.08,5.58.54.34,3.43.86,4.54.95,6.7,13.18,24.45,10.16,28.64-3.82,9.21,9.72,23.29,11.63,27.21-3.82,7.01.07,11.98.74,16.71-5.25,17.53,1.89,24.17-15.7,11.7-27.45l5.97-7.88c5.9,1.47,11.45.11,14.56-5.25,3.95-6.8,2.04-13.9-4.3-18.38,1.49-16.72-7.49-16.8-8.12-17.66-2.99-4.15,5.51-3.75,10.03-9.07,6.81-8.02,4.79-22.13-4.77-26.97"/>
              <path class="cls-10" d="M56.15,214.76c-.27.1-1.5,1.75-5.01,2.86-.56-.14-4.42-9.94-4.54-10.5-1.63-8.01,2.57-10.6,3.34-11.94q6.68-4.42,13.37-8.83l-.95-8.83c.1-2.73-8.04-6.86-13.37-10.5-2.1-4.42-1.05-9.85,1.91-13.84,8.45-3.78,19.02-1.63,19.1-7.88,0-.5-2.12-5.75-2.39-9.79-.72-10.74,14.06-12.77,15.28-14.08.5-.54,1.74-5.63,1.91-6.92,1.36-2.12,3.22-3.78,4.77-5.73,2.19-2.75,3.56-.4,1.91-8.83,15.43-17.14,14.53-10.69,36.04-7.88,3.21-.75,3.19-14.58,10.03-15.75,9.57-1.64,12.02,10.31,8.12,13.37-3.67,2.88-3.2-2.58-6.68-7.64-3.78,22.62-17.69,15.12-34.85,12.89-8.46,5.82-4.47,10.16-5.49,13.13-.28.81-7.63,7.08-8.12,8.12-3,6.43,5.2,5.22-16.71,16.71-2.36,5.97,9.05,16.27-6.92,23.15-4.57,1.97-16.64,2.16-13.37,6.21,2.66,3.28,15.27,6.03,15.99,17.43,1.43,22.72-26.97,10.24-13.37,35.09Z"/>
              <g>
                <g>
                  <path class="cls-10" d="M191.02,77.74c12.02-1.13,20.75,19.49,43.44,11.94,11.03,14.64,20.32,10.14,15.52,27.93,2.48,1.22,11.9,9.52,12.65,9.79,5.27,1.89,20.78-2.81,15.99,16.47,4.52,1.56,20.47,7.85,22.44,11.46,2.26,4.16.7,12.42-4.06,14.08-11.08,3.87-.82-9.16-1.19-10.74-11.93-10.93-28.55-.8-21.96-23.39l-12.65-1.19c-8.03-10.55-12.63-7.74-15.52-11.22-7.65-9.25,11.94-21.6-18.86-17.43l-2.39-8.12c-11.72.38-21.94-6.33-31.03-12.89-4.05-.29-16.38,7.73-13.61-.72.59-1.81,9.15-5.77,11.22-5.97Z"/>
                  <path class="cls-33" d="M235.89,95.4c2.95-.22-2.46,2.06-3.34,2.39-11.48,4.18-3.32-1.9,3.34-2.39Z"/>
                </g>
                <path class="cls-1" d="M137.55,76.31c-6.84,1.17-6.82,15.01-10.03,15.75-21.51-2.82-20.61-9.27-36.04,7.88,1.65,8.43.28,6.08-1.91,8.83-1.55,1.95-3.41,3.61-4.77,5.73h0c-.17,1.29-1.41,6.38-1.91,6.92-1.22,1.32-16,3.34-15.28,14.08.27,4.04,2.39,9.28,2.39,9.79-.07,6.25-10.64,4.1-19.1,7.88-2.96,3.99-4.01,9.42-1.91,13.84,5.33,3.64,13.47,7.78,13.37,10.5q-6.92.12-13.84.24c-.54,5.44,5.82,9.41,3.82,14.8-.21.57-1.85,1.7-2.39,2.63-1.46.02-15.38-11.82-17.19,1.19-1.12,8.08,8.08,8.65,13.84,10.74.11.56,3.98,10.36,4.54,10.5,3.52-1.11,4.74-2.77,5.01-2.86-13.6-24.85,14.8-12.37,13.37-35.09-.72-11.4-13.34-14.14-15.99-17.43-3.27-4.05,8.8-4.24,13.37-6.21,15.97-6.89,4.57-17.19,6.92-23.15,21.91-11.49,13.71-10.28,16.71-16.71.48-1.03,7.84-7.31,8.12-8.12,1.03-2.97-2.97-7.31,5.49-13.13,17.16,2.23,31.07,9.73,34.85-12.89,3.48,5.05,3.01,10.51,6.68,7.64,3.9-3.06,1.45-15.01-8.12-13.37Z"/>
                <path class="cls-1" d="M279.1,185.87c-2.02-4.15,17.5-2.56,11.94-10.5-21.91-.99-18.69,15.34-14.08,18.38,7.12,4.71,19.02-1.14,19.34,17.19.17.16.33.34.48.48,2.5-3.03,2.52-13.32-.48-16.95-2.09-2.52-16.71-7.61-17.19-8.59Z"/>
              </g>
            </g>
            <g>
              <path class="cls-20" d="M138.02,184.19c-.5-1.47-1.36-5.17-5.73-9.43-2.82-2.75-5.81-4.38-7.96-4.74-1.44-.2-2.74-.16-3.92.02-2.25-.1-5.68,1.45-7.92,3.23-5.87,4.68-4.57,12.46,1.08,15.84.25.15.53.29.82.43,3.24,1.76,5.75,1.8,9.2,1.91,0,0,6.24.41,14.03-2.74.47-.19,1.41-.71,1.41-.71,0,0-.22-2.03-1.01-3.82Z"/>
              <path d="M106.64,170.06c2.64,2.22,6.39-6.16,17.05-5.19,8.72.79,15.56,12.06,15.24,22.28-1.16-2.08-2.23-5.18-2.57-5.54-.05-.06-.18.02-1.29-.86,1.16-4.03-6.96-10.25-10.73-10.73-6.55-.85-10.77,2.43-13.74,7.73-.14.25-.58,1.17-.86,2.15-1.13,3.97,1.02,7.74,4.65,9.65-.74,0-3.81-1.99-4.23-2.35-4.02-3.43-7.61-12.5-7.56-18.15-.1-1.1.31-4.58.83-3.19.99,2.65,2.45,3.56,3.2,4.2Z"/>
              <path d="M123.35,182.92c1.9-.49,2.53-3.14,2.21-4.87,11.2-1.45,3.91,16.24-2.21,4.87Z"/>
              <path class="cls-5" d="M136.37,182.58c0-.2-.04-.38-.05-.58,0-.14,0-.27,0-.41,0,0-.02-.02-.04-.02-.84-6.6-8.39-11.1-11.98-11.57-.36,1.44-2.68,2.49-3.43,3.86-.15.27-.81,2.12,0,2.15,2.03-.08,2.65.33,3.43.43.07.43,1.27,1.61,1.29,1.72,10.87-1.4,3.79,15.75-2.15,4.72-2.27.58-4.3-1.57-4.72-.64.81,3.73,1.27,6.93,4.72,8.8,1.25.67,3.25.49,7.72-.31,3.74-.67,4.99-4.57,5.14-8.2.02.01.05.04.06.05Z"/>
              <path class="cls-20" d="M188.16,173.17c.9-.18,3.78-.53,5.05-.47,2.94.16,5.9,2.18,5.9,2.18,7.28,5.07,10.16,9.31,3.22,16.31-.69.31-2.85,1.25-3.01,1.29-5.74,1.41-21.22,1.35-27.05-2-.02,0-.03-.02-.05-.03-.3-.17-.26-2.91.05-3.98,3.45-6.78,7.95-12.16,15.89-13.31Z"/>
              <g>
                <path d="M208.34,177.03c2.17,1.76,3.7.7,5.24-1.17.9-.99.81-1.56,1.05-1.23.27.39.27,1.84-.33,3.75-1.37,4.31-5.27,9.83-11.96,12.82,6.94-7.01,4.06-11.25-3.22-16.31,0,0-1.92-1.42-5.58-2.15-1.82-.36-3.59.17-5.37.43-7.94,1.15-12.44,6.53-15.89,13.31,1.51-13.76,12.07-22.65,26.4-17.6,5.73,2.02,8.22,6.99,9.66,8.16Z"/>
                <path class="cls-5" d="M201.47,181.33c-.19-2.4-3.14-7.78-7.94-8.59-1.83-.31-3.59.17-5.37.43-4.27,6.01-2.22,3.07,1.5,4.29.41.13,1.13.82,1.5,1.29.24.3,1.52.19,3.86.86,4.97,5.8-3.02,11.68-6.44,4.72-1.91.28-4.19-1.74-4.29-1.5.28,14.31,18.69,12.68,17.17-1.5Z"/>
                <path d="M195.03,179.61c4.97,5.8-3.02,11.68-6.44,4.72,2.32-.34,3.84-3.51,2.58-5.58,1.66-.19,2.83-.01,3.86.86Z"/>
              </g>
            </g>
            <path class="cls-2" d="M232.5,213.15l1,2c1,2-3,3-3,3-1.16.37-2,1-3,0l1-5c1-2,3.66-.46,4,0Z"/>
            <g>
              <path class="cls-12" d="M233.5,221.15c0-2,0-5-1-6s-1.79-2.03-3-1c-.85.72-1.85,4.6-2,7-.05.8.36,3.41,1.05,3.95,1.97,1.52,3.28,1.28,3.96.21,1.99-3.16.99-2.77.99-4.16Z"/>
              <path class="cls-22" d="M234.05,220.35c-.22-2.79-.45-4.83-1.55-5.2-3-1-1,3-4,5-1.18.78-.56,3.32,0,4,3.39,4.13,5.76-1.04,5.55-3.8Z"/>
            </g>
            <g>
              <path d="M105.24,155.97c-.32-.04-.57-.26-.4-.54,1.23-1.98,4.66-7.32,6.9-8.78s9.41-4.96,14.55-3.99c4.03.76,4.14,4.49,4.17,6.11,0,.03-.02.06-.05.08-2.65,1.53-4.4.39-8.93.03-1.75-.14-3.24-.01-4.87.46-2.57.74-4.87,2.4-7.04,4.87-.66.75-2.7,1.96-4.34,1.76Z"/>
              <path d="M205.38,148.8c.11.55,2.3,3.22,2.88,5.4l-1.08,1.08c-14.83-10.29-26.1-.3-29.16-7.2,2.55-2.21,3.17-11.87,27.36.72Z"/>
            </g>
            <g>
              <path class="cls-17" d="M164.35,205.5c1.79,8-20.24,11.31-20.88,2.16,5.6,5.57,14.97,2.25,20.88-2.16Z"/>
              <g>
                <path class="cls-13" d="M182.71,211.98c2.64.26,5.03,1.58,6.12,3.96-8.51.6-12.2,25.11-29.16,27.72-25.18,3.88-14.91-25.59-27.72-19.8.7-9.31,39.85-.3,54.01-8.64l-3.24-3.24Z"/>
                <path class="cls-15" d="M177.67,220.62c4.44-.62-4.85,8.34-6.48,9.36-9.07,5.7-30.73,7.42-30.24-4.32,15.16,3.57,34.64-4.75,36.73-5.04Z"/>
              </g>
              <path class="cls-14" d="M148.14,201.9c2.21,1.67,5.3,2.24,5.4,2.52,1.58,4.52-6.69,4.93-5.4-2.52Z"/>
            </g>
            <g>
              <path class="cls-21" d="M144.66,175.18c0,15.74-15.3,27-28,27s-19-10.26-19-26,9.3-22,22-22,25,5.26,25,21Z"/>
              <path class="cls-21" d="M223.66,176.37c0,22.81-17.9,29.81-32.77,29.81s-22.23-11.33-22.23-28.71c0-20.29,10.88-24.29,25.74-24.29,19.26,0,29.26,5.81,29.26,23.19Z"/>
              <g>
                <path d="M228.66,185.18c4.16-9.68-4.33-20.72-5.73-23.8-2.17-4.77-6.05-8.24-9.27-9.2-2-.6-6-1-13-1-6,0-29-3-34.5,13.71-7.21-3.06-12.58-2.59-20-1-1.5-2.71-5.52-11.66-20.5-12.71-1.93-.13-9.16-.71-16,1-8,2-7.86,2.86-10,5s-4.6,9.78-5,18c-.35,7.04,2,17,3,19,.63,1.26,3,6,5.75,7.46,8.64,4.97,15.01,4.96,21.25,4.54,15-1,26.35-18.47,26-32.79,21.23-1.93,7.52,3.43,18.25,22.75,2.56,4.62,9.75,11.04,16.75,13.04,4.9,1.4,14.82,1.78,23-2,13-6,17.7-16.64,20-22ZM142.41,177.89c-.26,7.54-3.33,13.47-8.14,17.34-6.18,4.97-15.23,6.52-24.86,3.66-5.75-1.71-7.78-6.29-8.75-8.71-4-10,0-24,1-27,1.92-5.77,10.39-7.67,16-8,8.61-.51,17.34.25,21.75,8.71,2.09,4,3.16,9.45,3,14ZM175.4,196.14c-3.52-4.73-5.36-13.94-5.5-19.75-.37-15.93,5.18-19.09,20-20.5,5.57-.53,11.46-.87,17,0,.81.13,2.43.35,3,.5,2.12.56,4.25,1.34,5.79,2.84.47.46,4.36,5.98,5.96,16.95.49,3.39,0,8-1.72,12.65-.01.02-.02.03-.04.05-8.92,20.35-36.11,18.5-44.5,7.25Z"/>
                <path class="cls-31" d="M242.37,170.41c-.51-.71-12.85-7.97-15.03-8.89-2.45-1.04-4.78-2.3-5.2-1.97.57,2.38,7.75,12.97,7.56,18.78-.03.91,1.94,1.11,1.94,1.11l.1-.78c9.11.38,12.15-1.51,15.04.62-.21-1.64-3.59-7.73-4.4-8.87Z"/>
                <g>
                  <path class="cls-3" d="M95.97,165.92q-5,2.25-10,4.5c-.53-1.11-2.64-9.66-1.25-10.5,22.79-3.44,17.71-10.26,11.25,6Z"/>
                  <path d="M95.97,165.92q-.62,5-1.25,10c-3.24-2.09-6.93-1.68-8.75-5.5q5-2.25,10-4.5Z"/>
                </g>
                <path d="M240.89,185.84c.37-.18,4.84-5.6,5.88-6.56-2.73-2.01-5.98-.95-13.59-.61-9.56-.34-10.25-3.54-10.25-3.54l.63,3.1c-.08.54.19,2.49.46,4.47l4.41,2.9c3.7-3.78,5.28-4.79,9.33-3.29,2.07,1.2,2.74,2.94,3.13,3.54Z"/>
              </g>
            </g>
          </g>
        </g>
        <path d="M61.91,250.68c-.06-.04-.72.02-.9-.45.52-.55.85.43.9.45Z"/>
      </g>
      <g>
        <g id="Generative_Object" data-name="Generative Object">
          <path class="cls-7" d="M196.07,523.58s-41.98,10.73-60.99-9.22c-.57-.6-1.59-.4-2.41-.42-5.61-.17-25.38,4.61-23.76,11.15.25,1.01,1.89,12.68,5.7,15.94,7,6,43,8,67,7,14.33,0,54.02-11.14,55.03-16.18.97-4.82.96-11.49,1.96-17.49-24.85,13.74-42.54,9.22-42.54,9.22Z"/>
        </g>
        <path class="cls-19" d="M260.37,347.99c.78-2.09,5-16,3.64-22.19-2.22-8.65-5.33-16.92-11.1-23.73-11.06-13.05-23.06-9.92-32-12.75-2.06,4.39-4.56,8.65-7.5,12.5-9.34,15.72-49.85,31.53-53.25,32-7.5,1.03-28.74-10.26-30.5-10-.29.04-5.13-2.48-5.25-2.75-1.4-3.12-4.15-33.21-6-33.25-7.49.57-11.19.92-18.25,5-10.18,5.89-20.87,23.02-18.25,28.25,3.46,6.92,12.46,17.92,19.46,23.92,1.88,1.61,3.84-.93,4.94-2.87-3.33,7.68-9.15,19.78-7.94,29.87,1.37,11.43,6.94,17.95,11,21,2.73,2.05,9,4,9,4,0,0,5.05,5.22-1,15-2.44,3.95-9.95,14.22-18.96,37.33-4.86,19.13-8.8,38.44-11.5,58-.3,2.14-.76,11.84-.52,15.43,14.74,9.85,49.98,10.54,67.5,10.14,17.28-.39,70.41-7.87,84.51-13.07,4.67-1.72,10.18-4.03,14.5-6.5-2.17-15.61-5.7-30.88-10-46-3.23-11.34-6.45-22.5-12-33-7.44-5.87,32.06-23.82,33.24-35.75,0,0-6.7-42.71-3.78-50.58Z"/>
        <path class="cls-19" d="M201.97,318.35l-40.39,43.7s-29.18,36.94-42.84,34.87c-10.16-1.54-20.18-12.69-20.04-29.21.04-5.09,2.87-13.96,4.56-18.45.11-.29-2.43-14.02-2.16-21.89.61-17.59,2.65-38.39,3.77-38.68,2.41-.62,12.46-2.43,13.76-.92,2.54,2.96,0,15.77,5.8,24.4,4.94,7.34,13.58,18.34,25.95,19.36,34.56,2.83,58.34-20.23,51.58-13.19Z"/>
        <path d="M62,250.66c-.06-.04-.72.02-.9-.45.52-.55.85.43.9.45Z"/>
        <path class="cls-25" d="M124.47,398.28c5,0,10-3,10-3-6,3-16.04,1.67-16.04,1.67,0,0,1.12,1.84,1,5-.12,3.34-1.54,8.12-3.96,12.33-4,6.96-7.14,12.93-9.58,17.88-2.76,4.79-4.86,10.17-6.12,13.6-.92,2.33-1.31,3.52-1.31,3.52-5.37,19.12-9.61,46.12-9.61,46.12,0,0,3.34-24.87,17.41-45.38,6.05-8.82,18.21-51.76,18.21-51.76Z"/>
      </g>
      <path class="cls-7" d="M224.91,424.34c-4.87-6.97.49-18.49,1.68-31.39,2.34-3.03,4.3-6.79,5.03-10.22.97-3.58.43-15.82-2.75-24.75-1.58.23,4.64,12.67-.78,23.88-2.11,2.97-4.93,6.89-9.43,9.94-2.21,1.34-4.8,2.56-7.86,3.61-5.94,1.64-13.75,1.73-24.21-1.26.1.03,12.02,5.92,19.63,5.39,7.19-.5,13.04-4.06,13.04-4.06,0,0-1.65,18.93,1.46,23.57,2.12,3.17-4.14,7.91-11.56,10.86-.68.27-9.87.14-19.9-5.44-8.6-4.78-23.65-5.64-25.16-4.68-.51.32-7.39,9.45-7.16,10.22,3.4,11.34,69.76,14.19,72.65,20.15,7.48,15.45,16.24,62.78,15,67,.46-.1,6.78-3.39,10-5,2-1-7.95-56.72-29.67-87.81Z"/>
      <g>
        <path class="cls-7" d="M248.61,300.06c-.46-.53-.53-1.86-5.34-1.97-64.73,85.57-117.97,57.81-117.97,57.8-8.98-4.23-30.34-57.42-30.6-57.31,1.37,10.78,4.99,27.2,10.15,38.03,3.8,7.98,16.55,31.76,34.82,31.74,0,0,0,0,0,0,18.99,2.48,47.11-7.41,69.61-23.61,9.04-6.5,18.35-18.77,28.59-29.36,4.7-4.86,13.01-13.26,10.75-15.33Z"/>
        <g>
          <path class="cls-19" d="M143.75,331.59c.05-.06.03-.15-.04-.18-8.96-4.28-20.17-14.96-21.79-19.87-3.2-9.71-3.03-12.27.36-23.37.07-.23.29-.41.44-.59-3.67-1.12-6.89-3.08-11.96-.12-.04.02-.07.07-.07.12.04,24.19-1.02,12.05-2,.28,0-.06-.05-.11-.11-.12-5.81-.96-6.83.44-10.36,3.85-.04.03-.11,0-.14.03-3.05,3.71-3.1,10.36-3.1,10.39-.68,10.87,3.47,19.83,8.62,30.64,3.8,7.97,16.52,31.72,34.77,31.75.06,0,.11-.03.13-.09,2.51-7.11.76-26.79,5.24-32.7Z"/>
          <path class="cls-7" d="M110.69,287.5c-.67,20.7.47,26.46,13.3,42.82-16.5-17.09-14.56-27.32-15.31-42.56.08-.02.5-.41,2.01-.25Z"/>
        </g>
        <g>
          <path class="cls-19" d="M241.75,293.61c-.17-4.2-7.46-4.89-11.46-3.35-12.66,13.02-12.4,13.44,0,0-2.37-4.54-4.7-4.81-12.26-2.64-.03.83-.78,2.1-.93,2.96-2.5,14.49-20,30.51-34.53,37.23-11.49,5.32-26.93,3.57-39.66,3.68-2.87,7.77-3.96,25.12-4.49,32.89,18.99,2.48,47.11-7.41,69.61-23.61,9.04-6.5,18.35-18.77,28.59-29.36,4.7-4.86,13.27-14.41,11-16.48-.46-.53-1.95-3.34-5.87-1.34Z"/>
          <path class="cls-7" d="M231.2,289.97c-11.02,14.44-20.34,28.83-42.52,44.12,32.92-22.62,21.28-17.05,41.18-44.59.99.31,1.26.43,1.33.48Z"/>
          <path class="cls-7" d="M208.98,303.01c-15.14,19.67-39.36,25.47-65.13,25.04-17.97-8.63-25.06-27.22-22.46-40.49-8.06,22.42,9.15,39.27,20.67,44.75,0,0,0,0,0,0,.01,0,.03,0,.04.01.13.06.27.13.39.19,0,0,.01-.02.02-.05,15.79,5.56,28.69.61,40.06-4.65,14.52-6.72,33.16-22.99,35.34-39.57-2.06,4.6-5.83,10.73-8.94,14.77Z"/>
        </g>
        <path class="cls-7" d="M108.76,326.68c3.33,11.66,12.22,21.85,24.04,25.17,22.08,5.91,46.79-6.84,65.94-17.06-14.93,9.81-31.39,18.59-49.5,20.36-19.78,2.08-36.31-8.7-40.47-28.46h0Z"/>
      </g>
      <g>
        <g>
          <g>
            <g>
              <path class="cls-18" d="M167.37,503.79s-13.68-24.95-9.59-47.8c.7-3.92,1.8-7.77,2.56-11.67.88-4.53,6.61-12.95,7.39-17.5s-3.4-8.25-6.63-8.46c.23-.34-16.06,9.03-20.14,19.13-1.98,4.9-7.98,29.36-8.54,36.47-.62,7.96-1.64,12.75-1.02,17.2.93,6.69,4.84,16.44,10.58,17.06,19.29,2.11,25.39-4.45,25.39-4.45Z"/>
              <g>
                <path class="cls-7" d="M266.71,438.95c.12-1.65-4.16-6.65-8.32-10.09-6.53-5.39-15.66-7.42-15.99-6.76-.73,1.49,17.81,25.39,17.71,29.01,1.46,7.32-1.01,15.33-5.27,21.37-.93,1.31-1.94,2.6-3.03,3.85-8.64-.74-17.51,6.34-32.43,1.64-2.22-.7-6.95-2.53-8.99-3.52-25.43-12.39-21.27-29.14-25.37-50.9.04-.07-2.1-.7-2.33-.85,1.05,7.78-19.61,15.28-22.35,21.62-.76,3.9-1.85,7.75-2.56,11.67-1.81,10.09-4.12,19.84-3.65,28.17-1.75,11.43-5.79,28.45-14.81,22.93-2.61-1.6-5.26-5.53-6.35-11.1-3.23-16.48,2.91-39.65,3.64-42.29-6.62,23.36-8.51,47.34.47,53.75,4.33,3.09,10.66,6.01,20.35,1.78,13.27-5.79,30.27-8.84,46.88-11.87,19.64-3.58,28.98-8.06,45.56-13.48.42-.29,13.83-7.13,17.66-19.1,2.32-7.25,2.09-11.7-.81-25.83Z"/>
                <path class="cls-32" d="M136.61,453.7c.02-.08.05-.16.07-.25,0-.02-.02.07-.07.25Z"/>
              </g>
            </g>
            <path class="cls-19" d="M267.53,464.78c2.21-22.39-6.89-35.2-23.62-42.2-1.75-.73,15.18,1.55,22.85,16.34.06-1.84,16.22-138.23-15.12-141.42-7.83-4.07-5.47,3.93-10.02,10.84-5.69,8.64-12.34,18.88-15.47,29.38-.47,1.33-.88,2.63-1.21,3.88-2.37,8.83,8.76,6.13,8.8,8.52.03,1.99,25.12,44.89,25.19,46.85.35,9.87-33.63,16.58-32.87,15.07l.14.14c-.92,1.9-1.8,3.87-2.46,5.64-3.14,9.42-8.96,12.32-8.96,12.32-4.57-.2-7.77,2.07-17.5-1.04-1.97-.63-9.62-2.97-11.97-3.83,1.34,21.98-2.78,16.43,3.24,41.46,1.79,7.42,8.87,13.16,12.31,17.86,6.4,8.75,19.38,10.64,49.03-.72,5.99-2.29,17.05-12.9,17.66-19.1Z"/>
            <path class="cls-7" d="M236.3,428.66c-4.6-1.6-9.28-2.93-14.27-2.22-.27.04-.45-.27-.27-.47.81-.94,2.42-2.8,4.47-4.46,2.9-2.34,12.07-8.79,13.63-10.99.6-.85.68-1.1.49-1.05-.29.08-1.74,1.26-1.82,1.33,0,0,0,0-.01.01-7.15,5-10.55,5.55-13.07,6.52-.23.09-.46-.14-.38-.37.92-2.56,6-7.06,6.18-7.91.17-.82-5.69,4.18-6.62,5.11-.17.17-.47.08-.5-.16-1.19-9.19-2.42-11.1-1.22,4.75.04.54-1.59,3.88-2.98,5.64-.93,1.18-1.72,2.17-1.74,2.19-.47.52-2.99,3.19-3.69,3.56.63.18,2.53-1.08,3.28-1.13.07,0,.13.02.19.07,6.46,5.17,18.87,19.21,20.79,26.75.08.31.54.28.57-.04.47-5.19-3.99-19.32-12.62-25.09-.27-.18-.08-.61.24-.52,3.65.99,8.53,2.95,12.73,5.58,8.47,5.32,13.12,12.99,17.03,21.85.11.26.49.23.55-.04,1.83-7.23-7.52-24.23-20.97-28.9Z"/>
            <path class="cls-7" d="M245.29,317.34c17.36,6.02,18-5.27,19.1-5.56,7.72,8.48-11.74,13.66-19.1,5.56"/>
            <path class="cls-7" d="M246.61,312.45c1.64-4.7,9.41-2.41,12.9-6-.92,6.35-9.28,1.56-12.9,6"/>
            <path class="cls-19" d="M172.81,420.11c-1.47-.45-3.99-.09-7.49-2.04-2.99-.96-4.42.24-4.22.3,10.48,3.35-6.13,26.91-5.35,50.26.69-4.73,7.87-6.56,11.37-4.61,2.36,2.02,6.45-4.59,8.44-.6,1.78,3.57,2.54-6.47,11.05,9.31,1.59,2.94,5.33,9.13,9.58,11.31-2.75-1.71-6.65-8.06-8.08-10.84-10.69-20.74-2.38-31.31-5.42-50.51-3.32-1.41-6.47-1.54-9.88-2.59Z"/>
          </g>
          <g>
            <g>
              <path class="cls-1" d="M59.49,460.4c-.12-.79-.22-1.55-.31-2.29.09.75.19,1.52.31,2.29Z"/>
              <path class="cls-19" d="M91.45,307.27c1.48,2.07,20.49,13.72,21.13,12.58-.61-.52-1.22-1.03-1.83-1.55-7.06-7.82-10.76-16.38-13.6-26.38-.7.44-2.65.53-3.36.95h0c-9.2-1.73-17.31,2.89-19.36,12.24-.2.94-1.37,15.81-1.63,19.08-6.03,18.82-4.29,39.16-7.68,58.4-.32.33-.62.6-.93.95-5.47,6.14-4.06,8.83-6.46,15.94-1.04,3.09-2.82,6.88-3.63,9.66-1.63,5.63-5.17,17.03-5.15,22.1,0,3.84-.63,10.05,4.22,19.41,1.53,2.95,5.49,9.17,7.66,12,2.49,3.26,3.35,2.48,5.97,4.41.03.09.06.19.13.26,3.31,3.56,6.15,8.92,12.37,10.15-.06-.07-.12-.15-.19-.23,7.67,5.94,13.79,9.65,19.78,12.26,3.59,1.57,9.33,1.72,11.81,3.46,17.08,11.98,18.89-24.01,18.68-23.34-10.07,31.99-13.79,18.86-19.84,18.6-18.01-.78-15.6-56.53-5.69-81.94.1-.16.19-.33.29-.51,1.15-2.19,2.87-6.57,8.03,1.7,2.52,4.03,4.35,8.45,6.67,11.36,0,0-1.09-9.14-6.25-17.41-1.39-2.24-2.84-5.36-12.57-.74-.35-.15.24-6.47-.41-9.55-.53-3.19-2.7-7.06-2.32-10.46,3.54-31.67-5.33-64.76-5.34-64.84-.18-1.41-3.45-10.51,1.44-11.55,2.09-.44-1.93,2.96-1.93,2.96Z"/>
              <path class="cls-25" d="M64.56,424.54s-2.69,6.72-3.27,8.22c-2.22,5.8-5.9,12.32-1.8,27.64,1.28,4.79,4.47,5.01,8.39,7.91-3.63-5.52-5.98-10.45-7.33-14.95-.45-1.5-.83-9.09-.62-10.94.59-5.24,4.62-17.88,4.62-17.88Z"/>
              <g>
                <path class="cls-16" d="M63.31,409.04s-.03.05-.04.07c.01-.02.03-.05.04-.07Z"/>
                <path class="cls-25" d="M97.08,398.07s-.69-3.26-3.44-6c-4.03-3.2-6.22-8.91-9.72-11.94,9.22,15.37,5.5,9.79,11.1,16.24-2.67-2.39-10.06-7.15-12.07-9.22-1.41.77,9.98,9.95,13.89,14.65-8.23-3.63-28.22-1.94-32.7,7.06.49-.84,4.59-6.4,19.63-7.13,5.51-.27,11.47,1.33,11.63,1.32.38-.02.8-.09,1.22-.18-6.33,6.49-6.25,14.36-6.25,14.36,1.91-10.95,10.1-16.62,10.1-16.62,0,0-1.8-.47-3.39-2.54Z"/>
              </g>
              <path class="cls-7" d="M109.65,488.09c-2.79-1.11-4.82-2.54-7.26-6.13-1.86-2.73-4.52-9.26-4.52-9.26,0,0-1.45,6.78-7.76,6.39-5.09-2.11-9.73-3.39-12.02-7.3-1.23-2.1-1.64-5.47-1.73-8.48,0-.3-.47,0-.47,0,0,0-.02,12.38,3.41,14.19.59.44,1.14.87,1.68,1.29.25.19.5.39.74.58.06.04.11.09.17.13.86.68,1.69,1.33,2.54,1.98.07.05.15.11.22.16.53.4,1.08.8,1.64,1.2,0,0,0,0,0,0,6.02,4.94,5.86,3.74,12.59,6.68,3.59,1.57,10.15,2.64,12.79,4.1,21.22,11.68,21.12-24.92,18.35-37.96-3.5-16.48-15.33,34.44-20.38,32.43Z"/>
              <path class="cls-18" d="M106.26,402.08c-14,19.86-17.95,77.76,3.5,86.11,5.8,2.26,14.82,13.2,20.27-18.05,2.16-12.38-.74-26.38-6.34-40.39-9.09-22.77-8.92-21.96-11.43-25.68-3.15-4.66-5.97-2.02-5.99-1.99Z"/>
            </g>
            <path class="cls-27" d="M76.9,309.25c-.08.16-.14.32-.16.48.05-.16.1-.32.16-.48Z"/>
          </g>
          <path class="cls-7" d="M103.27,349.27c2.65-11.5-4.81-11.52-6.33-16.56-.58-1.91-3.71-5.41-3.4-13.04.45-11.28,1.27-24.57.64-27.29-.99.15-1.06-.04-1.98.3.14.26-2.26-.99-4.51.7-6.07,4.57-4.72,20.85,2.19,32.08,1.28,2.08.02,4.94.12,7.45.17,4.2.53,8.43,1.16,12.54,1.5,9.81,4.97,23.01,5.37,33.13.25,6.25,4.47,19.75.27,23.67-.47.44,3.8-1.59,4.31-2.05,3.62-3.26,5.86-9.24,5.86-9.24,0,0-3.38-4.21-4.32-5.65-1-1.52-5.93-10.22-3.91-22.18.44-2.62,3.82-10.81,4.52-13.86Z"/>
        </g>
        <g>
          <path class="cls-24" d="M164.28,421.76s-1.44-.2-2.01-.32c-1.22-.78-1.49-3.83-1.9-5.11-1.89-5.99-1.9-20.71-6.08-34.29-.38-1.22-1.77-12.78-4.94-19.53-.88-1.86-.81-5.22-1.23-6.51-.32-.98-1.61-.16-1.81.1-2.92,3.64.27,11.2-.47,14.3-.16.69-1.13.71-1.32.02-.96-3.48,4.69-15.28-.89-14.51-.74.1-1.49,5.85-3.06,6.4l-14.42,46.44-4.82,6.12c-2.11.94-15.02.66-18.28.12-.95-.16-1.91-.36-2.86-.59-.46,1.53-.89,3.04-1.35,4.47-1.56,4.93-2.99,9.83-3.72,14.83,10.85.53,23.67.08,26.77-1.95,4.6,6.7,14.77,1.74,16.58-3.61,3.17-9.4.73-16.29,1.4-3.89.49,8.98,8.84,18.2,17.33,11.34.88.4,4.26,2.38,4.26,2.38,0,0,2.29-7.86,2.75-10.55.66-3.88.04-5.67.04-5.67Z"/>
          <path class="cls-2" d="M161.5,437.98s-3.38-1.98-4.26-2.38c-2.9,1.26-13.73-1.13-16.99-9.51-2.61-6.7,5.47-19.12,5.13-21.83-1.19-9.54-.07-33.22-.26-33.24-.3-.02-2.96,20.59-5.94,31.45-1.46,5.32,3.82,17.65-2.27,26.19-2.76,3.88-11.46,5.25-14.98,3.1-3.1,2.03-15.93,2.48-26.77,1.95-.41,2.78-.59,5.59-.47,8.44.2,0,.38,0,.54.01,10.51.25,37.38-1.03,43.47-9.98,2.86,5.02,20.7,12.77,20.7,12.77l2.11-6.97Z"/>
        </g>
        <path class="cls-26" d="M144.82,354.2c-1.31,2.98-.61,7.21-4.44,8.62.42-2.86,3.84-13.26,4.44-8.62Z"/>
        <path class="cls-26" d="M146.68,354.79c1.02,3.09-.07,7.24,3.61,9-.12-2.29-2.65-13.24-3.61-9Z"/>
      </g>
      <line class="cls-25" x1="230.3" y1="377.59" x2="229.53" y2="385.61"/>
      <g>
        <path class="cls-28" d="M245.42,25.67c5.75,14.15-5.09-3.98-27.84-12.24-11.42-4.15-26.02-6.69-38.1-8.46-10.75-1.58-34.37-5.71-40.9,2.06-3.88.83-14.82,5.32-17.06,7.44l-3.01-2.57c.89-1.36-2.07-2.27,6.81-7.79,27.67-10.46,99.42-.14,120.11,21.56Z"/>
        <path class="cls-29" d="M179.47,4.96c-1.88,5.94-20.84-2.24-40.9,2.06,6.53-7.77,30.15-3.64,40.9-2.06Z"/>
        <g>
          <path class="cls-6" d="M245.42,25.67c5.75,14.15-5.09-3.98-27.84-12.24-11.42-4.15-26.02-6.69-38.1-8.46-1.88,5.94-20.84-2.24-40.9,2.06-3.88.83-14.82,5.32-17.06,7.44-.5.47-3.63,5.77-4.36,7.52-5.99-7.54,1-9.55,1.35-10.08.89-1.36-2.07-2.27,6.81-7.79-13.75,5.2-19.34,13.9-6.61,25.01,10.45,9.12,42.04,17.88,56.03,20.41,8.11,1.47,18.08,2.6,26.3,3.04,24.7,1.33,65.61-4.67,44.39-26.91ZM174.52,40.56c-45.37-9.02-62.2-35.48-3.3-29.43,9.54.98,59.43,9.94,59.98,21.42.75,15.47-47.33,9.86-56.68,8Z"/>
          <path class="cls-29" d="M118.5,11.9l3.01,2.57c-.5.47-3.63,5.77-4.36,7.52-5.99-7.54,1-9.55,1.35-10.08Z"/>
        </g>
      </g>
    </g>
  </g>
</svg>