<?xml version="1.0" encoding="UTF-8"?>
<svg id="Layer_1" data-name="Layer 1" xmlns="http://www.w3.org/2000/svg" viewBox="0 0 286.36 485.42">
<defs>
    <style>
      .cls-1 {
        fill: none;
      }

      .cls-2, .cls-3 {
        fill: #8dd4da;
      }

      .cls-4 {
        fill: #50352f;
      }

      .cls-5 {
        fill: #9ad8df;
      }

      .cls-6 {
        fill: #954399;
      }

      .cls-7 {
        fill: #010101;
      }

      .cls-8 {
        fill: #b176a7;
      }

      .cls-9 {
        fill: #292031;
      }

      .cls-10 {
        fill: #66256a;
      }

      .cls-11 {
        fill: #2a999b;
      }

      .cls-12 {
        fill: #443430;
      }

      .cls-13 {
        fill: #462326;
      }

      .cls-3 {
        opacity: .2;
      }

      .cls-14 {
        fill: #e77a4d;
      }

      .cls-15 {
        fill: #8f3427;
      }

      .cls-16 {
        fill: #281a26;
      }

      .cls-17 {
        fill: #4cbea0;
      }

      .cls-18 {
        fill: #fbfcfe;
      }

      .cls-19 {
        fill: #f8ae89;
      }

      .cls-20 {
        fill: #ad4b2f;
      }

      .cls-21 {
        fill: #daf0f7;
      }

      .cls-22 {
        fill: #1e141c;
      }

      .cls-23 {
        fill: #cd5736;
      }

      .cls-24 {
        fill: #f6b751;
      }

      .cls-25 {
        fill: #7a3f5a;
      }

      .cls-26 {
        fill: #4e3440;
      }

      .cls-27 {
        fill: #c88a2c;
      }

      .cls-28 {
        fill: #3c1318;
      }

      .cls-29 {
        fill: #3b3216;
      }

      .cls-30 {
        fill: #27151d;
      }

      .cls-31 {
        fill: #d8653c;
      }

      .cls-32 {
        fill: #c05a41;
      }

      .cls-33 {
        fill: #c0e6e8;
      }

      .cls-34 {
        fill: #c22f4c;
      }

      .cls-35 {
        fill: #f0935e;
      }

      .cls-36 {
        fill: #c292c2;
      }

      .cls-37 {
        fill: #84383d;
      }

      .cls-38 {
        fill: #311131;
      }

      .cls-39 {
        fill: #c46041;
      }

      .cls-40 {
        fill: #232323;
      }

      .cls-41 {
        fill: #9a4a90;
      }

      .cls-42 {
        fill: #fcf8ea;
      }

      .cls-43 {
        fill: #7a297f;
      }

      .cls-44 {
        fill: #271715;
      }
    </style>
  </defs>
  <g>
    <path class="cls-39" d="M212.51,144.32l1,2c1,2-3,3-3,3-1.16.37-2,1-3,0l1-5c1-2,3.66-.46,4,0Z"/>
    <g>
      <path class="cls-33" d="M213.51,152.32c0-2,0-5-1-6s-1.79-2.03-3-1c-.85.72-1.85,4.6-2,7-.05.8.36,3.41,1.05,3.95,1.97,1.52,3.28,1.28,3.96.21,1.99-3.16.99-2.77.99-4.16Z"/>
      <path class="cls-2" d="M214.06,151.52c-.22-2.79-.45-4.83-1.55-5.2-3-1-1,3-4,5-1.18.78-.56,3.32,0,4,3.39,4.13,5.76-1.04,5.55-3.8Z"/>
    </g>
    <g>
      <g>
        <path class="cls-24" d="M167.32,467c-17.25,1.58-91.19-26.61-87.03-9.82.25,1.01,4.19,17.73,8,21,7,6,43,8,67,7,14.33,0,54.02-11.14,55.03-16.18.97-4.82,1-6,2-12-14.1,5.2-30.06,8.63-45,10Z"/>
        <path class="cls-27" d="M140.62,485.42l-1.33-10.67s2.67,10.67,4,10.67h-2.67Z"/>
      </g>
      <g>
        <path class="cls-6" d="M205.42,318.08s.57-6.57.61-6.82c0,0,0-6,0-6,9,2,12,1,12,1,0,0,14.97-17.35,16.39-21.18.78-2.09,5-16,3.64-22.19-2.22-8.65-5.33-16.92-11.1-23.73-11.06-13.05-38.92-10.9-47.92-16.9-2.06,4.39-28.28,26.66-34.58,22.65.77,7.01-20.56,1.56-20.62.89-.27-3.32-5.87-13.42-6.8-17.54s2.6-8.02,0-8c-5.42.05-18.1,4.21-24.58,4.65-7.49.57-11.19.92-18.25,5-10.18,5.89-20.87,23.02-18.25,28.25,3.46,6.92,12.46,17.92,19.46,23.92,1.88,1.61,3.84-.93,4.94-2.87-3.33,7.68-9.15,19.78-7.94,29.87,1.37,11.43,6.94,17.95,11,21,2.73,2.05,9,4,9,4,0,0,5.05,5.22-1,15-2.44,3.95-9.95,14.22-18.96,37.33-4.86,19.13-8.8,38.44-11.5,58-.3,2.14-.09,4.45-1,6.5,14.74,9.85,38.13,13.18,55.5,15,17.19,1.8,34.75,2.58,52,1,14.94-1.36,30.9-4.79,45-10,4.67-1.72,10.18-4.03,14.5-6.5-2.17-15.61-5.7-30.88-10-46-3.23-11.34-6.45-22.5-12-33-7.44-5.87-5.13-31.09-3.95-43.02l4.42-10.3Z"/>
        <path class="cls-10" d="M201.42,322.08c.04.06.06.13.09.21-.01-.17-.04-.24-.09-.21Z"/>
        <path class="cls-10" d="M201.5,322.29c.02.22,0,.59-.03,1.11.11-.46.12-.84.03-1.11Z"/>
      </g>
      <path class="cls-10" d="M204.82,369.5c-4.87-6.97-4.71-26.63-3.53-39.53,2.34-3.03,4.3-6.79,5.03-10.22.97-3.58.43-15.82-2.75-24.75-1.58.23,4.64,12.67-.78,23.88-2.11,2.97-4.93,6.89-9.43,9.94-2.21,1.34-4.8,2.56-7.86,3.61-5.94,1.64-13.75,1.73-24.21-1.26.64.18,35.3,40.12,43,56,7.48,15.45,16.24,62.78,15,67,.46-.1,6.78-3.39,10-5,2-1-2.74-48.58-24.47-79.67Z"/>
      <path class="cls-10" d="M98.32,335.5c5,0,10-3,10-3-6,3-16.04,1.67-16.04,1.67,0,0,1.12,1.84,1,5-.12,3.34-1.54,8.12-3.96,12.33-4,6.95-7.14,12.93-9.58,17.88-2.76,4.78-4.86,10.17-6.12,13.6-.92,2.33-1.31,3.52-1.31,3.52-4.86,19.13-9.34,45.12-12.04,64.67,6.62,4.02,7,4,7,4,0,0-3.25-21.94,2.02-42.41,7.46-28.98,19.64-41.24,22.98-46.59,15-24,6.04-30.67,6.04-30.67Z"/>
    </g>
    <path class="cls-10" d="M215.03,415.26c-4.39-14.26-6.61-17.74-11-32-4.94,8.36-10.7,11.75-19.47,13.41-4.94.93,12.74-31.83,4.47-36.41-22.61-12.51-78.07-8.61-92-10-3.57-.36,6.11,47,2.57,46.41-4.51,1.69-9.45,1.79-14.16.99-3.72-.63-10.6-3.62-13.18-6.45-2.38,4.66-2.56,10.18-3.91,15.13-.46,1.69-1.17,5.37-1.32,5.92,2.21,6.59,9.09,13.99,15,18,7.74,5.24,16.91,8.86,26.79,11.13,4.66,1.07,12.3-16.62,17.21-16.13,15.05,1.52,20.52,2.83,35,0,3.2-.63,13.89,14.74,16.93,13.95,7.32-1.9,14.12-4.26,20.07-6.95,4.87-2.52,19.4-9.35,17-17Z"/>
    <path class="cls-9" d="M195.69,125.6c-.16,1.37-.34,2.74-.52,4.1.19-.1.37-.2.5-.31-.01-.19.02-.38,0-.57-.1-1.05,0-2.15.02-3.22Z"/>
    <g>
      <path class="cls-14" d="M166.56,206.27c-.32-2.07-.61-4.2-1-6.25-.06-.33-1.33-3.12-2-5.5-7.64,9.74-17.84,17.58-29.31,22.21-5.3-4.57-12.97-12.22-12.22-14.47-1,3-4,24-5,27-3.88,11.64,10.11,17,17,17,18,0,30.53-9.24,30-12-.4-.73,1.93-2.24.75-3.48.8-.33,1.55-.82,2.25-1.52.92-.93,0-20-.46-22.99Z"/>
      <path class="cls-15" d="M163.56,194.52c-9.09,11.59-21.81,20.53-36,24.5-2.36-3.08-5.37-5.97-6-10-.45-2.9.19-7.89.5-11,.07-.73.15-.89.5-1.5,12.44,2.19,27.65-5.12,38.5-11,1.21,2.88,1.66,6.03,2.5,9Z"/>
    </g>
    <g>
      <g>
        <path class="cls-23" d="M163.1,194.37c-9.09,11.59-21.81,20.53-36,24.5-2.36-3.08-5.37-5.97-6-10-.45-2.9.19-7.89.5-11,.07-.73.15-4.25.5-4.86,12.44,2.19,27.65-1.76,38.5-7.64,1.21,2.88,1.66,6.03,2.5,9Z"/>
        <path class="cls-14" d="M165.1,199.87c.39,2.05.72,4.18,1,6.25-7.26,8.67-18.31,15.14-29,18.75-2.48.84-1.89.97-2,1-.74.17-.36.73-2.5-.5-.28-.16-1.31-.83-1.5-1-.26-.22-3.39-4.71-4-5.5,14.19-3.97,26.91-12.91,36-24.5.67,2.38,1.94,5.17,2,5.5Z"/>
      </g>
      <g>
        <path class="cls-35" d="M193.87,96.87s-6.44-19.74-10.08-25.56c-4.81-7.69-19.05-20.76-27.72-23.4-8.71-2.65-26.18-2.64-36.4-.73,0,0-32.82,1.73-41.14,39.7-.94,4.3,3.47,25.35-1.5,42.9-.09.32-.14.65-.14.98v7.55c2.59,9.21,3.89,21.19,12.53,31.65,7.61,9.21,31.57,23.86,35.88,24.27,2.26.08,9.06-1.41,19.05-5.59,9.16-3.84,22.2-12.35,27.89-20.52,2.79-4.01,12.29-22.94,10.07-25.68,7.3-3.43,16.67-4.19,16.67-15.97,0-5.05-2.94-19.94-5.1-29.59ZM93.49,145.06c1.03.09,2.08.13,3.16.11-1.03.04-2.09,0-3.16-.11ZM150.29,142.04c.99.49,2.08.94,3.27,1.35-1.16-.38-2.25-.83-3.27-1.35Z"/>
        <path class="cls-31" d="M198.76,126.28c.06-.09,1.34-1.31-1.39-12.61-.8-3.84-2.6-12.74-2.6-12.74,0,0-.45-.64-1.11-1.37-.54-.59-1.23-1.23-1.8-1.71-7.14-5.96-20.51-5.64-24.33-5.66-8.48-.09-16.76,1.17-20.81,6.02s-3.97,13.78-2.53,24.56c.31,1.3,1.12,4,1.08,3.36-.1-1.67,1.06-6.72,2.37-9.57,2.25-4.92,4.62-8.13,10.93-10.58,15.64-6.05,31.83,20.59,32.55,21.79-1.8,6.6-5.1,12.32-11.07,14.7,3.89.67-5.67,21.3-8.64,25.56-5.68,8.17-18.56,15.97-27.72,19.8-9.98,4.18-16.68,6.28-18.99,6.23.17.06.07.12.64.16,15.33,1.15,24.21-2.52,37.43-10,19.85-11.23,20.3-13.57,30.24-32.4,1.1-2.09,1.09-4.53,2.88-6.84.38-.49,9.73-1.54.72-7.92,13.28-19.13,20.35-3.89,12.96,6.48-6.8,9.55-18.62-4.15-10.8,11.88,25.69,5.04,20.19-57.31,0-29.16Z"/>
        <path class="cls-20" d="M198.76,155.45c-2.56-.5-3.24-2.94-5.76-3.6,1.1-2.09,1.09-4.53,2.88-6.84.38-.49,9.73-1.54.72-7.92,13.28-19.13,20.35-3.89,12.96,6.48-6.8,9.55-18.62-4.15-10.8,11.88Z"/>
      </g>
      <path class="cls-19" d="M77.18,137.04c3.5,16.27,5.03,23.58,11.87,32.34,4.4,5.63,24.09,20.16,35.68,24.72-5.49-.09-34.05-16.97-40.23-24.75-6.68-8.4-8.31-18.44-8.47-25.05-.04-1.66.29-4.97.48-6.62.08-.68.39-2.73.39-2.73,0,0,.18,1.59.29,2.09Z"/>
      <path class="cls-14" d="M86.42,100c-1.88.06,1.36-4.44,2.23-6.28,1.06-2.92,1.12-6.36,2-9.25,6.04-19.79,23.82-27.78,10.5-24.25-10.51,2.79-20.82,35.08-21.94,44.67,0,.01.18,6.15.18,6.15,2.51-3.22,3.62-4.22,7.97-6.63,8.46-4.67,18.39-1.27,22.4,9.26.04.12,2.35,10.41,2.39,11.24.02.42.04-9.38.19-10.88-.96-13.22-15.39-14.39-25.92-14.04Z"/>
      <g>
        <path class="cls-16" d="M269.98,148.94c-.14-.13-.31-.32-.48-.48-.31-18.33-12.21-12.48-19.34-17.19-4.6-3.04-7.83-19.38,14.08-18.38,5.56,7.95-13.96,6.35-11.94,10.5.48.99,15.1,6.07,17.19,8.59,3,3.63,2.98,13.91.48,16.95Z"/>
        <path class="cls-22" d="M23.16,132.71c-.77,1.33-4.97,3.92-3.34,11.94-5.77-2.09-14.97-2.67-13.84-10.74,1.81-13.02,15.73-1.17,17.19-1.19Z"/>
        <path class="cls-22" d="M35.57,115.04l.95,8.83q-6.68,4.42-13.37,8.83c.54-.92,2.18-2.06,2.39-2.63,2-5.39-4.36-9.36-3.82-14.8l13.84-.24Z"/>
        <path class="cls-22" d="M277.14,80.19c-4.37-2.21-5.02-1.55-9.55-2.63,2.76-7.37,4.11-10.61,0-17.43-.52-.4-.64-.5,0,0-3.84-6.37-10.77-9.34-17.9-6.21-2.75-.54.94-5.86-9.79-11.7,8.37-15.47-11.31-28.07-21.24-13.61C201.05,8.83,176.41.05,151.82,13.35c-16.73-18.96-48.35-16.68-65.64.24-1.68,1.64.06,3.99-12.65,9.31-1.97.09-9.93-10.8-21.24-1.43,0,0,0,0,0,0-2.89,2.39-5.59,6.4-5.73,10.26-.03.76,1.65,8.46,1.91,8.83-1.18.2-2.31.87-3.34,1.43-7.68,4.19-5.16,3.47-8.83,10.98-18.35-1.5-25.18,16.33-12.17,28.88-2.57.83-5.11,1.11-7.64,2.15-1.99.82-3.19,1.37-4.77,2.86-9.07,8.54-4.83,20.54,5.73,25.06.64,1.79-3.89,4.36,0,13.37-18.05-2.07-24.49,18.34-7.64,26.26-3.6,8.83,2.84,20.44,12.65,16.95,7.94,7.76-1.98,7.84-.24,18.86,1.36,8.6,13.51,14.07,20.77,8.83,10.25,4.27,5.3,4.94,8.83,9.79,4.51,6.19,15.68,5.61,20.77.24,1.38.31.67,13.47,19.1,10.98,4.44-7.84,5.94-2.38,12.89-5.73,5.18-2.5,5.11-9.42,10.26-4.77,2.74-3.89,3.15-8.08,6.93-11.28.07-.7.14-1.4.21-1.99-6.38-2.21-25.4-13.42-31.26-18.43-9.34-7.98-13.33-20.37-13.01-19.3-1.36-.54-2.49-1.3-3.64-2.21-12.38-9.8-7.4-25.37-2.57-25.81.6-.05,2.57-.04,3.82.89,1.13.85,1.61,1.7,1.63,1.73.9-3.64,1.92-8.38,2.1-11.67.91-5.89.92-15.31.93-15.49.51-7.83,10.9-38.47,20.04-42.53,5.38-2.39,10.25,1.5,16.95-8.12,21.88,12.34,30.33-2.24,31.99-2.86,6.58-2.47,8.32,5.19,8.83,5.49,13.69,7.91,27,21.42,30.54,26.98.47.73,2.46,5.84,3.64,9.46,3.7,11.31,6.79,34.73,6.79,34.73,0,0,3.9-5.64,7.37-6.78-.07-.05,3.66-1.35,6.46,1.78,5.22,5.85,4.58,25.77-3.74,31.97-4.96,3.7-10.25,2.94-13.43,0-1.22-1.12-2.42-1.4-2.42-1.4,0,0-.35.73-1,1.91-1.55,2.8-5.42,11.17-9.33,15.71-7.98,9.27-15.7,11.85-22.05,15.97.87,3.22,1.58,5.68,2.38,8.52.64,2.27,1.85,4.93,1.91,5.25,5.45.54,7.16,3.77,10.08,5.58.54.34,3.43.86,4.54.95,6.7,13.18,24.45,10.16,28.64-3.82,9.21,9.72,23.29,11.63,27.21-3.82,7.01.07,11.98.74,16.71-5.25,17.53,1.89,24.17-15.7,11.7-27.45l5.97-7.88c5.9,1.47,11.45.11,14.56-5.25,3.95-6.8,2.04-13.9-4.3-18.38,1.49-16.72-7.49-16.8-8.12-17.66-2.99-4.15,5.51-3.75,10.03-9.07,6.81-8.02,4.79-22.13-4.77-26.97"/>
        <path class="cls-16" d="M29.37,152.28c-.27.1-1.5,1.75-5.01,2.86-.56-.14-4.42-9.94-4.54-10.5-1.63-8.01,2.57-10.6,3.34-11.94q6.68-4.42,13.37-8.83l-.95-8.83c.1-2.73-8.04-6.86-13.37-10.5-2.1-4.42-1.05-9.85,1.91-13.84,8.45-3.78,19.02-1.63,19.1-7.88,0-.5-2.12-5.75-2.39-9.79-.72-10.74,14.06-12.77,15.28-14.08.5-.54,1.74-5.63,1.91-6.92,1.36-2.12,3.22-3.78,4.77-5.73,2.19-2.75,3.56-.4,1.91-8.83,15.43-17.14,14.53-10.69,36.04-7.88,3.21-.75,3.19-14.58,10.03-15.75,9.57-1.64,12.02,10.31,8.12,13.37-3.67,2.88-3.2-2.58-6.68-7.64-3.78,22.62-17.69,15.12-34.85,12.89-8.46,5.82-4.47,10.16-5.49,13.13-.28.81-7.63,7.08-8.12,8.12-3,6.43,5.2,5.22-16.71,16.71-2.36,5.97,9.05,16.27-6.92,23.15-4.57,1.97-16.64,2.16-13.37,6.21,2.66,3.28,15.27,6.03,15.99,17.43,1.43,22.72-26.97,10.24-13.37,35.09Z"/>
        <g>
          <g>
            <path class="cls-16" d="M164.23,15.26c12.02-1.13,20.75,19.49,43.44,11.94,11.03,14.64,20.32,10.14,15.52,27.93,2.48,1.22,11.9,9.52,12.65,9.79,5.27,1.89,20.78-2.81,15.99,16.47,4.52,1.56,20.47,7.85,22.44,11.46,2.26,4.16.7,12.42-4.06,14.08-11.08,3.87-.82-9.16-1.19-10.74-11.93-10.93-28.55-.8-21.96-23.39q-6.33-.6-12.65-1.19c-8.03-10.55-12.63-7.74-15.52-11.22-7.65-9.25,11.94-21.6-18.86-17.43l-2.39-8.12c-11.72.38-21.94-6.33-31.03-12.89-4.05-.29-16.38,7.73-13.61-.72.59-1.81,9.15-5.77,11.22-5.97Z"/>
            <path class="cls-38" d="M209.11,32.93c2.95-.22-2.46,2.06-3.34,2.39-11.48,4.18-3.32-1.9,3.34-2.39Z"/>
          </g>
          <path class="cls-1" d="M110.76,13.83c-6.84,1.17-6.82,15.01-10.03,15.75-21.51-2.82-20.61-9.27-36.04,7.88,1.65,8.43.28,6.08-1.91,8.83-1.55,1.95-3.41,3.61-4.77,5.73h0c-.17,1.29-1.41,6.38-1.91,6.92-1.22,1.32-16,3.34-15.28,14.08.27,4.04,2.39,9.28,2.39,9.79-.07,6.25-10.64,4.1-19.1,7.88-2.96,3.99-4.01,9.42-1.91,13.84,5.33,3.64,13.47,7.78,13.37,10.5q-6.92.12-13.84.24c-.54,5.44,5.82,9.41,3.82,14.8-.21.57-1.85,1.7-2.39,2.63-1.46.02-15.38-11.82-17.19,1.19-1.12,8.08,8.08,8.65,13.84,10.74.11.56,3.98,10.36,4.54,10.5,3.52-1.11,4.74-2.77,5.01-2.86-13.6-24.85,14.8-12.37,13.37-35.09-.72-11.4-13.34-14.14-15.99-17.43-3.27-4.05,8.8-4.24,13.37-6.21,15.97-6.89,4.57-17.19,6.92-23.15,21.91-11.49,13.71-10.28,16.71-16.71.48-1.03,7.84-7.31,8.12-8.12,1.03-2.97-2.97-7.31,5.49-13.13,17.16,2.23,31.07,9.73,34.85-12.89,3.48,5.05,3.01,10.51,6.68,7.64,3.9-3.06,1.45-15.01-8.12-13.37Z"/>
          <path class="cls-1" d="M252.32,123.4c-2.02-4.15,17.5-2.56,11.94-10.5-21.91-.99-18.69,15.34-14.08,18.38,7.12,4.71,19.02-1.14,19.34,17.19.17.16.33.34.48.48,2.5-3.03,2.52-13.32-.48-16.95-2.09-2.52-16.71-7.61-17.19-8.59Z"/>
        </g>
      </g>
      <path class="cls-39" d="M205.72,150.67l1,2c1,2-3,3-3,3-1.16.37-2,1-3,0l1-5c1-2,3.66-.46,4,0Z"/>
      <g>
        <path class="cls-33" d="M206.72,158.67c0-2,0-5-1-6s-1.79-2.03-3-1c-.85.72-1.85,4.6-2,7-.05.8.36,3.41,1.05,3.95,1.97,1.52,3.28,1.28,3.96.21,1.99-3.16.99-2.77.99-4.16Z"/>
        <path class="cls-2" d="M207.27,157.87c-.22-2.79-.45-4.83-1.55-5.2-3-1-1,3-4,5-1.18.78-.56,3.32,0,4,3.39,4.13,5.76-1.04,5.55-3.8Z"/>
      </g>
      <g>
        <path class="cls-7" d="M78.46,93.49c-.32-.04-.57-.26-.4-.54,1.23-1.98,4.66-7.32,6.9-8.78s9.41-4.96,14.55-3.99c4.03.76,4.14,4.49,4.17,6.11,0,.03-.02.06-.05.08-2.65,1.53-4.4.39-8.93.03-1.75-.14-3.24-.01-4.87.46-2.57.74-4.87,2.4-7.04,4.87-.66.75-2.7,1.96-4.34,1.76Z"/>
        <path class="cls-7" d="M178.6,86.32c.11.55,2.3,3.22,2.88,5.4l-1.08,1.08c-14.83-10.29-26.1-.3-29.16-7.2,2.55-2.21,3.17-11.87,27.36.72Z"/>
      </g>
      <g>
        <path class="cls-23" d="M137.56,143.02c1.79,8-20.24,11.31-20.88,2.16,5.6,5.57,14.97,2.25,20.88-2.16Z"/>
        <g>
          <path class="cls-34" d="M155.93,149.5c2.64.26,5.03,1.58,6.12,3.96-8.51.6-12.2,25.11-29.16,27.72-25.18,3.88-14.91-25.59-27.72-19.8.7-9.31,39.85-.3,54.01-8.64l-3.24-3.24Z"/>
          <path class="cls-18" d="M150.89,158.15c4.44-.62-4.85,8.34-6.48,9.36-9.07,5.7-30.73,7.42-30.24-4.32,15.16,3.57,34.64-4.75,36.73-5.04Z"/>
        </g>
        <path class="cls-19" d="M121.36,139.42c2.21,1.67,5.3,2.24,5.4,2.52,1.58,4.52-6.69,4.93-5.4-2.52Z"/>
      </g>
    </g>
    <g>
      <path class="cls-11" d="M159.06,197.94c9.44-1.47,18.27-5.38,26.01-10.95,7.15-5.15,13.95-11.66,17.68-19.79,1.34-2.92,2.46-6.22,2.27-9.49-.22-3.85-6.22-3.64-6,.22.03.45-.03.9-.01,1.34.02.39.11-.6.02-.21-.02.1-.02.21-.04.31-.06.32-.11.65-.18.97-.13.59-.29,1.18-.47,1.76-.09.29-.19.58-.3.87-.15.44.16-.4-.02.05-.09.22-.18.44-.27.66-1.36,3.17-3.24,6.05-5.43,8.66-5.4,6.44-12.48,11.65-20.03,15.3-4.22,2.04-8.83,3.57-13.46,4.29-1.6.25-2.95,1.35-2.89,3.11.05,1.47,1.5,3.14,3.11,2.89h0Z"/>
      <g>
        <path class="cls-22" d="M161.61,194.51c-.33,0-.56,0-.66-.01-.47-.09.31-.51.06-1.18-.13-.01-.27.07-.39.04-.46,1.36-2.6,2.09-4.38,2.85-14.64,6.24-22.42-.93-15.81-4.49,2.51-1.35,4.18-1.28,6.88-1.56,1.29-.14,3.82-.29,5.08-.18-20.66-5.75-22.98,12.61-11.96,13.91,5.31.62,17.06-3.63,20.21-8.57.35-.04.69-.08,1.02-.11-.02-.23-.04-.46-.06-.69Z"/>
        <path class="cls-16" d="M156.24,196.21c-1.64-.71-4.34-.02-5.9-.12.68-2.6-3.89-1.97-3.03-5.93,1.29-.14,3.82-.29,5.08-.18,5.4.44,7.43,3.24,8.23,3.38-.46,1.36-2.6,2.09-4.38,2.85Z"/>
        <path class="cls-22" d="M140.43,191.72c1.77,2.74,6.81,4.17,9.91,4.37,1.55.1,4.25-.6,5.9.12-14.64,6.24-22.42-.93-15.81-4.49Z"/>
        <path class="cls-16" d="M150.34,196.09c-3.1-.2-8.14-1.63-9.91-4.37,2.51-1.35,4.18-1.28,6.88-1.56-.86,3.97,3.7,3.33,3.03,5.93Z"/>
        <path class="cls-41" d="M161.58,193.84c0-.2,0-.39.01-.59-.19.02-.38.04-.58.06.25.67-.53,1.1-.06,1.18.1.02.33.02.66.01-.01-.22-.02-.45-.02-.67Z"/>
      </g>
    </g>
    <g>
      <g>
        <path class="cls-11" d="M81.26,61.97c7.55-10.48,15.86-20.8,19.77-24.71-1.44-1.13-2.24-9.73-9-5-6.15,4.3-14.69,13.75-20.92,21.48-.18-.31-.38-.64-.59-1.01-1.02,1.82-2.06,3.78-3.1,5.76-2.55,3.4-4.22,5.97-4.39,6.77-13.51,10.36-17.55,22.36-19.03,40.08-6.61,5.44-3.68,39.2-.47,45.28,3.59,6.8,9.66,4.68,15.12,5.94-1.13-17.14-4.9-38.82-1.89-56.03,1.27-7.27,9.25-12.27,9.27-12.27.28-4.17,7.31-15.28,15.18-26.22.25-.3.25-.31.05-.07ZM46.36,101.94c1.56-12.79,5.92-22.79,14.73-31.6-5.12,11.36-3.98,20.06-4.81,25.58-3.32,3.73-9.4,7.66-9.92,6.02Z"/>
        <path class="cls-8" d="M217.79,50.91c-2.29-3.77-4.76-10.65-12.85-18.81-11.02-11.49-29.21-20.1-43.49-22.45-2.42-.4-3.2-.44-3.42-.4-1.14.22-13.46-.83-24,1-4.82.84-15.75,6.21-20.52,8.5-5.74,2.75-13.25,7.46-18.04,12.13-1.37,1.34-12.45,13.37-12.45,13.37,0,0,22.22-16.79,41.85-23.08,17.43-5.59,29.68-4.69,46.7,2.43,4.38,4.04,10.27,6.69,15.32,10.31,2.84,2.04,5.32,5.29,8.15,7.28.66.46,6.48,4.65,7.76,5.83.78,1.29,2.64,3.77,3.12,4.48,2.7,4,5.76,10.25,6.1,10.74,1.38-2.67,4.73-7.27,5.76-10.13.07-.19-.04-.77,0-1.21Z"/>
        <path class="cls-43" d="M195.05,41.2c.25.32,11.97,18.05,11.97,18.05,0,0-7-11-11.48-14.41-21.13-16.11-46.87-26.9-70.92-18.81-8.22,2.77-24.28,12.71-30.89,19.41-2.93-.31-22.72,9.81-22.72,9.81,0,0,14.9-18.38,39-31,42-22,66.95.37,72,4,2.84,2.04,10,9,13.03,12.95Z"/>
      </g>
      <g>
        <path class="cls-21" d="M55.81,122.03c-.19-5.51-2.74-2-10.39-2.83-1.95-10.62,2.02-15.56,10.16-18.68.7.67.43,19.82.24,21.51Z"/>
        <path class="cls-5" d="M55.81,122.03c-1.1,9.51-8.89,5.4-10.39-2.83,7.66.83,10.2-2.68,10.39,2.83Z"/>
      </g>
      <path class="cls-11" d="M236.55,103.07c-1.53-6.29,3.87-25.81-13.7-37.35-.48-2.36-1.07-4.67-1.76-6.92-2.06-6.54-9.06-18.54-11.06-20.54,1,2,2.69,17.69,1.31,20.36-.34-.49-5.31-9.36-8.31-12.36-.75-.75-18-16-20-17,2,2,17.68,21.14,18.92,23.29,9.08,15.71,8.51,29.86,9.08,35.71,3.76.65,7.57,1.16,10.28.32.7.18,3.08,1.43,3.72,1.68,1-7-.74-17.88-1.13-18.85,7.41,1.82,10.83,18.27,10.77,26.57-.06,8.81-6.49-5.44-9.45-7.64,1.32,3.12,1.12,4.92,1.42,7.92.74,7.54.6,15.08.47,22.64-.08,6.36-1.08,25.36-2.36,35.09q.47.57.94,1.13c12.92,1.63,15.52-8.49,16.54-21.79,2.2-28.78-5.27-30.61-5.67-32.26ZM199.42,50.13c0-.05.02-.1.03-.13.04-.1.1-.14.18-.14-.07,0-.13.04-.18.14-.01.03-.03.08-.03.13-.01.1,0,.24,0,.41-.02-.16-.02-.3,0-.41ZM201.58,51.6s.03.01.04.01c-.01,0-.03,0-.04-.01Z"/>
      <path class="cls-10" d="M219.76,148.92c.81-18.34-1.54-33.83-1.42-43.86q-.71.28-1.42.57c-.12-8.81-3.64-13.59-2.9-18.36-3.47-.28-13.78-2.12-16,3-.34,2.21.03,12.58,0,14-.05,2.62-.56,18.35-1,22-.02,1.08-5.63,22.23-6,32,11.19,9.32,13.68,9.95,22.07,10,.61,0,1.25-1,1.93-1,3-3,4.62-15.72,4.74-18.34ZM202.28,105.62c-.04.38-.09.79-.13,1.22.04-.43.08-.84.13-1.22.02-.22.08-.35.14-.43-.07.08-.12.21-.14.43ZM203.23,104.77c-.04.06-.08.11-.13.14.05-.03.09-.08.13-.14.17-1.96.29-3.45.4-4.71-.11,1.25-.23,2.75-.4,4.71ZM203.74,98.66c.04-.44.07-.85.11-1.25-.03.4-.07.81-.11,1.25ZM203.95,96.23c.03-.39.07-.79.1-1.2-.03.41-.07.8-.1,1.2Z"/>
      <path class="cls-10" d="M76.51,137.67c.44-5.21,1.18-10.05,1.18-10.05,1.43-8.52,2.18-13.7,2.31-23.69.02-1.31,1.75-11.73,4.97-19.77.37-.47-3.81.38-3.93.09-2.37.44-11,1-15,4,0,0-3,2-4,3-1.58,1.58-3.73,3.73-5,8,.18.01-.32,1.58-.27,1.27-2.73,16.73-3.73,31.73,1.89,56.03.32,1.36.9,4.46,1.38,6.7.19.91-.39,1.77,0,2,12,7,22.77.59,22.77.59-2.67-4.32-4.82-8.41-5.79-13.47-1.44-7.47-.75-11.65-.5-14.71Z"/>
      <path class="cls-41" d="M71.03,86.26c.56-.03-3.85,6.56-4.66,9.91-5.59,23.12-6.8,47.35-5.84,58.37.5,5.73,3.5,12.73,3.5,12.73l-4-2s-4.58-4.49-5-19c-.38-12.99,1.77-44.23,3-48,3.56-10.9,10.08-11.84,13-12Z"/>
      <path class="cls-8" d="M70.03,86.26s-7,3.36-11,13.99c-3.05,8.11-3,56.01-3,56.01,0,0-3.53-17.94-3-29,.51-10.56,1.3-19.8,4-29.37,3-10.63,13-11.63,13-11.63Z"/>
      <path class="cls-41" d="M226.63,98.26c.4,6.99.6,15.08.47,22.64-.19,11.71-1.13,35.54-1.42,36.22-7.66,18.13-23.66,9.13-23.66,9.13,9-18,9-24,10-29,3.6-18,2.19-22.17,2.32-32.2.04-2.82-3.32-17.8-3.32-17.8,0,0,15.1,2.24,15.6,11.01Z"/>
      <path class="cls-8" d="M215.03,87.26c2.59.83,5.7.97,8.3,1.95,1.68.63,1,.47,1.89,1.13,1.32,3.12,1.42,4.92,1.81,7.92.4,2.99-.29,44.72-1,45-.12-8.81-5.48-45.25-15-56-.73-.82,3.21-.25,4,0Z"/>
      <path class="cls-41" d="M146.98,8.28s.05-.02.05-.02c0,0-15-1-31.04,5.04-9.99,3.6-23.75,11.68-31.94,19.95,0,0,0,0-.01,0-8,10-19.49,28.09-17,26,37-31,45.68-38.18,57-44,8.2-4.22,12-7,37.42-5.6-4.78-.82-9.62-1.29-14.47-1.38Z"/>
      <path class="cls-5" d="M228.03,154.21c.21-2.31,6.61-1.74,7.72-7.18,1.76-8.64-2.73-35.3-2.73-35.3l-.68-8.36s8.2,10.22,7.01,34.29c-.67,13.48-1.58,17.11-11.3,16.56Z"/>
      <path class="cls-21" d="M228.03,154.26s-1.44-.66-1.31-2.78c.31-5.22.86-7.88,4.31-18.22,4-12,2-21,2-21,0,0,3,11,4,19,.52,4.18.12,14.59-1,17-2.47,5.31-8,6-8,6Z"/>
    </g>
    <path class="cls-22" d="M99.7,54.32c.1,0,.2-.02.3-.04,8.93-1.71,16.02-15.03,26.04-7.73,9.25,6.73,21.04-9.03,31.92-12.59,2.08-.68,20.96,1.86,23.06,1.29,0-2-5-10-13-12-10.45-2.61-15.03,4.97-17,3-1-1-5-3-5-3,0,0-14-7-22.08,3.74-1.32,1.09-6.61-3.46-10.93-3.97-7.78-.93-15.99,3.24-21.52,11.92-.98,1.53-5.47,10.32-1.38,16.86.55.89-6.09.46-11.09,7.46-3.72,5.21-5.91,14.03-5,14,1.55-.05,24.13-18.82,25.68-18.93Z"/>
    <g>
      <path class="cls-36" d="M142.72,242.9c-11.72,0-24.24-5.49-24.7-16.65-.1-2.55,1-7,1-7l-9,2-8,2c3.06,19.28,22.01,35,40.7,35s35.24-15.72,38.3-35c0,0-4.57-2.97-6-4-1.81-1.31-8-5-8-5,0,0,.22,6.5,0,9-.98,11.12-12.58,19.65-24.3,19.65Z"/>
      <path class="cls-8" d="M106.9,231.37c3.08.27,6.14-.31,8.96-1.54.72-.31.94-1.43.54-2.05-.48-.75-1.28-.87-2.05-.54-.16.07-.18.08-.05.02-.09.04-.18.07-.27.11-.14.05-.28.1-.41.15-.32.12-.65.22-.98.32-.64.18-1.29.33-1.94.44-.06,0-.55.08-.26.04-.15.02-.29.03-.44.05-.34.03-.69.06-1.03.07-.69.02-1.38,0-2.06-.06-.78-.07-1.53.74-1.5,1.5.04.87.66,1.43,1.5,1.5h0Z"/>
      <path class="cls-8" d="M114.09,241.05c1.85-.26,3.68-1.32,4.83-2.8.26-.33.44-.63.44-1.06,0-.37-.16-.81-.44-1.06s-.66-.46-1.06-.44c-.37.02-.82.13-1.06.44-.33.43-.72.81-1.15,1.14l.3-.23c-.43.33-.9.6-1.4.82l.36-.15c-.52.22-1.06.37-1.62.45-.34.05-.73.4-.9.69-.19.32-.27.8-.15,1.16s.34.71.69.9l.36.15c.27.07.53.07.8,0h0Z"/>
      <path class="cls-8" d="M123.06,248.95c.88-1.64,1.85-3.23,2.9-4.76.44-.65.14-1.69-.54-2.05-.76-.4-1.58-.15-2.05.54-1.05,1.54-2.02,3.12-2.9,4.76-.37.69-.19,1.67.54,2.05s1.65.2,2.05-.54h0Z"/>
      <path class="cls-8" d="M135.8,253.62c-.02-1.21.02-2.43.14-3.63.03-.31.07-.61.11-.92-.04.27.01-.09.03-.17.02-.14.04-.28.07-.42.1-.61.22-1.22.36-1.82.17-.76-.23-1.66-1.05-1.85-.76-.17-1.66.23-1.85,1.05-.57,2.54-.85,5.15-.8,7.76.01.78.68,1.54,1.5,1.5s1.52-.66,1.5-1.5h0Z"/>
      <path class="cls-8" d="M150.17,254.46c.13-2.54.03-5.09-.3-7.62-.06-.41-.13-.75-.44-1.06-.26-.26-.69-.46-1.06-.44-.72.03-1.61.67-1.5,1.5.34,2.53.44,5.07.3,7.62-.04.78.72,1.53,1.5,1.5.85-.04,1.46-.66,1.5-1.5h0Z"/>
      <path class="cls-8" d="M163.32,248.3c-.18-.2-.35-.41-.52-.62-.1-.12-.19-.24-.28-.35-.03-.03-.17-.22-.04-.05s0-.01-.04-.05c-.33-.44-.65-.9-.96-1.36-.61-.93-1.16-1.89-1.65-2.88-.35-.7-1.4-.96-2.05-.54-.72.47-.91,1.3-.54,2.05,1.06,2.14,2.4,4.11,3.96,5.92.51.6,1.6.57,2.12,0,.58-.64.55-1.49,0-2.12h0Z"/>
      <path class="cls-8" d="M170.23,239.64c-.3-.05-.59-.12-.88-.22-.14-.04-.27-.1-.41-.14-.27-.1.31.14.07.03-.07-.03-.14-.07-.22-.1-.27-.13-.54-.28-.79-.45-.12-.08-.24-.16-.36-.25-.24-.17.28.23.05.04-.06-.05-.12-.1-.18-.15-.22-.19-.43-.39-.62-.61-.11-.12-.2-.24-.31-.36.33.38-.02-.03-.09-.14-.16-.24-.31-.49-.44-.75-.04-.07-.07-.14-.1-.21-.05-.11-.1-.34.02.07-.05-.15-.11-.3-.16-.45-.25-.74-1.05-1.31-1.85-1.05-.74.24-1.31,1.05-1.05,1.85.96,2.89,3.49,5.25,6.52,5.79.41.07.79.06,1.16-.15.31-.18.61-.54.69-.9.17-.73-.22-1.7-1.05-1.85h0Z"/>
      <path class="cls-8" d="M175.51,230.99c-.26,0-.57-.08-.82-.05.06,0,.34.05.13.02-.06-.01-.12-.02-.18-.03-.14-.02-.27-.05-.4-.09-.27-.06-.53-.14-.79-.24-.06-.02-.12-.04-.17-.06-.22-.08-.05-.03.06.03-.12-.06-.25-.11-.37-.17-.23-.12-.46-.24-.68-.38-.12-.07-.23-.15-.34-.23-.05-.04-.1-.07-.15-.11-.15-.11.25.21.05.04-.42-.36-.81-.74-1.16-1.18-.22-.28-.72-.44-1.06-.44-.37,0-.81.16-1.06.44s-.46.66-.44,1.06c.02.42.18.73.44,1.06,1.65,2.09,4.32,3.31,6.96,3.34.78,0,1.54-.7,1.5-1.5s-.66-1.49-1.5-1.5h0Z"/>
      <path class="cls-8" d="M177.57,224.33c-.3-.09-.59-.2-.88-.31-.17-.07.31.14.07.03-.07-.03-.13-.06-.2-.09-.15-.07-.29-.14-.44-.22-.26-.14-.52-.29-.76-.45-.12-.08-.25-.17-.37-.25-.07-.05-.14-.11-.21-.16.1.07.24.19.06.04-.47-.38-.91-.81-1.3-1.27-.05-.06-.1-.11-.14-.17-.15-.18-.03-.04.04.06-.09-.12-.18-.24-.26-.36-.19-.27-.36-.54-.52-.83-.38-.69-1.38-.97-2.05-.54s-.95,1.32-.54,2.05c1.44,2.57,3.89,4.51,6.7,5.37.75.23,1.67-.27,1.85-1.05s-.24-1.6-1.05-1.85h0Z"/>
    </g>
    <g>
      <path class="cls-6" d="M77.68,260.98s-.01-.02-.02-.03c-5.64-8.95,6.8-29.72,18.12-36.92-21.61,1.03-35.05,9.47-36.96,10.4-23.13,11.22-17.55,53.7-33.45,56.31.15,1.23,10.12,8.35,10.74,8.68,6.91,3.7,15.61,5.34,22.9,7.83,10.53,3.6,13,5,13,5,0,0-1.35-6.03,0-5,.57.44-.06-.89.23-2.87,2.95-20.66,8.68-37.37,5.43-43.4Z"/>
      <path class="cls-39" d="M271.46,389.22c-1.54,11.18-8.74,18.47-20.02,17.86-16.54-.89-40.56-21.58-41.99-39.69.42-1.67-.76-3.95.98-2.23,1.57,1.55,6.13,21.5,30.03,30.51,38.88,14.66,23.65-23.16,25.88-24.31,4.3-2.21,5.11,15.02,5.13,17.86Z"/>
      <path class="cls-39" d="M68.35,363.42c-.65,2.85-2.15,4.77-1.95,11.41-16.56,15.95-30.66,22.66-53.71,23.81-2.59-3.39-3.46-5.18-4.39-9.43,3.49,10.05,39.37-9.62,45.65-13.89,5.17-3.52,9.46-8.11,14.4-11.91Z"/>
      <path class="cls-39" d="M67.37,382.28c-12.78,15.3-29.09,22.42-48.83,21.83-2.36-2.24-3.26-2.06-5.86-5.46,23.04-1.15,37.14-7.87,53.71-23.81,1.39,5.22.87,7.08.98,7.44Z"/>
      <path class="cls-39" d="M245.03,295.26c.58,2.66,1.77,7.01,2.51,9.63-4.22,3.45-22.75,5.81-23.44,11.66-.43,3.66,8.15,30.57,9.77,36.71,10.11,3.45,23.32,6.18,29.3,15.88-8.18-3.3-17.47-9.17-25.63-12.15-5.12-1.87-11.67-3.03-12.94-3.47v-.5c3.73-8.98-3.05-14.1-4.88-18.6-1.41-3.47-6.42-24.43-5.86-26.79.12-.51,1.8.27,1.46-1.24.32-.01.65.02.98,0,1.41-.08,2.56-.34,3.91-.5,8.8-1.05,17.46-5.47,24.83-10.62Z"/>
      <path class="cls-15" d="M190.41,376.32c2.12-1.81,4.89-2.8,7.08-4.47,8.36-6.37-.82-1.22-5.37,0-5.07,1.35-13.83,2.05-15.87,4.47-1.09,0-6.74-1.09-7.08-.99-.39.11.08.68-.73,1.49-4.6-2.58-7.71-.87-7.32-6.45,14.36,7.73,29.58-3.67,41.01-12.15,0-1.41,0-2.81,0-4.22,1.72-4.56,3,11.38,3.42,18.11-4.2,3.7-9.92,3.91-15.14,4.22Z"/>
      <path class="cls-15" d="M190.41,376.32c-4.51.27-9.58.03-14.16,0,2.04-2.42,10.8-3.11,15.87-4.47,4.55-1.22,13.73-6.37,5.37,0-2.19,1.66-4.96,2.66-7.08,4.47Z"/>
      <path class="cls-32" d="M98.62,388.73c-3.77,3.88-7.49,8.64-13.18,8.93-3.72-.63-10.6-3.62-13.18-6.45-1.44-1.58-3.12-5.3-3.91-7.44.1-3.19,3.13,3.2,7.08,5.46,8.23,4.7,15.05,2.08,23.19-.5Z"/>
      <path class="cls-26" d="M112.29,333.66c-.26,1.33-1.47,2.01-2.2,2.98,12.24,3.61,25.16,4.31,37.84,2.98.79-.08,1.16-.39,1.95-.5,3.46-.48,9.57-1.18,11.72-2.98.27.35,1.81,1.62,2.44,1.49.36,5.04-.91,12.09.98,11.91q2.93-.25,5.86-.5c.18,4.13,1.37,2.26,0,5.95-.02.05-.85-.19-.98.25-.28.98-.7,7.08-.98,7.44-.18.23-5.34,1.33-5.61,1.24-1.96-.67.48-15.2-1.46-15.88-17.38,3.07-35.2,2.2-52.73.99-1.47,13.57,3.23,16.31-6.1,13.15l-1.71-6.2c-2.2-.06-6.12-.03-8.06-.5l-.49-2.48c2.26.65,3.08.56,5.37,0,.39-.1.59-.33.98-.5.3-.12.97.14,1.22,0,5.07-2.75,7.75-15.15,4.15-13.89.11-.03-.73-.44,1.71-1.49.46-.2,4.03.85,5.37-4.96-3.54.23-12.18-.78-11.47,2.48-.55-.09-1.36-.04-1.95,0,.71-1.03-1.6-3.19.98-5.95,3.43-3.68,14.72-2.77,13.18,4.96Z"/>
      <path class="cls-30" d="M173.32,333.66c-1.37.01-4.05.37-3.66,2.48,11.57,2.81,16.67,3.26.98,3.47-.77-1.81-4.82-1.27-6.59-1.98-.63.13-2.17-1.14-2.44-1.49-2.22-2.89-2.11-6.97,1.46-8.43.91.67-4.97,3.71-.73,3.97.63.04,12.63-2.72,9.52-5.46,2.31.49,1.22,5.77,1.46,7.44Z"/>
      <path class="cls-13" d="M171.86,326.22c3.11,2.74-8.89,5.5-9.52,5.46-4.24-.26,1.64-3.29.73-3.97.41-.17,8.35-1.58,8.79-1.49Z"/>
      <path class="cls-15" d="M215.31,306.37c.34,1.51-1.34.73-1.46,1.24-.56,2.36,4.45,23.32,5.86,26.79,1.83,4.51,8.61,9.62,4.88,18.6-2.29-6.21-17.06-37.54-17.56-39.75-.69-3-1-8-1-8,0,0,6.36,1.21,9.29,1.11Z"/>
      <path class="cls-15" d="M62.49,305.88c-1.34-.08-2.57-.36-3.91-.5-7.67-.78-15.55-2.25-22.46-5.95-1.23,1.5-1.4,4.39-1.95,5.95,6.1,2.98,17.37,24.11,16.11,32-.31,1.94-4.78,19.01-5.37,19.84-.58.83-2.84.32-2.44,1.74,1.99-.6,3.91-1.29,5.86-1.98.41-.15,2.92-.36,4.64-.99q.85-.74,1.71-1.49,9.03-21.58,18.07-43.16c-.48-1.65-.72-8.07.28-11.07.9-2.71-7.69,5.79-10.54,5.62Z"/>
      <path class="cls-15" d="M111.8,371.86c.02.08.85.92.98,1.24-.49,1.6-18.56,5.2-2.93,9.67-.07,6.27-4.63,11.78-10.25,13.89-4.51,1.69-9.45,1.79-14.16.99,5.69-.29,9.42-5.05,13.18-8.93,3.2-1.29-6.13-1.79-11.96-3.47-7.99-2.31-25.79-9.81-6.35-4.47,30.21.22,10.62.45-7.08-15.13,12.01,6.56,25.13,11.22,38.57,6.2Z"/>
      <path class="cls-4" d="M98.13,334.65c.59-.04,1.4-.09,1.95,0,7.44,1.15-5.13,2.75-7.57,3.97-6.92,3.47-6.33,12.49.24,14.39l.49,2.48c-7.94-1.91-14.13-12.46-6.35-17.36,1.91-1.2,9.13-3.33,11.23-3.47Z"/>
      <path class="cls-30" d="M99.11,328.7c-2.58,2.77-.27,4.92-.98,5.95-2.1.14-9.32,2.27-11.23,3.47l-3.91.99c.97-1.18,1.73-2.02,2.93-2.98,10.56-.78,8.33-2.61,9.77-4.47,1.01-1.31,1.87-2.71,2.93-3.97.03.55-.16,1.03.49.99Z"/>
      <g>
        <path class="cls-30" d="M189.92,338.62c6.37,6.36,4.78,14.06-1.71,19.35-17.09,13.93-26.23-.07-27.1,12.4-.39,5.58,2.72,3.87,7.32,6.45-1.83,1.83-.86,4.24-5.37,6.95-.78-1.28-.95-2.98-1.71-3.47-2.74-1.8-6.67,2.54-12.21-7.94q-12.69.25-25.39.5c-6.07,10.02-7.29,5.3-13.92,9.92-2.52-.72-8.09-3.32-7.89-4.36.22-1.14,3.3-1.73,4.12-2.06,5.15-2.06,5.16-6.12,5.15-6.18-.76-2.67-3.28-7.35-6.5-6.76-1.21.22,2.69,4.57-9.28,1.49-12.89-3.32-22.81-13.29-12.45-25.8l3.91-.99c-7.78,4.9-1.59,15.45,6.35,17.36,1.94.47,5.86.44,8.06.5l1.71,6.2c9.34,3.16,4.63.42,6.1-13.15,17.53,1.21,35.35,2.08,52.73-.99,1.95.67-.49,15.2,1.46,15.88.27.09,5.44-1.01,5.61-1.24.28-.36.69-6.46.98-7.44.13-.43.96-.19.98-.25,11.62,1.91,18.53-5.69,17.58-17.36.39.27,1.18.71,1.46.99Z"/>
        <path class="cls-37" d="M132.01,362.74c4.06-2.13,9.07,2.62,5.86,3.97-1.12.47-10.76-1.4-5.86-3.97Z"/>
        <path class="cls-28" d="M132.07,356.48c.62-.3,8-.75,6.59,2.23-1.11,2.35-11.09-.06-6.59-2.23Z"/>
      </g>
      <g>
        <path class="cls-14" d="M267.56,365.91c-6.14-20.45-14.15-40.43-20.02-61.02-4.22,3.45-22.75,5.81-23.44,11.66-.43,3.66,8.15,30.57,9.76,36.71,10.11,3.45,23.32,6.18,29.3,15.88-8.18-3.3-17.47-9.17-25.63-12.15-5.12-1.87-11.67-3.03-12.94-3.47-10.08-3.51-13.59-5.62-22.7-11.41-3.26-2.93-2.87-4.91-4.15-6.95-.92-1.46-1.26-2.34-2.44-3.97-.06-.09,0-1-.98-1.98-2.26.77-4.71,1.29-6.92,1.23,2.21.06,4.66-.46,6.92-1.23-.04-.04-.42-.75-.49-.99-3.29-.57-10.59-5-13.18-4.47-.18.04-.39-.05-.49,0-1.21.67-1.35,3.43-.98,4.71.51,1.75,9.25,6.04,11.23,7.69.04.04.44.78.49.99.04-.02.2-.07.43-.14-.23.06-.39.12-.43.14-.23.12-.43,1.55-.98,1.49,6.37,6.36,4.78,14.06-1.71,19.35-17.09,13.93-26.23-.07-27.1,12.4,14.36,7.73,29.58-3.67,41.01-12.15,0-1.41,0-2.81,0-4.22h0c1.72-4.56,3,11.38,3.42,18.11-4.2,3.7-9.92,3.91-15.14,4.22-4.51.27-9.58.03-14.16,0-1.09,0-6.74-1.09-7.08-.99-.39.11.08.68-.73,1.49-1.83,1.83-.86,4.24-5.37,6.95,5.5,9.04,10.22,12.78,21.48,12.9,8.77-1.65,13.61-2.56,18.55-10.91,3.15-5.33,4.84-12.38,6.35-18.36.42-1.67-.76-3.95.98-2.23,1.57,1.55,6.13,21.5,30.03,30.51,38.88,14.66,23.65-23.16,25.88-24.31,4.3-2.21,5.11,15.02,5.13,17.86,1.24-9.01-1.42-15.03-3.91-23.32ZM195.78,336.63c-.3-.14-.74-.19-1.24-.18.5-.01.94.04,1.24.18.48.23.97.73,1.45,1.41-.48-.69-.97-1.19-1.45-1.41ZM198.36,340.03c.18.38.36.78.54,1.19-.18-.42-.35-.81-.54-1.19Z"/>
        <path class="cls-14" d="M104.72,363.42c-1.21.22,2.69,4.57-9.28,1.49-12.89-3.32-22.81-13.29-12.45-25.8.97-1.18,1.73-2.02,2.93-2.98,1.34-1.06,3.41-2.78,4.88-3.47.92-.44,4.56-1.51,4.88-.99,1.01-1.31,1.87-2.71,2.93-3.97-.35-7.29-5.98-2.07-9.28,0-1.51.95-1.86.93-1.95.99-.83.59-2.88,2.02-3.42,2.48-4,3.46-9.05,10.12-10.5,15.38-5.94,2.02-13.72,7.86-18.8,7.94q-.85.74-1.71,1.49c-1.72.63-4.22.84-4.64.99-1.95.7-3.87,1.39-5.86,1.98-.4-1.41,1.86-.91,2.44-1.74.59-.84,4.91-17.93,5.37-19.84,6.74-28.12-10.01-29.02-16.11-32-6.16,17.32-18.37,46.45-22.95,60.53-3.07,9.44-5.14,13.22-2.93,23.32,3.49,10.05,39.37-9.62,45.65-13.89,5.17-3.52,9.46-8.11,14.4-11.91-.65,2.85-2.15,4.77-1.95,11.41,1.39,5.22.87,7.08.98,7.44.02.09.95,1.4.98,1.49.1-3.19,3.13,3.2,7.08,5.46,8.23,4.7,15.05,2.08,23.19-.5,3.2-1.29-6.13-1.79-11.96-3.47-7.99-2.31-25.79-9.81-6.35-4.47,30.21.22,10.62.45-7.08-15.13,12.01,6.56,25.13,11.22,38.57,6.2-.76-2.67-3.86-9.03-7.08-8.43Z"/>
      </g>
      <path class="cls-30" d="M95.69,331.67c-1.44,1.86.8,3.69-9.77,4.47,1.34-1.06,3.41-2.78,4.88-3.47.92-.44,4.56-1.51,4.88-.99Z"/>
      <path class="cls-17" d="M99.6,339.61q-.24,6.45-.49,12.9c-.39.16-.58.4-.98.5-3.52.32-7.11-.49-8.3-4.22-2.97-9.29,6.5-8.22,9.77-9.18Z"/>
      <path class="cls-44" d="M104.48,338.62c-.44.14-2.57.31-4.88.99-3.27.96-12.74-.11-9.77,9.18,1.19,3.73,4.78,4.54,8.3,4.22-2.29.56-3.12.65-5.37,0-6.58-1.9-7.17-10.92-.24-14.39,2.44-1.22,15.01-2.82,7.57-3.97-.71-3.26,7.94-2.25,11.47-2.48-1.34,5.81-4.91,4.76-5.37,4.96-2.44,1.05-1.6,1.45-1.71,1.49Z"/>
      <path class="cls-25" d="M99.11,352.51q.24-6.45.49-12.9c2.31-.68,4.44-.85,4.88-.99,3.6-1.26.92,11.14-4.15,13.89-.25.14-.92-.12-1.22,0Z"/>
      <path class="cls-25" d="M170.88,349.04q-2.93.25-5.86.5c-3.55-14.62,5.52-8.9,5.86-8.19.22.46-.07,5.99,0,7.69Z"/>
      <g>
        <path class="cls-12" d="M173.32,333.66c3.42-.03,12.02,1.82,15.14,3.97.95,11.67-5.96,19.28-17.58,17.36,1.37-3.69.18-1.82,0-5.95-.07-1.7.22-7.23,0-7.69-.34-.72-9.41-6.43-5.86,8.19-1.89.18-.62-6.87-.98-11.91,1.77.72,5.82.17,6.59,1.98,15.69-.22,10.59-.66-.98-3.47-.38-2.11,2.29-2.47,3.66-2.48Z"/>
        <path class="cls-17" d="M172.59,340.11c13.64-2.62,11.74,16.31-.73,11.16q.37-5.58.73-11.16Z"/>
      </g>
      <g>
        <path class="cls-15" d="M177.23,388.73c4.86-.86,7.88-1.95,8.3-1.98,12.06-1.1,2.66,7.14-7.08,6.45-.69-.05-9.32-2.24-9.77-2.48-2.4-1.31,4.16-1.21,8.54-1.98Z"/>
        <path class="cls-15" d="M185.53,386.74c-.42.04-3.44,1.12-8.3,1.98-1.68-2.94-6.02-5.49-9.03-6.95-2.14-2.53,11.26-.54,17.33,4.96Z"/>
      </g>
    </g>
    <path class="cls-10" d="M80.15,280.51c1.65-3.63,1.88-8.05,1.86-8.05,0-.07.01-.14.01-.2-4,4-10,5-10,5,1.8,3.12,3,3,1.39,4.85-5.25,7.42-9.44,13.78-14.39,23.15,2,0,6.89,2.24,8,3,2.36,1.61,5.16,3.51,6,3-.75-10.67,1.65-18.4,6-28,.39-.86.77-1.79,1.12-2.75Z"/>
    <path class="cls-6" d="M247.83,285.3c-2.26-3.35-6.59-29.39-18.25-42.78-.1.53-.2,1.06-.31,1.59-1.84,6.68-4.41,12.93-7.69,18.76.99,14.39-7.09,29.03-8.55,43.4,11,1,22.05-1.9,29-7,.49-.36,9.62-8.99,12-10.09-1.84-1.75-4.66-1.6-6.19-3.87Z"/>
    <path class="cls-10" d="M207.96,299.81c-1.01-9.14,9.26-16.49,9.58-25.66.02-.5.11-4.09-.19-4.09-.16,1.24-.38,2.48-.56,3.72-.91,6.22-14.79,14.82-13.83,21.04,2,13,3.96,13.77,2.06,26.45,1.99.13,3.34-17.76,2.94-21.45Z"/>
    <g>
      <path class="cls-42" d="M111.24,121.71c-.5-1.47-1.36-5.17-5.73-9.43-2.82-2.75-5.81-4.38-7.96-4.74-1.44-.2-2.74-.16-3.92.02-2.25-.1-5.68,1.45-7.92,3.23-5.87,4.68-4.57,12.46,1.08,15.84.25.15.53.29.82.43,3.24,1.76,5.75,1.8,9.2,1.91,0,0,6.24.41,14.03-2.74.47-.19,1.41-.71,1.41-.71,0,0-.22-2.03-1.01-3.82Z"/>
      <path class="cls-7" d="M79.85,107.58c2.64,2.22,6.39-6.16,17.05-5.19,8.72.79,15.56,12.06,15.24,22.28-1.16-2.08-2.23-5.18-2.57-5.54-.05-.06-.18.02-1.29-.86,1.16-4.03-6.96-10.25-10.73-10.73-6.55-.85-10.77,2.43-13.74,7.73-.14.25-.58,1.17-.86,2.15-1.13,3.97,1.02,7.74,4.65,9.65-.74,0-3.81-1.99-4.23-2.35-4.02-3.43-7.61-12.5-7.56-18.15-.1-1.1.31-4.58.83-3.19.99,2.65,2.45,3.56,3.2,4.2Z"/>
      <path class="cls-7" d="M96.57,120.44c1.9-.49,2.53-3.14,2.21-4.87,11.2-1.45,3.91,16.24-2.21,4.87Z"/>
      <path class="cls-29" d="M109.59,120.1c0-.2-.04-.38-.05-.58,0-.14,0-.27,0-.41,0,0-.02-.02-.04-.02-.84-6.6-8.39-11.1-11.98-11.57-.36,1.44-2.68,2.49-3.43,3.86-.15.27-.81,2.12,0,2.15,2.03-.08,2.65.33,3.43.43.07.43,1.27,1.61,1.29,1.72,10.87-1.4,3.79,15.75-2.15,4.72-2.27.58-4.3-1.57-4.72-.64.81,3.73,1.27,6.93,4.72,8.8,1.25.67,3.25.49,7.72-.31,3.74-.67,4.99-4.57,5.14-8.2.02.01.05.04.06.05Z"/>
      <path class="cls-42" d="M161.38,110.69c.9-.18,3.78-.53,5.05-.47,2.94.16,5.9,2.18,5.9,2.18,7.28,5.07,10.16,9.31,3.22,16.31-.69.31-2.85,1.25-3.01,1.29-5.74,1.41-21.22,1.35-27.05-2-.02,0-.03-.02-.05-.03-.3-.17-.26-2.91.05-3.98,3.45-6.78,7.95-12.16,15.89-13.31Z"/>
      <g>
        <path class="cls-7" d="M181.56,114.56c2.17,1.76,3.7.7,5.24-1.17.9-.99.81-1.56,1.05-1.23.27.39.27,1.84-.33,3.75-1.37,4.31-5.27,9.83-11.96,12.82,6.94-7.01,4.06-11.25-3.22-16.31,0,0-1.92-1.42-5.58-2.15-1.82-.36-3.59.17-5.37.43-7.94,1.15-12.44,6.53-15.89,13.31,1.51-13.76,12.07-22.65,26.4-17.6,5.73,2.02,8.22,6.99,9.66,8.16Z"/>
        <path class="cls-29" d="M174.69,118.85c-.19-2.4-3.14-7.78-7.94-8.59-1.83-.31-3.59.17-5.37.43-4.27,6.01-2.22,3.07,1.5,4.29.41.13,1.13.82,1.5,1.29.24.3,1.52.19,3.86.86,4.97,5.8-3.02,11.68-6.44,4.72-1.91.28-4.19-1.74-4.29-1.5.28,14.31,18.69,12.68,17.17-1.5Z"/>
        <path class="cls-7" d="M168.25,117.13c4.97,5.8-3.02,11.68-6.44,4.72,2.32-.34,3.84-3.51,2.58-5.58,1.66-.19,2.83-.01,3.86.86Z"/>
      </g>
    </g>
  </g>
  <g>
    <path class="cls-3" d="M118.41,114.49c0,15.74-15.3,27-28,27s-19-10.26-19-26,9.3-22,22-22,25,5.26,25,21Z"/>
    <path class="cls-3" d="M197.41,115.68c0,22.81-17.9,29.81-32.77,29.81s-22.23-11.33-22.23-28.71c0-20.29,10.88-24.29,25.74-24.29,19.26,0,29.26,5.81,29.26,23.19Z"/>
    <g>
      <path class="cls-7" d="M201.15,124.82c.84-5.08-.33-15.03-2.4-20.47-.17-.45-1.72-2.88-2.07-3.65-2.17-4.77-6.05-8.24-9.27-9.2-2-.6-6-1-13-1-6,0-29-3-34.5,13.71-7.21-3.06-12.58-2.59-20-1-1.5-2.71-5.52-11.66-20.5-12.71-1.93-.13-9.16-.71-16,1-8,2-7.86,2.86-10,5-2.22,2.22-4.6,9.78-5,18-.35,7.04,2,17,3,19,.63,1.26,3,6,5.75,7.46,8.64,4.97,15.01,4.96,21.25,4.54,15-1,26.35-18.47,26-32.79,21.23-1.93,7.52,3.43,18.25,22.75,2.56,4.62,9.75,11.04,16.75,13.04,4.9,1.4,14.82,1.78,23-2,5.97-2.76,10.31-6.4,13.23-10.24s5-8.3,5.51-11.43ZM116.16,117.2c-.26,7.54-3.33,13.47-8.14,17.34-6.18,4.97-15.23,6.52-24.86,3.66-5.75-1.71-7.78-6.29-8.75-8.71-4-10,0-24,1-27,1.92-5.77,10.39-7.67,16-8,8.61-.51,17.34.25,21.75,8.71,2.09,4,3.16,9.45,3,14ZM149.16,135.45c-3.52-4.73-5.36-13.94-5.5-19.75-.37-15.93,5.18-19.09,20-20.5,5.57-.53,11.46-.87,17,0,.81.13,2.43.35,3,.5,2.12.56,4.25,1.34,5.79,2.84.47.46,4.36,5.98,5.96,16.95.49,3.39,0,8-1.72,12.65-.01.02-.02.03-.04.05-8.92,20.35-36.11,18.5-44.5,7.25Z"/>
      <g>
        <path class="cls-40" d="M69.72,105.23l-10,4.5c-.53-1.11-2.64-9.66-1.25-10.5,22.79-3.44,17.71-10.26,11.25,6Z"/>
        <path class="cls-7" d="M69.72,105.23q-.62,5-1.25,10c-3.24-2.09-6.93-1.68-8.75-5.5l10-4.5Z"/>
      </g>
    </g>
  </g>
</svg>