<?xml version="1.0" encoding="UTF-8"?>
<svg xmlns="http://www.w3.org/2000/svg" xmlns:xlink="http://www.w3.org/1999/xlink" version="1.1" viewBox="0 0 210 210">
  <defs>
    <style>
      .cls-1 {
        fill: #fff;
      }

      .cls-2 {
        fill: url(#linear-gradient);
        stroke-width: 2px;
      }

      .cls-2, .cls-3 {
        stroke: #481d51;
        stroke-miterlimit: 10;
      }

      .cls-3 {
        fill: none;
        stroke-width: 5px;
      }

      .cls-4 {
        fill: #57205b;
      }

      .cls-5 {
        fill: #481d51;
      }
    </style>
    <linearGradient id="linear-gradient" x1="101.19" y1="200.77" x2="101.19" y2="8" gradientUnits="userSpaceOnUse">
      <stop offset="0" stop-color="#e74039"/>
      <stop offset=".11" stop-color="#ed693c"/>
      <stop offset=".33" stop-color="#f29040"/>
      <stop offset=".72" stop-color="#fdc714"/>
      <stop offset=".8" stop-color="#fcca17"/>
      <stop offset=".88" stop-color="#fcd423"/>
      <stop offset=".96" stop-color="#fce435"/>
      <stop offset="1" stop-color="#fcef42"/>
    </linearGradient>
  </defs>
  <!-- Generator: Adobe Illustrator 28.7.3, SVG Export Plug-In . SVG Version: 1.2.0 Build 164)  -->
  <g>
    <g id="Layer_1">
      <g>
        <path class="cls-3" d="M113.51,206.9h-9.88c-63.72-1.49-96.55-45.92-96.55-97.82,0,0-.42-21.05.31-25.43C15.63,33.76,57.24,5.06,103.63,5.06h9.88c50.88,0,92.52,42.46,92.52,94.37v27.27c0,51.9-41.63,80.2-92.52,80.2Z"/>
        <path class="cls-4" d="M112.12,204.94h-10.03c-64.68-1.49-98-45.92-98-97.82,0,0-.42-21.05.31-25.43C12.78,31.8,55.01,3.1,102.09,3.1h10.03c51.65,0,93.9,42.46,93.9,94.37v27.27c0,51.9-42.26,80.2-93.9,80.2Z"/>
        <g>
          <path class="cls-2" d="M100.78,200.2h0c-45.6,0-83.8-34.48-91.45-79.49-.92-5.4-.76-29.52.45-35.69C18.4,41.22,56.02,8,100.78,8h0c51.07,0,92.85,38.08,92.85,90.94v5.16c0,9.52.21,30.7-2.31,39.4-9.27,31.99-32.98,51.23-64.73,56.7-7.55,1.3-17.77,0-25.81,0Z"/>
          <g>
            <g>
              <path class="cls-1" d="M69.8,147.99l-12.21-12.21,75-75,12.21,12.21-75,75Z"/>
              <path class="cls-5" d="M69.8,160.48c-3.2,0-6.39-1.22-8.83-3.66l-12.21-12.21c-2.34-2.34-3.66-5.52-3.66-8.83s1.32-6.49,3.66-8.83L123.75,51.95c4.88-4.88,12.78-4.88,17.66,0l12.21,12.21c2.34,2.34,3.66,5.52,3.66,8.83s-1.32,6.49-3.66,8.83l-75,75c-2.44,2.44-5.63,3.66-8.83,3.66Z"/>
            </g>
            <g>
              <path class="cls-1" d="M57.58,73l12.22-12.22,75,75-12.22,12.22L57.58,73Z"/>
              <path class="cls-5" d="M132.58,160.48c-3.31,0-6.49-1.32-8.83-3.66L48.75,81.82c-4.88-4.88-4.88-12.78,0-17.66l12.22-12.22c2.34-2.34,5.52-3.66,8.83-3.66s6.49,1.32,8.83,3.66l75,75c4.88,4.88,4.88,12.78,0,17.66l-12.22,12.22c-2.34,2.34-5.52,3.66-8.83,3.66Z"/>
            </g>
            <path class="cls-1" d="M69.8,147.99l-12.21-12.21,75-75,12.21,12.21-75,75Z"/>
            <path class="cls-1" d="M57.58,73l12.22-12.22,75,75-12.22,12.22L57.58,73Z"/>
          </g>
        </g>
      </g>
    </g>
  </g>
</svg>