<?xml version="1.0" encoding="UTF-8"?>
<svg xmlns="http://www.w3.org/2000/svg" xmlns:xlink="http://www.w3.org/1999/xlink" version="1.1" viewBox="0 0 854 236">
  <defs>
    <style>
      .cls-1 {
        fill: none;
        font-family: ToppanBunkyuMidashiGothicStdN-ExtraBold-83pv-RKSJ-H, 'Toppan Bunkyu Midashi Gothic';
        font-size: 130px;
        font-weight: 700;
        letter-spacing: .06em;
        stroke: #57215b;
        stroke-linecap: round;
        stroke-linejoin: round;
        stroke-width: 20px;
      }

      .cls-2 {
        fill: url(#linear-gradient);
      }

      .cls-3 {
        fill: #57215b;
      }

      .cls-4 {
        fill: #fff;
      }

      .cls-5 {
        fill: #f8e7d4;
      }

      .cls-6 {
        fill: #ffe5c0;
      }

      .cls-7 {
        opacity: .8;
      }

      .cls-8 {
        opacity: .7;
      }

      .cls-9 {
        fill: #481d51;
      }
    </style>
    <linearGradient id="linear-gradient" x1="430.67" y1="216.02" x2="430.67" y2="5.98" gradientUnits="userSpaceOnUse">
      <stop offset="0" stop-color="#e93e3a"/>
      <stop offset=".11" stop-color="#ed683c"/>
      <stop offset=".33" stop-color="#f3903f"/>
      <stop offset=".72" stop-color="#fdc70c"/>
      <stop offset=".8" stop-color="#fdca0f"/>
      <stop offset=".88" stop-color="#fdd51b"/>
      <stop offset=".96" stop-color="#fee62d"/>
      <stop offset="1" stop-color="#fff33b"/>
    </linearGradient>
  </defs>
  <!-- Generator: Adobe Illustrator 28.7.3, SVG Export Plug-In . SVG Version: 1.2.0 Build 164)  -->
  <g>
    <g id="Layer_1">
      <g>
        <g>
          <g>
            <path class="cls-4" d="M65.48,232.52C27.36,232.52.74,203.36.74,161.61v-87.23C.74,32.64,27.36,3.48,65.48,3.48h711.05c40.11,0,72.74,31.81,72.74,70.91v87.23c0,39.1-32.63,70.91-72.74,70.91H65.48Z"/>
            <path class="cls-9" d="M776.53,5.98c38.79,0,70.24,30.63,70.24,68.41v87.23c0,37.78-31.45,68.41-70.24,68.41H65.48c-38.79,0-62.24-30.63-62.24-68.41v-87.23C3.24,36.61,26.68,5.98,65.48,5.98h711.05M776.53.98H65.48c-20.03,0-37.13,7.53-49.45,21.76C4.56,36-1.76,54.34-1.76,74.39v87.23c0,20.04,6.32,38.38,17.79,51.64,12.32,14.24,29.42,21.76,49.45,21.76h711.05c41.49,0,75.24-32.93,75.24-73.41v-87.23c0-40.48-33.75-73.41-75.24-73.41h0Z"/>
          </g>
          <path class="cls-3" d="M63.63,5.98h712.9c38.79,0,70.24,31.45,70.24,70.24v89.56c0,35.48-28.76,64.24-64.24,64.24H64.72c-33.96,0-61.48-27.53-61.48-61.48v-94.17C3.24,36.6,25.86,5.98,63.63,5.98Z"/>
          <path class="cls-2" d="M89.82,5.98h690.17c36.88,0,66.77,29.9,66.77,66.77v74.69c0,37.87-30.7,68.58-68.58,68.58H57.87c-23.9,0-43.28-19.38-43.28-43.28v-106.52C14.59,27.43,51.03,5.98,89.82,5.98Z"/>
        </g>
        <g class="cls-8">
          <path class="cls-6" d="M742.4,44.7c26.08,5.34,35.82,10.3,41.72,19.22,5.96,9.01,9.88,20.09,12.98,28.99,1.11,3.18,4.38,9.75,9.52,9.52,5.16-.23,9.52-4.18,9.52-9.52,0-7.45-.77-14.89-1.92-22.24-1.28-8.19-3.42-16.33-7.22-23.73-1.78-3.46-4.14-6.89-7.09-9.45-3.69-3.21-7.63-5.26-12.15-7.05-7.56-2.99-15.96-4.02-24.01-4.63-7.1-.54-14.23-.51-21.34-.16-2.51.12-4.92.98-6.73,2.79-1.65,1.65-2.89,4.36-2.79,6.73.11,2.46.92,5.02,2.79,6.73s3.97,2.4,6.73,2.79h0Z"/>
        </g>
        <text class="cls-1" transform="translate(113.05 171.92) scale(.69 1)"><tspan x="0" y="0">START GAME</tspan></text>
        <g>
          <path class="cls-4" d="M135.72,138.38c1.16,11.44,4.73,17.68,12.14,17.68,4.2,0,7.32-3.12,7.32-9.62,0-7.28-3.04-10.14-14.01-15.73-12.68-6.5-19.19-15.47-19.19-30.94,0-19.11,9.28-30.55,23.39-30.55s23.03,10.4,24.99,29.77l-15.89,4.81c-.62-12.22-3.93-18.59-9.82-18.59-4.55,0-7.05,4.16-7.05,10.4,0,6.89,3.3,10.53,13.3,15.21,14.82,6.89,21.07,14.95,21.07,31.59,0,18.85-9.37,30.94-25.08,30.94s-25.71-10.79-27.58-31.98l16.42-2.99Z"/>
          <path class="cls-4" d="M235.34,89.37h-18.75v82.55h-16.07v-82.55h-18.75v-18.85h53.56v18.85Z"/>
          <path class="cls-4" d="M299.97,171.92h-16.51l-4.02-23.79h-21.33l-3.93,23.79h-15.26l17.76-101.4h25.44l17.85,101.4ZM271.05,97.82c-.8-4.55-1.52-9.23-1.96-13.91h-.45c-.54,4.68-1.25,9.36-2.05,13.91l-5.45,32.11h15.26l-5.36-32.11Z"/>
          <path class="cls-4" d="M346.57,171.92l-10.44-37.05h-6.69v37.05h-16.07v-101.4h23.48c14.37,0,24.55,9.49,24.55,29.77,0,14.43-4.28,22.88-11.16,27.17l15,44.46h-18.66ZM329.43,117.58h5.71c6.34,0,10.18-4.03,10.18-14.82s-3.84-15.34-10.18-15.34h-5.71v30.16Z"/>
          <path class="cls-4" d="M425.48,89.37h-18.75v82.55h-16.07v-82.55h-18.75v-18.85h53.56v18.85Z"/>
          <path class="cls-4" d="M519.31,116.41c.27,3.9.36,7.15.36,11.05,0,29.12-9.73,45.89-27.67,45.89-19.82,0-30.08-17.68-30.08-52.13,0-32.11,11.25-52,29.28-52,14.55,0,24.01,11.44,26.51,32.11l-16.6,5.46c-.8-14.17-4.02-20.67-10.18-20.67-7.77,0-12.05,12.09-12.05,34.19,0,24.57,4.64,36.79,13.84,36.79,7.05,0,10.53-7.93,10.62-24.44h-12.76v-16.25h28.74Z"/>
          <path class="cls-4" d="M589.65,171.92h-16.51l-4.02-23.79h-21.33l-3.93,23.79h-15.26l17.76-101.4h25.44l17.85,101.4ZM560.73,97.82c-.8-4.55-1.52-9.23-1.96-13.91h-.45c-.54,4.68-1.25,9.36-2.05,13.91l-5.45,32.11h15.26l-5.36-32.11Z"/>
          <path class="cls-4" d="M672.4,70.52v101.4h-14.73v-39.65c0-13.91.18-27.69.98-41.6h-.89l-13.3,81.25h-13.12l-13.57-81.25h-.89c.71,13.78.89,27.43.89,41.6v39.65h-14.73v-101.4h24.46l6.69,40.04c1.79,10.4,3.3,24.7,3.75,34.58h.89c.36-9.88,1.79-24.44,3.39-34.45l6.52-40.17h23.65Z"/>
          <path class="cls-4" d="M734.71,154.37v17.55h-42.67v-101.4h41.87v17.55h-25.8v24.05h23.21v16.9h-23.21v25.35h26.6Z"/>
        </g>
        <g class="cls-7">
          <path class="cls-5" d="M760.91,43.5c15.08,1.49,20.89,5.33,24.76,10.03,3.9,4.75,3.92,4.67,6.2,9.53.81,1.73,3.05,5.26,5.95,4.83s4.11-3,4.83-5.95c2.42-9.98-2.44-15.4-5.03-19.37-1.21-1.86-2.75-3.66-4.57-4.93-2.28-1.6-5.34-2.85-7.3-3.28-6.36-1.37-17.84-2.78-25.96-1.64-1.42.2-2.73.84-3.65,1.98-.84,1.03-1.38,2.64-1.18,3.98.21,1.39.82,2.79,1.98,3.65s3.98,1.18,3.98,1.18Z"/>
        </g>
      </g>
    </g>
  </g>
</svg>