<?xml version="1.0" encoding="UTF-8"?>
<svg xmlns="http://www.w3.org/2000/svg" version="1.1" viewBox="0 0 72 72">
  <defs>
    <style>
      .cls-1 {
        fill: #8dd4da;
      }

      .cls-2 {
        fill: none;
        stroke: #8dd4da;
        stroke-miterlimit: 10;
        stroke-width: 8px;
      }
    </style>
  </defs>
  <!-- Generator: Adobe Illustrator 28.7.3, SVG Export Plug-In . SVG Version: 1.2.0 Build 164)  -->
  <g>
    <g id="Layer_1">
      <g>
        <line class="cls-2" x1="-.05" y1="17.61" x2="39.34" y2="17.61"/>
        <line class="cls-2" x1="72.05" y1="54.39" x2="29.77" y2="54.39"/>
        <path class="cls-1" d="M17.39,45.02c5.16,0,9.36,4.2,9.36,9.36s-4.2,9.36-9.36,9.36-9.36-4.2-9.36-9.36,4.2-9.36,9.36-9.36M17.39,37.02C7.8,37.02.03,44.8.03,54.39s7.77,17.36,17.36,17.36,17.36-7.77,17.36-17.36-7.77-17.36-17.36-17.36h0Z"/>
        <path class="cls-1" d="M54.69,8.25c5.16,0,9.36,4.2,9.36,9.36s-4.2,9.36-9.36,9.36-9.36-4.2-9.36-9.36,4.2-9.36,9.36-9.36M54.69.25c-9.59,0-17.36,7.77-17.36,17.36s7.77,17.36,17.36,17.36,17.36-7.77,17.36-17.36S64.28.25,54.69.25h0Z"/>
      </g>
    </g>
  </g>
</svg>