<?xml version="1.0" encoding="UTF-8"?>
<svg xmlns="http://www.w3.org/2000/svg" version="1.1" viewBox="0 0 72 72">
  <defs>
    <style>
      .cls-1 {
        fill: #fff;
      }
    </style>
  </defs>
  <!-- Generator: Adobe Illustrator 28.7.3, SVG Export Plug-In . SVG Version: 1.2.0 Build 164)  -->
  <g>
    <g id="Layer_1">
      <g>
        <path class="cls-1" d="M20.62.59h-8.42C5.61.59.22,5.98.22,12.56v8.43c0,6.58,5.39,11.97,11.97,11.97h8.43c6.58,0,11.97-5.39,11.97-11.97v-8.43c0-6.58-5.39-11.97-11.97-11.97Z"/>
        <rect class="cls-1" x="39.41" y=".59" width="32.37" height="32.37" rx="11.97" ry="11.97"/>
        <path class="cls-1" d="M20.62,39.04h.01s-8.43,0-8.43,0C5.61,39.03.22,44.42.22,51.01v8.43c0,6.58,5.39,11.97,11.97,11.97h8.43c6.58,0,11.97-5.39,11.97-11.97v-8.43c0-6.58-5.39-11.97-11.97-11.97Z"/>
        <rect class="cls-1" x="39.41" y="39.03" width="32.37" height="32.37" rx="11.97" ry="11.97"/>
      </g>
    </g>
  </g>
</svg>