<?xml version="1.0" encoding="UTF-8"?>
<svg xmlns="http://www.w3.org/2000/svg" version="1.1" viewBox="0 0 72 72">
  <defs>
    <style>
      .cls-1 {
        fill: #8dd4da;
      }
    </style>
  </defs>
  <!-- Generator: Adobe Illustrator 28.7.3, SVG Export Plug-In . SVG Version: 1.2.0 Build 164)  -->
  <g>
    <g id="Layer_1">
      <g>
        <path class="cls-1" d="M20.63,8.59c2.15,0,3.97,1.82,3.97,3.97v8.43c0,2.15-1.82,3.97-3.97,3.97h-8.43c-2.15,0-3.97-1.82-3.97-3.97v-8.43c0-2.15,1.82-3.97,3.97-3.97h8.43M20.63.59h-8.43C5.61.59.22,5.98.22,12.56v8.43c0,6.58,5.39,11.97,11.97,11.97h8.43c6.58,0,11.97-5.39,11.97-11.97v-8.43c0-6.58-5.39-11.97-11.97-11.97h0Z"/>
        <path class="cls-1" d="M59.81,8.59c2.15,0,3.97,1.82,3.97,3.97v8.43c0,2.15-1.82,3.97-3.97,3.97h-8.43c-2.15,0-3.97-1.82-3.97-3.97v-8.43c0-2.15,1.82-3.97,3.97-3.97h8.43M59.81.59h-8.43c-6.58,0-11.97,5.39-11.97,11.97v8.43c0,6.58,5.39,11.97,11.97,11.97h8.43c6.58,0,11.97-5.39,11.97-11.97v-8.43c0-6.58-5.39-11.97-11.97-11.97h0Z"/>
        <path class="cls-1" d="M20.63,47.03c2.15,0,3.97,1.82,3.97,3.97v8.43c0,2.15-1.82,3.97-3.97,3.97h-8.43c-2.15,0-3.97-1.82-3.97-3.97v-8.43c0-2.15,1.82-3.97,3.97-3.97h8.43M20.63,39.03h-8.43C5.61,39.03.22,44.42.22,51.01v8.43c0,6.58,5.39,11.97,11.97,11.97h8.43c6.58,0,11.97-5.39,11.97-11.97v-8.43c0-6.58-5.39-11.97-11.97-11.97h0Z"/>
        <path class="cls-1" d="M59.81,47.03c2.15,0,3.97,1.82,3.97,3.97v8.43c0,2.15-1.82,3.97-3.97,3.97h-8.43c-2.15,0-3.97-1.82-3.97-3.97v-8.43c0-2.15,1.82-3.97,3.97-3.97h8.43M59.81,39.03h-8.43c-6.58,0-11.97,5.39-11.97,11.97v8.43c0,6.58,5.39,11.97,11.97,11.97h8.43c6.58,0,11.97-5.39,11.97-11.97v-8.43c0-6.58-5.39-11.97-11.97-11.97h0Z"/>
      </g>
    </g>
  </g>
</svg>