<?xml version="1.0" encoding="UTF-8"?>
<svg xmlns="http://www.w3.org/2000/svg" version="1.1" viewBox="0 0 72 72">
  <defs>
    <style>
      .cls-1 {
        fill: #8bd2d9;
      }
    </style>
  </defs>
  <!-- Generator: Adobe Illustrator 28.7.3, SVG Export Plug-In . SVG Version: 1.2.0 Build 164)  -->
  <g>
    <g id="Layer_1">
      <g>
        <path class="cls-1" d="M61.31,8.4c1.39,0,2.57,1.18,2.57,2.57v50.07c0,1.39-1.18,2.57-2.57,2.57s-2.57-1.18-2.57-2.57V10.97c0-1.39,1.18-2.57,2.57-2.57M61.31.4h0c-5.81,0-10.57,4.75-10.57,10.57v50.07c0,5.81,4.75,10.57,10.57,10.57s10.57-4.75,10.57-10.57V10.97c0-5.81-4.75-10.57-10.57-10.57h0Z"/>
        <path class="cls-1" d="M10.69,48.92c1.39,0,2.57,1.18,2.57,2.57v9.54c0,1.39-1.18,2.57-2.57,2.57s-2.57-1.18-2.57-2.57v-9.54c0-1.39,1.18-2.57,2.57-2.57M10.69,40.92C4.88,40.92.12,45.68.12,51.49v9.54c0,5.81,4.75,10.57,10.57,10.57s10.57-4.75,10.57-10.57v-9.54c0-5.81-4.75-10.57-10.57-10.57h0Z"/>
        <path class="cls-1" d="M35.61,32.13c1.39,0,2.57,1.18,2.57,2.57v26.33c0,1.39-1.18,2.57-2.57,2.57s-2.57-1.18-2.57-2.57v-26.33c0-1.39,1.18-2.57,2.57-2.57M35.61,24.13c-5.81,0-10.57,4.75-10.57,10.57v26.33c0,5.81,4.75,10.57,10.57,10.57s10.57-4.75,10.57-10.57v-26.33c0-5.81-4.75-10.57-10.57-10.57h0Z"/>
      </g>
    </g>
  </g>
</svg>