<?xml version="1.0" encoding="UTF-8"?>
<svg xmlns="http://www.w3.org/2000/svg" version="1.1" viewBox="0 0 72 72">
  <defs>
    <style>
      .cls-1 {
        fill: #8dd4da;
      }
    </style>
  </defs>
  <!-- Generator: Adobe Illustrator 28.7.3, SVG Export Plug-In . SVG Version: 1.2.0 Build 164)  -->
  <g>
    <g id="Layer_1">
      <g>
        <path class="cls-1" d="M61.24,8.4c1.39,0,2.57,1.02,2.57,2.22v3.95c0,6.47-15.16,15.38-26.17,15.38h-3.27c-11.01,0-26.17-8.91-26.17-15.38v-3.95c0-1.2,1.18-2.22,2.57-2.22h50.48M61.24.4H10.76C4.95.4.2,5,.2,10.62v3.95c0,12.86,20.88,23.38,34.17,23.38h3.27c13.29,0,34.17-10.52,34.17-23.38v-3.95c0-5.62-4.75-10.22-10.57-10.22h0Z"/>
        <path class="cls-1" d="M36.04,39.87c5.81.23,13.2,2.75,18.9,6.44,5.44,3.52,8.7,7.62,8.7,10.97v4.18c0,1.15-1.2,2.15-2.57,2.15H11.01c-1.37,0-2.57-1.01-2.57-2.15v-4.18c0-3.34,3.25-7.44,8.7-10.97,5.7-3.69,13.09-6.2,18.9-6.44M36.89,31.85h-1.71c.28,0,.57,0,.85.01.29,0,.57-.01.85-.01h0ZM36.04,31.86C21.5,32.29.44,43.56.44,57.27v4.18c0,5.58,4.75,10.15,10.57,10.15h50.07c5.81,0,10.57-4.57,10.57-10.15v-4.18c0-13.71-21.06-24.98-35.6-25.41h0Z"/>
        <path class="cls-1" d="M21.15,53.53c2.83-3.11,9.69-7.24,15.17-7.24h-.64c5.49,0,12.34,4.14,15.17,7.24.69.76,2.49,4.08.3,4.08h-30.3c-2.19,0-.39-3.33.3-4.08Z"/>
      </g>
    </g>
  </g>
</svg>