<?xml version="1.0" encoding="UTF-8"?>
<svg xmlns="http://www.w3.org/2000/svg" version="1.1" viewBox="0 0 72 72">
  <defs>
    <style>
      .cls-1 {
        fill: #fff;
      }
    </style>
  </defs>
  <!-- Generator: Adobe Illustrator 28.7.3, SVG Export Plug-In . SVG Version: 1.2.0 Build 164)  -->
  <g>
    <g id="Layer_1">
      <path class="cls-1" d="M71.8,14.57v-3.95c0-5.62-4.75-10.22-10.57-10.22H10.76C4.95.4.2,5,.2,10.62v3.95c0,8.98,10.19,16.82,20.86,20.73C10.22,39.72.43,47.93.43,57.27v4.18c0,5.58,4.75,10.15,10.57,10.15h50.07c5.81,0,10.57-4.57,10.57-10.15v-4.18c0-9.36-9.81-17.57-20.66-21.99,10.66-3.92,20.82-11.74,20.82-20.71ZM51.15,57.22h-30.3c-2.19,0-.39-3.33.3-4.08,2.78-3.05,9.43-7.07,14.85-7.23-.11,0-.21-.01-.32-.01h.64c-.11,0-.21.01-.32.01,5.43.15,12.07,4.18,14.85,7.23.69.76,2.49,4.08.3,4.08Z"/>
      <path class="cls-1" d="M35.68,45.9c.11,0,.21.01.32.01.11,0,.21-.01.32-.01h-.64Z"/>
    </g>
  </g>
</svg>