<?xml version="1.0" encoding="UTF-8"?>
<svg xmlns="http://www.w3.org/2000/svg" xmlns:xlink="http://www.w3.org/1999/xlink" version="1.1" viewBox="0 0 128 128">
  <defs>
    <style>
      .cls-1 {
        fill: url(#linear-gradient);
      }
    </style>
    <linearGradient id="linear-gradient" x1="64" y1="127.39" x2="64" y2=".61" gradientUnits="userSpaceOnUse">
      <stop offset="0" stop-color="#e93e3a"/>
      <stop offset=".11" stop-color="#ed683c"/>
      <stop offset=".33" stop-color="#f3903f"/>
      <stop offset=".72" stop-color="#fdc70c"/>
      <stop offset=".8" stop-color="#fdca0f"/>
      <stop offset=".88" stop-color="#fdd51b"/>
      <stop offset=".96" stop-color="#fee62d"/>
      <stop offset="1" stop-color="#fff33b"/>
    </linearGradient>
  </defs>
  <!-- Generator: Adobe Illustrator 28.7.3, SVG Export Plug-In . SVG Version: 1.2.0 Build 164)  -->
  <g>
    <g id="Layer_1">
      <path class="cls-1" d="M19.17,78.92c-4.16-3.7-9.73-.81-14.05-2.89-2.17-1.05-4-3.87-4.26-6.27-.29-2.65-.29-8.87,0-11.52.34-3.09,2.91-6.15,5.91-6.93,4.97-1.29,12.22,1.45,14.41-5.34,2.61-8.1-6.28-9.49-7.33-15.19-.58-3.16.16-5.48,2.27-7.8,1.6-1.77,8.04-8.05,9.86-8.73,10.38-3.9,12.04,12.1,21.84,6.05,5.44-3.36,2.33-9.04,3.89-13.88.87-2.7,3.49-5.08,6.33-5.52,2.51-.39,9.51-.36,12.1-.08,3,.32,5.95,2.81,6.84,5.66,1.5,4.79-1.26,10.18,3.54,13.57,10.37,7.32,13.39-13.02,24.49-4.41,1.97,1.53,8.83,8.47,9.54,10.53,3.01,8.68-6.85,9.74-7.41,16.27-.21,2.4.44,4.68,2.14,6.44,4.3,4.46,12.92-.74,16.7,5.68,1.73,2.94,1.7,14.03.69,17.28-3.1,9.9-16.06.72-19.35,10.27-3.07,8.91,10.43,10.08,7.17,19.67-.83,2.44-9.12,10.81-11.49,11.88-10.22,4.58-12.27-11.99-22.07-5.94-6.27,3.87-1.95,10.87-4.64,15.43-1.09,1.86-3.42,3.65-5.58,3.96-2.59.37-10.13.41-12.72.06-2.18-.3-4.71-2.21-5.73-4.14-2.72-5.16,1.71-13.63-6.24-16.14-9.14-2.89-10.74,11.34-20.55,6.73-1.32-.62-9.49-8.56-10.46-9.95-1.17-1.67-1.56-4.24-1.28-6.23.61-4.34,7.01-6.7,7.79-11.29.42-2.49-.42-5.51-2.34-7.21ZM61.67,37.77c-21.3,2.05-31.27,27.81-17.03,43.82,14.69,16.52,42.31,8.24,45.69-13.53,2.64-17.03-11.55-31.94-28.65-30.3Z"/>
    </g>
  </g>
</svg>