<?xml version="1.0" encoding="UTF-8"?>
<svg xmlns="http://www.w3.org/2000/svg" xmlns:xlink="http://www.w3.org/1999/xlink" version="1.1" viewBox="0 0 762 212">
  <defs>
    <style>
      .cls-1 {
        fill: url(#linear-gradient-8);
      }

      .cls-2 {
        fill: url(#linear-gradient-7);
      }

      .cls-3 {
        fill: url(#linear-gradient-5);
      }

      .cls-4 {
        fill: url(#linear-gradient-6);
      }

      .cls-5 {
        fill: url(#linear-gradient-9);
      }

      .cls-6 {
        fill: url(#linear-gradient-4);
      }

      .cls-7 {
        fill: url(#linear-gradient-3);
      }

      .cls-8 {
        fill: url(#linear-gradient-2);
      }

      .cls-9 {
        fill: url(#linear-gradient);
      }

      .cls-10 {
        fill: url(#linear-gradient-10);
      }

      .cls-11 {
        fill: url(#linear-gradient-11);
      }
    </style>
    <linearGradient id="linear-gradient" x1="34.93" y1="208.21" x2="34.93" y2="33.32" gradientUnits="userSpaceOnUse">
      <stop offset="0" stop-color="#e93e3a"/>
      <stop offset=".11" stop-color="#ed683c"/>
      <stop offset=".33" stop-color="#f3903f"/>
      <stop offset=".72" stop-color="#fdc70c"/>
      <stop offset=".8" stop-color="#fdca0f"/>
      <stop offset=".88" stop-color="#fdd51b"/>
      <stop offset=".96" stop-color="#fee62d"/>
      <stop offset="1" stop-color="#fff33b"/>
    </linearGradient>
    <linearGradient id="linear-gradient-2" x1="111.91" y1="202.1" x2="111.91" y2="41.61" xlink:href="#linear-gradient"/>
    <linearGradient id="linear-gradient-3" x1="175.28" y1="194.99" x2="175.28" y2="48.73" xlink:href="#linear-gradient"/>
    <linearGradient id="linear-gradient-4" x1="237.87" y1="191.33" x2="237.87" y2="51.27" xlink:href="#linear-gradient"/>
    <linearGradient id="linear-gradient-5" x1="300.34" y1="187.99" x2="300.34" y2="55.73" xlink:href="#linear-gradient"/>
    <linearGradient id="linear-gradient-6" x1="486.54" y1="189.47" x2="486.54" y2="55.12" xlink:href="#linear-gradient"/>
    <linearGradient id="linear-gradient-7" x1="535.54" y1="191.58" x2="535.54" y2="52.14" xlink:href="#linear-gradient"/>
    <linearGradient id="linear-gradient-8" x1="598.1" y1="196.57" x2="598.1" y2="45.82" xlink:href="#linear-gradient"/>
    <linearGradient id="linear-gradient-9" x1="660.47" y1="201.21" x2="660.47" y2="42.5" xlink:href="#linear-gradient"/>
    <linearGradient id="linear-gradient-10" x1="721.67" y1="210.38" x2="721.67" y2="35.45" xlink:href="#linear-gradient"/>
    <linearGradient id="linear-gradient-11" x1="389.81" y1="211.82" x2="389.81" y2=".18" xlink:href="#linear-gradient"/>
  </defs>
  <!-- Generator: Adobe Illustrator 28.7.3, SVG Export Plug-In . SVG Version: 1.2.0 Build 164)  -->
  <g>
    <g id="Layer_1">
      <g>
        <path class="cls-9" d="M69.41,40.9v32.4c-6.25-.37-12.5-.76-18.75-1.15v132.59c-10.52,1.11-21.04,2.26-31.56,3.47V70.07c-6.22-.43-12.44-.86-18.65-1.31v-35.44c22.97,2.76,45.95,5.28,68.96,7.58Z"/>
        <path class="cls-8" d="M76.61,41.61c7.45.73,14.91,1.43,22.37,2.12,14.91,1.36,25.02,2.93,30.3,4.78,5.28,1.86,9.59,5.81,12.92,11.82,3.33,6.01,5,15.28,5,27.91,0,11.52-1.18,19.24-3.53,23.2-2.36,3.95-6.99,6.33-13.9,7.11,6.26,1.95,10.47,4.5,12.62,7.68,2.15,3.18,3.49,6.08,4.02,8.73.53,2.65.79,9.95.79,21.9,0,13.02,0,26.04,0,39.06-9.79.76-19.59,1.56-29.37,2.4,0-16.94,0-33.88,0-50.81,0-8.18-.51-13.24-1.54-15.19-1.03-1.94-3.72-2.9-8.07-2.86v69.71c-10.54.93-21.07,1.92-31.6,2.95V41.61ZM108.21,71.01v34.38c3.55.07,6.05-.51,7.47-1.71,1.43-1.2,2.14-5.17,2.14-11.9,0-2.8,0-5.6,0-8.41,0-4.85-.69-8.06-2.07-9.65-1.38-1.59-3.89-2.49-7.55-2.71Z"/>
        <path class="cls-7" d="M191.1,50.92v141.87c-10.55.68-21.1,1.42-31.65,2.2V48.73c10.55.78,21.1,1.51,31.65,2.2Z"/>
        <path class="cls-6" d="M279.14,55.52c-5.38,44.01-10.75,88.44-16.13,133.35-16.05.71-32.09,1.53-48.12,2.46-6.1-45.96-12.2-92.62-18.3-140.06,11.13.7,22.26,1.36,33.4,1.95,3.88,38.01,6.65,69.82,8.31,95.8,1.64-26.32,3.37-49.59,5.21-69.84.73-8.4,1.47-16.78,2.2-25.16,11.14.55,22.28,1.04,33.42,1.48Z"/>
        <path class="cls-3" d="M316.19,56.79v130.14c-10.57.31-21.14.66-31.7,1.06V55.73c10.57.4,21.13.76,31.7,1.06Z"/>
        <g>
          <path class="cls-4" d="M492.76,55.12v106.77c6.42.16,12.85.34,19.27.52,0,9.02,0,18.04,0,27.06-16.98-.81-33.97-1.5-50.97-2.07V56.32c10.57-.35,21.13-.75,31.7-1.2Z"/>
          <path class="cls-2" d="M551.38,52.14v139.44c-10.56-.62-21.12-1.2-31.68-1.73V53.87c10.56-.53,21.12-1.11,31.68-1.73Z"/>
          <path class="cls-1" d="M639.33,45.82c-5.36,51.15-10.73,101.37-16.1,150.75-16.02-1.28-32.04-2.45-48.07-3.51-6.1-47.88-12.2-94.93-18.29-141.26,11.13-.68,22.26-1.41,33.39-2.19,3.88,39.53,6.65,73.44,8.31,101.26,1.64-28.02,3.37-53.03,5.21-75,.73-9.11,1.46-18.24,2.2-27.39,11.12-.83,22.24-1.72,33.36-2.66Z"/>
          <path class="cls-5" d="M676.27,42.5v158.71c-10.53-1-21.07-1.96-31.61-2.86,0-50.99,0-101.99,0-152.98,10.54-.91,21.08-1.86,31.61-2.86Z"/>
          <path class="cls-10" d="M743.52,35.45c6.01,56.92,12.02,115.2,18.03,174.94-10.74-1.29-21.49-2.53-32.24-3.71-.56-10.23-1.13-20.43-1.69-30.61-3.76-.27-7.53-.53-11.29-.78-.63,9.95-1.27,19.88-1.9,29.78-10.88-1.16-21.76-2.26-32.65-3.31,5.37-52.74,10.74-106.5,16.11-161.37,15.22-1.54,30.42-3.19,45.62-4.93ZM726.8,146.03c-1.6-19.2-3.2-42.8-4.81-70.72-3.22,32.36-5.24,55.64-6.06,70.38,3.62.11,7.24.22,10.86.34Z"/>
        </g>
        <path class="cls-11" d="M441.46,41.19l-.05-.1c-29.31-61.54-91.68-53.41-111.54,22.72-4.15,15.94-5.82,33.76-4.72,51.29,2.58,45.28,22.63,81.66,47.55,92.98,22.8,10.36,49.18-.91,65.78-32.14,20.12-36.35,22.2-95.76,2.97-134.75ZM424.91,140.32c-11.56,20.86-29.93,28.38-45.81,21.46-17.35-7.56-31.32-31.86-33.11-62.1-.77-11.7.4-23.61,3.29-34.26,13.83-50.85,57.26-56.28,77.67-15.18l.03.07c13.39,26.04,11.94,65.72-2.07,90Z"/>
      </g>
    </g>
  </g>
</svg>